<?xml version="1.0" encoding="UTF-8"?>
<svg id="Lager_1" data-name="Lager 1" xmlns="http://www.w3.org/2000/svg" viewBox="0 0 1254 1280">
  <defs>
    <style>
      .cls-1 {
        fill: #ecdfc3;
      }

      .cls-2 {
        fill: #ead9b1;
      }

      .cls-3 {
        fill: #ebdcba;
      }

      .cls-4 {
        fill: #ecdfc2;
      }

      .cls-5 {
        fill: #e9d5a7;
      }

      .cls-6 {
        fill: #ead8af;
      }

      .cls-7 {
        fill: #e9d6ab;
      }

      .cls-8 {
        fill: #ebddbd;
      }

      .cls-9 {
        fill: #e8d4a4;
      }

      .cls-10 {
        fill: #eadbb7;
      }

      .cls-11 {
        fill: #ecdfc4;
      }

      .cls-12 {
        fill: #dfe9ef;
      }

      .cls-13 {
        fill: #e9d5a6;
      }

      .cls-14, .cls-15 {
        font-family: Baloo2-ExtraBold, 'Baloo 2';
        font-size: 25px;
        font-weight: 700;
      }

      .cls-16 {
        fill: #e8d5a6;
      }

      .cls-17 {
        fill: #ead7ae;
      }

      .cls-18 {
        fill: #ff8736;
      }

      .cls-19 {
        fill: #e8d5a7;
      }

      .cls-20 {
        fill: #3e4347;
      }

      .cls-21 {
        fill: #e9d7ad;
      }

      .cls-22 {
        fill: #b0bdc6;
      }

      .cls-23 {
        fill: #e9d7ac;
      }

      .cls-24 {
        fill: #e8d29f;
      }

      .cls-25 {
        fill: #ebd9b2;
      }

      .cls-26 {
        fill: #e8d2a1;
      }

      .cls-27 {
        fill: #ead8b0;
      }

      .cls-28 {
        fill: #e8d3a3;
      }

      .cls-29 {
        fill: #ecdfc1;
      }

      .cls-30 {
        fill: #e9d5a8;
      }

      .cls-31 {
        fill: #e9d6ac;
      }

      .cls-32 {
        fill: #e9d5a9;
      }

      .cls-33 {
        fill: #eadbb8;
      }

      .cls-34 {
        fill: #e8d4a5;
      }

      .cls-35 {
        fill: #ead8ad;
      }

      .cls-36 {
        fill: #e9d6aa;
      }

      .cls-37 {
        fill: #e9d6a9;
      }

      .cls-38 {
        fill: #ffce31;
      }

      .cls-39 {
        fill: #e8d3a1;
      }

      .cls-40 {
        fill: #ece0c6;
      }

      .cls-41 {
        fill: #e9d7ab;
      }

      .cls-42 {
        fill: #e9d8af;
      }

      .cls-43 {
        fill: #eadbb9;
      }

      .cls-44 {
        fill: #ead9b2;
      }

      .cls-45 {
        fill: #ebddbc;
      }

      .cls-15 {
        fill: #676868;
      }

      .cls-46 {
        fill: #ebdab4;
      }
    </style>
  </defs>
  <g>
    <path class="cls-40" d="M518,0c4.71,1,8.59,3.84,11.63,8.53,13.94-10.45,13.5.95,5.34,10.32-2.12,6.32-1.04,8.31,4.44,11.67,7.08,8.42-.03,17.41-6.61,23.35-9.47,2.29-6.48,9.41.63,12.85l.58,2.28c1.91-.76,4.1-.86,6,0,1.85-.88,3.15.14,3.91,3.06,2.28,1.08,3.31,2.4,3.09,3.94l6,1c.59-2.72,1.78-2.47,3,0,2.57.73,5.24,1.06,8,1,4.6-4.17,16.31.77,16,8l9,1c2.43-3.2,13.64-.26,15.53,3.75,2.56,20.77,24.36,22.8,41.1,24.14l3.44,1.99c11.58,14.64,30.4,5.54,22.28-12.27l1.65-1.61c-.51-2.66-.68-5.35,0-8-3.37-3.41,2.99-7.25,6.54-8.4l9.42-2.74c6.67-6.64,15.78-12.97,19.82-.4,8.17.11,13.92,6.08,10.22,13.54l10,1c2.36-2.45,5.46-2.07,7,1l11,1c2.91-.96,5.42,1.26,7.54,6.64,6.51-3.26,19.75-.55,26.69,2.18,3.31,1.3,9.74,4.16,10.76,7.17,1.82-.02,3.49.31,5,1,1.75-2.55,6.89-1.07,7,2l7,1,.94-2.11c4-.16,4.74-2.28,5.92-5.69,2.55-2.99,10.94-8.65,14.14-6.2,1.68-.52,3.3-.43,5,0,4.52-2.5,13.07-.21,16,4,.34,1.04,0,2.04-1,3l3,1.19c2.05,1.58,12.59,22.98,8.23,26.38-.28,11.23,15.27,30.47,24.04,37.59.62,4.65.97,9.31,1.05,14,11.25,10.76,21.49,25.35,24.75,40.63,4.26,1.59,6.55,4.02,6.85,7.28-2.63,9.22-4.15,18.45,8.18,19.84,6.18,2.41,18.59,31.62,17.73,35.75-.18.88-1.02,1.44-1.83,1.85,3,.42,2.29,9.43,2,12.61.67,3.35,0,5.48-2,6.39,2.16.91,3.83,3.3,5.01,7.15,2.33,2.71,3.33,5.16,2.99,7.35l5,1c2.12-1.39,3.5-.06,4.16,4,2.4-.1,4.47.37,6.35,2.07,7.12,6.46,12.26,37.05,12.98,47.15,10.03,5.87,20.17,12.33,28.36,20.71l4.4,8.02c6.92.79,12.13,3.3,15.62,7.53l7.13,13.17c5.44,2.8,7.66,4.38,7.14,11.04,6.04,7.3.24,12.02-7.5,13.42.26,1.17,1.05,2.46,2.36,3.89,1.56-.74,3.22-.74,5,0,2.6-3.06,5.51,1.35,6.72,4.29,2.13,10.62,3.35,12.14,13.47,10.05,11.37-4.58,20.95-6.07,33.07-4.77l3.01-1.25c1.84-2.49,5.01-6.76,7.74-3.33l10-1c-.09-3.18,8.6-6.29,10-3,2.61.98,5.34.53,8,0l1.15-2.51,12.96-5.73c8.6-7.27,15.39-3.52,15.46,7.46,4.45,6.35,4.26,13.23-.58,20.65,2.55,8.69-.9,15.92-5.19,23.44-11.07,16.52-19.29,32.23-22.93,51.75-3.49,4.98-7.15,9.86-10.97,14.63-4.31,16.45-11.22,25.88-25.35,35.83-5.2,14.05-13.28,19.17-26.03,26.29l-11.78,10.23-39.07,44.03c-5.32,8.51-11.7,15.72-19.14,21.63-2.3,5.58-5.68,10.54-10.13,14.88-.69,7-2.38,13.45-5.07,19.35,7.05,1.45,10.41,13.16,4.42,16.84-7.97-.68-16.01,2.18-15.61,11.12,9,7.83,13.17,15.05,5.21,25.56-.93,9.09.75,18.22,5.06,27.4-1.06,12.04,5.14,20.69,15.96,25.43,5.02,4.23,2.19,15.69-2.36,18.71-.77,5.36-.77,10.69,0,16,2.97,2.19,2.01,9.1-1,11-.89,5.6-.97,11.41,0,17,5.68,4.07,3.01,13.74-1.64,18.18l-10.1,9.77c-1.67,19.06-17.71,26.25-33.87,31.7-7,3.47-9.63,6.79-13.85,13.19l-16.39,15.16c-3.99,11.11-7.46,13.46-19.2,15.31-4.92,2.65-5.75,8.26-.38,10.94,1.96,3.52,5.34,12.92,2.43,15.77l1,11c3.49.37,5.24,5.16,5.35,8.39.03.83-2.98,14.91-3.33,15.63l-2.02.98-1,12c3.51,4.35-4.23,9.81-8.35,11.45-14.88,2.04-24.97,8.8-30.28,20.29l-2.38,1.26c-.75,3.07-.75,6.07,0,9l1.77,1.76c-1.49,9.42-3.42,18.17-9.45,25.82.05,7.38-.78,10.99-8.74,12.29-7.17,11.92-14.62,23.72-22.36,35.4-4.44,7.69-10.43,12.56-17.98,14.62-6.03,9.15-23.19,28.82-33.02,32.69-3.29,1.3-5.44,1.61-9.01,1.53-4,4.48-9.77,6.28-17.33,5.4-10.44,6.98-17.99,5.71-29.61,3.45l-11.17,2.53c-6.75-2.58-12.39-1.63-16.93,2.84l-2.19-1.33c-2.6-.96-5.35-.5-8,0l-1.14,2.3c-6.08,1.43-12.04,3.33-17.86,5.7h-6c-3.09-.94-5.68-3.11-7.75-6.49-13.3-2.52-17.09-6.79-11.37-12.81-5.59-5.3-11.74-13.6-5.83-20.7,14.34-1.28,4.02-16.8-.95-23.45-7.89-8.74-11.21-15.64-10.34-27.64l-5.51-15.21c-10.41-4.84-16.83-19.57-18.89-30.54-2.74-14.57-3.83-29.99-4.74-44.64l-4.3-17.34c-1.11-5.52-.21-9.58,2.69-12.18.4-2.34.61-4.65,0-7-2.19-.48-3.93-2.26-5.2-5.34-8.76-9.77-14.25-19.42-15.31-32.77-4.6-9.72-9.3-19.35-14.1-28.9-5.91-2.66-7.75-6.94-8.95-12.94-.71-3.53-1.89-12.75,1.55-14.06l1-5c-1.92-.56-1.93-1.44,0-2l1-6c-1.94-1.27-1.95-2.74,0-4,.6-3.95.94-7.95,1-12l-1.66-2.09c2.28-6.65,4.74-13.23,7.38-19.75l2.28-1.16,1-11c-1.83-1.62-1.21-4.39,1.86-8.32-.04-12.3,4.78-19.81,15.08-26.04,1.52-2.32,3.21-3.54,5.06-3.64.74-3,.61-5.99,0-9l-2.63-1.58c-1.56-2.96-9.59-20.91-9.6-22.62,0-1.07.56-2,1.22-2.8-.81-2.63-.65-5.35,0-8l-1.59-1.7c4.14-6.97,4.4-7.71,1.29-14.82-3.9-6.62-6.88-12.9-8.11-20.55-6.99-6.96-8.3-12.84-3.93-17.64l-1.99-1.28c-1.16-8.75-4.3-14.16-9.85-20.84l1.18-2.17-1-5c-5.35,4.09-9.94-3.02-9.72-8.96l-1.15-2.58c-11.72-11.87-20.9-26.94-26.74-42.64l1.61-1.83c-.64-2.63-.81-5.37,0-8-2.27-5.98,1.83-17.3,6-22-.08-2.16.25-4.16,1-6l-1.46-2.66c5.22-20.57,8.44-39.49-7.27-55.81-5.1-5.29-7.1-6.3-14.77-4.49-6.79-1.66-13.5.22-20.13,5.64-4.3,1.96-18.63-4.61-16.36-9.67l-1-12-2.13.37-6.53-6.76c-4.52-.92-6.78-3.23-6.77-6.94-2.19-3.6-43-1.36-49.37.46-1.48,5.76-6.69,8.2-15.63,7.31-9,3.93-17.89,8.38-26.67,13.37l-6.96,1.12c-4.5,4.03-8.68,6.26-12.49,0-14.25-6.12-34.3-11.79-47.64-1.22-9.42.22-18.21,3.56-26.36,10-5.05,2.46-9.17,1.22-13.67-1.8-5.68-.62-9.16-1.29-11.73-6.7-5.92.4-9.45-2.91-10.57-9.93-6.35-6.55-14.01-11.91-22.98-16.07-6.05-3.75-9.68-8.87-11.93-15.49l-4.38-1.6c-5.77-6.72-11.62-13.47-17.55-20.26l1.37-1.87c-.74-2.98-.38-6,0-9l-1.91-1.08c.9-1.74-6.19-10.3-7.33-11.07-2.57.31-5.45.22-7.3-1.96-2.48-6.61-5.44-12.79-8.89-18.52-3.67-.66-5.19-2.12-4.56-4.37l-1-7-2.13-.99c.48-2.73-3.01-4.21-5.31-5.01-6.18-.35-16.59-5.28-12.56-12-.8-2.79-.8-5.46,0-8l-1.89-1.88c1.6-6.52,1.38-12.43-.68-17.73-14.94-11.72-6.7-21.31,6.75-27.65.51-2.67,1.45-4.58,2.82-5.75-.74-1.49-.74-3.16,0-5-2.81-2.55-.6-12.34.75-16.18,5.7-7.62,5.63-11.34,3.31-20.67,3.06-3.25,2.05-6.04-3.05-8.37-6.28-4.48-4.88-15.16,2.99-13.77.76-2.95.76-5.95,0-9-1.87-.29-3.2-1.89-3.99-4.82-11.85-8.45-15.15-28.67-.64-36.01,4.66-7.29,8.27-15.25,10.84-23.89,3.5-8.34,9.04-15.02,17.57-18.2-.55-15.6.73-25.4,15.42-33.65,5.28-7.63,9.88-15.85,13.82-24.66,7.09-2.07,14.22-4.05,21.4-5.93,11.04-8.01,20.43-17.95,28.18-29.82l1.41-.02c.65-2.02.8-3.98,0-6-3.12.25-6.71-6.96-4-9-.74-1.65-.7-3.33,0-5-2.65-2.65,1.98-12.5,5-14,.47-1.71.57-3.29,0-5-.81.26-1.91.43-2.33-.17-5.99-8.47-.06-12.12,7.49-15.79,23.46-5.43,36.81-10.46,46.39-33.67,3.95-23.72,13.26-18.18,24.13-3.98l.32,2.61c2.05.73,3.95.51,6,0,.45-3.7,8.62-5.4,10-2l7-1,1.44-1.84c6.83,3.32,12.61,3.63,17.33.91,8.14-10.82,17.01-11.66,29.73-10.31l.81-.9c.03-7,7.39-12.31,12.68-7.87l5-1c1.35-3.08,6.53-2.89,8,0l8-1c-.57-4.73,8.18-10.8,11-6l21,1c2.35-2.76,6.02-1.98,11.02,2.36,2.05-3.66,4.82-4.44,8.69-3.34,1.68-5.43,4.04-7,9.2-3.98,7.41-.83,13.64.18,20.27,3.5,5.32.64,10.02-1.75,14.09-7.18l3.73-1.35h7Z"/>
    <path class="cls-11" d="M1253,1021h1v3c-2.64,1.27-3.32,4.17-5.48,6.02-9.87,8.43-7.43-7.61-1.52-9.02,1.85-1,4.1-.75,6,0Z"/>
    <path class="cls-29" d="M0,372c8.77-1.96,12.66,8.79,0,4v-4Z"/>
    <path class="cls-8" d="M244,159.5c.09-.34,1.36-1.53,1.99-1.5-1.08,14.24,1.79,31.62.01,45.52-.23,1.82.34,1.62-2,1.48v-30h-26v-1h26c.67-4.07-.92-10.89,0-14.5Z"/>
    <path class="cls-45" d="M755,273c1.96-.33.47,2.32,1.05,2.93.51.53,5.5-.23,6.94.08l-6.99.99v35h-15c-.25,0,.19,4.21-.01,5h-.98s-.01-7-.01-7h15v-37Z"/>
    <path class="cls-3" d="M195,250.5c-.26.88-1.98,1.82-2.99,1.49-1.05-2.81,1.99-1.8,1.99-1.99v-31h1v31.5Z"/>
    <path class="cls-43" d="M733,892v1h-22.5c-.43,0-1.46,2.1-2.49,2-.44-.85.84-3,1.49-3h23.5Z"/>
    <path class="cls-30" d="M444,10c-6.75-.6-14.59,1.28-21-1,6.91-.47,14.43-.25,21,1Z"/>
    <rect class="cls-33" x="412" y="509" width="1" height="21"/>
    <path class="cls-6" d="M1000,915c-.03-.28-.9-1.62-1.07-3.38-.37-3.7-.42-10.14,1.07-13.62-.2,5.64.14,11.36,0,17Z"/>
    <path class="cls-46" d="M1001,887c-2.34-4.72-.81-11.03,0-16-.17,5.31.23,10.7,0,16Z"/>
    <path class="cls-17" d="M853,110c2.27.69,5.9.49,7,2.99h-8c-.15-.23-1.83-.43-.99-1.97.05-.1,1.66-.31,1.99-1.02Z"/>
    <path class="cls-9" d="M550,951c.05-4.79.31-7.5,1-12-.5,3.79,1.2,8.96-1,12Z"/>
    <path class="cls-6" d="M458,580c-1.66-4.15-.9-7.57-1-12,1.89,3.9.73,7.73,1,12Z"/>
    <path class="cls-25" d="M907,1093c.5-3.79-1.2-8.96,1-12-.09,4.73.35,7.38-1,12Z"/>
    <path class="cls-42" d="M747,100c-3.89.7-7.53-.47-11-1,3.99.22,7.35-.84,11,1Z"/>
    <path class="cls-17" d="M559,916c-.35-4.22-.02-7.11,1-11,.61,3.94-.36,7.44-1,11Z"/>
    <path class="cls-2" d="M908,1056c-1.59-3.88-.95-6.85-1-11,.74,3.61,1.55,7.03,1,11Z"/>
    <path class="cls-9" d="M1117,467c-3.5.91-6.1,1.43-10,1,3.55-.99,6.09-1.39,10-1Z"/>
    <path class="cls-36" d="M729,98c-2.87-.44-8.17,1.13-10-1,3.76-.67,6.83.44,10,1Z"/>
    <path class="cls-2" d="M866,1135c-2.58-2.61-.53-6.48,0-9-.24,2.9.34,6.19,0,9Z"/>
    <path class="cls-26" d="M589,87c-3.48-.07-5.9.67-9-1,3.47-.69,6.13.43,9,1Z"/>
    <path class="cls-17" d="M165,512c-1.86-5.17-.55-4.93,0-9v9Z"/>
    <path class="cls-34" d="M582,867v-9c1.28,4.2,1.65,4.63,0,9Z"/>
    <path class="cls-17" d="M125,316v-9c.73,3.06,2.4,5.65,0,9Z"/>
    <path class="cls-27" d="M690,1272c-2.3.44-5.53-.3-8,0,2.15-.48,5.64-2.61,8,0Z"/>
    <path class="cls-30" d="M511,683c-.28-1.33-1.21-1.95-1.12-4.54.07-1.98,1-2.8,1.12-3.46v8Z"/>
    <path class="cls-37" d="M412,15c-3.05,1.65-4.73.86-8,1,1.73-2,5.5-.68,8-1Z"/>
    <path class="cls-36" d="M571,831c-.28-.99-1.05-1.39-1.12-3.46-.09-2.57.75-3.05,1.12-4.54v8Z"/>
    <path class="cls-23" d="M1135,464c-2.42.78-5.61,2.4-8,0,2.57-.27,5.39.19,8,0Z"/>
    <path class="cls-30" d="M673,103c-1.03-4.04-1.63-3.49,0-8v8Z"/>
    <path class="cls-42" d="M564,78c-2.5-.32-6.27,1-8-1,3.11.31,5.1.54,8,1Z"/>
    <path class="cls-30" d="M114,441c-.61-2.29-2.52-5.63,0-8-.1,2.66.07,5.34,0,8Z"/>
    <path class="cls-37" d="M135,466c-1.79-2.06-.87-4.4-1-7,.53,2.18,1.74,4.16,1,7Z"/>
    <path class="cls-19" d="M811,120c-3.45.28-4.36-.38-7-1,2.19.24,5.58-.9,7,1Z"/>
    <path class="cls-36" d="M590,1069v-7c1.58,4.54.71,3.36,0,7Z"/>
    <path class="cls-44" d="M329,37c-1.39,1.8-4.79.89-7,1,1.23-1.59,4.98-1.18,7-1Z"/>
    <path class="cls-21" d="M229,130v-6c.23.6,1.02.91,1.12,2.49.13,2.22-.79,2.48-1.12,3.51Z"/>
    <path class="cls-6" d="M517,653c.14-1.88-.77-4.88,1-6-.38,1.75-.59,3.95-1,6Z"/>
    <path class="cls-5" d="M553,77c-2.96-.18-3.19-.02-6-1,1.88.14,4.88-.77,6,1Z"/>
    <path class="cls-7" d="M540,69c-1.81-.26-4.37.38-6,0,1.37-1.78,4.5-1.5,6,0Z"/>
    <path class="cls-37" d="M312,40c-3.01.98-2.48,1.84-6,0h6Z"/>
    <path class="cls-31" d="M549,961c.23-1.85-.83-4.88,1-6-.03,1.89.68,4.91-1,6Z"/>
    <path class="cls-7" d="M230,96v-5c1.82,3.77.51,2.66,0,5Z"/>
    <path class="cls-32" d="M548,968c.07-2.45.93-4.25,1-5-.06,1.6.62,4.15-1,5Z"/>
    <path class="cls-24" d="M121,380c-2.61-1.41-.18-4.01,0-5-.02,1.67.03,3.33,0,5Z"/>
    <path class="cls-7" d="M837,106h-5c3.96-1.69,2.68-.37,5,0Z"/>
    <path class="cls-30" d="M225,115c-.15-.5-1.12-.94-1.11-2.49s.96-1.99,1.11-2.51v5Z"/>
    <path class="cls-16" d="M396,16c-.85,1.62-3.4.94-5,1,1.64-.28,2.51-.82,5-1Z"/>
    <path class="cls-36" d="M957,332c-1.38-.45-2.31.44-5-1,1.75-.02,3.86-.54,5,1Z"/>
    <path class="cls-7" d="M797,117c-1.41-.37-2.93-.43-5-1,1.6.06,4.15-.62,5,1Z"/>
    <path class="cls-28" d="M548,744c-1.03-2.48-.64-4.03-1-5,1.65.97.95,3.31,1,5Z"/>
    <path class="cls-13" d="M1043,463c-1.64-.14-3.38.2-5,0,1.51-2.42,3.58-.53,5,0Z"/>
    <path class="cls-11" d="M120.61,164.39c-.71-.7-2.15-.97-2.5-2.01-1.75-5.2,7.26-6.9,10.7-7.16,7.22-.54,1.27,12.88-5.31,11.85-2.05-.32-1.91-1.7-2.89-2.68Z"/>
    <path class="cls-11" d="M158.15,166.85c-3.27-2.07,1.53-10.64,3.08-13.12,2.19-3.51,5.63.08,6.87,2.71,2.51,5.32-5.34,13.32-9.95,10.41Z"/>
    <path class="cls-11" d="M505.75,593.15c7.84-1.07,3.03,15.7-5.75,11.35-5.82-2.88.87-10.69,5.75-11.35Z"/>
    <path class="cls-1" d="M5.01,402c-1.04-4.66-1.58-8.83,3.96-10.6,8.36-2.67,5.28,12.86-3.96,10.6Z"/>
    <path class="cls-11" d="M136.64,163.11c8.87-2.95,11.36,12.44,2.07,9.71-3.87-1.14-5.45-8.58-2.07-9.71Z"/>
    <path class="cls-4" d="M169.76,143.18c6.88-.64-.48,9.18-2.23,8.81-3.66-.79-4.86-8.15,2.23-8.81Z"/>
    <path class="cls-29" d="M390,721.01c.49-.47,9.33-.99,7.99,3.48-1.14,3.8-10.71-.89-7.99-3.48Z"/>
    <path class="cls-10" d="M108,153.01c2.95,2.89-6.07,5.21-7.99,4.99.65-2.17,6.24-6.71,7.99-4.99Z"/>
    <path class="cls-40" d="M1144,899l1,9c-.08,3.54-1.44,6.17-.91,10.41s3.55,7.17,3.95,11.07c.56,5.5-2.18,11.99-.99,17.86-2.57,2.92-4.28-.2-6.53-1.39-.99-.52-.76-1.6-2.03.03-1.59,2.97.41,6.77-.17,9.82-.7,3.68-6.35,10.01-8.09,14.92-1.18,3.31-1.69,6.83-2.22,10.28-.5,4.33-.98,8.67,0,13-.91,7.4-5.36,7.96-7.24,12.26-2.11,4.82-3.62,13.25-5.98,18.02-1.56,3.15-5.2,4.55-6.78,8.72-.68,2.96-.84,6.05,0,9-.45,2.34-3.93,5.7-5.04,8.46-2.27,5.63-1.88,12.45-3.9,18.1-1.3,3.63-4.04,6.06-5.35,9.65-3.23,8.82-.76,18.83-8.24,25.76-6.38,5.92-19.79,13.45-28.47,14.03l-6-1c-3.77-1.29-12.11-8.24-13.88-11.62-2.48-4.74-2.48-13.14-3.12-18.38-.59-2.26-.92-4.59-1-7-2.23-6.43-5.65-9.4-7-17-.71-1.66-.71-3.33,0-5,2.33-13.24,10-12.85,13.78-20.72,1.32-2.75,1.09-5.99,2.17-8.83,1.8-4.7,5.87-7.03,6.81-13.19.8-5.25-1.96-16.25-4.92-20.64-1.69-2.5-2.46-.84-3.84-5.62-.5-2.33-.36-4.66,0-7,.69-4.39,1.09-8.28,3.12-12.38,1.6-3.21,6.21-6.67,6.68-8.32.69-2.44-.61-5.85,1.1-7.9,1.35-1.63,4.11-1.29,5.83-2.17,5.22-2.69,10.58-5.42,16.06-7.94,4.21-1.94,11.81-3.35,14.22-7.28l1-5c2.12-2.04,5.02-.38,5.9-1.11.35-.29.43-5.12,3.1-6.41,2.94-1.42,5.09.71,6.44.45,2.06-.4.78-3.33,1.3-4.65.83-2.08,3.67-3.49,4.51-5.53,1-2.44.26-5.49,1.65-7.35,1.17-1.56,6.83-2.44,9.45-4.55.66-.53,4.91-5.38,5.14-5.87,2.22-4.68-1.92-4.31-3.02-5.98-2.32-3.54,7.67-16.32,14.55-8.54,1.79,5.75,5.51,11.94,6.97,17.53Z"/>
    <path class="cls-4" d="M1216.86,1037.13c2.29,1.43.83,7.79-5.11,6.7-8.78-1.62-.22-10.04,5.11-6.7Z"/>
    <path class="cls-8" d="M981.86,770.15c.54.33,3.6,7.01.62,7.85-3.47.7-5.62-10.94-.62-7.85Z"/>
    <path class="cls-8" d="M1038.63,868.08c3.1-.53,4.55,5.2.73,5.85-3.1.53-4.55-5.2-.73-5.85Z"/>
    <path class="cls-44" d="M1128,994c-2.5-3.69-.61-9.08,0-13-.35,4.15.5,8.96,0,13Z"/>
    <path class="cls-35" d="M1145,908c-2.08-2.05-.62-6.18-1-9,.95,3.64,1.09,5.07,1,9Z"/>
    <path class="cls-27" d="M1108,1042c-2.21-2.48-1.05-6.23,0-9-.35,2.76.5,6.44,0,9Z"/>
    <path class="cls-36" d="M1034,1087c-1.9-1.42-.76-4.81-1-7,1.15,3.32.63,3.99,1,7Z"/>
    <path class="cls-7" d="M1040,989c-1.35-4.69-.59-3.26,0-7v7Z"/>
    <path class="cls-36" d="M1253,1021c-1.81.27-4.39-.39-6,0,1.01-1.64,5.05-1.61,6,0Z"/>
    <path class="cls-41" d="M1057,1118c-3.07.2-3.52-.15-6-1,1.88.14,4.88-.77,6,1Z"/>
    <path class="cls-9" d="M1087,936c-.06-1.97-.53-3.53,1-5,.33,2.2.14,3.13-1,5Z"/>
    <path class="cls-39" d="M1026,1063c-.06-.35-1.1-1.05-1.1-2.5s1.04-2.15,1.1-2.5v5Z"/>
  </g>
  <text class="cls-14" transform="translate(244.48 453.86) rotate(30.86)"><tspan x="0" y="0" xml:space="preserve">_  _ _ _ _ </tspan></text>
  <text class="cls-15" transform="translate(323.93 253.71) rotate(81.58)"><tspan x="0" y="0">_ _ _ _ _ _ _ _ _ _ _ </tspan></text>
  <text class="cls-15" transform="translate(546.48 220.27) rotate(92.62)"><tspan x="0" y="0">_ _ _ _ _ _ _ _ _ _ _ _ _ </tspan></text>
  <text class="cls-15" transform="translate(526.83 205.92) rotate(169.05)"><tspan x="0" y="0">_ _ _ _ _ _ _ _ _ </tspan></text>
  <text class="cls-15" transform="translate(683.62 398.11) rotate(141.77)"><tspan x="0" y="0">_ _ _ _ _ _ _ _ _ </tspan></text>
  <text class="cls-15" transform="translate(823.5 229.67) rotate(136.02)"><tspan x="0" y="0">_ _ _ _ _ _ </tspan></text>
  <text class="cls-15" transform="translate(844.92 303.75) rotate(105.3)"><tspan x="0" y="0">_ _ _ _ _ _ _ _ </tspan></text>
  <text class="cls-15" transform="translate(920.65 548.67) rotate(-169.38)"><tspan x="0" y="0">_ _ _ _ _ _ </tspan></text>
  <text class="cls-15" transform="translate(954.78 570.57) rotate(88.83)"><tspan x="0" y="0">_ _ _ _ _ _ </tspan></text>
  <text class="cls-15" transform="translate(917.28 710.92) rotate(-174.42)"><tspan x="0" y="0">_ _ _ _ _ _ </tspan></text>
  <text class="cls-15" transform="translate(717.62 674.68) rotate(-158.08)"><tspan x="0" y="0">_ _ _ _ _ _ </tspan></text>
  <text class="cls-15" transform="translate(652.76 796.78) rotate(-117.77)"><tspan x="0" y="0">_ _ _ _ _ _ _ _ </tspan></text>
  <text class="cls-15" transform="translate(841.04 874.8) rotate(-169.74)"><tspan x="0" y="0">_ _ _ _ _ _ </tspan></text>
  <text class="cls-15" transform="translate(1037.35 964.58) rotate(-143.7)"><tspan x="0" y="0">_ _ _ _ _ _ _ </tspan></text>
  <text class="cls-15" transform="translate(1055.35 1011.49) rotate(175.05)"><tspan x="0" y="0">_ _ _ _ _ _ _ _ _ _ _ </tspan></text>
  <text class="cls-15" transform="translate(762.74 1041.91) rotate(179.57)"><tspan x="0" y="0">_ _ _ _ _ _ _ </tspan></text>
  <text class="cls-15" transform="translate(636.06 1084.78) rotate(49.75)"><tspan x="0" y="0">_ _ _ _ _ _ </tspan></text>
  <g>
    <path class="cls-38" d="M310.36,345.69v24.56c0,1.86,1.5,3.36,3.35,3.36h40.18c1.85,0,3.35-1.51,3.35-3.36v-24.56h-46.88Z"/>
    <path class="cls-18" d="M357.23,342.32c0-1.86-1.5-3.36-3.35-3.36h-40.18c-1.85,0-3.35,1.51-3.35,3.36v3.36h46.88v-3.36Z"/>
    <ellipse class="cls-20" cx="318.46" cy="341.99" rx="4.62" ry="1.96"/>
    <ellipse class="cls-20" cx="349.13" cy="341.99" rx="4.62" ry="1.96"/>
    <path class="cls-12" d="M333.79,323.61c-10.09,0-18.3,8.25-18.3,18.38,0,.61,1.23,1.11,2.96,1.11v-1.11h0c.59-8.57,7.24-15.35,15.34-15.35s14.75,6.78,15.34,15.35h0v1.11c1.72,0,2.96-.5,2.96-1.11,0-10.14-8.21-18.38-18.3-18.38Z"/>
    <path class="cls-22" d="M349.13,341.99c-.59-8.57-7.24-15.35-15.34-15.35s-14.75,6.78-15.34,15.35h0v1.11c1.72,0,3.27-.5,3.27-1.11,0-5.55,4.62-12.13,12.07-12.13s12.07,6.58,12.07,12.13c0,.61,1.54,1.11,3.27,1.11v-1.11Z"/>
    <path class="cls-20" d="M337.4,367.67l-1.49-9.58c.88-.65,1.46-1.7,1.46-2.89,0-1.98-1.6-3.58-3.56-3.58s-3.56,1.6-3.56,3.58c0,1.19.57,2.23,1.46,2.89l-1.49,9.58h7.2Z"/>
  </g>
  <g>
    <path class="cls-38" d="M429.68,206.19v24.56c0,1.86,1.5,3.36,3.35,3.36h40.18c1.85,0,3.35-1.51,3.35-3.36v-24.56h-46.88Z"/>
    <path class="cls-18" d="M476.55,202.83c0-1.86-1.5-3.36-3.35-3.36h-40.18c-1.85,0-3.35,1.51-3.35,3.36v3.36h46.88v-3.36Z"/>
    <path class="cls-20" d="M437.77,200.54c2.55,0,4.62.88,4.62,1.96s-2.07,1.96-4.62,1.96-4.62-.88-4.62-1.96,2.07-1.96,4.62-1.96Z"/>
    <path class="cls-20" d="M468.45,200.54c2.55,0,4.62.88,4.62,1.96s-2.07,1.96-4.62,1.96-4.62-.88-4.62-1.96,2.07-1.96,4.62-1.96Z"/>
    <path class="cls-12" d="M453.11,184.11c-10.09,0-18.3,8.25-18.3,18.38,0,.61,1.23,1.11,2.96,1.11v-1.11h0c.59-8.57,7.24-15.35,15.34-15.35s14.75,6.78,15.34,15.35h0v1.11c1.72,0,2.96-.5,2.96-1.11,0-10.14-8.21-18.38-18.3-18.38Z"/>
    <path class="cls-22" d="M468.45,202.49c-.59-8.57-7.24-15.35-15.34-15.35s-14.75,6.78-15.34,15.35h0v1.11c1.72,0,3.27-.5,3.27-1.11,0-5.55,4.62-12.13,12.07-12.13s12.07,6.58,12.07,12.13c0,.61,1.54,1.11,3.27,1.11v-1.11Z"/>
    <path class="cls-20" d="M456.71,228.17l-1.49-9.58c.88-.65,1.46-1.7,1.46-2.89,0-1.98-1.6-3.58-3.56-3.58s-3.56,1.6-3.56,3.58c0,1.19.58,2.23,1.46,2.89l-1.49,9.58h7.2Z"/>
  </g>
  <g>
    <path class="cls-38" d="M515.94,319.68v24.56c0,1.86,1.5,3.36,3.35,3.36h40.18c1.85,0,3.35-1.51,3.35-3.36v-24.56h-46.88Z"/>
    <path class="cls-18" d="M562.81,316.32c0-1.86-1.5-3.36-3.35-3.36h-40.18c-1.85,0-3.35,1.51-3.35,3.36v3.36h46.88v-3.36Z"/>
    <ellipse class="cls-20" cx="524.03" cy="315.98" rx="4.62" ry="1.96"/>
    <ellipse class="cls-20" cx="554.71" cy="315.98" rx="4.62" ry="1.96"/>
    <path class="cls-12" d="M539.37,297.6c-10.09,0-18.3,8.25-18.3,18.38,0,.61,1.23,1.11,2.96,1.11v-1.11h0c.59-8.57,7.24-15.35,15.34-15.35s14.75,6.78,15.34,15.35h0v1.11c1.72,0,2.96-.5,2.96-1.11,0-10.14-8.21-18.38-18.3-18.38Z"/>
    <path class="cls-22" d="M554.71,315.98c-.59-8.57-7.24-15.35-15.34-15.35s-14.75,6.78-15.34,15.35h0v1.11c1.72,0,3.27-.5,3.27-1.11,0-5.55,4.62-12.13,12.07-12.13s12.07,6.58,12.07,12.13c0,.61,1.54,1.11,3.27,1.11v-1.11Z"/>
    <path class="cls-20" d="M542.97,341.66l-1.49-9.58c.88-.65,1.46-1.7,1.46-2.89,0-1.98-1.6-3.58-3.56-3.58s-3.56,1.6-3.56,3.58c0,1.19.58,2.23,1.46,2.89l-1.49,9.58h7.2Z"/>
  </g>
  <g>
    <path class="cls-38" d="M598.15,434.95v24.56c0,1.86,1.5,3.36,3.35,3.36h40.18c1.85,0,3.35-1.51,3.35-3.36v-24.56h-46.88Z"/>
    <path class="cls-18" d="M645.02,431.59c0-1.86-1.5-3.36-3.35-3.36h-40.18c-1.85,0-3.35,1.51-3.35,3.36v3.36h46.88v-3.36Z"/>
    <ellipse class="cls-20" cx="606.25" cy="431.25" rx="4.62" ry="1.96"/>
    <ellipse class="cls-20" cx="636.92" cy="431.25" rx="4.62" ry="1.96"/>
    <path class="cls-12" d="M621.58,412.87c-10.09,0-18.3,8.25-18.3,18.38,0,.61,1.23,1.11,2.96,1.11v-1.11h0c.59-8.57,7.24-15.35,15.34-15.35s14.75,6.78,15.34,15.35h0v1.11c1.72,0,2.96-.5,2.96-1.11,0-10.14-8.21-18.38-18.3-18.38Z"/>
    <path class="cls-22" d="M636.92,431.25c-.59-8.57-7.24-15.35-15.34-15.35s-14.75,6.78-15.34,15.35h0v1.11c1.72,0,3.27-.5,3.27-1.11,0-5.55,4.62-12.13,12.07-12.13s12.07,6.58,12.07,12.13c0,.61,1.54,1.11,3.27,1.11v-1.11Z"/>
    <path class="cls-20" d="M625.18,456.93l-1.49-9.58c.88-.65,1.46-1.7,1.46-2.89,0-1.98-1.6-3.58-3.56-3.58s-3.56,1.6-3.56,3.58c0,1.19.58,2.23,1.46,2.89l-1.49,9.58h7.2Z"/>
  </g>
  <g>
    <path class="cls-38" d="M764.13,252.51v24.56c0,1.86,1.5,3.36,3.35,3.36h40.18c1.85,0,3.35-1.51,3.35-3.36v-24.56h-46.88Z"/>
    <path class="cls-18" d="M811.01,249.14c0-1.86-1.5-3.36-3.35-3.36h-40.18c-1.85,0-3.35,1.51-3.35,3.36v3.36h46.88v-3.36Z"/>
    <ellipse class="cls-20" cx="772.23" cy="248.81" rx="4.62" ry="1.96"/>
    <ellipse class="cls-20" cx="802.91" cy="248.81" rx="4.62" ry="1.96"/>
    <path class="cls-12" d="M787.57,230.43c-10.09,0-18.3,8.25-18.3,18.38,0,.61,1.23,1.11,2.96,1.11v-1.11h0c.59-8.57,7.24-15.35,15.34-15.35s14.75,6.78,15.34,15.35h0v1.11c1.72,0,2.96-.5,2.96-1.11,0-10.14-8.21-18.38-18.3-18.38Z"/>
    <path class="cls-22" d="M802.91,248.81c-.59-8.57-7.24-15.35-15.34-15.35s-14.75,6.78-15.34,15.35h0v1.11c1.72,0,3.27-.5,3.27-1.11,0-5.55,4.62-12.13,12.07-12.13s12.07,6.58,12.07,12.13c0,.61,1.54,1.11,3.27,1.11v-1.11Z"/>
    <path class="cls-20" d="M791.17,274.49l-1.49-9.58c.88-.65,1.46-1.7,1.46-2.89,0-1.98-1.6-3.58-3.56-3.58s-3.56,1.6-3.56,3.58c0,1.19.57,2.23,1.46,2.89l-1.49,9.58h7.2Z"/>
  </g>
  <g>
    <path class="cls-38" d="M802.73,362.71v24.56c0,1.86,1.5,3.36,3.35,3.36h40.18c1.85,0,3.35-1.51,3.35-3.36v-24.56h-46.88Z"/>
    <path class="cls-18" d="M849.61,359.35c0-1.86-1.5-3.36-3.35-3.36h-40.18c-1.85,0-3.35,1.51-3.35,3.36v3.36h46.88v-3.36Z"/>
    <ellipse class="cls-20" cx="810.83" cy="359.01" rx="4.62" ry="1.96"/>
    <ellipse class="cls-20" cx="841.51" cy="359.01" rx="4.62" ry="1.96"/>
    <path class="cls-12" d="M826.17,340.63c-10.09,0-18.3,8.25-18.3,18.38,0,.61,1.23,1.11,2.96,1.11v-1.11h0c.59-8.57,7.24-15.35,15.34-15.35s14.75,6.78,15.34,15.35h0v1.11c1.72,0,2.96-.5,2.96-1.11,0-10.14-8.21-18.38-18.3-18.38Z"/>
    <path class="cls-22" d="M841.51,359.01c-.59-8.57-7.24-15.35-15.34-15.35s-14.75,6.78-15.34,15.35h0v1.11c1.72,0,3.27-.5,3.27-1.11,0-5.55,4.62-12.13,12.07-12.13s12.07,6.58,12.07,12.13c0,.61,1.54,1.11,3.27,1.11v-1.11Z"/>
    <path class="cls-20" d="M829.77,384.7l-1.49-9.58c.88-.65,1.46-1.7,1.46-2.89,0-1.98-1.6-3.58-3.56-3.58s-3.56,1.6-3.56,3.58c0,1.19.57,2.23,1.46,2.89l-1.49,9.58h7.2Z"/>
  </g>
  <g>
    <path class="cls-38" d="M850.47,528.25v24.56c0,1.86,1.5,3.36,3.35,3.36h40.18c1.85,0,3.35-1.51,3.35-3.36v-24.56h-46.88Z"/>
    <path class="cls-18" d="M897.35,524.89c0-1.86-1.5-3.36-3.35-3.36h-40.18c-1.85,0-3.35,1.51-3.35,3.36v3.36h46.88v-3.36Z"/>
    <ellipse class="cls-20" cx="858.57" cy="524.56" rx="4.63" ry="1.96"/>
    <ellipse class="cls-20" cx="889.25" cy="524.56" rx="4.63" ry="1.96"/>
    <path class="cls-12" d="M873.91,506.17c-10.09,0-18.3,8.25-18.3,18.38,0,.61,1.23,1.11,2.96,1.11v-1.11h0c.59-8.57,7.24-15.35,15.34-15.35s14.75,6.78,15.34,15.35h0v1.11c1.72,0,2.96-.5,2.96-1.11,0-10.14-8.21-18.38-18.3-18.38Z"/>
    <path class="cls-22" d="M889.25,524.56c-.59-8.57-7.24-15.35-15.34-15.35s-14.75,6.78-15.34,15.35h0v1.11c1.72,0,3.27-.5,3.27-1.11,0-5.55,4.62-12.13,12.07-12.13s12.07,6.58,12.07,12.13c0,.61,1.54,1.11,3.27,1.11v-1.11Z"/>
    <path class="cls-20" d="M877.51,550.24l-1.49-9.58c.88-.65,1.46-1.7,1.46-2.89,0-1.98-1.6-3.58-3.56-3.58s-3.56,1.6-3.56,3.58c0,1.19.57,2.23,1.46,2.89l-1.49,9.58h7.2Z"/>
  </g>
  <g>
    <path class="cls-38" d="M929.88,613.35v24.56c0,1.86,1.5,3.36,3.35,3.36h40.18c1.85,0,3.35-1.51,3.35-3.36v-24.56h-46.88Z"/>
    <path class="cls-18" d="M976.75,609.98c0-1.86-1.5-3.36-3.35-3.36h-40.18c-1.85,0-3.35,1.51-3.35,3.36v3.36h46.88v-3.36Z"/>
    <ellipse class="cls-20" cx="937.98" cy="609.65" rx="4.63" ry="1.96"/>
    <ellipse class="cls-20" cx="968.65" cy="609.65" rx="4.63" ry="1.96"/>
    <path class="cls-12" d="M953.31,591.27c-10.09,0-18.3,8.25-18.3,18.38,0,.61,1.23,1.11,2.96,1.11v-1.11h0c.59-8.57,7.24-15.35,15.34-15.35s14.75,6.78,15.34,15.35h0v1.11c1.72,0,2.96-.5,2.96-1.11,0-10.14-8.21-18.38-18.3-18.38Z"/>
    <path class="cls-22" d="M968.65,609.65c-.59-8.57-7.24-15.35-15.34-15.35s-14.75,6.78-15.34,15.35h0v1.11c1.72,0,3.27-.5,3.27-1.11,0-5.55,4.62-12.13,12.07-12.13s12.07,6.58,12.07,12.13c0,.61,1.54,1.11,3.27,1.11v-1.11Z"/>
    <path class="cls-20" d="M956.92,635.33l-1.49-9.58c.88-.65,1.46-1.7,1.46-2.89,0-1.98-1.6-3.58-3.56-3.58s-3.56,1.6-3.56,3.58c0,1.19.57,2.23,1.46,2.89l-1.49,9.58h7.2Z"/>
  </g>
  <g>
    <path class="cls-38" d="M847.98,692.26v24.56c0,1.86,1.5,3.36,3.35,3.36h40.18c1.85,0,3.35-1.51,3.35-3.36v-24.56h-46.88Z"/>
    <path class="cls-18" d="M894.86,688.9c0-1.86-1.5-3.36-3.35-3.36h-40.18c-1.85,0-3.35,1.51-3.35,3.36v3.36h46.88v-3.36Z"/>
    <ellipse class="cls-20" cx="856.08" cy="688.56" rx="4.62" ry="1.96"/>
    <ellipse class="cls-20" cx="886.76" cy="688.56" rx="4.62" ry="1.96"/>
    <path class="cls-12" d="M871.42,670.18c-10.09,0-18.3,8.25-18.3,18.38,0,.61,1.23,1.11,2.96,1.11v-1.11h0c.59-8.57,7.24-15.35,15.34-15.35s14.75,6.78,15.34,15.35h0v1.11c1.72,0,2.96-.5,2.96-1.11,0-10.14-8.21-18.38-18.3-18.38Z"/>
    <path class="cls-22" d="M886.76,688.56c-.59-8.57-7.24-15.35-15.34-15.35s-14.75,6.78-15.34,15.35h0v1.11c1.72,0,3.27-.5,3.27-1.11,0-5.55,4.62-12.13,12.07-12.13s12.07,6.58,12.07,12.13c0,.61,1.54,1.11,3.27,1.11v-1.11Z"/>
    <path class="cls-20" d="M875.02,714.25l-1.49-9.58c.88-.65,1.46-1.7,1.46-2.89,0-1.98-1.6-3.58-3.56-3.58s-3.56,1.6-3.56,3.58c0,1.19.57,2.23,1.46,2.89l-1.49,9.58h7.2Z"/>
  </g>
  <g>
    <path class="cls-38" d="M649.69,643.21v24.56c0,1.86,1.5,3.36,3.35,3.36h40.18c1.85,0,3.35-1.51,3.35-3.36v-24.56h-46.88Z"/>
    <path class="cls-18" d="M696.56,639.84c0-1.86-1.5-3.36-3.35-3.36h-40.18c-1.85,0-3.35,1.51-3.35,3.36v3.36h46.88v-3.36Z"/>
    <ellipse class="cls-20" cx="657.79" cy="639.51" rx="4.62" ry="1.96"/>
    <ellipse class="cls-20" cx="688.47" cy="639.51" rx="4.62" ry="1.96"/>
    <path class="cls-12" d="M673.13,621.13c-10.09,0-18.3,8.25-18.3,18.38,0,.61,1.23,1.11,2.96,1.11v-1.11h0c.59-8.57,7.24-15.35,15.34-15.35s14.75,6.78,15.34,15.35h0v1.11c1.72,0,2.96-.5,2.96-1.11,0-10.14-8.21-18.38-18.3-18.38Z"/>
    <path class="cls-22" d="M688.47,639.51c-.59-8.57-7.24-15.35-15.34-15.35s-14.75,6.78-15.34,15.35h0v1.11c1.72,0,3.27-.5,3.27-1.11,0-5.55,4.62-12.13,12.07-12.13s12.07,6.58,12.07,12.13c0,.61,1.54,1.11,3.27,1.11v-1.11Z"/>
    <path class="cls-20" d="M676.73,665.19l-1.49-9.58c.88-.65,1.46-1.7,1.46-2.89,0-1.98-1.6-3.58-3.56-3.58s-3.56,1.6-3.56,3.58c0,1.19.58,2.23,1.46,2.89l-1.49,9.58h7.2Z"/>
  </g>
  <g>
    <path class="cls-38" d="M598.57,729.09v24.56c0,1.86,1.5,3.36,3.35,3.36h40.18c1.85,0,3.35-1.51,3.35-3.36v-24.56h-46.88Z"/>
    <path class="cls-18" d="M645.45,725.72c0-1.86-1.5-3.36-3.35-3.36h-40.18c-1.85,0-3.35,1.51-3.35,3.36v3.36h46.88v-3.36Z"/>
    <ellipse class="cls-20" cx="606.67" cy="725.39" rx="4.63" ry="1.96"/>
    <ellipse class="cls-20" cx="637.35" cy="725.39" rx="4.63" ry="1.96"/>
    <path class="cls-12" d="M622.01,707.01c-10.09,0-18.3,8.25-18.3,18.38,0,.61,1.23,1.11,2.96,1.11v-1.11h0c.59-8.57,7.24-15.35,15.34-15.35s14.75,6.78,15.34,15.35h0v1.11c1.72,0,2.96-.5,2.96-1.11,0-10.14-8.21-18.38-18.3-18.38Z"/>
    <path class="cls-22" d="M637.35,725.39c-.59-8.57-7.24-15.35-15.34-15.35s-14.75,6.78-15.34,15.35h0v1.11c1.72,0,3.27-.5,3.27-1.11,0-5.55,4.62-12.13,12.07-12.13s12.07,6.58,12.07,12.13c0,.61,1.54,1.11,3.27,1.11v-1.11Z"/>
    <path class="cls-20" d="M625.61,751.07l-1.49-9.58c.88-.65,1.46-1.7,1.46-2.89,0-1.98-1.6-3.58-3.56-3.58s-3.56,1.6-3.56,3.58c0,1.19.58,2.23,1.46,2.89l-1.49,9.58h7.2Z"/>
  </g>
  <g>
    <path class="cls-38" d="M767.88,854.38v24.56c0,1.86,1.5,3.36,3.35,3.36h40.18c1.85,0,3.35-1.51,3.35-3.36v-24.56h-46.88Z"/>
    <path class="cls-18" d="M814.76,851.01c0-1.86-1.5-3.36-3.35-3.36h-40.18c-1.85,0-3.35,1.51-3.35,3.36v3.36h46.88v-3.36Z"/>
    <ellipse class="cls-20" cx="775.98" cy="850.68" rx="4.62" ry="1.96"/>
    <ellipse class="cls-20" cx="806.66" cy="850.68" rx="4.62" ry="1.96"/>
    <path class="cls-12" d="M791.32,832.3c-10.09,0-18.3,8.25-18.3,18.38,0,.61,1.23,1.11,2.96,1.11v-1.11h0c.59-8.57,7.24-15.35,15.34-15.35s14.75,6.78,15.34,15.35h0v1.11c1.72,0,2.96-.5,2.96-1.11,0-10.14-8.21-18.38-18.3-18.38Z"/>
    <path class="cls-22" d="M806.66,850.68c-.59-8.57-7.24-15.35-15.34-15.35s-14.75,6.78-15.34,15.35h0v1.11c1.72,0,3.27-.5,3.27-1.11,0-5.55,4.62-12.13,12.07-12.13s12.07,6.58,12.07,12.13c0,.61,1.54,1.11,3.27,1.11v-1.11Z"/>
    <path class="cls-20" d="M794.92,876.36l-1.49-9.58c.88-.65,1.46-1.7,1.46-2.89,0-1.98-1.6-3.58-3.56-3.58s-3.56,1.6-3.56,3.58c0,1.19.57,2.23,1.46,2.89l-1.49,9.58h7.2Z"/>
  </g>
  <g>
    <path class="cls-38" d="M970.78,922.32v24.56c0,1.86,1.5,3.36,3.35,3.36h40.18c1.85,0,3.35-1.51,3.35-3.36v-24.56h-46.88Z"/>
    <path class="cls-18" d="M1017.66,918.96c0-1.86-1.5-3.36-3.35-3.36h-40.18c-1.85,0-3.35,1.51-3.35,3.36v3.36h46.88v-3.36Z"/>
    <ellipse class="cls-20" cx="978.88" cy="918.62" rx="4.63" ry="1.96"/>
    <ellipse class="cls-20" cx="1009.56" cy="918.62" rx="4.63" ry="1.96"/>
    <path class="cls-12" d="M994.22,900.24c-10.09,0-18.3,8.25-18.3,18.38,0,.61,1.23,1.11,2.96,1.11v-1.11h0c.59-8.57,7.24-15.35,15.34-15.35s14.75,6.78,15.34,15.35h0v1.11c1.72,0,2.96-.5,2.96-1.11,0-10.14-8.21-18.38-18.3-18.38Z"/>
    <path class="cls-22" d="M1009.56,918.62c-.59-8.57-7.24-15.35-15.34-15.35s-14.75,6.78-15.34,15.35h0v1.11c1.72,0,3.27-.5,3.27-1.11,0-5.55,4.62-12.13,12.07-12.13s12.07,6.58,12.07,12.13c0,.61,1.54,1.11,3.27,1.11v-1.11Z"/>
    <path class="cls-20" d="M997.82,944.31l-1.49-9.58c.88-.65,1.46-1.7,1.46-2.89,0-1.98-1.6-3.58-3.56-3.58s-3.56,1.6-3.56,3.58c0,1.19.57,2.23,1.46,2.89l-1.49,9.58h7.2Z"/>
  </g>
  <g>
    <path class="cls-38" d="M934.3,1005.79v24.56c0,1.86,1.5,3.36,3.35,3.36h40.18c1.85,0,3.35-1.51,3.35-3.36v-24.56h-46.88Z"/>
    <path class="cls-18" d="M981.17,1002.43c0-1.86-1.5-3.36-3.35-3.36h-40.18c-1.85,0-3.35,1.51-3.35,3.36v3.36h46.88v-3.36Z"/>
    <ellipse class="cls-20" cx="942.4" cy="1002.09" rx="4.62" ry="1.96"/>
    <ellipse class="cls-20" cx="973.07" cy="1002.09" rx="4.62" ry="1.96"/>
    <path class="cls-12" d="M957.74,983.71c-10.09,0-18.3,8.25-18.3,18.38,0,.61,1.23,1.11,2.96,1.11v-1.11h0c.59-8.57,7.24-15.35,15.34-15.35s14.75,6.78,15.34,15.35h0v1.11c1.72,0,2.96-.5,2.96-1.11,0-10.14-8.21-18.38-18.3-18.38Z"/>
    <path class="cls-22" d="M973.07,1002.09c-.59-8.57-7.24-15.35-15.34-15.35s-14.75,6.78-15.34,15.35h0v1.11c1.72,0,3.27-.5,3.27-1.11,0-5.55,4.62-12.13,12.07-12.13s12.07,6.58,12.07,12.13c0,.61,1.54,1.11,3.27,1.11v-1.11Z"/>
    <path class="cls-20" d="M961.34,1027.77l-1.49-9.58c.88-.65,1.46-1.7,1.46-2.89,0-1.98-1.6-3.58-3.56-3.58s-3.56,1.6-3.56,3.58c0,1.19.57,2.23,1.46,2.89l-1.49,9.58h7.2Z"/>
  </g>
  <g>
    <path class="cls-38" d="M671.92,1030.83v24.56c0,1.86,1.5,3.36,3.35,3.36h40.18c1.85,0,3.35-1.51,3.35-3.36v-24.56h-46.88Z"/>
    <path class="cls-18" d="M718.79,1027.46c0-1.86-1.5-3.36-3.35-3.36h-40.18c-1.85,0-3.35,1.51-3.35,3.36v3.36h46.88v-3.36Z"/>
    <ellipse class="cls-20" cx="680.01" cy="1027.13" rx="4.62" ry="1.96"/>
    <ellipse class="cls-20" cx="710.69" cy="1027.13" rx="4.62" ry="1.96"/>
    <path class="cls-12" d="M695.35,1008.75c-10.09,0-18.3,8.25-18.3,18.38,0,.61,1.23,1.11,2.96,1.11v-1.11h0c.59-8.57,7.24-15.35,15.34-15.35s14.75,6.78,15.34,15.35h0v1.11c1.72,0,2.96-.5,2.96-1.11,0-10.14-8.21-18.38-18.3-18.38Z"/>
    <path class="cls-22" d="M710.69,1027.13c-.59-8.57-7.24-15.35-15.34-15.35s-14.75,6.78-15.34,15.35h0v1.11c1.72,0,3.27-.5,3.27-1.11,0-5.55,4.62-12.13,12.07-12.13s12.07,6.58,12.07,12.13c0,.61,1.54,1.11,3.27,1.11v-1.11Z"/>
    <path class="cls-20" d="M698.95,1052.81l-1.49-9.58c.88-.65,1.46-1.7,1.46-2.89,0-1.98-1.6-3.58-3.56-3.58s-3.56,1.6-3.56,3.58c0,1.19.58,2.23,1.46,2.89l-1.49,9.58h7.2Z"/>
  </g>
  <g>
    <path class="cls-38" d="M645.03,1115.86v24.56c0,1.86,1.5,3.36,3.35,3.36h40.18c1.85,0,3.35-1.51,3.35-3.36v-24.56h-46.88Z"/>
    <path class="cls-18" d="M691.9,1112.5c0-1.86-1.5-3.36-3.35-3.36h-40.18c-1.85,0-3.35,1.51-3.35,3.36v3.36h46.88v-3.36Z"/>
    <ellipse class="cls-20" cx="653.13" cy="1112.16" rx="4.62" ry="1.96"/>
    <ellipse class="cls-20" cx="683.8" cy="1112.16" rx="4.62" ry="1.96"/>
    <path class="cls-12" d="M668.46,1093.78c-10.09,0-18.3,8.25-18.3,18.38,0,.61,1.23,1.11,2.96,1.11v-1.11h0c.59-8.57,7.24-15.35,15.34-15.35s14.75,6.78,15.34,15.35h0v1.11c1.72,0,2.96-.5,2.96-1.11,0-10.14-8.21-18.38-18.3-18.38Z"/>
    <path class="cls-22" d="M683.8,1112.16c-.59-8.57-7.24-15.35-15.34-15.35s-14.75,6.78-15.34,15.35h0v1.11c1.72,0,3.27-.5,3.27-1.11,0-5.55,4.62-12.13,12.07-12.13s12.07,6.58,12.07,12.13c0,.61,1.54,1.11,3.27,1.11v-1.11Z"/>
    <path class="cls-20" d="M672.07,1137.84l-1.49-9.58c.88-.65,1.46-1.7,1.46-2.89,0-1.98-1.6-3.58-3.56-3.58s-3.56,1.6-3.56,3.58c0,1.19.58,2.23,1.46,2.89l-1.49,9.58h7.2Z"/>
  </g>
</svg>