<?xml version="1.0" encoding="UTF-8"?>
<svg id="Lager_1" data-name="Lager 1" xmlns="http://www.w3.org/2000/svg" viewBox="0 0 1254 1280">
  <defs>
    <style>
      .cls-1 {
        fill: #161c1f;
      }

      .cls-2 {
        fill: #f3f2f1;
      }

      .cls-3 {
        fill: #7e8f99;
      }

      .cls-4 {
        fill: #566772;
      }

      .cls-5 {
        fill: #313d43;
      }

      .cls-6 {
        fill: #7d8f97;
      }

      .cls-7 {
        fill: #a8ae98;
      }

      .cls-8 {
        fill: #3e4649;
      }

      .cls-9 {
        fill: #323a42;
      }

      .cls-10 {
        fill: #788b94;
      }

      .cls-11 {
        fill: #535e62;
      }

      .cls-12 {
        fill: #627077;
      }

      .cls-13 {
        fill: #39424b;
      }

      .cls-14 {
        fill: #5f7277;
      }

      .cls-15 {
        fill: #f5f5f1;
      }

      .cls-16 {
        fill: #39454a;
      }

      .cls-17 {
        fill: #949c8c;
      }

      .cls-18 {
        fill: #f2ede1;
      }

      .cls-19 {
        fill: #abb39c;
      }

      .cls-20 {
        fill: #181f20;
      }

      .cls-21 {
        fill: #93a5ab;
      }

      .cls-22 {
        fill: #424e59;
      }

      .cls-23 {
        fill: #9cafb5;
      }

      .cls-24 {
        fill: #536570;
      }

      .cls-25 {
        fill: #39434c;
      }

      .cls-26 {
        fill: #50626d;
      }

      .cls-27 {
        fill: #181e21;
      }

      .cls-28 {
        fill: #0a0b0c;
      }

      .cls-29 {
        fill: #53656f;
      }

      .cls-30 {
        fill: #77838d;
      }

      .cls-31 {
        fill: #adb49f;
      }

      .cls-32 {
        fill: #a6ac96;
      }

      .cls-33 {
        fill: #d6d2c7;
      }

      .cls-34 {
        fill: #4a5860;
      }

      .cls-35 {
        fill: #39434b;
      }

      .cls-36 {
        fill: #6b7d84;
      }

      .cls-37 {
        fill: #455357;
      }

      .cls-38 {
        fill: #090a0b;
      }

      .cls-39 {
        fill: #414d58;
      }

      .cls-40 {
        fill: #869aa2;
      }

      .cls-41 {
        fill: #565859;
      }

      .cls-42 {
        fill: #798a92;
      }

      .cls-43 {
        fill: #435159;
      }

      .cls-44 {
        fill: #5c6d78;
      }

      .cls-45 {
        fill: #3a444d;
      }

      .cls-46 {
        fill: #8497a0;
      }

      .cls-47 {
        fill: #798b93;
      }

      .cls-48 {
        fill: #353c42;
      }

      .cls-49 {
        fill: #7e7f7f;
      }

      .cls-50 {
        fill: #30373a;
      }

      .cls-51 {
        fill: #5e7176;
      }

      .cls-52 {
        fill: #85939b;
      }

      .cls-53 {
        fill: #82959d;
      }

      .cls-54 {
        fill: #1a2632;
      }

      .cls-55 {
        fill: #53646e;
      }

      .cls-56 {
        fill: #78858f;
      }

      .cls-57 {
        fill: #546671;
      }

      .cls-58 {
        fill: #1d2935;
      }

      .cls-59 {
        fill: #0b0d11;
      }

      .cls-60 {
        fill: #85939a;
      }

      .cls-61 {
        fill: #abb29c;
      }

      .cls-62 {
        fill: #434a4d;
      }

      .cls-63 {
        fill: #aeb6a0;
      }

      .cls-64 {
        fill: #414c53;
      }

      .cls-65 {
        fill: #4b5b64;
      }

      .cls-66 {
        fill: #6c7d84;
      }

      .cls-67 {
        fill: #37414a;
      }

      .cls-68 {
        fill: #64777e;
      }

      .cls-69 {
        fill: #141618;
      }

      .cls-70 {
        fill: #1b2325;
      }

      .cls-71 {
        fill: #adb59f;
      }

      .cls-72 {
        fill: #151617;
      }

      .cls-73 {
        fill: #697680;
      }

      .cls-74 {
        fill: #ece7dc;
      }

      .cls-75 {
        fill: #59656c;
      }

      .cls-76 {
        fill: #9da593;
      }

      .cls-77 {
        fill: #2e3539;
      }

      .cls-78 {
        fill: #0c0d0f;
      }

      .cls-79 {
        fill: #667a81;
      }
    </style>
  </defs>
  <path class="cls-42" d="M936,596c8.61-.94,12.76,1.22,12.44,6.49,2.6,5.26,6.79,10.1,12.56,14.51,2.72-.64,2.98.12,1,2,2.59,7.53-4.16,9.53-10,10-5.17-1.82-5.17-1.49,0,1,.83-.33,2.02-.47,2.34.19,4.01,8.11,6.92,16.94,7.66,25.81,4.15,1.56,6.72,12.08-.26,8.9-2.78-.4-5.03.3-6.74,2.1-2.48.82-5.13,1.21-7.98,1.17,3.19.24,5.85,1.19,7.98,2.83,2.07-.84,2.71.59,1,2-.58,4.29-1.62,8.3-3.13,12.02,1.42,5.75,1.69,12.37-.08,18.72l1.21,3.27c2.83.79,2.94,4.28,0,5-1.07,5.62-1.4,11.62-1,18,2.98,2.88.75,13.27-3,14-.64,4.3-2.89,11.36-8,9-2.3.79-10.04-.2-9.52-2.99,4.71-4.85,8.15-11.34,8.7-19.21.35-1.22,1.16-1.88,2.37-1.82.29.01-2.25,2.91-2.41-2.61-.19-6.82-.81-14.02-3.14-20.37-3.55-3.62-5.16-11.38-3-16-1.07-5.89-1.26-11.38-.56-16.47l-2.27-.38c-1.96-2.28-1.51-11.89.06-15.3-.78.2-1.18-.75-1.22-2.86-1.31,1.24-1.67.67-1-1-.68-1.67-1.53-4-1.98-5.97-.09-.41,2.95,4.16.98,6.97,2.41,4.25,1.1,9.33-5,8-4.99,2.21-6.32.21-4-6-.4-1.46-.67-4.68-.35-6.24.67-3.31,4.67-13.27,8.35-12.76q2.95.34,0,0l-1.4-.13c.14-5.64-2.27-9.41-7.26-11.29l-.35-2.58-.25-1.68c6.27-7.69,9.6-16.48,11.25-25.32,2.17-.53,3.75-.8,6-1Z"/>
  <path class="cls-73" d="M895,659l6,10c1.48-1.02,3.45-.48,5.91,1.63,1.6-1.03,2.97-1.24,4.09-.63.74-.19,1.77-.43,2.18.06.53.63,1.61,3.82,1.97,4.92,1.08,3.31,1.48,6.59,1.86,10.03l1-11c.28-.87.62-.86,1,0l1.17.92c-1.48,8.44-.44,15.69,3.12,21.76l.72,4.32c2.78-1.28,7.25,3.27,8,6,1.03,1.3,2.79,14.1,2.6,14.87-.85.6-1.63,1.42-2.34,2.48,2.48,4.96,2.4,9.18-.26,12.65.86.34.86.67,0,1-.09,2.31-.13,4.17.27,6.85-2.44,1.61-7.63,14.78-1.9,12.17l.63.98c3.86-2.07,4.77,2.68,3.18,5.99.87,7.53,1.45,14.92,1.76,22.19-.37,2.27-5.47,6.73-7.94,6.82-1.41.3-2.74.96-4,2-1.64-.16-3.35.11-5,0,.06-1.4-.27-2.73-1-4-.96-1.03-.7-2.83,0-4-.81-1-.96-2.11,0-3,.36-5.79.7-11.45,1-17-1.31-7.13-1.72-14.87-1.24-23.22-1.76-2.99-2.48-5.97-2.17-8.94-2.05-1.98-1.19-5.68-.4-8.33l-1.31-.46c-2.23-7.48-4.53-14.82-6.88-22.05-2.24.98-3.16-3.46-2-5-.55-1.12-1.37-1.83-2.46-2.13l-.95-13.94c-1.59,9.53-10.47,20.8-9.02,4.13l-2.03,6.78c.1,14.73-9.94,10.53-6.62-1.49,5.9-19.71-4.83,4.89-3.51,12.05.94,3.76.8,6.96-.41,9.6-4.16-8.88-5.28-13.89-8-23-.85-.02-1.19-1.02-1-3,.77-2.94.73-9.49,1-13,.28-.87.62-.86,1,0,.52-3.63,2.32-5.72,5.41-6.26l4.84-11.64c-1.22-.7-1.81-1.55-1.25-3.11v-1c2.34-4.3,14.22,1.63,13,6Z"/>
  <path class="cls-24" d="M880,714c-4.16-13.17.2-26.22,8.52-36.99,4.02-1.15-7.01,21.94-2.01,23.99l1.48,1c-.46-8.58,2.33-17.25,7.52-23.99l-1.5,15.99c3.18,1.39,6.26-20.58,9.99-15.99-.56,6-.38,15.11,1.01,20.99-1.02,1.89-1.64-.89-1.5-.91.94-.15,6.22,18.73-1.19,14.9,2.44,2.43,2.56,5.3.49,8.03,4.16-1.21,6.13,1.5,4.89,5.39l2.37,2.29c.77,10.06,1.08,20.16.93,30.3l2.19,2.13c2.33,8.62,3.6,17.24,3.81,25.87-.66.34-1.35.64-2,1-2.25-.53-3.5-1.82-2-4-3.08.73-7.72-3.89-4.4-6.59-2.24-3.78-2.48-6.83-.72-9.16l-3.39-5.57c2.11-3.05,1.78-5.98-.99-8.77,1.23-2.06.82-4.17-1.22-6.34,2.67-5.55,2.19-18.48-5.77-20.1.6,2.78,1.71,24.72.41,25.88-1.3-.36-2.28.18-2.92,1.64-.28.87-.62.86-1,0-1.03-5.2-2.6-9.94-4-15-.76-2.14-.76-4.14,0-6-.23-11.31-5.06-11.6-9-20Z"/>
  <path class="cls-47" d="M871,609c1.09.49,1.13,1.83.13,4.03,5.05,1.47,4.98,4.67-.22,9.62l2.09,1.35c.3-1.82,2.63-3.6,4-2l1.32-.48c3.08,3.26,5.07,3.17,5.98-.27,1.82-4.17,6.54-9.7,8.05-2.92,3.26-3.81,5.92-4.93,7.22.76,3.19-.33,7.48.8,3.43,2.92-.08,3.83-7.78,8.21-11.64,6.09l-.75,1.34c7.04-.88,14.82,1.57,9.15,9.82,2.55.37,3.22,2.84,2,7.42,2.55,4.56,4.34,9.49,5.37,14.76,3-1.26,5.63-1.74,7.87-1.43,4.21.26-.45,11.48-4,10-3.6,4.37-5.37,2.76-10-1l-6-10c-3.71-3.25-7.84-5.94-13-6-2.88-2.28-4.86-6.45-6-10-12.37-14.88-31.97-12.63-5-34Z"/>
  <path class="cls-73" d="M967,708c.7,1.22,1.03,3.22,1,6-.07.65.07,1.35,0,2l-1.24.78-.13,20.78-.63,1.43c-1.65,8.56-2.61,17.07-2.88,25.53-3.85,6.68-2.67,16.72-.43,24.18,0,1.42-.24,3.06-1.69,3.29-1.95.88-1.95,1.54,0,2-3.08,1.49-3.99.88-7,1l-4-2c-.3.54-.64.53-1,0-3.63-10.78-.61-24.56,2.16-35.51-1.23-4.38-.36-9.73,2.04-13.59-1.78-2.04.2-5.52,1.71-7.59.01-9.32.89-18.73,2.65-28.24l2.44-4.09c.54-2.69,2.43-5.32,5-5,4.58-6.28,4.45,6.56,2,9Z"/>
  <path class="cls-47" d="M976,615c-.07-5.51-5.19-4.21-8.51-1.12-5.52,5.24-8.74-10.61-6.78-12.7,1.24-1.32,2.78-1.19,4.42-.81,12.62,2.54,25.25,4.75,37.87,6.63-.52-.3-.51-.64,0-1,3.85,2.7,6.99,6.43,10,10,4.01,4.43,4.88,7.66,2.63,9.66,0,0-5.85,2.84-17.56,8.52-5.24,1.44-10.66,3.34-16.29,5.7-2.01.1-2.64-1.36-1.87-4.38-8.43-7.55.3-7.8,7.16-6.84,1.11-1.16-6.48-5.92-7.78-6.22-5.27-3.02-6.69-5.5-4.28-7.44.33-.86.67-.86,1,0Z"/>
  <path class="cls-22" d="M952,607c.37-1.11,1.57-1.4,3.6-.88,2.54-3.75,7.53,3.18,6.25,7.08,1.82,4.21,8.71-1.22,10.75-2.89.77-.27,6.12,3.18,3.39,4.7-.23.15-.77-.16-1,0,.2,1.08-.25,1.94-1.36,2.59,9.21,6.62,10.53,10.21,3.97,10.77-3.65,1.26.91,12.91,4.58,11.6l12.82-5.21c.75,1.45,2.61.75,5.58-2.12,7.29-1.44,12.95-4.7,17.01-9.78l1.41.15c4.11,8.87-9.69,10.09-17,15-4.61,10.48-12.45,18.24-22.83,22.97-1.95,2.61-4.01,4.28-6.17,5.03-1.51,5.93-8.14-2.1-5-5,3.37-7.8,2.3-13.68-2.79-20.3,2.23-2.86,1.6-9.06-2.21-8.7-2.61-2.39-2.81-5.71-.59-9.98l-.41-3.02c-.27-.9-.7-1.34-1-2-2.92-3.21-6.08-6.19-9.47-8.92l.47-1.08Z"/>
  <path class="cls-73" d="M894,755c4.36-7.61-1.35-14.99,1.83-20.31l-1.82-9.68c14.67,1.34,9.56,14.14,12.99,21.5-6.7-.98-.69,1.83.05,5,.48,2.06-2.19,1.08-2.04,1.99.08.46,2.55,1.71,2.99,4.09.79,4.29-2.11,3.19-1.99,3.91.1.58,3.5,4.2,4.05,7.1.36,1.9-2.06,1.31-2.04,1.43.16.77,2.32,5.82,2.99,8.41.25.96-2.53-.02-1.99,1.55.09.27,2.21.86,3.99,4.02.22,1.9.89,3.23,2,4-5.56,3.12-10.89,2.51-17,1-.05-1.96-.26-2.84-2-4-.68-.93-.68-2.26,0-4-.05-3.24.28-6.24,1-9-.83-1.89-.34-3.96,1.46-6.19-.99-2.04-4.76-11.63-2.78-11.38.19.02-.18,1.75-1.68.57Z"/>
  <path class="cls-25" d="M962,685v8c1.78,1.19.74,4.88-1,6,1.15.49.82,2.16-1,5-.92,10.02-2.93,20.47-4.06,30.49-.07.63,2.18.19,2.06,1-.06.39-3.69,4.47-3.98,6.03-.59,3.1,2.76-1.21,1.97,1.96-.28,1.13-3.16,3.74-3.91,7.1-1.68,7.53,2.24,3.4,1.91,5.9-.15,1.15-2.65,3.58-2.96,6.12-1.21,9.91-1.93,20.4-2.02,30.4-1.58-.22-2.91.12-4,1-3.33-2.52.37-12.13,1-17l-1.56-3.27c1.2-10.09,3.05-20,5.56-29.73,2.23-4.8,2.26-9.11,3-14l.07-4.55c-1.23-1.6-1.11-3.19.35-4.75-1.9-3.16-1.12-6.05.58-8.7.12-1.65-.09-3.34,0-5-1.85-1.66-1.93-4.27-.25-7.82-.93-2.21-.77-4.01.5-5.42-.97-6.45-.5-14.3,1.75-19.76-.81-2.81.13-2.94,2-1,2.67.87,6.26,9.75,4,12Z"/>
  <path class="cls-24" d="M975,615c-1.5,6.47,15.87,6.18,14,15.99l-11-.99c1.08,4.25,5.9,2.8,3,8.99,5.11-5.15,20.28-2.89,16-11,1.09,8.03,18.37-3.08,18.98-4.02,1.41-2.16-3.99-5.32-3-7.98,1.98,2.35,4.37,3.49,6,7-2.81,6.13-12.53,8.33-18.51,11.99-3.75,2.3-7.77,10.44-12.49,7.02,1.82.09,7.59-3.42,6.48-6.03l-14.85,6.88c-4.42-5.54-10.3-17.6,1.35-16.36l-8.85-8.2c-.72-3.57,1.76-2.56,2.86-3.31Z"/>
  <path class="cls-55" d="M968,661c1.5,2.37,2.79,7.57,5,5,2.64.16,2.44,1.06,0,2-1.79,8.53-2.87,29.55-4,40-.62,2.61-1.14,2.59-2,0,.11-2.69,1.84-12.2-2-9l-.65-.96c4.37-9.91,2.8-20.06-.35-30.04-1.62.55-3.29.88-5,1,.63,2.2.3,3.53-1,4l-2,1c-.88-.25-.86-.58,0-1-.14-.95-.9-1.6-1-2-4.29-1.41-6.01-4.67,0-4l1.01-9.99c-2.03,4.64,6.91,8.18,7.98,6.99s-1.51-6.45-1.99-7.99c-.27-1.62.06-2.29,1-2,2.84-1.32,7,4.65,5,7Z"/>
  <path class="cls-27" d="M946,777h-1c-1.5.75-3.16.75-5,0-1.34-.3-2.8-.11-4-1-2.12-4.42-1.79-10.49-1.24-15.47-1.36-2.15-.74-3.96,1.24-5.53,0-2.11,2-2.78,6-2,3.84-2.23,6.2-5.12,8-9,.2,11.07-2.58,22.11-4,33Z"/>
  <path class="cls-24" d="M907,599c4.92.71,6.39,4.62,7.84,8.89,7.51-2.36,3.42,6.09,1.16,10.11l-2.18,1.11c-3.56-4.75-6.83-9.73-9.81-14.94-1.77,3.44-5.47,4.05-11.1,1.83l-2.61,1.98c-4.64-.25-9.01.23-13.09,1.43,6.46.86,9.09,6.76,2.5,9.9-2.54.29-6.28,2.91-6.71,4.69-.97.27-2.14,1.75-3.99.99-.75-3.51,4.15-5.45,4-8.51-.13-2.73-4.52.57-2-7.49.92-.73,1.07-1.98,3-3l2.31-2.19c10.04-1.64,19.99-3.28,29.98-5.72l.72.92Z"/>
  <path class="cls-3" d="M882,654c1.9,1.7,4.69.45,4.99,1.49-4.02,4.01-5.25,11.52-7.49,15.58-.67,1.21-2.94-.58-3.99.87-1.69,2.34-1.47,9.08-1.53,12.05-1.92-1.54-.94-6.59-.99-8.99-.79-1.63-.77-3.34,0-5,.19-7.46.51-11.71,2-19l1-5c2.22,1.93,4.22,4.6,6,8Z"/>
  <path class="cls-57" d="M970,601c2.65-.3,7.67-.02,9,2,9.4-1.85,17.4-.52,24,4l-.48,1.98c-4.22-1.72-37.05-8.68-38.86-7.88-5.21,2.3,3.18,10.05-1.65,11.88,6.77,3.49,8.85-6.81,15.99-6.97l-4,4.98,5.99,1.49c-.76,1.96-3.09,1.91-3.99,2.52-2.12-7.6-8.28,2.11-12.27.87-2.11-.65-4.23-8.36-7.23-9.87-1.17,4.61-2.49-.41-4.49,1-2.37.8-4.34-2.92-1.93-4.45.19-.12,3.72-.51,3.95-.51,3.23.1,6.4,2.73,1.06,1.01l.92-2.05c2.03.68,4-1.83,5-2,2.85-1.23,6.88,0,9,2Z"/>
  <path class="cls-6" d="M1002,638l-.13,5.89c-8.47,7.6-16.23,18.26-25.54,24.96-1.86,1.34-2.39,1.38-3.33-.85.13-.62-.17-1.52,0-2,3.25-8.95,13.5-10.15,17.95-13.55s3.36-9.29,11.05-14.45Z"/>
  <path class="cls-44" d="M966,739c.5-.62.84-.28,1,1-1.1,11.28-3.97,23.17-5,34v9c.27,4.16,4.19,5.24,0,10-.92.25-1.25-.08-1-1,1.94-10.16-2.28-4.81-3.01-8.49-.18-.89,1.9-.26,1.92-.92.12-5.16-.51-10.64.08-15.86.12-1.08,2.93-1.47,3.01-2.23.3-2.86-2-.38-1.99-.48.46-3.76.56-7.62,1.02-11.33.09-.71,1.76-.64,1.81-1.13.16-1.35-1.99-7.76-1.85-8.55.03-.15,2.99.13,3.01-.02.19-1.14-1.19-2.73-1.04-3.43.19-.89,2.02-.46,2.04-.56Z"/>
  <path class="cls-47" d="M910,599l12,1c.8-.35,2-.61,3-1,2.15.31,2.8.7,2,3-2.82,5.87-6.13,11.59-9.51,17.22l-1.49-.22c-.91-.32-.9-.66,0-1,.02-3.45,2.88-5.99.99-9.99-2.62,12.93-4.23-7.01-9.99-9.01.25-1.63,2.14-1.35,3,0Z"/>
  <path class="cls-67" d="M936,755c.2,6.85-.6,14.16,0,21s3.38,11.51,2.84,17.88c-.55.44-1.55-.04-1.84.12-2.02-1.87-3.69-1.54-5,1-1.26.14-2.71,0-4,0-2.67-.13-2.48-1.03,0-2,1.12-2.86,4.64-3.62,5.46-5.06,1.7-3-1.51-6.35-1.46-6.91.02-.2,2.65.22,3.06-2.53.73-4.95-3.01-6.46-3.05-7-.06-.83,2.11-.3,2.04-1.14-.25-3.39-1.74-5.26-2.12-7.8-.13-.86,5.05.42-.93-4.55-1.65-.39-1.32-1.05,1-2,.58-2.86,2.1-3.23,4-1Z"/>
  <path class="cls-21" d="M946,596c2.69.48,8.07,3.09,10,5,.38.37,2.18,2.83,2,2.99-4.99-2.52-1.99,1.49-3.5,2.02-.31.11-7.2-5.51-2.5.99,2.48,3.43,6.72,5.07,9,10l-13.01-10.48c-4.94-7.74,4.66-8.96-11.99-10.52.33-.03.67.02,1,0h9Z"/>
  <path class="cls-52" d="M930,597c.9,1.05,2.04,0,1.4,1.99-2.79,8.72-5.24,17.71-12.4,25.01-.2,2.65-1.01,2.44-2,0-2.8-1.41-2.2-3.87,1-3l-.68-.92c3.23-5.99,6.46-12.01,9.68-18.08-.12-.37-2.72-1.12-2-3,1.08-.42,4.6-1.9,5-2Z"/>
  <path class="cls-46" d="M919,599c-2.74.76-6.12.73-9,0-.98.06-2.03-.13-3,0-4.85.63-30.31,5.57-33,7,1.03-5.74,6.76-4.86,11-5,2.57.78,5.24.78,8,0,2.07-.6,5.5-2.77,7-3l7-1c2.3-.12,9.39,1.27,12,2Z"/>
  <path class="cls-4" d="M894,755c5.93-6.58-1.58,6.59,5.99,0-4.51,3.59,1.14,10.88,1.01,11.49-.12.53-3.44,3.12-4,5.51-.28.87-.62.86-1,0-.73-5.79-1.87-11.3-3-17h1Z"/>
  <path class="cls-30" d="M872,691c-.64,3.23-11.7,23.23-13,23-1.26-2.29-.26-5.29,3-9,2.56-4.18,7.86-12.64,9-17,1.26.73.73,2.09,1,3Z"/>
  <path class="cls-40" d="M981,602c5.02-1.06,10.8-1.1,16,0,2.88.52,4.23,2.76,6,4v1c-7.48-4.45-15.81-2.8-24-4-1.9-1.46.47-2.05,2-1Z"/>
  <path class="cls-34" d="M968,716c-.19,1.73-.76,3.75-1,6v10c-.25,2.62.26,5.38,0,8l-1-1c.95-5.92-.26-15.02,0-21.52.1-2.46-.7-3.26,2-1.48Z"/>
  <path class="cls-76" d="M937,794c-2.37,1.34-2.82.75-5,1-.68-5.97,3.6-6.82,5-1Z"/>
  <path class="cls-56" d="M862,705l-3,9c-6.63-1.17,2.7-8.51,3-9Z"/>
  <path class="cls-23" d="M919,599c1.06.08,2.07.52,3,1-.36.16-2.1,3.56-2.99,3.01-.18-.11.25-2.82-.07-2.9-2.74-.7-6.63,1.1-8.94-1.11,2.79-.16,6.23-.2,9,0Z"/>
  <path class="cls-53" d="M981,601c.87.28.86.62,0,1-.82.07-1.63.09-2,1-2.76-.4-6.24-1.59-9-2-1.47-1.01-1.14-1.34,1-1,3.08.55,6.83.74,10,1Z"/>
  <path class="cls-17" d="M949,793h1c1.98,1,1.08,1.75-1,2-1.69-.29-2.05.47-4-1,.2-5.01,1.53-4.49,4-1Z"/>
  <path class="cls-12" d="M882,653v1c-3.18-2.85-3.69-4.73-6-8v-1c-.01-.67,0-1.33,0-2,2.53,3.04,3.55,6.92,6,10Z"/>
  <path class="cls-10" d="M971,600l-1,1c-1.79-.26-6.93-2.36-9-2,3.16-3.35,7.83.61,10,1Z"/>
  <path class="cls-50" d="M997,602c-3.3-.59-12.33-.3-16,0v-1c5.14.41,11.22-1.16,16,1Z"/>
  <path class="cls-32" d="M954,795c-1.46.06-3.7.23-5,0,.41-.55.6-1.59,1-2,2.68-2.76,4.09-2.09,4,2Z"/>
  <path class="cls-7" d="M924,795c-.21-3.56,2.13-5.95,4-2-.18.46.12,1.39,0,2-1.31,0-2.71.13-4,0Z"/>
  <path class="cls-31" d="M896,785c2.26-2.29,5.72,3.18,2,4-1-.37-1.62-1-2-2-.53-.78-.86-1.48,0-2Z"/>
  <path class="cls-63" d="M961,792c.38.26.66.69,1,1-.26.3-.76.88-1,1-6.75,1.39-4.01-4.68,0-2Z"/>
  <path class="cls-49" d="M967,732c.32-3.27-.34-6.74,0-10v10Z"/>
  <path class="cls-48" d="M896,781c-.32-2.92.37-6.09,0-9h1c-.55,2.35-.27,5.45-1,9Z"/>
  <path class="cls-43" d="M962,783c-.28-4.43-.45-4.23,0-9v9Z"/>
  <path class="cls-11" d="M946,596c-2.17-.39-6.55-.12-9,0h9Z"/>
  <path class="cls-71" d="M918,791c3.29.38,4.43,2.54,1,4l-1-1c-.47-.99-.89-2.23,0-3Z"/>
  <path class="cls-8" d="M893,601c-2.69.77-5.35,2.44-8,0,2.66-.09,5.34.06,8,0Z"/>
  <path class="cls-62" d="M907,597c-1.12.06-5.42.76-7,1l7-1Z"/>
  <path class="cls-77" d="M918,791c.16.93-.11,2.04,0,3-1.96-1.65-.71-4.87-1-7,.28-.87.62-.86,1,0,.08,1.28-.21,2.82,0,4Z"/>
  <path class="cls-34" d="M969,708c-.19,1.71-.76,3.77-1,6-1.62-1.26-1.07-4.17-1-6h2Z"/>
  <path class="cls-59" d="M896,785c.11.63-.17,1.55,0,2-2.66-1.95-.31-4.5,0-6,.14,1.28-.22,2.78,0,4Z"/>
  <path class="cls-72" d="M889,740c-.49-1.76-2.53-4.05,0-6,.04,2-.03,4,0,6Z"/>
  <path class="cls-69" d="M876,646c-.13,2.64-.62,3.15-1,5l1-6c0,.33.02.67,0,1Z"/>
  <path class="cls-41" d="M945,777c-1.55,2.55-3.78.27-5,0h5Z"/>
  <path class="cls-38" d="M873,675h-1c.12-1.6-.68-3.92,1-5-.04,1.66-.03,3.34,0,5Z"/>
  <path class="cls-1" d="M934,687c.73.59,1.07,1.59,1,3,1.06,5.23,2.3,10.72,3,16,1.11.3,1.43,1.8.96,4.48,1.81,2,2.36,4.78,1.65,8.35,1.65,3.01,1.82,5.86.51,8.55.73.33,1.29.66,1.28.97-.07,2.24-1.15,6.85-2.37,8.29,2.13,1.97-2.05,6.82-4.03,7.37-2.66.38-5.87-3.73-4-6-.12-.28.12-.71,0-1,2.48-3.98,2.49-8.55.01-13.72.93-.77,1.68-1.79,2.25-3.06-1.19-4.73-1.34-8.84-.26-13.21-1.68-.57-3.63-1.56-2-3l-4.15-12.07c-.1-.97.41-1.66,1.54-2.1-.47-4.23,2.71-7.52,4.62-2.83Z"/>
  <path class="cls-14" d="M919,624c2.33,1.59,6.79,3.63,7.89,5.61,1.88,3.37.44,6.06,1.11,8.39-2.64,3.37-7.61,15.01-8,19-.28.87-.62.86-1,0l-2.04-1.06c-1.56-6.26-3.34-12.49-5.32-18.7.34-4.22.93-8.42,1.79-12.6l2.57-.65c.34-.87.67-.87,1,0,.33.24,1.65-.24,2,0Z"/>
  <path class="cls-79" d="M938,706l6.99-1.99c-6.67,2.09-8.57,8.83-1,7.99-3.66,2.97-4.02,11.56,2.01,10,.54,2.2-5.34,2.99-4.01,5.98.13.3,6.29-.95,1.01,3l2.98,2.01-3.98-.99c-1.34,2.73,2.66,1.43,1.98,2.98-.1.22-3.65,1.69-3.98,2.51l6.99,2c.44,1.83-6.87-.09-7.98,3.02s5.18-.39,3.98,3.48l-5.99-.99.99,4.99-4.97-.49,8.98,3.5c-2.74,1.6-3.29,1.32-6,2-1.26.31-2.8.88-4,1-.59.85-3.45,1.8-4.09,1.51-.91-.42,2.04-17.39,8.09-13.51,7.38-11.11,3.65-25.54,2-38Z"/>
  <path class="cls-51" d="M963,632c3.18.16,4.68,5.61,2.55,7.99.49,2.3-.09,4.87-1.76,7.71.69,2.82.43,4.92-.79,6.3l-1,2c-1.65-5.32-7.56-21.56-10-26-.89-.29-.87-.62,0-1,3.91-5.37,11.68-2,10-10,1.39,4.65,1.09,8.3,1,13Z"/>
  <path class="cls-60" d="M928,638c10.6-13.52,28.72-2.29,23.99,3-.39.43-8.54-2.06-11.47-2.05-6.33.02-11.09,4.05-12.52-.95Z"/>
  <path class="cls-45" d="M920,657c-.77,7.87,2.93,4.26,4,6,2.32.31,2.35,1.24,0,1-2.16,2.72-3.39,5.92-3.68,9.59l-1.32.41h-1l-1,11-6-15c1.06-1.29,4.61-8.04,4-10-3.26-2.68,3.02-6.44,3.54-1.73l.46-1.27h1Z"/>
  <path class="cls-36" d="M956,673c.05.32-.03.67,0,1,.86,10.11-1.45,22.73-2,33l-4.99-3.01c5.16-1.68,5.45-9.01-1-8,7.24-1.23,7.07-4.1-.01-5.5,7.27-3.13,2.25-3.01,2.98-5.91.68-2.7,5.74-3.08-3.97-5.56,1.66.02,6.48.5,6.99-1.53.98-3.91-7.1-.69-5.99-4.47h8Z"/>
  <path class="cls-52" d="M952,629c.15.24-.14.74,0,1-2.41-.77-22.88,1.62-23,.48-.55-5.25,18.33-9.04,23-1.48Z"/>
  <path class="cls-68" d="M931,655l5-.99-4.99,2c6.07,1.46-.96,4.17.43,9.04l7.56-.05c.51,3.48-3.86,1.42-6,3.49-6.14,5.96,6.31.87,7,4.01-6.09,1.55-8.57,10.18,0,7.5-4.8,3.76-4.64,4.1-5,9.99-.11-.53-.71-1.72-1-3-.48-.77-1.26-1.05-2.24-1-1-3.2-2.58-11.7-.76-14l-2.73-5.51c.18-3.97,1.44-8.17,2.73-11.49Z"/>
  <path class="cls-52" d="M955,622.99c-5.82,1.76-9.72-4.18-14.5-4.12-4.25.06-12.11,8.92-14.5,3.13l4.98-.53c10.01-13.8,12.38-2.66,24.03,1.51Z"/>
  <path class="cls-65" d="M931,655c.26,5.43-1.78,11.32,0,17-2.63.88-3.72-.32-3-3-2.83,1.7-3.8-1.36-4-4-.88-.25-.86-.58,0-1-.03-.19,1.03.67,0-1,3.87-6.82,4.97,4.99,5-8-.01-1.08-.02-1.47,1-1,.18.38.99.85,1,1Z"/>
  <path class="cls-36" d="M953,730c.41-3.49-.08-6.5-3.99-7.02,8.54-1.83,1.26-3.97.99-6.5-.02-.21,3.73-1.1,1.89-3.88-1.95-2.95-5.46.06-4.89-3.6l6.99,2.99c-.48,6.38.08,10.85-1,18Z"/>
  <path class="cls-66" d="M955,667l-3.01.5c1.97,1.28,2.39.92,3.01,3.5-15.06.39-16.57-7.55,0-4Z"/>
  <path class="cls-68" d="M929,655c0-1.27-2.15-5.55-.99-7.99l1.63,2.06,7.35-1.06c-5.47,4.63-6.12-1.66-6.99,5.99-.02.2-.8.63-1,1Z"/>
  <path class="cls-9" d="M905,699c.56,2.36,1.09,3.05,2,5,1.92,3.57,2.83,7.06,2.72,10.47,2.31,3.41,4.4,10.04,4.88,14.05.3,2.49.58,6.26-1.6,7.48,1.12,7.16,1.71,17.01-2,23l-3.01-31-2.98,2.99c-.48-1.64,1.69-7.28.98-7.99-1.84-1.83-5.84,3.45-7.96.5,8.79-9.08,1.83-6.63-1.02-15.51l7.98,3.99-2-14.49,2.01,1.5Z"/>
  <path class="cls-57" d="M907,704c.64,1.36,1.38,2.22,1.01,4l2.98-2.99c-.12,3.88-3.27,7.41,2.01,5-6.17,6.28-.54,4.44.83,7.66.71,1.67-.42,4.58.63,6.39.83,1.43,3.23-.43,3.53-.06s-2.78,7.33-2,9.48c6.42-3.36,1.03,1.28.96,4.1,0,.33,2.85,5.57,2.85,5.9.07,5.89-2.44,11.53-1.78,17.51l2.49-7.99c1.74,6.15-1.09,8.25-1.51,13.99-.28.87-.62.86-1,0-.15-3.98-.84-7.93-1-12l-1-6c-.37-4.21-.98-9.24-3-13,.31-12.69-4.45-19.8-6-32Z"/>
  <path class="cls-74" d="M928,669l1.09,2.64c-3.53,10.63-2.56,21.42,2.91,32.36.16.35,1.27,1.62,2,3-.13,2.67-1.02,2.48-2,0-2.41-.94-6.24-3.83-8-6-5.12-11.24-5.56-23.39-1.8-35.08.24-.74.98-.96,1.8-.92,1.81.86,2.65,2.63,4,4Z"/>
  <path class="cls-13" d="M934,707c1.23,2.33,2,5.1,2.95,7.57l-2.96-1.06,3,11.48-2.98-2.99c-.49,3.1,4.42,15.87-2.01,14.99-2.12-5.13,1.23-2.05.93-5.45-.26-3.02-3.24-6.59-2.95-9.04.09-.79,2.96.69,2.94-1.05-.06-4.83-2.66-9.51-.92-14.46.46.18,1.39-.12,2,0Z"/>
  <path class="cls-2" d="M924,664c.06.32-.05.67,0,1,.09.6-1.77,4.84,0,7.01l-1.98-1.01c-1.44,8.34-1.81,16.91,1.01,25.01l1.97-1.01-.99,6c-5.87-7.24-5.85-18.07-5-27,.31-3.25.71-11.47,5-10Z"/>
  <path class="cls-64" d="M936,744c-1.94,2.92-4.44,1.2-5.85,3.65-.5.87-.65,7.34-2.14,9.35,1.32-.71,2.52-.86,3.99-1l-1,2c-.98-.81-3.57,1.69-4.02-1.5-.71-5.05,7.04-12.53,1.02-16.49l4-2.01c.36.8,3.65,4.02,4,6Z"/>
  <path class="cls-75" d="M901,669c-1.3-1.05-6.87-7.74-6-10,2.41,2.11,6.14,6.41,6,10Z"/>
  <path class="cls-78" d="M918,784c-.23-5.64.21-11.36,0-17h1c-.4,5.48,1.15,11.86-1,17Z"/>
  <path class="cls-54" d="M918,674l-1,11,1-11Z"/>
  <path class="cls-19" d="M915,788c-4.91,1.92-5.93-.47-2-4,.7,1.23,2.51,1.97,2,4Z"/>
  <path class="cls-22" d="M904,622c8.29-.42,13.66,3.78,6.94,10.71.42,3.55,1.13,7,2.11,10.35-2.27,3.64-2.24,5.61.11,5.9.6,3.85,1.21,7.54,1.84,11.04-12.26,8.98-10.01-1.23-12.22-7.28-1.55-4.25-5.04-4.67-1.78-11.71-3.85-.54-4.7,6.41-6.5,6.96-.58.18-.8-6.35-9.5-1.99,5.54-4.08,13.99-4.01,15-12.97-8.93-4.32-9.56.28-16.99,2.49,3.49-.73,6.46-8.79,6.96-9.1,1.66-1.03,4.07,1,5.3.39,2.12-1.05,5.97-4.64,7.73-4.79.33-.87.67-.87,1,0Z"/>
  <path class="cls-39" d="M916,618c0,.3-.08.73,0,1,2.24-1.53,3.13-.46,2,2-.5.95-1.37,1.54-1,3-.22-.16-.78.16-1,0-2.62,2-7.43-2.5-8.09-5.1l-.91.1c-3.3,2.73-11.47-.11-8.85-5.61-7.44.22-12.77,3.16-14.99,10.58-2.05-.62-4.1-1.28-6.16-1.97-1.33.49-2.74,1.65-4,2-4.68-.78,8.82-8.12,9-8.51-2.18-5.63-5.71-4.2-10-2.5,3.83-9.38,12.12-5.97,18.28-7,.7-.12.75-1.91,1.42-2,2.54-.35,7.06,2.01,9.76,1.09,1.16-.4.3-2.95.55-3.07,5.5-2.75,9,14.66,14,16Z"/>
  <path class="cls-24" d="M877,622c1.94-.71,1.05-4.04,5.99,1-3.25-7.12,15.32-14.76,16.93-10.36s-6.07,3.96,7.08,6.36c3.93,1.67-.02,5.8-3,3-.33.02-.67-.03-1,0,.52-4.03-2.22.22-5.02-1.48-2.07-1.26,1.69-4.01-1.47-3.51l-6.02,5.97-.51-6.98c-4.17,4.37-3.28,7.59-9.01,10.98l-3.98-4.99Z"/>
  <path class="cls-15" d="M965,699c-.6,1-4.52,2.87-5,5,.26-2.81.87-3.71,1-5,1.01-1.71,2.01-3.05,3-4,2.03-8.24,1.38-16.72-1.97-25.43l1.97-1.57c5.04,6.17,5.2,23.98,1,31Z"/>
  <path class="cls-29" d="M1001,619.01l3,2c-.81,10.12-12.21-4.99-18.99-3.5,4.18.57,17.71-4.92,19.45-4.55,2.44.52,3.25,1.75,2.07,4.07l-5.54,1.98Z"/>
  <path class="cls-5" d="M968,661c-1.15-1.81-4.83-6.6-5-7-3.57-8.48,1.32-8.9,1.85-15.5.16-1.93-1.86-4.38-1.85-6.5,0-.51,1.23-7.24,1.99-7.99-.99,8.99,8.11,11.12,1.02,16.48,6.15,2.39,8.88,17.66,2,20.52Z"/>
  <path class="cls-61" d="M907,788.99c-.73.55-6.29,1.01-4.99-2.48,1.63-4.35,5.47,2.1,4.99,2.48Z"/>
  <path class="cls-33" d="M959,669c1.74,0,2.46.62,3.23,1.96,3.42,5.98,3.92,17.42,1.77,24.04-.68,1.61,0,4.53-3,4,.2-1.93.9-3.67,1-6v-8c-.69-5.14-3.73-9.63-4-12-.23-2.05.15-2.41,1-4Z"/>
  <path class="cls-58" d="M962,693v-8c.57,4.22.16,4.37,0,8Z"/>
  <path class="cls-18" d="M964,668c0,12.13,5.3,14.53,0,27-.79-3.84,1.35-5.89.71-10.22-.83-5.67-3.1-10.79-5.71-15.78,1.54-2.88,1.53-5.25,5-1Z"/>
  <path class="cls-26" d="M918,621c-.47-.57-1.84-1.45-2-2,4.54-5.9,4.4-12.44,11-17,1.53,4.67-6.23,13.77-9,19Z"/>
  <path class="cls-35" d="M931,672c1.7,4,1.97,10.39,3,15-3.93-2.87-2.48,4.65-2.01,6l-2.98-2,2.99,13c-6.17-13.2-10.82-18.86-4-35,.75.76,2.42,1.64,3,3Z"/>
  <path class="cls-5" d="M916,624c-7.36,13.33,2.96,22.29,3,33,0,1.33.01,2.67-.01,3.99-1.94.35-.57-2.75-.99-3-1.74-1.02-2.36,1.54-2.99,2.01-.06-.18-2.13-.89-2.79-2.69-.83-2.26.4-4.96-.38-7.16-.1-.29-3.66-.35-3.81-1.65-.09-.78,9.29-10.7-4.02-7.51,9.79-4.32,7.01-7.97-1.99-10,2.55-3.49,11.83,3.33,10.83-3.3-.78-5.15-8.68-1.75-8.84-5.69,2.31-.05,2.77-.84,3-3,.19-1.7-1.73-3.73-.51-4.99,1.86,4.61,5.67,7.33,9.51,9.99Z"/>
  <path class="cls-37" d="M923,635c3.56,5.11-5.23,5.99-7,2.5-.35-.69,1.75-.79,2-1.5,1.33-2.49,2.82-2.85,5-1Z"/>
  <path class="cls-20" d="M923,635l-5,1c.96-2.8,1.06-6.65,5-1Z"/>
  <path class="cls-16" d="M925,632.99l-5.99-2.48c1.46-3.36,6.4,2.08,5.99,2.48Z"/>
  <path class="cls-70" d="M959.99,632.01v3.99c-1.22-3.23-3.7-.52-3.99-1-.33-.55,2.54-3.64,3.99-2.98Z"/>
  <path class="cls-28" d="M917,755c-1.8-1.34-.84-4.13-1-6,1.56,1.79.92,3.93,1,6Z"/>
</svg>