<?xml version="1.0" encoding="UTF-8"?>
<svg id="Lager_1" data-name="Lager 1" xmlns="http://www.w3.org/2000/svg" viewBox="0 0 1254 1280">
  <defs>
    <style>
      .cls-1 {
        fill: #e2c06f;
      }

      .cls-2 {
        font-family: Baloo2-ExtraBold, 'Baloo 2';
        font-size: 65px;
        font-weight: 700;
      }

      .cls-3 {
        fill: #e2c16f;
      }
    </style>
  </defs>
  <g>
    <path class="cls-1" d="M518,0c4.67.96,8.49,3.68,11.47,8.15,5.51-4.4,14.34-5.55,10.12,4.29-6.93,6.43-8.12,12.84-.07,19.07,6.54,7.65-.75,16.73-6.53,22.26-9.75,2.63-7.2,9.41.76,12.81,5.65-1.63,8.28-.78,9.43,5.25,6.42,2.81,13.58,4.07,21.49,3.78,7.49.25,11.57,2.75,16.06,8.34l14.25,1.64c3.17.49,6.79,1.14,8.48,4.2,3.7,21.48,23.58,23.84,41.77,24.97l2.87,1.7c8.93,11.59,24.69,10.68,25.46-5.32-8.58-17.23-1.28-23.43,15.58-27.35,6.46-6.34,15.55-11.56,19.61-.32,7.39.88,11.62,3.02,11.33,11.17l26.49,2.91c3.63,2.03,6.37,5.35,8.2,9.97,3.84-5.95,19.39-1.38,25.3.9,5.17,4.88,30.82,12.06,35.5,8.52,1.63-5.62,14.72-13.44,19.72-13.46,1.23,0,22.2,4.46,22.7,5.52,1.55,3.21-.24,4.55-3.25,4.88,4.39,7.49,7.65,15.14,9.79,22.94-4.63,14.21,12.75,32.07,22.64,41.16.55,5.05,1.08,10.07,1.59,15.06,11.05,9.92,20.73,24.92,23.8,39.47,4.71,1.83,7.01,4.58,6.89,8.23-2.92,9.83-2.69,17.29,8.9,19.92,8.7,5.45,17.05,28.86,17.75,39.08-.75,10.18-.78,20.74,5.81,28.94,5.4.62,8.38,1.42,9.18,7.29,2.85-.04,4.49.33,6.63,2.3,6.69,6.16,11.37,37.47,12.74,47.27,14.01,6.76,24.92,16.21,32.71,28.35,4.8,1.24,9.44,2.9,13.91,4.96,3.04,5.66,6.26,11.15,9.68,16.47,5.59,1.98,6.59,4.8,6.38,10.5,5.25,8.67.63,11.76-7.86,13.19l.7,1.92c5.79-1.62,9.23-1.37,12.53,4.37,2.72,10.11,4.31,15.65,15.6,11.88,6.72-2.89,13.53-4.6,20.44-5.13,8.91,1.64,13.71,1.79,19.45-5.75,7.22-.15,13.97-1.56,20.26-4.24,7.96,1.67,13.41-.68,20.37-3.86,9-6.02,18.47-11.33,19.64,4.19,5.08,7.75,3.94,13.21-.21,20.85,2.16,9.67-1.36,17.46-6.25,25.76-7.77,11.55-14.26,23.68-19.48,36.39-.54,10.85-5.1,20.3-13.68,28.34-3.99,16.72-11.71,25.69-25.16,35.8-3.15,8-7.78,14.31-13.87,18.94-10.92,6.05-20,12.76-28.68,22.02-15.72,16.76-31.08,36.23-45.1,54.28l-8.39,6.98c-2.59,5.76-6.05,10.96-10.38,15.59-.68,6.89-2.4,13.22-5.16,18.98,7.44.5,10.82,13.05,4.02,16.37-8.62.46-16.98,2.05-14.1,12.5,8.83,7.17,11.6,14.81,4.49,24.27-2.97,10.14,4.52,44.1,15.39,49.75,9.34,3.29,10.26,10.07,5.29,17.96-1.76,19.2-1.04,38.77-.28,58.3-3.33,6.47-8.14,12.27-14.45,17.39-1.29,17.86-17.84,27.72-33.88,31.89-6.19,2.96-11.17,7.68-14.95,14.16l-15.36,14.12c-4.07,11.05-7.42,13.44-19.4,15.22-5.17,3.21-5.31,8.25-.02,11.45,2.97,8.18,4.78,16.87,5.43,26.07,3.64,6.17,3.62,13.2-.06,21.08,2.57,19.88-4.99,28.08-24.4,31.32-16.91,6.59-19.07,16.6-19.37,34.09-.53,7.97-3.64,14.03-7.94,20.31-.1,7.01-.4,11.36-8.4,11.75-7.77,12.76-15.9,25.35-24.37,37.75-4.46,6.79-8.31,10.89-16.38,12.92-9.32,13.65-22.22,27.31-37.47,34.01l-3.52-.53c-4.55,4.68-10.59,6.67-18.12,5.98-10.26,6.28-18.08,6.32-29.5,3.51-8.02,2.01-14.15,2.39-22.24.96l-7.5,4.49c-9.86.57-19.14,2.77-27.83,6.6h-5c-3.77-.82-6.97-3.21-9.6-7.14-12.77-1.89-16.28-5.94-10.52-12.15-7.47-5.98-14.25-21.45.17-22,5.03-7.59-7.45-26.44-13.93-31.56l-2-3.49c-.62-10.99-3.06-21.09-7.31-30.31-12.03-5.01-15.53-18.81-17.9-30.62-.96-9.55-2.93-18.8-5.91-27.74,1.2-10.26,1.35-18.27-3.2-27.97-.4-8.8-.44-17.62-.12-26.44-4.23-6.09-8.62-12.11-13.14-18.06-2.99-9.2-5.67-18.5-8.05-27.9-4.45-4.84-7.63-10.77-9.54-17.79-10.39-8.54-11.82-15.38-11.24-28.7.74-16.98,3.6-32.69,10.56-48.18-.61-8.76,1.2-16.29,5.43-22.59.45-12.18,4.03-20.07,14.89-26.23,6-4.49,4.54-11.67,1.87-17.74-5.01-8.54-8.55-17.33-10.61-26.37,1.45-4.91,3.14-9.71,5.05-14.39-4.3-8.63-7.74-17.54-10.33-26.73-7-6.84-8.13-12.73-3.38-17.67-2.39-3.28-4.12-7.32-5.21-12.14-4.84-4.82-7.83-10.11-8.97-15.89-5.04-.62-7.98-4.79-8.84-12.54-5.97-6.8-11-13.27-15.84-21.05-11.93-19.2-16.47-27.4-6.28-49.88,2.98-12.76,5.93-25.72,6.94-38.85.65-12.75-10.29-39.77-26.53-33.89-6.7-1.54-13.42.3-20.17,5.54-3.24,2.18-16.44-4.77-17.86-7.04-.65-1.05-1.09-2.16-1.3-3.38,1.11-10.72-1.9-15.46-11.63-20.19l-2.27-4.59c-15.97-2.63-32.97-2.49-48.89,1.07-.36,2.59-1.46,4.38-3.31,5.38l-16.32,2.58c-9.41,6.57-19.26,11.04-29.55,13.41-6.3,5.71-8.77,4.62-14.23-1.13-14.23-4.88-33.4-10.3-46.33-.14-8.97-.05-17.11,3-24.41,9.15-5.77,3.4-10.67,2.91-16.06-1.12-5.68.3-9.09-1.74-10.22-6.13-7.77-.04-9.47-2.35-10.93-9.66-6.2-6.61-13.79-11.95-22.79-16.01-5.97-3.83-11.08-8.88-11.98-16.19-5.46-.35-7.61-3.03-9.77-7.77-12.3-8.03-16.56-17.68-12.78-28.94-3.61-2.03-6.02-4.82-8.4-8.11-4.45.42-7.17-.63-8.62-5.13l-5.4-13.83c-7.43-3.56-10.31-6.78-9.58-15.26-1.46-2.1-3.67-3.51-6.63-4.24-17.29-1.01-14.07-18.69-11.85-30.82l-.33-6.18c-15.12-12.79-9.93-22.03,5.96-30.31-1.42-12.85,1.48-24.86,8.18-35.78-2.32-6.24-2.05-11.33.8-15.25-8.58-5.01-14.2-11.66-4.91-19.23,1.03-7.08.56-12.54-6.07-16.4-8.06-9.33-8.73-25.92,3.46-32.04,4.82-7.48,8.57-15.66,11.27-24.54,3.49-8.19,8.94-14.47,17.24-17.68-.44-14.99.69-25.36,14.9-33.19,2.47-2.02,4.42-4.57,5.77-7.46,5.43-14.19,9.29-21.61,26.01-21.76,8.83-2.43,33.3-26.27,31.63-34.62-3.45-6.7-4.74-13.09-3.87-19.15,3.8-6.82,7.43-13.47,2.59-20.7-1.94-6.07,4.32-10.02,9.28-11.99,23.26-4.81,38.04-12.33,47.23-35.06,1.71-18.56,10.9-19.58,20.81-4.8,2.27,2.18,4.91,3.2,8.01,2.67,12.12-4.22,21.3-2.96,32.93.03l3.29-1.76c8.75-10.52,17.36-11.82,30.48-10.57,2.24-8.76,5.55-9.79,13.74-11.2l20.13-1.55c4.27-9.19,22.81-6.84,31.46-5.3,4.92.88,7.91,2.02,12.06,4.25,1.78-2.59,4.62-3.55,8.52-2.88,1.07-5.5,5.31-6.25,9.59-3.44,4.01-1.47,7.58-2.1,11.6-.32,9.25,5.35,15.4,4.67,22.4-3.82l4.63-1.42h6Z"/>
    <path class="cls-1" d="M1254,1021v3c-3.84,2.91-5.77,6.97-10.51,8.98-4.76-6.03,3.3-16.11,10.51-11.98Z"/>
    <path class="cls-3" d="M0,375v-3c9.93-2.17,10.54,9.61,0,3Z"/>
    <path class="cls-1" d="M118.23,162.8c-2.81-4.9,8.17-7.82,11.37-7.74,5.84.13-.11,14.28-6.93,11.82-.28-.1-4.28-3.81-4.43-4.07Z"/>
    <path class="cls-1" d="M162.51,152c1.43-.36,6.43,5.05,6.46,6.47.09,4.23-7.02,12.1-11.07,7.12-2.88-3.54,2.92-10.12,4.61-13.59Z"/>
    <path class="cls-1" d="M506.7,593.16c5.58-.24,2.25,15.76-6.7,11.34-6.11-3.02,1.22-11.1,6.7-11.34Z"/>
    <path class="cls-1" d="M142.75,164.26c9.1,8.58-12.05,14.48-6.62-1.13,1.12-.7,5.53.11,6.62,1.13Z"/>
    <path class="cls-1" d="M9.65,391.22c5.53-.53,6.25,6.87-.08,9.85-6.9,3.25-6.95-9.18.08-9.85Z"/>
    <path class="cls-1" d="M169.71,143.16c6.8-.97-.53,9.19-2.18,8.82-3.89-.87-3.19-8.05,2.18-8.82Z"/>
    <path class="cls-1" d="M398,724.99c-1.89,1.3-8.56.41-7.99-2.47,2.73-2.87,8.97-2.36,7.99,2.47Z"/>
    <path class="cls-3" d="M108,153.01c2.95,2.89-6.07,5.21-7.99,4.99.65-2.17,6.24-6.71,7.99-4.99Z"/>
    <path class="cls-1" d="M1147,948c-3.04,1.7-7.93-4.83-8.86-1.37s.59,7.66-.58,11.42c-.68,2.2-4.38,5.51-5.74,8.26-6.09,12.38-.98,24.37-6.98,35.02-4.73,8.39-6.56,15.88-10.64,23.36-1.47,2.71-4.92,4.58-5.76,7.24-1.07,3.39.1,6.96-.65,10.35-.59,2.63-4.01,5.31-5.26,8.74-1.96,5.35-1.37,11.53-3.22,16.78-1.63,4.66-5.09,7.62-6.61,13.39s-1.31,14.6-4.28,19.72c-2.11,3.65-15.88,12.18-20.16,13.84-12.58,4.85-20.22,4.49-28.78-6.74-6.24-8.18-4.37-19.88-6.91-29.09-2.95-10.74-11.76-13.48-4.77-27.63,2.63-5.32,9.33-9.32,11.63-13.37,1.61-2.84,1.69-6.79,3.07-9.93,1.8-4.1,5.42-6.81,6.26-11.73.9-5.33-1.42-16.63-4.3-21.22-2.42-3.85-5.65-3.95-5.49-10.5.08-3.07,2.72-12.02,4.16-14.92,1.6-3.22,6.21-6.67,6.68-8.32.65-2.28-.45-5.4.68-7.32,1.01-1.72,4.72-1.63,6.46-2.54,5.01-2.64,10.39-5.79,15.82-8.18,3.01-1.32,12.57-3.71,13.75-6.25.89-1.92-.07-5.6,1.42-6.58,1.62-1.07,4.93.13,5.95-.55.76-.51.68-5.83,3.84-6.73,2.35-.67,5.25,1.28,6.33.44,1.29-1.01.73-3.86,1.5-5.55.7-1.54,3.22-2.57,4.02-4.98.69-2.09-.02-4.97,1.34-6.66,1.86-2.32,11.89-2.9,14.59-10.44,1.98-5.52-2.55-4.85-3.3-6.12-2.13-3.61,9.72-16.6,15.27-7.78.69,6.46,6.32,12.89,7.31,18.68,1.11,6.48-1.6,12.24-.67,18.68.59,4.11,3.63,6.29,3.96,10.08.47,5.33-2.29,12.64-1.06,18.5Z"/>
    <path class="cls-1" d="M1211.74,1037.19c2.88-.59,5.62-.01,6.2,3.2-5.24,8.51-15.38-1.32-6.2-3.2Z"/>
    <path class="cls-1" d="M979.01,770c3.06-1.07,6.66,7.45,3.48,7.99-2.93.5-3.99-6.11-3.48-7.99Z"/>
    <path class="cls-1" d="M1038.63,868.08c3.1-.53,4.55,5.2.73,5.85-3.1.53-4.55-5.2-.73-5.85Z"/>
  </g>
  <text class="cls-2" transform="translate(478.97 207.71) rotate(7.25)"><tspan x="0" y="0">_</tspan></text>
  <text class="cls-2" transform="translate(511.81 211.77) rotate(6.1)"><tspan x="0" y="0"> </tspan></text>
  <text class="cls-2" transform="translate(524.58 213.21) rotate(5.23)"><tspan x="0" y="0">_</tspan></text>
  <text class="cls-2" transform="translate(557.41 216.15) rotate(4.47)"><tspan x="0" y="0"> </tspan></text>
  <text class="cls-2" transform="translate(570.21 217.22) rotate(3.72)"><tspan x="0" y="0">_</tspan></text>
  <text class="cls-2" transform="translate(603.08 219.29) rotate(2.88)"><tspan x="0" y="0"> </tspan></text>
  <text class="cls-2" transform="translate(616.03 220.05) rotate(1.75)"><tspan x="0" y="0">_</tspan></text>
  <text class="cls-2" transform="translate(649.66 220.92)"><tspan x="0" y="0"> </tspan></text>
</svg>