<?xml version="1.0" encoding="UTF-8"?>
<svg id="Lager_1" data-name="Lager 1" xmlns="http://www.w3.org/2000/svg" viewBox="0 0 1254 1280">
  <defs>
    <style>
      .cls-1 {
        fill: #4e1c0c;
      }

      .cls-2 {
        fill: #814a24;
      }

      .cls-3 {
        fill: #ab500f;
      }

      .cls-4 {
        fill: #cf6f16;
      }

      .cls-5 {
        fill: #c76817;
      }

      .cls-6 {
        fill: #1d0f04;
      }

      .cls-7 {
        fill: #f4ab2d;
      }

      .cls-8 {
        fill: #c96a18;
      }

      .cls-9 {
        fill: #fad77f;
      }

      .cls-10 {
        fill: #66c9ca;
      }

      .cls-11 {
        fill: #a65014;
      }

      .cls-12 {
        fill: #d38933;
      }

      .cls-13 {
        fill: #fac754;
      }

      .cls-14 {
        fill: #f7e4c3;
      }

      .cls-15 {
        fill: #facb62;
      }

      .cls-16 {
        fill: #6a2e14;
      }

      .cls-17 {
        fill: #e8cd95;
      }

      .cls-18 {
        fill: #f8e5af;
      }

      .cls-19 {
        fill: #ed9620;
      }

      .cls-20 {
        fill: #cb6f19;
      }

      .cls-21 {
        fill: #aa5313;
      }

      .cls-22 {
        fill: #97420e;
      }

      .cls-23 {
        fill: #eb941d;
      }

      .cls-24 {
        fill: #aa520d;
      }

      .cls-25 {
        fill: #fada86;
      }

      .cls-26 {
        fill: #d37515;
      }

      .cls-27 {
        fill: #ebb643;
      }

      .cls-28 {
        fill: #fbe7ac;
      }

      .cls-29 {
        fill: #fbcb57;
      }

      .cls-30 {
        fill: #f1a223;
      }

      .cls-31 {
        fill: #6a1d03;
      }

      .cls-32 {
        fill: #a54d0b;
      }

      .cls-33 {
        fill: #7e3619;
      }

      .cls-34 {
        fill: #8c412e;
      }

      .cls-35 {
        fill: #7e3314;
      }

      .cls-36 {
        fill: #675832;
      }

      .cls-37 {
        fill: #d2b48b;
      }

      .cls-38 {
        fill: #81391a;
      }

      .cls-39 {
        fill: #fceab1;
      }

      .cls-40 {
        fill: #1e1008;
      }

      .cls-41 {
        fill: #f8b42f;
      }

      .cls-42 {
        fill: #c86a17;
      }

      .cls-43 {
        fill: #d48a34;
      }

      .cls-44 {
        fill: #ee9f26;
      }

      .cls-45 {
        fill: #c76917;
      }

      .cls-46 {
        fill: #f9b731;
      }

      .cls-47 {
        fill: #a24a0b;
      }

      .cls-48 {
        fill: #d27a1f;
      }

      .cls-49 {
        fill: #cd8736;
      }

      .cls-50 {
        fill: #632c13;
      }

      .cls-51 {
        fill: #3d0602;
      }

      .cls-52 {
        fill: #d99e53;
      }

      .cls-53 {
        fill: #3b0a05;
      }
    </style>
  </defs>
  <path class="cls-30" d="M374,145l-.5,2c7.84,2.29,13.84-.39,21.01-.99,11.35-.96,28.63,10,34.34,19.64,6.46,10.89,6.6,23.8,8.15,35.85.61,4.8.67,8.51,2.79,13.21.24.54,2.23,3.94,2.4,4.1.25.25,5,2.92,5.47,3.03,3.31.75,5.6-.21,8.35-1.84,5.37-2.18-.33,5.19-4.04,5.74-11.52,1.7-17.01-10.22-18.92-19.68-.59-11.11-2.56-21.68-5.91-31.72l.87-2.34c-2.78-5.66-6.61-9.99-11.5-12.99,1.61,3.73,3.13,7.61,4.56,11.63l-1.06.86c.66.12,1.17.25,1.2.46.55,3.75,1.2,11.91-1.2,14.04-1.64.62-2.47-.21-2.5-2.5-.21,3.94-1.72,6.42-4.53,7.45.81,3.33,2.14,6.54,3.99,9.63-1.59,5.73,0,11.21,4.78,16.43,2.85,6.34,5.91,22.01-1.74,24.99-.1.9-.45.85-1,0-1.15-.24-1.79-.84-2-2-.87-.27-1.87-.84-1.81-1.65,1.05-14.37-.3-16.62-10.46-27.55-2.01-2.76-4.77-8.19-.74-9.8-.74-1.66-.74-3,0-4,.8-.12,1.82-.36,1.82-.74-.06-6.34-4.06-19.26-1.17-5.43l-1.65,2.17c-5.82-3.49-6.42-14.22-5.23-21.08-4.73,12.28-21.34,19.29-32.96,12.14-3.2-4.42-4.42-2.98-5.66,2.16-1.69,2.8-3.46-.9-1.15-2.22-.49-.78-1.16-1.11-2-1,1.19.95,1.69,2.51,0,3l-1,2c2.8.45,2.66,2.08,0,3-.18,4.35-4.03,6.2-3,1-4.88-5.67-5.24-12.8-1.1-21.37.03-4.97,1.48-7.23,4.97-2.39.13.18.42-3.7-.15-4.41-4.24-8.18-3.82-11.53,1.26-10.06-3.71-6.95,3.87-7.23,6.02-.77l2.33-1.09c6.31,2.44,17.48,5.46,5.03-1.58l-.36-2.33c-6.81-.77-1.47-5.06,4-3Z"/>
  <path class="cls-35" d="M321,118c1.54,2.64,2.98,4.51,4.89,6.91.38.48-.27,1.45-.89,2.09,1.18,1.35,3.51,2.57,6.99,3.63v1.37c4.56,1.2,8.21,3.82,2.8,7.14l1,6.28c-1.77,1.13-2.43,2.51-2,4.14-1.88,1.28-3.55,2.86-5.03,4.73.5,3.8.08,10.25-4.66,9.94-.01,4.59-1.94,8.88-3.95,12.91-.05.11.26-1.63,1.84-.14.61-1.43,1.38-1.84,2.52-.97,2.24-4.23,6.58-7.01,10.82-7.64,5.88-6.29,9.52-13.06,10.92-20.32,1.81-.97,2.67-.33,3.95.93,2.42,2.37,1.25,22.58-5.37,22.61-1.19,3.99-3.48,10.55-7.32,5.3l-4.5,8.33c-1.36,1.53-2.51,1.51-4.24.31-3.75,3.85-5.43,7.12-6.78,12.45,2.48,3.66-2.8,4.2-4.05.51-.2,8.37-3.82,11.74-9.44,4-1.78,1.71-3.7.74-5.76-2.89l-1.91-.05c-2.83-4.85-5.06-5.8-6.69-2.85l-1.15-.71c.92-6.01-6.03-10.49-7-16l-3,2c.32-2.8-.46-6.35,0-9-3.13-1.95.64-6.36,3.49-5.31.82.3,3.59,4.24,3.14,5.11l1.82.29c-.13,1.62,1.06,2.59,3.54,2.91,3.02-2.09,4.12-1.36,4,2.29,4.84,1.19,7.33,4.89,9.92,8.81l1.4-5.15c-1.89.11-3.53-1.17-3.32-3.05-4.15-.85-15.35-8.84-10-12.9-1.33-1.41-.77-1.92,1-1l1,1c.47-2.78,2.03-2.62,3,0,3.45.39,5.81-.78,7.08-3.5l1.44-.33c-1.02-4.49,3.2-9.21,7.48-9.17l-.52-2.26c8.17-7.05,8.22-16.4,2.45-24.25-.75-2.92-2.06-5.41-3.93-7.49-4.64-2.65,6.64-6.89,5-1Z"/>
  <path class="cls-1" d="M337,116c-.85-5.76,10.28,2.11,9.52,5.22,2.6,3.21,5.01,6.59,7.23,10.14,2.76-1.6,5.23-.47,4.26,2.65,1.14.65,2.14,1.32,3,2,3.15,5,6.79,6.91,12.47,8.04,1.01.2,2.87-.28.53.96-1.81,1.29-3.87,1.07-6,1l2,2c3.31,2.89-2.28,3.27-5.38,2.9.11.9-.43,1.61-1.62,2.1-1.2-.62-5.4-3.54-6-3,1.93,2.58,3.3,5.61,3,9l-6-5,3.82,9.68c.5,2.74.35,4.5-.66,7.01-.56,1.4.11,1.6-2.16,1.31l-2-6c1.06,7.5-4.02,11.86-3,19.5.28,2.12,1.89,4.28,2,6.5,1.59,4.3-3.58,2.17-5-1.12-.63,2.63-1.96,3.67-4,3.12-1.34.75-2.09.24-2.96-.77-.64,1.34-5,8.36-5.55,8.44-1.67.23-2.77.09-4.01-1.21-4.69,7.43-10.31,7.45-6.8-2.15l-1.69-.32-1-10,2.5,3,5.5-10h2s-1,4-1,4l1.5-.99,9-17-1,11c3.69-4.39,4.1-10.65,5.5-16,1.61-.31,1.16,2.62,1.04,3.54-.2,1.54-1.57,3.53-.54,4.46,3.82-5.01,4.04-11.45,3.53-17.53-.14-1.62-.06-2.99-2.03-3.47.34,10.23-8.67,15.15-11.49,24.01l-.51-3.01c-.54-.58-4.24,1.93-4.97,2.53-2.6,2.14-4.42,5.11-5.03,8.47l-1-3.01-2-.99c-1.71-1.62-.35-4.51,2-4,.94-2.48,3.35-7.14,6.08-6.12,3.75-3.25,7.79-8.09,9.22-12.44,5.41-.5,5.86-11.06,4.13-15.75-.99-2.68-5.15-7.06-7.69-7.41-.54-.74-.38-1.5.27-2.27h-1c-1.54-1.26-1.54-1.93,0-2-.71-.77-.34-2.14,1.12-4.1-.14-2.93.15-5.23.88-6.9Z"/>
  <path class="cls-37" d="M417,241l1,1c2.95,1.7.38,4.4-2,2-2.65,5.68-.74,7.48,4.53,5.5,3.08,1.67,5.57.17,7.47-4.5l32.49,3.01,4.51,1.99c-4.4.04-8.01,1.38-12.54,1.05-2.97-.22-7.08-1.76-9.96-2.04-2.13-.2-4.36.12-6.5,0-.34.3,1.2,1.51.98,2.43-.39,1.65-8.54,3.26-10.49,3.56-15.38,2.33-28.93-2.18-44.04-1.04-7.21.54-15.6,3.2-22.96,4.04s-18.89,1.84-25.99,1c-1.12-.13-3.9-.92-4.5-2,1.06-1.99,3.37-2.97,4,0,1.21-.71,1.7-.25,1,1,.8-.57,1.64-1.03,2,0,1.62-.46,3.18-1.07,4.66-1.81,4.61,1.75,6.09-1.59,6.28-5.58l1.06-.6c-.89-.19-.85-.52,0-1,1.48-3.19,8.64-3.92,12.37-4.28,5.09-1.52,8.3-1.09,9.63,1.28.91-.92,1.91-.26,3,2,1.3-1.33,1.49-.78,1,1,1.43-1.8,3.06-2.29,4,0l.67-1.2c3.75.41,8.19.03,9.84-4.41l2.49-.39c5.06-1.04,10.44-1.35,16.14-.93,5.02-3.48,8.3-3.84,9.86-1.07Z"/>
  <path class="cls-42" d="M428,172c-.93,2.18-2.14,1.44-3.52-.15-.17,6.14-.24,12.47-.2,18.97-1.42,8.25-3.17,19.62,1.72,22.18,1.07,5.26,2.49,7.89,5.06,12.52-2.01,6.39-1.79,13.11-3.06,19.48-.61,3.09-.69,6.06-4.68,6.83-.67.13-1.34-.46-1.8-.41-3.77.37-3.55.21-7.03-.41-2.07-.37-5.57.44-6.45-2.55-.93-3.13,2.47-3.87,2.96-1.11l1.49.64c1.42-1.16,2.24-2.7,3.5-4,1.4.92,3.07,1.26,5,1q1.74.85,0,0c-.38-1.26-.72-2.26-1-3-.25-2,1.75-2.59,2.03-4.48,1.15-8.01.98-13.08-2.5-20.55-1.53-3.28-5.82-7.5-5.56-10.45.09-1.01.88-1.94,1.04-3.03.7-4.9-2.39-5.7-3.54-9.45-.64-2.07-.5-3.92-.45-6.05l3,1c1.87-5.92,2.77-10.9,1-17,2.79,1.23,2.41,5.36,3.82,7.68l1.18,6.32v-14.5c0-3.55-6.25-13.14-8.48-16.52-.52-.78-2.77-1.87-1.02-2.98,7.24,5.3,15.31,10.65,17.5,20Z"/>
  <path class="cls-32" d="M342,99l-3,3c1.79-.12,3.3-.09,5.05.45s10.42,5.85,10.95,7.05c.25.57.17,1.7-.5,1.5-3.09-.97-6.08-2.58-9.5-2l6.31,2.19,4.69,3.31c.29,2.45-.53,1.31-2.01,1.01-1.94-.39-3.6-.23-4.99-.52q-1.47-.75,0,0c.97.49,3.59,2.24,4.52,2.98,3.02,2.4,4.68,5.94,7.48,8.52v1.48s-2,.51-2,.51l6,8c-.74,1.55-2.12-.27-3-.5-1.46-.51-2.79-1.17-4-2-1.26-.59-1.82-1.64-3-2l.5,4c-4.02-3.2-6.15-7.85-9.03-11.97-1.03-1.47-2.92-2.02-2.47-4.03l2-1c-3.65.92-4.31-1.4-6.64-2.88s-2.22-.14-2.36-.12l-1.21,1.01c-3.57-3.68-8.64-1.15-12.29,1.47l-2.5-.48c-.73-1.9-4.05-.72-6-1l1,2c-1.14.82-3.16.6-3-1-1.15-1.54-.36-3.25,2.39-5.11-1.48-2.66,2.11-7.22,4.61-7.89,2.97-8.11,14.56-8.77,22-6Z"/>
  <path class="cls-41" d="M344,241c.86.34.86.67,0,1l1,2c2.16.59,2.06,3.33,0,4l1,1c.91.33.91.66,0,1,2.28,4.81-1.06,7.48-10,8-.65-.03-1.46.12-2,0-.78-1.25-.32-1.75,1-1,.3-2.75,1.55-5.54,3.75-8.39l-4.75,5.39c.63,1.25.63,3-1,3h-4c-.33,0-.67,0-1,0-.87-.28-.86-.62,0-1l1.05-3.22c1.91-1.99,2.22-4.25.95-6.78-1.44-2.17-1.04-6.02,2-6,1.39-7.27,2.3-14.63,2.74-22.06l1.26-.94c-.88-.25-.86-.59,0-1-.07-1.17-.4-2.17-1-3-2.94,3.54-4.01-4.57,0-5l2.09-.08,10.46-13.99c.76-.76,1.75-1.16,2.81-.77,6,2.19-3.93,38.36-6.45,43.71l.09,4.13Z"/>
  <path class="cls-51" d="M343,194l1.21,1.9c-1.41,3.39-6.01,10.92-9.21,12.1-.33.98-.17,3.08-.89,4.37.11.51.88.57.89.63.6.81.94,1.81,1,3,.06.31-.04.66,0,1-.9,4.07-2.93,1.33-3-2-.58,3.59-1.88,4.31-3.88,2.16.34,9.89-7.63,1.65-10.21-3.02-2.67.24-5.31-1.48-7.91-5.15-2.65-1.78-6.66-3.53-7-7h-2s.88,1.62.88,1.62c.55,2.69-1.38.59-1.91-.1-1.82-2.41-4.13-5.44-3.98-8.52l-3.5,4c-3.16.3-.64-2.07-.5-3,2.55-.71,1.85-2.63,2.01-4.49.09-1.06-.56-3.11.49-3.51l6,11-.5-8,5.5,12-.51-6.49,2.01-.51c-1.05,2.26,5.59,10.54,7,9l2-14c1.35-.24,1.4,1.68,1.76,2.73.59,1.71,1.39,3.39,1.24,5.26,1.92.59,1.78-.84,2-1,4.1-3.02,2.29-7.23,6-10l-4,17,8.5-10v6c4-5.39,8.41-10.85,7.5-18,4.1,1.97.45,7.76,3,11Z"/>
  <path class="cls-23" d="M291,105c5.52-.59,14.36,12.69,3.29,8.06-3.76,1.87-3.68,4.23.24,7.1-4.7,7.04-8.66,14.59-11.88,22.65,1.34.49,2.98.89,4.91,1.23.07,2.71,1.22,4.7,3.43,5.96,2.57,1.07,2.67,4.04,1,6l.98,1.91c-1.62,1-2.77,3.5-1.98,4.09,2.69-1.93,4.57,4.78,2.28,7.43,4.03,1.31,8.24,7.11,1.72,6.57l.5,4-3.5-4,1,4.5-2,.5-2-10-2,6-1-8c-1.39.29-2.8,2.85-3,4l-5,1c5.86-6.81-3.39-14.4-2-22l-1,6c-1.12.35-1.73-2.04-1.83-2.67-.79-5.25-.16-10.02,3.83-13.83l-4,1.5c-.32-2.24,2.13-3.38,3.56-4.99l-.54-2.95c2.94-.19,3.75-2.51,3.39-5.08,1.21-.88,2.22-1.05,3.58-1.98l-.06-2.45c8.28-4.85-.59-7.43-.06-1.74l-1.88,1.19s-.64-.09-.83-.67c-.91-2.82-1.02-8.24,1.82-9.84,1.34-.75,3.59-.37,4-2.49l-5-2,7-1-4-2,7-2Z"/>
  <path class="cls-3" d="M321,94v1l.36,2.12c-3.6,3.88-7.23,9.25-9.36,13.88,2.08,2.65-.59,5.26-3.61,4.24-.06,2.76-.86,5.01-2.39,6.76,3.57,4.71-4.72,1.55-7.11-1.26-1.28-.16-13.43,18.71-6.86,22.75l-1.03,3.51c2.49.85,2.58,2.1,0,3l-6,1,2-2.5-2-.5,2-3c-2.22-.33-3.07,1.86-4.5,3-1.58,1.26-1.04.98-2.49-.5l2-3.01-1.99-.97,4.52-8.53c.47-.89-.13-5.33,4.03-6.99-1.47-3.85,2.66-4.87,4.44-7.51.24-.35-2.76-1.08-3.53-2.5-.33-.61.37-1.38.04-2-.54-.99-2.03-1.18-1.51-3l3,1v-2s-2-1-2-1l5,1-1.5-3,6.5,4.5-8-8.5c-.65-.08-1.4.12-2,0-4.8-2.56-1.49-2.84,2.27-2.77,3.34.06,9.37,3.01,11.3,6,.54-3.65,2.25-5.76,5.14-6.34,2.24-4.22,8.85-9.56,13.29-7.89Z"/>
  <path class="cls-11" d="M428,172c6.06,8.57,4.76,24.17,7.01,34.49,2.52,11.58,10.86,26.45,22.99,14.01l-2-.5c-.16-.14.14-.71,0-1-1.67-5.83,8.43-2.95,3,1-.39.39-1.22,3.34-3.48,5.02-7.31,5.46-16.45-.95-20.39-7.66-4.86-8.27-4.55-17.88-6.14-26.86-.8-4.51-2.47-8.93-3-13.5-1.85-.2-.96,2.2-.81,3.31.24,1.75.7,2.95.81,5.19.51,9.95-2.11,17.1,0,27.5-2.92,1.89-1.41.71-2.45-1.04-5.4-9.11-2.86-7.58-1.56-16.47,1.13-7.74,1.5-19.2-.14-26.84-.45-2.07-3.01-4.24-2.84-6.65,2.94,1.9,4.92,5.7,6.97,8.54.61.85,1.92,1.32,2.02,1.46Z"/>
  <path class="cls-24" d="M311,209c.17.11,1.13-.06,1.99.47,1.48.92,2.41,3.52,4.51,3.53,1.04-.12-.35-1.56-.52-2.49-.35-1.93.5-1.63,2.01-1.51.87,4.39,4.37,7.99,7.51,11,2.84.19.8-.62.66-1.66-.32-2.45-.13-4.89-.16-7.34l4.5,6,1.5-2,1.47,3.03c-.12,7.44-.94,14.76-2.47,21.97-.63,1.67-.32,3.85-2,6,1.34,2.83-.83,4.27-3,2-.44-.69-.77-1.69-1-3-1.35.79-1.8.31-1-1-3.47-1.03-3.99-8.47-.3-9.41.55-.98-8.4-17.73-10.7-19.59l-3-6Z"/>
  <path class="cls-33" d="M456,219c-.76-1.62-2.38-2.36-2.85-3.65-.75-2.08-2.49-9.97-2.2-11.82l1.88-.64c.53-5.32,4.91-9.33,10.16-9.89.63,1.87-1.62,2.41-1.68,3.48-.1,1.63-.48,4.71-.34,6.01.69,6.41,7.91,10.77-.01,17.02-.74.58-1.89.42-1.96.49v-3s-3,2-3,2Z"/>
  <path class="cls-44" d="M289,105c-2.38-.46-3.63-1.75-6,0-.17-1.05.03-1.96.97-2.53.35-.21,5.87-1.34,6.35-1.3,1.45.12,6.83,2.56,7.68,1.83l-2-4,5,3c-.14-1.41.27-4.96,1.16-5.85.32-.32,1.57-.34,2.37-1.1,1.04-.99,3.06-3.61,3.98-4.05,3.09-1.45-.43,4.87.5,6,4.61-3.54,8.93-5.85,15-5-.27,1.98-1.97,1.61-3,2-6.55,2.44-11.32,5.62-13,13l-1-3c-1.35-1.58-3.41,8.76-3,10l-2.98-4.52c-2.87-3.08-6.13-6.14-10.49-6.51-2.49-.21-3.26-.4-1.53,2.03Z"/>
  <path class="cls-7" d="M314,215c.35-1.99,2.66,1.1,3,1.5,2.97,3.52,6.63,10.02,8.52,14.48.5,1.17,2.74,7.7,2.48,8.02l-4-3,1,8c-.86,3.2-3.48,2.07-4.49-.11-3.8,2.22-4.97,1.92-3.51-.89,1.08-.61,1.86-3.37,1.99-4.5.65-5.28-2.92-18.14-4.99-23.5Z"/>
  <path class="cls-19" d="M342,99c-7.95-.61-15.81.81-22,6-2.59,2.94-5.25,4.94-8,6-2.68-1.79,2.02-4.98,2.53-5.97.64-1.24.35-2.63.97-4.03.69-1.54,4.01-5.36,5.5-6,.38-.16,5.01-1.08,5.47-1.04,2.76.21,6.82,2.1,9.84,2.24l5.69,2.81Z"/>
  <path class="cls-17" d="M330,246l2.06.97,3.94-.47c-3.15,1.92-4.45,8.61-8,9.5q-1.52-2.19,0,0v1c-3.34,0-7.6-1-9.5-1h-20c-.22,0-1.84-1.72-1.5-2,2.48.65,10.59-2.68,12-2l1.81-.23c1.89,2.23,3.48,2.63,4.77,1.2,5.4,1.51,9.21-.15,11.42-4.97.16-.25,1.94-.64,3-2Z"/>
  <path class="cls-9" d="M317,243c.06,0,.17.79.63.89.86.18,1.88-.87,2.88-.9,1.26-.03,2.86,1.51,4.49,1.01.9-.06.81.77,1,1,.97,4.91-2.35,11.35-7.95,7.83-3.58,2.14-7.15,1.45-7.76-3.12l-1.29-.71c.5-3.53,4.32-6.56,8-6Z"/>
  <path class="cls-49" d="M309,249l5.5-4-2.56,4.49c.78,1.68.49,4.21,3.06,3.51-.31-1.73,4.11-9.68,6-8-1.08,2.27-3.76,2.95-3,6l2.92.12.58,1.88c2.33-2.15,4.83-4.46,4.5-8,.73.89,1.46,1.09,1,3-.79,1.22-1.91,5.37-2.02,6.98-4.98-.18-10.46.88-15.02-1.48-.76-.39-.88-1.46-.96-1.5.09-.97-.13-2.06,0-3Z"/>
  <path class="cls-21" d="M281,125c-1.15-8.39,4.28-5.99,10-5,.63,2.47-.61,1.6-1.32,2.16-2.36,1.87-4.2,4.14-6.68,5.84-2.05-.26-1.59-2.01-2-3Z"/>
  <path class="cls-10" d="M362,136c-.33-.08-.72.1-1,0-1.13-.39-2.67.05-3-2,.76.36,2.5.25,3.41,1.12l.59.88Z"/>
  <path class="cls-5" d="M403,193c.89.25.86.58,0,1,.9,2.94-.63,2.62-4.58-.98,1.75-1.89-1.81-6.12-2.42-6.02l-.81,2.56c-7.08,3.81-19.62,9.76-27.19,7.44-1.26,1.95-2.74,1.95-4,0-2.34.06-3.69-2.36-4.03-7.26l-.97.26c-.43,4.55-.1,9.22,1,14,3.88,3.12,1.09,6.4-3,5-1.14,1.76-1.92,5.45-2,8,.92.28.91.61,0,1l-1,2c.86.26.84.6,0,1l-1,2c2.57,1.64,2.03,4.38-1,5l-1,2c.86.27.85.6,0,1l-1,2c2.63.16,2.49,1.11,0,2l-1,2c2.67.31,2.39.85,0,2l-1,4c2.77,1.36,2.85,4.68,0,6,0,.33.01.67,0,1-.32,2.66-1.24,2.54-2,0,.03-.28.06-.74,0-1l-1-1c-.16-1.27.18-2.75,0-4l-1-2c-.11-.29.11-.71,0-1l-.42-3.35c4.98-13.97,8.8-28.26,8.87-43.35,1.64-.57,2.55-1.64,2.55-3.3.15-.93-.12-2.04,0-3l1-2c.18-.88-.15-2.06,0-3,.42-.54,1.08-.21,2,1,.31.77-.76,2.33,1,2l2-9,5.02,5.48c8.65,5.73,22.11.84,27.85-7.12l7.13-15.36-1.99,19.5c1.75,4.34.15,9.88,3.99,13.5Z"/>
  <path class="cls-4" d="M352,192c.36-.15.72.23.87.64l1.13,1.36,1-3c-2.17,13.61-4.57,30-8.2,43.3-.7,2.57-2.26,4.28-2.8,6.7-.32-.88-2.06-2.69-1.86-4.33,2.25-9.03,7.99-20.1,8.85-29.18.45-4.76-1.55-8.76-.99-13.49l-13.5,18-1.5-4c1.19-3.56,5.88-10.24,8-14,1.34-2.37,2.83-3.35,2-7,3.08-.06,3.48,3.8,6.04,5.55.76.52.91-.53.96-.55Z"/>
  <path class="cls-43" d="M396,187s.06-.97.48-.93l5.33,8.63,1.19-.7c2.84-1.36,3.56,1.37,1,3,.14,1.31-.09,2.68,0,4-.04-.16-1.28-2.65-1.5-3.01-.7-1.14-1.79-1.37-2.5-1.99-8.25.63-15.78,3.28-22.56,8.4-.63.48-1.66.05-2.44-.4-1.25,1.42-4.97,3.57-7.5,3.01l-1.5.99c-5.06-.83-3.31-7.52-2-11,1.33,0,2.67.01,4,0,4.11,1.2,5.75,1.08,9.63-.11,4.51-1.39,10.86-4.14,15.15-6.24,1.92.14,2.99-1.08,3.22-3.65Z"/>
  <path class="cls-13" d="M403,193c-.26-1.84-.89-4.15-.99-5.51-.53-6.69.67-13.33.99-20,.08-1.63.86-2.84,2-1.49.16,3.13-.24,6.37,0,9.49.48,6.12,1.76,15.94,2.99,22.01.71,3.5,3,6.8,3,10.5l-7-11c-.22-2.12-.97-2.83-1-3-.05-.32.05-.67,0-1Z"/>
  <path class="cls-15" d="M409,157c-6.21-2.75-12.86-4.09-19.48-5.01-.93-.13-1.63-.75-2.24-.85-2.3-.39-4.82,2.74-4.28-1.14,5.11.29,12.67-3.87,17.36-2.85,2.48.54,10.15,8.21,8.64,9.85Z"/>
  <path class="cls-45" d="M370,148c.9-.24,10.2,6.98,11.95,7.55s3.26.56,5.05.46c-1.21,3.4-2.7,1.12-4.51,1.01-7.84-.5-12.34-.34-19.49-4.01l-1-5c2.76.7,4.35,1.3,7.34.83.6-.09.61-.82.66-.83Z"/>
  <path class="cls-39" d="M420,242c.66.05,1.34-.03,2,0,.24,1.25-.38,1.95-1,3s-2.32,2-2.03,3.99l-2.97.02v-5c.47-.49,1.97-.64,2-2h1c.33.04.67-.03,1,0Z"/>
  <path class="cls-42" d="M419,242c-.35-.04-.73.08-1,0-.59-.18-1.07-.06-1-1,0-.33-.01-.67,0-1l2,2Z"/>
  <path class="cls-4" d="M355,188c.28-2.24.97-1.88,1-2l-.09,1.41-.91.59Z"/>
  <path class="cls-4" d="M358,184l-2-1c.07-.44-.11-.81.5-1,.74.58,1.15,1.12,1.5,2Z"/>
  <path class="cls-42" d="M332,132c4.73-4.28,10.88,4.51,12.06,9.37.75,3.05,1.01,11.5-3.48,9.31-.3,3.22-1.49,8.5-5.08,8.74-4.3,4.13-8.13,8.66-11.5,13.58-.72,1.53-1.31,2.19-2,4-.02.05-.76.09-.87.62-.31,1.45-.1,2.93-.13,4.38-2.84.89-2.3-2.65-1.99-4.5.47-2.87,2.39-6.06,3-9,.25-1.24-.25-2.75,0-4,.71-3.45,2.05-6.91,2-10.5,1.06-.37,1.81,2.15,1.89,2.68.33,2.04-2.02,4.42-.39,6.32,3.52-3.82.45-9.61.5-14l3,4v-6s3,3,3,3l-1-7,3,3-2-11c6.8,4.16,4.1-.29,0-3Z"/>
  <path class="cls-20" d="M313,118c.51.09,2.24.73,3,1,.48.17,1.46-.18,2.02.45,2.08,6.04,7.19,10.55,7.97,17.06.89,7.41-3.39,11.57-7.99,16.49l-2.62-.5c-1.84-5.81-4.3-8.31-7.38-7.5-.45,1.22-1.45,1.22-3,0-.19.89-.52.86-1,0-2.77-1.56-1.79-7.03,1.59-7.87.35-6.26,4.61-10.54,5.41-2.13.28-.87.62-.86,1,0l1.93,1.49c-.82,5.5,5.15-.42,4.07-3.49-.47-.88-.32-2.17,0-3-.08-.75-.67-1.86-1.75-3.32.57-4.31-1.73-5.53-6.88-3.67l-1.37-2.02c-1.44-1.55-.86-2.12,1-1l2-2c.34-2.67,1.17-2.53,2,0Z"/>
  <path class="cls-26" d="M294,160c.87.28.86.62,0,1-.49.4-.49.73,0,1,2.56-.28,4.33,1.62,3,4,.34.74.18,3.91,1.19,4.86.29.28,1.24-.02,1.59.31,1.43,1.3.97,4.89,5.23,3.27l.99,3.56,3-4v7s3.14-6.37,3.14-6.37c2.01-.84,3.65-6.31,3.95-6.56.49-.41,2.27.29,2.81-.17.14-.12,1.85-5.36,2.1-1.42-1.26,2.63-1.51,5.27-3.12,7.88s-4.08,4.63-5.39,7.61c-1.46,3.31-1.74,6.43-1.48,10.02-3.1-1.99-5.15-6.17-7.52-8.97-1.62-1.92-3.91-1.61-3.48-4.03l-1,3c-3.05-.33-1.54-5.53-2.09-5.94l-1.91-.06,2-2-4.5-2.97-2.5,1.97c-1.38-1.64,5.91-8.54,1-11-1.88-2.16,1.58-5.16,3-2Z"/>
  <path class="cls-47" d="M336,129c1.4,2.53,3.41,2.28,5.52,3.98,3.34,2.69,4.9,6.32,4.47,10.51-.21,2.04-.77,5.78-1.17,7.82-.52,2.6-2.46,5.04-2.82,7.68l-2-4c.17,4.25-5.65,11.54-9,13.57-1.31.79-2.2-.58-3.01-.12l-3.99,4.56c.17-.36-.24-1.51.14-2.32,1.84-3.93,6.72-7.47,5.86-12.68l1,4c3.4-1.92,3.67-7.43,4-11,1.83-.12.93,3.22,1,4.51.08,1.64.88,2.85,2,1.49l1-11,4,4c.14-3.72-.46-8.85-2.51-11.98-1.4-2.14-2.98-1.46-1.48-5.02l-7-1c-1.4-.93-6.66-2.83-6.93-3.1-.37-.39.1-1.46-.07-1.9,1.64-1.41,4.32-.8,8.06,1.82l2.94.18Z"/>
  <path class="cls-52" d="M318,153c-1.83,1.96-3.32,4.76-5.99,5.03-.27.24,2.12,4.38-1,6.53-.57.4-1.39-.46-2.01-.1-.86.5-1.56,2.2-2.48,2.26s-3.47-.59-4.52-.73l1.06-2.41c4.11-1.46,3.72-3.51-1.17-6.16l.12-1.43c-1.07-.78-.74-1.11,1-1,.12-1.99,1.83-.15,1.7-.14-5.02.32-.77-6.02,2.3-6.86-.93-.27-.91-.61,0-1-1.2-1.24-.51-1.67,1-2,.16-.9-.11-2.03,0-3,6.05-.09,7.24,6.9,10,11Z"/>
  <path class="cls-48" d="M337,116c1.24,3.29,1.18,5.09-.18,8.32-.45,1.07-1.5,1.62-1.82,2.68-.75.32-.75.99,0,2h1c-2.66,2.33-7.71-1.54-11-2-1.32-3.34-6.45-5.96-4-9,3.5-3.27,7.62-4.95,12.4-4.91,1.19.36,2.46,3.03,3.6,2.91Z"/>
  <path class="cls-14" d="M302,156c5.57,2.76,7,2.29,4.96,9-1.95-1.29-2.09-.28-3.46,1h-1.5c-.96-.12-2.09.16-3,0l-1-1-1,1c-.11-.24-2.31-1.7-3-4-.57-.29-.55-.62,0-1v-1c-3.61-1.98,6.44-5.8,8-4Z"/>
  <path class="cls-26" d="M299,166c-.65-.11-1.1-.24-1-1l1,1Z"/>
  <path class="cls-47" d="M335,129c-3.08-1.58-5.9-3.77-8.68-5.82-.96-.71-2.63-.93-2.33-2.67l5.95-3.05,3.52-.41c2.4.68,2.48,8.1-.89,7.98l2.43,1.98c-.15.53.1,1.37,0,2Z"/>
  <path class="cls-8" d="M376,206c5.67-6.52,12.19,3.47,14.84,8.82.06-3.81,2.04-10.45,6.16-7.82-.35,2.79-.31,8.66,0,11.49.21,1.84,1.97,5.3,1.84,6.84-.17,2.03-6.4,15.11-7.85,17.67-1.13,2-2.43,4.96-4.65,5.85-.56.22-4.26,1.14-4.88,1.2-1.79.16-2.62-.93-3.47-1.04-1.4-.56-2.66-.68-4,0l-1-1c-1.34-1.12-2.62-2.72-1-4,.14-.21-.11-1.22.48-1.97s2.43-2.74,3.12-2.94c1.95-.58,3.26.74,3.93.71,1.89-.09,5.22-8.34,5.46-10.29.71-5.56-5.36-12.04-7.54-17.46-.69-1.72-.83-4.16-1.46-6.04Z"/>
  <path class="cls-4" d="M348,250c-.05,1.8.16,3.61-.09,5.41-.91,3.19-9.04,2.72-11.91,2.59.95-2.9,4.22.07,4.01-4l3.99,2c.15-2.31,1.74-3.58,2-6h2Z"/>
  <path class="cls-16" d="M374,249l1.5-3h1.5s1,3,1,3c-1.27-.17-2.7.11-4,0Z"/>
  <path class="cls-16" d="M373,248c-1.1,0-2.83-1.95-3-2-.02-1.31,1.8-1.7,2-2l1,4Z"/>
  <path class="cls-50" d="M335,257c-.38.26-1.05.2-1,1-.67-.15-1.11-.07-1-1l1-3c3.24-1.51,2.87.57,1,3Z"/>
  <path class="cls-28" d="M421,245c.08-.18,2.78-2.2,3.5-2,3.01.84,1.02,6.02-1.99,6-1.28-.8-2.08-2.74-1.5-4Z"/>
  <path class="cls-31" d="M320,105l-4,7,6-2.5-9,8.5c-.61-.1-1.35.07-2,0l-2,2c-.41.27-.89.38-1,1,.44,2.58-.15,2.85-2,1v-6.5s5.5-10.5,5.5-10.5l-2.5,9c1.57-.27,2.19-2.01,3-3,2.63-3.23,5.51-6.11,8.5-9l-.5,3Z"/>
  <path class="cls-12" d="M342,104l-9.9,2.1c-.23,3.37-3.1,2.68-5.47,4.03-1.54.88-2.26,2.86-4.13,2.87l5.5-6-7,.5c.82-1.08,5.8-3.5,6.5-3.5h14.5Z"/>
  <path class="cls-25" d="M335,257c.75-1.88-.86-2.72-1-3-.24-.49-.6-.92-.67-1.47.07-2.18,6.61-9.3,7.67-5.02.44,1.78-4.08,8.2-6,9.49Z"/>
  <path class="cls-4" d="M345,244l-.88-.59-.12-1.41c.05.12.69-.15,1,2Z"/>
  <path class="cls-4" d="M346,249l-1-1c0,.07.68-.29,1,1Z"/>
  <path class="cls-18" d="M294,145c1.91,2.56,4.58,4.23,8,5-.32-2.34,3.59-4.57,5-2,.24.34,1.49.18,1,2l-2.94.06-1.06,3.93c1.53-.05,2.72.86,3.99,1.54,1.45.78,2.51-.16,2.01,2.46-.28.26-5.81-2.58-7-3-3.54.37-6.98,1.57-10.33,3.58l-.67-2.58c-1.31-1.83-1.04-3.86-1-6,.02-.94-.18-2.24,0-3-1.68-8.33,8.31-5.98,3-2Z"/>
  <path class="cls-22" d="M303,155l-1,1c-1.2-.31-4.9.84-6.01,1.49s-1.58,2.18-1.99,2.51c-.53.42-1.35-.46-3,2-1.26,1.89-1.62,5.09-4,6l3-6.5-2-1,4-4.5c2.95,2.15,5.2.07,7.63-1.92,1.05.35,2.42.59,3.37.92Z"/>
  <path class="cls-46" d="M306,122c.42-.29,1.57-.9,2-1,.62-.15,1.6.14,2.45,0,2.68-.47,3.59-1.87,6.58.48,1.67,1.31.48,3.62,1.44,5.56.5,1,2.77,2.31,3.53,3.47-.83,1.26-2.51-.37-4-.5-1.34.69-3.22,1.4-5.64,2.13.54,2.09.09,3.05-1.36,2.87l-.93-.56-1.07-3.44-2,9-3-1c1.13,1.69.52,3.98,0,6-5.26,3.6-8.6,3.6-10,0-.19-.21.12-1.42,0-2h-.5c-.53.3-2.42,3.66-2.5,4-.28-2.64-2.35-5.08-2.82-7.67-.92-5.02,2.67-9.45,5.02-13.63,1.57-2.79,1.9-5.58,5.3-7.7l6.95,4.97c.55-.14.47-.92.55-.98Z"/>
  <path class="cls-2" d="M328,256c-.54.14-1.35-.07-2,0v-2.5s2-1.5,2-1.5v4Z"/>
  <path class="cls-38" d="M400,196c.1,3.55-2.58,7.65-3,11-4.22,2.11-4.28,6.4-4.02,10.52.14,2.2.73,3.26,1.02,4.98.16.94.66,3.79-.99,3.49-.46-4.69-7.15-17.59-10.97-19.53-1.86-.94-4.05-.33-6.03-.47-.23-.7-.84-1.26-1-2,1.19-.76,1.26-1.92,2.62-2.89,5.06-3.61,13.95-5.45,19.9-7.16l1.55.52c.65.41.72,1.34.94,1.53Z"/>
  <path class="cls-53" d="M364,197c.88,1.86,1.73,3.85,3,5.5l-3,.5,2,5c.13,1.32.49,1.88,1,3-2.91.65-2.59-3.2-5-4l2,8-4.5-4-.64,1.64-2.86.36c-.31-1.24.28-2.86,1-4l1.09-1.96,1.91.97c.02-1.33-.02-2.67,0-4.01-1.19-4.05-1.19-7.38,0-10l-1-2c-.66-.24-.66-.91,0-2,.05-1.09-.2-2.2.2-3.28l1.8-4.72c.28,2.96-.47,6.49.16,9.35.31,1.41,2.08,4.03,2.85,5.65Z"/>
  <path class="cls-29" d="M396,187l3,5c-9.08-.43-17.03,5.5-25.5,8.03l-5.5-3.03c6.68-.07,13.64-2.96,19.7-5.8,2.9-1.36,5.45-3.02,8.3-4.2Z"/>
  <path class="cls-4" d="M359,192l1,2c.16,3.27.05,6.71,0,10-1.82-.84-.76-3.59-1.15-5.35-.26-1.17-1.59-2.33-1.74-3.3-.07-.47.95-4.94,1.89-5.35-.03.64-.06,1.37,0,2Z"/>
  <path class="cls-4" d="M357,209c.48,1.61-.7,2.82-1,4s.15,2.77-1,4c0-.04-.73-.12-.72-.45.1-2.49,1.8-5.88,1.73-8.55l.99,1.01Z"/>
  <path class="cls-4" d="M348,243c.16-2.43.85-3.28,1-4l-.09,3.41-.91.59Z"/>
  <rect class="cls-4" x="357" y="187" width="1" height="2"/>
  <path class="cls-4" d="M354,220c.47-1.5.37-1.06,1-2l-.05,1.44-.95.56Z"/>
  <path class="cls-4" d="M353,223c.48-1.66.97-1.88,1-2l-.09,1.41-.91.59Z"/>
  <path class="cls-4" d="M351,230c.48-1.66.96-1.88,1-2l-.11,1.41-.89.59Z"/>
  <path class="cls-4" d="M350,233c.48-1.65.97-1.88,1-2l-.09,1.41-.91.59Z"/>
  <path class="cls-4" d="M349,237c.43-2.01.97-1.88,1-2l-.09,1.41-.91.59Z"/>
  <path class="cls-27" d="M318,133c.3.34,1.72.6,1.98,1.53.92,3.37-5.03,4.94-4.98,8.47-3.06-1.47-3.22-5.13-3-8-.97-3.88,6.3-6.54,6-2Z"/>
  <path class="cls-6" d="M318,130c.9,1.23.9,1.77,0,3-.5-.57-1.31-.73-1-2-1.83.85-1.88,2.46-3.99,1l.97,2.94-1.97.06h-1l1.02-4.98c1.96.07,4.04-.2,5.98-.02Z"/>
  <path class="cls-40" d="M307,147c-.05.09-.06.92,0,1-1.56.13-3.81,1.09-5,2-5.3-.5-2.26-4.13,2-5,.33,0,.67,0,1,0,1.97.31,2.63.98,2,2Z"/>
  <path class="cls-34" d="M308,145c-.32,1.75-.67,1.42-1,2l-2-2c1,0,2,0,3,0Z"/>
  <path class="cls-32" d="M309,120l2-2c-.21,1.29-1.16,1.45-2,2Z"/>
  <path class="cls-23" d="M294,162l-1-.49,1-.51c.07.32-.09.7,0,1Z"/>
  <path class="cls-34" d="M294,145c.15.17,3.09.78,4,2l.07-1.89c1.92-.23,3.97-.11,5.94-.11-.38,1.5-1.51,1.98-2.99,2.03l.99,2.97c-.61.46-1.46,2.97-3,3,.22-2.89-2.44-3.26-3.97-4.53-.88-.73-3.45-2.63-1.03-3.47Z"/>
  <path class="cls-36" d="M298,136c-2.41-.79-2.09-4.64-5-4l2,3c-4.98-.17-3.56-6.31,1.47-4.97l1.53,5.97Z"/>
  <path class="cls-5" d="M360,194l-.91-.59c-.21-.46-.05-.95-.09-1.41l.91.59c.19.46.07.94.09,1.41Z"/>
</svg>