<?xml version="1.0" encoding="UTF-8"?>
<svg id="Lager_1" data-name="Lager 1" xmlns="http://www.w3.org/2000/svg" viewBox="0 0 1254 1280">
  <defs>
    <style>
      .cls-1 {
        fill: #e1e1df;
      }

      .cls-2 {
        fill: #0c0b0a;
      }

      .cls-3 {
        fill: #070707;
      }

      .cls-4 {
        fill: #a7a6a4;
      }

      .cls-5 {
        fill: #a6a2a1;
      }

      .cls-6 {
        fill: #cacac7;
      }

      .cls-7 {
        fill: #92867b;
      }

      .cls-8 {
        fill: #c1beb0;
      }

      .cls-9 {
        fill: #0e0e0d;
      }

      .cls-10 {
        fill: #2c2b28;
      }

      .cls-11 {
        fill: #c2bfb2;
      }

      .cls-12 {
        fill: #bfbfbc;
      }

      .cls-13 {
        fill: #010101;
      }

      .cls-14 {
        fill: #c7c6c3;
      }

      .cls-15 {
        fill: #afafad;
      }

      .cls-16 {
        fill: #c7c4b7;
      }

      .cls-17 {
        fill: #878784;
      }

      .cls-18 {
        fill: #dbdbd7;
      }

      .cls-19 {
        fill: #030302;
      }

      .cls-20 {
        fill: #716f67;
      }

      .cls-21 {
        fill: #636361;
      }

      .cls-22 {
        fill: #5c5c5a;
      }

      .cls-23 {
        fill: #e4e3df;
      }

      .cls-24 {
        fill: #babab5;
      }

      .cls-25 {
        fill: #86857f;
      }

      .cls-26 {
        fill: #bcbbb8;
      }

      .cls-27 {
        fill: #bcb9ac;
      }

      .cls-28 {
        fill: #e9e3e6;
      }

      .cls-29 {
        fill: #adaca9;
      }

      .cls-30 {
        fill: #34332d;
      }

      .cls-31 {
        fill: #a5a4a1;
      }

      .cls-32 {
        fill: #dbdbd9;
      }

      .cls-33 {
        fill: #c8c7c4;
      }

      .cls-34 {
        fill: #d4d3cc;
      }

      .cls-35 {
        fill: #1a1a19;
      }

      .cls-36 {
        fill: #171717;
      }

      .cls-37 {
        fill: #afac9f;
      }

      .cls-38 {
        fill: #e4e4e2;
      }

      .cls-39 {
        fill: #a09f9d;
      }

      .cls-40 {
        fill: #dcdad4;
      }

      .cls-41 {
        fill: #e9e8df;
      }

      .cls-42 {
        fill: #0a0a09;
      }

      .cls-43 {
        fill: #e1e0dd;
      }

      .cls-44 {
        fill: #a6a6a3;
      }

      .cls-45 {
        fill: #8a8987;
      }

      .cls-46 {
        fill: #191816;
      }

      .cls-47 {
        fill: #b0afac;
      }

      .cls-48 {
        fill: #1e1e1e;
      }

      .cls-49 {
        fill: #a1a09e;
      }

      .cls-50 {
        fill: #7a7a78;
      }

      .cls-51 {
        fill: #070706;
      }

      .cls-52 {
        fill: #b5b2a4;
      }

      .cls-53 {
        fill: #d0cdc0;
      }

      .cls-54 {
        fill: #212121;
      }

      .cls-55 {
        fill: #8d8d8b;
      }

      .cls-56 {
        fill: #888a89;
      }

      .cls-57 {
        fill: #c6c6c2;
      }

      .cls-58 {
        fill: #dfded9;
      }

      .cls-59 {
        fill: #111110;
      }

      .cls-60 {
        fill: #504f49;
      }

      .cls-61 {
        fill: #6d6d6b;
      }

      .cls-62 {
        fill: #e2e1e0;
      }

      .cls-63 {
        fill: #d3d2cb;
      }

      .cls-64 {
        fill: #7f7f7b;
      }

      .cls-65 {
        fill: #0d0d0c;
      }

      .cls-66 {
        fill: #1a1917;
      }

      .cls-67 {
        fill: #c9c9c5;
      }

      .cls-68 {
        fill: #d3d3d0;
      }

      .cls-69 {
        fill: #a19f93;
      }

      .cls-70 {
        fill: #d7d7d5;
      }

      .cls-71 {
        fill: #605f5e;
      }

      .cls-72 {
        fill: #d4d4d2;
      }

      .cls-73 {
        fill: #a6a5a2;
      }

      .cls-74 {
        fill: #6d6c66;
      }

      .cls-75 {
        fill: #0b0b0b;
      }

      .cls-76 {
        fill: #fff;
      }

      .cls-77 {
        fill: #171715;
      }

      .cls-78 {
        fill: #b1b1af;
      }

      .cls-79 {
        fill: #e9e9e7;
      }

      .cls-80 {
        fill: #0f0e0d;
      }

      .cls-81 {
        fill: #826f6c;
      }

      .cls-82 {
        fill: #adacaa;
      }

      .cls-83 {
        fill: #dcdbd9;
      }

      .cls-84 {
        fill: #858480;
      }

      .cls-85 {
        fill: #040404;
      }

      .cls-86 {
        fill: #a5a296;
      }

      .cls-87 {
        fill: #737270;
      }

      .cls-88 {
        fill: #84786c;
      }

      .cls-89 {
        fill: #8f8e8c;
      }

      .cls-90 {
        fill: #7f7d73;
      }

      .cls-91 {
        fill: #7d7b71;
      }

      .cls-92 {
        fill: #a39f8e;
      }

      .cls-93 {
        fill: #b8b7b5;
      }

      .cls-94 {
        fill: #1a1a17;
      }

      .cls-95 {
        fill: #161614;
      }

      .cls-96 {
        fill: #c9c7ba;
      }

      .cls-97 {
        fill: #e2e0db;
      }

      .cls-98 {
        fill: #d0cec6;
      }

      .cls-99 {
        fill: #b7b4a7;
      }

      .cls-100 {
        fill: #bcbbb7;
      }

      .cls-101 {
        fill: #b9b9b5;
      }

      .cls-102 {
        fill: #8f8f8c;
      }

      .cls-103 {
        fill: #8e8e8b;
      }

      .cls-104 {
        fill: #979794;
      }

      .cls-105 {
        fill: #b2b0a7;
      }

      .cls-106 {
        fill: #9b998f;
      }

      .cls-107 {
        fill: #dcdad1;
      }

      .cls-108 {
        fill: #10100f;
      }

      .cls-109 {
        fill: #908e88;
      }

      .cls-110 {
        fill: #a5a4a2;
      }

      .cls-111 {
        fill: #a4a39e;
      }

      .cls-112 {
        fill: #a7a7a3;
      }

      .cls-113 {
        fill: #f2d7d7;
      }

      .cls-114 {
        fill: #838383;
      }

      .cls-115 {
        fill: #d8d7d5;
      }

      .cls-116 {
        fill: #b0ab94;
      }

      .cls-117 {
        fill: #b1b0ae;
      }

      .cls-118 {
        fill: #0a0a0a;
      }

      .cls-119 {
        fill: #bbbab8;
      }

      .cls-120 {
        fill: #d1d0cc;
      }

      .cls-121 {
        fill: #dbdad8;
      }

      .cls-122 {
        fill: #a9a79d;
      }

      .cls-123 {
        fill: #cac8c1;
      }

      .cls-124 {
        fill: #a5a5a3;
      }

      .cls-125 {
        fill: #484847;
      }

      .cls-126 {
        fill: #333332;
      }

      .cls-127 {
        fill: #e2e1df;
      }

      .cls-128 {
        fill: #afaeac;
      }

      .cls-129 {
        fill: #0e0c0b;
      }

      .cls-130 {
        fill: #d5d4cd;
      }

      .cls-131 {
        fill: #181817;
      }

      .cls-132 {
        fill: #0f0f0e;
      }

      .cls-133 {
        fill: #929084;
      }

      .cls-134 {
        fill: #9d9a90;
      }

      .cls-135 {
        fill: #a2a19f;
      }

      .cls-136 {
        fill: #afafaf;
      }

      .cls-137 {
        fill: #d1d1d1;
      }

      .cls-138 {
        fill: #cbcac3;
      }

      .cls-139 {
        fill: #090909;
      }

      .cls-140 {
        fill: #83776c;
      }

      .cls-141 {
        fill: #87857c;
      }

      .cls-142 {
        fill: #0f0f0f;
      }

      .cls-143 {
        fill: #94887c;
      }

      .cls-144 {
        fill: #b9b8b5;
      }

      .cls-145 {
        fill: #1c1b19;
      }

      .cls-146 {
        fill: #ececea;
      }

      .cls-147 {
        fill: #bbb8aa;
      }

      .cls-148 {
        fill: #a4a4a0;
      }

      .cls-149 {
        fill: #050405;
      }
    </style>
  </defs>
  <g>
    <path class="cls-85" d="M757,1083c1.55.1,1.41,1.54,0,2,.37,1.11.53.97,1,0,.28-.87.62-.86,1,0,2.9-1.96,4.23-2.23,4,2,2.89.7,2.87,2.16,0,3l-1,5,1.41-.16c2-7.65,4.39-2.46,4.6,3.02.35,8.87-4.69,11.02-7.02,2.13-.51-1.15-.85-.48-1,2,1.38.12,2.61,1.15,3.7,3.09,5.98-.64,4.32,5.49-.22,6.97-.33,1.62-.49,3.27-.48,4.95.38.73.72.39,1-1-2.71-2.13.3-6.63,3-4l.96.51c-1.78,5.87-.85,10.78,5.72,12.42l.32,1.07c-.11.98.09,2.01,0,3-.67.23-.63.57,0,1-.09.64.06,1.35,0,2-3.78-.14-5.78.53-6,2-1.01.36-.74,1.33-1,2-.42,1.16-3.75,1.01-3.77.8-.02-.19,3.56-.31,2.77,1.2-1.35,6.12,2.77,8.28,1,16-1.58,2.41-10.86,8.72-13.09,8.68-5.88-.11-17.01-13.21-17.91-19.68-1.92.36-2.54-1.94-1-3,1.09-10.91,3.42-21.58,7-32,.28-.87.62-.86,1,0l1.37.71c-2.34,18.94-2.49,20.85-.46,5.75-.3-4.11.4-6.6,2.09-7.45.15-1.85.35-5.73-3-5-.28.87-.62.86-1,0-1.39-2.58-.14-7.29,3-7,.16.01.51.82.93.97.15-1.06.56-2.04,1.07-2.97.84-.39,1.16-1.07,1-2,.73-.83,1.5-1.5,2.51-1.98l.49.98c1.74.89,3.19,2.73,4.36,5.51l.64-.51c-.46-2.33.2-2.66,2-1-2.47-2.93-3.14-5.26-2-7-2.77.44-3.51-.58-2-3,1.06-.8,1.05-1.82,1.01-3l1.99,2Z"/>
    <path class="cls-99" d="M688,1119c-3.7,3.18-5.53,8.02-1.97,12.89l1.06,5.55c-4.25,11.14-6.06,23.28-1.09,34.56.8-1.13,1.8-.8,3,1,.63-.08,1.3.25,2,1,.97.39,1.63.39,2,0-.32-1.28-.26-1.59,1-1,1.47,1.12,3.13,2.45,5,4,.25-.86.59-.84,1,0,.22-2.56,1.22-2.63,3-1-.39-.84-.02-1.14,1-1,3.56.59,6.82-.04,9.78-1.89l2.22.89c-.23-.9.1-1.23,1-1,1.63-4.29,9.63,1,9.62,1.63-.01.94-.35,3.5-.62,4.37,2.93,1.87,1.81,6.46-1,4-6.98,2.67-14.61,2.22-22,2q-.65-1.75,0,0c-.1.32.12.74,0,1-.29,3.1-10.48.25-10,0,.42-.21,8.86,1.7,8,2.99-.72,1.13-1.59,1.46-2,2-.42,1.44-8.05-.57-8-.99s7.66,1.72,7,2.99c-1.54,1.86-2.51,2.52-4,4-.36.31-.74.57-1.14.63-.23.03-2.78.33-3,.08-.1-.12,2.76-.46,2.14,1.29-.61.54-1.02,1.21-2,2-2.58-.84-6.89-5.46-8.99-8-.38-.47,8.77,7.64,6.99,9-.4.25-.65,1.67-2,2-2.43-1.36-4.56-3.21-6.41-5.55-2,.4-5.44-2.46-4.59-4.45-3.56-1.18.25-7.04,3-4,3.15-2.98-.08-7.68-3-10-1.89,1.07-4.68-2.33-3-4-1.33-1.41-.77-1.92,1-1,2.46-7.09,5.46-8.75,9-5-3.13-6.36-4.36-12.88-3.7-19.57,4.12-7.76,3.04-14.33.69-22.99-1.34-5.6,1.56-8.85,7.01-9.44.55.06,1.36.8,2,1Z"/>
    <path class="cls-19" d="M745,1106c-.25,1.1-.91,1.78-2,2h-1c-3.54,10.37-5.87,21.04-7,32,.15,1.75.87,2.36,1,3,4.47,13.05,16.05,25.8,28.91,13.43l1.09.57c-1.01,2.54-3.25,5.01-4,7l-1.85,2.76c-3.01.52-5.72,1.6-8.15,3.24,1.81,1.1.93,1.58-1,2,.74.64.08,1.31-2,2-.39,2.39-3.05,3.03-3.56-.38l-3.44-.62c-.97.15-1.31.81-1,2,1.84.71,2.38,2.41,0,2l-1.14.9c-4.71-3.16-9.48-4.2-14.32-3.12-2.28-1.15-10.99-12.09-6.55-14.78-1.69-8.68-1.61-21.22,4-28h1c.04,1.75.37,2.42,1,2-.37-1.79.27-4.98,2-5,.87.28.86.62,0,1,.06,2.54.39,3.87,1,4,.14-2.74.4-5.48.78-8.21l-.78.21c-2.32,4.47-5.99-.52-1.92-2.57.17-2.19.81-4,1.92-5.43,1.92-.92,5.21-4.79,8-5,.97-.31,1.31.02,1,1-2.42,5.66-5.15,12.28-7,18,.76,4.43,1.42,5.76,2,4-2.59-6.86,1.32-16.17,6-21-.59-2.28-2.25-3.61-5-4l4.02-1c-2.12-4.92,1.91-3.6,3.98-5,.26-1.11.6-2.11,1-3h1c1.98-1.3,4.73,2.99,2,4Z"/>
    <path class="cls-149" d="M650,1161c-.69.74-3.76,2.67-4.7,2.82-.56.09-10.76-.58-11.23-.9s-.2-3.13-1.03-4.43c-1.26-1.98-4.53-3.94-6.03-6l3.99,1.5-2.97-6.52,1.97-.47-.99-8,3.99,7.99-.98-21.99,1.98,1.99.02-7.99,2,6.99c1.82.25.74-1.91.99-2.99.91-.89,1.24-.22,1,2-.69,4.28-1.29,8.63-.99,12.99l2.71-8.77.28-7.22c2.08-2.65,4.06,6.46,3.99,7.99l-2.99-5-1,10.99c1.27-1.13,3.94-4.73,3.99-6l2.03,4,1.96-1c1.77,4.29-2.7,7.13-4.49,11-3.39,7.35-3.72,16.95,6.5,11,4.7-1.57,5.35,7.12,0,6ZM642.99,1139.99c.19-.19,2.06-4.13,2-4.99-2.11.83-3.36,2.76-2.98,4.99.32-.05.83.14.98,0Z"/>
    <path class="cls-85" d="M720,1121c4.96-1.45-.61,4.21-3.87,4.71-1.61,2.57-3.32,4-5.13,4.29-2.84,6.22-5.51,12.22-8,18-.74,8.78.07,17.21,2.44,25.29l-1.44,1.71c-.3.37-.64.7-1,1-.79.06-1.46.02-1.71-.31-7.13-9.96-2.97-31.99,3.71-41.69.63-1.59,1.65-2.93,3-4q3.79-4.53,0,0c-1.36,1.1-2.34,2.38-3,4-7.6,12.49-9.78,27.79-4.19,41.48l-.81,1.52c-.3.06-.67-.02-1,0-.64-.17-1.19-.49-1.71-.89-4.48-3.45-4.36-18.92-3.29-24.11.2-1.1.19-2.08-1-2,.03,7.38.66,14.7,1.87,21.96l-.87,1.04-1,1c-3.91-2.85-4.03-11.17-3-16-2.31-6.44.79-17.22,6-22,1.66-2.81,1.99-4.14,1-4,1.37-3.38,5.07-11.2,9.15-7.58,3.28-1.77,6.89-2.9,10.85-3.42.81-.21,2.07.14,3,0Z"/>
    <path class="cls-85" d="M694,1131c3.28-7.06,10.4-7.08,2.44,0l.56,1.01c.79,1.21-.64,2.91-2,3-4.69,8.96-7.48,19.68-6,30,1.03,2.43,2.41,6.56,2,9l-.5.98c-.72-.32-1.15-1.79-1.5-1.98-7.07-10.23-4.52-28.27,3-38-.5-1.42.76-3.05,2-4Z"/>
    <path class="cls-85" d="M686,1118c-10.48,4.03-3.15,13.09-2.91,20.49.17,5.06-2.99,9.82-3.16,15.01s1.62,9.66,2.66,14.5c.38,1.76.37,1.05-.59,2.01-5.34-2.16-8.63-6.46-8.47-12.68-5.23-6.05-8.93-13.04-11.19-20.56-1.91-1.54-2.7-3.12-2.35-4.75,2.19-2.26,4.72-4.87,7-7,1.75.12,3.09-.88,4-3,.28-.17.49-1.2,1.68-1.77.77-.37,1.79-.04,2.32-.23,2.38-.28,4.71-.95,7-2,1.22-.07,2.83-.13,4,0Z"/>
    <path class="cls-97" d="M660,1132c5.62,2.91,4.77,7.13,6.81,11.69,2.6,5.8,6.43,12.35,9.44,18.56,1.51,3.12,4.59,4.6,5.75,7.75-1.55,1.54-1.29-.76-2.5-.73-1.75.04-5.04,5.61-4.51,7.72-1.3.28-1.18-1.26-1.99-1.99-7.67-4.28-12.98-4.13-15.95.44l-2.05.56c-1.15-2.79-1.19-2.93-2-6,1.3-5.95,9.73-6.43,14.48-3.19-3.55-3.78-8.86-6.26-13.22-2.22l-2.26-.59c-.31-.91-1.38-2.16-2-3,3.79-4.06.5-4.15,0-6-.68-2.52.84-3.84,1-5,2.59,1.83,5.81,2.72,9.68,2.69,5.75,3.85,17.71,11.73,5.32.49-2.83-8.28-6.83-11.22-12-8.82l-2-1.36c1.83-7.29,3.49-6.33,8-11Z"/>
    <path class="cls-3" d="M675,1194l8.32,6.18,2.68,3.82c-.25.06-.74.04-1,0-1.61.67-2.95,1.67-4,3-6.83,5.98-.27,12.47,3,18,2.42,2.33-5.56,6.07-6.81,5.12-.82-.62-2.17-3.2-1.19-4.12-.75-.58-1.75-1.25-3-2-.75-1.41-.79-2.02-2-4-.16-1.94-1.16-3.61-3-5-.46-.19-.83-.39-.87-.64-.57-3.47,1.34-2.21-.04.37-.12.22-.56.27-1.09.27-2.55,3.2-6.03,4.11-8,0-.09-.64.09-1.36,0-2,.25-.71-.09-1.38-1-2-.04-.33.03-.67,0-1-1.04-1.9-.62-4.05,0-6,.2-.27.89-.99,1-1,.55-.77.88-1.77,1-3,1.34-2.05,7.25-2.31,10-2,1.39-1.06,1.85-.54,1,1,2.07-.47,2.74-1.13,2-2-.77-2.82.2-3.71,3-3Z"/>
    <path class="cls-81" d="M798,1104c3.39,6.31,11.77,17.72,8.48,24.98-2.26,4.99-9.93,7.06-14.99,6.02-3.45-.71-.92-4.79-6.49-7-3.25-2.93,3.32-4.87,6.5-4.55l-.5-.45c-.87-.28-.86-.62,0-1,.83-.81,1.83-1.48,3-2-.86-.32-.85-.65,0-1-1.17-1.13-2.15-2.34-2-4-.33-1.81.67-2.21,2-1l-1.21-3.63c-1.37-2.48-2.26-3.7-3.79-5.37-2.1-.63-2.43-1.29-1-2-1.32-6.33,5.73-2.99,7.67,1.55l2.33-.55Z"/>
    <path class="cls-142" d="M777,1059c2.33-1,1.81,2.32,2.49,2l4.5-3.01c-.2,1.79,1.16,3.58,2.01,5.01-4.43,9.16-4.09,9.49,1,1,.18-.02.96-1.38,2-.99l-2.99,5.5,3,.5c.25.18-.76,1.4-1.01,1.99,1.3,2.62.12.84.24.81,6.78-1.59,5.02,8.05-.24,9.19-.99.39-2.04,0-3.14-1.14,4.08,2.56,5.46,4.94,4.14,7.14,3.1.2,2.52,3.99,0,5-1.54,1.75-2.85.75-1.6.48,1.46-.32.67,4.97-4.4-.48l-2-1c1.35-9.34,1.06-9.02-.85.97-2.54-.36-4.68,1.3-2.99,3.85-1.99.21-3.04,1.61-3.16,4.18-.29.66-.63.65-1,0-.41-2.25-1.07-3.25-2-3-3.33.55-4.02-5.02-1-6-.66-3.39.34-5.39,3-6,1.06-2.09,1.06-3.09,0-3-2.42-1.77.25-6.02,3-6,2.55-5.37,2.58-10.07.09-14.1l.91-2.9Z"/>
    <path class="cls-85" d="M690,1119c0,1.1,1,1.1,3,0,4.09.15,8.22,1.58,12,2l-.46,2.36c-4.24,1.09-7.49,3.26-10.54,6.64-.61,1.9-1.61,3.23-3,4-5.23,11.81-8.36,24.33-3.96,37.15l-1.04.85c-4.1-4.43-4.58-16.6-3.89-22.39.48-4.02,3.01-8.24,2.99-12.12-.03-4.48-3.79-10.3-2.14-15.84.07-.3,4.67-2.57,5.05-2.65.58-.12,1.35.06,2,0Z"/>
    <path class="cls-13" d="M652,1143c11.81-4.93,10.53,2.21,15.56,8.93,1.5,2.01,5.34,4.15,5.78,5.37.5,1.39-2.5,6.53-.35,9.7-2.66-1.18-1.91-4.49-4.03-6.46-.48-.45-8.49-5.82-9-6-3.27-1.15-9.98.75-8.96-4.54.31-2.31.43-4.74,1-7Z"/>
    <path class="cls-63" d="M717,1173c-10.29-7.09-7.26-30.54-1.35-40.44,1.86-3.11,2.64-3.84,3.68.1-2.47,7.9-4.72,16.36-4.24,24.64l1.9-1.31c1.26.18,1.92,1.51,2,4,.66,2.25.22,5.32,2.5,6.98,2.16-2.73,3.19-3.35,6.5-1.97.72,3.27-2.34,1.71-4.41,1.97l-.58,3.01c5.09-1.8,8.2-3.92,11.99,1.51-2.54.68-2.89-1.67-6.36-1.48-2.39.13-5.59,1.76-2.64,3.51.65.38,3.55-.82,5.41-.53,2.24.34,7.01,3.22,9.59,3.99,2.46.88,2.1,1.83,0,3-.3.12-.78-.14-1,0-3.25-.93-6.68-1.78-10.27-2.55-.79,3.04-2.34,4.48-3.73,1.55-1.39-8.14-6.58-4.36-9-6Z"/>
    <path class="cls-139" d="M735,1190c-.93,5.76.86,13.54-.06,19.44-.53,3.36-3,5.29-3.94,7.56-.98,1.51-1.65,1.83-2,0-3.32-.07-5.32-1.07-6-3,0-1.72,0-3.38,0-5,.39-1.85.8-2.72,1-5,.92-3.03.97-7.12,0-10,0-.67,0-1.33,0-2,.39-1.88.76-2.72,2-1,1.24-2.63,7.39-3.24,9-1Z"/>
    <path class="cls-85" d="M789,1092c1.35-2.26,2.65-3.8,4.78-1.53l3.22,10.53c.33.61.41,1.91,1,3l-1.5,4.98-6-7.98-2.5,2-.44.87c-13.75-2.97-14.07,9.12-12.56,19.13-.67.03-.84.42-1,1-3.27,1.91-7.29-3.5-7.23-6.93.01-.83,3.35-14.11,3.95-15.8.08-.21.62-.26,1.29-.27.28-.87.62-.86,1,0,1.2,1.36-.3,6.26-1.18,8.3-.17.39,1.68-8.3,3.18-7.3-.62-1.44-.39-1.76,1-1-.01-2.27.65-2.94,2-2-1.32-1.5-.7-2.09,1-1,2.31.04,4.64-.29,7-1,.44-2.05,1.44-3.72,3-5Z"/>
    <path class="cls-114" d="M805,1063c3.28,5.59-11.23,24.28-15.61,21.81-.98-.55-2.61-3.03-1.39-3.81-.36-4.48,7.97-6.22-.99-8.01-.56-1.83.89-1.75.99-1.99l9.96-2.54c2.32-1.08,3.81-5.56,7.04-5.46Z"/>
    <path class="cls-42" d="M726,1119c1.55,1.4.91,2.04-1,1,.28,1.55-1.41,3.45-3,3,2.02,2.56-1.73,7.13-4,4-8.81,9.75-11.75,24.78-9.43,37.5,6.51,8.97-1.59,11.98-4.56,4.24-1.61-4.2-1.61-12.92,0-16.74.32-7.61,2.66-14.94,7-22,2.24-3.12,6.04-7.89,10.02-8.03-.14-.46-1-.81-1.02-.97-.27-2.05,5.2-1.67,6-2Z"/>
    <path class="cls-9" d="M740,1180c-.27.17-.77.71-1,1-.73.32-1.06.99-1,2-1.53,1.29-1.87,2.29-1,3-.45,1.25-1.83,2.94-2,4-2.97,1.34-6.04.72-9,1-2.12.13-1.66-4.95-1-7,.05-.36-.1-.78,0-1,.16-.34,1.74-.79,2-1.5-3.79-1.09-.94-2.16-1-2.5,4.65.74-2.27-3.45,1.52-4,.68-.1,12.5,2.59,12.48,5Z"/>
    <path class="cls-118" d="M789,1105c3.5.57,8.64,6.65,5,9-6.09-.84-12.95-.52-14,7,1.24,1.69,1.94,5.99-1,4-.89-2.24-1.38-8.3-.71-10.86.14-.52.58,10.66-1.29,9.86-.18-.25-.79-.42-1-1-4.46-9.25-.32-24.58,13-18Z"/>
    <path class="cls-11" d="M760,1178c-.4,5.26-1.92,4.98-3,8-2.99-1.04-4.74.71-3.01,3.81l-.99,2.19c-.96,1.36-2.81,1.98-5.58,1.84.31,2.43-.17,4.14-1.42,5.16.69,3.59.02,5.59-2,6-2.16-5.93-.54-13.07-1.08-19.41-.18-2.14-1.58-3.89-1.92-5.59.49-2.5,1.49-3.47,3-1,4.52-.44,9.38-1.46,14.57-3.06l1.43,2.06Z"/>
    <path class="cls-65" d="M666,1237c1.54,4.6-1.97,7.42-6,6-.18-1.01-.81-1.77-1-4,1.05-2.49,1.38-5.16,1-8,.54-.91.54-1.58,0-2,.02-.99.04-2.01,0-3-.13-2.3-.46-4.64-1-7-.04-.33.04-.67,0-1,2.76.14,5.09-.86,7-3,.33-.87.67-.87,1,0-1.63,6.72-2,15.16-1,22Z"/>
    <path class="cls-56" d="M771,1060c4.67,3.02,6,8.35,4,16,.28-.87.62-.86,1,0-.72,1.69-2.11,4.45-3,6,.47,4.83-7.77,2.47-4-2q-.09-3.82,0,0c.64,2.74-.23,3.14-2,1-2-.39-4.77-4.43-4-6-2.16.83-2.12-4.83-1-6-.07-3.26.31-7.31,2.94-9.59,2.95-2.56,3.34-.31,6.06.59Z"/>
    <path class="cls-85" d="M652,1164c8.22-8.66,17.8.39,21.99,8.5l-10.56-5.44c-4.79-1.35-6.61,1.39-10.44,2.93-.45-1.71-.26-3.84-1-6Z"/>
    <path class="cls-16" d="M767,1154c-.26,1.14-.58,1.94-1,3l-13.47,8.06c-.98-3.16-3.84-2.34-6.05-4.05-6.3-4.88-8.96-10.5-10.48-18.01,2.89,3.43,3.37,7.35,6.97,10.53,1.15,1.01,10.89,7.21,11.76,7.34,2.6.39,9.31-5.64,12.27-6.87Z"/>
    <path class="cls-77" d="M754,1218c.27,4.9.98,7.42,2,12-.93,4.48-9.25,10.09-10,3-.03-.33.02-.67,0-1,.71-2.58,1.1-5.48,0-8-.02-.33.03-.67,0-1,.7-.97.44-1.88,0-3l-.02-3.62c3.15.26,5.82.8,8.02,1.62Z"/>
    <path class="cls-107" d="M672,1176c.64.43,1.64,2.93,3,4,.51.3.5.64,0,1,.39,3.03-.29,6.6-4,7-3.77-2.49-7.51-3.34-11.2-2.56l-1.8-1.44c-.02-.16-.79-1.13-1-2,1.5-1.92,1.5-2.92,0-3-2.2-8.16,11.71-8.62,15-3Z"/>
    <path class="cls-65" d="M753,1192c1.33-1.4,1.85-.76,1,1,.73,1.6.3,12.5-.54,12.6-.53.06-6.91-5.15-7.46-6.6,2.75,2.72,5.41,5.39,8,8-.12,2.97-.03,6.02,0,9-4.89,2.49-9.6,1.8-8.45-5.34l-.55-1.66c-.08-1.29-.94-2.79-1-4-.1-2.12,1.27-4.5,0-7,.17-.2,1.52.71,1.99,1-2.37-6.89.48-8.59,7-7Z"/>
    <path class="cls-137" d="M805,1063c2.4.31.54,6.76-.1,8.4-.87,2.21-6.57,10.02-8.34,11.66-1.98,1.85-4.91,1.23-4.56,3.94-1.1,2.54-1.85,2.52-3,0-.12-.32-2.79-4.88-3.31-5.71s-4.31-1.5-2.2-3.28c1.45,1.08,2.99,2.03,4.51,2.99.43.27.45,1.86,2.5,2.03,5.21.43,14.93-14.46,14.5-20.03Z"/>
    <path class="cls-100" d="M766,1138c-.8-1.12-2.4.23-3.94-.47-3.08-1.4-10.67-15.58-11.08-19.01-.33-2.74.55-15.84.01-16.52l-2.98,1.01-1-6.01c.81,1.09,4.62,4,4.82,4.63,1.44,4.49-.11,15.25,1.71,20.32.28.78,6.8,12.16,7.36,12.63,1.96,1.66,3.7,1.62,6.1,1.41-.27.7-.95,1.79-1,2Z"/>
    <path class="cls-143" d="M727,1245c.05.57,2.58,6.71.42,7.02l-10.42-.03c-.86-2.92,1.39-5.07,2-7,1.37-3.02,7.84-4.09,8,0Z"/>
    <path class="cls-51" d="M673,1175l-1,1c-3.81-2.58-13.81-3.06-15,3-.07-.17-1.24-1.14-2-3,2.61-9.94,12.17-6.27,18-1Z"/>
    <path class="cls-61" d="M717,1121c-4.71,1.22-7.79,4.37-11.52,5.99-2.66,1.15.69-3.6-1.97-1.98-1.91,1.16-5,5.07-6.51,6.99-.68-.06-2.03.41-2-.5l4.99-5.5-6,4.99v-1c.27-.35.23-1.67.96-2.5,2.98-3.36,5.97-4.82,10.04-6.5,4.17.46,7.82.55,12,0Z"/>
    <path class="cls-61" d="M697,1132c.68.06,2.03-.41,1.99.49-.86,1.17-2.25,2.34-2.99,3.51-1.41,1.33-1.92.77-1-1,.65-.99,1.27-2.08,2-3Z"/>
    <path class="cls-147" d="M756,1230c.35,1.56-.51,4.55,1,6,2.71,1.51-2.24,8.21-5,7-4.41-3.34-5.48-4.45-6-10,.99,1,.74,2.6,2.32,1.87l7.68-4.87Z"/>
    <path class="cls-85" d="M728,1118c1.66,2.67-1.92,5.56-2.01,8.49l2.01-.49c1,1,.54,2.79-1,3-.49,1.52-1.55,3.45-2,5-.74.58-1.07-.08-1-2h-1c.92-2.04.25-2.04-2,0-1.41,1.31-2.31.85-2.69-1.38-1.81,1.07-1.92.2-.31-2.62-.87-.28-.86-.62,0-1,1.65-.23,2.11-1.61,4-4,1.5-.48,2.5-1.48,3-3,.44-.15.79-.59,1-1,.51-.21,1.35-.69,2-1Z"/>
    <path class="cls-88" d="M757,1236c1.85,1.77,6.96,2.64,5.97,7.96-2.71.8-5.62,1.54-8.49,1.03-2.23-.39-1.91-1.55-2.49-1.99l5-7Z"/>
    <path class="cls-20" d="M686,1228l.2,2.14c-2.02.37-2.09,1.99-.2,4.86l1,1c-.03.65-.06,1.36,0,2,.79,2.7-8.29,2.35-8.58,1.96-.23-2.42-.7-4.74-1.42-6.96-.43-1.96-1.29-4.09-2-6-.89-1.75-.8-2.04,1-1-.9,3.92,6.75,2.01,8-1,.56.95,1.32,1.74,2,3Z"/>
    <path class="cls-140" d="M678,1242c3.68-3.26,11.01.57,11,6-.04.66.07,1.33,0,1.99-4.28.53-8-.63-11.92-2.09-.9-1.27.94-4.47.91-5.91Z"/>
    <path class="cls-17" d="M783,1092c2.16-.77,2.11-2.93,2.01-5.01,4.06-.79-.12,4.74,1,7l1-3.01c.19-.27,1.38.77,1.99,1.01-.21-1.62.09-4.77,0-5,.97.1,2.06-.14,3,0,5.84.9,5.21,9.35,5,14-.74-1.35-2.4-1.77-2.93-2.79-.94-1.8-1.27-5.13-2.08-7.21-1.78-.41-.64,1.65-1,1.99-.28.26-1.32-.74-1.98-1,.17,1.34,1.26,2.54.99,4.01l-1.99-1.03-.02,3.03c-.1.16-1.9-1.08-1.99-1.02-1.39,1.54-2.04.9-1-1-2.5.36-2.59-.94-2-3-.8-.29-.79-.62,0-1Z"/>
    <path class="cls-125" d="M728,1229c-.16,1.29.13,2.7,0,4v3c-.02.33,0,.67,0,1-1.81.25-2.15.58-1,1-.01.33.01.67,0,1-.41,2.17-2.74,2.84-7,2-1.69-3.35-.6-5.09,0-8,1.36-4.16,4.43-5.66,8-4Z"/>
    <path class="cls-27" d="M677,1233l2.3.95c-2.36,0-.21,2.44-1.3,4.04h9.01c.34,3.45,2.29,5,2,10.01-1.38-4.66-6.88-4.49-11-6-.04-2.22-.54-6.91-1-9Z"/>
    <path class="cls-38" d="M788,1103c.36.29.6,1.5,1,2-3.13-.51-10.1-.35-12.07,2.43-2.09,2.96-2.17,12.23-.93,15.57h-1c-3.52-2.95.04-18.58,2.16-19.84.83-.49,9.61-1.14,10.84-.16Z"/>
    <path class="cls-7" d="M669,1247c2.45.79,3.59,1.93,4,4.99-3.53.64-10.87,2.8-12-1.99.06-4.56,5.68-7.8,8-3Z"/>
    <path class="cls-34" d="M671,1189c2.1,1.76,1.65,2.55-1,2-8.82-.04-8.82.29,0,1,3.54.73,2.26,5.19-1,5-.89-.31-.88-.65,0-1-3.32-1.49-7.6-.14-10,2-.49-3.56-.62-6.48-1-10,1.62-5.27,10.3-2.73,13,1Z"/>
    <path class="cls-83" d="M777,1124c1.86-2.67-.22-6.07-.03-9.49.41-7.19,8.27-7.05,14.02-7.5.47,3.37-5.74,2.6-8.02,3.47-5.3,2.01-3.79,9.85-3.97,14.53-.26-.24-1.47-.26-2-1Z"/>
    <path class="cls-46" d="M753,1192c-.55-.41-.42-1.88-2.5-2.05-2.55-.2-6.58,4.06-6.49.56l8.98-3.53h-3.51c-2.04-2.22,1.98-2.82,4.05-2.99,1.88-.15,4.05-.89,3.47,2-.77,2.15-1.78,4.75-2,7-.28.87-.62.86-1,0-.48-.17-.69-.77-1-1Z"/>
    <path class="cls-79" d="M682,1118c-.99,1.17-3.24,1.34-4.09,2.4-3.03,3.75,3.57,20.24,1.08,25.6l-1.97-.48c3.01-3.65-.51-6.37-.97-9.07-.87-5.11,1.37-11.68-1.05-16.45,2.95-1.09,3.11-1.77,7-2Z"/>
    <path class="cls-121" d="M671,1122l2.99,23-3.54-7.95c-.6-4.36-.38-8.53-3.45-12.05,2.04-1.91,1.74-1.58,4-3Z"/>
    <path class="cls-131" d="M783,1120c2.64-1.67,8.16-1.56,11,0-.14.54.13,1.36,0,2-.99.09-2.01-.08-3,0-2.17.47-2.17.8,0,1,1.08,0,3.27-.66,3,.99-4.19-.11-7.6-.51-9,4.01-.49-.2-1.51.2-2,0-3.09-1.15-2.63-4.45-2-7-.9-1.31-.75-3.44,1-3,.83-.41,1.16.25,1,2Z"/>
    <path class="cls-24" d="M772,1101c.27.85-4.19,13.6-3.95,17.45.2,3.23,2.85,5.28,5.95,5.55-.14.51.07,1.35,0,2-5.31-1.09-8.14-5.9-8.99-11.01l2,.5c.18-1.06-.27-2.6,0-3.49-.62-.72-.33-4.66-.17-6.21.54-5.09,1.55-14.11,5.17-4.79Z"/>
    <path class="cls-23" d="M669,1247c-4.41-1.41-4.56.69-8,3-.38-1.63-.6-4.73-1-7,2.27-2.83,7.13-2.05,6-6,.44,3,2.19,6.96,3,10Z"/>
    <path class="cls-59" d="M657,1179c4.7-3.84,13.04-2.44,16,2.99-5.19-1.35-10.78-1.63-16,0-.2-.86.26-2.35,0-3Z"/>
    <path class="cls-48" d="M729,1217c.56-.14,1.36.09,2,0-1.38,3.35-2.54,6.34-3,10-.79,2.06-6.36,3.08-6,0,.24-.95.82-1.82,1-3,1.27-2.2,1.22-3.79,0-6,0-.33,0-.67,0-1,1.06-1.16,3.06-1.16,6,0Z"/>
    <path class="cls-35" d="M671,1188c.86.27.84.6,0,1-4.58-2.69-8.03-2.19-13-1-.14-1.31.15-2.7,0-4,6.52-2.77,8.55.04,13,4Z"/>
    <path class="cls-18" d="M720,1241c.44-1.23,1.48-2.23,1.01-4h.98c-.44,3.11,2.75,1.89,5.01,2-.07,1.89-.16,4.16,0,6-2.36-1.62-5.21.52-8,0,.41-1.3.54-2.73,1-4Z"/>
    <path class="cls-94" d="M744,1179c1.05-.8,2.23-1.31,3.44-1.81,1.98-.82,12.25-5.04,12.83-4.68.64.39.24,3.62-.26,4.49.03.32.02.68,0,1-5.92-.79-10.94,1.54-16.49,3.01-1.1.05.22-1.64.49-2.01Z"/>
    <path class="cls-28" d="M787,1064c-2.92,5.44-.69,10.23-9,9.99l8-10.99c.21.35-.04,1.14,1,1Z"/>
    <path class="cls-105" d="M745,1209l5.99,2.01h-4.98s-.02,4.99-.02,4.99h8.01c0,.66-.04,1.33,0,1.99h-8s0,2,0,2c-.24-3.36-.76-7.32-1-11Z"/>
    <path class="cls-54" d="M762,1069c.03,1.2.62,5.04,1,6,.84,1.91.48,2.92-1.43,1.81.21,4.16-.64,6.88-2.57,8.19h-1c-.28.87-.62.86-1,0,0-.26,0-1.9,0-2,.19-1.9,1.2-5.76,1.84-7.64.52-1.53,2.16-1.39,2.22-2,.19-1.81-2.93-4.69.94-4.36Z"/>
    <path class="cls-145" d="M686,1228c.75,1.4,1.78,2.07,2,4-.31,2.29-.97,3.29-2,3l-5-1.01,2-2.5-2.02-1,5.02-2.5Z"/>
    <path class="cls-36" d="M775,1062c5.38,2.26,2.58,9.97,0,14-2.03-2.43.43-5.45-.21-9.25-.56-3.35-3.23-4.03-3.79-6.75.59.19,1.42-2.07,4,2Z"/>
    <path class="cls-92" d="M760,1177c-.12-1.48.83-3.51-1.45-2.97-4.7,2.07-9.76,3.31-14.55,4.97-1.19-1.35,2.9-4.59,3.58-3.34,4.54-1.18,8.32-2.94,11.33-5.29l2.09.63c-.15,2.03.65,4.36-1,6Z"/>
    <path class="cls-92" d="M762,1164c-.61,1.61-.73,3.32-1,5-2.16,2.45-7,3.29-9,1,.61-.85.46-2.27,1.68-3.06,1.76-1.14,6.12-1.97,8.32-2.94Z"/>
    <path class="cls-39" d="M693,1119l-5.99,6.51,2.98-.51-2.5,6.01c-2.89.91-1.37-7.9-.54-9.31.55-.94,2.64-1.25,3.05-2.69.95-.09,2.03-.03,3,0Z"/>
    <path class="cls-124" d="M724,1194l10.01-.5c-9.05-.74-14.03,9.37-2.53,3.48l.51,2c-.81.9-10.94,2.21-5.59,4.01l-2.41,1.01c.27-3.15-.02-6.76,0-10Z"/>
    <path class="cls-127" d="M776,1076h-1c1.22-5.87,3.72-8.13,0-14,.87-.81.93-2.54,2-3-1.12,3.08,2.52,5.53,2.62,7.48.06,1.23-2.82,7.66-3.62,9.52Z"/>
    <path class="cls-30" d="M761,1169c-.1.62.05,1.35,0,2-4.27,3.46-14.2,4.04-17,8-1.01.35-1.99.59-3,1-.16-.81,0-2.06,0-3,0-.13,1.15-1.01,0-2-.6-1.91,1.88-.95,3.22-.05,1.2.81-2.52.13-2.22-1.95h6.01c-2.26,3.92.22,1.22.99,1,7.34-1.48,8-2.15,2-2,.31-.47.47-1.26,1-2,3.42,1.1,6.35-2.48,9-1Z"/>
    <path class="cls-1" d="M748,1091c1.37.66,7.15,6.93,6,7.99-4.18.53-5.17-3.25-7-5.99.34-.61.21-1.1,1-2Z"/>
    <path class="cls-90" d="M685,1204c-.55,2-3,2.13-4,3v-3.99s-5.99-2-5.99-2c1.31.31,3.58-2.31,3.97-2.01.94.73,1.71,4.32,6.02,5Z"/>
    <path class="cls-95" d="M690,1201c-.5.4-1.39.62-2,1l-6.99-9c.63-.64,8.25,6.85,8.99,8Z"/>
    <path class="cls-22" d="M754,1084c.48,1,1.67,2.04,2,3-1.13,1.48-.47,3.81,2,7-.61.72-1.85.83-2,1-2-.71-4.28-4.54-4-7,.16-1.09-.41-3.26.13-3.91.35-.43,1.66.07,1.87-.09Z"/>
    <path class="cls-5" d="M741,1105v-10.01s1.99,1.02,1.99,1.02v-2.27s2.01,1.26,2.01,1.26c-.44-.03-.87,0-.99.5l-.02,3.51-1.98-1.02c-.15,1.29.18,2.75,0,4.01-.2,1.32.52,1.97-1,3Z"/>
    <path class="cls-10" d="M703,1186c-.64,1.47-1.34,1.96-2,3l-8-2.99c3.66.85,6.34,1.04,10,0Z"/>
    <path class="cls-123" d="M669,1197c.89.25.87.58,0,1-3.08,2.1-7.5,1.31-10,2-.12-.59.09-1.36,0-2,.53-2.56,7.9-3.22,10-2,.03.34-.07.72,0,1Z"/>
    <path class="cls-141" d="M668,1215c2.93-.26,6.04.18,8.99.01l-5.99,1,2.99,2-2.99,1.99c-.99-1.62-2.85-2.44-3-5Z"/>
    <path class="cls-122" d="M774,1132c-.36.75-5.69,2.04-6,2-.19-.03-2.35-2.11-3-2.5,3.78-4.67,3.97.54,9,.5Z"/>
    <path class="cls-110" d="M728,1227c-.08.65.08,1.35,0,2-3.07.13-6.34,1.37-8,4,.55-2.69,1.52-4.11,2-6,2.04.67,4.12,1.45,6,0Z"/>
    <path class="cls-74" d="M754,1207c-3.19-3.75-6.17-2.68-8-8,1.09.66,7.61,6.47,7.99,6v-12h1.01c-.43,4.36-.83,9.9-1,14Z"/>
    <path class="cls-112" d="M666,1215c-1.85,4.18-2.52,4.8-7,3-.03-.22-.79-1.53-1-3,3.99,3.51,5.04.31,8,0Z"/>
    <path class="cls-96" d="M746,1224l3,1.99-2,.52,2.02,1.99-2.02,1,3.01.51-4,1.99c-.19-2.64.19-5.36,0-8Z"/>
    <path class="cls-111" d="M739,1181c-.18.23-.68,1.41-1,2-1.82-4.5-9.64,1.42-9.99,1-2.11-2.54,8.34-5.38,10.99-3Z"/>
    <path class="cls-44" d="M783,1128c-.97-.38-2.47-.27-3.33-.94-.95-.73-.57-1.97-.67-2.06,1.68-.12.84-2.49,1-4,.28-.87.62-.86,1,0,.11,1.31,1.65,5.25,2,7Z"/>
    <path class="cls-83" d="M756,1095c-.19.22.15,1.42,0,2l-1-.49c-.51-1.48-3.93-5.66-3.99-6.51,0-.11.85-1.01,1-2l4,7Z"/>
    <path class="cls-49" d="M733,1111l6.99-.99c.63.61-1.47,4.01-1.99,4.99-.88.44-1.18.06-1-1-.32-.33-.63-.74-1-1-1.14-.78-2.76-.79-3-2Z"/>
    <path class="cls-72" d="M723,1209l7,4.99-6.99-1.99c.07.61-.17,1.72,0,2-.07-2.14-.83-1.02,0-5Z"/>
    <path class="cls-148" d="M737,1186l-9,.5c2.51-3.23,6.72-1.85,10-3.5-.29.53-.69,2.13-1,3Z"/>
    <path class="cls-117" d="M659,1219l.99,4.99h4.01s-4.01,2.01-4.01,2.01c-.04-.98-.77-5.1-1-7Z"/>
    <path class="cls-66" d="M699,1191c-.42.54-.58,1.49-1,2l-7-2.99,8,.99Z"/>
    <path class="cls-82" d="M723,1218l5.01,3-5.01,3c.26-1.67.03-4.18,0-6Z"/>
    <path class="cls-78" d="M660,1231c-.66,1.24.73,3.24,2.51,2.12l.49,1.87-4,4c-.28-3.36.99-6.46,1-8Z"/>
    <path class="cls-134" d="M673,1224h8.99c-.41,2.28-4.43,1.72-5.99,2-.46.08-.87.53-1,1-.13-.34-1.47-1.99-2-3Z"/>
    <path class="cls-53" d="M688,1232c.26,2.36-.98,3.54-1,4h-5.99s0-.99,0-.99h5c2.08,0-.23-2.73,0-3.01h2.01Z"/>
    <path class="cls-82" d="M729,1217c-2.37.58-3.36.32-6,0,0-1,.03-2,0-3,.54.92,5.03,1.58,6,3Z"/>
    <path class="cls-26" d="M657,1211l6.99,2.01h-5.99c-.04-.27-.89-1.05-1-2.01Z"/>
    <path class="cls-43" d="M726,1191c-.53.05-1.37.81-2,1,.02-2.5-.78-6.34,1-8-.17,1.26.36,5.61,1,7Z"/>
    <path class="cls-136" d="M637,1123c.37-1.58.56-5.81,3-4.99.15,2.25-1.71,5.24-2,6.99l-1-2Z"/>
    <path class="cls-109" d="M666,1215c1.01-2.29-.5-4.9,2.49-5.01,1.06,1.24-.59,3.27-.49,5.01-.33.03-.67-.03-1,0s-.67-.03-1,0Z"/>
    <path class="cls-2" d="M694,1197c-.61.61-1.48,1.54-2,2-1.29-.1-2.78-.5-3-1.99l4.41-.78.59.77Z"/>
    <path class="cls-8" d="M746,1220l4,1.01c-.38,1.85-2.38,2.08-4,1.99-.07-.99.07-2.01,0-3Z"/>
    <path class="cls-127" d="M728,1233c-.1.98.05,2.01,0,3l-5.01-2.5,5.01-.5Z"/>
    <path class="cls-117" d="M660,1229c1.89-.13,4.45-.2,5,1.99-.35.3-4.1-1.68-5,0,0-.67-.02-1.33,0-2Z"/>
    <path class="cls-133" d="M774,1129c-.03.33.04.67,0,1-1.75-.09-3.42-1.27-4-2.99,1.78-.4,2.51,1.21,4,1.99Z"/>
    <path class="cls-15" d="M657,1210c-1.94-1.57-1.31-4.25,0-6,.13,1.97-.19,4.05,0,6Z"/>
    <path class="cls-84" d="M659,1200c.27,1.34,1.14,2.56.99,4-.3.4-1.41-1.03-1.99-1,0-1.01-.32-2.63,1-3Z"/>
    <path class="cls-18" d="M728,1237c0,.26-.99.77-1,1-1.29-.1-2.78-.5-3-1.99l4,.99Z"/>
    <path class="cls-126" d="M767,1081c.52-.33,1.33-.34,2-1,.83,1.44,1.38,2.13,1.01,4.01,1.92.45,2.1-.45,2.99-2.01h2c.4.46-1.67,2.39-2,3-1.83.82-2.69,2.98-3,6,.5,2.16-.26,2.95,1,6,1.13-.13,1.8.87,2,3h1c.87.28.86.62,0,1-.33.86-.66.86-1,0h-1c-.06-.2-2.32-2.91-2.99-3,1.37,5.27-.62,9.23-2.01,14-3.75.91-2.53,1.54-3,4,.02.98-.04,1.39-1,1-.4-1.55-1.88-2.68-.89-5.39.85-2.32,5.53-.23,3.88-5.61l-1.98,2.99c.18-3.05-3.16-4.85-4.01-6.99-.05-1.12.28-1.79,1-2l3.99,4.99c.97-4.48,1.73-8.55,0-12.99l-1,4.99c-.92-.03-1.82-1.2-1.99-2l1-5c.25-2.28,0-1.97,0-3-3.09-6.59-2.83-16.47,2.98-5.1.07.14-1.87-1.83,1.02-.9Z"/>
    <path class="cls-130" d="M745,1106c1.33-.77,1.8-.28,1,1-.73,1.53-4.02,23.9-4.03,26.54-.01,2.2,1.32,9.97,3.04,10.95,1.35.77,3.45.32,4.93,1.07,6.42,3.24,9.1,9.35,16.05,1.44,1.52,1.72-6.44,8.19-10.32,6.9-1.35-.45-1.84-2.79-3.3-3.77-11.2-7.43-12.31-2.36-11.41-19.68.41-7.93,3.44-14.7,2.04-22.46-.16-.9.09-2.04,0-3l1.99,1Z"/>
    <path class="cls-5" d="M750.31,1134.7c.81.98,3.2,2.14,4.7,3.8,2.91,3.25,1.34,7.16,7.99,4.51-.73,2.44-4.24,2.58-6,1.49-1.07-.67-9.44-11.25-10.04-12.95-1.89-5.32-.13-6.66.04-11.06s-1.18-10.04,1.51-13.48c3.18,9.79-5.2,19.19,1.81,27.69Z"/>
    <path class="cls-57" d="M735,1140c-1.04-12.21,2.86-21.04,7-32,2.39,4.92-2.66,9.82-3.94,14.56-1.7,6.29.49,12.57-3.06,17.44Z"/>
    <path class="cls-14" d="M755.99,1110.99c0,6.19,4.5,11.2,6,17.01-3.49-3.64-6.92-10.75-7.8-15.71-.34-1.94.11-1.24,1.8-1.29Z"/>
    <path class="cls-128" d="M760.99,1116c-4.39-3.05-3.26-11.11-3.98-15.99,1.45-.23,1.39,1.76,1.68,2.8,1.22,4.29,1.17,8.89,2.3,13.2Z"/>
    <path class="cls-45" d="M761,1100c-.06.85-.03,1.73-1,2-.97-2.44-2.15-9.09.99-10-.12,2.64.21,5.37,0,8Z"/>
    <path class="cls-5" d="M743,1102l.49-2c1.58.34,4.63,3.91,4.42,5.4-.13.99-1.8,1.38-1.91,1.6-.59.15-.94-.53-1-1-.21-1.69.12-2.51-2-4Z"/>
    <path class="cls-70" d="M756,1087c.42,1.21.03,2.83.97,4.33.74,1.17,3.36-.07,1.03,2.67-2.32-1.45-6.24-8-2-7Z"/>
    <path class="cls-4" d="M764,1116l.99,4.99c-1.44.31-1.59-2.45-1.99-3.99.19-.38.96-.79,1-1Z"/>
    <path class="cls-87" d="M763.99,1125c-1.63-.72-3.31-2.2-2.98-4,1.63.72,3.31,2.2,2.98,4Z"/>
    <path class="cls-58" d="M718,1127v1c.63,3.06.17,3.96-1.38,2.7-7.08,13.34-9.53,30.43-.62,43.3-3.17,2.39-9.82,5.48-12,1-2.89-5.94-2.26-20.41-1-27,1.3-.1,1.63,1.23,1,4,.33,7.77-2.21,15.53,5.99,20-.74-3.32-3.78-5.86-3.92-9.58-.17-4.4,2.23-18.82,3.75-23.11.75-2.14,5.77-12.07,7.21-12.87.64-.36.92.56.98.55Z"/>
    <path class="cls-40" d="M703,1176c-1.51,1.26-1.6.71-3,1-5.83-13.41-3.93-31.4,5-43-6.25,12.84-9.58,29.09-2,42Z"/>
    <path class="cls-64" d="M692,1135c-6.78,12.11-8.48,24.82-3,38-.54-.3-1.68.43-3-1l-2.09-11.5c.73-11.01,1.55-17.08,7.09-26.5,1.3-1.33,1.49-.78,1,1Z"/>
    <path class="cls-138" d="M694,1152c.7,9.22-1.27,16.68,5,25-2.81.15-3.97-1.09-5-4-1.57-4.44-1.54-17.96-1-23,1.59-1.93,1.33.02,1,2Z"/>
    <path class="cls-80" d="M675,1180c.82.65,5.94,2.58,6.08,3.65-2.29,2.53,1.95,9.93-3.08,6.35.66-1.62-.41-4.36-1-6l-2-3v-1Z"/>
    <path class="cls-41" d="M693,1174c.43,1,1.41,1.54.99,3-1.05-.35-2.47-2.09-2.99-3-1.79-3.13-1.79-5.6-2-9-.76-2.17-1.57-7.25,1-7,.02,7.66,0,9.04,3,16Z"/>
    <path class="cls-60" d="M703,1185c-2.82-.08-5.35.13-8.24-.29-1.6-.24-4.5-.18-3.75-2.71l12.99,1.01c.32.22-.81,1.39-1,1.99Z"/>
    <path class="cls-19" d="M718,1128c-.5,2.23,2.11,2.21,3,4-2,7.44-3,15.18-3.02,23.21l-.98.79c-.24,2.66-.64,5.85-1.02,8.5-.26,1.74.52,1.68-1.97,1.5.86-3.91-1.08-7.94-1.09-11.49,0-6.61,3.12-14.21,4.64-20.45.24-1.01,1.31-3.27-.55-3.04-1.21,3.66-2.76,7.14-3.55,10.96-1.67,8.07-4.46,25.63,3.53,31.03-.29.38-.62.71-1,1-11.04-13.03-8.4-33.44,2-46Z"/>
    <path class="cls-37" d="M752,1167.01c-2.55,3.29-3.03,6.77-7.98,4.47l-12.02-14.47c3.65,1.03,5.07,4.76,8.5,6.99,1.41.92,2.95.94,4.41,1.58,2.57,1.13,2.39,3.59,7.1,1.42Z"/>
    <path class="cls-98" d="M742,1173c1.66,1.03,2.61.75,4,1.5-3.91,4.47-2.47,1.34-3.27.82s-1.61-.23-1.72-.31c-4.36-3.12-4.69-6.32-7.64-8.86-1.93-1.66-10.19-7.07-11.86-3.15-1.57-6.19,7.92-1.71,10.86.15,3.63,2.28,5.24,7.13,9.64,9.86Z"/>
    <path class="cls-33" d="M721,1132c.82-2,2.46-5.32,4-1.5.27.67-1.57.69-2,1.5-4.96,9.4-4.2,17.65-4,28-.35-1.17-1.3-2.92-2-4,.89-9.69,0-14.22,4-24Z"/>
    <path class="cls-68" d="M732,1136c1.27,5.92,1.94,11.14,4.52,16.98,1.37,3.11,4.43,5.72,3.99,8.01-6.24-6.52-11.34-20.12-10.5-29,1.13.17,1.79,1.51,2,4Z"/>
    <path class="cls-115" d="M728,1134c.21,9.38,2.13,13.72,5.99,22-6.52-7.14-8.9-16.58-6.99-26,2.21-1.31,1.67,2.16,1,4Z"/>
    <path class="cls-71" d="M738,1115c-3.67,6.92-7.27,12.44-6,21-.21-.97-1.4-3.01-2-4,.54-5.73,3.5-13.38,7-18,.33.34.64.69,1,1Z"/>
    <path class="cls-119" d="M725,1134c-.73,2.49-.61,6.05-1.52,8.98-.33,1.04-1.13,4.04-2.47,4.02l2.99-15,1,2Z"/>
    <path class="cls-103" d="M728,1134c-.03-1.32.5-3.31-1-4v-1c.3-.94.65-2.11,1-3,.98-2.51,2.05-7.79,5.01-8.49-.84,2.96-2.82,5.4-3.57,8.43-.68,2.75.36,6-1.44,8.06Z"/>
    <path class="cls-62" d="M730.99,1161c-2.23-1.22-4.35-2.6-6.56-3.89-1.44-.84-2.64-1.79-1.43-3.1,1.91-.35,9.36,5.51,7.98,6.99Z"/>
    <path class="cls-12" d="M726,1152c-.62-.82-.74-3.03-1.5-3.01l-2.49,3.01,2-7c2.27-1.95,2.59,4.93,2.99,6,1.33,1.41.77,1.92-1,1Z"/>
    <path class="cls-116" d="M751,1172h5s0,.99,0,.99c-2.17.24-4.95.41-6.99,1.01.6-.67,1.51-1.27,2-2Z"/>
    <path class="cls-37" d="M727,1151c.37,1.01,2.72,2.05,1.99,4-1.51-.32-2.17-1.92-2.99-3l1-1Z"/>
    <path class="cls-104" d="M696,1136c-5.48,8.53-6.03,11.8-6,22-1.62,1.28-1.13,4.92-1,7-1.65-1.6-1.19-5.41-1.04-7.55.68-9.77,1.78-14.37,7.04-22.45l1,1Z"/>
    <path class="cls-31" d="M704,1152c-.06-1.46.24-2.85-1-4,1.03-5.39,4.8-13.53,8-18l-5.57,14.93-1.43,7.07Z"/>
    <path class="cls-102" d="M694,1152c-.06-.85-.03-1.73-1-2,.45-4.18,2.38-10.46,5.99-13l-4.99,15Z"/>
    <path class="cls-14" d="M708,1130c1.22-1.79,1.93-5.02,4.99-6,1.35,1.54-4.1,5.13-4.99,6Z"/>
    <path class="cls-29" d="M705,1134c.33-.67.18-1.51.95-2.55.56-.76,1.57-.98,2.05-1.45-1.23,1.8-1.8,2.45-3,4Z"/>
    <path class="cls-50" d="M678.99,1161.99c-1.41-.12-1.75-4.49-1.86-5.62-.21-2.13-.19-4.25-.11-6.37,1.41.12,1.75,4.49,1.86,5.62.21,2.13.19,4.25.11,6.37Z"/>
    <path class="cls-109" d="M668.99,1207c.44,2.61-.4,1.79-2.16,2.29-3.5.99-6.14,1.17-8.83-1.79,3.83.07,7.21,1.17,10.99-.49Z"/>
    <path class="cls-84" d="M669,1200.01c-1.43,2.52-5.23,3.96-8,3.98l8-3.98Z"/>
    <path class="cls-86" d="M676.99,1211.01c-.51,2.21-5.31.47-6.99.98,1.27-3.3,4.49-1.65,6.99-.98Z"/>
    <path class="cls-106" d="M672,1197l4.01,1.01v1.99c-.46.4-5.06-.51-6.01-.99.28-1.17,1.33-1.41,2-2Z"/>
    <path class="cls-25" d="M667,1205.98c-.2.24-4.68,1.3-4.99,1.01v-1.99s4.98-1,4.98-1c-.05.62.16,1.8,0,1.98Z"/>
    <path class="cls-69" d="M678,1209.99c-1.61-.24-5.4-1.27-5.99-2.98,2.61-.4,4.98.38,5.99,2.98Z"/>
    <polygon class="cls-90" points="677.99 1204.01 678 1204.99 674.01 1204.99 674.01 1203 677.99 1204.01"/>
    <path class="cls-62" d="M780,1121c.18-1.64-.39-3.25.49-4.99,1.46-2.87,11.6-6.62,13.51-2.01-.81.52-.86.7-2,1l-.16,1.41c-3.39-.1-6.67.43-9.84,1.59-.9,1.22-1.15,1.2-1,3h-1Z"/>
    <path class="cls-75" d="M792,1115l3.01,1.01c-.33,1.02-.83,1.9-1.01,2.99-3.8-.44-7.47-.11-11,1-.79-.62-1.06-.91-1-2,2.42-3.28,6.53-2.1,10-3Z"/>
    <path class="cls-44" d="M794,1119c-.05.34.08.7,0,1-2.88-.7-9.63,1.08-11,0-.94-3.59,8.17-2.18,11-1Z"/>
    <path class="cls-129" d="M799.99,1126c-2.82-1.28-4.31-3.99-1.48-5.99l1.48,5.99Z"/>
    <path class="cls-1" d="M791,1122v1c-2.82,0-5.28-.18-7.51,1.99-2.09-3.52,5.21-2.8,7.51-2.99Z"/>
    <path class="cls-55" d="M774,1100c-1.53-3.4,1.65-5.2,1.73-5.51.83-3.07.81-6.96,1.49-9.76.35-1.44,2.35-1.99,1.76-3.73l-1.98,1.02c.38-2.59-.27-6.01,2.98-7.01,4.18,6.13-5.53,11.9,0,16l2-6.99-.99,6.99c1.52-1.15,1.66.65,1,2-.91,1.36-1.91,2.7-3,4,.92.33.92.66,0,1-.04.16-.74.59-1,1-1,.23-1.67.9-2,2-.24.4-.83.68-1,1-1.36,1.04-1.8.5-1-1v-1Z"/>
    <path class="cls-101" d="M773,1085c-1.08,2.01-1.56,4.27-3,6-.3-1.29-2.66-6.19-1.99-7,.95-.1,1.33,1.24,1.99,1.53,1.43.64,2.52-2.72,3-.54Z"/>
    <path class="cls-146" d="M783,1092v1c-.31.85-.65.85-1,0l-1-2,2.99-6-.99,7Z"/>
    <path class="cls-67" d="M773,1100c-.72-.85-1.59-2-2-3v-4c2.77.91,1.97,4.51,2,7Z"/>
    <path class="cls-144" d="M774.99,1092c-1.92-.49-2.25-2.21-1.98-3.99.48-1.03,2.39,2.69,1.98,3.99Z"/>
    <path class="cls-89" d="M689,1133c1.51-3.66,3.45-9.23,8-9.99-2.62,3.36-5.29,6.7-8,9.99Z"/>
    <path class="cls-47" d="M694,1131c-.73,1.3-1.28,2.71-2,4l-1-1c1.2-2.04,1.77-2.43,3-4v1Z"/>
    <path class="cls-21" d="M689,1133c-.49,1.18-.64,2.74-1.01,3.99h-.98c-.76-2.68,1.09-2.9,1.99-3.99Z"/>
    <path class="cls-93" d="M695,1121.01c.49.38-1.75,2.65-3,1.98-.49-.38,1.75-2.65,3-1.98Z"/>
    <path class="cls-135" d="M733,1204.99c-.27.28-5.85,1.73-6.99,2.01-.66-3.48,4.99-1.86,6.51-3.98.85-.13.56,1.9.48,1.97Z"/>
    <path class="cls-6" d="M775,1102c-1.97,3.66-4.52,13.57-3.02,17.52l-1.98.48c-.86-6.61,2.18-12.58,2.99-19,.32.06.69-.08,1,0,.47.11.83.55,1,1Z"/>
    <path class="cls-121" d="M785,1096c.16.43.59.78,1,1-.09.06.39,1.72-.65,2.01-1.45.39-5.49.42-6.35-1.01.05-.22.06-.78,0-1-.59-2.95,4.96-3.18,6-1Z"/>
    <path class="cls-6" d="M778,1099c-.68,1.08-1.84,1.74-2,2l-.99-5,2.99,3Z"/>
    <path class="cls-19" d="M725,1120c1.32,3.06-.03,5.36-3,3,1.53-1.93-.49-1.77,3-3Z"/>
    <path class="cls-59" d="M759,1179.01l-1.01,4c-5.43-2.47-8.98.59-13.98,1.98.42-3.59,14.14-6.79,14.99-5.98Z"/>
    <path class="cls-113" d="M769,1080c-.13-.23-1.22-.56-1.77-1.69-1.82-3.71-4.48-10.4-2.7-14.29,2.42-5.32,5.68-2.17,7.24,1.72,2.34,5.85,1.54,10-2.76,14.26Z"/>
    <path class="cls-32" d="M767,1081c-.38.25-.7,1.68-1.5,1.98l-3.49-5.98c-.68,2.95,1.48,4.98,1.91,7.52.18,1.06-.92,2.13-.92,2.48l-1.99-3,.97,4.51-1.97.48c.42-1.38-.98-3.18-1.01-4-.12-2.82.98-9.02,4-10,.16.4,3.69,4.13,4,6Z"/>
    <path class="cls-74" d="M752.99,1207.01l-6.99.98c-.4-1.77,1.56-.62,1.92-1.05.27-.32-1.34-2.46-.91-2.94l5.99,3.01Z"/>
    <path class="cls-73" d="M758,1085l.51,6.01c-.94-1.6-1.46-4.16-1.51-6.01h1Z"/>
    <path class="cls-120" d="M762,1095c-.27-1.3-.35-4.38,1-5-.17,1.56.7,4.14-1,5Z"/>
    <path class="cls-132" d="M670,1191c-.06.32.05.67,0,1-1.62.86-10.83,1.77-11.01.49-.89-6.35,8.36-2.17,11.01-1.49Z"/>
    <path class="cls-108" d="M659,1198v-2.99s10.01-1,10.01-1c.06.66-.06,1.34,0,2l-10,2Z"/>
    <path class="cls-99" d="M677,1184c-1.45-.63-2.33-1.33-2-3,1.77.21,1.58,1.81,2,3Z"/>
    <path class="cls-142" d="M782,1093c.34.04.71-.07,1,0,1.87.49,1.63,2.02,2,3l-6,1c-.28-.94-1.34-1.76-1.99-2.51v-1.48c1.62.12,3.38-.19,4.99,0Z"/>
    <path class="cls-52" d="M752,1199.99c-1.74.48-6.19-2.51-4.99-3.99l4.99,3.99Z"/>
    <path class="cls-91" d="M751,1194.99l-3.99-.49c1.55-2.18,3.08-1.94,3.99.49Z"/>
  </g>
  <rect class="cls-76" x="782.18" y="1095.25" width=".72" height=".72" rx=".36" ry=".36"/>
</svg>