<?xml version="1.0" encoding="UTF-8"?>
<svg id="Lager_1" data-name="Lager 1" xmlns="http://www.w3.org/2000/svg" viewBox="0 0 1254 1280">
  <defs>
    <style>
      .cls-1 {
        fill: #86d09c;
      }

      .cls-2 {
        fill: #453832;
      }

      .cls-3 {
        fill: #045a1c;
      }

      .cls-4 {
        fill: #2a1d18;
      }

      .cls-5 {
        fill: #1f1510;
      }

      .cls-6 {
        fill: #6c6c6c;
      }

      .cls-7 {
        fill: #3d2f2a;
      }

      .cls-8 {
        fill: #541911;
      }

      .cls-9 {
        fill: #035b1c;
      }

      .cls-10 {
        fill: #525252;
      }

      .cls-11 {
        fill: #176e2e;
      }

      .cls-12 {
        fill: #050201;
      }

      .cls-13 {
        fill: #541810;
      }

      .cls-14 {
        fill: #685e5a;
      }

      .cls-15 {
        fill: #66c885;
      }

      .cls-16 {
        fill: #201410;
      }

      .cls-17 {
        fill: #675d59;
      }

      .cls-18 {
        fill: #291314;
      }

      .cls-19 {
        fill: #89d8a4;
      }

      .cls-20 {
        fill: #1e1410;
      }

      .cls-21 {
        fill: #615853;
      }

      .cls-22 {
        fill: #493c36;
      }

      .cls-23 {
        fill: #23a649;
      }

      .cls-24 {
        fill: #675c58;
      }

      .cls-25 {
        fill: #372823;
      }

      .cls-26 {
        fill: #045c1d;
      }

      .cls-27 {
        fill: #88cd9e;
      }

      .cls-28 {
        fill: #239d46;
      }

      .cls-29 {
        fill: #6fcc8f;
      }

      .cls-30 {
        fill: #151c0f;
      }

      .cls-31 {
        fill: #8ed5a5;
      }

      .cls-32 {
        fill: #121b0e;
      }

      .cls-33 {
        fill: #7bcc91;
      }

      .cls-34 {
        fill: #4f4440;
      }

      .cls-35 {
        fill: #655b57;
      }

      .cls-36 {
        fill: #362722;
      }
    </style>
  </defs>
  <path class="cls-4" d="M665,172c5.49.49,5.76.84,3.28,5.59.3.35,7.57,1.6,8.72.41.47-2.62,1.21-2.5,2,0,4.71,2.21,8.34.6,10.86-3.8l2.14-.2c2.17,2.33,4.05,5.41,5.65,9.23,1.71-.15,1.66,1.25,1.35,2.77,1.46.7,2.12,1.7,2,3l2.58.17c1.43,5.97,13.51,5.51,16.19.88l2.23-.05c-2.49-1.33-1.56-3.57,1-4,.49-1.7,1.34-3.5,3-2,.58,3.03,1.49-1.01,1-3-.79-1.41.41-3.91,2-3,1.76-.24,3.61.52,5.55,2.28,3.94.32,6.1,1.56,6.45,3.72,4.18,9.65,4.69,21.08,2.93,31.43s-5.69,16.56-9.44,25.56c-1.93,4.62-2.82,11.28-4.49,16.01,2.57,1.87.9,4.48-2,3-1.73,1.45-.49-.42-.49-.31.25,6.86-7.3,4.42-11.28,2.8l-.23.51c1.91,1.15-1.48,3.34-3,4,1.03,2.47-.09,2.89-2,1-3.56-.59-5.22-3.26-5-8,.43-4.02-13.03-4.3-13.96-3.59.21,2.76.3,5.93-3.04,4.59l-1,6c-.61,2.54-1.04,2.4-2,0q-.56-1.74,0,0c2.47,3.63-3.14,3.58-5.32,1.42-3.17,4.01-6.63,5.29-8.34-.42-1.7.06-2.8-.14-3.35-1.99-2.77,1.55-4.34-2.16-2-4-.87-4.06-1.38-9.68-2-14-.73-5.21-.71-9.4.35-14.55,2.68-13.09,1.05.65-.97,5.29-.11.24-.67.28-1.38.27-7.92-12.51-10.59-25.55-7.75-40.25,1.78-9.19,7.42-17.4,6.75-26.75-.5-3.45,3.12-3.41,3,0Z"/>
  <path class="cls-28" d="M802,281c2.67,2.99,5.66,7.27,5.03,11.49-.5,3.32-3.69,2.95-6.03,3.51-2.73.06-5.4.39-8,1-1.99.08-4-.04-6,0-3.73-.39-7.4-.73-11-1-5.04.2-10.04.53-15,1-11.76.44-22.53,3.47-34,4l-7,1c-8.65.09-17.35.04-26,0l-11-1c-3.64-.02-7.36.16-11,0l-5-1c-6.7-.35-13.26-.39-20-1-1.55-.61-3.21-.94-5-1-7.82-.79-16.58-.85-24.4-2.1-3.13-.5-8.12-.91-9.6-3.89,4.09-1.14,9.05-1.82,13-3.01,5.5-2.79,9.59-6.21,12.29-10.25.88-5.82,3.7-17.88,9.44-7.8l5.2-5.6c1.76-2.29,3.45-2.74,5.07-1.34.78.79,2.9.67,4,3h1.37c.5,3.31,3.34,2.58,8.5-2.19l2.13,1.19c1.2-.32,3.49.03,4.88.12.82.56.68,6.21,3.18,3.22,5.08-6.08,4.09-1.44,7.46-1.32.89.03,1.3-.98,1.48-1.02.4-.08,1.73-.1,2,0,1.21.19,2.54.53,4,1-.17-2.71,3.29-4.17,5-2,2.39-1.98,5.06-1.32,8,2,1.15-3.01,4.07-2.01,6,0,.56-.1,1.33-.79,2-1,2.15-2.02,4.15-3.02,6-3,3.19,1,5.8.49,7.83-1.54l1.17.54c.91-3.4,4.01-3.19,9.29.62,13.6-8.33,18.29-7.32,24.14,7.51,1.84,2.71,4.76,2.34,8.75-1.1l7.98-.04c11.69-7.63,18.99,1.23,23.83,11.02Z"/>
  <path class="cls-36" d="M696,150c2.78-.86,5.74-.58,8.9.84,0-7.24,6.73-5.44,8.67.15,3.56-2.81,8.03-2.47,13.43,1.01,3.04-1.35,5.7,4.3,3,6,2.01,4.03,5.9,5.39,10.02,6.45,8.09.63,12.08,3.48,11.98,8.55,1.46,1.49,6.29,4.82,5.96,6.4-1.74,3.16-4.04,2.46-6.96,2.6-1.93-.59-1.96-1.48,0-2-1.47-4.05-3.47-7.72-6-11-1.9,2.01-2.65,1.71-3-1l-.38,1c-4.02,0-7.56,1-10.62,3,1.29,1.47.72,2.01-1,1-1.43,2.94-3.35,6.52-5.74,10.73l-1.26-.73-2.15-.97c-1.03-9.37-16.54-9.7-18.61-.88l-2.24.85c-.69,2.21-1.38,2.79-2.06,1.75l-5.03-10.14-.91.39c-2.65,5.67-6.63,8.68-12.99,5.99v-1.99s.52-2.22.52-2.22c6.04-.33,8.86-2.26,8.47-5.78-2.37-1.72-5.04-3.05-8-4-.6,1.84-1.38,1.85-2,0-.77.86-2.18.3-2-1-.18-1.05.02-1.98.66-2.8,7.57-1,13.18-5.19,16.81-12.58l2.52.37Z"/>
  <path class="cls-9" d="M802,281c-1.6-1.79-4.58-4.02-6.52-5.98-2.11-2.13-2.47-4.99-6.19-5.83-5.45-1.22-6.86,2.18-10.84,2.76-2.77.4-6.29-.55-8.78.22-2.02.63-2.14,3.43-6.14,2.86-6-.86-6.01-13.68-12.26-14.88-5.4-1.04-11.29,7.25-15.97,5.12-3.54-1.61-2-4.27-7.3-2.27-1.77.39-.94-1.98,0-3,.65.08,1.77-2.34,2-3,7.64,5.61,14.26-1.45,20.67-1.68,2.97-.11,6.01,1.1,9.77.6,5.42-.71,12.83-7.68,15.89-6.8,2.71.78,3.75,6.28,5.65,8.41,6.66,7.46,21.6,9.88,20.03,23.47Z"/>
  <path class="cls-6" d="M708,141c2.84,4.52-7.79,9.64-12,9-3.46,2.77-6.1,9.37-8.68,11.05-2.98,1.95-8.48,1.38-11.32,3.95-.33.86-.67.86-1,0-9.51,6.63-21.37-3.47-20-14,2.89-6.15,9.97-11.91,17-12,.67,2.64-.96,1.72-1.91,2.55-5.16,4.58-11.42,8.32-8.91,16.77.75,2.54,7.92,5.01,10.2,4.73.68-.08.58-1.46.94-1.68,1.25-.74,2.48-.62,3.72-1.82,4.46-4.31,8.7-11.52,12.97-16.04,5.37-5.67,12.39-7.82,18.98-2.52Z"/>
  <path class="cls-6" d="M711,140c14.66-7.5,19.77,8.2,27.96,16.53,4.39,4.47,8.58,9.44,15.02,3.95,3.85-3.27,1.95-10.52-.96-14-2.47-2.95-7.35-3.69-8.01-7.48,1.05-.91,8.47,2.51,9.94,3.56.71.5,5.73,5.55,6.09,6.13.69,1.1.57,2.37.97,3.32,1.02,20.6-23.18,16.39-32,6-.88-2.15-1.53-4.12-3-6-6.68-1.91-12.35-5.18-17.02-9.83l1.02-2.17Z"/>
  <path class="cls-9" d="M653,264c-4.43,2.38-6.61,6.74-10.5,9.99-2.38-1.22-1.33-5.71-4.49-4.98-2.15,3.89-1.87,10.74-4.55,13.96-2.48,2.98-8.81,4.94-12.46,6.04,7.4-8.86,10.44-20.61,18.51-28.99,2.57-1.11,1.89,6.06,3.99,6.99.47.21,2.72-7.45,5.09-7.96s3.47,4.02,4.41,4.96Z"/>
  <path class="cls-22" d="M727,152c-4.91,2.24-6.06-4.16-11.54-.03-1.79,1.35-1.75,3.55-3.45,4.03l-1.01-7-1.5.8-.5-1.79c-3.49-.87-1.57,3.51-2,5.99l-10.99-4c3.99-3.19,9.49-4.06,12-9,2.28,2.02,2.02-.5,3-1,3.39,6.38,11.74,6.56,16,12Z"/>
  <path class="cls-10" d="M675,165c1.02,1.23-2.61,4.98-4,6-1.23,3.02-2.1,3.56-2.61,1.63l-3.39-.63c-.68,0-1.87-1.1-3,0-6.92-6.06-11.35-11.74-7-21,2.35,4.7,3.55,10.08,8.63,12.87,3.74,2.06,7.45.73,11.37,1.13Z"/>
  <path class="cls-10" d="M752,173c-1.91-1.95-3.69-5.11-6.26-6.24-4.17-1.84-12.54-.99-15.25-5.79-.66-1.17-.25-2.4-.49-2.97,7.8,5.48,21.76,12.04,28.46,1.96,1.74-2.61,1.59-5.67,3.54-7.96,2.84,6.7.91,12.95-4.95,17.55-1.79,1.4-4.14,1.38-5.05,3.45Z"/>
  <path class="cls-36" d="M751,180c-.14.56.09,1.36,0,2-3.11.16-6.27-.13-9.38-.03l-.62,2.03c-4.64-1.28-9.39-1.26-12-6-1.71-.75-.66-4.43,1-5l1.2-.37c3.88,4.82,10.1,6.61,18.65,5.39l1.16,1.98Z"/>
  <path class="cls-26" d="M657,267c2.71-1.48,2.99-6.03,6.9-4.88l.68,1.78,2.42-1.9c.17.78,1.38,3.2,2,4-2.52.67-7.51,7.1-11.07,4.57-1.32-.94-.62-2.92-.93-3.57Z"/>
  <path class="cls-5" d="M665,248c-.32-2.23-2.05-7.93-2-9,.06-1.39,2.52-8.34,3.24-10.26.49-1.29,1.29-4.51,2.75-4.74l-2.92,9.57-1.08,14.42Z"/>
  <path class="cls-27" d="M776,296c.87.28.86.62,0,1-4.98.09-10.03-.18-15,0-.12-.83.78-.94,1.48-.99,4.34-.29,9.12-.04,13.52-.01Z"/>
  <path class="cls-15" d="M787,297c-3.66.08-7.34-.07-11,0v-1c3.45.02,8.4-.84,11,1Z"/>
  <path class="cls-33" d="M694,302c-3.44-.01-8.4.83-11-1,3.44.02,8.4-.83,11,1Z"/>
  <path class="cls-29" d="M801,296c-3.33.8-4.4.86-8,1,1.67-2.03,5.51-.65,8-1Z"/>
  <path class="cls-1" d="M727,301c-1.29,1.75-4.82.98-7,1,1.32-1.81,4.8-.9,7-1Z"/>
  <path class="cls-19" d="M647,299c-2.15-.19-4.35-.93-5-1l4.32.18.68.82Z"/>
  <path class="cls-31" d="M672,301c-2.23-.1-4.73-.99-5-1l4.32.18.68.82Z"/>
  <path class="cls-24" d="M723,183c2.34.16,1.42,1.44,0,3-.15,1.81-.33,2.37-1,4l-1.97,1.17c-5.55-1.77-11.37-1.98-17.45-.63l-1.58-1.54c-.22-.15-1.34.35-1.83-.18-.62-.68.04-2.25-.17-2.82-.39-1.83-.36-2.63,1-4,1.21-6.69,5.5-9.29,12.48-9.06,6.48.22,9.88,3.9,10.52,10.06Z"/>
  <path class="cls-34" d="M722,190c-2.51,6.07-8.5,5.72-14.55,5.05-5.23-.58-4.83-4.94-6.45-6.05,6.07-1.34,15.7-2.49,21,1Z"/>
  <path class="cls-16" d="M706,260l1.99,6c.83-12.86-2.24-24.63-1.99-37.5.02-1.2-.74-3.73.99-3.49-.98,13.21,4.69,26.57,1.92,39.54l2.09,3.46c-2.29.41-3.94.08-6,0-2.43-1.61-1.69-5.2,1-6,.04-.66,0-1.34,0-2Z"/>
  <path class="cls-14" d="M677,167l1.23,1.76c-4.69,5.21,6.76,3.32,9.77,1.24.05.54,2.06,1.21.08,3.56-1.11,1.32-7.43,4.14-9.08,4.44-.59.11-1.34-.03-2,0-2.02,1.76-9.97,1.21-6-3,.05-3.09,3.1-10.59,6-8Z"/>
  <path class="cls-20" d="M686,267c-2.02-.42-.64-2.78-.5-4,.27-2.41.66-4.81.74-7.25l9.75-29.74c.51,9.47-5.21,17.91-7.49,27-1.24,4.93-1.26,9.26-2.5,14Z"/>
  <path class="cls-5" d="M727,181c1.98.93.61,3.37.33,4.83-1.19,6.34-2.76,12.77.46,18.88,1.3,2.46,4.1,3.49,4.2,6.29-9.65-6.36-8.41-17.14-5.99-27-1.49-1.11-.59-2.52,1-3Z"/>
  <path class="cls-25" d="M671,175c1.37,3.75,1.73,3.2,6,3,.43,3.63-1.27,1.22-2.77,1.23-2,.02-3.88,1.09-5.53.64-3.98-1.07-2.56-4.69.3-6.38l-4-1.5c2.05.02,4.21.23,6-1,.48,1.07.48,2.4,0,4Z"/>
  <path class="cls-22" d="M692,174c-.18-.52-2.13-7.05.51-4.01l5.49,13.49,2-1.48c-.25,1.37,0,2.8-1,4-.83-2.19-5.4-7.31-7-12Z"/>
  <path class="cls-2" d="M730,173c-.51,1.35-.57,3.96-1,5-.27.65-1.52,1.52-2,3-.34,1.03-.71,1.81-1,3l-3,2c.08-.91.09-2.1,0-3,3.29-.96,4.05-8.54,5.21-9.82.49-.54,1.54-.03,1.79-.18Z"/>
  <path class="cls-18" d="M728,260v3c-4.95,1.87-3.83,4.12-9,1-1.28.32-2.84.71-3-1-.03-.14-1.16-.25-1.01-.99,5.19-.44,11.1,5.58,12.04-3.03.48.11.83,1,.97,1.02Z"/>
  <path class="cls-23" d="M719,264c-1.7.62-3.89,2.96-5.04,3.48-.67.3-.91-.5-.96-.48.29-1.21,3.18-3.19,3-4,1.65-.48,2.11.46,3,1Z"/>
  <path class="cls-20" d="M689,266c1.37,1.7.82,2.19-1,1-.71-2.69.43-4.18,1-6-.17,1.59.25,3.5,0,5Z"/>
  <path class="cls-3" d="M706,262c-.11,2.11-.28,4.01-1,6-.28-.01-.99.84-2.06.52-1.91-.58-3.38-3.16-5.94-2.52.41-.27.79-1.92,1.98-2.48,1.96-.92,4.89-.62,7.02-1.52Z"/>
  <path class="cls-11" d="M692,268c-3.65,1.07-2.11-.27-4-1,.9.1.88-.28,1-1l3,2Z"/>
  <path class="cls-17" d="M751,180c-5.48.12-14.28-.16-18.55-3.95-1.12-.99-1.07-2.76-2.45-3.05.06-.04.96-.94,1-1,.28-.87.62-.86,1,0,2.93,1.91,16,4.21,12.01-.87l.99-2.13c.76.32,1.35-.05,2.45,1.01.95.92,4.14,6.43,4.32,7.68.17,1.16-.61,1.67-.77,2.31Z"/>
  <path class="cls-13" d="M745,169l2.97,4.51c-.02,2.73-15.72,4.89-15.97-1.51l-.14-1.05c3.5-.75,6.88-1.73,10.14-2.95,1.2.12,1.97.56,3,1Z"/>
  <path class="cls-8" d="M680,166l1.66,1.21c3.64.08,5.75,1.02,6.34,2.79.46,5.92-13.95,4.4-13.97,1.51l2.97-4.51c-1.39-1.22-.78-1.62,1-1,.64.08,1.39-.11,2,0Z"/>
  <path class="cls-21" d="M723,162c.28-.36-.83-3.37,3.39-1.89,2.55.89,2.12,6.34,0,6.87l-3.39-.98-1,3.01-3-4.49c.46-1.67,3.84-2.31,3.99-2.5q2.57.67,0,0Z"/>
  <path class="cls-35" d="M698.99,168.99c-1.61.39-.58-1.12-1.24-1.68-1.45-1.24-3.85.46-3.83-3.81.02-6.31,6.4-3.34,7.92,1.01l-2.85,4.49Z"/>
  <path class="cls-12" d="M742,168l-.04,1.95-9.96,2.05h-1c.15-.23-.36-1.25.21-1.76,2.04-1.83,8-2.51,10.79-2.24Z"/>
  <path class="cls-4" d="M678,166c-.43.18-.73.88-1,1-.68.31-1.53-.06-2.47.98-1.4,1.53-2.2,5.14-3.53,7.02-.64-1.76-.89-1.64,0-4s2.6-3.92,4-6c.33.03.67-.04,1,0,1.92.21,1.89.99,2,1Z"/>
  <path class="cls-12" d="M680,166c3.02.54,5.84.2,8.96,2.08.02.68-.99,1.6-.96,1.92-2.55-1.88-8.7-.58-8-4Z"/>
  <path class="cls-7" d="M707.99,184c-1.41-.45-4.95-4.02-3.99-5,2.48-.34,3.98,2.89,3.99,5Z"/>
  <path class="cls-36" d="M719.82,181.84c-.12.18-3.1,1.53-3.81,2.16l3.5-5c.94.11.64,2.33.31,2.84Z"/>
  <path class="cls-32" d="M723,162c.44-1.16,3.31-1.3,3.99.5-.78.78-1.32,1.81-2.48,1.5-.41-.52-1.77-1.31-1.51-2Z"/>
  <path class="cls-30" d="M699,162v1.99c-1.85.24-2.91.04-3.99-1.5l3.99-.49Z"/>
</svg>