<?xml version="1.0" encoding="UTF-8"?>
<svg id="Lager_1" data-name="Lager 1" xmlns="http://www.w3.org/2000/svg" viewBox="0 0 1254 1280">
  <defs>
    <style>
      .cls-1 {
        fill: #483628;
      }

      .cls-2 {
        fill: #483729;
      }

      .cls-3 {
        fill: #d4b694;
        font-family: Baloo2-ExtraBold, 'Baloo 2';
        font-size: 50px;
        font-weight: 700;
      }

      .cls-4 {
        fill: #423728;
      }

      .cls-5 {
        fill: #383828;
      }

      .cls-6 {
        fill: #79796f;
      }

      .cls-7 {
        fill: #48382a;
      }

      .cls-8 {
        fill: #473728;
      }

      .cls-9 {
        fill: #493628;
      }

      .cls-10 {
        fill: #46382a;
      }

      .cls-11 {
        fill: #463628;
      }

      .cls-12 {
        fill: #47392b;
      }

      .cls-13 {
        fill: #4a3628;
      }
    </style>
  </defs>
  <g>
    <path class="cls-13" d="M518,0c4.71,1,8.59,3.84,11.63,8.53,4.47-4.19,12.73-7.55,10.9,1.83-6.46,8.19-10.39,14.34-.14,21.61,5.95,6.46-2.26,18.03-7.83,21.99-9.3,1.27-6.11,9.63.88,12.52,5.47-1.15,9.22-1.01,9.82,5.52,6.68,2.41,13.92,3.6,21.69,3.55,6.76.51,11.72,2.39,15.35,8.38,6.71.13,20.89.64,24.44,7.18,2.05,20,23.96,22.69,39.98,23.45l3.43,1.9c8.63,11.07,24.95,10.49,25.64-5.14-8.2-17.02-2.59-23.14,13.91-27.95,10.44-9.45,17.49-9.41,21.14.13,7.73.59,11.21,3.17,11.42,11.19l26.57,2.62c3.5,2.28,6.25,5.6,8.27,9.93l2.57-2.82c11.47.88,22.66,3.08,32.82,9.21,6.41,2.29,27.02,8.62,27.77-1.95.93-1.02,13.6-8.25,14.96-8.64,1.84-.53,25.35,5.84,26.57,6.77,4.71,3.59-1.01,6.15-5.21,4.38l9.59,19.58c-2.49,16.85,10,33.49,22.61,43.57,1.11,4.73,1.62,9.67,1.54,14.82,11.28,10.77,21.47,25.37,24.78,40.66,4.33,1.57,6.52,3.97,6.58,7.18-4.06,13.65-1.77,17.69,11.27,21.76,10.76,16.14,17.45,33.02,15.32,52.72,1.18,8.1,3.37,15.08,12.25,15.65,1.08,4.59,3.78,7.01,8.12,7.26,9.52,13.76,12.32,31.73,13.84,47.84,10.03,5.87,20.17,12.33,28.36,20.71l4.4,8.02c6.92.79,12.12,3.3,15.62,7.53l7.13,13.17c5.43,2.79,7.68,4.38,7.14,11.03,6.53,8.06-.38,11.5-7.76,13.5l.64,1.75c5.7-1.84,10.75-.9,13.2,5.32,2.16,10.15,4.04,14.36,14.76,10.93,11.66-5.16,20.33-6.3,32.63-4.71,6.58-6.19,11.04-8.24,20.23-7.64l6.25-2.71c11.3-.76,20.98-2.01,30.25-9.32,9.01-3.56,10.52,3.55,11.31,10.64,4.06,5.83,3.88,12.43-.54,19.8.63,8.58-.89,16.29-4.55,23.12-8.43,12.82-15.88,24.69-21.17,39.17-.47,12.48-5.85,19.31-13.69,28.19-4,17.01-12.03,25.9-25.72,36.17-2.46,4.97-5.19,9.78-8.18,14.43-22.29,13.02-39.24,29.92-54.62,51.02l-17.48,16.96c-6.46,12.69-15.8,23.11-25.14,33.51-.66,7.64-2.74,14.45-6.24,20.43,8.19-.05,11.58,12.62,4.27,16.2-7.77-.4-17.08,3.62-13.53,12.62,9.07,7.7,11.26,14.75,4.11,25.11-2.65,8.07,5.18,43.71,14.62,48.22,9.07,3.61,11.99,9.85,6.38,18.27-.73,19.99-.98,40.07-.74,60.23-3.97,6.05-8.92,11.55-14.87,16.52-.04,16.73-17.75,28.08-32.77,30.94l-5.21,2.95c-7.66,9.12-16.15,17.44-25.18,25.35-4.46,10.85-7.05,13.9-19.61,15.42-7.48,4.39-3.06,9.22,1.42,13.57-.12,5,1.1,9.85,3.68,14.54l.08,8.83c3.95,6.39,3.99,13.67.11,21.86,2.6,18.88-5.47,28.2-23.96,31.17-18.13,5.42-19.18,19.35-20.1,36.19-.81,4.57-1.91,7.83-3.47,12.05-.77,2.08-4.31,7.94-6.55,7.71l-1,6c.91,2.64-1.05,4.24-5.88,4.78l-1.61,1.24c-8.02,16.95-18.21,32.32-30.56,46.1-6.49,1.33-11.27,5.4-14.32,12.21-8.87,9.97-22.79,24.94-36.57,25.12-3.71,4.03-9.28,5.68-16.71,4.94-10.08,7.09-18.37,5.87-29.8,3.58-8.02,1.99-13.24,2.8-21.53,1.01-7.02,4.54-15.11,6.82-24.27,6.82l-10.74,4.2h-6c-3.09-.94-5.68-3.11-7.75-6.49-13.3-2.52-17.09-6.79-11.37-12.81-7.47-5.98-14.25-21.45.17-22,5.03-7.58-7.34-26.18-13.76-31.18-2.02-2.23-3.09-5.08-3.27-8.08.26-8.96-1.54-25.2-10.92-28.57-12.38-13.03-14.81-30.11-16.32-47.68-3.65-6.41-2.92-12.5-1.86-19.46-2.32-9.42-4.13-18.89-5.41-28.41,2.45-6.88,2.04-12.9-1.23-18.07-10.64-11.26-14.59-22.46-17.06-37.57-4.86-8.05-9.17-16.35-12.91-24.9-7.38-4.55-8.6-8.75-9.29-16.88-.89-10.48.7-26.55,2.32-37.09,1.35-8.84,3.63-13.07,7.9-20.61-.49-9.02,1.4-16.86,5.65-23.54.16-11.6,4.06-19.84,14.54-25.56,5.47-4.17,4.09-11.73,2.09-17.4-6.51-10.53-9.72-21.23-9.63-32.08,2.57-3.62,3.85-6.94,3.86-9.97-4.48-8.31-7.86-16.88-10.15-25.7-6.99-6.96-8.3-12.84-3.93-17.64-2.55-2.48-3.99-6.23-4.33-11.25-4.86-5.36-7.96-11-9.3-16.92-4.99-.54-7.99-4.79-9-12.74-9.27-10.05-28.08-34.89-27.98-48.31.01-1.43.23-2.86.48-4.26,5.34-17.33,10.53-35.18,11.93-53.47,1.09-14.18-2.47-24.71-12.82-34.54-8.79-8.35-25-3.3-33.88,3.08-5.37.98-17.36-4.85-18.65-11.04.48-10.74-1.81-16.16-12.24-19.69-.64-1.45-1.12-3.01-1.44-4.69-16.06-2.25-33.16-3.05-49.07.93-.78,4.08-2.6,6.01-6.94,6.28l-12.22,1.18c-9.56,6.8-19.58,11.44-30.04,13.93-6.2,5.3-8.88,5.08-14.34-.77-14.31-5.04-33.16-10.92-46.21-.51-10.19-.41-16.38,3.56-24.53,9.1-4.99,2.86-9.86,3.44-14.56-.43-6.03-.02-10.14-2.31-12.32-6.86-6.04.31-9.62-3.03-10.72-10.02-6.09-6.42-13.5-11.61-22.22-15.57-6.37-3.82-10.38-9.03-12.69-15.99-4.91-1.3-7.12-3.18-9.11-7.96l-12.72-12.81c-2.18-4.99-2.28-10.37-.29-16.16-3.32-2.13-5.99-4.76-8.01-7.89-2.55.21-5.19.11-7-2.02l-7.66-17.52c-5.33-1.62-8.37-4.23-9.1-7.85.88-5.43.9-8.54-5.08-10.43-18.48-1.88-16.26-17.19-13.66-30.92.59-3.34.08-6.29-1.55-8.86-15.42-11.89-5.41-21.62,7.47-28.47-2.04-12.56,1.85-24.67,7.8-35.51-1.97-6.26-1.74-11.37.71-15.34-8.08-5.36-13.92-11.9-4.46-19.37.63-4.29.26-8.89-1.68-12.85-12.3-7.55-15.3-28.67-.93-35.57,4.79-7.56,8.54-15.82,11.26-24.76,3.51-8.02,8.98-14.28,17.19-17.37-.56-15.58.74-25.41,15.41-33.64,5.23-7.2,9.63-15.22,13.21-24.07,5.34-2.77,11.35-4.37,18.01-4.79,8.94-2.73,33.52-26.16,31.72-34.91-3.35-6.39-4.75-12.58-4.2-18.58,5.11-8.26,6.85-13.97,2.19-22.79.08-6.54,9.24-10.22,14.66-11.91,21.27-3.13,33.89-12.6,41.94-32.34,2.77-18.56,10.44-21.44,21.97-5.6,2.08,1.97,4.63,3.02,7.46,2.55,12-4.16,21.25-3.18,32.97.03l2.62-1.24c9.13-10.24,17.78-13.26,31.36-11.18.79-9.25,6.84-10.27,14.86-11.55,6.32-.03,12.57-.4,18.77-1.12,2.89-5.59,9.73-8.77,14.27-3.93l18,1c2.35-2.76,6.02-1.98,11.02,2.36,2.05-3.66,4.82-4.44,8.69-3.34,1.67-5.37,4-7.04,9.14-3.98,6.89-1.54,13.62-.38,20.18,3.46,5.37.74,10.11-1.64,14.23-7.15l3.73-1.35h7Z"/>
    <path class="cls-9" d="M1254,1021v3c-2.92,2.09-11.59,13.93-12.09,5.5-.35-5.85,6.19-12.22,12.09-8.5Z"/>
    <path class="cls-8" d="M0,376v-4c9.13-1.98,11.43,8.27,0,4Z"/>
    <path class="cls-5" d="M444,10c-5.73-.59-12.64,1.28-18-1,6.44-.21,11.84-.17,18,1Z"/>
    <path class="cls-6" d="M855,1170c-.67-2.6.37-4.06,1-6,.16,2.5.39,3.91-1,6Z"/>
    <path class="cls-9" d="M158.15,166.85c-3.27-2.07,1.53-10.64,3.08-13.12,2.19-3.51,5.63.08,6.87,2.71,2.51,5.32-5.34,13.32-9.95,10.41Z"/>
    <path class="cls-9" d="M120.62,164.38c-.7-.71-2.16-.96-2.51-2-2.04-6.05,12.12-8.4,13.44-6.43,2.25,3.37-3.4,11.59-8.06,11.11-1.99-.2-1.92-1.72-2.87-2.69Z"/>
    <path class="cls-9" d="M505.75,593.15c7.57-1.01,3.06,15.71-5.75,11.35-5.82-2.88.88-10.7,5.75-11.35Z"/>
    <path class="cls-1" d="M5.01,402.01c-1.02-4.67-1.59-8.84,3.97-10.61,8.42-2.69,4.89,12.21-3.97,10.61Z"/>
    <path class="cls-1" d="M136.64,163.11c6.57-2.18,10.86,6.67,5.36,9.42-6,3-9.65-8-5.36-9.42Z"/>
    <path class="cls-2" d="M169.75,150.73c-3.04,3.16-8.13-3.62-3.05-6.53,7.25-4.15,7.06,2.37,3.05,6.53Z"/>
    <path class="cls-11" d="M398,724.99c-1.36,1.99-10.43-.36-7.99-3.97,1.65-2.44,10.4.47,7.99,3.97Z"/>
    <path class="cls-4" d="M108,153.01c2.95,2.89-6.07,5.21-7.99,4.99.65-2.17,6.24-6.71,7.99-4.99Z"/>
    <path class="cls-13" d="M1041.35,992.66c-4.17-6.09-1.25-17.51,2.1-23.72,1.52-2.81,5.88-5.98,6.35-7.65.69-2.44-.61-5.85,1.1-7.9,1.35-1.63,4.11-1.29,5.83-2.17,5.01-2.58,10.14-5.21,15.38-7.62,3.18-1.46,13.78-4.52,14.71-7.29.53-1.58-.25-4.02.61-5.39,1.17-1.86,5.64-.33,6.47-1.04.27-.23.33-2.56.87-3.59,3.29-6.24,7.26-1.51,9.25-2.77,1.38-.88.2-2.92.73-4.25.89-2.23,3.96-3.65,4.81-6.23.7-2.12-.06-4.77,1.35-6.65,1.17-1.55,6.83-2.44,9.45-4.55.79-.63,5.33-5.99,5.5-6.56,1.27-4.39-3.07-3.94-3.76-5.95-1.52-4.42,10.87-16.89,16.13-6.07.76,1.57,6.58,16.34,6.7,17.32.68,5.5-1.71,11.51-.83,17.82.57,4.11,3.63,7.3,3.96,11.09.38,4.29-1.51,7.22-1.87,10.98-.13,1.36,1.08,3.16.85,4.96-.66,5.26-4.54,2.49-7.05.04-3.41-1.2-1.2,8.58-1.89,11.02-1.03,3.67-4.55,6.37-6.27,9.82-6.16,12.32-1.02,24.88-6.98,35.02-5.05,8.59-6.44,15.65-10.63,23.37-1.47,2.71-4.94,4.6-5.76,7.24-.99,3.19-.07,6.69-.87,10.13-.85,3.62-4.65,6.6-5.89,11.11-1.3,4.72-1.01,10.54-2.73,15.27-1.26,3.48-4.14,6-5.43,9.57-2.45,6.78-1.77,17.85-5.51,23.49-3,4.51-18.74,13.29-24.23,14.77-7.88,2.11-10.89,3.14-17.69-1.87-14.77-10.88-9.69-19.83-13.31-34.69-2.79-11.43-12.59-14.21-4.58-29.03,2.9-5.36,9.65-9.39,11.58-13.42,1.32-2.75,1.09-5.99,2.17-8.83,2.68-7,8.12-8.71,6.97-18.86-.9-7.92-3.7-11.26-7.57-16.93Z"/>
    <path class="cls-7" d="M1216.84,1037.15c3,1.9-1.01,7.91-5.86,6.45-7.78-2.34,1.12-9.44,5.86-6.45Z"/>
    <path class="cls-12" d="M981.86,770.15c.54.33,3.6,7.01.62,7.85-3.47.7-5.62-10.94-.62-7.85Z"/>
    <path class="cls-10" d="M1038.63,868.08c3.1-.53,4.55,5.2.73,5.85-3.1.53-4.55-5.2-.73-5.85Z"/>
  </g>
  <text class="cls-3" transform="translate(490.6 151.02) rotate(7.5)"><tspan x="0" y="0">_</tspan></text>
  <text class="cls-3" transform="translate(515.73 154.26) rotate(6.52)"><tspan x="0" y="0"> </tspan></text>
  <text class="cls-3" transform="translate(525.54 155.43) rotate(5.77)"><tspan x="0" y="0">_</tspan></text>
  <text class="cls-3" transform="translate(550.8 157.93) rotate(5.13)"><tspan x="0" y="0"> </tspan></text>
  <text class="cls-3" transform="translate(560.67 158.86) rotate(4.55)"><tspan x="0" y="0">_</tspan></text>
  <text class="cls-3" transform="translate(585.95 160.83) rotate(3.98)"><tspan x="0" y="0"> </tspan></text>
  <text class="cls-3" transform="translate(595.85 161.57) rotate(3.37)"><tspan x="0" y="0">_</tspan></text>
  <text class="cls-3" transform="translate(621.17 163.02) rotate(2.68)"><tspan x="0" y="0"> </tspan></text>
  <text class="cls-3" transform="translate(631.03 163.54) rotate(1.8)"><tspan x="0" y="0">_</tspan></text>
  <text class="cls-3" transform="translate(656.77 164.27) rotate(.45)"><tspan x="0" y="0"> </tspan></text>
</svg>