<?xml version="1.0" encoding="UTF-8"?>
<svg id="Lager_1" data-name="Lager 1" xmlns="http://www.w3.org/2000/svg" viewBox="0 0 1950 2150.58">
  <g id="Objects">
    <path d="M1662.33,1917.11c-20.65,67.03-59.88,120.14-105.11,158.4-99.36,84.05-231.15,98.6-346.11,38.22-78.77-41.37-153.98-116.75-236.12-114.18-82.14-2.57-157.34,72.81-236.12,114.18-114.95,60.38-246.75,45.83-346.11-38.22-45.23-38.26-84.46-91.37-105.11-158.4-20.65-67.03-20.88-148.88,6.55-215.7,24.02-58.51,66.16-100.3,109.64-132.09,43.49-31.78,90.37-54.96,131.92-90.97,157.36-136.39,200.49-389,439.21-389s281.85,252.6,439.21,389c41.55,36.01,88.43,59.19,131.92,90.97,43.48,31.79,85.62,73.58,109.64,132.09,27.44,66.82,27.2,148.67,6.56,215.7Z"/>
    <path d="M902.61,692.29c2.4,140.31-81.21,262.87-210.46,274.91-129.25,12.03-247.98-128.14-263.56-295.57-16.47-176.91,114.56-438.94,244.46-437,147.51,2.2,226.55,281.63,229.56,457.67Z"/>
    <path d="M697.64,115.23c.93,12.43,1.22,25.31-3.21,36.96-4.44,11.65-14.63,21.9-27.05,22.92-12.81,1.03-24.81-8.03-30.72-19.45s-6.8-24.71-6.61-37.57c.61-39.6,10.87-78.93,29.23-114,3.03-5.79,11.5-5.34,13.81.77,13.39,35.36,21.7,72.66,24.55,110.37Z"/>
    <path d="M429.91,1055.28c23.67,122.49-30.69,242.66-142.01,273.07-111.32,30.41-236.83-74.07-276.22-218.28-41.62-152.37,32.83-401.96,146.87-420.23,129.5-20.75,241.67,211.77,271.37,365.45Z"/>
    <path d="M161.72,581.52c2.73,10.74,4.96,21.97,2.87,32.85-2.1,10.88-9.44,21.42-20.16,24.22-11.05,2.87-22.96-3.22-29.89-12.31s-9.75-20.59-11.56-31.88c-5.56-34.77-2.61-70.78,8.06-104.31,1.76-5.53,9.25-6.44,12.21-1.45,17.16,28.91,30.18,60.28,38.46,92.87Z"/>
    <path d="M1047.39,692.29c-2.4,140.31,81.21,262.87,210.46,274.91,129.25,12.03,247.98-128.14,263.56-295.57,16.47-176.91-114.56-438.94-244.46-437-147.51,2.2-226.55,281.63-229.56,457.67Z"/>
    <path d="M1252.36,115.23c-.93,12.43-1.22,25.31,3.21,36.96,4.44,11.65,14.63,21.9,27.05,22.92,12.81,1.03,24.81-8.03,30.72-19.45,5.91-11.42,6.8-24.71,6.61-37.57-.61-39.6-10.87-78.93-29.23-114-3.03-5.79-11.5-5.34-13.81.77-13.39,35.36-21.7,72.66-24.55,110.37Z"/>
    <path d="M1520.09,1055.28c-23.67,122.49,30.69,242.66,142.01,273.07,111.32,30.41,236.83-74.07,276.22-218.28,41.62-152.37-32.83-401.96-146.87-420.23-129.5-20.75-241.67,211.77-271.37,365.45Z"/>
    <path d="M1788.28,581.52c-2.73,10.74-4.96,21.97-2.87,32.85,2.1,10.88,9.44,21.42,20.16,24.22,11.05,2.87,22.96-3.22,29.89-12.31,6.93-9.09,9.75-20.59,11.56-31.88,5.56-34.77,2.61-70.78-8.06-104.31-1.76-5.53-9.25-6.44-12.21-1.45-17.16,28.91-30.18,60.28-38.46,92.87Z"/>
  </g>
</svg>