<?xml version="1.0" encoding="UTF-8"?>
<svg id="Lager_1" data-name="Lager 1" xmlns="http://www.w3.org/2000/svg" viewBox="0 0 410 355">
  <defs>
    <style>
      .cls-1 {
        fill: #adb8c2;
      }

      .cls-2 {
        fill: #b6bbbf;
      }

      .cls-3 {
        fill: #b5babf;
      }

      .cls-4 {
        fill: #b0b9c0;
      }

      .cls-5 {
        fill: #b8bbbe;
      }

      .cls-6 {
        fill: #b3bac0;
      }

      .cls-7 {
        fill: #a4b6c5;
      }

      .cls-8 {
        fill: #b2bac0;
      }

      .cls-9 {
        fill: #b4babf;
      }

      .cls-10 {
        fill: #a3b6c5;
      }

      .cls-11 {
        fill: #b7bbbe;
      }

      .cls-12 {
        fill: #c6433f;
      }

      .cls-13 {
        fill: #9fb5c7;
      }

      .cls-14 {
        fill: #b0b9c1;
      }

      .cls-15 {
        fill: #b6bbbe;
      }

      .cls-16 {
        fill: #a5b6c4;
      }

      .cls-17 {
        fill: #bcbcbc;
      }

      .cls-18 {
        fill: #b3babf;
      }

      .cls-19 {
        fill: #77aad4;
      }

      .cls-20 {
        fill: #a9b7c3;
      }

      .cls-21 {
        fill: #abb8c2;
      }

      .cls-22 {
        fill: #b1b9c0;
      }

      .cls-23 {
        fill: #64a5db;
      }

      .cls-24 {
        fill: #c64440;
      }

      .cls-25 {
        fill: #bbbcbd;
      }

      .cls-26 {
        fill: #aeb9c1;
      }

      .cls-27 {
        fill: #c64541;
      }
    </style>
  </defs>
  <path class="cls-23" d="M61,0c2.45.53,3.15,2.75,2.1,6.64-3.89,9.72-2.13,15.33,5.28,16.82,4.8,5.73,22.68-2.17,20.74-10.74l1.03-2.28c5.29-2.79,9.58-6.27,12.86-10.44h19c1.31.62,2.67.6,4,0h6c6.21,3.16,12.14,6.91,17.79,11.28.67-2.1-1-3.97-5.01-5.62-3.17-1.78-4.1-3.67-2.79-5.66h15l3.74,1.29,6.78,12.82c2.45,2.29,3.94,4.58,4.48,6.88,1.57,1,.78,1.54-1,2,2.33,3.96,7.52-1.83,4.08-4.89-7.26-4.3-3.58-7,1.88-10.29,3.93-.97,8.06-1.48,12.41-1.52.06-2.72.6-4.82,1.62-6.29h49c5.09,5.36-5.01,11.17-10.98,9.12-12.91-3.98-23.87-6.78-34.91,3.44-8.27-.92-3.65,14.01,3.15,13.25,2.72-.76,22.75-.71,23.66.07,2.91,2.52-2.86,22.41-5.27,25.69-4.86,6.61-7.04,6.19-14.3,3.34-9.26,1.63-18.41-.05-27.46-5.03-4.54-2.08-7.73-.17-9.55,5.73-1.14,1.86-2.67,3-4.86,3.29-3.23.42-30.57-13.95-31.97-16.75.25-4.53.11-8.77-.42-12.73-13.94-1.77-28.37,1.6-41.69,6.47-5.32,2.26-9.9,2.21-13.74-.16-2.35,5.16-5.95,9.43-10.79,12.8-.11,7.06-2.06,12.89-5.86,17.51-8.46,7.68-19.75,18.96-20.23,30.92,1.34,10.16.41,19.83-2.79,29,3.12,5.21,6.68,10.14,10.66,14.77l-.64,2.29c1.5.99,2.99,3.18,3,5l2.06.69c-2.4,5.06,11.46,15.89,14.06,16.15,11.54,1.13,24.81-1.19,35.59-5.15,7-1.9,13.72.2,17.05,6.94,7.29-2.62,13.43-1.13,13.41,7.73-.31,7.25-.3,14.47.02,21.65,14.41,17.46,19.28,37.92,9.29,58.88-.3,4.02.77,7.92,1.88,11.75l-1.37,2.35c2.71.17,4.89,2.51,3,5l2.49,1.63c1.89,16.26,6.8,31.69,14.74,46.28l.84,4.87c-6.55,7.86,9.34,5.95,14.04,5.28,18.02-2.58,26.62-10.12,31.74-27.84l2.14-1.22.3-2.43c-4.04-4.51,4.74-11.99,9.7-12.57-2.16-.13-2.11-1.37,0-2-3.48-9.39-6.1-17.92,4.31-24.35,11.39-5.17,15.08-13.68,11.86-25.71l.82-5.94c-3.55-2.15-5.58-9.71-3-13-4.99-2.84-1.43-17.13,4-18l-1.04-2.07c3.31-4.79,7.32-8.77,12.04-11.93l.79-2.86c12.35-10.82,20.84-24.66,25.47-41.53-8.92,3.4-17.17,3.87-24.77,1.39-8.04-11.11-16.04-22.37-24-33.78-1.03-13.95-5.63-24.91-13.54-36.57-4.39-5.25-4.29-17.61,3.75-9.47,4.87-4.55,9.31,4.94,11.04,9.29,1.67,7.43,3.35,10.35,8.98,15.14,1.23,9.43,5.34,17.72,12.35,24.88.56,6.7,2.02,12.43,4.37,17.19,20.06-5.61,42.06-17.48,52.68-36.36-5.35-3.17-9.33-7.18-11.94-12.03-2.81,4.01-11.02,9.73-15.92,7.23-1.63-.83-14.2-26.04-13.91-28.11.79-5.65,9.49-5.43,12.64-1.67,5.53,9.67,10.29,12.07,21.42,11.73,3.09,4.72,7.22,7.01,12.36,6.87l15.48.44c4.78.34,8.76,2.68,11.94,7.02,5.88,1.54,8.84,4.15,8.9,7.83-2.68.7-3.04,2.16-1.1,4.37.28-2.18,1.25-2.02,2,0-.05-3.96,1.47-9.45,6.23-4.9.86,15.76,3.41,27.41,9.67,42.16.81,1.91,6.47,14.92,7.3,14.98,3.02.24,5.36-22.4,5.17-24.92l.99-3.38c9.35-8.43,18.27-17.29,26.78-26.58,2.51-1.76,8.65-4.07,9.87-.36v262H0V0h61Z"/>
  <path class="cls-17" d="M265,0c7.22,4.85,8.57,11.34,4.17,19.22-1.25,7.03,16.4,10.33,11.43-3.24-3.59-4.14-3.84-7.02-.77-8.62-3.92,1.34-6.19-5.67-2.83-7.36h133v93c-10.73-.58-11.92,6.21-17.97,12.53-3.74,3.91-14.59,11.66-16.48,14.52-2.54,3.86-1.28,14.84-3.03,20.97-.42,1.47-3.94,9.47-4.54,9.97-1.63,1.38-1.74-.53-2.22-1.28-4.84-7.47-13.99-29.83-15.51-38.47-.54-3.04-1.04-19.33-2.27-20.24-2.27.51-2.25,4.26-3.99,5-.73-1.07-1.4-1.07-2,0-1.15-.17-2.46-.24-2.98-1.52-1.42-3.52,4.34-2.53,2.01-5.01-1.64-1.74-5.56-2.38-7.97-4.04-2.15-1.48-4.02-4.75-6.32-5.68-6.34-2.58-21.08.21-28-3-2.84-1.32-3.12-4.9-5.45-5.59-4.11-1.22-6.84,1.58-13.01-1.95-5.1-2.91-7-9.26-9.89-11.1-3.29-2.09-9.02-1.3-7.99,2.89l12.68,24.92c7.74.43,10.4-3.62,14.83-8.28.8-.84.69-.9,2.08-.65-.7,8.47,9,9.28,11.93,15.37-4.59,7.65-8.37,14.08-15.6,19.47-6.05,4.51-27.66,16.22-34.6,18.39-11.63,3.63-7.4-10.88-10.49-17.95-1.74-3.99-7.37-8.08-9.4-12.6s-1.29-7.54-2.6-11.4c-1.62-4.78-4.49-3.65-5.72-5.28-1.12-1.48-3.07-10.84-5.31-14.69-1.29-2.21-3.18-4.22-4.69-6.29l-3.49,3.98-2.51-4.98c-6.22-.1,6.23,17.81,6.87,19.11,1.4,2.81,5.53,11.37,6.16,13.84,1.12,4.4-.26,9.68,2.04,13.96,3.9,7.27,13.42,18.06,18.71,25.38,1.94,2.68,1.55,6.11,5.97,7.93,6.49,2.67,18.58-3.04,25.75-3.23-3.8,5.87-5.19,12.94-8.14,19.35-4.83,10.49-11.76,21.73-21.86,27.64-3.11-2.82-4.39-1.48-3.84,4.03-6.74,3.01-9.13,6.33-7.16,9.97-3.56,6.13-5.16,11.08-4,18,.63,3.51-14.62,5.17-15.96,4.09-.36-.29-.56-.78-.72-1.32,1.28-4.68-1.84-6.11-9.36-4.28-6.69-5.39-9.31-5.52-7.87-.41,6.28,4.82,6.99,8.09,2.13,9.81,4.94,1.11,10.57.29,16.89-2.47,1.5-.79,7.08,5.62,7.75,7.04s.89,1.86,1.02,3.48c-3.52,10.85,5.84,3.68,6.89-2.7l2.24-.25c1.79,9.15,4.87,19.05-2.45,27.05-2.48,2.71-7.12,4.51-10.02,6.98-10.86,9.21-3.51,9.62-3.66,20.53-.01.85-.83,1.26-.86,1.45-1.07.73-1.07,1.4,0,2-1.72,3.55-6.28,4.49-7.88,7.62-1.03,2.02-1.37,4.91-2.12,7.38q-1.75-1.87,0,0c-.29.95,0,2.58-.44,4.01-1.87,5.96-10.01,18.5-15.22,21.83-5.71,3.65-38.04,11.38-36.38-.29.07-.53,1.86-.44,2.04-1.21,1.22-5.07-9.18-21.89-11.28-28.55-2.6-8.25-2.54-17.27-4.72-24.78,1.54-1.58,3.2-2.9,4.99-3.94-3.64,1.2-6.3.85-7.99-1.06-5.94-18.75-.16-16.43,2.77-31.73,1.82-9.54-3.14-22.59-7.56-30.98-1.62-3.06-6.29-6.9-7-10-1.37-6,1.48-23.21-1.13-26.86-3.22-4.5-9.06.03-11.14-.94-1.12-.52-2.16-3.29-3.44-4.48-7.8-7.21-18.33.84-27.1,1.88-6.6.79-14.85.47-21.65.86-5.01-2.79-13.4-8.1-15.3-13.71-.52-1.54-.29-4.8-.44-5.04,2.91-4.85,7.87-5.06,14.9-.65,1.22-8.04-10.8-9.19-15.32-4.59l-2.58.24c-2.07-2.1-11.88-14.96-12.04-16.54-.18-1.87,2.67-7.58,3.03-10.97.82-7.9-1.59-19.89,1.04-26.96.52-1.41,10.42-15.16,12-17,3.89-4.56,10.13-7.23,11.55-13.45.77-3.35-.14-6.65,1.19-9.81s5.13-4.34,7.24-6.76c1.76-2.03,3.8-7.84,5.52-8.49,1.92-.72,1.12,1.63,2.72,2.33,4.45,1.96,23.13-6.05,29.53-7.08s14.54-.52,21.3-1.83c9.26,1.79,1.7,11.78,4.87,16.15l27.03,14.01c7.68,2.49,5.7-9.14,12.6-9.56,4.66-.28,15.66,5.89,21.17,6.73,4.65.71,7.24-.98,10.75-.83,2.91.12,4.62,2.53,7.77,1.92,6.82-1.31,10.39-21.61,10.74-27.85-6.01,1.75-11.04.07-16.5-.09-3.61-.1-4.74,1.83-9.23.32-5.24-1.76-6.32-6.54-6.35-11.74-.04-6.21,2.51-3.39,6.05-5.02,1.15-.53,1.85-2.34,3.09-2.91,1.64-.75,11.13-4.28,12.49-4.5,8.98-1.43,28.83,12.44,30.44-3.06h25Z"/>
  <path class="cls-17" d="M103,0c1.89,7.12-10.02,8.87-11.5,12-1.71,3.59.57,6.73-4.45,10.55-1.89,1.44-13.55,5.68-15.52,5.47s-3.06-2.36-4.81-3.23c-3.59-1.79-6.12-.76-7.24-5.77-1.22-5.42,3.23-12.66,1.53-19.02h42Z"/>
  <path class="cls-17" d="M191,0c4.25,12.54-6.65,7.42-12.3,8.97-1.03.28-.97,2-1.72,2.53-1.04.74-2.99-.96-3.98,1.02.04,3.57,5.42,5.49,5.08,8.96-.18,1.82-10.61,10.31-7.08,1.52,2.11-.96,2.89-2.33,2.34-4.12.64,1.5.55,2.8-1.34,2.12-8.55-4.24-8.66-14.98-15-21h34Z"/>
  <path class="cls-23" d="M277,0l1.01,6c.37.27,6.92-4.42,7,1.49.01.73-5.27.99-5.99,3.01,8.47,7.17,3.9,22.92-8.74,14.72-7.36-4.77.27-10.63-.26-15.7-.24-2.31-5.33-6.01-5.02-9.52h12Z"/>
  <path class="cls-25" d="M142,0c3.47,5.55,10.67,6.76,14.99,11.5l-4.99-1.5c-1.01,1.42,1.91,9.73-2,11,2.04-12.3-13.07-12.21-18.01-21h10Z"/>
  <path class="cls-5" d="M126,0c-.26,3.96-3.69,4.07-4,0h4Z"/>
  <path class="cls-17" d="M266.01,239.01c1.62.32,2.36,4.61,2.54,5.94,1.02,7.43-5.28,34.1-8.05,42.06-1.96,5.64-8.28,12.15-12.01,5-5.33-10.21-.78-12.47.44-20.57.57-3.73-.55-8.04.27-11.73,1.59-7.1,17.91-9.68,16.8-20.7Z"/>
  <path class="cls-12" d="M233,230c-2.36,6.14-4.21,11.82-12,10-.84-2.49,1.32-6.43.85-8.31s-5.34-4.38-4.86-7.69l-15.48,4.06c-1.95.12-5.81-1.88-6.5-3.58-1.02-2.51,4.34-.81,4.97-2.99-4.71-4.66-8.11-4.81-4.94-12.48,3.33-1.24,7.87,4.34,9.42,4.56,5.25.77,12-4.65,10.55,6.42l15-3c.72,4.34,2.15,8.63,3,13Z"/>
  <path class="cls-12" d="M45,148c-.18-.28-4.49-.64-3-5,4.15-7.88,20.81-5.98,20.05,3.49-.52,6.52-8.28-.38-9.57-.52-2.32-.24-5.07,1.88-7.48,2.02Z"/>
  <path class="cls-24" d="M234,199c-6.1-.87-1.79-7.04,1.06-8.47,1.25-.63,3.69-.37,3.89-.57,1.15-1.15-2.2-10.51,6.06-7.95-.05.99.09,2.02,0,3-.58,5.76-4.3,4.51-5.75,6.25-.31.37-4.95,7.24-5.25,7.75Z"/>
  <path class="cls-12" d="M137,269c2.79.05,5.82-.98,8.56-.85,3.28.15,7.73.2,6.44,3.85-2.31.29-5.13-.45-7.31.02-.74.16-1.86,4.23-4.69,1.98-.17-.59-2.21-2.51-3-5Z"/>
  <path class="cls-11" d="M380.91,158.9c-.32.47-5.06,1.54-5.81,1.01-1.42-1-.55-9.48-.09-9.92,2.55-2.44,7.4,6.71,5.9,8.91Z"/>
  <path class="cls-18" d="M138.01,23.98c-1.84-2.19,4.01-3.19,5.43-3.01,2.18.27,3.86,2.21,3.56,4.51-.66,3.04-8.64-1.08-8.99-1.5Z"/>
  <path class="cls-18" d="M110,12.99c-1.73-.7-6.29,2.75-7,2-2.45-2.62,7.55-7.9,7-2Z"/>
  <path class="cls-5" d="M122.01,9.01c3.1-3.17,5.79,5.86,1.49,5.97-1.47.04-2-5.46-1.49-5.97Z"/>
  <path class="cls-3" d="M207.01,32.01c.52-.5,6.01.03,5.97,1.49-.12,4.3-9.15,1.61-5.97-1.49Z"/>
  <path class="cls-13" d="M10.51,123.01c2.45-.54,3.33,3.47.97,3.99s-3.33-3.47-.97-3.99Z"/>
  <path class="cls-19" d="M171,23c.27-.67.65-1.36,1-2,.52-.97,1.15-1.8,1.01-2.99.89-1.1,4.32,5.93-2.01,4.99Z"/>
  <path class="cls-26" d="M29.99,64.01c1.59,1.59-1.4,4.58-2.99,2.99s1.4-4.58,2.99-2.99Z"/>
  <path class="cls-21" d="M287,76.01c1.91,1.77-4,4.48-3.98,1.49.01-1.03,3.31-2.11,3.98-1.49Z"/>
  <path class="cls-7" d="M4.01,127c-.62-.67.47-3.96,1.49-3.98,2.98-.03.28,5.88-1.49,3.98Z"/>
  <path class="cls-10" d="M252.01,242c1.77-1.91,4.48,4,1.49,3.98-1.03-.01-2.11-3.31-1.49-3.98Z"/>
  <path class="cls-20" d="M281.01,214c-.62-.67.47-3.96,1.49-3.98,2.98-.03.28,5.88-1.49,3.98Z"/>
  <path class="cls-26" d="M113.99,183.01c1.59,1.59-1.4,4.58-2.99,2.99s1.4-4.58,2.99-2.99Z"/>
  <path class="cls-26" d="M142.99,32.01c1.59,1.59-1.4,4.58-2.99,2.99s1.4-4.58,2.99-2.99Z"/>
  <path class="cls-8" d="M110.99,193c1.51,1.71-1.3,4.49-2.99,2.99-1.07-.96,2.05-4.06,2.99-2.99Z"/>
  <path class="cls-14" d="M181,28.01c1.07.94-2.03,4.06-2.99,2.99-1.5-1.69,1.28-4.5,2.99-2.99Z"/>
  <path class="cls-22" d="M30,70.01c1.07.94-2.03,4.06-2.99,2.99-1.5-1.69,1.28-4.5,2.99-2.99Z"/>
  <path class="cls-4" d="M236.99,206c1.51,1.71-1.3,4.49-2.99,2.99-1.07-.96,2.05-4.06,2.99-2.99Z"/>
  <path class="cls-14" d="M117.99,177c1.51,1.71-1.3,4.49-2.99,2.99-1.07-.96,2.05-4.06,2.99-2.99Z"/>
  <path class="cls-7" d="M4,118.99c-1.71,1.51-4.49-1.3-2.99-2.99.96-1.07,4.06,2.05,2.99,2.99Z"/>
  <path class="cls-16" d="M10.51,118.01c2.12-.48,3.11,2.51.97,2.99s-3.11-2.51-.97-2.99Z"/>
  <path class="cls-14" d="M236.99,219c1.51,1.71-1.3,4.49-2.99,2.99-1.07-.96,2.05-4.06,2.99-2.99Z"/>
  <path class="cls-22" d="M246,237.99c-1.71,1.51-4.49-1.3-2.99-2.99.96-1.07,4.06,2.05,2.99,2.99Z"/>
  <path class="cls-1" d="M284,134.01c1.07.96-2.05,4.06-2.99,2.99-1.51-1.71,1.3-4.49,2.99-2.99Z"/>
  <path class="cls-1" d="M136,28.99c-1.71,1.51-4.49-1.3-2.99-2.99.96-1.07,4.06,2.05,2.99,2.99Z"/>
  <path class="cls-8" d="M41.5,65.02c1.77.02,1.7,3.98,0,3.96s-1.7-3.98,0-3.96Z"/>
  <path class="cls-11" d="M97.51,16.01c2.12-.48,3.11,2.51.97,2.99s-3.11-2.51-.97-2.99Z"/>
  <path class="cls-15" d="M350.5,168.02c1.77.02,1.7,3.98,0,3.96s-1.7-3.98,0-3.96Z"/>
  <path class="cls-26" d="M352.99,163.01c.29.29.64,3.8-1.48,2.99-3.62-1.38-.26-4.72,1.48-2.99Z"/>
  <path class="cls-18" d="M284.51,254.01c2.12-.48,3.11,2.51.97,2.99s-3.11-2.51-.97-2.99Z"/>
  <path class="cls-22" d="M352,157.01c1.07.96-2.05,4.06-2.99,2.99-1.51-1.71,1.3-4.49,2.99-2.99Z"/>
  <path class="cls-9" d="M135.5,33.02c1.77.02,1.7,3.98,0,3.96s-1.7-3.98,0-3.96Z"/>
  <path class="cls-22" d="M352,153.99c-1.69,1.5-4.5-1.28-2.99-2.99.94-1.07,4.06,2.03,2.99,2.99Z"/>
  <path class="cls-26" d="M33,47.01c1.07.96-2.05,4.06-2.99,2.99-1.51-1.71,1.3-4.49,2.99-2.99Z"/>
  <path class="cls-6" d="M121,173.99c-.37.34-3.74.63-2.99-1.48,1.11-3.09,4.03.51,2.99,1.48Z"/>
  <path class="cls-11" d="M165.99,22c.34.37.63,3.74-1.48,2.99-3.09-1.11.51-4.03,1.48-2.99Z"/>
  <path class="cls-11" d="M294.01,276c-.34-.37-.63-3.74,1.48-2.99,3.09,1.11-.51,4.03-1.48,2.99Z"/>
  <path class="cls-2" d="M291,276.99c-.37.34-3.74.63-2.99-1.48,1.11-3.09,4.03.51,2.99,1.48Z"/>
  <path class="cls-11" d="M249.99,238c.34.37.63,3.74-1.48,2.99-3.09-1.11.51-4.03,1.48-2.99Z"/>
  <path class="cls-15" d="M33.01,70c-.34-.37-.63-3.74,1.48-2.99,3.09,1.11-.51,4.03-1.48,2.99Z"/>
  <path class="cls-11" d="M188,28.99c-.37.34-3.74.63-2.99-1.48,1.11-3.09,4.03.51,2.99,1.48Z"/>
  <path class="cls-15" d="M233.01,215c-.34-.37-.63-3.74,1.48-2.99,3.09,1.11-.51,4.03-1.48,2.99Z"/>
  <path class="cls-11" d="M291,205.99c-.37.34-3.74.63-2.99-1.48,1.11-3.09,4.03.51,2.99,1.48Z"/>
  <path class="cls-12" d="M216,286c-.11.63.18,1.62,0,2-4.52.69-4.38-2.73,0-2Z"/>
  <path class="cls-12" d="M342,96c-.69-4.52,2.73-4.38,2,0-.26.11-1.54.07-2,0Z"/>
  <path class="cls-7" d="M182,35.99h-2.99s0-1.98,0-1.98c1.38-.31,2.66.54,2.99,1.98Z"/>
  <path class="cls-12" d="M155.76,126.27c4.08-.62,10.05-.79,13.31,2.16,3.74,3.38,1.97,8.29,4.03,11.97,1.92,3.43,14.68,7.75,10.46,13.67-2.18,3.07-8.86-1.17-12.07-1.17-4.56,0-6.83,3.25-12.79,1.88-4.25-.97-3.4-3.92-5.24-5.75-2.15-2.15-6.1-1.68-7.26-6.73-1.65-7.23,1.97-14.88,9.55-16.02Z"/>
  <path class="cls-12" d="M169,285c-2.5-.26-5.34-.97-3.69-3.78.07-.12,3.56-.53,1.68-2.22-.25-.22-6.57,1.84-3.86-2.88.29-.5,9.58-5.17,10.32-5.18.57,0,.47,2.22,2.46,2.64,3.97.82,12.96-4.07,12.07,3.86-.84,7.46-7.72,8.38-13.98,7.57,1.09,2.07,3.69,3.12,2.99,5.98-4.08.3-8.3-1.51-7.99-5.99,1.56-3.64,2.28-3.87,2.15-.69l-2.15.69Z"/>
  <path class="cls-12" d="M227.83,202.15c1.7,2.69-1.91,11.95-5.06,13.15-6.99,2.65-8.59-2.17-4.77-7.29-5.41,1.71-13.29-3.73-9.56-9.08,1.27-1.82,9.93-.99,12.39-.26.79.23,6.79,3.16,7,3.49Z"/>
  <path class="cls-12" d="M123.14,155.13c.8-1.29,21.75-3.99,18.72,5.21-1.94,5.87-8.95.29-10.32.12-2.11-.27-7.26,2.27-8.39-1.1-.31-.92-.46-3.49,0-4.22Z"/>
  <path class="cls-12" d="M205,241.99l.87,10.89c-4.13,1.16-10.19,7.16-9.9-1.33.19-5.55,2.74-10.72,9.03-9.56Z"/>
  <path class="cls-12" d="M92.13,154.87c-1.87-1.2-.03-7.7,1.09-8.63,2.39-2,10.28-.46,9.85,4.25-.22,2.42-9.24,5.47-10.94,4.38Z"/>
  <path class="cls-12" d="M157.99,250.98c-3.26,2.28-7.22-.32-9.38-.05-.66.08-.56,2.03-1.23,2.12-2.76.37-7.66-1.34-4.39-4.56,1.41-1.39,17.49-3.6,14.99,2.48Z"/>
  <path class="cls-12" d="M214,184c1.38.06,3.03-.28,4.33.17,8.09,2.85-6.17,23.12-4.33-.17Z"/>
  <path class="cls-12" d="M245.07,157.94c-4.51-9,9.89-11.21,7.52-3.89-.98,3.03-4.45,4.41-7.52,3.89Z"/>
  <path class="cls-12" d="M162.01,290c5.26-1.52,13.94,10.05,7.49,10.03-2.3,0-8.73-8.7-7.49-10.03Z"/>
  <path class="cls-12" d="M183.99,270c-.93.97-2.94-.26-3.82-1.71-1.42-2.33-.34-7.48-1.17-10.28,6.48-3.48,5.54,11.42,4.99,11.99Z"/>
  <path class="cls-12" d="M77.7,156.21c2.75-.02,4.18,3.64,2.87,5.86-8.21,4.7-10.81-5.8-2.87-5.86Z"/>
  <path class="cls-12" d="M206.99,275.01c.65.61-2.5,10.4-5.48,9.99-3.68-.72,1.6-13.63,5.48-9.99Z"/>
  <path class="cls-12" d="M241.99,158.01c1.71,7.51-6.92,8.74-5.89,1.09l5.89-1.09Z"/>
  <path class="cls-12" d="M226.99,190.01c1.48,1.51-1.11,9.44-5.07,4.57s4.63-5.02,5.07-4.57Z"/>
  <path class="cls-12" d="M237.02,137.01c1.7-.19,3.27-.18,3.85,1.64,2.34,7.36-8.02,7.45-3.85-1.64Z"/>
  <path class="cls-12" d="M223.6,157.1c3.83-1.17,4.72,4.86,1.8,5.81-5.5,1.79-4.87-4.87-1.8-5.81Z"/>
  <path class="cls-12" d="M213.99,264.03c.24.29-.12,2.14.01,2.97-3.08-.18-10.71,1.43-7.55-3.04,1.14-1.61,7.28-.25,7.54.07Z"/>
  <path class="cls-12" d="M197.99,263.99c-3.25,1.39-6.61,1.38-6.99-2.98,3.67-.06,7.44-2.81,6.99,2.98Z"/>
  <path class="cls-12" d="M202,296.01c-5.46.99-3.08-4.73-2.99-8,4.28-.07,2.86,5.05,2.99,8Z"/>
  <path class="cls-12" d="M60.09,153.08c1.08-.8,6.4-.17,5.91,2.4-2.58,3.99-9.4.18-5.91-2.4Z"/>
  <rect class="cls-12" x="171.01" y="301" width="3.99" height="5.01"/>
  <rect class="cls-12" x="210" y="153.01" width="5.01" height="3.99"/>
  <path class="cls-12" d="M131.01,149c-.3-1.47-.23-6.66,2.48-5.99,3.11.77.85,6.59-2.48,5.99Z"/>
  <path class="cls-12" d="M232,250.01c.6,3.78-1.72,4.36-4.99,3.99v-3.99s4.99,0,4.99,0Z"/>
  <path class="cls-12" d="M211,144.01c2.01,2.03-3.48,6.49-4.99,2.49-1.4-3.72,4.72-2.75,4.99-2.49Z"/>
  <path class="cls-12" d="M176.99,259.01c2.07,2.08-1.88,6.07-3.99,3.99-1.62-1.6,2.37-5.61,3.99-3.99Z"/>
  <path class="cls-12" d="M115.99,153.99c-1.93,1.93-6.18-3.18-2.48-3.99,2.11-.46,3.21,3.26,2.48,3.99Z"/>
  <rect class="cls-12" x="191" y="267" width="3.99" height="2.99"/>
  <rect class="cls-27" x="145" y="192" width="2.99" height="3.99"/>
  <rect class="cls-12" x="203.51" y="300.51" width="2.99" height="1.99" transform="translate(-97.02 505.73) rotate(-89.85)"/>
  <path class="cls-17" d="M169,285c.04-.58,1.05-3.23,1.5-4l2.5,3.99c-1.31-.07-2.69.14-4,.01Z"/>
</svg>