<?xml version="1.0" encoding="UTF-8"?>
<svg id="Lager_1" data-name="Lager 1" xmlns="http://www.w3.org/2000/svg" viewBox="0 0 1254 1280">
  <defs>
    <style>
      .cls-1 {
        fill: #83b88a;
      }

      .cls-2 {
        fill: #325e39;
      }

      .cls-3 {
        fill: #033107;
      }

      .cls-4 {
        fill: #f5f4ef;
      }

      .cls-5 {
        fill: #051a06;
      }

      .cls-6 {
        fill: #09450d;
      }

      .cls-7 {
        fill: #f3f2f1;
      }

      .cls-8 {
        fill: #134c1a;
      }

      .cls-9 {
        fill: #13531c;
      }

      .cls-10 {
        fill: #378b41;
      }

      .cls-11 {
        fill: #00760e;
      }

      .cls-12 {
        fill: #092e0b;
      }

      .cls-13 {
        fill: #86b48d;
      }

      .cls-14 {
        fill: #286b2a;
      }

      .cls-15 {
        fill: #397f40;
      }

      .cls-16 {
        fill: #528a5a;
      }

      .cls-17 {
        fill: #459550;
      }

      .cls-18 {
        fill: #5fa769;
      }

      .cls-19 {
        fill: #7eb586;
      }

      .cls-20 {
        fill: #043706;
      }

      .cls-21 {
        fill: #105018;
      }

      .cls-22 {
        fill: #0b3108;
      }

      .cls-23 {
        fill: #00780c;
      }

      .cls-24 {
        fill: #0c510a;
      }

      .cls-25 {
        fill: #00790a;
      }

      .cls-26 {
        fill: #18511e;
      }

      .cls-27 {
        fill: #1f2d1e;
      }

      .cls-28 {
        fill: #005b0f;
      }

      .cls-29 {
        fill: #0e3b03;
      }

      .cls-30 {
        fill: #61a66d;
      }

      .cls-31 {
        fill: #6d9f74;
      }

      .cls-32 {
        fill: #0c440c;
      }

      .cls-33 {
        fill: #5da166;
      }

      .cls-34 {
        fill: #338a3e;
      }

      .cls-35 {
        fill: #025c0e;
      }

      .cls-36 {
        fill: #3d8338;
      }

      .cls-37 {
        fill: #5da367;
      }

      .cls-38 {
        fill: #2d7437;
      }

      .cls-39 {
        fill: #030f03;
      }

      .cls-40 {
        fill: #217d2b;
      }

      .cls-41 {
        fill: #4d7d54;
      }

      .cls-42 {
        fill: #057811;
      }

      .cls-43 {
        fill: #022e08;
      }

      .cls-44 {
        fill: #549d5e;
      }

      .cls-45 {
        fill: #52934d;
      }

      .cls-46 {
        fill: #0b4407;
      }

      .cls-47 {
        fill: #4c8e46;
      }

      .cls-48 {
        fill: #f3f3f0;
      }

      .cls-49 {
        fill: #197221;
      }

      .cls-50 {
        fill: #006810;
      }

      .cls-51 {
        fill: #548b5b;
      }

      .cls-52 {
        fill: #02490d;
      }

      .cls-53 {
        fill: #023406;
      }

      .cls-54 {
        fill: #002202;
      }

      .cls-55 {
        fill: #266b21;
      }

      .cls-56 {
        fill: #d3dfd0;
      }

      .cls-57 {
        fill: #0a240a;
      }

      .cls-58 {
        fill: #5e9867;
      }

      .cls-59 {
        fill: #37673e;
      }

      .cls-60 {
        fill: #226d25;
      }

      .cls-61 {
        fill: #154b1c;
      }

      .cls-62 {
        fill: #042d09;
      }

      .cls-63 {
        fill: #004f0d;
      }

      .cls-64 {
        fill: #002900;
      }

      .cls-65 {
        fill: #012507;
      }

      .cls-66 {
        fill: #0a4b0f;
      }

      .cls-67 {
        fill: #699e70;
      }

      .cls-68 {
        fill: #61a86b;
      }

      .cls-69 {
        fill: #017910;
      }

      .cls-70 {
        fill: #b5a295;
      }

      .cls-71 {
        fill: #297223;
      }

      .cls-72 {
        fill: #c1ac9f;
      }

      .cls-73 {
        fill: #73b07b;
      }

      .cls-74 {
        fill: #0b4e0a;
      }

      .cls-75 {
        fill: #0e4f17;
      }

      .cls-76 {
        fill: #217c2b;
      }

      .cls-77 {
        fill: #3d9048;
      }

      .cls-78 {
        fill: #0c200b;
      }

      .cls-79 {
        fill: #008010;
      }

      .cls-80 {
        fill: #075608;
      }

      .cls-81 {
        fill: #0f500c;
      }

      .cls-82 {
        fill: #39623f;
      }

      .cls-83 {
        fill: #629168;
      }

      .cls-84 {
        fill: #012f08;
      }

      .cls-85 {
        fill: #002600;
      }

      .cls-86 {
        fill: #88bb8f;
      }

      .cls-87 {
        fill: #aa978c;
      }

      .cls-88 {
        fill: #0f4f0f;
      }

      .cls-89 {
        fill: #1c7719;
      }

      .cls-90 {
        fill: #e5ebe0;
      }

      .cls-91 {
        fill: #5d8261;
      }

      .cls-92 {
        fill: #3e9149;
      }

      .cls-93 {
        fill: #f1efe9;
      }

      .cls-94 {
        fill: #06660d;
      }

      .cls-95 {
        fill: #efeeea;
      }

      .cls-96 {
        fill: #2e792b;
      }

      .cls-97 {
        fill: #84b18a;
      }

      .cls-98 {
        fill: #345734;
      }

      .cls-99 {
        fill: #f0eeee;
      }

      .cls-100 {
        fill: #02410c;
      }

      .cls-101 {
        fill: #1b4f23;
      }

      .cls-102 {
        fill: #143c15;
      }

      .cls-103 {
        fill: #066911;
      }

      .cls-104 {
        fill: #0b280c;
      }

      .cls-105 {
        fill: #0c2c0e;
      }

      .cls-106 {
        fill: #8bc292;
      }

      .cls-107 {
        fill: #044202;
      }

      .cls-108 {
        fill: #005e0f;
      }

      .cls-109 {
        fill: #63a76c;
      }

      .cls-110 {
        fill: #002901;
      }

      .cls-111 {
        fill: #96857b;
      }

      .cls-112 {
        fill: #044201;
      }

      .cls-113 {
        fill: #89bb8f;
      }

      .cls-114 {
        fill: #63a35e;
      }

      .cls-115 {
        fill: #fbdbc7;
      }

      .cls-116 {
        fill: #154f1a;
      }

      .cls-117 {
        fill: #edefe9;
      }

      .cls-118 {
        fill: #051406;
      }

      .cls-119 {
        fill: #599a54;
      }

      .cls-120 {
        fill: #d4d6d0;
      }

      .cls-121 {
        fill: #0a5f0f;
      }

      .cls-122 {
        fill: #87bd8f;
      }

      .cls-123 {
        fill: #71b07a;
      }

      .cls-124 {
        fill: #14721d;
      }

      .cls-125 {
        fill: #014209;
      }

      .cls-126 {
        fill: #011101;
      }

      .cls-127 {
        fill: #1e501c;
      }

      .cls-128 {
        fill: #093b0b;
      }

      .cls-129 {
        fill: #478b42;
      }

      .cls-130 {
        fill: #519c5b;
      }

      .cls-131 {
        fill: #5a755b;
      }

      .cls-132 {
        fill: #61a56b;
      }

      .cls-133 {
        fill: #043b01;
      }

      .cls-134 {
        fill: #56865c;
      }

      .cls-135 {
        fill: #01810e;
      }

      .cls-136 {
        fill: #f1f0eb;
      }

      .cls-137 {
        fill: #264d2b;
      }

      .cls-138 {
        fill: #7bad82;
      }

      .cls-139 {
        fill: #10480f;
      }

      .cls-140 {
        fill: #81b089;
      }

      .cls-141 {
        fill: #50924a;
      }

      .cls-142 {
        fill: #336731;
      }

      .cls-143 {
        fill: #005c0f;
      }

      .cls-144 {
        fill: #0b3508;
      }

      .cls-145 {
        fill: #4a8944;
      }

      .cls-146 {
        fill: #8dba94;
      }

      .cls-147 {
        fill: #064f01;
      }

      .cls-148 {
        fill: #76b27d;
      }

      .cls-149 {
        fill: #42924d;
      }

      .cls-150 {
        fill: #30903c;
      }

      .cls-151 {
        fill: #43844a;
      }

      .cls-152 {
        fill: #16701b;
      }

      .cls-153 {
        fill: #629b6a;
      }

      .cls-154 {
        fill: #0a550a;
      }

      .cls-155 {
        fill: #2f7132;
      }

      .cls-156 {
        fill: #14741f;
      }

      .cls-157 {
        fill: #66976d;
      }

      .cls-158 {
        fill: #397941;
      }

      .cls-159 {
        fill: #123012;
      }

      .cls-160 {
        fill: #025001;
      }

      .cls-161 {
        fill: #3e8f48;
      }

      .cls-162 {
        fill: #21712d;
      }

      .cls-163 {
        fill: #023103;
      }

      .cls-164 {
        fill: #448d4c;
      }

      .cls-165 {
        fill: #2d5b34;
      }

      .cls-166 {
        fill: #d3bbad;
      }

      .cls-167 {
        fill: #e0c6b7;
      }

      .cls-168 {
        fill: #000901;
      }

      .cls-169 {
        fill: #126416;
      }

      .cls-170 {
        fill: #0c6d15;
      }

      .cls-171 {
        fill: #1d7c28;
      }

      .cls-172 {
        fill: #5f9e5a;
      }

      .cls-173 {
        fill: #8b7c73;
      }

      .cls-174 {
        fill: #017e10;
      }

      .cls-175 {
        fill: #17441d;
      }

      .cls-176 {
        fill: #16301a;
      }

      .cls-177 {
        fill: #7da883;
      }

      .cls-178 {
        fill: #173919;
      }

      .cls-179 {
        fill: #0d3a04;
      }

      .cls-180 {
        fill: #0b3e0d;
      }

      .cls-181 {
        fill: #1b3c1f;
      }

      .cls-182 {
        fill: #0b6c13;
      }

      .cls-183 {
        fill: #015d0f;
      }

      .cls-184 {
        fill: #537158;
      }

      .cls-185 {
        fill: #0e4c13;
      }

      .cls-186 {
        fill: #305635;
      }

      .cls-187 {
        fill: #335738;
      }

      .cls-188 {
        fill: #0b120b;
      }

      .cls-189 {
        fill: #1a6216;
      }

      .cls-190 {
        fill: #99cea0;
      }

      .cls-191 {
        fill: #467c4e;
      }

      .cls-192 {
        fill: #1d5a1a;
      }

      .cls-193 {
        fill: #76ac7d;
      }

      .cls-194 {
        fill: #0b3408;
      }

      .cls-195 {
        fill: #4e8556;
      }

      .cls-196 {
        fill: #f9f8f5;
      }

      .cls-197 {
        fill: #1a7724;
      }

      .cls-198 {
        fill: #022b07;
      }

      .cls-199 {
        fill: #88b68e;
      }

      .cls-200 {
        fill: #40924b;
      }

      .cls-201 {
        fill: #345f39;
      }

      .cls-202 {
        fill: #0d1d0c;
      }

      .cls-203 {
        fill: #00510d;
      }

      .cls-204 {
        fill: #53985c;
      }

      .cls-205 {
        fill: #034d02;
      }

      .cls-206 {
        fill: #0c3f08;
      }

      .cls-207 {
        fill: #064c0d;
      }

      .cls-208 {
        fill: #0c3304;
      }

      .cls-209 {
        fill: #063908;
      }

      .cls-210 {
        fill: #03450d;
      }

      .cls-211 {
        fill: #4d9757;
      }

      .cls-212 {
        fill: #3e8d48;
      }

      .cls-213 {
        fill: #6bae75;
      }

      .cls-214 {
        fill: #0c7519;
      }

      .cls-215 {
        fill: #113515;
      }

      .cls-216 {
        fill: #42914d;
      }

      .cls-217 {
        fill: #ede9e6;
      }

      .cls-218 {
        fill: #42914c;
      }

      .cls-219 {
        fill: #4b9758;
      }

      .cls-220 {
        fill: #5a8a60;
      }

      .cls-221 {
        fill: #0e2c10;
      }

      .cls-222 {
        fill: #8cbb91;
      }

      .cls-223 {
        fill: #398b43;
      }

      .cls-224 {
        fill: #052704;
      }

      .cls-225 {
        fill: #e7e4b4;
      }

      .cls-226 {
        fill: #056f10;
      }

      .cls-227 {
        fill: #f9f6f6;
      }

      .cls-228 {
        fill: #4c8454;
      }

      .cls-229 {
        fill: #005d0f;
      }

      .cls-230 {
        fill: #62a76c;
      }

      .cls-231 {
        fill: #3b7e3b;
      }

      .cls-232 {
        fill: #00600f;
      }

      .cls-233 {
        fill: #045c10;
      }

      .cls-234 {
        fill: #224e27;
      }

      .cls-235 {
        fill: #0b3d04;
      }

      .cls-236 {
        fill: #082109;
      }

      .cls-237 {
        fill: #054b0b;
      }

      .cls-238 {
        fill: #478a41;
      }

      .cls-239 {
        fill: #177922;
      }

      .cls-240 {
        fill: #f7f7f5;
      }

      .cls-241 {
        fill: #027910;
      }

      .cls-242 {
        fill: #0d1d0b;
      }

      .cls-243 {
        fill: #9ccfa3;
      }

      .cls-244 {
        fill: #3f8343;
      }

      .cls-245 {
        fill: #f1f2ed;
      }

      .cls-246 {
        fill: #3c8136;
      }

      .cls-247 {
        fill: #034005;
      }

      .cls-248 {
        fill: #eed2c0;
      }

      .cls-249 {
        fill: #8dbf93;
      }

      .cls-250 {
        fill: #0d4412;
      }

      .cls-251 {
        fill: #077511;
      }

      .cls-252 {
        fill: #1b4e23;
      }

      .cls-253 {
        fill: #31782b;
      }

      .cls-254 {
        fill: #0c4907;
      }

      .cls-255 {
        fill: #065d09;
      }

      .cls-256 {
        fill: #16331a;
      }

      .cls-257 {
        fill: #368940;
      }

      .cls-258 {
        fill: #3e8043;
      }
    </style>
  </defs>
  <g>
    <path class="cls-162" d="M638,611c3.12,1.25,4.25,2.84,5.94,5.48,2.38-.41,2.42,1.2,2.06,3.52,2.93.02,6.14.18,5,4,2.54.11,3.2.78,2,2,3.11-.23,3.39,1.11,1,3,1.7,6.75-12.35,16.47-18,21-.49,1.11-1.82,1.78-4,2-1.06.79-2.47.4-2-1-.39-1.61.01-3.59,1.19-5.93-2.39-4.95-2.45-8.31-.19-10.07-.55-.66-1.22-1-2-1-.31.86-.64.85-1,0-1.62.14-3.29.14-5,0-.33.04-.67-.03-1,0-1.16-.17-1.83-.83-2-2-3.12.67-4.28-2.02-2-4-1.41-2.39-1.08-4.72,1-7-.95-2.09-.08-4.52,2.21-3.24l1.79-5.76c-.28-.94.05-1.28,1-1,2.49-.99,4.53-2.08,6.13-3.27l7.87,3.27Z"/>
    <path class="cls-162" d="M701,586c2.09-.89,3.76.78,5,5,2.5-1.06,2.8-.01,1,2,3.04,4.78,3.37,7.78,1,9,1.31,1.81,1.31,2.81,0,3-1.15,2.82-4.34-1.92-4-4-.8-.6-1.13-.26-1,1,1.35.66,4.35,4,3,5,.44,4.74.44,9.74,0,15,.11,1.31-.03,2.68,0,4,.07,1.96-.26,3.63-1,5-.32.84-.65.84-1,0-3.21-1.87-6.21-4.2-9-7-3.12,2.32-7.71-2.37-6-6-2.69-.45-2.53-1.12,0-2-2.83-.8-3.83-4.13-3-10-3.35.51-3.82-3.27-3-6-1.19-2.82-4.23-10.76-1-12-.81-1.23-.35-1.29,1-1,2.94-1.47,6.64-2.27,10-3,3.07-1.05,5.52.36,8,2Z"/>
    <path class="cls-147" d="M616,592c1.15,1.55,1.82,3.22,2,5,.78.1,1.54.31,2.17.8.37.29-.27,8.37-1.17,9.2.42,1.83-.28,6.24-2.58,6.1l.58-7.1c-1.76,0-1.64-1.41,0-2-.06-1.87-.73-2.87-2-3,1.02,3.82,1.81,10.36-1,13-1.33,1.48-1.99.48-2-3l-1.25-.38c.11,2.35-.48,3.81-1.75,4.38-.78.72-1.11.06-1-2-1.64-.6-1.57-2.29,0-3-.02-2.68-.35-4.35-1-5-3.05.44-5.09-5.28-6-8h-7c-.36,2.59-1.02,2.59-2,0-2.72-1.07-1.84-2.97,1-3,.18-.9.52-.86,1,0,.19-.88.53-.84,1,0,.88-.75,1.22-1.41,1-2-.94-1.69.39-2.36,4-2-3.74-2.87-4.07-4.2-1-4,1-.37,1.67-1.37,2-3,.32-.11.66-.88,1-1l4.87-.15c.58,1.67,4.93,4.57,7.12,4.26.3.18,3.12,5.43,2.01,5.89Z"/>
    <path class="cls-46" d="M681,562c.9-1.41,2.57-1.07,5,1,2.71.41,2.44.93,0,2,2.38,1.22,3.38,2.89,3,5,3.23,2.57,1.56,3.57-5,3-.44,2.88.61,4.96,4.27,3.76l.73,1.24c.73,1.37-.27,3.03-3,5-.54,1.35-2.21,2.35-5,3-2.99,4.48-5.32,5.15-7,2-1.34.48-3.66-1.56-3-3v-2c-3.21.99-3.81.08-4-3-2.47-2.44-2.62-4.1,1-3,2.6,2.03,4.27,2.03,5,0-.86-2.57.05-2.88,2-1q3.2,1.49,0,0c.01-1.04.68-1.71,2-2l-1.75-1.25c1.22-.69,2.14-1.61,2.75-2.75-2.6-1.86,1.06-3.4,3-2,.51.93,1.17.98,2,0l-2.61-.62c-2.42,1.21-3.89,1.08-4.39-.38-2.53-1.54-4.53-1.54-6,0,.46,3.07,1.61,5.44,3.43,7.12-.33,3.28-9.52,3.93-11.5,1.57-1.06-1.26-1.39-2.65-.81-4.22-6.81-3.45-5.4-8.61,2.07-7.69l-1.18-.79,1.09-2.11c3.99-.35,7.96-.32,11.91.11,3.5,1.02,3.1.63,6,1Z"/>
    <path class="cls-29" d="M662,563c5.74.86-2.86,1.65-3,2.02-1.86,5.01,6.31,4.99,8.99,4-12.64,4.21,1.16,9.86,4,5.97.48-.66-3.58-5.54-3.75-6.53-.11-.67,1.71-1.29,1.75-1.45,2.58-1.57,4.58-1.57,6,0,2.26-.25,5.26-1.14,7,1-.24,2.01-1.23,1.92-2,0-2.53.17-2.57,1.89-3,2-.49,2.05-1.16,2.05-2,0-.33.87-.66.87-1,0-2.94.16-2.7,3.54,1.41,3l.59,1c.94.23,2.33-.69,1.99.99-1.73-.5-2.84.65-3.99,1.01-.66.21-1.33.71-2,1,.31,3.26-3.59,1.93-5,0-1.8.99-.63,2.59-1,3-1.33,1.83-2.27,1.84-1.49-.28-1.79-2.12-4.23-2.08-6.51-.72,1.22.48,1.22,1.15,0,2,2.93,3.4,6.61,2.83,8-1,.38.17,2.56,2.24,4,3,1.12.67.98.98,0,2,.92,1.38,2.91,2.81,3,3,.87.32.87.66,0,1-2.23,1.12-4.89.53-5.97-2.23,1.93-2.23-1.12-2.37-3.03-1.77.03,1.16-.64,1.83-2,2,5.12,1.69,5.79,3.36,2,5-.21,2.72-1.04,2.52-2,0-2.41-.5-2.45-1.06-1-3l-2.08.13c.95-1.21.31-1.93-1.92-2.13-2.45.43-2.43,2.34-2,4,2.7-.7,2.83-.09,1,2-.29.65-.63.64-1,0-.18.71-2.53.29-3.2,0-1.37-.59-2.52-3.98-2.8-5.01-1.68-1.23-.29-4.36,2-3,.63-2.7,2.04-2.6,3,0,1.52-.17,2.52-.84,3-2-.86-.33-.86-.66,0-1-.95-1.69-1.95-2.36-3-2-.45,2.59-1.13,2.43-2,0l-.75-1.19c3.02-4.26-1.25-6.81-5.25-4.81-.1.91-.45.86-1,0,1.22,2.66.73,3.22-2,2,.04,2.06-1.34,2.76-4.13,2.12l-.87,1.88c1.92.94,3.25,1.94,4,3-.19.88-.53.84-1,0-.61,2.23-2.95,3.23-7,3l-1,4c2.78.53,3.44,1.53,2,3,2.93,1.75,3.93,3.41,3,5-.29.65-.63.63-1,0-2.62.41-5.19-1.38-6-4-.87.84-2.27.4-2-1-1.62-2.54-2.64-3.19-5-1,1.8.94,3.14,1.94,4,3-.33.96-1.04,1.61-2,2-.19.88-.52.84-1,0-.27.87-.61.85-1,0l-1.36.07c-1.17-2.8-3.05-4.15-5.64-4.07-1.28-.43-1.55-1.72,0-2-.1-2.07-.43-4.07-1-6-2.11.82-2.1-.19-1-2-.87-.28-.86-.62,0-1,1.32-1.69,2.5-1.04,2,1l5-2c-1-1.48-.54-2.02,1-1,.44-2.47-.7-3.41-3.04-3.88l.04-1.12c.28-.87.62-.86,1,0,2.49-1.16,5.75-1.7,3.21,1.04,1.26-.42,1.53-.11.79.96,5.07,2.09,9.58-1,3.04-3.26-.46-1.95,4.62-2.97,4.96-.74,2.57.1,4.22.1,6-2-8.84-.85,4.46-6.14,3,1,5.79,1.02,7.57-4.31,1.29-3.87l-.29-2.13c5.27-1.25,10.64-2.29,16-3,.61-2.04,1.42-2.11,2,0Z"/>
    <path class="cls-160" d="M581,585c.65.55,1.65.88,3,1,2.77.14,3.77.8,3,2-1.28,3.56-.82,6.08,1.38,7.55l.62,2.45c1.36,1.38.76,1.97-1,1-.04,3.05-2.38,4.87-5,3-1.82.13-2.15-.53-1-2-1.81-1.29-4.28-2.81-5.41-.31-2.12-.01-5.35-.36-5.59-2.69-3.66-.38-6.32-1.38-8-3,.41-4.8,7.51-4.49,8.01-5.02,1.4-1.47-6.21-9.44,9.99-3.98Z"/>
    <path class="cls-210" d="M728,573c-1.23,2.1-1.19,2.35.1.75,1.32,2.89,4.3,12.68.9,14.25-.87,1.25-1.2.92-1-1l-1.97-.81c-1.45-17.33-2.81-5.08-.93,3.81.06.28.98.21,1.91,0,.29-.82.62-.81,1,0l1.28.49c-1.71,1.27-1.49,2.99-.28,4.51-3.62,2.55-5.92,3.18-9,5-1.11,1.27-2.39,2.44-4,3-5.21,3.37-7.87,3.04-8-1-.12-2.86-.1-6.28-1-9,1.7-.32,3.1.59,4.18,2.72.89-.48,2.8-19.84-5.74-14.77,2.43,4.87,2.61,8.21.56,10.05-.17-.36-4.44-4.62-5-5l-.28-4.43c-2.22.76-8.74,1.65-8.72-1.57-.92-1.47.4-3.62,2-2l5-1c1.07-1.58,4.17-1.11,4,1,.6-1.49,1.42-1.51,2,0,2.19-1.11,4.19-1.11,6,0-.55-2.66,0-2.86,2-1,3.36,2.62,3.69,2.62,1,0-.87-.28-.86-.62,0-1,1.09-.84,2.09-1.84,3-3,.33-.89.66-.89,1,0,.6-1.48,1.41-1.48,2,0l3-2c4.49-1.37,6.16-.71,5,2Z"/>
    <path class="cls-8" d="M627,654c1.27-.62,3.09-.51,3,1l4.64.39c1.1-1.29,1.89-1.08,2.36.61.19,2.19.37,7.05,0,9-2.57,4.33-3.91,4.29-4.02-.11.39,1.35.06,1.39-.98.11-1.75-.44-1.52-1.83-3,1-1.64.26-1.36-3.74-1.33-3.53.25,1.56.48,3.49-.67,4.53.01,1.49-.65,1.49-2,0-.58-.74.03-3.36-3-3-.28.87-.62.86-1,0-2.53-.15-2.37-1.08,0-2-.27-1.84-1.6-2.51-4-2-1.44.83-2.57,2.15-4,3-2.56.88-2.27-1.14-1-3-1.41-1.68.1-3.13,2-2,.55-2.41,1.55-4.74,3-7,1.71-2.92,8.25,1.3,10,3Z"/>
    <path class="cls-74" d="M728,535c1.15.64,1.81.04,5,2l2,2c6.17,4.56,8.88,6.84,9,16-.27,1.58-.94,2.24-2,2l-1,1c1.89.19,1.73,1.15,0,2-1.29,1.84-2.67,1.84-4,0-1.53.84-1.95.57-1-1-2.99-.33-2.96-7.61,0-8,1.01-.91,1.2-1.64,1-3-1.84,1.58-5.06-.85-4.75-2.92l-4.25-1.08c-2.66,1.44-1.76-3.77-1.59-3.58.46.51.21,3.4-1.41,1.58-1.45-1.94-1.45-2.94,0-3,.21-2.05.54-4.13,3-4ZM739.99,543.01c-.51-.37-3.89.88-3.99,1.49-.33,2.16,7.55,1.07,3.99-1.49Z"/>
    <path class="cls-226" d="M728,544c.9.24.88.58,0,1-.77,2.14-.44,3.47,1,4,2.6,1.6-.63,4.85-3,5,.46,1.74-.26,2.43-2,2,1.23,3.74-5.23,6.25-8,4-.33.87-.66.87-1,0-.01,3-3.2,2.31-5,1,1.13,1.34.54,1.65-1,2-.28.87-.62.86-1,0l-1.16-.3c.61,2.69-1.96,2.21-3.84,1.3-3.52,1.96-5.55-2.73-2-5,.77-.43,1.76-3.25,3.64-3.9.43-.15,3.7.9,8.36-.1l2.13.04c-.31-2.52.23-2.53,2.87-2.04,1.16-.8,2.03-.6,2,1,.4-3.83,1.4-5.83,3-6,1.01-1.66,1.68-3.66,2-6,1.19.12.36-2.44,1.99-1.99-.55,1.59.86,3.11,1.01,3.99Z"/>
    <path class="cls-125" d="M716,519c5.54-.64,15.86.41,18.99,5.52,1.35,2.19-6.54,5.28-6.8,5.68-.78,1.2.21,4.07-.19,4.8-1.15,1.7-2.06,1.11-2-1-.39-1.22-.73-2.55-1-4-1.32.77-2.72.02-4.2-2.24-4.62.77-7.55-5.61-4.8-8.76Z"/>
    <path class="cls-248" d="M570,639c.66.29.65.63,0,1,1.39,1.34.79,1.92-1,1-.27.89-.6.87-1,0-1.2-.75-2.2-.75-3,0-.54,1.95-1.43,1.93-2,0-2.05,1.25-3.95.58-3-2l-1.89-1.16c-.12-2.37-.8-4.58-2.11-5.84-2.03-2.08-1.77-3.12,1-4-.62-1.74-.68-4.12,1-5-2.13-1.44-1.39-2.79,1-3,.04-.33-.04-.67,0-1,.28-.87.62-.86,1,0,3.98,4.85,9.84,13.5,10,20Z"/>
    <path class="cls-67" d="M631,635c-.94,6.01,6.06,9.78-1,16-1.13.95-2.8.95-5,0-2.23,1.53-8.5-1.5-7-5-1.28-1.17.6-2.62,2-2,5.1-.99,6.43-2.99,4-6,1.02-.99,1.91-2.03,3-3-.41-.86-.04-1.16,1-1,.32.1.74-.12,1,0,1.74-1.56,2.4-1.23,2,1Z"/>
    <path class="cls-229" d="M728,573c-1.35-4.51,6.46-2.53,6.61-2.08,1.7,4.93,1.27,10.67.36,15.93,1.14,2.03.79,2.62-.97,4.15-.26.14-.77-.15-1,0-1.32,1.24-2.66,2.57-4,4-3.2-1.1-1.14-3.2-1-5-.33-.92.08-1.84,1-2,0-5.58-3.03-13.77-2.99-14.51.06-1.04,1.44-.2,1.99-.49Z"/>
    <path class="cls-224" d="M604,621c.49,2.08-1.41,4.42-3,6,1.05,1.61,1.05,2.94,0,4,1.11.46,1.44,1.46,1,3-6.81,4.24-15.03,3.68-21,6-2.34-3.39,3.18-7.58,6-5,.07-2.37,2.05-4.53,5.92-6.5,1.84-3.17,3.87-4.67,6.08-4.5-1.27-2.58.09-5.63,3-5,2-2.21,2-.32,2,2Z"/>
    <path class="cls-65" d="M674,616l1.71.39c3.18-2.87,6.86-4.21,8.29.61,2.73.4,2.44.96,0,2-3.55,1.13-6.26,2.12-10,3l-18.89,4.98-2.11-.98c-.17-.28-1.38-1.2-2-2,1.71-2.97,8.02-7.06,11.11-4.93,4.26-2.51,8.22-3.53,11.89-3.07Z"/>
    <path class="cls-172" d="M565,641c-.05-2.54,2.08-1.66,3,0,.32-.08.69.08,1,0,4.46-2.49,4.24,3.12,1,5-.79,1.13-2.12,1.79-4,2-.35.16-.69.91-1,1-2.98.59-6.03.78-9,0-4.69-1.88-3.96-2.9-5-7,.9-2.36,2.39-1.61,4,0,1.02-2.75,3.39-1.28,4,1,.55-1.89,2.16-3.12,4-2,.61-.12,1.42.14,2,0Z"/>
    <path class="cls-82" d="M708,529c1.78.28,2.48,1.69,2.1,4.25.85-2.11,2.15-2.85,3.9-2.25,2.4.19,2.18,1.06,0,2,.61,1.38,1.95,1.38,4,0-.87-.28-.86-.62,0-1,1.29-.87,3.59.36,3,2,.71,1.88.38,2.21-1,1-2.56,2.25-2.8,4.8-3,8,2.28.92,2.51,2.1,0,3,3.24,5.31-2.71,5.95-5,2-1.5-.38-2.83-1.38-4-3-.56-.87-1.8-3.14-2-4,.38-3.68.71-7.35,1-11,.02-.33-.05-.68,0-1,.28-.87.62-.86,1,0Z"/>
    <path class="cls-176" d="M689,618c1.68,3.93,3.51,3.97,6,6l6.56,5.71-.56,1.29c-.25.89-.58.86-1,0-.19.88-.52.84-1,0-.34,2.67-.84,2.37-2,0-.42.41-.79.71-1.04.63-.27-.09-3.2-2.04-2.96-2.63-.81,1.45-2.14,2.12-4,2,1.71,1.57-3.92,6.83-5.63,8.25-.23.19-.76.02-1.37-.25h-1c-.52-.49-.91-.92-.81-1.2.5-1.48,3.35-7.92,4.81-6.8,1.4-2,1.4-3,0-3-.23,2.73-1.11,2.55-2,0,2.04-3.1,5.43-5.96,5-10,.28-.87.62-.86,1,0Z"/>
    <path class="cls-237" d="M730,565c1.26.1,2.26.44,3,1,.33-.88.67-.88,1,0,.76,1.14,2.09,1.14,4,0,1.89-1.4,2.56-.74,2,2,.13,1.26-.77,2.78-2.72,4.54,1.77,4.2,1.67,8.76-.3,13.68l1.01,1.78c-1.09,2.03-2.29,2.05-4,3-.32-6.01,4.85-23.76-6-18-1.4-1.19-3.19-1.85-5-2-.86-.28-.84-.61,0-1,1.54-.32,2.87-.98,4-2-1-2.84.17-4.15,3-3Z"/>
    <path class="cls-198" d="M618,628c.58.78.83,2.65,2,4l.33,1.11c-2.7.95-5.44,1.82-8.33,1.89-2.58-.45-4.7-1.9-7-3-2.52-1.02-.17-4.04,2-4,1.39-1.56,2.39-1.89,3-1l1.85,1.03c4.38-5.3,6.43-5.31,6.15-.03Z"/>
    <path class="cls-31" d="M616,645c1.59-.62,2.47-.95,2,1,2.91,2.69,3.24,3.18,7,5,2.69.1,4.02.77,4,2,.21.71-.46,1.05-2,1-4.24-.93-6.35-1.98-10-3-4.73,2.16-7.06,1.83-7-1,3.07-3.56,3.9-3.07,6-5Z"/>
    <path class="cls-183" d="M742,568c-.15.95.17,2.07,0,3-.87,1.35-1.21,3.02-1,5,0,4.1-.99,7.76-3,11-.13.28.14.75,0,1-4.58,1.58-1.01-6.09-.97-9.47.02-2.29-2.25-6.09-2.08-6.94.06-.3,3.9-2.58,5.05-3.59.72-1.68,1.62-1.9,2,0Z"/>
    <path class="cls-24" d="M621,573c1.21.73,1.22,1.37,0,2,.8,1.63,5.2.54,3,5l-2.1-.31c1.42-4.32-5.28-1.97-2.9.31.26-.82.6-.8,1,0,.87.28.86.62,0,1,.21,1.03-.46,1.7-2,2-.44,0-1.39-.89-2-1-1.61.9-3.61,1.23-6,1-.49-.3-.47-.63,0-1-2.06-.4.71-3.82.62-2.68-.05.62-.92.45-1.62-.32,3.97-1.88,7.27-5.43,12-6Z"/>
    <path class="cls-45" d="M578,637c3.97-2.76,4.42-.43,2,3-2.17.86-5.58,4.5-8,6-.89.52-1.56.52-2,0-1.9-3.05,3.21-3.13-1-5,.31-.08.69-.91,1-1,.8-1.62,1.8-2.62,3-3,.26-.9.6-.88,1,0,1.61-2.61,2.61-3.08,4,0Z"/>
    <path class="cls-133" d="M614,614c.06,4.32-3.31,11.15-7,14-2.13,2.91-1.84,3.85-2,4-1.3,1.19-1.75,1.23-3,2-3.33-1.17-.85-2.62-1-3-.47-.69-.6-1.37-.05-1.88,5.56-5.2,8.96-9.85,9.72-17.78l1.33-.34,2,3Z"/>
    <path class="cls-24" d="M644,566c7.78,2.31,8.15,8.79-1,6q2.31-2.32,0,0c-1.83-.56-1.68-4.22-4.99-2.99-.46,1.33,2.07,1.35,1.99,1.99-.89,2.38-2.89,3.05-6,2-9.5-2.11,1.65,1.24,0,3.99-1.55,2.58-6.24.86-8,.01q.92-1.53,0,0c-.71-.34-1.32-3.09-4-2-.18-.45-.31-.9-.3-1.35.02-.76,12.04-5.02,14.3-4.65-.42-.86-.04-1.16,1-1,.24-.86.58-.84,1,0,1.59-.25,2.25-.58,2-1-1.55.52-1.89.19-1-1,2.18-.18,1-1.19,5,0Z"/>
    <path class="cls-3" d="M716,519c-1.55,7.72,4.6,6.82,9,11,1.93.71.86,2.67-1,2-.54,2.61-1.11,2.51-2,0q-2.59-3.28,0,0c2.46.87,2.62,2.89,0,4-1.96.85-1.86-.37-1-2-1.19-1.1-1.95-1.27-3-2-1.88.46-3.86.14-4-2-1.36-1.59-1.36-2.59,0-3-.57-.3-.55-.63,0-1-2.15-2.34-2.15-4,0-5-1.78-.49-1.66-1.22,0-2,.52-.14,1.35.08,2,0Z"/>
    <path class="cls-115" d="M560,639c1.98,1.14.69,3.23-1,4-2.37.19-2.91-.81-4-1-2.82-.47-3.48-1.47-2-3-1.04-2.28-.79-4.79,2-5,.11-.29-.1-.7,0-1-1.24-1.49-.65-2.02,1-1,2.4-2.55,4.64,3.72,4,7Z"/>
    <path class="cls-179" d="M701,559c-1.95,3.78.31,2.44,2,5,4.32-.98,4.49.54.52,4.55l-1.52-2.55c-1.02,1.22-2.02,2.55-3,4,.87.28.86.62,0,1,.27,1.88-1.73,2.54-6,2v2l3.65-.16c2.05-2.54,9.53-3.1,9.35,1.16-1.05.78-2.05,1.45-3,2-1.16,0-2.84-1-4-1l-5,1c-.89.49-1.6,1.03-2,2-.18.91-.52.87-1,0-1.89.67-1.89-.67,0-4-1.99.49-2.77.06-3-2-.67,1.51-1.48,1.6-2,0-1.79,1.76-2.28,1.46-2-1,2.07-1.51,4.79-.82,5-1.02.28-.27-.21-1.81,0-1.98q2.96-1.54,0,0c-2.25-1.21-2.52-2.75-3-5l1.79-1.4c1.97.71,3.68,1.16,5.21-.6.28-.87.62-.86,1,0,.82.58,1.49,1.25,2,2,1.02-.68,1.03-1.34,0-2-.86-.27-.84-.61,0-1,2.38-1.05,3.14-1.95,5-3Z"/>
    <path class="cls-145" d="M569,603c-.68,1.33-2.33,2.57-4,3,.38,2.49-2.64,3.8-5,3-.66,2.09-2.49,2.16-3,0-1.45,2.51-3.2,3.14-4,0-.67,2.01-2.71.93-2-1-.09-.07-.5-1.36-1-2-2.15-1.12-.25-4.33,2-3,3.49.42,6.82,1.09,10,2-3.89-4.13,6.43-5.95,7-2Z"/>
    <path class="cls-47" d="M563,594c3.06-.17,5.88.73,8,3-2.11,1.55-5.24,2.17-9.4,1.86-3.1,1.67-5.3,1.71-6.6.14h-1c1.08-2.19,6.77-4.87,9-5Z"/>
    <path class="cls-208" d="M609,579c.23,1.2.56,2.2,1,3,.09.31-.07.68,0,1,1.5-.74,1.95-.46,1,1,1.8.89,2.29,1.04,4,0-.3-.96.04-1.29,1-1,.39.54.6,1.63,1,2,1.11,2.34,1.45,4.34,1,6,.19.39-.13,1.4,0,2,.87.28.86.62,0,1-.89.33-1.56-.34-2-2-2.24-5.34-8.84-7.94-14-10,2.6-.91,4.55-1.84,7-3Z"/>
    <path class="cls-233" d="M664,558l7,1c2.2.53,3.38,1.82,4,2-4.29,2.4-8.18,1.43-13,2-.65.08-1.35-.09-2,0,.54-3.01.77-4.16,4-5Z"/>
    <path class="cls-107" d="M599,586c-2.31,1.35,2.66,1.94,1,4-4.36.59-8.7-.08-13-2l-3-2c.29-.46.62-.44,1,0,4.35-.53,7.33-2,11-3,3.12.45,4.12,1.45,3,3Z"/>
    <path class="cls-118" d="M674,622l-20,7c-.26-1.03-.42-2.08-1-3,6.86-1.24,14.2-2.4,21-4Z"/>
    <path class="cls-129" d="M587,635c-1.97,1.25-6.1,2.59-6,5-.29.11-.71-.11-1,0,.31-3.97.03-2.47-2-3-.43-.87-.05-1.17,1-1,.4-2.31,1.35-6.08,4-5-.69-1.48.5-2.48,2-2,3-.56,4.48,4.45,2,6Z"/>
    <path class="cls-181" d="M720,551c-.34,1.73-1.01,2.39-2,2-4.31,5.07-3.68,1.71-5,2,4.81.2-.63-3.1-1-6-.47-.29-.45-.62,0-1,2.4-.96,6.07,2.97,5-2,2.65-1.47,5.69,3.19,3,5Z"/>
    <path class="cls-41" d="M624,638c6.93-.31,1.67,10.38-4,6-1.39.21-1.39-.45,0-2,.87-.71,2.84-2.88,4-4Z"/>
    <path class="cls-91" d="M685,628c2.1.36,1.61,1.94,0,3-.27,1.2-3.17,6.81-4,8-.26.37-.7.65-1,1-1.28,2.07-2.28,1.4-3-2,.12-.98.85-1.52,1-2,2.22-1.05,2.89-2.38,2-4,.7-1.35,2.1-2.63,3-4,.57-.13,1.72.2,2,0Z"/>
    <path class="cls-241" d="M630,568c2.83-.47,4.83-.13,6,1-3.06,3.01-10.44,3.11-14,6h-1c-.42-.86-1.16.06,0-2,.15-.26-.16-.88,0-1l5-1c1.73-.82.87-1.97,4-3Z"/>
    <path class="cls-178" d="M617,651c-.1,1.9-2,4.02-4,4-.28.87-.62.86-1,0-1.53-1.68-5.77,1.21-5.99,1-1.99-1.9,3.24-5.14,3.99-6,2.54,1.32,3.88.12,7,1Z"/>
    <path class="cls-234" d="M689,631c1.15-2.03,4.05-.41,3,2-.59,3.21-1.26,6.54-2,10l-4,2c-1.56-1.66-.92-3.05,0-4.72l-2.01-.28-2-1c3.21-1.77,3.64-4.93,7-8Z"/>
    <path class="cls-177" d="M684,640c.94-1.7,3.28-5.89,5.99-4.99-1.09,2.71-2.65,7.71-3.99,9.99-.26.44-.76.68-1,1-1.48,1.38-2.01.83-1-1-1.02-.2-1.35-1.2-1-3,.2-.64.66-1.39,1-2Z"/>
    <path class="cls-157" d="M699,631c.8,1.17.8,2.84,0,5,1.63-.61,1.73.7,1,2-.05.79-.72,1.36-1,2-2.86,2.98-3.32,1.49-3-2-1.6.79-2.29-.8-1-2,.18-3.65.84-5.32,2-5,.63.1,1.39-.13,2,0Z"/>
    <path class="cls-221" d="M704,631c.33.03.71-.08,1,0,.45-.68.79-.35,1,1-.05,1.61.5,1.52,0,5-.28.87-.62.86-1,0-1.56.07-1.43-1.5,0-2-1.39-1.58-2.72-.58-4,3h-1c-.17-.61-1.01-1.54-1-2l1-5c.32.06.67-.03,1,0,.12-2.15,1.57-1.31,3,0Z"/>
    <path class="cls-88" d="M691,561c1.58-1.79,3.46.06,2,2,1.39,4.33-3.95,3.5-7,2-.13-.6.09-1.37,0-2-.87-.28-.86-.62,0-1,1.9-.09,3.34-.78,5-1Z"/>
    <path class="cls-199" d="M627,667c-3.05-9.68,3.26-16.63,2-1-.05.65.1,1.37,0,2-1.01,1.93-2.28,1.04-2-1Z"/>
    <path class="cls-201" d="M630,651c.34.05,1.15.86,2,1,1.81-.96,3.14-.96,4,0,.11,1.7.92,3.09,1,4l-7-1c.32-.6-.01-1.27-1-2-1.24-.83-2.66-1.35-4-2,1.63.16,3.4-.24,5,0Z"/>
    <path class="cls-62" d="M708,602c5.5,5.88,2.6,1.53,5.99-1.99.11,2.56-1,2.97,2.01,2.99-2.99,1.67-3.53,2.84-8,4-1.69-.12-1.92-1.84,0-2,0-1,.04-2.01,0-3Z"/>
    <path class="cls-159" d="M554,599c.29-.1.67.07,1,0,.95,2.15-.52,4.35-3,4-.63.97-1.74,1.72-2,3-.17-.22-3.87.95-1.47-3.97,1.44-2.94,3.38-2.32,5.47-3.03Z"/>
    <path class="cls-194" d="M601,583l8.99,15c-3.86-6.06-5.29-7.7-10.99-12-.91-.69-1.79-2.35-3-3,1.31-.36,3.85.4,5,0Z"/>
    <path class="cls-188" d="M620,632c.17.19,2.77-.63,2,2-4.41.47-3.77,2.09-10,1l8-3Z"/>
    <path class="cls-168" d="M637,665c-1.22,6.51-4.28,6.99-5,0,.15.04,1.03-1.14,1.46-1.03,1.34.37-.21,2.75,1.04,3.04,1.46.34-1.41-7.54,2.5-2.01Z"/>
    <path class="cls-116" d="M706,622c-.21-2.58.21-14.13,0-15,.28-.87.62-.86,1,0l-1,15Z"/>
    <path class="cls-97" d="M614,658c-.48.68-1.38,1.35-2,2,.25,1.87-.13,3.04-2,2-.3.59-.63.58-1,0,.55-2.57,1.29-4.94,3-7h1c3.29-1.42,2.93.52,1,3Z"/>
    <path class="cls-90" d="M557,628c-.28,1.33-.62,2.7-1,4-.12.42-.92.77-1,1-3.56-3.97-4.85-4.7,1-6,.59-.74.92-.41,1,1Z"/>
    <path class="cls-12" d="M693,636c.89.19.86.52,0,1,.15,1.91-.13,4.13-2,5,.88.25.86.58,0,1h-1c-3.87-1.06,1.72-6.46,2-10,.28-.87.62-.86,1,0,.67.85.82,2.23,0,3Z"/>
    <path class="cls-53" d="M743,561c-.2,2.62-.62,4.52-1,7-.91,0-1.16-1.09-.76-1.74.44-.72.4,1.73-1.24,1.74-.47-.02-1.75-2-2-2-.61-2,.39-4,3-6,1.42-1.45,2.24-1,2,1Z"/>
    <path class="cls-137" d="M710,523c2.65.54,2.54,1.21,0,2,.82.15,1.49.49,2,1,1.16,1.46.49,1.8-2,1,1.66,2.27.51,3.21-2,2h-1c.48-3.43-.62-3.63,2-7,1.41-1.33,1.99-.73,1,1Z"/>
    <path class="cls-61" d="M695,636c.22.69.73,1.32,1,2,1.37,2.31,1.04,4.31-1,6,.28,2.01-.56,2.43-2,1-1.6-2.45-1.98-1.86-2-2-.05-.33.04-.67,0-1,1.3-1.3,1.97-2.97,2-5,0-.33,0-.67,0-1,.28-.87.62-.86,1,0,.29-.87.62-.86,1,0Z"/>
    <path class="cls-104" d="M553,609c2.66-.09,2.38,2.39,0,3-1.3-.78-8.73-2.52-2-4,.15.11,1.82.96,2,1Z"/>
    <path class="cls-220" d="M621,662c-.08.64.16,1.52,0,2,.35,1.35-.48,3.21-2,3-.71-1.34-1.38-2.01-2-2,.1-1.42.18-2.77,1-4,.78-2.74,3.15-2.6,3,1Z"/>
    <path class="cls-99" d="M557,609c2.34.66,1.06,2.79-1,3-.55.26-.61,2.18-2.5,2.03-.87-.07-.36-1.95-.5-2.03v-3c1.04.21,2.78,0,4,0Z"/>
    <path class="cls-128" d="M738,587c.83-1.82,2.36-8.49,3-11-.04,4.24.84,8.05-3,11Z"/>
    <path class="cls-136" d="M555,634c-.62,1.67-.88,3.24-2,5-.25.86-.58.83-1,0-1.31-4.47-2.36-5.61,3-5Z"/>
    <path class="cls-158" d="M696,638c.56,1.42-1.02,2.58,3,2-.88,2.01-1.43,2.06-2,3-.61,1.41-1.28,1.74-2,1l1-6Z"/>
    <path class="cls-25" d="M696,562c-.77,1.98-1.43,2.32-2,1h-1c-.2-.62-1.48-1.43-2-2,1.33-.17,1.12-5.31,5,1Z"/>
    <path class="cls-184" d="M621,662c-1.43-3.17-1.9-1.03-3-1-.11,0-.61-.83-1-1,3.8-2.19,5.05-5.96,4,2Z"/>
    <path class="cls-256" d="M704,601c1.22,1.52,1.47,4.36,4,4v2c-.31.08-.68-.06-1,0h-1c-.07-.28-2.49-4.17-3-5-.9-1.49-.57-1.96,1-1Z"/>
    <path class="cls-21" d="M701,638c-.19-3.26,2.75-8.34,4-3-.82,1.29-1.49,2.95-2,5,.61.33.61.66,0,1-.34-.75-1.97-2.56-2-3Z"/>
    <path class="cls-152" d="M681,562c.23-5.6,4.61.02,5,0v1c-1.92.88-3.97-.87-5-1Z"/>
    <path class="cls-134" d="M706,637c-.28,1.94,1.17,4.11,0,6-2.71,2.86-3.41-.58-2-3-1.01-.79-.64-3.63,1-3h1Z"/>
    <path class="cls-165" d="M617,666c.69.49,1.36,1.49,2,3,.28-.87.62-.86,1,0-4.1,5.61-6.67,1.31-3-3Z"/>
    <path class="cls-140" d="M680,632c4.26-1.1.51,6.64-2,4,.58-1.84,1.24-2.54,2-4Z"/>
    <path class="cls-57" d="M560,609c.87.28.86.62,0,1,.79,1.1.46,2.39-1,2-.83.18-2.45-.26-3,0l1-3c.57,0,2.86.04,3,0Z"/>
    <path class="cls-83" d="M613,663c-1.48.88-2.56,3.15-4,2-.74-1.2-.19-2.39,1-3,.76-1.16,1.35-1.31,2-2l1,3Z"/>
    <path class="cls-175" d="M706,541c-.07-.31.05-.68,0-1-.84-2.54-.84-5.2,0-8,.27-.72.33-1.49,1-2-.22,3.49,1.02,7.99-1,11Z"/>
    <path class="cls-95" d="M552,639c.32.12.79-.14,1,0,.6.41,1.3,2.33,2,3-1.22-.22-2.73.15-4,0-.26-1.01-1.37-3.35-.99-4,.17-.29,1.39.78,1.99,1Z"/>
    <path class="cls-217" d="M559,615c2.4-.21,3.07.46,2,2,.87.28.86.62,0,1,.93,1.48.57,1.96-1,1h-1c.03-.26-1.86-2.23-2.02-3.49-.39-3.04,1.86-.3,2.02-.51Z"/>
    <path class="cls-39" d="M689,616c.2.49-.2,1.52,0,2h-1c-1.32.36-2.7.58-4,1v-2c-.09-2.98,3.54-3.77,5-1Z"/>
    <path class="cls-121" d="M743,561c-.68-.28-1.31-.75-2-1-.12,1.38,1.07,3.78,1,3.97-.08.21-2.41.21-4,2.03-2.03,1.64-3.36,1.64-4,0-.33,0-.68-.03-1,0-2.05.44-2.51-.66-1-2-1.46-2.35-.57-3.2,2-2,.6-1.15,1.79-2.54,3-2,2.37-.91,1.66-.86,4,0,.06-.65,0-1.34,0-2-.43-.87-.05-1.17,1-1,.67-.67,1.32-1.34,2-2,.03,2.35-.86,4.11-1,6Z"/>
    <path class="cls-54" d="M697,643c-.16.27-1.04,5.62-3.51,4.99-1.17-.3-.1-2.39-.49-2.99.67-.33,1.33-.67,2-1s1.33-.67,2-1Z"/>
    <path class="cls-60" d="M733,537c2.39,1.47,1.89,1.92,2,2l-5.99,1.99,3.99-3.99Z"/>
    <path class="cls-237" d="M733,591c.07,2.98-2.44,2.9-4,4-.84-6.63,1.46-2.39,4-4Z"/>
    <path class="cls-209" d="M627,667c.51.15,1.23.97,2,1-1.09,6.68-1.98,1.57-4-1,.62.1,1.46-.15,2,0Z"/>
    <path class="cls-13" d="M619,667c1.51-.18,1.09,1.18,0,2-3.01,2.29-1.8-.18-2-3-.02-.32-.02-.68,0-1,2.63-1.84,2.01-.87,2,2Z"/>
    <path class="cls-93" d="M559,620c-.15,1.2-.86,2.18-1,3-.69,2.61-1.12,2.6-2,0-.02-2.19-3.62-3.48,3-3Z"/>
    <path class="cls-237" d="M742,571c-.41,2.23-.35,2.43-1,5,.04-4.17-4.76-7.59,1-5Z"/>
    <path class="cls-231" d="M565,649c-4.17,1.2-4.61,1.76-9,0h9Z"/>
    <path class="cls-110" d="M704,640c-.2,2.11-.45,3.53,2,3-4.5,7.3-3.05-.47-3-2,.01-.33-.04-.68,0-1,.28-.87.62-.86,1,0Z"/>
    <path class="cls-96" d="M570,646c.65-.08,1.34.05,2,0-2.06,1.27-2.98,2.61-6,2,1.23-.55,1.44-1.69,4-2Z"/>
    <path class="cls-64" d="M637,568c-.33.34-.66.67-1,1l-6-1c.8-.26,4.28-.64,6-1,1.6-.34,1.93,0,1,1Z"/>
    <path class="cls-98" d="M677,638l3,2c-.86,1.01-1.46,2.71-2.99,3,.11-1.63-.21-3.38-.01-5Z"/>
    <path class="cls-131" d="M706,540c-2.27-2.6-1.02-5.3,0-8,.25,2.56-.35,5.53,0,8Z"/>
    <path class="cls-126" d="M714,521c-.11,3.09-1.5,3.79-4,2-.07-.24-.8-.61-1-1,1.45-1.87,2.82-2.4,5-3-.09.63.13,1.4,0,2Z"/>
    <path class="cls-154" d="M561,612c1.46,3.49,2.1,5.5-2,3-.18-.45-.04-2.23,0-3,.01-.31,1.02-1.3,1-2,.29-.74.62-.73,1,0,1.91.56,1.91,1.44,0,2Z"/>
    <path class="cls-26" d="M622,664c-.36,1.69-.98,3.61-2,5h-1c.11-.62-.16-1.48,0-2,.27-.88,1.7-2.08,2-3h1Z"/>
    <path class="cls-247" d="M706,632c-.38-.21-.75-.93-1-1l1-5c.05,2.25.07,3.73,0,6Z"/>
    <path class="cls-186" d="M620,644c-.22.38-1.82,1-2,2-.31-.29-1.57-.36-2-1,1.18-1.09,2.74-1.97,4-3-.13.58.2,1.66,0,2Z"/>
    <path class="cls-80" d="M558,623c-.28,1.63-.65,3.37-1,5-.4-.17-.93-.57-1-1-.19-1.14.01-2.73,0-4h2Z"/>
    <path class="cls-105" d="M712,548c.03.33-.04.67,0,1-1.82-.89-2.94-2.34-4-4l4,3Z"/>
    <path class="cls-234" d="M684,645c.71,1.49-1.05,2.74-2,1-.58-2.12.62-2.8,1-4,1.29.68.75,2.05,1,3Z"/>
    <path class="cls-163" d="M671,559l-7-1c2.85-.74,4.71.44,7,1Z"/>
    <path class="cls-9" d="M628,634c-.33.33-.65.69-1,1l-4-1c2.58-.35,1.03-1.2,5,0Z"/>
    <path class="cls-236" d="M720,600c-.63,1.59-2.28,3.02-4,3,.49-.28,2.08-1.86,4-3Z"/>
    <path class="cls-102" d="M685,646c-.16.21-1.52,5.48-3,0l2-1c.1.4.65.76,1,1Z"/>
    <path class="cls-85" d="M585,586c-.33.04-.67-.04-1,0-.54.07-5.55.55-3-1,.98.33,3.21-.69,4,1Z"/>
    <path class="cls-207" d="M636,652c-1.28-.15-2.76.21-4,0,.88-1.28,3.15-1.32,4-2,.03.66-.04,1.34,0,2Z"/>
    <path class="cls-29" d="M639,566l1,1c-.35.55-1.02.88-2,1-.33-.02-.68.05-1,0-.39-.06-.79-.63-1-1,.9-.19,1.87-.91,3-1Z"/>
    <path class="cls-32" d="M626,571l-5,1c2.49-1.83,4.07-.56,5-1Z"/>
    <path class="cls-138" d="M610,662c-.58.89-.79,1.98-1,3-2.12-1.7-.22-1.96,0-3h1Z"/>
    <path class="cls-100" d="M665,585c6.3-2.81,3.05,2.93,9,4,2.62,1.04,3.97,3.52,4.06,7.45-.11,6.24,1.2,7.43,3.94,3.55.28-.87.62-.86,1,0,.48,1.54,2.28,3.78,3,6,.76,4.16,1.53,9.17-4.19,7.31-2.64,1.85-4.79,2.41-7.81,1.69-3.63.92-7.33,2.18-11.08,3.79-2.86-.81-5.98-.1-9.36,2.11-2.04.31-5.76.33-7.56-.9-2.66-2.93-5.24-6.18-8-9,1.58-3.08,1.18-6.78-1.21-11.09l1.21-1.91h1c1.77-1.56,3.52-1.64,4,1,.62.51.8,1.14.9,1.89.29,2.27.67,7.81-.9,9.11,1.73.3,2.44,1.63,2.13,4,1.53-1.97,3.15-3.3,4.87-4-1.75-1.42-2.52-4.1-2.31-8.01-2.86-.41-4.43-1.41-4.69-2.99-.82-3.03,3.94-2.48,6-2,1.39-1.04,3.06-2.04,5-3,4.42,0,1.92,4.61-1.93,5.68,1.64,4.21,1.62,7.32-.07,9.32,1.87,1.69,7.72,2.12,5.87-1.92,1.72-.58,1.59-1.62,1.13-3.08-3.36-1.23-3.62-7.71-3-11h1c.98-2.38,4.1-1.93,4,1l1.07,1.85c.56,18.22,6,12.8,1.22-1.21.13-2.18,2.58-2.79,4.43-1.84.68.35-1.94,1.39-2.72-.8,2.02-2.32-1.75-3.38-2-5,4.11-.89,4.78-1.56,2-2Z"/>
    <path class="cls-84" d="M646,620c4.81,1.05,3.87-5.9,5.51-5.99,1.2-.07.04,4.37.51,4.99.39.53,10.77-2.28,8-6.99.25,7.62,6.97,5.42,7-1,1.68,7.04,1.74,1.27,6.99,3.99.87.25.85.58,0,1l-13.52,5.98c-.12-6.4-3.77,2.31-9.48,2.02-.68-.88-3.38-2.21-5-4Z"/>
    <path class="cls-108" d="M626,599c3.77-1.6,3.81,2.01,3.36,5.02l2.12,4.82c-2.68.03-5.3.52-7.48,2.17-.31.35-.69.65-1,1-.86,3.88-4.17,11.69-5,4l-1.15-.85c.87-2.76,1.96-5.53,3.15-8.15-.66-5.65-.85-12.73,6-8Z"/>
    <path class="cls-20" d="M617,606c.26,1.91-.2,4.05.01,5.99,1.09.16,1.92-4.36,1.99-4.99.28-.87.62-.86,1,0-.74,2.39-1.2,6.31-2,9,1.55,1.16,1.27,2.71-.83,4.65l1.83.35-1,7c-.86-1.15-.51-3.16-1.99-2.99.13,4.13-7.72,8.44-6.01,1.99l-.66-.85c3.9-6.09,6.07-12.55,6.51-19.38l1.16-.77Z"/>
    <path class="cls-66" d="M627,597c1.03-1.08,2.78-.73,5.27,1.04,1.95-2.72,7.06.76,4.77,3.6-7.69.53-7.3,2.84,1.18,6.94l-.21,2.43c-4.71-.61-8.47-2.55-14,0,2.4-2.74,5.83-2.74,6-3.02.64-1.04-2.5-8.14-4-8.98-2.63-.78-2.59-1.1,0-2,.31.08.68-.07,1,0Z"/>
    <path class="cls-52" d="M619,621c-1.6,1.96-2.32,2.86-4.99,3-.04-2.58,3.41-6.06,3.99-8l2.99,1.99c-.52-3.57-.01-3.7,2.01-5.99.07,4.88-1.36,5.77-4,9Z"/>
    <path class="cls-9" d="M629,634c2.76-2.83-3.45-1.41.5-4,12.32-8.06,1.87,2.64,1.5,5-.92.13-1.46-.75-2-1Z"/>
    <path class="cls-229" d="M706,591c.2-1.97-3.44-11.57-2.99-11.99.33-.31,8.62-.27,8.98-.01,2.57,1.84,3.58,30.95-4.99,14.01-.13-.4-.71-1.39-1-2Z"/>
    <path class="cls-229" d="M683,586c.87.28.86.62,0,1-.02.7-.49.77-1,1-1.28,3.39-1.28,7.39,0,12-.12,7.35-2.61,2.45-4.99,5.99-.21-5.73-.98-11.61-3.01-16.99-.11-.3.12-.73,0-1,2.85.71,4.86-1.37,7-2,.94-.66,1.61-.66,2,0Z"/>
    <path class="cls-43" d="M689,616c-1.69-.07-3.43.87-5,1-2.94.24-3.29-2.02-3.49-2-2.14.24-5.47,7.54-6.51,1-.05-.32.03-.67,0-1-.14-1.85,1.03-4.06,1.01-5.99.62,7.81,5.71,5.1,6-1,1.56,6.71,5.38,4.09,4.99-2.01.89,2.72,2.26,8.2,3,10Z"/>
    <path class="cls-252" d="M695,624c2.13,1.74,7.02,2.92,9,7-.98-.1-2.01.08-3,0l-6-7Z"/>
    <path class="cls-46" d="M682,588c-.7,3.49-.03,8.7,1,12h-1c.03-1.62-3.25-10.7-3.02-11.49.35-1.18,2.25-.17,3.02-.51Z"/>
    <path class="cls-101" d="M704,601l-1,1c-1.8-2.93-4.86-4.45-7-6.99,3.82.19,5.91,3.39,8,5.99Z"/>
    <path class="cls-185" d="M693,584c-1.09.06-7.53,3.4-10,3v-1c1.84-1.72,8.98-5.75,10-2Z"/>
    <path class="cls-6" d="M701,586c-1.95.07-4.42-2.18-8-2-.64-3.93,10.92-2.79,8,2Z"/>
    <path class="cls-246" d="M594,597h2c4.32,11.97-8.13,14.7-17.54,14.45l-.46.55c-.22,1.45-1.74,1.72-3,1-1.16-.7-2.82-1.03-5-1-.15.8-1.4.65-2,0-3.16.05-5.16-.61-6-2,.14-.55,2.46-2.53,2.66-2.52,1.02,1.62,4.05,1.81,4.49-.15,7.92.42,16.15.67,18.85-8.33.37-.2.68-.88,1-1-.8-2.86,1.37-3.34,3-1,.6-.12,1.35.05,2,0Z"/>
    <path class="cls-253" d="M600,597c.32.09.73-.11,1,0,3.96,7.03,1.72,12.92-7,12,1.87,2.5-2.75,6.32-5,4-1.18,2.84-8.8,1.2-11,0-.87-.28-.86-.62,0-1,.1-.05-1.08-1.44-1.01-1.99,3.55.05,14.41-1.53,16.57-3.94,4.76-5.33-3.97-7.57,2.44-9.07h4Z"/>
    <path class="cls-89" d="M600,590c-.78.96-2.64,1.08-4,2,.95.51.62,1.18-1,2-.33.02-.67.01-1,0-2.53-1.55-2.86-1.55-1,0l-1,3c-.69.13-2.2.71-3,1-5-1.66-6.77-7-2-10,4.26-2.68,8.8,1.13,13,2Z"/>
    <path class="cls-71" d="M607,605c.68.21.64.55,0,1,.31,1.49-.03,2.16-1,2-1.09,4.97-2.61,6.47-4.56,4.5-4.18.49-6.66-.68-7.44-3.5,1.92-1.42,5.5-2.05,6.51-4,2.39-4.64-3.68-6.05.49-8,3.49,1.39,4.58,5.01,6,8Z"/>
    <path class="cls-78" d="M612,611c-.82,6.26-5.69,16.16-11,20-1.8-4.57-2.38,2.96-7,2.99,1.54-3,4.77-4.72,7-6.99.82-1.59,1.82-2.25,3-2,1.6-3.6,3.26-6.94,5-10,.33-1.27,1.18-17.39,2.99-15,.33.44.2,9.58.01,11Z"/>
    <path class="cls-202" d="M617,604c.13.59-.09,1.36,0,2,.64,8.4-5.31,14.61-7,21l-3,1c3.56-4.88,5.42-8.03,7-14,1.22-4.59.17-10.36,1-13,1.62-.32,1.88,1.52,2,3Z"/>
    <path class="cls-242" d="M608,610c-.09.98.14,2.03,0,3-.09,4.08-1.42,8.08-4,12-1.53,1.81-2.75,1.74-3,2,.28-2.34,2.28-3.89,3-6-.85-4.19-.37-9.14,2-13,.32-.42.36-1.53,1-2,.89.79,1.22,2.12,1,4Z"/>
    <path class="cls-208" d="M625,597c.31.08.69-.08,1,0v2c-5.5-3.06-4.95,4.6-6,8h-1c.43-4.02-.42-6.4-1-10-1.23-1.84-1.06-3.48,1-2,2.28-.58,4.97.11,6,2Z"/>
    <path class="cls-112" d="M609,615c-1.26,4.88-1.72,6.12-5,10,.51-3.86,3.48-8.35,4-12l1,2Z"/>
    <path class="cls-22" d="M616,597.99c-3.02.3-4.26-5.97-4.99-7.99,3.21,1.41,3.71,5.15,4.99,7.99Z"/>
    <path class="cls-225" d="M593,594c-9.37.13.43-6.23,1,0-.33-.01-.67,0-1,0Z"/>
    <path class="cls-112" d="M608,610c.22-2.33-.96-3.42-1-4-.02-.33.02-.67,0-1-.05-1.02-.62-3.29.99-2.99v7.99Z"/>
    <path class="cls-206" d="M596,592l6,1.99c-2.95-1.62-5-.09-7,.01.02-.86.26-1.5,1-2Z"/>
    <path class="cls-29" d="M618,594c.85-.41,1.16-.03,1,1-.9-.11-1.1,1.4-1,2-2.22-1.1-1.45-3.68-2-5,.66.67,1.36,1.31,2,2Z"/>
    <path class="cls-144" d="M610,588.99c-.99,1.01-4.45-2.55-4-2.98,1.05-.98,4.43,2.54,4,2.98Z"/>
    <path class="cls-89" d="M600,597c-.93-.26-2.8.06-4,0-.65-.03-1.36-.05-2,0h6Z"/>
    <path class="cls-20" d="M615,601c1.04-3.33,2.86.47,2,3-.17-.79-1.54-2.14-2-3Z"/>
    <path class="cls-232" d="M692,580c.55-.12,3.65,1.01,5.43,1.01,1.47,0,3.53-2.9,4.57-2.01.34.3,2.33,6.87-.99,6.99-1.07-.73-1.26-2.34-3.77-2.84-2.75-.55-3.59.81-4.23.84-4.86.22-5.82.91-10,2-2.38.62-1.9-.03-2,0,1.05-1.85,3.25-2.19,5-3,1.87-2.81,3.54-3.81,5-3,.31-.08.68.07,1,0Z"/>
    <path class="cls-169" d="M686,574c.11,1.21.78,1.21,2,0,1.56.38,1.67-.71,3,2,.05,1.39-.61,2.5-2,2-4.18.76-9.18-1.94-5-5,.77,0,1.52.87,2,1Z"/>
    <path class="cls-103" d="M670,567c.24-.85-3.8-4.36,3.52-3.08,2.17.38,1.74,1.46,2.48,3.08-1.45.16-4.34,2.53-6,0Z"/>
    <path class="cls-49" d="M675,570c.17,1.78.5,1.78,1,0,1.47-.64,1.9.02,2,0l-1,4c-1.52-.37-5.81.72-4.99-3.45.53-2.7,2.85-.5,2.99-.55Z"/>
    <path class="cls-161" d="M673,577c2.65,5.65-4.37,4.65-5,0,.77-.42,4.02.42,5,0Z"/>
    <path class="cls-210" d="M691,580c-.28.07-3.04,2.09-5,3,.65-1.72,1.97-3.51,3-5,.52-.76,1.36-1.33,2-2,1.49,3.04-1.78,2.58,0,4Z"/>
    <path class="cls-130" d="M683,568c-.66,4.04,2.55.46,2.99,1,2.51,3.09-8.25,2.52-4.99-1,.66-.04,1.34.03,2,0Z"/>
    <path class="cls-18" d="M675,576c1.27.26,4.28-.4,4.99,0,2.56,1.46-3.83,3.83-4.99,0Z"/>
    <path class="cls-86" d="M664.99,565.01c1.15,1.11-2.11,4.18-3.99,2.99s3.2-3.74,3.99-2.99Z"/>
    <path class="cls-37" d="M671,583c.77.41,3.44-.74,4.01.51l-4.01,1.49c-.51-.76-1.66-1.87,0-2Z"/>
    <path class="cls-213" d="M683,565.99c-.16.13-4.41.69-3.99-.97,1.75-1.6,4.84.3,3.99.97Z"/>
    <path class="cls-143" d="M665,592c1.01-.28,7.65-2.24,7.99-2,.72.52,2.91,15.73,2,17-11.59,2.69-2.78-8.73-9.98-13.99.53,3.13,3.54,13.75,1.98,15.99-3.09,4.46-10.8-10.03-5.99-15-1.38-2.51-.48-3.46,2-2,.48-.18,1.42.16,2,0Z"/>
    <path class="cls-254" d="M647,574c5.07-4.84,9.42,2.08,6,6-.9,1.98-1.06,2.77-1,5-1.22.56-1.43,2.39-2,3,1.11.95.11,1.62-3,2-.28.65-.61.63-1,0-.52,2.35,2.83,3.72,4.75,2.69l.25,2.31c-.42,1.31-1.28,1.22-2,0-1.14,2.3-6.74,3.56-7.01.29,2.92-3.32-1.65-3.48-4.99-2.29-.29.69-.63.68-1,0-.79-1.19-1.09-.77-2-3,.28-.87.62-.86,1,0,.19-.89.52-.86,1,0,2.97-1.93,2.38-3.83-1-4,2.18-1.59,4.26-2.8,7-3,3.48,2.4,3.81,2.4,1,0-3.32-1.2-2.37-.66-4-3l.83-1.1c2.5.54,3.89-.42,4.17-2.9.56-.18,1.62-1.96,2-2,4.48,2.67,4.81,2.67,1,0Z"/>
    <path class="cls-35" d="M650,588c.75,1.12,5.79,4.67,6,5,2.01,3.23,2.58,7.27,3,11,2.17,5.49-3.1,6.25-7,5-.38-1.6-2.22-9.87-2.07-10.38.19-.68,8.01-3.13,4.07-4.62-1.11,1.14-2.11,1.48-3,1-.78-.51-8.73-3.11-5-5,3.1,1.44,3.44,1.44,1,0,.87-.73,2.25-1.19,3-2Z"/>
    <path class="cls-239" d="M653,580c.6-.05,1.42-.09,2,0,1.02-.62,2.02.04,3,2,.14.19-.1.66,0,1,.96.96-.04,1.62-3,2-.85-.06-2.58.21-3,0-2.2-1.09-3.93-4.55,1-5Z"/>
    <path class="cls-214" d="M658,587q.25,1.44,0,0c2.25.18,1.52-1.75,4,2,.49,3.19-4.22,3.83-6,2-3.85-4.09-4.99-4.57,2-4Z"/>
    <path class="cls-170" d="M654,573c3.7-5.62,11.88,2.2,7.36,3.86-3.98,1.47-5.03.07-6.36-2.86.33-.33,0-.66-1-1Z"/>
    <path class="cls-255" d="M663,592c-.13.05-1.64,1.63-2,2l-4-1c-.4-.56-.59-1.56-1-2l6-2c.67,1.01,1.27,1.57,1,3Z"/>
    <path class="cls-149" d="M659,579c9.9-3.83,8.69,9.06,0,2-.22-1.11-1.8-1.41,0-2Z"/>
    <path class="cls-77" d="M657.01,567.01c2.73,1.89-3.4,5.25-5.99,1.48-.76-2.44,5.74-1.65,5.99-1.48Z"/>
    <path class="cls-254" d="M659,579c3.99-3.52,6.32.23,8,1-.24.26.45,2.19-.13,2.85-1.18,1.34-7.01,2.56-7.87-1.85,8.5,4.61,8.2-4.66,0-2Z"/>
    <path class="cls-148" d="M665,585c6.12-.45,2.55,3.91-2,2-.48-3.06,1.02-1.56,2-2Z"/>
    <path class="cls-109" d="M654,573c7.78-1.31,8.74,3.69,1,1-.03-.06-1.5-.24-1-1Z"/>
    <path class="cls-254" d="M658,583c.03.11,2.01,1.36.99,1.99-.27.17-3.14.07-3.99,0l3-2Z"/>
    <path class="cls-254" d="M655,580c1.69-2.86,2.33.41,3,2-.11-.15-2.82-1.97-3-2Z"/>
    <path class="cls-222" d="M676,570l1,1.99c-2.21.52-4.64-.29-2-1.99.3-.11.72.12,1,0Z"/>
    <path class="cls-119" d="M582,600l-2.89,1.43c.36,3.69-4.38,5.6-7.11,3.57-.18.9-.52.86-1,0-.87-.28-.86-.62,0-1-.95-3.8-11.7-4.94-9,1-2.92.63-10.08,2.01-10-2,.82-1.26.87-3.14,3-4,3.73-.86,12.41-2.02,16-2,1.91.01,9.87.82,11,3Z"/>
    <path class="cls-238" d="M588,599c4.09,12.3-19.18,8.5-26,11-.33.86-.66.86-1,0h-1v-1c7.09-1.91,1.95-3.06,3.01-4,.38-.33,1.9,1.08,1.99,1,.96-1.55,1.59-1.86,2,0,.38,1.96.72,1.96,1,0-.26-2.16,1.67-2.36,3-1,.33.03.67,0,1,0,2.26,1.34,4.26,1.02,6.02-1.08,3.22-.35,4.87-.99,4.98-1.92,1.72-.98,3.2-2.02,5-3Z"/>
    <path class="cls-141" d="M582,600c1.1.56,1.18.69,1,2-.09.05,1.18,1.82.98,1.95-.52.33-7.95,2.79-8.77,2.9-2.78.37-3.03-1.84-3.21-1.84,10.71.48-.52-10.33,10-5Z"/>
    <path class="cls-235" d="M728,544c2.37-1.06,7.93,2.02,9,4,.26,1.25.07,2.25-1,3-.02,1.38.11,7.41,0,8,.06.72-.6,1.72-2,3-.59.32-1.27,1.51-2,2,.37,1.51-.82,1.93-2,1-.94.76-1.99,2.08-3,3-.96,1.16-2.29,1.82-4,2-.14.26.14.75,0,1-.83.87-1.27,1.21-2,0-2.32-1.42-4.32-2.08-6-2,.84.48,1.29,1.08,1,2,1.84-.78,1.62.44,1,2,.08,1.21-.92,2.21-3,3v1c-.18.9-.52.86-1,0-.53,0-1.59,1.02-2,1-2.06-.64-6.94-3.62-5-6-.72-2.1.18-1.98,2-1q2.49,1.13,0,0c-1.81.5-3.55-1.18-3-3q2.31-1.49,0,0c.43,1.19.43,2.19,0,3-.55,2.81-5.29,2.68-6,0v-1c.53-1.44,1.53-2.77,3-4,.15-.02,2.49,1.76,2.99-.51.16-.69-1.48-.72-1.99-1.49,3.8-1.08,3.62-1.03,1.01-2.99,4.8-1.15,3.6,1.6,3.99,1.99,1.72,2.6,2.05,2.6,1,0l1-2c2.25-1.87,3.82-.53,5-1,1,1.34,1.34,1.34,1,0,3.22-1.38,5.12-1.39,8-4l2-2c1.18-3.94,2.33-3.28,3-5-1.24-.29-1.88-.96-1-2,1.68-.57,2.35-1.24,2-2-.86.61-1.52.61-2,0-.03-.33.06-.68,0-1Z"/>
    <path class="cls-28" d="M714,577c6.61-.2,7.67,1.27,8.01,8.55.18,3.9-1.95,13.85-6.49,10.45-.77-.57-.66-16.07-2.52-19,.33,0,.67.01,1,0Z"/>
    <path class="cls-229" d="M728,587c.76,1.07.08,2.42-1,3-.69,1.71-1.6,4.35-3.99,3.99,1.35-2.14-3.88-25.21,2.49-18.99,1.5,1.47,2.73,9.54,2.51,12Z"/>
    <path class="cls-81" d="M705,571c1.23-.9,1.74-.36,1,1,.34.19,3.51,5.31,5,6-1.28-.05-4.39,0-6,0l-.19-1.07c2.6-.15,3-.46,1.19-.93-6.94-3.16-7.86,2.12-13-1-.05-.52-.05-.94.08-.98,4.63-1.72,4.98.54.39-.04-.19-.02-.34-.44-.47-.97,1.05-.81,4.75-1.9,6-2s5.16-.27,6,0Z"/>
    <path class="cls-28" d="M717,573c1.19,2.98,4.52,4.47-3,3-4.67-.26.07-2.32,3-3Z"/>
    <path class="cls-237" d="M721,571c-1.12.64-2.12,1.31-3,2-.32.02-.7-.07-1,0-.31-.78-.86-1.59-1-2,.05-.85-.29-1.51-1-2,2.51-1.8,5.12-.86,6,2Z"/>
    <path class="cls-94" d="M723,571c-4.53,7.69-1.6,1.85-3,2-1.48-1.3-.64-1.58,1-2,.65-.04,1.36-.05,2,0Z"/>
    <path class="cls-237" d="M729,588c0,.9-.98,1.76-1,2h-1c.16-.4.99-2.84,1-3l1,1Z"/>
    <path class="cls-164" d="M721,571c.09.28-.81,1.47-1,2-.65.07-1.34-.04-2,0-.47-2.87.71-1.87,3-2Z"/>
    <path class="cls-83" d="M617,651c3.71,1.42-2.61,6.45-3,7,.79-1.57-1.01-2.84-1-3,.05-1.23,2.17-4.7,4-4Z"/>
    <path class="cls-146" d="M629,653c5.18-.48,10.94,3.18,1,2-.64-.08-1.96-.77-3-1,.38-.9,1.18-.92,2-1Z"/>
    <path class="cls-187" d="M722,536c.29-.86.62-.85,1,0v1c-.56,1.07-.56,1.73,0,2,.45-1.66,1.16-1.44,2,0,.13.92,0,2.04,0,3-.25.84-.58.82-1,0-.2-1.76-2.85.88-1,2,1.92.22,1.82,3.42,0,4-.62,1.82-.88,5.26-3,6-1.61-.51-.83-1.81,0-3-.4-1.86-2.82-4.29-3-5-.2-.8.13-2.06,0-3,.08-3.06.44-5.95,3-8,.31-.13.63-.78,1-1,.08.08.1.94,1,2Z"/>
    <path class="cls-192" d="M724,532c1.68-1.58,2.78.07,2,2,.66.35,1.39.66,2,1-1.09,2.02.62,3.61-3,4-1.06-.44-1.72-1.44-2-3-.11-.16-.86.16-1,0-.12-1.31.17-2.71,0-4,.38.22,1.54-.22,2,0Z"/>
    <path class="cls-251" d="M739.99,543.01c3.57,2.55-4.32,3.65-3.99,1.49.09-.61,3.48-1.85,3.99-1.49Z"/>
    <path class="cls-204" d="M737,560c-.17.06-1.73,1.31-3,2-.38-1.57,1.97-2.82,2-3l1,1Z"/>
    <path class="cls-15" d="M736,551l1-3c1.71,3.17-.99,2.52-1,3Z"/>
    <path class="cls-150" d="M741,558c0-.19-1.61-1.66-.99-2.99l1.99,1.99c-.33.33-.67.66-1,1Z"/>
    <path class="cls-250" d="M725,542c-.02,2.78,1.1,6.89-2,6,1-2.95.03-2.49,0-4-1.46-1.06-.64-2.32,1-2,.28-.05.71-.03,1,0Z"/>
    <path class="cls-74" d="M730,545c.89.84.23,1.5-2,2-.05.41,1.1,1.74,1,2-4.28.67-.94-3.33-1-4,.66.03,1.34-.05,2,0Z"/>
    <path class="cls-179" d="M709,563c-.08.83,2.68,2.28,1.99,4-2.2-.08-2.61-3.63-2.99-4h1Z"/>
    <path class="cls-155" d="M716,560l1.99,1.99c-2.36.09-3.44.67-2.99-1.99.29-.11.72.12,1,0Z"/>
    <path class="cls-5" d="M720,554c-.58.2-2.1-.07-2-1,.62-.73.98-1.66,2-2,.19.87-.13,2.06,0,3Z"/>
    <path class="cls-74" d="M726,554c-.25.83,3.6,4.36-2,2,.58-.53.93-1.71,2-2Z"/>
    <path class="cls-258" d="M710,561l1.99,1.99h-2.99c.03-.25.83-1.85,1-1.99Z"/>
    <path class="cls-23" d="M725,530c.27.26,4.38-.77,1,4-1.08-.57-1.85-1.93-2-2l1-2Z"/>
    <path class="cls-167" d="M572,636c.51,1.21-.73,2.83-2,3l-10-20,1-1c5.32,3.04,11.49,11.76,11,18Z"/>
    <path class="cls-196" d="M563,641c-.22.04-.52,1.72-4,2-.76-1.68.84-3.19,1-4l3,2Z"/>
    <path class="cls-56" d="M565,641c-.47-5.03,2.22-3.6,3,0-.87.21-2.14-.21-3,0Z"/>
    <path class="cls-240" d="M573,637c-.2.06-1.32,2.51-3,3v-1l2-3c1.46-1.25,2.01-.69,1,1Z"/>
    <path class="cls-36" d="M590,625l2.21-3.13c.9-5.74,8.58-2.08,6.79,2.13-4.52,6.66-5.44,6.84-12,11l-2-6c-.42-.86-.04-1.16,1-1-.59-2.6-.03-2.66,2-1,.36-1.65,1.03-2.32,2-2Z"/>
    <path class="cls-55" d="M592,618c-3.29-5.8,10.4-7.37,11.88-5.46.75.97.28,7.2-1.88,6.46-.8,2.08-1.82,3.26-3,5-6.09-5.99-3.89-2.89-9,1-.71-1.93.79-4.34,2-6-.91-.1-.86-.45,0-1Z"/>
    <path class="cls-205" d="M604,621l-2-2c3.66-9.48-6.01-6.59-10-1-2.29,1.97-4.06-.86-2-3-2.7.45-2.84.1-1-2,1.32-.38,3.66-3.01,5-4,6.73,1.59,6.44,6.26,12-1-.05,3.89-.76,9.39-2,13Z"/>
    <path class="cls-51" d="M710,527c2.34-.72,3.5.83,4,3,.6.27.58.61,0,1l-5.99,8.99v-10.99c.73-.54,1.27-1.49,1.99-2Z"/>
    <path class="cls-195" d="M718,533l-4.01,9c-4.73-2.3-.35-6.97.01-9-.35-2.25,2.8-1.27,4,0Z"/>
    <path class="cls-228" d="M720,535l-3,8c-.48-3.57-1.83-5.95,3-8Z"/>
    <path class="cls-58" d="M718,532v1h-4c.11-.63-.1-1.36,0-2,.05-.32,0-.67,0-1,1.16.66,1.7.41,4,2Z"/>
    <path class="cls-215" d="M697,631c-1.63,1.42-.34,3.38-2,5-.74-.75-1.07-.75-1,0h-1c0-1.07-.08-1.73,0-3-2.3-1.39-2.78-3.02,0-4,3.41.33,3.78,1.96,4,2Z"/>
    <path class="cls-75" d="M693,629c-.06,1.33.09,2.68,0,4h-1l-3-2c1.03-.94-1.58-2.53,4-2Z"/>
    <path class="cls-234" d="M685,628c4.84-3.4,3.65,2.5,0,3,.19-.86-.13-2.06,0-3Z"/>
    <path class="cls-59" d="M699,636v-5c.32.07.68-.06,1,0,.94,1.68-.99,4.43-1,5Z"/>
    <path class="cls-42" d="M738,566c-1.83,2.1-7.73,7.98-4,0,1.34,0,2.65-.01,4,0Z"/>
    <path class="cls-212" d="M727,568c-.17.15.1,3.41-4,2,.85-1.59,2.48-1.7,4-2Z"/>
    <path class="cls-44" d="M733,566c-2.27.21-3.35,2.5-3-1,.51-.41,1.4-.61,2-1l1,2Z"/>
    <path class="cls-174" d="M732,570.99c-.16.13-4.41.69-3.99-.97,1.75-1.6,4.84.3,3.99.97Z"/>
    <path class="cls-50" d="M742,568c-.12.18-1.78-.19-2,0,.18,0,.24-3.11,1.99-3-.12.83.25,2.65.01,3Z"/>
    <path class="cls-197" d="M619,580c-5.33-1.49,4.11-6.43,5,0-.14.28-.72.62-1,1-1.16.73-2.39,1.44-3,0v-1c-.02-.63-.39-.54-1,0Z"/>
    <path class="cls-34" d="M616,582v1c-.31.34-.73.63-1,1-1.37,1.26-2.55.95-4,0-.28-.3-.9-.55-1-1,2.89-2.16,3.14-1.51,6-1Z"/>
    <path class="cls-135" d="M609,579c5.62-3.21.91,2.68,1,3-4.92,4.11-1.47-2.73-1-3Z"/>
    <path class="cls-208" d="M623,581c-2.03,2.7-3.91,1.98-5,2,.38-.9,1.01-1.73,2-2,.79-.22,2.08.15,3,0Z"/>
    <path class="cls-122" d="M619,580c-.2-4.77,5.75-.85,1,0-.25.04-.76.07-1,0Z"/>
    <path class="cls-166" d="M575,633c2.86,1.56,2.38,3.29-1,4-.32.07-.7-.09-1,0-.25-.37-.81-.65-1-1-3.45-6.2-6.68-12.34-11-18v-1c-.51-1.35,4.8-.19,5.2.05.76.46,10.06,13.95,9.73,14.78-.18.44-.53.82-.92,1.17Z"/>
    <path class="cls-4" d="M577,633c.62.43,1.28,1.09,2,2v1c-.32.34-.68.66-1,1-.63-.16-3.3-.15-4,0,.61-1.1,1.27-2.79,1-4,.36-2.66,1.04-2.48,2,0Z"/>
    <path class="cls-257" d="M640,571c-.89,7.12-2.95,2.68-6,2l6-2Z"/>
    <path class="cls-1" d="M643,572c-1.17-1.03,2.18-4.26,3.99-2.99,2.08,1.45-3.76,3.2-3.99,2.99Z"/>
    <path class="cls-79" d="M640,567c1.65-.63,2.08-1.49,3,.99-1.65-.04-3.35.11-5,.01.48-.74,1.29-.73,2-1Z"/>
    <path class="cls-11" d="M714,521c-.85,3.96,5.36,6.4,0,5-1.31-.11-2.64-.44-4-1-.2-.4.16-1.42,0-2l4-2Z"/>
    <path class="cls-182" d="M722,532c-1.33-.79-4.61-1.39-3.99-3.99,3.44-.77,3.65,1.4,3.99,3.99Z"/>
    <path class="cls-153" d="M714,527c-.01,1,.02,2,0,3-.91-.52-2.36-2.68-4-3,.45-.32,1.53-.31,2-1,.81-.48,1.61.17,2,1Z"/>
    <path class="cls-180" d="M714,526v1c-.66-.22-1.37-.86-2-1-1.68-.36-1.06.89-2-1,1.79-.76,3.08.76,4,1Z"/>
    <path class="cls-81" d="M689,570c.34-.27-.45-5.35,5.56-3.86,3.36.83,2.56,8.23-5.56,3.86Z"/>
    <path class="cls-223" d="M702,566c1.73,3.85.61,2.97-3,4l-3-3.99c1.91-.24,4.17.28,6-.01Z"/>
    <path class="cls-244" d="M696,563c4.44-.32,4.95,1.99,0,2-1.8-.14-1.84-2.05,0-2Z"/>
    <path class="cls-88" d="M696,562c.1.16-.03.64,0,1,0,.1-1.11,1.07,0,2-2.09,0-2.24.45-2-2,.57-.54,1.31-.7,2-1Z"/>
    <path class="cls-114" d="M562,605c-12.8-6.34,13.45-7.6,9-1-1.35,1.26-2.22.93-2-1-6.36-2.65-6.11,1.81-7,2Z"/>
    <path class="cls-27" d="M569,603c.68.28,1.32.71,2,1v1c-.27-.02-2.06.85-3,1-.24.91-.58.88-1,0-.67.02-1.33-.01-2,0,.46-.39.33-4.06,4-3Z"/>
    <path class="cls-124" d="M625,597c-2.47-.66-1.03,2.69-6-2-.34-.32-.69-.66-1-1v-1c4.46-3.52,5.47-.26,7,4Z"/>
    <path class="cls-156" d="M618,591c-1.12-2.31-4.5-2.69-1-6,2.02,1.9,6.89,2.44,1,6Z"/>
    <path class="cls-76" d="M615,584c-1.68,2.32-1.62,2.55-4,0h4Z"/>
    <path class="cls-117" d="M582,629c2.64-1.11,2.4-.06,1,2-1.49,1.56-2.52,3.43-4,5v-1c-2.09-.71-.45-8.22,2-6,.28-.87.62-.86,1,0Z"/>
    <path class="cls-227" d="M585,627c1.46-1.32,2.01-.74,1,1-.34.32-.66.68-1,1-.69.63-1.35,1.32-2,2l-1-2c-1.11-2.46.8-4,3-2Z"/>
    <path class="cls-38" d="M705,635c.1.44.08,1.51,0,2-.09.53-1.43,1.81-1,3h-1c.36-2.59-1.32-5.74,2-5Z"/>
    <path class="cls-2" d="M691,642c-.22-1.99.84-3.55,2-5,0,.94,3.34,4.6-2,5Z"/>
    <path class="cls-59" d="M695,636c-.14.14-.69-.09-1,0,.22-1.02-.56-5.02.5-5.01,1.14,0,.16,3.95.5,5.01Z"/>
    <path class="cls-72" d="M567,615c.64.05,1.26.13,1.83.34.53.19,1,.41,1.21.77,2.84,4.85,5.61,9.77,7.96,14.89.7,1.04.33,2.32-1,2-.25-.19-1.43.13-2,0-.22-1-7.7-11.83-9-13.5-1.61-2.05-4.66-2.14-5-2.5-.56-.59-1.75-1.37-2-2,.48-.67,2.01,2.06,2-3,.28-.87.62-.86,1,0,1.6,2.24,2.41,2.53,5,3Z"/>
    <path class="cls-253" d="M568,612c-1.2.39-2.54.72-4,1-.91,1.77-1.45.66-2-1h-1c0-.67,0-1.33,0-2,.32.05.68-.07,1,0,1.95.43,4.29.88,6,2Z"/>
    <path class="cls-35" d="M638,598c1.64,2.35,4.42,11.89,2.99,14-.09.13-1.96-.87-2.99-1-2.91-2.98-10.17-3.59-8.02-9.46.88-2.39,16.85-.39-2.98-4.54-.44-1.72.32-2.69,2-2,1.5.87,2.5.87,3,0-.87-.28-.86-.62,0-1,1.83.84,4.9,2.43,6,4Z"/>
    <path class="cls-229" d="M643,599c7.57.6,7.37,1.38,7,11-1.12,2.81-6.26,3.01-7,0-.88-3.89-2.85-8.8,0-11Z"/>
    <path class="cls-35" d="M637,593c9.63-4.84,6.56,2.69,7,2.99,1.22.84,4.02-.93,5-.99,2.41.26,2.12,1.01,0,2-1.88.68-4.58.91-6,2-1.45-.11-2.86.32-4-1-1.63-1.28-2.13-3.69-3-5h1q3.5,1.26,0,0Z"/>
    <path class="cls-203" d="M659,604c.15,1.37,2.26,4.96.88,6.89-.24.33-7.57,2.39-7.86,2.11s.21-3.07-.01-4c2.97-3.43,8.22.07,7-5Z"/>
    <path class="cls-63" d="M650,610c-.11,2.73-3.42,6.51-5.5,5.98-2.19-.56-1.19-4.64-1.5-5.98h7Z"/>
    <path class="cls-69" d="M654,594c-.95,2.38-3.06,2.3-5,3v-2c.66-.04,1.34.06,2,0s2.11-1.34,3-1Z"/>
    <path class="cls-151" d="M706,576c.7.32,2.35-.76,1.99.99l-2.99,1.01c-.67,0-1.33,0-2,0-.47-2.67.64-2.05,3-2Z"/>
    <path class="cls-142" d="M699,577l-5,1c2.27-1.25,2.57-.99,5-1Z"/>
    <path class="cls-253" d="M570,612c1.92-1.78,5.95-1.86,5,1-.86.41-1.86.74-3,1-.3.59-.63.58-1,0-.86-.34-.86-.67,0-1-.74-.23-1.07-.56-1-1Z"/>
    <path class="cls-189" d="M568,612c.62,0,1.58-.14,2,0,1.27.42.81.75,1,1-.81,2.56-2.81,2.56-6,0-.25.88-.58.86-1,0,.8-1.43,2.64-1.02,4-1Z"/>
    <path class="cls-127" d="M578,613c.87.28.86.62,0,1-1.29,1.41-4.42,2.41-5,0-.31.41-.65.39-1,0,.62-1.38,1.99-.76,3-1,1.08-.25,2.02-.5,3-1v1Z"/>
    <path class="cls-139" d="M589,613c.22.72.69,1.33,1,2,.57,3.02-2.43,3.27-4,1-1.88,1.41-3.88,1.08-6-1-.44,2.67-.94,2.42-2,0-.87-.28-.86-.62,0-1v-1c3.61-.52,7.46,1.01,11,0Z"/>
    <path class="cls-68" d="M693,573l4.01.51-4.01,1.49c-1.87-1.13-1.49-.85,0-2Z"/>
    <path class="cls-113" d="M688,574c.87,3.71-5.36,2.19-2,0,.57.15,1.41-.14,2,0Z"/>
    <path class="cls-40" d="M644,576c2.44,4.5-.67,5.85-5,4-4.25-6.09,1.82-2.96,5-4Z"/>
    <path class="cls-10" d="M635,586c4.53-.71,8.17,4.01,1,4,.29-1.79-.05-1.79-1,0h-1c-.13-.3-2.45-.87-2-2.48.36-1.31,2.52-1.17,3-1.52Z"/>
    <path class="cls-92" d="M647,574c11.19-.57,2.55,9.24-1,0,.33-.03.67.02,1,0Z"/>
    <path class="cls-218" d="M643,583c12.82.31.12,8.57-1,0,.33-.02.67,0,1,0Z"/>
    <path class="cls-73" d="M647,590c1.21-.22,2.73.14,3.99,0,.87,3.53-4.32,2.34-4.99,0,.22-.11.64.07,1,0Z"/>
    <path class="cls-190" d="M635,590c-1.02-4.87,5.6-4.23,1,0-.33,0-.67,0-1,0Z"/>
    <path class="cls-243" d="M669,572.99c-.04.2-3.48,1.38-3.97-.49,1.04-2.48,4.28-1.12,3.97.49Z"/>
    <path class="cls-249" d="M658,587c.87.13,1.93,1.06,2,1.99h-3.99c-.34-.77,1.85-2.01,1.99-1.99Z"/>
    <path class="cls-145" d="M568,606c2.01,2.79.52,1.95-2.5,2.01l1.5-2.01c.33-.01.68.05,1,0Z"/>
    <path class="cls-216" d="M705,568c.15-.27-.34-1.59.14-1.82,4.23-2.06,6.53,2.98-.14,1.82Z"/>
    <path class="cls-179" d="M708,571c-.55.07-1.36.8-2,1-.18-.1-.38-.8-1-1-1.14-1.47-.74-1.69,0-3,.41,1.22,1.97,2.2,3,3Z"/>
    <path class="cls-17" d="M723.99,566.01c2.25,1.53-2.49,2.72-3.99,1.98.17-1.74,3.03-2.64,3.99-1.98Z"/>
    <path class="cls-14" d="M730,545c1.95.14,2.29-.61,1.99,1.99h-3.99c.08-.63,1.46-1.48,2-1.99Z"/>
    <path class="cls-132" d="M708,571c6.51-.82,3.31,2.34,1.51,2-.7-.13-1.1-1.68-1.51-2Z"/>
    <path class="cls-211" d="M725.99,560.01c1.7,1.1-1.32,2.89-2.99,1.98.11-1.25,2.06-2.59,2.99-1.98Z"/>
    <path class="cls-193" d="M715,565.01c-.99,3.44-4.66,1.68-2.99,0,.2-.2,2.19.09,2.99,0Z"/>
    <path class="cls-30" d="M715,569c3.53-.26,4.23.23,1,2-.24-.69-2.91-.63-1-2Z"/>
    <path class="cls-219" d="M721.99,563.01c-.11,2.31-4.31,1.75-3.99.48.28-1.08,3.02-.29,3.99-.48Z"/>
    <path class="cls-230" d="M704.99,572.01c2.5,2.24-4.01,2.79-3.99.49,0-.84,3.84-.62,3.99-.49Z"/>
    <path class="cls-191" d="M724,542c-.18.6-1.01,1.55-1,2-5.66,2.31-2.41-1.48.51-4,.95-.13.39,2.01.49,2Z"/>
    <path class="cls-16" d="M723,537c1.17.34,1.33,1.6,0,2-.13.2-3.44,3.16-4.01,2.49l4.01-4.49Z"/>
    <path class="cls-3" d="M725,539c-.65.07-1.34-.05-2,0,.2-.3-.13-1.42,0-2v-1c.67.97,1.66.61,2,3Z"/>
    <path class="cls-173" d="M590,615c.76,1.62,1.98,2.82,2,3,.04.33-.02.67,0,1l-4,8c-.71.61-1.79.8-2,1-.33-.33-.63-.71-1-1-2,2.71-5.5-6.93-5.29-7.85.38-1.66,2.49-1.33,3.29-.15-1.81-2.84.36-2.96,3-3,.86-.53,2.91-.52,4-1Z"/>
    <path class="cls-245" d="M592,619c.14,2.25-.97,4.14-2,6-.78.6-1.3,1.4-2,2-.06-2.28,2.15-8.88,4-8Z"/>
    <path class="cls-171" d="M635.82,579.17c5.91,3.4-6.44,7.66-6.81,2.31-.2-2.86,5.3-3.18,6.81-2.31Z"/>
    <path class="cls-200" d="M625,592c-1.71-5.08,7.88-4.08,5,1-1.31,1.61-3.78.54-5-1Z"/>
    <path class="cls-66" d="M630,593c.42.12,1.37.71,2,1v1c-.04,1.53-1.04,1.53-3,0-2.39-.56-3.17-.54-4-3,1.56.68,3.44.56,5,1Z"/>
    <path class="cls-106" d="M625.99,583.01c3.18,2.67-7.17,2.67-3.99,0,.15-.13,3.83-.13,3.99,0Z"/>
    <path class="cls-87" d="M573,614c1.34.86,2.01,1.86,2,3,3.97-2.46,9.79,10.47,6,12-.04.31-3.59,3.04-2,6-2.41.74-1.84-1.88-2-2,.82-.44.81-1.22,1-2l-7.97-14.89.97-2.11h2Z"/>
    <path class="cls-111" d="M580,615c3.4.92,4.4,2.25,3,4-.61.78-2.12.87-2,1.49.07.37,3.7,6.27,4,6.51l-3,2h-1c.68-4.79-2.31-8.46-6-12-.84-2.1,1.35-2.69,3-2,.56-.12,1.35.04,2,0Z"/>
    <path class="cls-33" d="M626,577c-4.45-2.42,9.39-2.13,4.99,0-.29.14-4.77.13-4.99,0Z"/>
    <path class="cls-70" d="M571,613c.16.21-.16.78,0,1,1.55,2.19,7.55,14.74,7,17-4.28-4.88-7.38-10.66-11-16-1.89.49-3.14-.17-2-2,1.97.17,4.02-.12,6,0Z"/>
    <path class="cls-7" d="M564,613c.33.04.67-.03,1,0,.58.71,1.49,1.25,2,2-3.19,2.09-5.36.74-5-3,.64.18,1.46.94,2,1Z"/>
    <path class="cls-123" d="M632,595c2.01,6.59-2.64.15-3,0,.85.2,2.06-.13,3,0Z"/>
    <path class="cls-19" d="M637,593c1.11.24,4.84-.59,4.99.49.24,1.71-4.49,1.57-4.99-.49Z"/>
    <path class="cls-120" d="M578,614v1c-.8.17-2.08,1.6-3,2-.68-.66-4.44-.07-2-3h5Z"/>
    <path class="cls-48" d="M586,616c-.18.11-2.72,2.64-3,3l-3-4c2.07-.12,4.05.44,6,1Z"/>
  </g>
  <rect x="590.69" y="591.82" width="1.34" height="1.34" rx=".67" ry=".67"/>
</svg>