<?xml version="1.0" encoding="UTF-8"?>
<svg id="Lager_1" data-name="Lager 1" xmlns="http://www.w3.org/2000/svg" viewBox="0 0 1254 1280">
  <defs>
    <style>
      .cls-1 {
        fill: #ce5e04;
      }

      .cls-2 {
        fill: #b74b06;
      }

      .cls-3 {
        fill: #1b1b1c;
      }

      .cls-4 {
        fill: #cf5f05;
      }

      .cls-5 {
        fill: #f37e0b;
      }

      .cls-6 {
        fill: #edaf3f;
      }

      .cls-7 {
        fill: #d46605;
      }

      .cls-8 {
        fill: #973902;
      }

      .cls-9 {
        fill: #b54906;
      }

      .cls-10 {
        fill: #cd5e08;
      }

      .cls-11 {
        fill: #cd5d04;
      }

      .cls-12 {
        fill: #f69117;
      }

      .cls-13 {
        fill: #f0b047;
      }

      .cls-14 {
        fill: #efaf38;
      }

      .cls-15 {
        fill: #fad654;
      }

      .cls-16 {
        fill: #1c1810;
      }

      .cls-17 {
        fill: #f9be33;
      }

      .cls-18 {
        fill: #f37d04;
      }

      .cls-19 {
        fill: #cc5a05;
      }

      .cls-20 {
        fill: #f37d02;
      }

      .cls-21 {
        fill: #b54707;
      }

      .cls-22 {
        fill: #d06107;
      }

      .cls-23 {
        fill: #f4800c;
      }

      .cls-24 {
        fill: #ec8919;
      }

      .cls-25 {
        fill: #fbdf5a;
      }

      .cls-26 {
        fill: #b03f01;
      }

      .cls-27 {
        fill: #f8cc7d;
      }

      .cls-28 {
        fill: #f37d0a;
      }

      .cls-29 {
        fill: #ec8a1a;
      }

      .cls-30 {
        fill: #dc8327;
      }

      .cls-31 {
        fill: #f27b03;
      }

      .cls-32 {
        fill: #ce6005;
      }

      .cls-33 {
        fill: #913402;
      }

      .cls-34 {
        fill: #ed8a1b;
      }

      .cls-35 {
        fill: #f37e06;
      }

      .cls-36 {
        fill: #171205;
      }

      .cls-37 {
        fill: #faba2c;
      }

      .cls-38 {
        fill: #f37d03;
      }

      .cls-39 {
        fill: #b54907;
      }

      .cls-40 {
        fill: #f17f0b;
      }

      .cls-41 {
        fill: #9a3c03;
      }

      .cls-42 {
        fill: #ed7607;
      }

      .cls-43 {
        fill: #ec891a;
      }

      .cls-44 {
        fill: #ce5f05;
      }

      .cls-45 {
        fill: #b44608;
      }

      .cls-46 {
        fill: #fcd957;
      }

      .cls-47 {
        fill: #fcd956;
      }

      .cls-48 {
        fill: #b84d06;
      }

      .cls-49 {
        fill: #f37d07;
      }

      .cls-50 {
        fill: #ba520e;
      }

      .cls-51 {
        fill: #fec942;
      }

      .cls-52 {
        fill: #f88506;
      }

      .cls-53 {
        fill: #f37c04;
      }

      .cls-54 {
        fill: #d56404;
      }

      .cls-55 {
        fill: #993903;
      }

      .cls-56 {
        fill: #b8500d;
      }

      .cls-57 {
        fill: #f9deaa;
      }

      .cls-58 {
        fill: #fee85f;
      }

      .cls-59 {
        fill: #ce5f04;
      }

      .cls-60 {
        fill: #f3c36d;
      }

      .cls-61 {
        fill: #cb6e16;
      }

      .cls-62 {
        fill: #c95705;
      }

      .cls-63 {
        fill: #ed8b1b;
      }

      .cls-64 {
        fill: #fff;
      }

      .cls-65 {
        fill: #e08c2d;
      }

      .cls-66 {
        fill: #b74d07;
      }

      .cls-67 {
        fill: #f1b53d;
      }

      .cls-68 {
        fill: #f4a11d;
      }

      .cls-69 {
        fill: #fbdc59;
      }

      .cls-70 {
        fill: #f5b737;
      }

      .cls-71 {
        fill: #f5d48f;
      }

      .cls-72 {
        fill: #993a03;
      }

      .cls-73 {
        fill: #ec8a1b;
      }

      .cls-74 {
        fill: #983903;
      }

      .cls-75 {
        fill: #f37e0a;
      }

      .cls-76 {
        fill: #d16306;
      }

      .cls-77 {
        fill: #ce6007;
      }

      .cls-78 {
        fill: #943402;
      }

      .cls-79 {
        fill: #c95703;
      }

      .cls-80 {
        fill: #f58106;
      }

      .cls-81 {
        fill: #f37f0e;
      }

      .cls-82 {
        fill: #d16205;
      }

      .cls-83 {
        fill: #f3d133;
      }

      .cls-84 {
        fill: #ebab3b;
      }

      .cls-85 {
        fill: #e08f26;
      }

      .cls-86 {
        fill: #cd5f06;
      }

      .cls-87 {
        fill: #f37b07;
      }

      .cls-88 {
        fill: #ef8f1d;
      }

      .cls-89 {
        fill: #ba4d06;
      }

      .cls-90 {
        fill: #b54807;
      }

      .cls-91 {
        fill: #f37e03;
      }

      .cls-92 {
        fill: #fbd251;
      }

      .cls-93 {
        fill: #f9d285;
      }

      .cls-94 {
        fill: #b94e07;
      }

      .cls-95 {
        fill: #e49735;
      }

      .cls-96 {
        fill: #892305;
      }

      .cls-97 {
        fill: #ef7b08;
      }

      .cls-98 {
        fill: #f69422;
      }

      .cls-99 {
        fill: #bd5816;
      }

      .cls-100 {
        fill: #f37f05;
      }

      .cls-101 {
        fill: #cf630a;
      }

      .cls-102 {
        fill: #d87c19;
      }

      .cls-103 {
        fill: #ef8f21;
      }

      .cls-104 {
        fill: #fcd654;
      }

      .cls-105 {
        fill: #cf6004;
      }

      .cls-106 {
        fill: #d06307;
      }

      .cls-107 {
        fill: #f37f09;
      }

      .cls-108 {
        fill: #e6a53d;
      }

      .cls-109 {
        fill: #b74c06;
      }

      .cls-110 {
        fill: #f27b04;
      }

      .cls-111 {
        fill: #ed8a1a;
      }

      .cls-112 {
        fill: #e7a63c;
      }

      .cls-113 {
        fill: #f99d20;
      }

      .cls-114 {
        fill: #eaa53f;
      }

      .cls-115 {
        fill: #fbe157;
      }

      .cls-116 {
        fill: #f4be42;
      }

      .cls-117 {
        fill: #d87b1f;
      }
    </style>
  </defs>
  <g>
    <path class="cls-104" d="M463,338c2.76,1.13,2.09,4.42-1,4,.45,2.34-1.15,7.8-4,8,2.42,1.58,1.96,3.93-1,4-.02,3.58-2.64,11.28-6,13,2.63.45,2.35.88,0,2-.58,3.25-2.07,8.32-6,7,.59,4.67-.41,7.01-3,7,1.6,2.85-1.86,7.32-5,7,.1,3.17-.56,4.84-2,5-3.39-.34-10.09,3.28-4.4,5.71l.4,2.29c2.23,1.11,1.56,2.45-2,4-1.33,1.89-1.91,3.81-1.77,5.75l-2.23,1.25c1.9,2.48-.3,4.25-3,3,1.01,2.72-.88,3.98-3,2-2.09,3.43-3.76,4.1-5,2-1.36,1.15-3.31,2.02-5.85,2.6-1.73,2.04-3.44,3.5-5.15,4.4,1.83,3.22-5.99,7.02-6,2l-2.08.87c-5.94-2.8-13.38,0-3.99,4.93l.07,2.2c3.05,3.4-2.58,9.69-6,6-.74-2.05-.74-4.38,0-7l-2-1-2.21.31c-.73-7.02-2.6-9.88-5.62-8.56l-1.17-.75c-2.4.9-2.68.48-2-2-2.38-1.63-5.05-2.96-8-4-2.27,1.87-3.27.53-3-4-1.5,1.69-2.84,3.36-4,5,.78,2.83-.16,3.79-3,3-1.52,1.76-1.96,3.11-3,5-2.81,5.82-4.48,11.82-5,18-.04.33.03.67,0,1-.43,1.78-1.1,2.44-2,2v-2c3.61-17.8,4.04-30.61,22.08-40.41,4.68-2.54,3.88-1.06,6.92-1.59.24-1.41,1.58-1.56,2,0,3.24,1.61,5.24,1.28,6-1-.37-1.91,3.21-2.75,4-1l2.12.52c1.49,5.77,3.6,10.25,8.54,4.43-5.79-2.75-4.67-5.4,3.33-7.95-.46-1.68.89-2.27,2-1,.28-.89.61-.88,1,0,5.92,2.53,8.27,2.62,11-4-1-2.36,1.15-3.64,3-2,5.48.46,10.68-1.92,11-8-1.94-1.88.56-4.74,3-4,8.31,1.85,10.56-3.74,9-11-1.76-2.4-1.02-3.99,2-4,3.47-.76,5.64-3.49,6.51-8.17l.49-2.83c-1.97-2.19-.93-4.78,2-4,4.14-2.31,4.69-4.41,5-9-1.9-2.17,1.45-8.01,4-8,1.43-2.57,4.65-.77,4,2Z"/>
    <path class="cls-73" d="M396,454c-2.27,11.62-11.67,21.91-14,33l-1,5c-.13,1.31.08,2.68,0,4l1,7c.23,6.42,2.86,23.92,6,29,2.44,2.42,1.1,3.42-4,3-.28.87-.62.86-1,0-.15-2.29-2.27-3.59-2.8-5.71-1.71-6.82-1.77-15.63-3.69-23.31-1.21-4.86-5.11-12.82-5.47-16.61-.4-4.26,2.31-7.73,2.84-11.99s-.55-9.48.11-13.39c-1.76-1.45-1.25-2.25,1-2,3.4-3.21,6.11-7.15,8.12-11.81,3.69,2.23,7.98,3.5,12.88,3.81Z"/>
    <path class="cls-37" d="M485,313c.64.38,1.32,1.44,2,2,2.57-.93,3.41-.52,2,2,2.84-.83,3.83.78,2,3,1.43-1.52,2.1-1.19,2,1v1c.9.4,1.56,1.4,2,3,1.71,5.38,5.63,5.87,9,9,.87,1.6,1.18,3.35-1,3-1.82-.05-1.48.62,1,2-.35-1.74.33-3.16,2-2,1.19,2.51,2.21,5.12,2,8-1.26.2-2.86-.24-4,0-3.69.96-5.53-.72-8-3-6.24-1.87-12.68-2.56-19-4-2.81-.75-4.94-2.65-6.57-5h-1.43c-1.6.21-2.26-1.12-2-4-1.35,1.38-1.93.76-1-1-.46-1.24.99-2.92,2-4-.85-.32-.84-.65,0-1,1.98-1.15,3.65-2.15,5-3-2.17.16-2.49-.29-1-2-1.68-.87-1.97-2.41,0-3-.01-.33.03-.67,0-1,.79-2.06,3.15-4.01,5-2,.89-.27,2.84-1.01,3-1,1.24-1.48,4.71.14,5,2Z"/>
    <path class="cls-46" d="M361,417c.07,0,.28-1.18.98-1.01-.19,2.36-.36,4,2.02,5.01.28.75.42,1.63-.09,2.29-4.29,5.53,4.39,7.47,5.91,1.95l2.18-.24c.06.15,1.93,1.03,2,2-.56,2.78-.4,5.15.46,7.12,2.36,1.27,4.88,2.23,7.54,2.88,2.4-.02,1.71,4.2,0,5-.45.78-1.12,1.32-2.03,1.28-10.89-.53-7.26,7.77.03,7.72,1.4-1.32,1.91-.77,1,1,.56,1.94-.92,5.12-3,5-3.41,1.45-5.08,3.78-5,7-.55,4.44-3.33,7.52-5,11-3.82-1.57-4.16-.57-1,3-.72,1.62-2.74,4.22-3,5-1.5,1.42-2.03.87-1-1-1.66.28-2.76-.29-3-2-2.84,2.43-5.06,1.07-3-2,2.43-1.9,2.43-3.56,0-5,1.49-7.72.68-12.77-1-20,1.02-4.88.02-8.88-3-12-.17-1.53,0-3.39,0-5,4.32-1.39,5.9-5.72,1-8,.19-.85-.13-2.06,0-3,1.02-1.18,1.8-1.99,3-3,1.06-1.83,2.39-3.5,4-5Z"/>
    <path class="cls-92" d="M357,478c1.05,2.07,1.31,1.44,3,2,.15,1.46,1.15,2.13,3,2,.1.42.59.82,1,1-.98,2.9-.52,5.94-1.25,8.26-3.63,11.64-11.21,31.22-5.75,42.74-1.22,1.48-6.27.97-7-1-1.95-10.57,1.37-16.09,1.99-26.51.36-6.14-1.54-15.33-.98-19.9.31-2.5,3.92-7.33,4.99-11.59,3.25-1.29,4.1,1.87,1,3Z"/>
    <path class="cls-108" d="M444,469c.12,2.05.45,4.05,1,6l1,4c-.86,2.73-1.2,3.29-1.01,1.67l1.01-.67c1.46-.68,2.82,0,4,1,.41.3.74.97,1,2,.14,4.31-.24,9.42,0,13l1,5c.81,10.72,1.54,26.57,8,35-.8,2.99-7.69,1.99-8-1-.96-8.75-3.72-21.86-5.28-31.22-1.44-8.66-5.76-20.17-5.72-28.78-1.07-2.38-.08-12.25,3.42-8.53.61.65.19,1.74-.42,2.53Z"/>
    <path class="cls-14" d="M449,394c4-1.4,1.67,8.1-1,5l-.69,2.28c-8.53,2.15-5.18,14.45,1.42,7.92l2.27.8c.59-1.23,1.25-1.89,2-2,.38,1.64,1.42,3.62,2,6-.92,2.37-4.69,6.32-7,4-.45,2.69-1.24,2.55-2,0-1.31.94-2.98,1.27-5,1-.57,4.09-1.9,5.76-4,5,1.28,2.74-5.31,2.65-7,2-.73,3.14-1.4,6.14-2,9,.07,5.56-6.84-3.89-3-6-2.23-.81-2.08-3.18.46-7.12-2.38-1.54-3.53-3.17-3.46-4.88.22-.18,2.93-2.8,3-3l2.18-.54c8.56,6.16,10.94,5.25,7.16-5-2.51.23-4.29-.25-5.34-1.45l2-4c.32-.85.65-.85,1,0,.69-1.62,2.27-2.34,4.74-2.17-1.85-1.6-2.43-3.21-1.74-4.83-.86-.28-.85-.62,0-1,.87-1.79,1.04-3.31,2-5,1.28.99,2.5,2.45,3.65,4.4,2.99-.41,5.77-.54,8.35-.4Z"/>
    <path class="cls-70" d="M457,367c2.52-1.34,3.08.08,1,2,1.38,1.24,1.35,2.03.16,3.16,1.15,2.48,3.1,4.43,5.84,5.84-.75,2.59-1.01,4.92-2,8-7.39-7.64-11.7.05-3.49,5.66l.49,2.34c-.68,1.74-1.25,3.27-2,5-4.09-3.21-5.05-1.51-2.86,5.09l-1.14.91c.18.9-.2,2.14,0,3l-1.11,2.97c-.4-.04-.83-1-.89-.97l-1.98-1.61c-.02-3.2-.36-6.33-1.02-9.39,3.88-2.08,1.12-2.89,1-5-1.76-1.58-2.63-4.31-2.63-8.18-2.13-.69-3.58-1.63-4.37-2.82,2.42-3.51,1.33-3.78,3-7,3.51,6.08,10.18,1.35,4.81-4.4-.09-1.03.22-2.11,1.19-2.6-.09-.54-.07-1.43,0-2,.71-2.8,5.5-3.13,6,0Z"/>
    <path class="cls-67" d="M448,418c1.83.85,3.45,3.02,4.86,6.51,2.6,0,4.65.51,6.14,1.49.22,1.38.04,3.49,0,5l-1.93,1.53c-10.19-2.57-7.84,4.42-1.16,8.19l.1,2.28c-.63,1.8-1.78,3.33-2,4-5.04.86-5.73,2.07-2.08,3.64l.08,2.36c-.26.98-.9,2.32-1,3-.12,2.39-2.08,2.38-4,2-1.45,1.24-1.98.68-1-1-.61-3.26-2.07-4.94-4.39-5.05l-1.61-1.95c-2.69-.39-1.26-3.49,0-5l.66-1.22c8.12,3.8,8.63-5.72.34-6.78-2.61-.31-2.36-.96-1-3-.9-.24-.87-.58,0-1-1-2.43-.78-3.14,2-3l.95-1.03c3.36,1.06,3.77-2.11,1.23-9.51l1.81-1.46c.23.01,1.91.04,2,0Z"/>
    <path class="cls-7" d="M404,397c-.94,2.22-1.29,2.39-2,0,27.33-10.64,35.47-36.55,49.59-58.91,1.59-2.52,9.93-15.23,11.41-16.09.3-.66.64-.65,1,0l.99.95c-9.12,16.13-18.5,32.32-28.12,48.55-3.13,4.66-6.74,10.03-10.93,13.85-5.53,5.05-14.71,12.69-21.93,11.65Z"/>
    <path class="cls-17" d="M469,333c2.18.7,4.18,2.37,6,5v1l-1.77,1.54c-6.58-1.73-6.31,2.34-1.31,5.21l.08,2.25c-.26.85-.88,1.58-1,2l-1.21,2.08c-7.46.69-8.08,5.77-1.92,9.55l.13,2.37c-.24.92-.71,1.92-1,3-2.07,1.43-6.97,4.01-9,2,0-.11-.91-1.94-1-2,1.38-3.81,1.09-7.41-.89-10.8l.89-2.2c.25-.61.43-2.4,1-4,5.74-1.15,5.82-2.88,4-8,1.03-1.11.67-3.48,1-4-.27-2.56-.01-2.58,2-1,.2-1.25.54-2.59,1-4-2.26-1.78-1.78-3.42,1-4,.84,1.34,1.18,2.76,2,4Z"/>
    <path class="cls-65" d="M440,466c1.69.72,1.32,4.21-1,4-.7,3.74-1.53,7.19-2,11l-1.71,4.34c-1.81,2.65-8.74,9.35-8.29,2.66v-1c.48-5.2.99-9.68,1-15,3.14-2.12,6.31-5.03,7.88-8.59l2.12-.41c1.45-.56,2.12.44,2,3Z"/>
    <path class="cls-95" d="M434,499l-.84,3.62c1.13,4.05-1.89,4.5-5.16,4.38.02-.33,0-.67,0-1,.77-2.18.77-4.51,0-7-.38-2.29-.7-4.7-1-7v-4c2.23,4.31,1.83.3,3.93-1.57s4.46-3.15,6.07-5.43c-.96,7.79-.2,9.43-3,18Z"/>
    <path class="cls-30" d="M436,457c1.66.94,3.68,4.46,2,6-.85,5.47-6.55,7.12-8.01,11.99l-1.99-2.99c0-4.52-.75-7.98-1-12,.31-2.57,1.37-3.51,3.18-2.81,2.01-2.4,4.81-3.93,5.82-.19Z"/>
    <path class="cls-114" d="M434,510l-1,7c-.02,1.33-.03,2.67,0,4-2.99,8.61-4.99,9.61-6,3,.05-5.95.67-11.18,1-17l2.01-3,2.98.99c-1.41-3.01.39-4.09,1.01-6-.39,3.69-.02,7.35,0,11Z"/>
    <path class="cls-8" d="M338,468c.04.88,1.12,2.49,1.09,4.48-.16,9.02-7.72,8.62-11.75,12.87-1.7,1.8-1.58,4.31-3.34,5.66-2.12-4.28-.25-8.72,2.75-12.1l8.25-8.9c-2.32-1.51,1.33-3.33,3-2Z"/>
    <path class="cls-117" d="M434,449c3.33,1.06,3.77,4.33,2,7,.55.29.53.63,0,1-3.07-1.89-6.3,3.74-6.01,6l-.97-4.48-2.02,1.48c-.24-3.86,1.01-8.95-1-12,.18-2,4.03-3.72,6-4,2.92-.99,4.27,3.16,2,5Z"/>
    <path class="cls-6" d="M446,457c.07,0,.98.93,1,1,1.72,1.07,3.05,2.73,4,5-.05,1,.03,2,0,3-2.41,1.83-2.41,3.5,0,5,0,1,0,2,0,3-3.19.98-3.52,2.98-1,6,.67.21.63.55,0,1l-1.38-.02c-1.68,3.8-1.05,1.75-2.62-.98-.86-.31-.85-.64,0-1-.46-1.08-2.52-1.62-3-2.5-.3-.55,1.51-.73,2-1.5-.88-1.62-1.21-3.62-1-6-.48-.5-.15-1.54-1.99-.99,1.11,2.21-1,6.16-1.01,6.99l-2-5c.28-1.51.75-2.77,1-4-.91-2.53-1.24-4.87-1-7-1.99-2.23-.26-3.35,2-2,1.42-1.15,3.67-1.43,5,0Z"/>
    <path class="cls-66" d="M459,431c-.15,5.53-1.34,7.26-3,12-10.43-4.83-11.47-16.5,3-12Z"/>
    <path class="cls-15" d="M472,315c.04.99-.1,2.02,0,3-.28.87-.62.86-1,0-2.75.11-5.68-1.3-8.81-4.24-.35-.24,7.08,4.56,4.81,6.24.05,1.67-2.73,1.81-4,1-5.23-.49-9.75-8.06-9.99-12.99,7.51-.16,12.85,3.48,18.99,6.99Z"/>
    <path class="cls-44" d="M462,386c-.95,2.98-1.9,5.19-3,8-5.15-1.49-10.2-9.55-4.32-12.91,2.81-1.61,7.95,1.08,7.32,4.91Z"/>
    <path class="cls-109" d="M455,414c.84,3.42,3.56,9.18,4,12-7.54,3.21-9.71-1.44-11-8,2.24-.93,3.88-4.16,7-4Z"/>
    <path class="cls-32" d="M467,367c-1.01,3.7-1.94,7.31-3,11-3.81.69-7.58-1.84-7.82-5.69-.09-1.53,1.76-2.6,1.82-3.31,2.74-1.17,6.1-3.87,9-2Z"/>
    <path class="cls-44" d="M471,350c-1.21,4.23-1.83,9.57-3,14-9.51-4.98-8.26-13.67,3-14Z"/>
    <path class="cls-13" d="M433,521c.14,5.7-.66,10.03,3,15-.87,3.13-8.18,2.59-8-1-.22-3.91-1.04-6.22-1-11,1.37,1.1.34,3.38,1.99,2.99.31-2.25,1.22-6.39,4.01-5.99Z"/>
    <path class="cls-82" d="M336,467c.96-.92,1.4-1.3,2,0-.07.28-.01.7,0,1-1.97-.54-2.15,1.34-3,2l-8.11,8.73c-1.41,2.66-3.04,4.41-4.89,5.27-.24-8.36,5.26-16.21,14-17Z"/>
    <path class="cls-22" d="M384,448c2.38,1.04,4.05,2.37,5,4,6.47-.24,12.8-.24,19,0,.87.28.86.62,0,1-4.28.58-7.19,1.2-12,1-1.79-.07-3.55.06-5.36-.11-1.64-.16-7.13-2.2-7.58-1.87-.86.64-3.62,10.55-8.07,9.98-2.58-2.31.5-4.05,3-5,.91-1.67,1.91-2.72,3-5-.45-1.26,1.11-3.12,2-4,.28-.87.62-.86,1,0Z"/>
    <path class="cls-41" d="M391,535c.64.84,5.31,4.86,3.99,5.99h-12.49c-1.31-.38.6-4.47.5-5.99h1c2.72-.5,5.05-.5,7,0Z"/>
    <path class="cls-106" d="M358,536c1.18.32,5.07,4.04,3.99,4.99h-13c-.82-2.05.96-4.72,1-5.99,1.67-1.06,6.34-.61,8,1Z"/>
    <path class="cls-77" d="M475,339c-.48,3.15-2.08,6.01-3,9-8.64-3.75-7.51-12.68,3-9Z"/>
    <path class="cls-8" d="M436,536c1.24.33,5.06,4.05,3.99,4.99h-12.99c.34-2.08,1.12-3.8,1-5.99,2.34,1.38,6.04.47,8,1Z"/>
    <path class="cls-48" d="M324,491c-1.59,0-1.95-5.4-2-7,2.53-6.83,7.6-9.85,13-14-2.93,7.56-12.23,11.73-11,21Z"/>
    <path class="cls-74" d="M460,536c.99,1.3,4.54,2.3,3.99,4.99h-12.99c.96-1.96,1.24-3.82,1-5.99l8,1Z"/>
    <path class="cls-69" d="M487,315c4.21-2.57,9.05-3.81,14-3.99,1.17,1.05-6.2,9.56-8,9.99-1.43.26-1.36-.4-2-1-.43-1.18-.87-2.28-2-3-.64-.61-1.52-1.61-2-2Z"/>
    <path class="cls-78" d="M378,404l22.44-5.78c2.2-.83,2.57,2.26.56,2.78-.66.33-1.37.63-2,1-3.74,2.05-7.27,3.7-11.56,4.52l-2.44-1.52c-1.55.3-2.95.8-4,1-.91,2.98-3.66,2.58-6,1-.63.11-1.37-.11-2,0-.81-2.51,2.79-2.56,5-3Z"/>
    <path class="cls-35" d="M353,436c-.02-3.67.26-4.74,1-8,7.61-3.52,5.76,12.46-1,8Z"/>
    <path class="cls-10" d="M432,443c.87.33.87.67,0,1-1.66,1.7-3.91,2.95-6,4-6.7,3.35-10.81,4.03-18,5v-1c6.76-2.56,13.34-5.74,19.75-9.55l3.25.55c.28-.87.62-.86,1,0Z"/>
    <path class="cls-101" d="M457,399c-.94,2.18-1.09,6.61-4,6-.41-2.04-2.35-6.69-1.94-8.4.77-3.2,6.4-.39,5.94,2.4Z"/>
    <path class="cls-86" d="M402,397c.53-.18,1.48.18,2,0,1.45.42,1.45,1.42,0,3,.4,2.68-.06,2.9-2,1-.28.13-.74-.13-1,0,.38-3.26-.92-1.75-2.78-1.29-6.87,1.72-13.3,2.91-20.22,4.29,7.94-2.53,16.08-4.36,24-7Z"/>
    <path class="cls-12" d="M338,467c-.66.04-1.34-.06-2,0,2.72-3.88,5.58-8.46,7-13l1-3,2-2c-.85,9.7-6.84,13.37-8,18Z"/>
    <path class="cls-90" d="M454,447c-.67,2-1.45,3.96-2,6l-5.96-3.5c2.37-2.45,4.77-5.98,7.96-2.5Z"/>
    <path class="cls-72" d="M484,310c-.9,1.57-3.19.83-3-1-.12-1.59-3.03-8.31,2.33-6.86,4.35,1.18,1.37,5.11.67,7.86Z"/>
    <path class="cls-55" d="M476,309c.8,2.24-1.76,3.15-3,1-.04-.73-4.61-5.53-.39-6.91,6.06-1.98,3.47,3.73,3.39,5.91Z"/>
    <path class="cls-97" d="M356,453c-.87-3.75-2.59-8.38-3-12,6.71-.23,5.23,8.09,3,12Z"/>
    <path class="cls-98" d="M346,448c.01-.1-.94-.71-.87-1.45.69-6.7,2.88-11.13,5.87-16.55l-5,18Z"/>
    <path class="cls-110" d="M378,457c-.84,1.55-2.52,3.74-3,5-.25.67-.98,1.89-1,2h-1c-4.16-3.83.43-7.47,5-7Z"/>
    <path class="cls-56" d="M451,456c-.23,1.47.1,5.06,0,7-5.04-.47-3.56-3.62-4-5,.52-1.83,2.26-2.17,4-2Z"/>
    <path class="cls-99" d="M451,474c0,1.33-.02,2.67,0,4l-1,2c-6.22-1.28-4.41-8.48,1-6Z"/>
    <path class="cls-107" d="M368,475c-.52,1.08-.63,2.16-1,3-8.61,0-1.52-11.34,1-3Z"/>
    <path class="cls-19" d="M477,338c-.6-.14-1.41.14-2,0-4.68-1.11-3.8-1.66-6-5l.99-2.48,7.01,7.48Z"/>
    <path class="cls-23" d="M357,473c4.53-1.74,6.24,5.21,0,5-.31-.61.44-2.46-1-3,.16-.64.88-1.38,1-2Z"/>
    <path class="cls-50" d="M451,466c-.05,1.66,0,3.34,0,5-4.48,2.06-6.1-5.84,0-5Z"/>
    <path class="cls-80" d="M477,312c-1.24.37-3.03,2.25-5,2-.19-2.25,1.01-3.79,1-4l3-1c-.02.51,1.11,2.07,1,3Z"/>
    <path class="cls-103" d="M504,345c-4.03.85-6.04,2.78-8-3,.05.02.31-.66.97-.42,1.57.57,4.03,3.85,7.03,3.42Z"/>
    <path class="cls-58" d="M357,534c.28.59,1,1.15,1,2-1.95-.53-5.66.38-8-1,.02-.62.1-1.44,0-2l7,1Z"/>
    <path class="cls-113" d="M391,535c-2.15,1.4-4.84,1.35-7,0,1.54-1.89,4.88.26,4-3,.15.24,2.1,1.82,3,3Z"/>
    <path class="cls-52" d="M484,310c1.24.91,1.15,1.6,1,3-.23-.14-4.73-1.97-5-2,.18-.58,1.03-1.59,1-2,.71.68,2.53.65,3,1Z"/>
    <path class="cls-83" d="M506,337c-.55.49-1.44,1.88-2,2-1.58-.25-2.42-.94-1-2l1-3c1.77,1.65,1.12,1.15,2,3Z"/>
    <path class="cls-27" d="M382,503c-1.63-1.29-1.12-4.91-1-7,1.78,1.39.92,4.79,1,7Z"/>
    <path class="cls-114" d="M428,506c.04-2.33-.03-4.67,0-7,.28,1.65,2.71,4.98,0,7Z"/>
    <path class="cls-57" d="M433,517c.03-2.2-.74-5.63,1-7,.01,2.18.71,5.65-1,7Z"/>
    <path class="cls-85" d="M468,321c.9.29.88.62,0,1-.3,1.23-1.3,1.23-3,0-.2.88-.54.84-1,0-.34.09-.78-.12-1,0v-1c1.75.16,2.68-.66,4-1,.8.02,1.19.14,1,1Z"/>
    <path class="cls-60" d="M451,483c-.93-.32-.97-1.14-1-2-.01-.33-.03-.68,0-1,.08-.85.03-1.67,1-2,.02,1.66-.05,3.34,0,5Z"/>
    <path class="cls-25" d="M344,451c-.27,1.88-.7,2.03-1,3l1-5c-.12.59.09,1.36,0,2Z"/>
    <path class="cls-3" d="M493,322c3.32-.59,1.46,1.31,2,3-1.44-.44-1.99-1.53-2-3Z"/>
    <path class="cls-93" d="M381,492l1-5c-.22,1.03-.95,4.49-1,5Z"/>
    <path class="cls-68" d="M427,488v4c-.43-3.33-.27-2.09,0-5v1Z"/>
    <path class="cls-71" d="M452,501l-1-5c.04.54.85,2.99,1,5Z"/>
    <path class="cls-84" d="M419,419c.76,1.68,1.02,3.94.79,6.8,2.26.87,4,1.94,5.21,3.2,0,1.39,2.57,4.82,2.01,7l.99-1c1.36-.53,1.65.83,1,2,1.58,1.26,2.88,3.96,2,6-7.38,3.91-14.68,7.48-23,9-6.2,1.14-12.81,1.31-19,0l1.35-2.32,18.27-1.39c7.61-1.03,8.85-2.28,3.73-3.76-1.62,3.18-5.99,3.25-4.35-.53l-1.22-1.92c3.81-8.19-4.65-10.34-7.53-2.49l-2.25.42c-2.17,1.86-3.91.72-3-2-.41-1.64.59-3.64,3-6-2.63-.37-2.48-1.12,0-2,.46.27,1.41.98,1.5.96.26-.06,4.34-2.74,4.5-2.96l2.12-1.09c5,2.76,7.99,1.94,7.11-4.26l1.77-1.65c.26-.06,4.76-1.87,5-2Z"/>
    <path class="cls-33" d="M467,324c.27,1.34-.56,2.98-2,3,1.04,3.13-2.55,9.15-6,9-1.71,2.83-2.66,5.66-4,8,.2,4.04-1.03,7.54-5,9-.91,1.55-1.4,2.97-2,4-.4,4.15-2.41,10.73-7,11-.78,1.21-1.19,2.82-2,4,2.1,2.84-5.81,12.33-9,11-1,1.11-1.99,3.05-3,4,1.31,3.25-8.01,9.63-11,8-.97.6-2.26,1.61-3,2,.31,3.3-6.88,5.29-9,3l-.9-.59.9-2.41c10.81-3.7,19.43-11.22,26.98-19.52l33.02-55.48c.27-.07.66.02,1,0,2.01.32,2.68.99,2,2Z"/>
    <path class="cls-112" d="M394,438c.17.06,2.84,1.85,3,2,2.81,1.53,5.88,2.21,9.2,2.02l1.8,1.98c.11,0,.73,1.17,1.39.97,1.5-.45,1.34-3.26,2.1-2.96,1.45.57,9.79,3.85,5.82,5.81-9.02,4.44-19,1.99-28.31,4.19-2.95-.62-5.93-.35-5-4-.06-1.19.06-3.09,1-4,5.52-.99,4.43-3.84,6-6,1.68-1.35,2.68-1.35,3,0Z"/>
    <path class="cls-105" d="M449,394c-5.27,3.81-12.43,4.23-12-4,1.43-2.51,3.37-4.64,5-7,8.43-1.14,6.66,5.14,7,11Z"/>
    <path class="cls-73" d="M388.87,424.88c-.17.26-5.1,1.93-5.91,1.62-.45-2.44-9.22-7.55-8.92-8.93.65-2.95,8.09-5.57,10.97-4.1,1.9.97,5.02,9.64,3.86,11.41Z"/>
    <path class="cls-105" d="M429,407c2.04-.73,5.62-1.52,7.08.42.94,1.24,2.49,9.37,1.8,10.46-2.35,3.68-10.87-1.09-12.88-3.87,1.04-2.98-1.89-4.89,4-7Z"/>
    <path class="cls-29" d="M399,402c-.14.08-.94,1.62-2.07,2.44-.88.64-2.8.44-2.93.57-2.01,1.98,4.44,2.68,3.96,5.39-.14.8-4.79,4.26-5.64,4.39-4.49.66-6.83-6.45-7.32-9.79,4.63-.9,9.24-2.59,14-3Z"/>
    <path class="cls-29" d="M421.98,412.98l-7.49,1.03c-2.9-5.3-.12-14.35,6.99-13.04,5.83,1.07-.72,8.15.51,12.01Z"/>
    <path class="cls-91" d="M383,436c.72,1.22.25,1.67-1,1-7,3.46-14.47-4.32-8-10,7.88-6.93,7.35,8.47,9,9Z"/>
    <path class="cls-29" d="M403.72,408.2c9.96-2.17,9.13,9.73,2.54,10.67-3.84.54-11.99-8.61-2.54-10.67Z"/>
    <path class="cls-100" d="M372,425c-3.6,12.57-18.41.67-8-4,2.41-1.08,5.26-.39,7.45,1.13s.44,2.59.55,2.87Z"/>
    <path class="cls-1" d="M422,417c10.11,4.74,2.98,6.78,3,12-7.14,1.28-9.52-4.19-6-10,.16-.08,2.86-1.89,3-2Z"/>
    <path class="cls-20" d="M397,430c-.07.64.11,1.38,0,2-1.49,2.95-3.49,4.95-6,6-8-3.1-10.12-11.01,1.56-10.06,4.09.33,2.91,1.16,4.44,2.06Z"/>
    <path class="cls-54" d="M414,421c1.73,9.55-3.24,11.72-11,7,.97-1.33-.44-3.07,3.67-5.82,4.66-3.12,5.93-.87,7.33-1.18Z"/>
    <path class="cls-29" d="M439,372c.63.73,2.78.25,2.98,1.53.08.47-1.92,8.89-2.17,9.29-.78,1.23-9.18,4.98-9.81.19,2.59-2.85,6.9-7.93,9-11Z"/>
    <path class="cls-4" d="M457,367c-.65-.41-4.67.29-6,0,.29-2.5,2.77-7.95,3.79-10.75.48-1.33,2.14-2.09,2.21-2.25,2.44,3.6,5.36,10.59,0,13Z"/>
    <path class="cls-4" d="M451,369c.56,3.45,4.92,5.71,2.08,9.57-2.49,3.37-9.69,3.47-8.08-2.57.52-1,2.18-2.35,3.01-3.52,1.17-1.65.38-4.18,2.99-3.48Z"/>
    <path class="cls-111" d="M427,387c6.28,3.77-8.23,14.43-11,8,2.41-1.5,9.12-6.23,11-8Z"/>
    <path class="cls-24" d="M399.91,425.92c-2.05,1.5-9.05-3.95-8.46-6.94,2.12-4.61,10.09-.29,10.28,2.5.02.24-1.62,4.29-1.81,4.43Z"/>
    <path class="cls-53" d="M363,413.01c3.03-.28,9.5-5.66,10.05-.51.77,7.21-9.06,7.4-10.05.51Z"/>
    <path class="cls-111" d="M413,397c3.08,7.85-9.58,10.63-11,4,.7-.32,1.33-.69,2-1,2.08-.96,6.54-1.71,9-3Z"/>
    <path class="cls-76" d="M462,342c6.21,1.33,2.43,12.62-4,8,2.01-5.63-.05-3.63,4-8Z"/>
    <path class="cls-43" d="M435,395c-.13.27.13.73,0,1,1.19,2.14.19,4.47-3,7-.34-.03-.71.07-1,0-1.47-.34-5.24-2.61-4.92-4.35.46-2.5,6.18-8.34,8.92-3.65Z"/>
    <path class="cls-29" d="M466,328c.32.32.78.64,1,1-.43,1.24-.5,2.83-1,4-.19,1.33-.52,2.66-1,4-.72.76-1.94.91-2,1l-4-2c2.01-3.34,3.63-5.87,6-9,.94-.27,1.27.06,1,1Z"/>
    <path class="cls-111" d="M448,357c2.31,1.44-1.58,11.56-2.09,11.91-.96.67-3.79-.21-4.91-.91,2.22-3.46,4.98-7.54,7-11Z"/>
    <path class="cls-63" d="M450,353c1.69-2.87,3.31-6.06,5-9,2.05,5.34,1.41,8.9-5,9Z"/>
    <path class="cls-116" d="M385,437c-.05,4.22-.72,7.88-2,11-.62,2.47-1.31,2.57-2,4l-1-1c-.54-2.23-.7-8.14,2-9,.26-2.56,1.04-.95,0-5-.11-.44.38-1.19,1-1,.17.06,1.76-1.26,1.99-1,.05.66-.04,1.34,0,2Z"/>
    <path class="cls-88" d="M381,406c2.96,5.04-3.84,5.11-6,1,1.96-.34,4.08-.63,6-1Z"/>
    <path class="cls-81" d="M361,417c.79,4.33-2.71,3.92-4,5l-.98-.49c1.16-.86,2.62-5.01,3.14-5.36.44-.3,1.49.85,1.84.85Z"/>
    <path class="cls-102" d="M385,444c-.03,1.32.5,3.29-1,4h-1c1-3.97.46-7.86,2-11,.16,2.26.05,4.72,0,7Z"/>
    <path class="cls-45" d="M489,317l8-2.99-6,5.99c-.74-.69-1.25-2.28-2-3Z"/>
    <path class="cls-16" d="M478.03,326.97c-3.17-2.48,3.7-7.67,4.96-3.46.98,3.28-3.75,4.4-4.96,3.46Z"/>
    <path class="cls-42" d="M473,320c.08.65-.04,1.34,0,1.99l-5.01,1.01c-.85-.25-.83-.58,0-1-.06-.36.11-.79,0-1,.8-.69,4.13-2.79,5-1Z"/>
    <path class="cls-36" d="M503,337c.38.32.6,1.49,1,2-4.99,1.08-5.33-5.68-1-2Z"/>
    <path class="cls-51" d="M473,320l-5,1c-.06-.12-.74-.76-1-1,.35-2.52,1.93-2.49,4-2h1c.06.55.93,1.42,1,2Z"/>
    <path class="cls-115" d="M466,328c-.33-.34-.69-.64-1-1,.72-.95,1.34-2.01,2-3,.28-.87.62-.86,1,0-.36,1.62-.92,2.75-2,4Z"/>
    <path class="cls-96" d="M468,322c.05.3.02.69,0,1-.02.34.07.71,0,1h-1l-2-2c1-.04,2,.03,3,0Z"/>
    <path class="cls-91" d="M363.72,434.14c4.26-1.19,9.11,4.06,5.27,9.35-7.2,9.9-14.16-6.87-5.27-9.35Z"/>
    <path class="cls-38" d="M382,442c-.32,3.14,1.14,5.72-2,9-6.26,6.54-12.36-7.65-5.31-9.81,2.24-.69,5.23-.35,7.31.81Z"/>
    <path class="cls-87" d="M365,451.02c-4.52,11.06-8.08-1.79-4.51-1.99l4.51,1.99Z"/>
    <polygon class="cls-49" points="367.01 457 369.49 451 372 455.48 367.01 457"/>
    <path class="cls-107" d="M368.88,468.89c-.86.49-2.73-.06-3.88.1.65-11.55,6.89-1.82,3.88-.1Z"/>
    <path class="cls-5" d="M367,459.01c.95,1.72-3.17,3.79-3.65,3.86-3.05.48-2.01-3.26-1.33-4.88l4.98,1.01Z"/>
    <path class="cls-75" d="M360.52,466.01c2.71-.61,3.42,4.43.97,4.99-2.71.61-3.42-4.43-.97-4.99Z"/>
    <path class="cls-28" d="M360,480c2.48.81,2.15-1.65,3,2-4.04,4.9-7.68,1.19-3-2Z"/>
    <path class="cls-26" d="M445,475c-3.01,1.07-2.69-4.23-1-6,1.89,1.96,2.54,3.61,1,6Z"/>
    <path class="cls-39" d="M446,479c.1.24-.05.65,0,1,.11.7.37,2.86-.49,2.99-2.01-1.51-2.71-4.65.49-3.99Z"/>
    <path class="cls-47" d="M437,424c2.58-.6,3.39,1.94,4,4,2.73-.68,3,.05,1,2-.04.94-1.21,2.37-2,3l-2.21.05c-5.72-10.92-5.25,7.54.05.5l2.16.45c.21.7,1.46,1.66,1,3,.51,2.25,1.57,6.91-1,8-.04,1.59.23,3.56,0,5l1.2.67c-.66,1.92-.73,4.03-.2,6.33l-2,2c-1.12.33-2.12-.67-3-3-.68-2.27-1.36-4.71-2-7,3.82-3.77,1.91-5.6-2-8-1.28-.66-2.64-3.49-2-5-1.93-1.89-1.41-7.92,0-10,2.95-1.53,6.62-1.79,7-2Z"/>
    <path class="cls-32" d="M448,399c4.04,2.22,2.92,7.24,3,11-2.34,1.03-2.19,5.43-8.38,1.88-5.22-3.01-1.77-9.06,2.02-11.78,1.1-.79,2.56-.67,3.36-1.1Z"/>
    <path class="cls-44" d="M446,418c.47,4.9,5.37,16.35-4,12,.01-.3-.75-1.76-1-2-2.39-2.34-2.39-5.34,0-9,.17-.16-.56-1.83.61-2.08,1.75-.37,3.41,1.02,4.39,1.08Z"/>
    <path class="cls-11" d="M432,403c-1.75-2.33,2.07-4.99,3-7,5.91,5.03,5.04,7.76-3,7Z"/>
    <path class="cls-34" d="M441,428c-.49-.47-3.55-1.11-4-4,.29-.16,2.26-3.28,4-5v9Z"/>
    <path class="cls-2" d="M430,426c.3,3.18-.43,6.94,0,10,.2,1.22.25,1.53-1,1-.23-.82-.97-1.79-1-2-.39-2.47.1-5.81.14-8.39.84-2.24,1.75-.55,1.86-.61Z"/>
    <path class="cls-94" d="M440,445c.06-2.22-2.02-5.49,1-8,3.75-3.12,8.45,1.38,8.03,5.46-.15,1.4-3.75,5.35-4.52,5.36-.58,0-3.12-2.74-4.51-2.83Z"/>
    <path class="cls-18" d="M440,433c.12.25-.1.67,0,1-3.85,5.5-8.26,4.07-8.09-2.5.21-8.23,5.85-3.3,8.09,1.5Z"/>
    <path class="cls-89" d="M440,450c4.93-.48,8.57,2.1,6,7-1.72,0-1.01,3.33-5,0-5.22-4.35-1.36-4.75-1-7Z"/>
    <path class="cls-62" d="M465,337c-2.6-.86.65-3.18,1-4,1.37,3.14.37,2.57-1,4Z"/>
    <path class="cls-40" d="M439,459c2.46,3.74,1.82,2.92,1,7-.64-.93-1.59-1.98-2-3-.66-1.61-1.48-4.26-2-6-.09-.31.09-.69,0-1,1.53.58,2.16,1.73,3,3Z"/>
    <path class="cls-31" d="M434,449c-.53-1.88-1.75-3.99-2-5-.08-.31.08-.69,0-1-.85-.69-.9-1.42,0-2,5.55-3.08,9.52,8.66,2,8Z"/>
    <path class="cls-9" d="M443.01,461.01c4.68-.07,6.68,3.25,2.48,5.99l-2.48-5.99Z"/>
    <path class="cls-21" d="M471,318c-.77,2.31-2.47,1.61-4,2-3.21-2.97-8.18-4.8-10-9.99,5.87.72,9.82,4.3,14,7.99Z"/>
    <path class="cls-61" d="M432,441c.13.6-.14,1.42,0,2h-1c-.15-2.15-1.45-4.06-2-6l1-1c.12.87,1.66,3.49,2,5Z"/>
    <path class="cls-59" d="M408,444c-3.22-.05-7.44.67-10.01-1.53-.9-.77-.82-2.31-.99-2.47,3.74-12.69,17.75-7.27,11,4Z"/>
    <path class="cls-44" d="M424.86,438.88c-.29.47-9.85,4.06-10.4,3.97-3.06-.51-4.6-13.42,4.79-11.7,2.68.49,7.34,4.92,5.6,7.73Z"/>
    <path class="cls-79" d="M394,438c-.14-.05-1.16.71-3,0,1.69-2.32,3.5-4.49,6-6-.44,2.52-1.56,4.02-3,6Z"/>
  </g>
  <rect class="cls-64" x="479.82" y="323.34" width="1.84" height="1.84" rx=".92" ry=".92"/>
</svg>