<?xml version="1.0" encoding="UTF-8"?>
<svg id="Lager_1" data-name="Lager 1" xmlns="http://www.w3.org/2000/svg" xmlns:xlink="http://www.w3.org/1999/xlink" viewBox="0 0 1254 1280">
  <defs>
    <style>
      .cls-1 {
        fill: #595653;
      }

      .cls-2 {
        fill: #b2afad;
      }

      .cls-3 {
        fill: #b0adaa;
      }

      .cls-4 {
        fill: #a29689;
      }

      .cls-5 {
        fill: #b6aea6;
      }

      .cls-6 {
        fill: #ac9a86;
      }

      .cls-7 {
        fill: #555350;
      }

      .cls-8 {
        fill: #4d4b48;
      }

      .cls-9 {
        fill: #595551;
      }

      .cls-10 {
        fill: #978b7e;
      }

      .cls-11 {
        fill: #090808;
      }

      .cls-12 {
        fill: #aba69f;
      }

      .cls-13 {
        fill: #252321;
      }

      .cls-14 {
        fill: #aaa49e;
      }

      .cls-15 {
        fill: #a4998c;
      }

      .cls-16 {
        fill: #5e5a56;
      }

      .cls-17 {
        fill: #5b5753;
      }

      .cls-18 {
        fill: #b6b0a9;
      }

      .cls-19 {
        fill: #312d2a;
      }

      .cls-20 {
        fill: #615c57;
      }

      .cls-21 {
        fill: #b9b8b7;
      }

      .cls-22 {
        fill: #a8a199;
      }

      .cls-23 {
        fill: #5d5a56;
      }

      .cls-24 {
        fill: #121211;
      }

      .cls-25 {
        fill: #a69e95;
      }

      .cls-26 {
        fill: #a49c92;
      }

      .cls-27 {
        fill: #a09383;
      }

      .cls-28 {
        fill: #a1968b;
      }

      .cls-29 {
        fill: #5c5853;
      }

      .cls-30 {
        fill: #686460;
      }

      .cls-31 {
        fill: #c1bbb5;
      }

      .cls-32 {
        fill: #b2afac;
      }

      .cls-33 {
        fill: url(#Namnlös_övertoning_24);
      }

      .cls-34 {
        fill: #424242;
      }

      .cls-35 {
        fill: #65615d;
      }

      .cls-36 {
        fill: #363432;
      }

      .cls-37 {
        fill: #bbb5af;
      }

      .cls-38 {
        fill: #38342f;
      }

      .cls-39 {
        fill: #52504e;
      }

      .cls-40 {
        fill: #48433c;
      }

      .cls-41 {
        fill: #070606;
      }
    </style>
    <linearGradient id="Namnlös_övertoning_24" data-name="Namnlös övertoning 24" x1="1008.06" y1="1115.54" x2="1006.46" y2="1169.52" gradientTransform="translate(-184 -740)" gradientUnits="userSpaceOnUse">
      <stop offset="0" stop-color="#b5b4b3"/>
      <stop offset="1" stop-color="#9f9487"/>
    </linearGradient>
  </defs>
  <path class="cls-33" d="M848,375c1.95.07,3.77,1,4,1,1.82,3-.46,4.03-3,5-2.28,11.06-2.45,22.8-1.08,34.38-1.41,3.58-3.06,7.04-5.32,10.18,2.08,1.99,1.16,2.51-1.6,2.43,2.43,2.08-.58,4.89-3,3-2.5,4.19-6.44,4.44-11.01,4.67-3.99.2-16.35-.42-14.99-5.67-4.3,1.21-7.99-11.26-4.45-13.69,1.44-7.96,3.83-15.82,7.14-23.58-3.52-8.38-9.28,12.01-8.69,16.27.89-.05,1.22.62,1,2,1.93.5.92,8.36-1.67,7.08-1.26-5.56-3.15-11.26-5.33-17.08-4.07-1.69-8.24-7.22-2-9,1.34-2.17,2.54-4.47,3.58-6.9,1.05.65,2.19.62,3.42-.1,1.6-.71,3.21-.66,4-1l17.13-7.96c6.74-2.78,14.03-3.13,21.87-1.04Z"/>
  <path class="cls-2" d="M901,375c2.27-.02,4.66.02,7,0l2.29.12c.41,3.81,1.68,7.36,3.8,10.65,5.02,10.29,2.15,12.72-8.74,12.81l-2.6,11.82c2.85,1.01,2.07,3.6-.75,3.61-2.08,1.07-3.15-.1-3.19-3.5-15.49-1.42-31.29-1.41-46.83-.77-.08,2.29-.22,3.89-2.98,3.27-2.22-3.08-2.13-10.01-2.08-14.44.09-7.08,1.24-11.12,3.24-17.8.03-.09-.35,1.54-1.16.24.8-2.02,1.51-3.42,3-5,3.58.06,7.64-1.02,10-1h39Z"/>
  <path class="cls-3" d="M930,375c21.84,5.61,30.11,17.91,35,39v1l-1,1c-.04-.29-1.64-3.92-2-5-2.02-2.92-2.92-1.4-2.69,4.58.03,3.99-1.08,6.13-3.31,6.42-7.89,11.44-25.48,13.11-33.7,2.39-2.04-2.66-3.96-8.93-4.86-12.32-.08-.28-.64-.44-1.34-.56l.33-12.31c-.83-1.47-.74-6.46-.13-8.73,1.18-4.37,8.17-16.19,13.7-15.47Z"/>
  <path d="M838,431l1.12,2.31c-6.83,16.35,11.16,10.31,11.92-1.22l1.96-1.09c.4-1.67,1.06-1.33,2,1,3.2.48,2.07,8.72-1,9,1.12,2.87.46,3.87-2,3,.76,1.1,1.3,2.19.25,2.91,3.93.02,6.84,1.05,8.75,3.09,2.12.29,3.45.96,4,2-2.37,15.11,15.49,38.33-6.66,39.94-23.28,1.69-8.17-8.66-9.44-20.34-.74-6.81-5.83-11.46-8.9-16.6l-2.44-.3c-3.01-8.94-4.67-9.35-4.98-1.22-1.03,4.84-2.89,6.68-5.58,5.52-1.59-1.95-1.65-4.85-.2-8.68,3.91-14.97-11.45-16.19-8.83-.97l-1.97,1.66c-1.49-5.16-1.31-4.45-4-7v-1c-2.43-3.56-3.43-6.89-3-10-.62-2.85.1-4.47,3-3,5.51,5.08,19.51,4.51,26,1Z"/>
  <path d="M931,445c2.93-.89,3.67.62,2,3-5.6,2.77-3.83,10.62-5.55,13.95-3.92,7.58-15.93,15.25-18.89,25.11-4.74,4.12-27.77,6.7-21.75-4.76,6.22-11.84,25.84-19.53,17.19-38.3.62-3.76,10.76-7.97,14.44-7.83,5.12.19,10.44,4.54,12.56,8.83Z"/>
  <path class="cls-28" d="M954,445c.38.65.71.32,1-1-3.61-4.08-1.46-13,2.12-17.23.45-.54,1.44.21,1.88,1.23-.04.3-.97.76-1,1-.47,5.34-.72,10.67,0,16,.58,3.3,3.4,5.19,2.97,10.39-.29,3.49-5.14,12.22-6.48,16.6-2.67,8.7,1.75,12.97-6.49,18.01l-2.33.06c.68-4.12-1.31-6.17-5.5-4.97-2.97-1.15-5.7-2.51-8.17-4.09,4.76-6.57,10.92-21.24,6.44-28.94-1.54-2.64-4.26-2.84-5.44-4.06-.72-.74-1.32-2.48-2-3-.77-1.24-.29-1.7,1-1l-6.92-11.9c-.9-1.47-3.42-6.68-.96-6.38,9.86,9.83,23.81,6.69,31.89-3.72,3.32-4.14,2.64,2.02,1.63,5.13-4.35,4.91-5.56,10.87-3.63,17.87Z"/>
  <path class="cls-25" d="M787,388c5.66-2.83,7.21-.48,3.46,4.98,2.97,2.73,4.15,5.07,3.54,7.02,2.52.58,3.52,2.92,3,7,1.43.69,1.01,4.66,0,6-.47,5.43-4.04,14.52-11,13-6.78,3.07-6.11,1.32-12,1-5.18-1.99-10.18-2.66-15-2-1.56-.33-1.82.58-6-1-1.9-1.53-4.1-2.81-6.62-3.85l-1.38-7.15c.11-4.24,2-4.73,2-5,2.43-3.95,7.74-8.91,12.73-7.49l1-1.39c3.05.54,6.27.92,9.27-.12,6.62-3.78,7-10.42,17-11Z"/>
  <path class="cls-26" d="M827,459c3.93-1.93,5.28-12.94,5.01-16.99,3.84,2.4,5.96,9.6,7.99,12.99h-1l-4,15-1,18c-1.4,2.1-3.76,3.14-6,4-1.53-.44-2.41-1.92-2.63-4.43-3.77.25-5.89-.61-6.37-2.57-1.47,2.72-5.89.46-7-2,3.81-7.05,3.79-7.75,6-15-.71-7.97.47-14.96,9-9Z"/>
  <path class="cls-22" d="M932,444c.05.41-.4,1.19-1,1-14.91-11.39-13.89-6.29-27-1-4.13,1.67-7.64,3.76-12,5-10.53,2.44-20.86,2.77-31,1-4.33-.27-8.57-1.59-12.99-1.01-.31-3,2.55-2.07,3.99-4.99l1.67-.73c12.73,7.34,28.41,2.87,41.33-1.27l.02-2.41,11.63-9.93,2.35.35c3.19-5.66,5.44-11.71,6.77-18.13l1.48-.6c1.38,5.58,3.48,10.98,6.79,15.7-.45.67-.76,1.27-.58,1.66,2.42,5.38,5.48,10.36,8.55,15.38Z"/>
  <path class="cls-32" d="M827,459c-2.33,1.15-5.53-.87-7.07.42-.99.83-1.14,6-1.93,8.58-.56-4.97-2.05-12.22-2-17s-1.71-12.53,4.54-13.96c12.67-2.9,8.26,14.71,6.46,21.96Z"/>
  <path class="cls-23" d="M916,373l-.12,2.25c-4.98.35-.18,8.74.35,8.78,2.48-5.93,6.07-9.27,10.77-10.03,1.48.27,2.17.79,3,1-21.11,8.91-16.87,56.46,8.45,56.02,9.96-.17,11.66-6.3,17.55-9.02-4.86,9.26-14.26,11.42-24.06,9.56-3.19-.61-7.63-4.9-7.93-4.56-1.1,1.24,7.61,14.2,7.99,17-7.45-8.39-12.16-21.15-15.01-31.99-2.2,6.82-3.44,12.11-7.99,17.99l-1.21-1.9c1.97-3.47,7.8-27.07,6.16-28.08-.29-.18-6.23.54-6.65,1.02-2.59,14.15-7.4,27.22-14.43,39.22.99.17,1.66.86,2.14,1.75-13.39,8.09-28.96,8.26-43,2,.49-1,1.92-2.76,2-3,21.53,10.1,39.57-4.51,45.46-25.71l2.54-1.29c1.05-3.25,1.77-15.01,2.46-16.05,1.53-2.32,15.92,5.86,9-11.91l-5.47-11.04c.78,0,4.95-1.88,8-2Z"/>
  <path class="cls-15" d="M809,433c1.22,3.25.32,6.85,4.99,9.51l-1.99.49c-3.39-2.62-7.05-4.95-11-7-2.59-1.97-3.74-4.81-4-5-1.61-2.13-.27-4.8,4-8,1.64-9.69,3.23-11.53,4.79-5.5.1,4.91,2.01,9.35,4.23,13.57l-1.02,1.93Z"/>
  <path class="cls-21" d="M927,374c-5.91,4-8.13,9.83-10.99,15.99-.25-6.91-10.09-12.79-.01-16.99,4-.15,7.13.29,11,1Z"/>
  <path class="cls-16" d="M789,381c3.42.1,5.65,3.07,6.69,8.92l2.31,1.08v1c-2.57,5.41-.27,3.55,2,9l.19,10.61-2.19,1.39c-.28.87-.62.86-1,0,.39-1.35-.17-4.24,0-6l-1.68-1.74c2.65-2.08,1.65-4.06-1.32-5.26-2.71-3.83-9.72-6.01-2-11.99-1.65.04-3.35-.11-5-.01-.39-.57-.58-1.52-1-2,.51-2.87,1.51-4.53,3-5Z"/>
  <path class="cls-6" d="M748,402c-.21-4.14-5.27-12.18-1.99-19,5,1.79,2.6,12.22,7.99,16,2.12,2.76-6.51,8.77-6,3Z"/>
  <path class="cls-10" d="M819,485c3.36,3.42.33,6.74-4.31,7.46-.08.01,1.09-.5,1.31.54-15.59,1.93-6.48-5.41-4-10,2.65-.2,4.88,1.43,7,2Z"/>
  <path class="cls-41" d="M798,413c1.76,1.61,1.72,4.73-.13,9.37l2.13.63c.3-.61.63-.6,1,0-1.32,3.3-2.39,4.98-4,8-3.34-2.52-7.4-3.11-11-5,4.74-2.15,9.53-7.96,11-13h1Z"/>
  <path class="cls-9" d="M754,399c.49-.19,5.29,1.77,5.99,1,.43-.47-1.4-9.42,2.96-5.41.37.34-1.13,5.12,7.04,4.41-8.67,4.95-8.86.85-13.29,1.93-.58.14-7.32,6.42-9.71,7.07.03-2.02,1.1-3.99,1-6,3.23,2.95,5.08-2.64,6-3Z"/>
  <path class="cls-28" d="M932,492c-7.7-1.12-6.73-6.81-2-10,10.7-.99,12.93,8.46,2,10Z"/>
  <path class="cls-11" d="M793,376c3.38,3.33,6.88,9.46,5,14,.78.29.77.62,0,1-5.6,4.92-3.56-5.27-9-10-2.66-.15-2.56-1.22,0-2,.41-1.26.85-3.87,1.01-4,1.05-.87,2.68.93,2.99,1Z"/>
  <path class="cls-2" d="M848,375c-5.3.86-7.9-1.53-14.06-.55-2.85.45-21.08,7.87-24.94,9.55,6.01-2.03,16.21-9.72,21.74-10.76,7.73-1.46,12.1,1.59,17.26,1.76Z"/>
  <path class="cls-38" d="M932,481c.67,0,12.39,3.22,12.99,3.51,3.99,1.91-1.28,6.03,3.01,5.49-1.39.85-1.75.66-3,1-2.98-4.51-5.26-5.03-2,1-2.25.35-8.71.33-11,0,8.91-5.53,7.09-7.47-2-10,.63-.42.29-.98,2-1Z"/>
  <path class="cls-23" d="M956,422c3.64-6.94,3.24-10.31,2.01-17.99,3.51-.34,3.36,5.1,3.99,6.99l-2.01-1.5c.42,6.26-.23,12.33-.99,18.5-6.57-.3-4.55,12.19-4,16,.19,1.16-.14,1.49-1,1-.03-.85-2.32-3.65-2.06-7.49.22-3.26,8.57-17.6,4.06-15.51Z"/>
  <path class="cls-5" d="M968,437c.09,1.75,1,4.7-1.98,4-4.86-8.49-.99-16.42-2.02-25l1-1c.72,7.37,1.72,14.7,3,22Z"/>
  <path class="cls-19" d="M828,492c-5.57,2.14-6.14,2.35-12,1-1.08-.25-3.24.83-2.99-.99,4.17.3,5.13-3.66,5.99-7.01,4.6,1.25,9.33-2.44,9,7Z"/>
  <path class="cls-30" d="M892,449c-7.33,2.08-19.61,4.02-27,3-1.21-.17-3-1.19-4-2,10.27.64,20.78-.14,31-1Z"/>
  <path class="cls-13" d="M745,413c3.93-.74.35,2.67,1,2.99,2.11,1.05,9.1-1.93,5.49-5.98,10.74,9-2.78,5.86-4.49,8-4.86,6.05,15.76-.73,15.99,2.01-.75,2.53-13.12-1-9.99,3.99-6.39-2.42-8.22-3.04-8-11Z"/>
  <path class="cls-31" d="M793,376c2.61.62,4.26,3.25,6,5l1.94,4.04c2.1.6-1.05,4.9-2.94,4.96l-5-14Z"/>
  <path class="cls-34" d="M901,375c-12.97.12-26.03.13-39,0h39Z"/>
  <path class="cls-40" d="M812,443v1c-1.51-1.43-8.63-6.19-11-8,9.6,5.18,7.16.25,1.01-4.51,6.98-.83,5.63,8.31,9.99,11.51Z"/>
  <path class="cls-37" d="M789,379c-.16.49.1,1.36,0,2-.77,4.81,1.21,5.77,1,5.99-.52.54-3.07-.8-4-.99-4.03-4.61-4.25-7.72,3-7Z"/>
  <path class="cls-27" d="M943,492c-10.36-4.21,3.75-11.38,2-1-.48.13-1.1.86-2,1Z"/>
  <path class="cls-7" d="M968,437c-.31-6.29-5.02-14.52-3-22v-1c1.73,7.45,2.41,15.37,3,23Z"/>
  <path class="cls-17" d="M834,488c-1.44-7.74-.46-11.08,1-18-.58,6.05,1.41,14.39-1,18Z"/>
  <path class="cls-36" d="M759,425c3.17-4.66,10.16.52,15,2-4.31-.23-10.81-1.1-15-2Z"/>
  <path class="cls-23" d="M958,445c-1.71-9.77-1.01-6.72,0-16v16Z"/>
  <path class="cls-8" d="M799,381c2.66,2.68,1.31,4.98,6,4-1.67.74-6.54,6.03-7,7v-2c3.52-1.57,1.77-6.1,1-9Z"/>
  <path class="cls-39" d="M835,470c.48-5,1.25-10.67,4-15,.27,4.98-3.08,10.63-4,15Z"/>
  <path class="cls-4" d="M841,428c2.85-4.31,5.38-8.72,7.59-13.22.87.17,6.29,14.63,4.41,16.22-.17,17.21-25.42,20.86-15,0,.11-.22,2.13-1.46,3-3Z"/>
  <path class="cls-20" d="M812,430l-3,3c-2.39-6.35-6.17-11.74-5.01-18.99-.71,3.41-1.71,5.8-2.99,8.99h-1c-.99-2.1-.96-4.73.09-7.89l-.09-14.11c1.9,4.55,6.23,10.4,6.01,15.99,2.1-.32.61-4.46.99-5.99,4.95-16.15,4.61-16.81-1-2-2.35-6.72,6.12-25.83,9.57-17.5,1.57,3.8-15.02,27.94-3.57,38.5Z"/>
  <path class="cls-29" d="M849,413l2.2.74,4.76,13.08c1.3,2.65.99,4.38-.96,5.18l-2-1c.01-1.15-.36-5.78-1.99-5.99,1.15,2.26-4.76,14.06-7.01,11.98-.82-.76,10.99-14.47,4.99-20.98-1.5,4.56-5.84,8.19-7.99,11.99,11.06-15.56,1.15-29.75,8-47,1.81-1.09,2.56-1.92,1.59,1.08-3.96,12.2-3.71,18.27-1.59,30.92Z"/>
  <path class="cls-18" d="M806,409c2.86-5.26,1.13-15.42,7.99-17.99-.69,7.15-5.31,13.19-6.99,19.99-.31-.67-.76-1.31-1-2Z"/>
  <path class="cls-14" d="M902,414c-5.91,18.27-15.86,33.61-37.55,32.04-2.84-.21-10.22-1.23-10.45-5.04.14-.43,1.04-8.36,1-9-.34-5.67-5.07-13.5-6-19,1.5-1.03.38-4.51,1.57-5.05,2.28-1.04,48.19-.75,49.97,1,.83.82-.14,4.14,1.46,5.05Z"/>
  <path class="cls-41" d="M955,444c.35,2.41,4.24,8.23,2.99,10-.25.35-2.46-3.21-4.98,4,1.16-5.02,1.15-8,.99-13l1-1Z"/>
  <path class="cls-35" d="M775,404c1.87,1.43,3.54,3.1,5,5,.55,15.68-26.56-12.82-5-5Z"/>
  <path class="cls-1" d="M794,400c5.72-1.63,3.2,4.91,3,7-4.49-3.25-7.63-3.8-13-2.01,4.29-7.92,17.25,5.25,10-4.99Z"/>
  <path class="cls-24" d="M780,409c-.69-1.22-12.16,1.99-10-1.98,1.49-2.74,10.56,3.15,5-3.02,2.27.82,4.91,2.45,5,5Z"/>
  <path class="cls-12" d="M895,442l-11.99,2.51c15.64-2.09,20.95-43.88,23.05-45.45.4-.3,9.59-1.4,9.94-1.05,1.83,1.8-4.12,28.04-7,31.99-2.06,2.67-10.99,10.18-14,12Z"/>
  <path class="cls-25" d="M800,423c-7.9,8.91-2.75-5.96-2-10s.69-8.25,2-12c2.07,7.07,3.56,15.06,0,22Z"/>
  <path class="cls-27" d="M821.7,486.15c7.14-2.05,4.66,8.92-2.1,6.8-2.78-.87-.01-6.19,2.1-6.8Z"/>
</svg>