<?xml version="1.0" encoding="UTF-8"?>
<svg id="Lager_1" data-name="Lager 1" xmlns="http://www.w3.org/2000/svg" viewBox="0 0 1254 1280">
  <defs>
    <style>
      .cls-1 {
        fill: #2c1e04;
      }

      .cls-2 {
        fill: #0c0907;
      }

      .cls-3 {
        fill: #e19616;
      }

      .cls-4 {
        fill: #2d1e04;
      }

      .cls-5 {
        fill: #0a0701;
      }

      .cls-6 {
        fill: #30210a;
      }

      .cls-7 {
        fill: #aca8a8;
      }

      .cls-8 {
        fill: #929394;
      }

      .cls-9 {
        fill: #050300;
      }

      .cls-10 {
        fill: #e2dedf;
      }

      .cls-11 {
        fill: #e09817;
      }

      .cls-12 {
        fill: #735215;
      }

      .cls-13 {
        fill: #2b1d05;
      }

      .cls-14 {
        fill: #352405;
      }

      .cls-15 {
        fill: #0c0a07;
      }

      .cls-16 {
        fill: #d6ccc5;
      }

      .cls-17 {
        fill: #e69b17;
      }

      .cls-18 {
        fill: #0b0a08;
      }

      .cls-19 {
        fill: #e29a16;
      }

      .cls-20 {
        fill: #231803;
      }

      .cls-21 {
        fill: #452f07;
      }

      .cls-22 {
        fill: #0e0901;
      }

      .cls-23 {
        fill: #040300;
      }

      .cls-24 {
        fill: #60400a;
      }

      .cls-25 {
        fill: #0f0a01;
      }

      .cls-26 {
        fill: #382506;
      }

      .cls-27 {
        fill: #4d3408;
      }

      .cls-28 {
        fill: #281b04;
      }

      .cls-29 {
        fill: #e29917;
      }

      .cls-30 {
        fill: #ddb565;
      }

      .cls-31 {
        fill: #261a04;
      }

      .cls-32 {
        fill: #593b09;
      }

      .cls-33 {
        fill: #ded5d5;
      }

      .cls-34 {
        fill: #2f2005;
      }

      .cls-35 {
        fill: #d49115;
      }

      .cls-36 {
        fill: #e9e9e8;
      }

      .cls-37 {
        fill: #1e1304;
      }

      .cls-38 {
        fill: #dfdbd2;
      }

      .cls-39 {
        fill: #d0d3b4;
      }

      .cls-40 {
        fill: #e19717;
      }

      .cls-41 {
        fill: #422c06;
      }

      .cls-42 {
        fill: #171002;
      }

      .cls-43 {
        fill: #231703;
      }

      .cls-44 {
        fill: #d48e50;
      }

      .cls-45 {
        fill: #1f1503;
      }

      .cls-46 {
        fill: #2f2d2d;
      }

      .cls-47 {
        fill: #100f0c;
      }

      .cls-48 {
        fill: #56514f;
      }

      .cls-49 {
        fill: #322205;
      }

      .cls-50 {
        fill: #483007;
      }

      .cls-51 {
        fill: #392606;
      }

      .cls-52 {
        fill: #432d07;
      }

      .cls-53 {
        fill: #2c2c2e;
      }

      .cls-54 {
        fill: #362406;
      }

      .cls-55 {
        fill: #1d1403;
      }

      .cls-56 {
        fill: #bcb6b8;
      }

      .cls-57 {
        fill: #221703;
      }

      .cls-58 {
        fill: #160f02;
      }

      .cls-59 {
        fill: #140e02;
      }

      .cls-60 {
        fill: #2d2b29;
      }

      .cls-61 {
        fill: #1f1d1c;
      }

      .cls-62 {
        fill: #141313;
      }

      .cls-63 {
        fill: #e1d9d4;
      }

      .cls-64 {
        fill: #f5f0f0;
      }

      .cls-65 {
        fill: #d4d4d4;
      }

      .cls-66 {
        fill: #3b2806;
      }

      .cls-67 {
        fill: #131212;
      }

      .cls-68 {
        fill: #d2cbc5;
      }

      .cls-69 {
        fill: #3a2706;
      }

      .cls-70 {
        fill: #271a04;
      }

      .cls-71 {
        fill: #c6beb8;
      }

      .cls-72 {
        fill: #4e3408;
      }

      .cls-73 {
        fill: #777373;
      }

      .cls-74 {
        fill: #da9416;
      }

      .cls-75 {
        fill: #181512;
      }

      .cls-76 {
        fill: #402b06;
      }

      .cls-77 {
        fill: #777577;
      }

      .cls-78 {
        fill: #a97113;
      }

      .cls-79 {
        fill: #181819;
      }

      .cls-80 {
        fill: #44380f;
      }

      .cls-81 {
        fill: #69460b;
      }

      .cls-82 {
        fill: #0f0a02;
      }

      .cls-83 {
        fill: #2d1e05;
      }

      .cls-84 {
        fill: #1b1203;
      }

      .cls-85 {
        fill: #302005;
      }

      .cls-86 {
        fill: #2e1f05;
      }

      .cls-87 {
        fill: #b6afaf;
      }

      .cls-88 {
        fill: #b47a14;
      }

      .cls-89 {
        fill: #472f07;
      }

      .cls-90 {
        fill: #221603;
      }

      .cls-91 {
        fill: #352305;
      }

      .cls-92 {
        fill: #493107;
      }

      .cls-93 {
        fill: #6d6967;
      }

      .cls-94 {
        fill: #150e02;
      }

      .cls-95 {
        fill: #534f4f;
      }

      .cls-96 {
        fill: #538502;
      }

      .cls-97 {
        fill: #231804;
      }

      .cls-98 {
        fill: #5d5045;
      }

      .cls-99 {
        fill: #0b0701;
      }

      .cls-100 {
        fill: #141210;
      }

      .cls-101 {
        fill: #ec9f18;
      }

      .cls-102 {
        fill: #080601;
      }

      .cls-103 {
        fill: #322105;
      }

      .cls-104 {
        fill: #e19917;
      }

      .cls-105 {
        fill: #6f675e;
      }

      .cls-106 {
        fill: #0d0907;
      }

      .cls-107 {
        fill: #120c02;
      }

      .cls-108 {
        fill: #5c5755;
      }

      .cls-109 {
        fill: #4f3508;
      }

      .cls-110 {
        fill: #2c1e08;
      }

      .cls-111 {
        fill: #ddd4d4;
      }

      .cls-112 {
        fill: #0b0907;
      }

      .cls-113 {
        fill: #1f190f;
      }

      .cls-114 {
        fill: #060401;
      }

      .cls-115 {
        fill: #e79c17;
      }

      .cls-116 {
        fill: #1a1919;
      }

      .cls-117 {
        fill: #191103;
      }

      .cls-118 {
        fill: #2d261e;
      }

      .cls-119 {
        fill: #9aa0ab;
      }

      .cls-120 {
        fill: #1d1303;
      }

      .cls-121 {
        fill: #171003;
      }

      .cls-122 {
        fill: #553908;
      }

      .cls-123 {
        fill: #3e2a06;
      }

      .cls-124 {
        fill: #c8c5c5;
      }

      .cls-125 {
        fill: #1c1303;
      }

      .cls-126 {
        fill: #b6abab;
      }

      .cls-127 {
        fill: #573907;
      }

      .cls-128 {
        fill: #14100d;
      }

      .cls-129 {
        fill: #9f9f9f;
      }

      .cls-130 {
        fill: #3c2806;
      }

      .cls-131 {
        fill: #e4dede;
      }

      .cls-132 {
        fill: #160e02;
      }

      .cls-133 {
        fill: #b2a9a5;
      }

      .cls-134 {
        fill: #140d02;
      }

      .cls-135 {
        fill: #cac8c8;
      }

      .cls-136 {
        fill: #bbb;
      }

      .cls-137 {
        fill: #2f1f05;
      }

      .cls-138 {
        fill: #301f04;
      }

      .cls-139 {
        fill: #e79e18;
      }

      .cls-140 {
        fill: #130d02;
      }

      .cls-141 {
        fill: #251904;
      }

      .cls-142 {
        fill: #101010;
      }

      .cls-143 {
        fill: #db9316;
      }

      .cls-144 {
        fill: #4c3308;
      }

      .cls-145 {
        fill: #d9d0ca;
      }

      .cls-146 {
        fill: #0d0901;
      }

      .cls-147 {
        fill: #201503;
      }

      .cls-148 {
        fill: #d38d15;
      }

      .cls-149 {
        fill: #e39817;
      }

      .cls-150 {
        fill: #0d0801;
      }

      .cls-151 {
        fill: #0c0801;
      }

      .cls-152 {
        fill: #0d0c0b;
      }

      .cls-153 {
        fill: #0c0c0c;
      }

      .cls-154 {
        fill: #d58e15;
      }

      .cls-155 {
        fill: #5f400a;
      }

      .cls-156 {
        fill: #170f02;
      }

      .cls-157 {
        fill: #e2d9c0;
      }

      .cls-158 {
        fill: #a1a2a2;
      }

      .cls-159 {
        fill: #2e1e04;
      }

      .cls-160 {
        fill: #4e4437;
      }

      .cls-161 {
        fill: #181003;
      }

      .cls-162 {
        fill: #f5f5f5;
      }

      .cls-163 {
        fill: #2f1d04;
      }

      .cls-164 {
        fill: #a9a2a2;
      }

      .cls-165 {
        fill: #010100;
      }

      .cls-166 {
        fill: #e6dfde;
      }

      .cls-167 {
        fill: #a7967a;
      }

      .cls-168 {
        fill: #3d2906;
      }

      .cls-169 {
        fill: #cc8c15;
      }

      .cls-170 {
        fill: #de9516;
      }

      .cls-171 {
        fill: #4c4d50;
      }

      .cls-172 {
        fill: #c08113;
      }

      .cls-173 {
        fill: #1a1103;
      }

      .cls-174 {
        fill: #3d2b19;
      }

      .cls-175 {
        fill: #c5b294;
      }

      .cls-176 {
        fill: #131313;
      }

      .cls-177 {
        fill: #2b1c04;
      }

      .cls-178 {
        fill: #100b02;
      }

      .cls-179 {
        fill: #372505;
      }

      .cls-180 {
        fill: #181002;
      }

      .cls-181 {
        fill: #df9917;
      }

      .cls-182 {
        fill: #090602;
      }

      .cls-183 {
        fill: #e0d8d8;
      }

      .cls-184 {
        fill: #12161d;
      }

      .cls-185 {
        fill: #f1ebeb;
      }

      .cls-186 {
        fill: #aeaeae;
      }

      .cls-187 {
        fill: #9e9e9e;
      }

      .cls-188 {
        fill: #2b241a;
      }

      .cls-189 {
        fill: #474646;
      }

      .cls-190 {
        fill: #62420a;
      }

      .cls-191 {
        fill: #2b1d04;
      }

      .cls-192 {
        fill: #ae7512;
      }

      .cls-193 {
        fill: #8c5d0e;
      }

      .cls-194 {
        fill: #191919;
      }

      .cls-195 {
        fill: #100a02;
      }

      .cls-196 {
        fill: #422c07;
      }

      .cls-197 {
        fill: #d48e15;
      }

      .cls-198 {
        fill: #503508;
      }

      .cls-199 {
        fill: #110b02;
      }

      .cls-200 {
        fill: #372506;
      }

      .cls-201 {
        fill: #171615;
      }

      .cls-202 {
        fill: #e09716;
      }

      .cls-203 {
        fill: #130c02;
      }

      .cls-204 {
        fill: #adadad;
      }

      .cls-205 {
        fill: #5a3c09;
      }

      .cls-206 {
        fill: #beb7b8;
      }

      .cls-207 {
        fill: #241804;
      }

      .cls-208 {
        fill: #191102;
      }

      .cls-209 {
        fill: #241a0a;
      }

      .cls-210 {
        fill: #e29b17;
      }

      .cls-211 {
        fill: #111010;
      }

      .cls-212 {
        fill: #1e1d1d;
      }

      .cls-213 {
        fill: #1a1a1a;
      }

      .cls-214 {
        fill: #1f1403;
      }

      .cls-215 {
        fill: #afafb1;
      }

      .cls-216 {
        fill: #221704;
      }

      .cls-217 {
        fill: #eba619;
      }

      .cls-218 {
        fill: #dd9516;
      }

      .cls-219 {
        fill: #eb9f18;
      }

      .cls-220 {
        fill: #1e1403;
      }

      .cls-221 {
        fill: #211603;
      }

      .cls-222 {
        fill: #1c1203;
      }

      .cls-223 {
        fill: #4d3308;
      }

      .cls-224 {
        fill: #342305;
      }

      .cls-225 {
        fill: #040200;
      }

      .cls-226 {
        fill: #2a1c04;
      }
    </style>
  </defs>
  <g>
    <path class="cls-106" d="M698,839c1.56.82,3.43.83,5,0,33.46-1.19,66.15-10.39,96.32,11.18,12.94,9.25,14.58,16.78,19.68,30.82.79,1.95.58,2.47-1,1-3.11-4.33-5.57-8.25-7.37-13.41-.23-3.83-16.56-19.43-18.46-18.86-3.73,6.48-11.56,4.27-10.91-3.09-2.5-1.04-4.92-1.92-7.27-2.64-.82-1.32-1.82-2.65-3-4-2.62.73-3.62.4-3-1-2.68,2.4-4.34,2.74-5,1-3.56-.45-7.2-.99-10.9-1.63-3.94,1.31-8.31,1.19-13.1-.37-2.56,1.08-4.23,1.08-5,0-2.44-.08-4.77.25-7,1-3.64,3.26-7.63,2.59-12,1-2.17,1.81-6.17,3.92-9,1-.24,1.35-1.24,1.35-3,0-.99,1.53-5.09,1.95-6,0-.31,1.9-1.09,1.79-2,0-.75,1.6-4.16,4.03-6,4-2.82.23-.75-3.22-.82-3.01-1.41,4.61-5.92,6.03-7.23,1.17l-1.95-.16-2.46-.23c-.31-4.38-2.05-5.14-5.21-2.29,1.72,8.04-4.5,5.8-8.52,1.83l-1.2.65c.19,3.56.41,11.09-4.61,8.05-1.18-2.38-2.65-3.45-4.43-3.21,4.14-2.7,6.29,4.04.43,3.21-3.4,1.9-7,3.62-10.79,5.16-2.01,2.31-4.41,2.92-7.21,1.84-1.97,2.86-4.98,4.78-9.02,5.77l-1.98,2.23c-.4,1.39-3.08.89-4,0-1.7-.47-.4-1.76.51-1.68s-7.21,2.33-8.67,1.27c1.82,1.47,2.2,2.94,1.16,4.41,2.43,1.73,2.1,9.16-1,10,1.6-.21,1.26.79-1,3,.86.33.86.67,0,1,1.9.08,1.9,1.41,0,4,.9,1.6,1.9,3.27,3,5,.81.19.78.53,0,1,2.1,1.16,2.15,3.51.14,7.03,5.93-1.08,8.89-.09,8.86,2.97.02,3.36-1.01,7.26-5,6-.27.9-.6.88-1,0-2.47-.11-4.47-1.78-6-5-2.85.96-3.18-.04-1-3,.12-2.25,2.01-4.7,1.96-6.53-.05-1.73-2-2.86-2.51-4.41-2.06-6.21,2.56-13.8,1.56-19.53-.61-3.52-7.23-6-7-10.52,6.31-1.92,12.34,2.69,19.27.77,4.09-1.13,19.58-10.21,24.03-12.97,9.5-5.91,16.86-15.01,29.11-13.7,7.92.85,11.93,3.7,21.59,3.9Z"/>
    <path class="cls-112" d="M809,893c1.33,1.41.77,1.92-1,1-2.2-5.67-4.48-14.87-8.02-19.47-.69-.9-1.01-.38-1.48.48-.65,1.18-5.45,12.77-5.46,13.5,0,1.44,4.74,8.8,5.94,10.01,1.97,1.99,6.07,2.68,6.83,5.17,1.73,5.72-3.96,23.16-7.83,27.8-7.43,8.9-15.76,3.63-18.79,5.71-.46.32-2.49,4.83-4.14,6.35-1.89,1.74-2.86,1.75-5.05,2.46l-5,1c-1.31.09-2.68,0-4,0-2.61,1-5.32.52-8,0-3.93-.94-4.27.27-6-4-.2-1.1-.11-1.44,1-1l2.13.66c.79-3.7,2.41-5.25,4.87-4.66-1.87-5.48,10.63-3.92,5,0,.35,1.56-.65,1.89-3,1-1.08,1.94-2.14,4.02-3,6l1.97.61c.15-2.28,3.89-2.9,5.03-.61.83-2.66,2.52-2.74,4.06-.63.14-1.64,1.46-1.43,3.94.63.13-1.52,1.28-2.81,3.44-3.85,1.78-3.79,3.97-5.84,6.56-6.15.08-2.72.17-3.07,2.54-4.59-3.18-5.37-2.93-8.88.75-10.54l1.65-4.52c-.5-4.61.31-8.7,2.43-12.28-1.17-3.37-.63-5.73,1.63-7.07.25-.84.59-.82,1,0,4.62.67,5.95,2.34,4,5,1.08,1.58.07,3.34-3.03,5.27,2.97,1.34,3.76,2.33,2.03,5.73-.9,1.57-1.59,3.03-2.09,4.36,1.6.34,1.63,1.55.09,3.64,2.58,1.67,2.62,8.21-1,8-9.71,9.8,2.44,7.42,8,2l-.77-2.36c3.57-6.76,6.93-13.99,7.77-21.64-2.3-.41-4.3-1.08-6-2-1.81-1.85-2.81-4.18-3-7-1.98-.87-3.98-1.21-6-1-1.75-.05-1.75-.71,0-2-1.45.03-1.78-1.3-1-4,2.84-1.91,2.71-3.01-.38-3.31.02-1.03.48-1.93,1.38-2.69l1.64-2.86c1.55.99,2.56.43,3.04-1.67-3.94-2.49-3.6-6.52,1.6-6.11,2.28-8.67,5.82-7.36,10.62,3.94,1.79,3.82,5.35,12.63,3.11,15.7Z"/>
    <path class="cls-18" d="M843,926c-2.28.73-4.71.74-7,0-20.78-4.4-21.31-14.72-28-32l1-1c2.5-1.74,3.75-.5,2,2,.69,2.46,1.35,4.8,2,7,1.63,2.67,3.71,5.14,6.22,7.42,1.56,8.9,14.97,17.58,22.78,12.58l-1.3-.53c.61-6.25-6.93-6.37-10.94-3.39-5.74-1.46-5.8-5.8-5.17-10.67-5.07,3.38-6.42-1.1-4.06-5.28.29-4.47-.42-8.99-2.13-13.55,1.12-.48,1.39-1.49,1.59-2.56-.34-1,0-1.34,1-1,2.23,6.2,5.58,22.5,10.06,26.43s11.73,2.44,17.2,1.33c4.75-.97,8.89-4.97,7.8,4.79-.66,5.9-8.23,7.43-13.06,8.45Z"/>
    <path class="cls-2" d="M706,897c1.92.36,2.13,2.01.62,4.94,5.7-.03,11.68-.04,17.52.13l1.86,1.93c1.18-.01,1.85.32,2,1-2.99.1-6.01-.03-9,0l-7,1c-2.62.05-6.68-.75-8.49,1.01-6.32,10.09-10.64,21.27-16.3,31.7-.81,1.49-2.14,2.55-2.98,4.02s-.82,3.57-1.78,5.22c-4.11,7.05-27.81,8.77-27.44-2.94.98-.52,1.64.48,2,3,.35-3.42,2.02-5.42,5-6,3.35-4.97,8.98,1.47,2,1,.03,1.96.7,2.62,2,2-1.47-1.87,3.17-5.75,5.18-4.57,3.89,2.28.99,3.81-2.18,4.57.95,1.39.64,2.93-.92,4.64,2.57-.5,4.54-.05,5.92,1.36l-.04-1.12c2.65-1.7,4.79-3.19,7.04-4.88l-1.32-1.7,4.65-6.9c-3.08-3.37-.01-6.53,3.91-6.88l7.34-15.06,2.41-.46c-1.6-1.76-1.43-2.66.51-2.7-.63-2.78-.58-2.82,1.99-3.55,2.21-6.53,1.64-13.64.43-20.36,4.07-5.23,7.9,7.15,5.08,9.61Z"/>
    <path class="cls-152" d="M658,888l1.62,2.03c-4.02,7.84-.56,6.88,5.46,5.05,1.79,1.63,3.76,2.6,5.92,2.92.9.18.86.52,0,1-.36,5.67.27,11.51,2,17,9.08-.16,4.93,6.09.87,10.19l-5.07,9.47c-.26,4.81-4.2,6.08-7.8,4.33-1.48,2.53-2.82,5.2-4,8-.82-.95-1.19-2.07-2-3,.18-5.64,3.76-5.61,4.02-6.7.5-2.11-.56-4.17,1.09-6.7,2.75-4.24,11.34-1.96,12.44-10.5.25-1.93-3.39-7.34-4.31-9.83-1.09-2.96-2.17-9.38-3.24-11.26l-6-1c-8.74-.09-6.14,1.01-12,5-.33.87-.66.87-1,0-.87-.28-.86-.62,0-1,.61-3.51,4.6-9.11,8-11-2.5-1.52.52-5.22,3-5,.46-.58.8-.24,1,1Z"/>
    <path class="cls-15" d="M758,899c3.02,3.12,5.67,4.46,7.96,4.01,1.86,4.73,4.2,6.06,7.04,3.99,1.16-5.03,5.3-1.65,3.86,2.76-1.13,3.44-2.8,4.52-6.41,4,1.73,9.04,1.41,24.29-11.9,20.75l-9.55,1.48c2.04,1.35,1.43,5.45-1,6l-1,1c-2.93-7.2,1.36-11.38,8.63-11.95,5.2-.41,8.51,2.83,11.11-4.81,3.55-10.43-2.03-14.39-7.61-21.9-.66-.88-.78-2.74-1.33-3.13-.46-.33-5.23-1.15-6.09-1.03-1.65.24-5.2,2.65-7.68,3.38-1.89.56-3.46.19-5.03.44l-5,1c-1.98.13-4.01-.07-6,0l-2-1,.9-2.06c8.53.25,16.48-1.41,23.85-4.97,2.13-.53,6.84-.43,7.24,2.02Z"/>
    <path class="cls-201" d="M611,906c2.17,2.84,4.17,4.17,6,4,.06-.15.84.15,1,0,2.72.14,3.13,1.21,1,3,2.96,5.9,12.95,2.27,14-3-1.8-1.05-.87-1.92,1-2,.38-2.77,2.92-4.13,5-2,1.68-.89,2.68-.89,3,0,.51,1.23-.49,1.89-3,2-5.16,3.6-8.19,11.57-16.37,10.73-1.13-.12-10.55-6.11-11.36-7.01-.94-1.03-.88-2.49-1.27-3.72-4.25-1.84-1.45-5.18,1-2Z"/>
    <path class="cls-6" d="M818,882c.77.02,1.09-.21,1-1,.39,1.09,1.46,2.5,2,4-.39.27-.72.61-1,1,.05,6.23-5.99,3.28-4-2-4.05-1.49-7.68-6.88-1.23-7.72l3.23,5.72Z"/>
    <path class="cls-7" d="M611,905c.75.29.74.63,0,1-3.38-.16-1.57.23-1,2-1.1-.08-2.06-.45-3-1-2.68.3-4.68-.37-6-2,.13-.47-.32-1.55.09-1.87,2.29-1.78,8.04,2.6,8.91-1.13-.11,2.02.86,2.37,1,3Z"/>
    <path class="cls-135" d="M647,904l2,5-10-1c.97-.68,1.97-1.42,3-2-.46-1.64,2.42-1.9,4-2,.25-.15.78.15,1,0Z"/>
    <path class="cls-124" d="M607,907l-7,1.99c.23-1.37.64-2.67,1-3.99,3.05-.72,4.09.88,6,2Z"/>
    <path class="cls-158" d="M761,947l-.65.81c-2.96,1.15-5.09-.27-7.35-.81,2.66,0,5.34,0,8,0Z"/>
    <path class="cls-65" d="M843,926c-.74.16-1.36,1.13-3.5,1.13s-2.76-.97-3.5-1.13h7Z"/>
    <path class="cls-136" d="M719,905c-1.32,1.76-4.81.96-7,1,1.31-1.74,4.82-.98,7-1Z"/>
    <path class="cls-186" d="M665,900c-1.87-.17-4.93.8-6-1,1.84.02,5.02-.72,6,1Z"/>
    <path class="cls-187" d="M739,904c-1.49.24-2.47.84-5,1l.69-.82,4.31-.18Z"/>
    <path class="cls-8" d="M703,839c-.62,1.59-4.38,1.59-5,0,1.66.03,3.35.06,5,0Z"/>
    <path class="cls-129" d="M770,946c-2.27.73-2.32.82-5,1l.69-.82,4.31-.18Z"/>
    <path class="cls-197" d="M657,851c4.73-1.35,1.78-8.47,2.07-8.87.12-.17,3.42-1.95,3.62-2,1.6-.39,4.64,4.62,7.3,3.87.67-3.18-3.14-2.01-4.51-3.99-1.82-2.63,3.64-1.08,4.07-1.09,1.35-.03,2.41-1.53,3.99-1.89,5.01-1.13,3.01,2.68,5.45,5.97l-.09,1.72c-3.52.59-5.82,1.69-6.91,3.28,1.41.29,1.08,1.29-1,3,1.7-.48,2.04-.15,1,1,1.85,5.65,4.51,8.52,9,3,.28-.87.62-.86,1,0,1.78.5,3.78,1.5,6,3,2.66,1.01,4.62-.38,3.74-3.31l2.26-.69c.28-.87.62-.86,1,0,.97.2.97.86,0,2,.61.39.28.72-1,1,1.47,3.45,3.58,5.94,7.94,6.14,1,.05,2.43-.72,1.06-1.14-1.78-.31-2.45-.98-2-2-1.22-1.55-.65-2.08,1-1,0-1.58.34-2.58,1-3,1.68,1.01,1.68-.66,0-5,.29-.97,1.63-1.64,4-2-1.94-.55-1.92-1.45,0-2-.87-.33-.87-.67,0-1,1.03-1.11.54-2.4-1.47-3.86l.47-1.14c3.28-.19,6.12-.78,9-1,.67,0,1.01.33,1,1,2.44,1.54,1.75,2.25-1,2-.31.85-.65.85-1,0-1.25,1.1-2.25,2.43-3,4l2.94,3.46c3.07.74,3.87,3.86,1.06,2.54-3.23,2.53-6.88,6.28-2,9,1.42-1.41,1.96-.82,1,1-1.83,3.44,6.72,2.67,8-1-.88-.25-.86-.58,0-1,.28-.87.62-.86,1,0,2.02-.32.4,2.32.4,2.17.05-1.5.84-4.28,2.6-3.17,2.86,7.58,1.26,1.12,0-1-.89-.25-.87-.58,0-1,1.01-1.46,1.01-2.13,0-2-.87,2.74-2.03,2.15-3.48-1.77-3.29-1.63-3.46-3.38-.52-5.23-1.45-1.81.07-2.7,2-2,4.36,1.56,6.03,1.56,5,0,2.45-2.11,4.78-2.44,7-1-.86-1.11-1.49-2.76-1-4-.87-.28-.86-.62,0-1-4.36-2.02,1.5-3.42,4-2,1.81-.84,6.01-1.31,5,1-.33.44-.66.44-1,0-.18.87-.52.84-1,0-2.88,1.56-3.41,5.83-1,8,1.91,1.15,3.51.95,4.79-.6l1.21.6c.99-2.88,1.99-3.21,3-1,.1-1.91,1.73-.47,2,.5.08.28-2.78-4.03-3-4.5-1.37-.36-1.65-1.9,0-2,.28-.87.62-.86,1,0,1.09.02,1.76.35,2,1,1.02.53,2.02,1.2,3,2l1,1c.24-2.84,2.01-2.41,3,0-.19-2.92,1.37-3.35,3-1,.13-1.32,1.13-.98,3,1,2.13,1.82,4.8,1.49,8-1,.23.26.56.26,1,0,7.68-3.78,3.39.11,7.52,1.01,1.11-3.17.65-1.21,3.48-1-3.66,5.23-2.01,7.18,4,7.98-2.93-3.82-6.84-6.05,1-5.98l-1.99,2.99c2.6,1.34,3.29-2.07,3.48-2,1.51.56,7.53,4.77,8.99,6.02,3.92,3.37,1.63,3.67,6.54,6.61,4.09,2.44,9.3,17.48,10.98,22.37-1.52-.04-3.43-5.73-5-4-.3.33,2.46,5.11,3,6q-2.77,1.6,0,0c.81,1.34,1.4,2.84,2.5,4,.31.18,1.1-1.44,1.5-2,.89,7.37,5.89,14.53,0,20.99,1.59.29,2.77-.78,3.46-2.04.64-1.19-.1-3.19,1.54-2.94-.46,2.08,1.59,4.1,1.74,5.63.2,2-1.9,5.91,1.22,7.91s3.09-1.59,3.6-1.61c2.96-.08,7.36,3.7,11.44,1.07.67,2.41-.96,4.98-.99,7-.09,2.23-2.49,2.03-3,0-2.48-3.84-4.15-3.84-5,0-5.85,1.34-13.84-6.41-14.7-12.44-2.1-1.21-2.54-2.39-1.3-3.56-.24-1.24-1.24-2.91-3-5-.21.87-.55.84-1,0-1.71-.91-3.2-3.88-3-6-.64-1.19-1.94-1.87-2-2-1.58-3.46-2.65-9.67-4.51-13.99-1.56-3.63-5.2-6.44-4.5-11l-3.99,8.51c-1.04,1.06-2.36-2.12-3-1.51-1.72,1.63,3.07,2.95,3.06,3.56-.02.96-3.69,9.63-4.58,4.38-.66,0-2.25.64-2.48,1.06q-1.39-1.34,0,0c-1,1.86.42,2.33,1.99.99-.09,3.4,1.33,5.82-2.99,5.01,1.86-5.65-5.18,4.41,0,6-.84,4.08-1.51,8.36-2.01,12.49-.27,2.26.39,4.79-.01,6.98-.36,1.93-3.68,4.77-.03,7.08.98.62,3.74-1.98,3,.89-.34,1.33-1.4,4.16-2.94,4.56.63-3.68-1.33-5.8-5-6-.79.83,2.71,7.7,2.74,8.51.05,1.24-3.97,3.53-4.75,4.48q-1.31-1.62,0,0c-3.13,3.86-4.24,9.29-10,10-2.22.33-3.22-1.34-3-5-.34.87-.67.87-1,0-2.35,1.46-3.28.62-3-2-.93.45-1.59.45-2,0,1.05-3.61-3.57-1.27-5,0-1.71,2.51-6.07,1.1-6-2,2.87-5.1,15.2-1.79,17.83-4.17.51-.46,2.09-6.9,2.22-8.28.36-3.86.56-8.59-2.05-11.54,4.15-1.23,7.34,2.04,8.04-3.48.3-2.41.32-3.28-2.04-1.53-.86-.33-.86-.67,0-1-1.64-1.39-2.32-2.18,0-3l-.38-1.75c-3.46-1.41,4.95-3.79,6.38-1.25,1.66-.61,3-1.28,4-2,.89-.89-.54-.79-4.3.29l-.7-2.29c-3.17,1.72-6.42,2.77-8-1.34l-1,.34c.88,2.82.22,3.82-2,3l-1.34-.59c.57-1.98.95-6.38-1.66-5.41-.32.9-.65.9-1,0-.97,1.33-2.48,2.27-4,3-.27.86-.6.84-1,0-1.22-2.76-2.22-3.76-3-3-1.67,2.1-2.18,1.67-2-1l-1.21.1c-1.93-5.03-4.67-5.05-8.79-2.1-.3,1.92-1.09,1.81-2,0-1.28,2.02-2.63,1.95-4,0-3.69.89-6.36.56-8-1-.26,2.5-1.6,2.84-4,1-3.08-.82-4.85-.36-6.7,2.4l-1.3-.4c-.28.87-.62.86-1,0,.34-4.41.21-5.14-3-8,2.5-2.64,5.17-4.97,8-7,1,2.38,2.07.32,0-1-.71,1.06-1.73,2.34-3,2-1.29.03-1.72-.84-2-2-1.66-1.16-1.07-2.06,1-2-2.58-6.12-9.06-4.35-10.69,1.84l-1.31-.84c-1.67-1.8-3.34-2.8-5-3-1.21.6-2.88.6-5,0-.84.12-1.5-.88-2-3-1.62,1.95-2.62,4.29-3,7,.9.24.88.58,0,1-.56,1.91-1.44,1.92-2,0-.37,1.76-8.24-1.62-8-1.99s7.56,3.01,7,3.99c1.51,1.57-2.95,1.74-3.74,1.68-.5-.03,8.25-3.14,2.74,2.32,2.8.35,2.41.83,0,2,2.7.96,1.35,3.69-1,4-.93,1.01-1.6.34-2-2-.62.89-1.28.89-2,0l-1.09.5c-1.31-1.96-3.57-3.62-5.91-3.5.59,2.55-.17,2.83-2,1-1.42,1.2-1.94.63-1-1-2.18,1.83-3.52,1.5-4-1l-1.2,1.29c.3,3.81,0,4.44-3.8,4.71-1.13,2.68-3.44,1.34-4-1-.67-.62-.67-1.33,0-2,.63-1.18,1.65-1.46,3-1q1.82.6,0,0c-1.86-.18-1.13-1.28.03-2.45,2.5-2.51-1.43,3.11-3.03,2.45-.62-2.17-1.88-6.79,0-8-1.29-1.48-.71-2,1-1,.71-3.22,2.04-2.89,4,1,.32-.87.65-.86,1,0,4.22,1.13,6.16-1.22,7-5-.92-.32-.92-.65,0-1,1.13-2.49-.01-3.94-3-4-.18.87-.52.83-1,0-2.02.29-3.86,1.23-5.51,2.84-.52-5.62-3.12-8.38-7.81-8.28l.33-2.56c-.89-2.72,1.19-2.66,3-1,.28-.87.62-.86,1,0,2.53.8,2.53.47,0-1-1.5-.58-3.84-2.86-2-4-.77-1.06-.25-1.46,1-1Z"/>
    <path class="cls-154" d="M638,864c1.04-.09,2.04-.42,3-1,2.99-2.57,2.95.67,1.69,3.49-.05.12-.28-2.51,1.31-1.49.3-.48.63-.47,1,0,1.24.18,2.22.57,2,2,1.91-.68,2.58-.34,2,1,3.04.39,5.66,2.8,5,6,1.11.16,1.78.82,2,2,1.83,2.11,1.87,7.96,1,11-.32,2.02-2.65,4.3-3,5-.3.6-.63.59-1,0-1.72.37-2.72-.63-3-3-.88-.25-.86-.58,0-1,.73-1.12.06-1.45-2-1,1.2,1.5.68,2.02-1,1-.61,1.18-.94,2.52-1,4,1.72,2.23.68,3.77-2,3-.28.87-.62.86-1,0-2.95.85-4.81.14-3-3-2.19.11-2.14-1.47,0-2-1.93-1-1.1-2.53,1-2,.69-1.63.69-2.63,0-3-1.32,3.04-3.74-.05-2-2,.18-1.33-.82-1.67-3-1-.26,1.88-1.56,1.82-2,0-2.8-1.17-2.07-3.16,1-3-.16-.79-.83-1.12-2-1,.23,1.91-1.5,3.81-3,5,.57.75.23,2.09-1,4,.85.3.85.64,0,1-.35,1.09-.68,2.09-1,3,5.53,6.04-4.03,4.55-7.89,3.88-2.29.64-4,.35-5.11-.88-.77-3.59-.83-7.53,0-11-.7-1.19-1.7-2.19-3-3,.32-2.44.14-7.95,1-10-1.35-2.67.8-3.8,3-2,.9-.08,1.58.23,2,1,.73.37,1.39.71,2,1,1.36-.87,2.7-1.2,4-1,1.4-1.06,2-.58,1,1,2.68-.75,2.93.02,1,2,1.57.85,1.24,2.19-1,4,2.14.81,2.21,2.06.2,3.75l.8.25c.66.14,1.33-.19,2-1-1.8-2.35,1.08-3.29,3.22-3.95l-1.22-1.05c-.73-.11-1.18-.21-1-1-.66-.84-.33-2.18,1-4-2.68-3.31,2.66-5.62,3-1,1.31-.45,1.98-1.12,2-2-3.31.56-3.98-.11-2-2,1.12-.52,2.12-1.19,3-2,1.7-2.87,4.11-.39,2,2Z"/>
    <path class="cls-202" d="M679,843c1.74-1.48-.04-2.33-.02-4.49,2.07-2.55,2.52,2.49,3.52,2.47,1.52-1.54,1.85-2.78,3.48-.49l-3.98,3.49c1.73.07,3.12.46,4.48-1.02.82-.89.02-2.9,2.51-1.97.19,1.24-.26,2.9,0,4,1.4-1.27,2.01-.65,1,1,4.46,3.87,6.85-.79,7-5,1.99-.06,4.01.09,6,0,2.26.61,5.7,2.87,4,5,.07.32-.08.69,0,1-1.31,1.2-1.31,1.86,0,2,.03.14,1.26.18,1,.99-1.55.19-3.6.4-5,1.01.59,1.82.59,3.49,0,5,.45,1.63-.35,2.01-1,3-2.18-1.62-2.52-1.29-1,1,.76.53,1.36,1.33,2,2-2.65,3.38-7.76-1.34-9-5,.12-.68.76-.74,1-1,2.15-3.53,2.15-4.2,0-2h-1l-1.84-.25c.96,3.04-1.79,6.39-4.16,4.25-4.92-.04-5.21-6.98-5.05-6.55.18.49-.03,3.71-.95,3.55h-1c-4.28,5.58-7.47,2.54-9-3-.2-.23-.91-.23-1-1,.26-1.21,4-3.71,4.56-3.48.19.08-3.39,2.06-3.56.48.02-.09-1.32-.53-.1-1.46,1.9-1.44,4.87-1.65,7.1-3.54Z"/>
    <path class="cls-44" d="M633,891c1.1-.49,2.43-.62,3,1,.33-.91.67-.92,1,0,1.79-1.37,2.34-.82,1,1,5.6,4.89-4.67,12.03-11,10,1.03,1.32.52,1.81-1,1-1.57.92-2.57.92-3,0-.4-.1-.96-.93-2.41-1.05-3.11-.25-6.45.28-9.59.04,1.36-2.59,2.78-6.09,3-8.99.28-.87.62-.86,1,0,4.16-2.21,8.73-.58,13,0-.08-.97.14-2.05,0-3,1.41-.42,3.07-.42,5,0Z"/>
    <path class="cls-3" d="M653,851c2.34-.51,3.34-.18,3,1,.18.13,1.32,2.9,2,4,.89.28.88.61,0,1h-1c-4.23-1.98-5.56-1.65-4,1,3.31,3.24-.38,3.97-3.84,4.41l-5.16,2.59c-.46.27-.81,2.15-1.99,2-.09-1.26.53-3.67-1.01-4-.26,1.36-1.79,1.31-3,1-.72-.6-.9-2.01-2-2-.58.92-1.58,1.59-3,2,.03,1.05,1.3,1.29,2,2-.35.86-1.02,1.52-2,2-.29-.01-.87-.76-1.54-.68-1.06.14-1.11,1.39-1.46,1.68-.05,1.41-1.56,3.3-3,3-.28.87-.62.86-1,0,0-.3-.72-1.59-1-2,.44-.83.1-1.17-1-1-2.45,1.36-2.46.79-4,1-1.57-1.42,1.35-2.38,3-2-1.13-1.01-.43-1.95,1-2-.03-.92-1.13-2.88-1.01-2.98.78-.69,10.09-4.27,12.01-5.02q1.13,1.36,0,0c1.39-.54,1.87-2.58,5-1.01l-.99-1.94c2.27-.19,3.96-1.84,5.97-2.59,1.34-.5,3.4-.21,3.98-.53.13-.07-1.27-2.66.55-2.94,1.2-.19,2.39,1.39,3.48,2Z"/>
    <path class="cls-218" d="M739,838c.87.28.86.62,0,1-2.22-.03-4.68-.5-4,2-1.22.4-2.55.74-4,1q-1.64,3.01,0,0c.42-1.82,3.58-.83,3,1,.79.39,1.46,1.39,2,3-.32,1.91-5.2.7-7,1-.91.97-2.58.97-5,0-.54.44-.88,1.2-2,2-.94.72-1.61.38-2-1-2.62-.6-2.55-1.18,0-2,1.17-2.42-1.62-3.29-3.71-3.76l-.29-1.24c-.42-.2-.75-.61-1-1,3.99-.3,7.98-.7,12-1,2.26-.74,4.59-1.07,7-1,1.66-.08,3.34.06,5,0Z"/>
    <path class="cls-115" d="M739,838c6.62-.23,13.9-.22,20.54,0,1.93.06,4.01-1.02,3.46,2,1.07,1.38.5,1.86-1,1,1.15,1.72,1.15,2.72,0,3-.16,0-2.33.89-3,1-1.12-1.3-2.12-1.3-3,0-.14.01-.21,1.26-.99,1-.07-.65.07-1.35-.01-2-1.42-.35-2.42-1.02-3-2-.84-.07-1.82.04-2-1,.91-1.26.58-1.26-1,0-.36,1.48-.16.71,0,2,1.37.45,1.93,2.91,1,4-.16,0-2.56.83-3,1l-.96-.96c1.31-3.05-.05-4.85-2.04-7.04l-.69-.81c-1.43-.39-2.88-.17-4.31-.19v-1Z"/>
    <path class="cls-16" d="M626,904c1.24,1.49.68,2.17-.7,3.04,5.16-1.84,8.06-1.52,8.7.96-.18.6-1,1.54-1,2,.71,1.4-.67,3.02-2,2-3.67,2.75-7.96,3.27-12,1,0-.56-1.12-2.04-1-3,1.98-1.82,3.53-3.78,5-6,.83.2,2.06-.14,3,0Z"/>
    <path class="cls-105" d="M613,870l-3.99-4.5c2.71-4.26,7.98-.38,12.48-1.5l-1.5,2c.06,1.14-1.1,1.55-2,1,.09,1.33-.92,1.83-2,1-.61.44-2.93,1.83-3,2Z"/>
    <path class="cls-74" d="M768,839c.78.47,1.78.81,3,1,1.31.39,2.66.76,4,1.01l-1,2.99s.13.98-.5.98c-.6-.18-.43-.55-.5-.98-3.56,2.71-6.23,3.04-8,1-1.77-.87-2.59-2.1-3-4,.17-.73.49-.72,1-1,.94-.52,3.81-1,5-1Z"/>
    <path class="cls-35" d="M695,841c4.43,3.04-1.34,9.27-5,5-.15-.27-.89-.55-1-1,1.12-.81,1.04-2.83,1.97-3.55,1.07-.83,2.77-.38,4.03-.45Z"/>
    <path class="cls-80" d="M615,894h-1c.02-.32.02-.68,0-1-1.5-.9-2.18-3.29-2-5-.78-1.5.22-3.17,3-5,2.22,4.55,1.37,6.28,0,11Z"/>
    <path class="cls-169" d="M653,851l2.49-1-3.5-2.99c3.31,1.02,3.7-2.73,4.51-3.01,2.81-.99.74,5.96.49,7.01-.14.6-.29,1.11-1,1-.13-.09-1.47-.14-3-1Z"/>
    <path class="cls-71" d="M617,910c-.26.61.19,2.13,0,3-4.16-1.43-4.73-3.32-5.99-7-.1-.28.08-.67,0-1,2.83.83,4.22,2.86,6,5Z"/>
    <path class="cls-45" d="M697,841c2.74,3.84-1.55,6.38-4.52,7.81-1.18-.58-1.87-1.71-2.48-2.81,4.74,1.99,6.42-.44,5-5,.66-.04,1.34.02,2,0Z"/>
    <path class="cls-12" d="M615,883v1.35c-1.59,1-2.57,1.65-3,3.65-.28.87-.62.86-1,0-.02-.27-.02-3.58,0-4,1.98-1.49,1.98-1.82,0-1,.14-1.77.96-2.68,1-3,2.94-.24,2.32,1.61,3,3Z"/>
    <path class="cls-147" d="M706,841c1.22,2.1,3.58,3.16,2.99,6l-1.99-1c-.78-3.3-2.32-2.49-4-5,1-.04,2.01.06,3,0Z"/>
    <path class="cls-179" d="M771,840c-3.37-.51-.94,1.08-1.52,2-2.07,3.3-6.24-.59-1.48-3,2.08,0,2.17.75,3,1Z"/>
    <path class="cls-19" d="M614,893c-2.77.67-2.79-2.74-3-5h1c1.45,1.75,1.88,2.75,2,5Z"/>
    <path class="cls-88" d="M620,866c1.16-.23,2.74.16,4,0,.05,1.41-.1,1.26-1,2-1.65.33-2.98.33-4,0-1.4,1.12-1.94.63-1-1,.48-.2.66-.73,2-1Z"/>
    <path class="cls-197" d="M734,838c-1.29.06-4.57.82-7,1,1.37-1.92,4.82-.74,7-1Z"/>
    <path class="cls-217" d="M611,883c1.9-4.63,5.77,2.21,0,1,.02-.33-.03-.67,0-1Z"/>
    <path class="cls-33" d="M797,930c-3.7,3.69-7.89,5.12-13.11,4.35l5.11-6.35c1.09-3.23.25-5.81,1-8-.06-2.33.78-7.2,4-6,1.96.67,3.96,1,6,1,.12-1.59,1.01-9.48,2.52-9.4.5.02.99.19,1.48.4.73,7.5-2.45,18-7,24Z"/>
    <path class="cls-164" d="M804,906l-.8.67c-.02,3.65-.43,5.88-3.2,8.33-2.05-.35-4.05-.68-6-1-2.18,1.65.46,2.99-.48,5.01-1.47,3.14-1.02-1.08-2.51-1,.22.9-.83,1.48-1.01,1.99v-1.36c-2.37-.83-2.51-2.56-2.06-5.05.17-.95,2.93-.75,4.06-1.59l.65-2.11c-3.3-3.25,3.3-7.96,2.35-2.89,1.52.96,2.61,1.09,3-1-2.97-.17-3-1.87,0-2,4.47-.97,5.41-4.06,6,2Z"/>
    <path class="cls-73" d="M798,904c0,.26-.87-.06,0,2,.21,1.83-1.89,2.55-3,1-.07,0-.38-1.17-.98-1.01-.2,1.94-.41,4.82-2.02,6.01,1.07-5.04-2.8-2.16-4.01-3-.21-.15-.12-4.13.48-5.1.22-.36,2.4-.12,4.53-2.9-.87-2.56-.21-3.89,2-4,.55.75,2.85,1.68,3.57,3,.1.19-.55,2.42-.57,4Z"/>
    <path class="cls-166" d="M755,938c-1.58,1.4-3.12,4.82-3.01,7-2.84.32-3.6-.22-3.99-3-.28-2.01-.01-4.2,1-6l6,2Z"/>
    <path class="cls-189" d="M789,896c1.6-.67,2.38-7.68,3.99-5,.45.75,1.06,4.7,2.01,6,.11,2-1.02,2.72-2,4,.86-3.02-3.52-3.05-3.01,0h-.98c-.14-1.64.16-3.36,0-5Z"/>
    <path class="cls-93" d="M765,940c.06.71.42.64,1,0,1.63,1.23.3,4.18,3,5-2.49.31-5.41-.18-8,0-4.62.15-2.98-7.04,1-7,1.35.3,2.04,1.25,3,2Z"/>
    <path class="cls-87" d="M760,938c.61-.03,1.49-.11,2,0-3.21,1.25-1.69,4.31-1,7-1.37.1-6.53,2.71-7,0,.53-2.54,1.79-4.05,3.76-5.62.09-.07.1,1.27-.76-.38,1.4-.91,1.14-.91,3-1Z"/>
    <path class="cls-185" d="M789,928c-1.01,3.02-2.24,3.51-4,5.99l5.83-.66,6.17-3.33c-4.63,6.11-7.56,5.21-15,4.99l7-6.99Z"/>
    <path class="cls-42" d="M788,890c-.55,1.83-.22,3.16,1,4,.06.66-.07,1.34,0,2-.18.07-.7.03-1,0-7.04-.65.15-10.01.99-9,.46,1.48-.68,2.06-.99,3Z"/>
    <path class="cls-64" d="M757,939c5.48.25-3.51,1.54-1,5.99h-2c-.43-2.48.99-4.69,3-5.99Z"/>
    <path class="cls-172" d="M789,894l-1.99,1c-.76-2.34.54-3.62.99-5-.11,1.39.89,2.71,1,4Z"/>
    <path class="cls-36" d="M818,906c5.68,8.15,4.81,12.85,16,16,.84-2.26,4-2.04,5,0,.89-.17,2.04.11,3,0,0,.43,1.4,1.89,1,2.99-4.84.22-10.94-.82-15.29-3.01-.8-.41-4.18-3.99-5.06-4.68-.61-.48-1.74-.08-2.69-.98-2.41-2.29-.53-5.29-1.36-6.38-.78-1.01-2.79-.49-3.66-1.61-1.39-1.77-1.3-4.81-1.93-6.34-.62-1.69-.56-1.97,1-1,.24-.08.66,0,1,0,1.32,1.18,2.63,3.29,3,5Z"/>
    <path class="cls-162" d="M855,913c1.29,6.75-3.52,10.67-9.99,10,0-6.25,3.49-10.43,9.99-10Z"/>
    <path class="cls-119" d="M814,901c-.23.07-.59.82-1,1-.63-1.53-4.43-5.37-2-7,1.01,1.88,2.53,3.59,3,6Z"/>
    <path class="cls-148" d="M696,911c2.25.65,2.92,1.65,2,3-1.59,3.43-6.66,14.97-8.53,17.04-.77.85-3.46.09-4.46,2.48-.77,1.82,1.67,1.41,1.81,1.62.73,1.09-4.64,7.68-5.82,9.87-1.59,3.11-5.93,2.03-7-1-.06,2.93-3.91,4.05-5,1,.77-.82,1.93-.92,1.99-1.02,2.06-3.49-3.42-1.11-4.99,1.02-1.89,2.16-3.44.41-2-2,.64-.53,2.04-.78,2-1.99l-4,.99c-2.62.57-2.73.05-1-2,1.26-.37,3.84-.08,4.78-1.23.55-.68.6-2.88,1.32-4.15,1.9-3.34,4.1-8.14,6.03-11.02,1.44-2.15,4.23-1.35,2.86-6.59l-1.98,2.99c-.02-1.3-1.04-2.78-1.01-3.99-2.04-3.94-2.04-6.94,0-9,2.11-3.1,3.78-3.76,5-2,1.08,1.5,1.75,2.17,2,2l.82-.99c2.72,1.89,4.56,1.68,7.18-.01,2.3-3.06,3.97-3.72,5-2,.8,1.25,2.06,3.79,2.9,5.68.17.38.16.84.1,1.32Z"/>
    <path class="cls-143" d="M717,873c-.29.66-.63,1.38-1,2,1.92,2.67-5.17,8.6-7,5,1.38,2.52,5.36.28,7.5-3.31l1.5.31c2.17-2.2,2.74-1.84,3-2,.87.28.86.62,0,1-2.69,3.11-4.02,5.53-8,7-.27.86-.94,1.53-2,2,8.2-3.67,5.63,11.4-2,9-2.46-2.52-.43-6.86,2-9-2.34,2.26-4.43,6.14-2,9,.87.28.86.62,0,1,.61,2.79-.52,3.63-3,2,.26-2.66-.18-9.08-4-8.99,5.29,8.94-.24,17.87-4,25.99-1.03-2.56-7.06-2.48-2-3,.22-1.39,1.25-.94,1.15-.85-.71.63-2.69-1.31-1.15-2.15-.85-2.81,1.41-4.76,3-2,.68,3.41,2.84-5.07-2-4-1.37,1.44-2.71,2.11-4,2-1.64.11-3.31.44-5,1-1.09,2.18-3.75,2.84-8,2-.09,0-.39.96-.93,1-.04-1.12-.67-2.01-1.07-3-2.35.78-4.02.78-5,0-2.6.47-2.92-4.02-2-6-.06-.32.05-.67,0-1-3.06-.67-2.61-3.95,0-5,1.99-.13,1.16-.7-1-1-2.39,1.84-5.55-1.61-4-4-1.09.05-.57-5,1-6,1.22.03,2.87.34,4,1-.46.99-.08,1.28,1,1,.38-.32,1.46-.81,2-1,3.38.16,5.55,1.95,6.17,5.21,1.19,6.26-2.04,1.02.83-2.21l.5-.98c.41.46,1.02.65,1.5.98.73,2.37,1.4,3.04,2,2-.38-1.46.86-2.99,1-4,.92-.84.99-1.52,0-2-.01-.09-1.14-.21-.89-.86l1.89-1.14-3.99-1c1.6,0,2.75.42,4-1.01-2.35-1.52-1.65-1.81,1-2,.67.02,1.33-.01,2,0,1.23-1.04,1.9-.04,2,3,.86-1.96,2.82.61,2.66.86-.31.47-1.75-.83.34-.86.25-.88.58-.86,1,0,1.64-2.07,2.06-1.38,2,1,.86.3.85.63,0,1,.38,1.71,2,1.15,4.86-1.67l1.14.67c.27-2.69,1.53-3.45,3-1,.56-.54,1.23-.2,2,1-7.72-6.01,4.05-16.46,8-7Z"/>
    <path class="cls-204" d="M725,889c6.87.29,4.73,6.88-1,8q-3.53,1.17,0,0l3.67-1.76c1.43-2.54,3.08-5.28,3.33-1.24,2.75-2.84,6.08-4.5,10-5,.66.04,1.34,0,2,0,.86-1.02,1.42-1.28,2,0,1.41-.18,2.08.15,2,1,.81,1.31,1.48,1.31,2,0,.3-.52.64-.51,1,0,.53-.28.96-.48,1.07-.37,2.56,2.71-.06,3.2.74,1.9.19-.31.65-.44,1.2-.53.35.41,1.72.62,2,1,1.63-1.38,2.38,1.36,2,3,2.75.37,3.19,2.29,1,4-2.39.22-5.17-.4-7.47.03-1.9.35-3.18,2.05-5.28,2.72-4.41,1.41-14.49,1.97-19.25,2.25-7.23.43-15.13-1.1-21.99,1-.55-.62,1.88-6.88,1.99-8,.97-.42,2.11-1.78,3-2,2.75-.52,5.08-1.86,7-4h1l1.34.19c1.77-2.4,3.78-3.36,6.66-2.19Z"/>
    <path class="cls-111" d="M674,944c4.05.79,2.44,5.08,0,7-7.04,1.59-11.36.76-5-6,1.65.25,3.61-1.02,5-1Z"/>
    <path class="cls-183" d="M666,945c-1.05,1.42-1.17,10.79-5.05,5.55-2.86-3.87.55-5.48,3.05-7.55l2,2Z"/>
    <path class="cls-77" d="M681,945c-.5.94-.26,2.75-1.24,3.75-.88.9-4.32,1.92-5.76,2.25-1.62-2.26,1.77-4.23,0-7,2.37.04,4.58,1.27,7,1Z"/>
    <path class="cls-10" d="M661,940c.14.56,1.06,1.7,1,2-.08.41-4.09,5.63-4.5,6.98-.62.04-.42-.9-.5-.98-.17-4.67-.71-6.62,4-8Z"/>
    <path class="cls-145" d="M650,888c-.06.32.04.67,0,1,.5,1.66,1.38,2.44,3,3h1c-2.02,4.08-3.62,8.71-8,11-.61,1.2-3.03,2.13-4,1-1.63.78-1.93.56-1-1-.62-.87-1.29-1.54-2-2,2.27,4.73-13.19,7.62-12,2,5.39.21,11.98-4.07,11-10-.45-2.05.67-2.53,2-1,.41,1.27,2.14,2.01,3,3-1.32,1.34-.99,1.34,1,0,.36-.86,1.38-2.17,2-3-.65-1.16-.32-2.5,1-4,.4-.3.77-.88,1-1,1.36-.76,2.5-.65,2,1Z"/>
    <path class="cls-56" d="M662,888c2.08-.77,3.41-.77,4,0,.27.08,3.3,3.44,4,4,.95-.26,1.29.07,1,1,.15,1.61-.22,3.44,0,5l-3.5,3-3.01-4.99c-1.14,3.99-7.13,1.63-10.49.99,2.09-2.76,3.42-5.53,4-8.99v-1c1.56-.37,2.83.72,4,1Z"/>
    <path class="cls-206" d="M673,905c2.22.08,1.74.83,0,2,.63,4.8.11,4.97,0,9-3.86-4.17-4.02-7.68-3.49-12.98.16-1.6-.62-2.74,1.49-4.02.24,1.26,1.6,3.85,2,6Z"/>
    <path class="cls-131" d="M668,930.01c-1.24,1.82-1.91,4.75-3.13,6.36-3.47,4.56-5.61-.18-2.94-3.94.81-1.14,5.15-3.2,6.07-2.42Z"/>
    <path class="cls-182" d="M658,876c-.35,2.44.24,5.45,0,8,.86.33.86.67,0,1-.05.66.07,1.35,0,2-.03.33.05.68,0,1l-1-1c.48-3.02-.75-7.57-1-11,.56-1.9,1.43-1.91,2,0Z"/>
    <path class="cls-95" d="M646,904c-1.82,1.09-2.93,1.4-4,2h-3c-.99-2.92.53-2.8,3-2,.63-.32,2.45-.19,4-1v1Z"/>
    <path class="cls-170" d="M764,892c2.63-.63,2.46,3.59,1.5,5.68l1.5.32c.76-.92,1.14-2.14,2-3,2.63,2.79,5.63,3.12,9,1,1.87.42,3.65,1.63,6.01,1.02-.01.58-1,.87-1.01.98-.91.8-2.24,1.47-4,2-.07,0-.41.7-1.27.71-1.36.03-3.1-1.14-4.74-.71,1.36,1.6.03,2.62,0,2.99-1.23-.06-1.23.94,0,3-.06.32.06.68,0,1-1.25,6.22-8.21,2.31-7-3.01l-2.49,3c-2.44-2.25-3.98-5.12-5.5-8-.84-1.58-.65-3.27-1-4,.28-.87.62-.86,1,0,.32.06.69-.09,1,0,1.12-1.24,2.45-2.24,4-3,.23.03.98.04,1,0Z"/>
    <path class="cls-133" d="M639,901c1.24.29,1.91.96,2,2,.27.1.61.79,1,1-.98.51-2.2,1.66-3,2-1.89.8-2.64,1.52-5,2-.06.01-.42-.53-1.07-.44-1.69.25-8.27,1.99-8.92,1.42-.11-.1-.83-2.6-.55-2.99.26-.36,1.97-1.64,2.53-2,.17-.11.39-1.08,1-1,.16.02.99,1.18,2.42,1.06,3.1-.26,8.04-.67,9.58-3.06Z"/>
    <path class="cls-68" d="M633,910c0,.12.97.62.81,1.33-.64,3.03-8.15,6.08-11.07,5.51-.44-.09-4.57-1.7-4.74-1.89-.58-.64,1-1.84,1-1.95,4.14,2.27,8.28,1.73,12-1,.64-.58,1.74-.83,2-2Z"/>
    <path class="cls-149" d="M713,848c2.81,1.7,5.81,2.04,9,1,.03.87-.96,1.96-.46,3.01.71,1.52,2.76,3.98,4.46,3.99,2.1.29,1.81,1.09,0,2-.05.32.01.67,0,1,.88.19.84.52,0,1l-2.5,4c-.53-.38-.4-2.09-.5-3-1.24-6.03-1.58-6.03-1,0,.05.32-.03.67,0,1-1.18,3.27-7.42,4.85-8,1-.31-.14-.65-.92-1-1-5.5-.99-1.19-6.96,2-9,.03-.06,1.17.14,1.01-.99-2.88.84-4.7-2.49-5.01-5.01,1.91-2.1,1.95-1.72,2,1Z"/>
    <path class="cls-29" d="M773,872c1.03,1.55,2.21,5.08,2,7-.51.23-.54,2.78-1.5,3.01-.74-.02-.41-1.72-1.5-3.01-6.31,6.78-10.25,3.33-12-4-.67-.05-1.13-.27-1-1-.88-.27-.86-.61,0-1,.43-1.38,1.64-1.51,2-2,4.09-2.39,6.85-1.74,8.99,2.83.07.14-1.29-2.53,0-2.83,2.62.15,1.38-1.88,2.99-2,.07.99-.08,2.01,0,3Z"/>
    <path class="cls-115" d="M695,871c2.99.9,4.65.9,5,0,.1.01.65-1.26,1.91-.57,1.16.64,2.41,2.37,3.09,3.57,1.68-.1,1.99,3.27,2,5-1.11.87-2.05-.55-2.2,1.8-.49.22-.7-.82-.8-.8-1.29-.41-2.93.25-4.92,2l-1.08-1c.16-.1-.16-.85,0-1,.14-1.79-.58-2-2-1-.32-.05-.67.04-1,0-1.04-.39-2.04-.39-3,0-.83-.85-1.3-2.03-2-3-.15-.21.16-.91,0-1,.36-2.7,1.36-5.04,3-7,.12,0,.48-.92.98-1.02-.44,1.38,1,3.27,1.02,4.02Z"/>
    <path class="cls-113" d="M654,858c2.13,2.86,3.87,1.41,5.53,2.98,1.33,1.25,1.51,4.24,1.48,6.02,1.78.59,2.27-1.43,3.68-1.79,1.11-.29,2.02.81,2.32.8.63,1.62-.11,3.22-2.21,4.8.05,2.44-.54,4.17-1.79,5.2-1.33-.3-2.05.5-2.1-1.91l-1.9.91c-2.2-1.13-1-3.46,1-4-1.25-7.52-2.2-9.1-10-8-.99,1.8-3.29,3.48-5,2-.27.14-.76-.14-1,0,1.5-3.35,6.09-1.6,5.01-6,1.22-.9.84,3.9,2.98,1.99.12-.11.46-2.11,1.01-3-3.5-2.29,3.6-3.73,1,0Z"/>
    <path class="cls-116" d="M660,871c-.08.81-.79,2.49-1,4-.04.3-.96.75-1,1-.66-.04-1.34.06-2,0-1.51-.53-1.46-2.47,0-3,.95-1.4.95-2.74,0-4-1.98,1.64-4.32,1.3-7-1-1.39-.19-1.54-.81-2-1-.65-1.84,2.29-3.4,4-3,6.23-4.13,8.31,1.38,9,7Z"/>
    <path class="cls-210" d="M746,873c.11,0,1.46-1.61,1.99-1,.45.52-.91,4.02,1.01,4,.53-2.62,1.53-3.95,3-4,.27.11.68-.09,1,0,2.26-1.14,6.8,1.18,4,3-.35.38-.65,1.4-1,2,2.19,1.24-1.7,5.5-3,3-.03-.04-.97-.04-1,0-1.62.08-2.29.74-2,2-1.34,0-3.37-.98-4-1-1.01-1.77-.51-5.82,0-8Z"/>
    <path class="cls-25" d="M694,854c.02.95-1.92,4.98-2.96,5.54-3.78,2.02-2.57-.45-3.04-1.54.67-.05,1.93-1.22,3-1.01,1.03-3.32-2.99-1.24-3.01-2.5-.04-3.4,4.45-.48,3-2.98s-11.12-.76-6.01-4.05c2.9-1.86,8.96,3.86,9.02,6.53Z"/>
    <path class="cls-11" d="M746,853c1.6,1.1,3.26,2.1,5,3,1.47.19,1.47,1.66,0,2h-1c-.71,2.53-1.71,4.53-3,6-.41.29-.75.87-1,1,.42,1.95-2.49,3.1-3,1,.08-.06.05-1.64,0-2-3.11-1.16-2.69-8.87,1-10,.37-.1.89-.91,2-1Z"/>
    <path class="cls-139" d="M671,870c-.07.11-.05.74,0,1,.31,3.49-4.35,6.96-7,5-.07-.12-.66.08-1,0-1.65-5-.06-7.12,4-10,.32-.02.68-.03,1,0,2.64-.42,4.87,1.61,3,4Z"/>
    <path class="cls-17" d="M753,854c1.69-1.96,6.41-1.22,5,2,1.41,1.33,2.07,3.33,2,6-.01.06,1.12.46.84.78-.12.13-2.67,2.17-2.84,2.22-1.12-.99-2.59-1.48-5-1-.09,0-.75,2.03-1.02.48-.53-1.02,1-2.23,1.02-2.48.04-1.28,1.17-1.77,2.02-1.14.38.28-3.79-2.61-4.02-4.86-1.84-.11-2.58-.79-1-2,2.29-4.16,1.84-.47,3,0Z"/>
    <path class="cls-101" d="M790,858c.49-.57,1.07-1.2,1.01-1.99h.98s.06,1.95.06,1.95c.75.07,1.48-.91,1.95-.96,1.06,1.11,1.7,2.87,0,3h-1c.44,5.36-1.23,8.69-5,10-4.36-.84-.13-2.68,0-3-1.56-.73-1.84-1.64,0-2q1.92-1.24,0,0c-1.7,1.53-4.79-1.86-2-3,.17-.03,1.49-1.56,2-2-.55-1.55.5-3.18,2-2Z"/>
    <path class="cls-42" d="M760,875c.1,0,.94-1.37,1.52-.09,1.16,2.59-.61,5.55,3.46,6.67,4.69,1.28,4.48-5.57,7.02-2.58.88,5.3-5.84,4.56-9.05,3.55-3.83-1.21-3.01-4.14-2.95-7.55Z"/>
    <path class="cls-47" d="M741,889l-1.5,5-2-3.98c-2.46,2.4-5.19,4.01-4.51,7.98l-1.99-4c-1.2-1.27-.87-1.94,1-2-2.66-3.16,2.14-3.6,5-3,3.61-1.2,2.71-.08,4,0Z"/>
    <path class="cls-55" d="M717,873c-2.02.44-3.52-2.68-4.48-2.75-1.68-.11-5.88,2.61-5.56,5.2.03.26,1.83,4.41,2.04,4.55-.35-.4-1.76-.63-2-1-1.07-1.68-1.33-3.81-2-5,2.12-.62,1.74-3.2,3.01-4.49,2.08-2.13,7.96-1.96,9.55.46,1.34,2.05-.24,2.31-.55,3.04Z"/>
    <path class="cls-29" d="M779,866c.21-.01,1.76-1.63,3-.99.5,1.45-1.76.86-2,1.99,2.42,1.72,3,5.97,0,7h-1c-1.54-1.7-2.21-1.7-2,0,.54,1.89-.02,1.9,0,2-1.4,4.21-4.74-1.84-2-4-.05-.32.02-.67,0-1-.93-2.61,1.47-5.32,4-5Z"/>
    <path class="cls-214" d="M693,868c.2,2.68-.35,5.76-3,7-.39-.22-1.66.24-2,0-.23-.17,2.15-3.13,2-5.43-.18-2.84-2.75-4.32-4-6.56,2.83-1.12,6.44,5.04,7,4.99Z"/>
    <path class="cls-219" d="M741,874c4.47-3.99,6.51,4.73,3,7-1.09.07-1.68.93-2,1-.42,1.63-2.49,1.54-3,0,.14-.12-.06-1.41,0-2,2-1.91,2-2.58,0-2-.66.89-1.09,2.63-2,3-2.34-1.07-1.01-7.42,2-7,.66.02,1.36-.08,2,0Z"/>
    <path class="cls-121" d="M755,892c-.97-6.46,3.46-9.23,8.51-5,.34,3.57-5.4-.17-6.51,1l1,7h-1c-.2-.41-1.59-2.43-2-3Z"/>
    <path class="cls-209" d="M713,883c4.88,2.21,4.73,3.18,3,8-2.06,5.72-3.01,3.03-7,4v-1c6.28.27,9.34-10.48,2-9,.15-.39-.3-1.37.16-1.84.48-.49,1.45-.02,1.84-.16Z"/>
    <path class="cls-59" d="M778.99,893c-2.15-.37-1.36-4.42-2.94-5.57s-3.82.07-5.54.59c-2.05-1.7,1.93-3.13,3.48-3.58,5.05-1.48,6.59,4.67,5,8.57Z"/>
    <path class="cls-79" d="M729,888c2.57.24,3.78,1.49,3,4-.24.46.47,2.17-1,2-.16-.02-.38-.84-.85-.93-.92,3.6-2.73,4.08-6.15,3.93,3.69-3.23,5.81-4.5,1-8,1.47-.41,1.53-.83,4-1Z"/>
    <path class="cls-99" d="M767,898c-2.25,2.74-5.06,3.12-8,.5,4.44-.23,7.97-1.39,5-6.5.19-.33-.16-1.41,0-2,4.21-.17,2.88,4.92,3,8Z"/>
    <path class="cls-180" d="M769,895c-.56-1.73-1.55-5.87.99-4,.4.29.32,4.88,3.51,5.04,1.96.1,1.88-.63,4.5-.04-3.27,4.26-7.22,4.49-9-1Z"/>
    <path class="cls-226" d="M694,857c3.04-.91,1.85,2.98,3.65,4.08,1.49.91,3.63.87,5.35.92.88.02,2.3-2.51,2,.49-1.02,1.01-3.06,2.62-4.46,2.57-.54-.02-.44-1.49-.81-1.72-2.06-1.29-6.74-.44-5.73-6.34Z"/>
    <path class="cls-178" d="M839,922c-2.86.53-1.64.95-5,0-3.86-5.91,6.53-7.42,5,0Z"/>
    <path class="cls-173" d="M770,871c1.41,1.57,2.94,4.89-.49,5.01-1.1.04-1.18-4.56-1.6-4.91-.74-.62-5.36.21-6.91-.1.34-.47-1.06-1.88,1.44-2.07,2.64-.2,5.69-.02,7.56,2.07Z"/>
    <path class="cls-104" d="M720,846c-.17.15.11,1.45,0,2-.75,3.23-5.54,1.68-7-1-1.76-.62-.94-4.1,1-4,.34.04.71-.08,1,0,1.63-1.84,6.55.58,5,3Z"/>
    <path class="cls-178" d="M767,851c3.82.07,5.6,1.18,6.51,4.96.98,4.06,1.15,4.37-1.51,7.04-1.56-.92-2.31-2.77-2.25-5.53-1.89-1.85-2.81-3.68-2.75-5.47-.87-.28-.86-.62,0-1Z"/>
    <path class="cls-224" d="M744,840c4.65,1,3.79,4.31,3,8-1.71.67-2.43,2.96-4.98,1.53-.63-.35-.77-1.35-1.02-1.53,2.65-1.76,3.08-3.63,1.27-5.61l.73-2.39c.34.03.7-.06,1,0Z"/>
    <path class="cls-91" d="M746,873c1.76,2.56.83,5.29,0,8-.66-.02-1.35-.04-2,0,.65-1.22.35-6.49-.05-6.97-.24-.29-2.15.06-2.95-.03-.63-4.14,3.11-1.09,5-1Z"/>
    <path class="cls-84" d="M672,852c.35.41,1.24.63,1.89,1.59,1.36,2.01.22,4.34,3.41,3.21,1.19-.42,2.14-1.93,3.7-1.8-1.25,7.7-10.81,2.86-9-3Z"/>
    <path class="cls-208" d="M716,875c2.13-.23,2.23-.13,2,2-1.63,1.65-2.18,3.54-4.95,4.55-5.26,1.93-3.64-1.08-4.05-1.55,2.69,1.88,5.89-3.16,7-5Z"/>
    <path class="cls-117" d="M787,873c.25,2.42-2.38,3.26-3.24,5.25-1,2.31-.06,5.74-2.75,6.75-.5-4.28,1.04-11.14,5.99-12Z"/>
    <path class="cls-180" d="M789,884c-.57.9-4.2,2.66-5,1.99,4.21-3.84,3.75-5.73,4.01-10.99,3.11.82,2.1,7.25.99,9Z"/>
    <path class="cls-178" d="M722,862c.33,3.65-2.23,4.26-5.91,4.52-2.36.16-6.93-3.41-2.09-3.52,4.09,1.83,3.98.5,8-1Z"/>
    <path class="cls-55" d="M700,871c1.62-.3,6.17,7.21,2.51,6.01-1.07-.35-3.7-8.35-8.5-3.01-.51-1.24,1-2.59.99-3,1.96-1.89,3.58-.17,5,0Z"/>
    <path class="cls-120" d="M744,854c-2.88,4.57-1.59,5.78-1,10-3.72,2.44-3.16-3.64-3.01-5.51.43-5.33,1.06-3.68,4.01-4.49Z"/>
    <path class="cls-94" d="M715,853c-1.45,3.11-5.36,6.08-2,9-1.11-.26-2.76.19-4,0-.45-3.82,1.88-8.29,6-9Z"/>
    <path class="cls-110" d="M753,891c-.66,5.23-1.69,1.04-3-1-1.59-.78-3.26-1.12-5-1-.65.06-1.34,0-2,0,1.32-3.18,4.77-4.12,7.58-2.07,1.29.94,1.62,3.14,2.42,4.07Z"/>
    <path class="cls-114" d="M682,868c.13-.12,2.8-.15,3.5,0,5.06,1.06.87,5.74-1.98,5-1.55-.4-1.98-4.55-1.51-4.99Z"/>
    <path class="cls-195" d="M685,864.99c-4.41.09-4.7,1.72-5.04,5.5-.13,1.43-.61,3.11-1.96,1.51-2.3-2.74,3.6-13.35,7-7Z"/>
    <path class="cls-84" d="M685,888c.21.41-.07,1.79.52,2.94,1.89,3.69,2.73.14,5.47.07,1.41,1.26-2.35,3.19-3.05,3.49-3.55,1.53-5.68-5.72-4.94-8.5.46.31,1.8,1.6,2,2Z"/>
    <path class="cls-28" d="M731.99,881c3.21,2.74-10.23,5.33-10.99-1,2.18-.22,3.41,1.81,5.58,2.01,1.7.16,5.04-1.34,5.41-1.02Z"/>
    <path class="cls-58" d="M674,883c.17-.06.27-.78.69-.84,1.37-.19,6,2.36,6.31,3.84.38,1.78.31,5.41-1.99,6,.88-5.8-.73-6.28-5.01-9Z"/>
    <path class="cls-22" d="M658,856l4-2.99c-4.42,4.57.48,4.92,4.01,7.49-3.84,1.84-6.09-.49-8.01-3.5-.15-.24.15-.76,0-1Z"/>
    <path class="cls-125" d="M703,851c3.47,1.97,3.3,4.37,3,8-2.37.59-2.06-1.32-3-3-.58-1.03-2.2-2.4-2-3.47.51-.75,1.19-1.18,2-1.53Z"/>
    <path class="cls-103" d="M671,871c.25,1.41,1.59,3.01-.23,4.78-.49.47-5.43,2.2-6.26,2.24-1.08.05-.21-1.49-.51-2.01,3.79,0,4.49-3.1,7-5Z"/>
    <path class="cls-226" d="M686,882c5.45-1.97,6.1-.94,6.02,4.49-.03,2.05.66,2.91-2.02,2.5,1.04-4.47,1.68-7.18-4-5,.01-.1.01-1.9,0-2Z"/>
    <path class="cls-84" d="M793,860c1.55,3.65.05,10.98-5,10,4.61-3.39,4.31-5.6,3-11l2,1Z"/>
    <path class="cls-94" d="M723,861h-1c-.08-.51-1.3-4.85-1.45-5.07-.61-.94-2.47-.93-3.56-.94-.09-1.8-.47-2.12,1.53-2.03,5.58.24,4.09,4.27,4.47,8.04Z"/>
    <path class="cls-199" d="M767,851v1c-.57,2.8-1.57,5.47-3,8-.28.87-.62.86-1,0-1.58-5.27-2.93-9.13,4-9Z"/>
    <path class="cls-150" d="M779,907l3.99-1c-2.42,7.93-9.13.84-4.49-4l.5,4.99Z"/>
    <path class="cls-51" d="M707,849c-2.14.12-4.54.12-6.42-1.08-3.3-2.12-1.2-6.95.41-4.92,1.29,1.62-.94,5.36,6.01,4,.15.58-.14,1.42,0,2Z"/>
    <path class="cls-134" d="M773,844c-1.42,2.11-5.28,5.8-7.53,3.01-.49-.61-.26-1.65-.47-2.01,3.51.08,5.29.13,7.5-3,.94-.03.39,1.32.5,2Z"/>
    <path class="cls-90" d="M780,867c5.79.89,2.9,8.71-.99,10-.41-1.46.58-2,.99-3,1.83-4.42-.38-5.18,0-7Z"/>
    <path class="cls-123" d="M657,857l-3,1c-.09-.12.15-.98-.5-.98-.68.17-.38.79-.5.98h-3c.72-4.68,4.55-5.46,7-1Z"/>
    <path class="cls-70" d="M667.76,852.24c1.18,1.2,1.29,4.09,1.23,5.76-3.1.61-1.48-2.3-3.45-4.08-.78-.7-2.46-.82-2.54-.93-1.82-2.47,3.03-2.5,4.76-.74Z"/>
    <path class="cls-146" d="M726,859c3.34-.69,1.35,2.36,2.48,4.04.64.95,2.19.49,2.53,1.46.65,1.9-1.28,1.76-2.53,1.52-3.41-.65-2.33-3.27-2.48-6.03-.02-.33-.01-.67,0-1Z"/>
    <path class="cls-178" d="M772,863c-4.52,4.52-7.38,2.39-9-3h1c2.35-.22,6.72.85,8,3Z"/>
    <path class="cls-173" d="M672,848c2.74-1.07,7.25-3.92,9,0-4.73-1.16-6.24,1.6-10,3.01-.13-1.08.78-2.13,1-3Z"/>
    <path class="cls-151" d="M734.92,868.92l-4.92-1.91c4.65.18,3.25-3.09,5.99-5.01l-1.07,6.92Z"/>
    <path class="cls-125" d="M775.48,924.25c5.32-.42,3.62,9.2-2.46,2.25.74-.56,1.69-2.19,2.46-2.25Z"/>
    <path class="cls-84" d="M734.87,853.13c.38.25,2.67,6.33,2.12,6.87-.11.11-2.76.56-2.98-.68-.36-2.1-.14-4.17-2.01-5.82.08-.91,2.47-.62,2.87-.37Z"/>
    <path class="cls-100" d="M725,889c-1.09.3-4.59,1.07-4.81,1.2-.64.38-2.72,6.43-3.19.8,4.31-2.73,3.12-5.55,8-2Z"/>
    <path class="cls-178" d="M783,898c-.05.4,5.76,4.07,1.5,7-1.79-4.65-.2-5.21-5.5-5,.49-1.85,2.26-2.19,4-2Z"/>
    <path class="cls-221" d="M729,847c1.38.26,3.53,1.93,6,1.01-.02,1.51-4.58,2.03-5.45,1.98-2.2-.14-3.77-1.99-5.55-2.99,1.51-1.23,2.66-.45,5,0Z"/>
    <path class="cls-117" d="M775,872c.36,2.39-1.22,4.62,2,4,.13.77,1.28,1.85,1,3-.86.2-2.43-.26-3,0-2.36-2.24-1.77-4.28-2-7h2Z"/>
    <path class="cls-147" d="M759,845c-1.81.31-2.43-.06-3,0l-1.01-5.49.52-.52c2.76.12,3.97,3.42,3.49,6.01Z"/>
    <path class="cls-125" d="M811.01,876c1.01-4.35-2.01-6.37-3-10,.71-.82,8.75,7.95,3,10Z"/>
    <path class="cls-132" d="M732.99,880l-4.99-6.99c5.65-.83,5.29,2.43,4.99,6.99Z"/>
    <path class="cls-70" d="M739,874c-1.87,2.04-2.37,4.25-2,7-.4.17-1.37-.08-2,0-.22-2.55-.4-7.13,2.68-7.87.78-.19,1.23.86,1.31.87Z"/>
    <path class="cls-215" d="M737,889c-2.1.69-3.95,1.01-5,3-1.71-.66-2.34-2.43-3-4,2.33-.16,6.5-.65,8,1Z"/>
    <path class="cls-83" d="M779,916c1.97.51,1.94,1.41,0,2-.99-.33-3.97-1.05-4.05-1.55-.29-1.88.88-3.65,1.06-5.45,1.49.44,2.61,3.67,2.99,5Z"/>
    <path class="cls-58" d="M763,892c-.08,4.67-.89,3.87-4,3v-4c1.56-.54,3,.88,4,1Z"/>
    <path class="cls-84" d="M721,875c.66-.42,7.36-5.77,6.01-1.51-.27.84-2.04.76-3.07,1.96s-2.26,6.01-2.93.55v-1Z"/>
    <path class="cls-58" d="M760,862c-2.32-.6-2.4-3.99-2-6-1.29-1.46-.69-2,1-1,.07.16,1.8.5,2.04,2.52s-.78,3.09-1.04,4.48Z"/>
    <path class="cls-107" d="M682,855c-.4-1.61-.66-4.93,2-4.01-1.31,4.55,2.95,4.57,4,7.01-1.98.15-5.51-1.02-6-3Z"/>
    <path class="cls-146" d="M753,854c-1.01-2.69,3.06-2.42,5.46-2.05,1.2.18.25,2.35.54,3.05-.17.41-.96.81-1,1-.99-2.21-3.68-1.47-5-2Z"/>
    <path class="cls-26" d="M751,856c.12.12,1.27-.34,1.74.23s.27,1.96.8,2.73c.82,1.18,6.5,2.76-.55,3.04.02-.22-1.54-2.58-2-4-.18-.56.2-1.78,0-2Z"/>
    <path class="cls-94" d="M773,903c-.06.97.16,2.12,0,3l-6.01-3c-.95-3.51,5.38-2.51,6.01,0Z"/>
    <path class="cls-225" d="M688,876c-.41.56-.6,1.54-1,2l-7-3.99c3.19.86,4.47,1.9,8,1.99Z"/>
    <path class="cls-203" d="M776,894h-3.99s0-3.99,0-3.99c3.12-.45,4.44.97,3.99,3.99Z"/>
    <path class="cls-43" d="M667,882l-1,6c-.22-.07-2.05.47-4,0,.53-1.03,2.52-.79,2.84-1.14,1.43-1.57-2.03-4.96,2.16-4.86Z"/>
    <path class="cls-220" d="M786,862c-.51,1.83,1.81,2.63,2,3,.08.17.09,1.77,0,2-2.36-.08-6.7-3.82-4-5.53.83-.53,1.82.56,2,.53Z"/>
    <path class="cls-156" d="M726,856c.67-1.32,6.66-5.41,5.02-.5-.18.55-3.95,2.37-5.02,2.5.1-.63-.18-1.65,0-2Z"/>
    <path class="cls-140" d="M742,840c1.14,1.8.75,6.68-1,8-.25-.18-1.84.56-2.04-.62-.37-2.18.32-5.06.04-7.39,1-.03,2,.04,3,0Z"/>
    <path class="cls-9" d="M779,916c-.17-5.53,4.81,1.12,3,3-.96,1-2.7-.9-3-1-.1-.63.15-1.47,0-2Z"/>
    <path class="cls-52" d="M658,884c1.16-1.82,5.93-7.2,6-2-3.96-.67-2.51,1.11-3,2-.31.55-1.28.97-1.01,2l-1.99-1c.03-.33-.03-.67,0-1Z"/>
    <path class="cls-120" d="M695,854c.31-3.33,1.89-3.16,5-2.99-.74,2.28-3.67,3.54-5,4.99.04-.66-.06-1.34,0-2Z"/>
    <path class="cls-179" d="M797,867c.27,1.64-1,2.44-1.74,3.8s.65,2.78-2.26,2.2l3.99-5.99Z"/>
    <path class="cls-191" d="M790,858c-.81.95-1.05,1.19-2,2-4.25.4,1.03-1.69-1-4.99,1.99-.36,3.01,1.14,3,2.99Z"/>
    <path class="cls-50" d="M803.98,870.01c.11.08.14,1.61,1.01,2.46,1.6,1.55,4.66.52,4,3.53-2.19.7-7.76-5.36-7-5.99.61.06,1.76-.17,1.98,0Z"/>
    <path class="cls-31" d="M782.99,859c-3.32,2.68-.39-6.42-.98-7,3.01.23,1.73,6.39.98,7Z"/>
    <path class="cls-180" d="M779,866c-.98,2.17-4.29,2.23-4,5-.05-.92-2.1-2.19.51-5.04,1.66-1.81,2.86.09,3.49.04Z"/>
    <path class="cls-85" d="M739,880c.07-.65-.05-1.34,0-2,3.74-5.05,6.43,2.58,0,2Z"/>
    <path class="cls-117" d="M716,841c2.83,1.31,5.06,1.23,6,4.99-.59.12-1.8-.17-2,0-1.06-3.05-2.87-2.44-5-3l1-2Z"/>
    <path class="cls-226" d="M759,873c-.09.3.07.68,0,1-.53.4-1.63.61-2,1,.81-2.02-1.83-2.38-4-3l.67-.88c2.18-.7,3.7.63,5.33,1.88Z"/>
    <path class="cls-1" d="M739,882c.94-.13,2.16.2,3,0l2,.5c-1.81,2.21-5.19,2.22-6.99,0-.09-1.05,1.71-.23,2-.5Z"/>
    <path class="cls-221" d="M750,854c.38.27.59,1.59,1,2-.23-.26-5.16,1.67-5-3,1.35-.11,2.89.21,4,1Z"/>
    <path class="cls-52" d="M702,859c-.22.33-.75.61-1,1-.42-.3-2.7-.18-3-1.51-.61-2.74,4.27-3.66,4,.51Z"/>
    <path class="cls-92" d="M750,882c-1.17-1.57-2.39-2.88-2-5,2.85-.84,1.63,2.19,4,3-.46.65,1.15,2.01-2,2Z"/>
    <path class="cls-14" d="M714,843l-1,4v1c-.48-.42-1.42-.61-2-1-.19-1.57-.08-4.55,1.56-5,.75-.21,1.34.99,1.44,1Z"/>
    <path class="cls-94" d="M746,865l2,.5c-1.87,2.68-5.46,4.01-7,.51.58-.16,1.78.18,2,0,1.62.55,2.15-.57,3-1Z"/>
    <path class="cls-59" d="M671,870c-.04-1.98-1.27-3.24-3-4,.1,0,.45-1.08,1.96-.62,5.73,1.76,1.67,3.53,1.04,4.62Z"/>
    <path class="cls-107" d="M750,858c.02,1.62-.07,4.07-.92,5.41-.68,1.08-1.83.42-2.08.59.56-2.13.66-5.14,3-6Z"/>
    <path class="cls-57" d="M756,877c5.5-.71-2.06,6.27-3,5-.26-.35.22-1.64,0-2,3.02.31,2.34-1.88,3-3Z"/>
    <path class="cls-90" d="M821.99,899c-.42.46-1.65-1.57-2.64-1.78-1.18-.25-2.71,2.2-2.34-.71,1.81-3.79,6.02,1.35,4.98,2.49Z"/>
    <path class="cls-134" d="M729,877c.75.75.47,4.05-2.49,2.99-3.44-1.24,1.17-4.31,2.49-2.99Z"/>
    <path class="cls-122" d="M798,861c-.2.58.5,2.03-.5,2-.39-1-3.4-2.75-3.5-3-.26-.6.18-2.15,0-3,1.57-.17,2.21,3.83,4,4Z"/>
    <path class="cls-174" d="M815,901c3.18-.05,2.01,2.32,3.98,4.51l-.98.49c-.87-1.25-3.31-2.22-3-5Z"/>
    <path class="cls-168" d="M816,884c1.07,2.29-4.45,5.9-3-1,.45-.47,2.93.85,3,1Z"/>
    <path class="cls-207" d="M749,843c2.91-.76,1.67,3.03,4,4.5-.58,1.56-2.48-.47-3-.5-.91-1.23-.82-2.59-1-4Z"/>
    <path class="cls-106" d="M676,838.01c.35.36-3.48,6.44-5,4.99-1.74-1.66,1.59-2.19,1.95-2.58,1.22-1.34.49-3.04,3.05-2.41Z"/>
    <path class="cls-144" d="M797,856c-.72-.27-2.38.16-3.41.01-1.75-.24-.17-4.9,2.41-4,.6.58-2.82,1.8,1,3.99Z"/>
    <path class="cls-43" d="M779,874h-2c-.07-.25-1.5-.84-1-2.48.86-2.82,3.77-.42,3,2.48Z"/>
    <path class="cls-84" d="M752,872c-.93.85-1.8,3.99-3,4-.2-1.59-.09-4.49,1.55-4.99,1.25-.38,1.31.94,1.45.99Z"/>
    <path class="cls-20" d="M753,864l.66-.81c2.62-.29,4.99-1.18,4.34,1.81-2.05.54-3.83-.93-5-1Z"/>
    <path class="cls-200" d="M814,891.99c-1.85,1.56-3.9-3.35-2.99-4.99.76-.93,3.22,4.8,2.99,4.99Z"/>
    <path class="cls-21" d="M812,886c-.15.14-1.37-.06-1.99,0-.16-1.92-.21-3.79,1.5-4.99.83.53.67,4.82.49,4.99Z"/>
    <path class="cls-130" d="M806,868c-1.57,1.57-4.58-1.37-2.99-2.99,1-1.02,4.02,1.96,2.99,2.99Z"/>
    <path class="cls-134" d="M781,861.99c-3.91,1.2-5.34-4.1-2.51-2.98.62.24,2.28,2.12,2.51,2.98Z"/>
    <path class="cls-134" d="M733,859c.3.3.62,3.83-1.48,2.99-3.65-1.46-.22-4.69,1.48-2.99Z"/>
    <path class="cls-5" d="M772.99,922c-.87-.24-2.74-1.89-2.98-2.51-1.12-2.83,4.19-1.4,2.98,2.51Z"/>
    <path class="cls-102" d="M780,851.99l-3.99,1.01c-1.35-5.91,4.91-1.73,3.99-1.01Z"/>
    <path class="cls-34" d="M768,935c-1.15-2.82,3.98-3.36,3.98-1.5-1.07,1.55-2.14,1.73-3.98,1.5Z"/>
    <path class="cls-32" d="M735,841v1c.39,1.27.26,1.6-1,1-.32-.47-2.59-1.38-3-1,.74-.94-1.64-3.14,4-1Z"/>
    <path class="cls-82" d="M672,884c-2.49,2.08-1.3,3.68-2.99,4-.16-2.04-.32-4.33,1.99-5,.42.24.74.6,1,1Z"/>
    <path d="M779,935c-2.99.64-1.9-1.41-1.99-4,2,.54,2.23,2.13,1.99,4Z"/>
    <path class="cls-147" d="M781,846.01c-.61,2.27-3.04,2.14-4.99,1.99v-2c1.84,1.03,3.09.37,4.99,0Z"/>
    <path class="cls-43" d="M749,841c.33-1.35-.91-1.9,1.45-2.05,5.98-.37,3.73,1.06-.45,2.05h-1Z"/>
    <path class="cls-112" d="M766,940l-.5,4.01c-.66.02-2.21-3.89-.5-4.01.21.16.79-.16,1,0Z"/>
    <rect class="cls-84" x="819" y="900" width="1.99" height="2.99"/>
    <path class="cls-99" d="M765,845c-1.13-.03-2.46-.99-3-1,.13-.94-.19-2.15,0-3,1.29,1.1,2.13,2.57,3,4Z"/>
    <path class="cls-86" d="M736,846c-1.9-.25-1.54-2.32-2-3l1-1c.64,1.17,1.22,2.66,1,4Z"/>
    <path class="cls-216" d="M752,842c.81.07,2.76-.2,3,0,.16.14-.08,1.4,0,2-2.37.04-3.46.68-3-2Z"/>
    <path class="cls-109" d="M819,889c.69,1.6-1.98,3.87-3,2.99-.19-.17,1.24-4.26,3-2.99Z"/>
    <path class="cls-179" d="M797,856c1.1.63,2.66-1.42,1.95,3.42-.13.88-.84,1.26-.95,1.58.2-1.11-.23-4.72-1-5Z"/>
    <path class="cls-117" d="M777,854.01c.15.13-.49,3.29-.5,3.99-2.69-1.45-1.53-5.71.5-3.99Z"/>
    <path class="cls-107" d="M665,857c-.59.59-2.98-.86-2.98-1.5,0-2.76,4.49-.02,2.98,1.5Z"/>
    <path class="cls-13" d="M786,882h-1.99c-.32-1.48.44-2.08,1.5-2.99l.49,2.99Z"/>
    <path class="cls-208" d="M783,903.01c.49.39-1.75,2.64-3,1.99v-1.99s3,0,3,0Z"/>
    <path class="cls-92" d="M661,884c.44-1.12,2.98-.7,2.98.5,0,1.97-3.58,1.03-2.98-.5Z"/>
    <path class="cls-4" d="M772,937l-.49,2.99c-1.06-.92-1.82-1.51-1.5-2.99h1.99Z"/>
    <path class="cls-63" d="M636,882c1.25-1.34,3.35-1.14,3,1,.22.1.89,2.08,2,2,.8.48.8,1.48,0,3-.3.57-.91,1.51-1,2-.52.99-1.52,1.66-3,2-.26-.05-.73-.05-1,0-1.66-.06-2.63-2.07-1-3,1.83-1.39,2.77-2.22,1.21-3.32-1.9-.1-2.97-.66-3.21-1.68-2.15-.06-1.94-1.24,0-2,.33-.89.66-.89,1,0,.65.01,1.44-.11,2,0Z"/>
    <path class="cls-3" d="M630,874c1.6-.4,4.21-2.51,3.02,1.5-.09.3-4.14,2.54-5.02,3.5-.67,1.15-1.33,1.48-2,1-.89.99-.81,2.31-1.99,2,.1-2.05.74-3.96.99-6,1.36-2.74,3.03-3.41,5-2Z"/>
    <path class="cls-171" d="M656,869c.52.3.5.64,0,1-.36,1.92-1.03,3.26-2,4-1.55-1.76-4-3.28-5-6,.07,0,.62-.85,1.29-.71,1.87.38,4.02.85,5.71,1.71Z"/>
    <path class="cls-78" d="M635,879c-.62.85-.82,1.98-1,3-.32,0-.68-.04-1,0-.03,1.43-1.86,1.79-3,1,.28-.93-.5-2.9.16-3.84.34-.49,2.11-.61,2.84-1.16,1.99-1.84,2.65-1.5,2,1Z"/>
    <path class="cls-66" d="M633,878c1.41-1.06,4.15-5.63,6-4,1.18,1.05-3.15,3.84-4,5l-2-1Z"/>
    <path class="cls-175" d="M650,863c.94-.05,1.3.02,1,1-.95.41-2.55,2.61-4,3-.93-.38-2.54.86-2-2,1.79-.91,2.99-1.49,5-2Z"/>
    <path class="cls-98" d="M629,888c.87.31.87.64,0,1,1.75.22,3.08.55,4,1,.87.28.86.62,0,1-.25-.08-3.58,1.92-5,0-.24-1.65-2.77-3.42,1-3Z"/>
    <path class="cls-37" d="M636,882c.68-2.32,2.92-2.12,5-2,.34,1.65-.56,2.36-2,3-.49-.22-2.5-.9-3-1Z"/>
    <path class="cls-96" d="M632,886c4.77.93.25,4.79-3,3-.13-.23.11-.68,0-1-.09-.25.04-.65,0-1,.26-1.96.92-2.63,2-2,1.23-.86,1.76-.4,1,1Z"/>
    <path class="cls-126" d="M633,882v2c.2,1.22-.98,1.5-2,1-.69.48-1.26,1.47-2,2-.43-3.94.5-2.33,1-4,.92-.59,1.93-.86,3-1Z"/>
    <path class="cls-177" d="M653.99,881c.98.95.99,4.53-1.48,3.99-1.72-.38-2.02-3.17,0-3.99.54.11,1.32-.17,1.48,0Z"/>
    <path class="cls-75" d="M647,888c2.27,2.86-.18,2.91-1,4-2.15-.27-2.01-2.78-.78-3.84.53-.46,1.59-.02,1.78-.16Z"/>
    <path class="cls-53" d="M643,895h1c-.23.55.02,3.99-1.5,3.98-1.38,0-2.99-5.14.5-3.98Z"/>
    <path class="cls-192" d="M629,873c.43.23.76.58,1,1-1.68.42-2.58-.85-3.65,2h-1.35c.17-1.4.99-3.5,1-4h1c1.65-1.46,2.19-1.23,2,1Z"/>
    <path class="cls-167" d="M656,873c0,.99-.07,2.02,0,3-3.46-.34-1.47-1.4-2-2,.15-1.56.57-3.17,2-4,1.06.63,1.06,1.63,0,3Z"/>
    <path class="cls-27" d="M621,876c-2.39-.62-1-2.84,1-3,.57-.09,1.67-1.37,1.99-1,.18,1.56.14,4.52-1.52,5-1.22.36-1.33-.93-1.48-1Z"/>
    <path class="cls-3" d="M622,873l-1,3c-.73-.33-3.22-1.03-3-1.5,1.34-2.48,3.21-1.38,4-1.5Z"/>
    <path class="cls-118" d="M641,885c.21-.02,1.04-1.35,1.99-1,1.03,2.71-1.71,3.46-1.99,4l-.94-.58.94-2.42Z"/>
    <path class="cls-223" d="M629,873c-.56-.3-1.52-.25-2-1,.5-1.65,1.9-2.1,3-3l.98.49-1.98,3.51Z"/>
    <path class="cls-52" d="M623,868c-.73.6-2.45.7-3,2-.41.06-1.5,1.22-1.86.82-.35-.54.03-1.6-.14-1.82-.39-1.06-.06-1.4,1-1,.98-.4,2.32-.64,3.4-.83l.6.83Z"/>
    <path class="cls-188" d="M653,892l-3,1c.09-1.31-.15-2.7,0-4l3,3Z"/>
    <path class="cls-160" d="M640,890c-.08.44-.11,1.66,0,2l-2,1c-.15-.93-.14-.82-1-1-.46-2.68.63-2.04,3-2Z"/>
    <path class="cls-221" d="M646,885v-2.99c3.67.02,3.67,2.97,0,2.99Z"/>
    <path class="cls-190" d="M622,879c.38,1.86-1.16,3.31-3,2.99-.04-.66.04-1.33,0-1.99.14-2.01,1.44-2.02,3-1Z"/>
    <path class="cls-85" d="M645,877h-2.99c.02-3.67,2.97-3.67,2.99,0Z"/>
    <path class="cls-120" d="M642,873h-2.99c.02-3.67,2.97-3.67,2.99,0Z"/>
    <path class="cls-81" d="M625,870c-.24-.34-.75-.61-1-1,.52-.29,2.62-2.45,2.99-2,.74.91-.75,2.71-1.99,3Z"/>
    <path class="cls-54" d="M635,866c.32.33,1.54.08,1,2-.99-.01-2,.05-3,0-.23-2.13-.13-2.23,2-2Z"/>
    <path class="cls-150" d="M641,863c.36,2.88-1.06,2.62-3,1l.66-.84c.75-.16,1.6-.31,2.34-.16Z"/>
    <path class="cls-198" d="M650,877c.59.59-.86,2.98-1.5,2.98-2.76,0-.02-4.49,1.5-2.98Z"/>
    <path class="cls-163" d="M648,887c.16-.08,1.74-2.25,3-1,.91.91-.97,1.87-1,2l-2-1Z"/>
    <path class="cls-205" d="M628,879c-.3.32-.19,2.49-1.5,3l-.5-2c.63-.7.87-1.14,2-1Z"/>
    <path class="cls-155" d="M619,877c1.47.99,1.82,1.58,0,2l-1.99,1c-.09-2.32-.65-3.52,1.99-3Z"/>
    <path class="cls-165" d="M636,862c.43,2.18-1.08,2.21-3,2,.41-1.45,1.53-2.02,3-2Z"/>
    <path class="cls-196" d="M616,876.01l-2.99,2.99c-.3-1.96,1.16-3.31,2.99-2.99Z"/>
    <path class="cls-127" d="M619,868c-.45.19-.79.57-1,1-.07-.09-1.83,1.13-1.99,1v-2c.48-.35,1.39-.75,1.99-1l1,1Z"/>
    <path class="cls-3" d="M622,879l-3,1c-.02-.33,0-.67,0-1,0-.67,0-1.33,0-2,.85.17,2.81,1.08,3,2Z"/>
    <path class="cls-141" d="M677.51,849c2.71-.61,3.42,4.44.98,4.99-2.71.61-3.42-4.44-.98-4.99Z"/>
    <path class="cls-128" d="M635,889l1,3c-3.72.66-1.66-.58-3-1v-1c-1.06-.97-.42-1.42,1-1h1Z"/>
    <path class="cls-193" d="M651,853.99c-.25.35-4.94,1.21-6,1,.61-2.21,8.21-4.09,6-1Z"/>
    <path class="cls-72" d="M630.99,862.98c-.17.24-4.18,1.71-4.99,3.02l4.5-4.99c.84-.13.61,1.81.49,1.98Z"/>
    <rect class="cls-97" x="639" y="859" width="2.99" height="1.99"/>
    <path class="cls-41" d="M635,858c2.56-1.37,3.18,2.53-.99,3-.42-.47.73-2.86.99-3Z"/>
    <path class="cls-92" d="M628,866.99l2.99-2.99c.3,1.96-1.16,3.31-2.99,2.99Z"/>
    <path class="cls-221" d="M720,848c1.1-.17,1.95-.19,2,1-4.81,3.44-5.25,2.27-9-1v-1c3.26,2.56,4.1,1.44,7,1Z"/>
    <path class="cls-208" d="M731,842c2.85,4.43-4.36,5.98-3,1.5.37-1.21,2.88-1.35,3-1.5Z"/>
    <path class="cls-4" d="M729,840.01c-1.66,1.72-3.27,3.33-4.99,4.99-.43-3.16,1.77-5.41,4.99-4.99Z"/>
    <path class="cls-48" d="M631,912c-3.93,3.62-7.76,4.65-12,1,4.84.93,7.48,1.19,12-1Z"/>
    <path class="cls-212" d="M800,915c-2.73,2.4-5.46,3.45-6-1,2.49-1.88,5.87-3.31,6,1Z"/>
    <path class="cls-67" d="M798,921c.13,1.66.23,4.31-1.5,4.99-4.46,1.74-2.41-5.42,1.5-4.99Z"/>
    <path class="cls-62" d="M798,906c.07.16,1.39.24,1,1.48-.61,1.98-5.12,2.62-4-.48.59-.02,2.02-1.12,3-1Z"/>
    <path class="cls-161" d="M678,905l-5,2c-.15-1.15.02-1.88,0-2,5.27.29-1.29-5.5.51-7.01,3.13.55,3.58,4.74,4.49,7.01Z"/>
    <path class="cls-5" d="M676.5,926.02c6.91,7.14-3.5,6.84-3.49,3.48,0-.41,2.91-2.68,3.49-3.48Z"/>
    <path class="cls-173" d="M697,902c.87.28.86.62,0,1,.15,1.93-.19,3.6-1,5,.4.76,2.29,2.75,2,2.99-.66.06-1.34-.06-2,0-4.01-2.04-2.42-4.1-3-7,1.7-.98-.04-1.35,4-2Z"/>
    <path class="cls-97" d="M688,905c.87.28.86.62,0,1-.32.33.52,2.69-3.69,2.73-1.97.02-3.47-1.73-4.31-1.73v-3c2.58,2.12,4.93,2.92,8,1Z"/>
    <path class="cls-178" d="M693,904c-1.26.72-4.81,1.81-5,2v-1c3.54-1.78,1.83-3.36,0-5.99,2.73,0,4.52,2.59,5,4.99Z"/>
    <path class="cls-180" d="M686,927.99c-2.75-.04-6.29,1.04-4.99-2.48s4.48-.07,4.99,2.48Z"/>
    <path class="cls-83" d="M684.98,917.01c.2.17.25,2.61,1.55,2.99,2.45.71,3.54-3.01,5.46-1.5-1.83,3.38-7.62,3.46-8.99,0-.66-1.68,1.31-2.04,1.98-1.48Z"/>
    <path class="cls-57" d="M673,941c-.96.96-4.55-2.58-5-3.99,2.63-.38,5.17,1.4,5,3.99Z"/>
    <path class="cls-191" d="M692.99,917c-1.72-1.66-3.33-3.27-4.99-4.99,3.16-.43,5.41,1.77,4.99,4.99Z"/>
    <path class="cls-70" d="M676,938.01c.95-.77,4.45.48,4,2.48-.85,3.76-4.45-2.11-4-2.48Z"/>
    <path class="cls-23" d="M683,937c.27,1.78,0,3.5-1.99,4,.09-2.58-1-4.65,1.99-4Z"/>
    <path class="cls-226" d="M687,912c1.6,1.71-1.23,1.96-1.62,2.4-.74.82.15,1.96-1.36,1.6-1.05-2.2,1.96-5.09,2.99-3.99Z"/>
    <rect class="cls-222" x="689" y="923" width="1.99" height="2.99"/>
    <path class="cls-57" d="M694,890c.11-.09.22-1.7.93-2.52,3.54-4.09,6.02.42,5.06,4.52-1.62-1.62-3.58-5.17-5.99-2Z"/>
    <path class="cls-138" d="M670,892l2-3c-1.34,5.21,4,2.1,5,3.01,1.37,1.25-1.19,4.51-6,1-.34-.25-.63-.7-1-1Z"/>
    <path class="cls-191" d="M698,880c-.86.27-1.89-.98-2-1v-4c4.59.03,5.32,1.79,2,5Z"/>
    <path class="cls-207" d="M704,880c-1.8.22-4.54,5.98-8,1.5-.05-1.04,1.58-.23,2-.5,3.25.04,4.26-5.21,6-1Z"/>
    <path class="cls-208" d="M709,894c-3.66-.16-2.15-8.16,2-9-1.15,3.05-2.77,5.5-2,9Z"/>
    <path class="cls-107" d="M686,898.99c-1.08.14-2.47.39-3.37.96-1.03.66.09,2.84-2.63,2.04-.66-3.85,4.01-7.33,5.99-3.01Z"/>
    <path class="cls-89" d="M701,893.01c-.56,4.28-1.3,6.7-5.99,4.98l5.99-4.98Z"/>
    <path class="cls-94" d="M697,902c.12-.02.41-.75,1.3-.73,4.36.07,2.45,3.8,1.69,6.73-1.58.3-.88-.99-.99-1.99-1.29-.78-1.95-1.78-2-3v-1Z"/>
    <path class="cls-181" d="M697,903c2.99-.47,1.75.78,2,3-1.47-.02-2.59.55-3,2-1.25-2.35-1.93-3.56,1-5Z"/>
    <path class="cls-146" d="M695,879v2c-.86-.43-2.41-1.4-3-2-.13-1.65.15-3.62,1.99-4l1.01,4Z"/>
    <path class="cls-120" d="M676,886c.19.19.8,4.89-1.48,3.99-3.44-1.36.22-5.25,1.48-3.99Z"/>
    <path class="cls-85" d="M694,890c-1.22,1.6.58,4.58-.5,6-1.61-1.21-1.9-3.58-1.54-5.37.22-1.12,1.86-.48,2.04-.63Z"/>
    <path class="cls-85" d="M695,891c1.87-1.87,4.42,4.03,1.5,3.98-1.05-.02-2.11-3.37-1.5-3.98Z"/>
    <path class="cls-49" d="M689,889h-2.99c.02-3.67,2.97-3.67,2.99,0Z"/>
    <path class="cls-76" d="M687,902c-.02,3.67-2.97,3.67-2.99,0h2.99Z"/>
    <path class="cls-45" d="M706,887c-1.95.29-3.3-1.17-2.99-2.99,1.95-.29,3.3,1.17,2.99,2.99Z"/>
    <path class="cls-194" d="M743.99,890c.53.46.26,4.82,3.52,5.05.67.05,7.06-2.26,4.49.93-.67.84-6.51,1.43-8.02.53-2.56-1.53-2.73-8.86.01-6.52Z"/>
    <path class="cls-176" d="M741,896c2.57,6.08-6.14,8.2-7.99,4.48-1.53-3.07,5.27.4,5.99-.48l2-4Z"/>
    <path class="cls-142" d="M714,899c2.37,2.38-7.34,4.93-5.99,1.51.65-1.65,5.48-2.02,5.99-1.51Z"/>
    <path class="cls-213" d="M720,903c-2.33-2.34,5.97-4.58,5.98-1.5,0,1.49-5.47,2.01-5.98,1.5Z"/>
    <path class="cls-213" d="M724,897c-.22.19-.23.74-.57,1.06-2.72,2.57-5.95-.78-5.43-4.06,2.54,1.81,2.61,2.85,5.99,3Z"/>
    <path class="cls-30" d="M750,890h-1c-.56,1.92-1.44,1.93-2,0-.84-.09-1.79.05-2-1,1.45-.12,2.46-2.97,5,1Z"/>
    <path class="cls-184" d="M749,890c2.17,3.04-3.12,5.15-2,0,.65.07,1.34-.05,2,0Z"/>
    <path class="cls-213" d="M725,892c-.02,3.67-2.97,3.67-2.99,0h2.99Z"/>
    <path class="cls-153" d="M738,894v2.99c-3.67-.02-3.67-2.97,0-2.99Z"/>
    <path class="cls-60" d="M647,899c-.84-.84,1.66-3.77,2.99-4,.98,2.01-1.81,5.18-2.99,4Z"/>
    <path class="cls-61" d="M639,901l.51-.99c2.19-.5,1.44,1.06,1.49,2.99-.99-.36-2.29.48-2-2Z"/>
    <path class="cls-46" d="M667,893c2.31,1.98-5.35,2.92-6,2.99.99-2.58,3.33-3.4,6-2.99Z"/>
    <path class="cls-211" d="M665,891.01c.38,1.6-1.06.71-2.19,1.28-.78.39-2.61,1.94-2.8,1.71-1.36-1.66,2.81-4.02,4.99-2.99Z"/>
    <path class="cls-97" d="M771,906.01c.49.39-1.75,2.64-3,1.99v-1.99s3,0,3,0Z"/>
    <path class="cls-90" d="M719,862c-.62.62-3.98-.46-3.98-1.5,0-.18,2.31-2.48,2.48-2.48,1.03,0,2.11,3.36,1.5,3.98Z"/>
    <path class="cls-125" d="M765.99,872.01c3.14,7.67-6.25,5.32-1.48,0h1.48Z"/>
    <path class="cls-38" d="M660,871c-3.13-3.89-1.57-10.22-9-7l-1-1c7.89-1.99,10.87-1.15,10,8Z"/>
    <path class="cls-157" d="M656,873c0-1,0-2,0-3v-1c2.67,1.35,2.12,2.02,0,4Z"/>
    <path class="cls-94" d="M752,878v-2.99c3.67.02,3.67,2.97,0,2.99Z"/>
    <path class="cls-221" d="M710,876c-.75-.75-.47-4.05,2.49-2.99,3.44,1.24-1.17,4.31-2.49,2.99Z"/>
    <path class="cls-137" d="M747,857c.38,1.88-.12,5.49-2.48,4.99-3.11-.65-.31-5.62,2.48-4.99Z"/>
    <path class="cls-159" d="M668,873c-2.49,2.01-5.65-3.06-1.49-3.99,2.59-.58,2.36,3.29,1.49,3.99Z"/>
    <path class="cls-69" d="M757,856c-.02,3.67-2.97,3.67-2.99,0h2.99Z"/>
    <path class="cls-34" d="M788,865c-.95-2.04,2.42-4.03,3-1.49.44,1.96-2.3,2.98-3,1.49Z"/>
    <path class="cls-146" d="M718,845v1.99c-1.48.32-2.08-.44-2.99-1.5l2.99-.49Z"/>
    <path class="cls-40" d="M772,863c-3.08.22-6.4.02-8-3-1.6-3.37-.24-6.28,3-8,4.65,2.62,5.71,5.77,5,11Z"/>
    <path class="cls-115" d="M741,848c-1.29-3.28-.93-5.12,1-8,.33-.01.68-.03,1,0,3.04,3.85,4.27,8-2,8Z"/>
    <path class="cls-108" d="M633,884c.87.07,4.81,1.71,5,2.51.14,1.76-1.48,2.58-3,2.49h-1c-.61-1.52-.17-1.97,1.24-1.82-1.59.55-2.66.67-3.24-1.18-.17-.02-.6-.83-1-1,.58-.41.38-1.12,2-1Z"/>
    <path class="cls-39" d="M632,886c1.29.16,2.69-.12,4,0,.57,2.31-.68,1.83-2,3-.34.3-.85.46-1,1-1.73,0-3.08.57-4-1,2.61.25,4.93-.74,3-3Z"/>
    <path class="cls-26" d="M713,888c.38,2.4-.47,4.24-2.99,3.99-.38-2.4.47-4.24,2.99-3.99Z"/>
    <path class="cls-57" d="M769,857l-.49,3.99c-1.21-1.3-2.89-2.09-2.5-3.99h2.99Z"/>
    <rect class="cls-24" x="742" y="843" width="1.99" height="2.99"/>
  </g>
  <rect x="629.59" y="886.47" width="1.51" height="1.51" rx=".75" ry=".75"/>
</svg>