<?xml version="1.0" encoding="UTF-8"?>
<svg id="Lager_1" data-name="Lager 1" xmlns="http://www.w3.org/2000/svg" viewBox="0 0 1102.92 586.97">
  <defs>
    <style>
      .cls-1 {
        fill: #030304;
      }

      .cls-2 {
        fill: #ebe0c7;
      }

      .cls-2, .cls-3 {
        stroke: #1d1d1b;
        stroke-miterlimit: 10;
        stroke-width: 3px;
      }

      .cls-4 {
        fill: #3f2c18;
      }

      .cls-3 {
        fill: #fff;
      }

      .cls-5 {
        font-size: 49px;
      }

      .cls-5, .cls-6 {
        fill: #1d1d1b;
        font-family: Helvetica, Helvetica;
      }

      .cls-6 {
        font-size: 57px;
      }

      .cls-7 {
        fill: #e6c06f;
      }
    </style>
  </defs>
  <rect class="cls-2" x="663.14" y="225.42" width="438.28" height="105.58"/>
  <rect class="cls-3" x="663.14" y="316.27" width="438.28" height="41.74"/>
  <text class="cls-6" transform="translate(826.53 293.93)"><tspan x="0" y="0">Lejon</tspan></text>
  <rect class="cls-4" x="665" y="317.73" width="53.61" height="38.75"/>
  <g>
    <path class="cls-1" d="M651.14,273.03c17.32,15.84,43.84,50.38,41.42,74.9-1.05,10.7-18.02,20.67-27.58,22.7-18.55,3.94-29.89-6.08-46.4-9.21-17.67-3.34-44.16,8.36-63.57,9.46-22.08,1.26-49.74-3.87-42.66-32.51,7.91-32.01,53.94-83.63,87.66-88.31,19.7-2.73,37.48,10.47,51.13,22.96Z"/>
    <path class="cls-1" d="M684.04,133.32c23.11,25.19,1.52,82.89-31.6,89.41-11.29,2.23-21.73-2.94-27.49-12.69-14.29-24.17-1.06-62.92,21.12-78.28,12.21-8.46,27.33-10.05,37.98,1.56Z"/>
    <path class="cls-1" d="M586.86,133.32c15.6,16.81,21.11,46.15,12.11,67.38s-30.23,26.19-47.71,10.62c-18.91-16.84-25.96-52.45-13.52-74.74,11.86-21.25,33.7-19.87,49.12-3.26Z"/>
    <path class="cls-1" d="M715.64,211.96c32.99-3.52,37.06,33.29,25.5,56.43-10.31,20.64-42.18,43.78-61.66,21.03-21.36-24.94,5.4-74.18,36.16-77.46Z"/>
    <path class="cls-1" d="M523.54,208.23c16.59,15.96,28.27,54.23,5.24,69.25-25.71,16.77-56.34-14.94-60.93-39.44-7.47-39.78,26.85-57.56,55.69-29.81Z"/>
    <path class="cls-7" d="M643.07,269.04c16.99,13.84,46.36,51,46.83,73.05.25,11.75-6.76,17.86-16.6,22.84-19.42,9.83-32.25-.16-50.36-4.96-20.93-5.55-45.98,7.05-67.96,8.48-13.45.87-39.79-1.34-40.86-19.07-1.4-23.05,28.58-59.85,45.46-74.47,29.07-25.19,51.66-31.8,83.49-5.87Z"/>
    <path class="cls-7" d="M681.62,134.77c20.87,22.77,2.68,74.71-25.57,84.32-11.83,4.02-22.21.45-28.5-10.2-12.42-21.04-2.19-55.31,15.1-70.99,11.11-10.08,27.33-15.83,38.97-3.13Z"/>
    <path class="cls-7" d="M586.86,137.67c14.06,17.92,18.9,48.06,6.4,67.95-9.85,15.67-27.06,15.78-40.21,3.81-16.51-15.03-22.92-45.16-15.22-66,9.46-25.63,32.99-26.2,49.04-5.76Z"/>
    <path class="cls-7" d="M735.38,219.76c14.11,12.56,9.21,37.78.58,52.17-9.84,16.43-35.74,34.42-52.92,17.56-15.99-15.7-5.72-46.72,7.73-61.05,10.61-11.3,31.11-20.68,44.61-8.67Z"/>
    <path class="cls-7" d="M519.66,208.24c15.49,14.01,25.96,42.21,13.5,61.04-8.49,12.84-23.89,12.14-36.2,5.39-14.43-7.92-24.5-25.38-26.78-41.38-4.7-32.95,24.22-47.89,49.47-25.05Z"/>
  </g>
  <text class="cls-5" transform="translate(540.16 337.14)"><tspan x="0" y="0">Afrika</tspan></text>
</svg>