<?xml version="1.0" encoding="UTF-8"?>
<svg id="Lager_1" data-name="Lager 1" xmlns="http://www.w3.org/2000/svg" viewBox="0 0 842.39 158.51">
  <defs>
    <style>
      .cls-1 {
        fill: #8079b8;
      }

      .cls-2 {
        fill: #441919;
      }

      .cls-3 {
        fill: #3f2020;
      }

      .cls-4 {
        fill: #f08d24;
      }

      .cls-5 {
        fill: #977f7f;
      }

      .cls-6 {
        fill: #6f4040;
      }

      .cls-7 {
        fill: #6b8080;
      }

      .cls-8 {
        fill: #b77f7f;
      }

      .cls-9 {
        fill: #56b14d;
      }

      .cls-10 {
        fill: #5f5f5f;
      }

      .cls-11 {
        fill: #60605f;
      }

      .cls-12 {
        fill: #4c2929;
      }

      .cls-13 {
        fill: #2e1d1d;
      }

      .cls-14 {
        fill: #3e3e3e;
      }

      .cls-15 {
        fill: #a77f7f;
      }

      .cls-16 {
        fill: #3a0f10;
      }

      .cls-17 {
        fill: #9f8e8e;
      }

      .cls-18 {
        fill: #fff;
      }

      .cls-19 {
        fill: #5f1f20;
      }

      .cls-20 {
        fill: #f0ec8b;
      }

      .cls-21 {
        fill: #657575;
      }

      .cls-22 {
        fill: #392323;
      }

      .cls-23 {
        fill: #554a4a;
      }

      .cls-24 {
        fill: #828787;
      }

      .cls-25 {
        fill: #8e8f8f;
      }

      .cls-26 {
        fill: #805f5f;
      }

      .cls-27 {
        fill: #938f8f;
      }

      .cls-28 {
        fill: #573f3e;
      }

      .cls-29 {
        fill: #e6254c;
      }

      .cls-30 {
        fill: #5b4747;
      }

      .cls-31 {
        fill: #5f4f4f;
      }

      .cls-32 {
        fill: #9d9f9f;
      }

      .cls-33 {
        fill: #3f82c4;
      }

      .cls-34 {
        fill: #554545;
      }

      .cls-35 {
        fill: #f7f6f5;
      }
    </style>
  </defs>
  <g>
    <path class="cls-18" d="M77.44,98.68c-3.82-.03-7.47-1.46-10.71-3.36.02-.77.71-.32,1.19-.31,1.35.04,2.77.03,4.09-.24.17-.04.52,0,.48-.24h-2.48c-3.84,0-10.15-4.17-12.8-6.87-.26-.27-.7-.56-.71-.96h3.44c.5,0,1.94-.26,2.51-.37.18-.03.63-.03.61-.27-4.31.34-7.94-1.36-11.6-3.36-6.3-3.45-18.33-11.21-18.22-19.3.03-2.31,1.78-6.21,4.32-6.59,4.07-.61,13.17,3.21,17.18,4.87,14.4,5.96,30.27,14.69,42.91,23.77,8.9,6.39,17.55,13.99,23.62,23.15.17.01.22.07.33-.09.21-.32.38-1.17.6-1.61.4-.78,1.36-2.42,1.95-3.01,1.11-1.11.2,1.85.17,2.09-.3,2.19-.41,4.52,0,6.69.05.28.5,1.8.62,1.94.52.59,2-.27,2.62-.6.38-.2,2.47-1.76,2.67-1.57l-.73,1.42-2.14,2.41c2.16-.69,4.5-.19,6.71,0l-.27.45c-.52-.2-7.89,1.17-7.25,1.94.17.02.39.06.53.16,3.52,2.61,7.63,6.66,10.99,9.67,2.83,2.54,5.67,5.11,8.45,7.7.4.37,2.91,2.65,2.89,2.85-.03.31-.62.22-.83.2-1.74-.2-5.41-4.31-6.9-5.65-19.27-17.34-39.61-34.26-61.07-48.87-8.88-6.05-18.06-11.87-27.78-16.43-.34-.03-1.02-.31-1.12-.64-.54-.08-1.07-.29-1.6-.64-.14-.02-.2-.07-.16-.16-.24.06-.57-.1-.64-.32-.21.1-.51-.14-.64-.32-.05.1-.11.11-.16,0-.15.05-.26-.01-.32-.16-.18-.01-.28-.07-.32-.16-.15.01-.31-.04-.48-.16l-.32-.16-.48-.16-.16-.16c-.16,0-.32-.05-.48-.16l-.32-.16q-.23-.06,0,0l.32.16c.21.07.37.17.48.32h.16l.32.16.48.16c.21.07.37.18.48.32.05-.08.11-.08.16,0,.21.07.37.18.48.32.05-.1.1-.1.16,0,.19-.04.43.13.48.32.2-.09.59.11.64.32.12-.08.2-.09.32,0,.53.2.96.47,1.28.8.46-.02,1.01.29,1.28.64,25.77,14.01,48.91,32.35,71.17,51.24.88.67-.12,1.33-.45,2.12s-.4,1.52-.52,2.35c-.09.61-.71-.28-.78-.8-.16-1.08-.02-2.28.46-3.26-.21-.19-3.43,1.04-4,1.2-3.7,1.03-7.29,1.45-11.07.51-1.27-.31-2.85-.92-3.8-1.79.94-.09,1.84.15,2.8.08s2.11-.42,2.96-.8c.19-.13.19-.18,0-.16-3.51.47-9.29-1.13-12.33-2.94-.25-.15-1.31-.72-1.26-.98.07-.35.41-.12.56-.09,5.8.92,8.24.97,13.67-1.43.1-.15-.06-.2-.48-.16-14.04,1.99-25.9-4.86-35.9-13.91-.37-.73,1.53-.44,1.92-.48.64-.07,1.36-.2,2-.32.1-.07.05-.12-.16-.16Z"/>
    <path class="cls-18" d="M171.79,115.95c-1.09-.97-2.2-2.14-2.72-3.52.18-.17,2.56,1.5,3,1.71s1.88.9,2.25.67c.16-.1.71-2.44.77-2.82.43-2.62.03-5.62-.6-8.19.18.04.33-.16.48-.09.41.19,1.94,2.82,2.21,3.39.2.42.33,1.06.5,1.39.1.19.13.12.32.1l2.65-3.83c12.78-16.18,34.66-29.12,53.02-38.12,6.56-3.21,14.25-6.79,21.25-8.82,3.61-1.04,7.39-2.33,9.82,1.37,4.37,6.67-3.29,14.3-8.33,18.03-2.67,1.97-5.79,3.94-8.71,5.52-3.59,1.94-7.09,3.65-11.33,3.3-.04.22.29.24.44.28.57.12,2.16.36,2.68.36h3.28c-.24.64-1,1.28-1.52,1.75-2.67,2.43-8.32,6.08-11.99,6.08h-2.48c-.04.23.3.21.48.24,1.32.27,2.74.28,4.09.24.23,0,1.55-.38,1.12.32-.13.2-2.6,1.44-3.01,1.62-2.47,1.07-5.09,1.67-7.78,1.73-.23.02-.23.08,0,.16.65.11,1.35.25,2,.32,1.08.12,2.88-.4,1.36,1.04-9.53,9.03-21.94,15.06-35.34,13.35l-.8-.06c.18,0,.33,0,.32.22,4.72,2.09,9.07,2.81,14.15,1.28.23.15.05.4-.08.56-.29.34-2.24,1.31-2.77,1.55-3.43,1.57-7.06,2.1-10.82,2.05l1.4.59c1.51.5,2.97.39,4.51.21.34.25-1.59,1.13-1.76,1.19-4.2,1.74-8.69,1.38-12.98.2-.56-.15-3.79-1.39-3.96-1.23.21,1.31.75,2.31.21,3.65-.19.46-.35.85-.6.19s-.28-1.38-.54-2.03c-.27-.68-1.16-1.44-.62-2.08,12.37-10.55,24.96-20.83,38.18-30.33,11.01-7.91,22.35-15.34,34.37-21.68.31-.35.81-.6,1.28-.64.04-.21.27-.41.48-.32.07-.22.55-.34.8-.32.11-.17.29-.35.48-.32.05-.1.16-.16.32-.16l.32-.16c.16-.11.32-.16.48-.16.05-.1.11-.1.16,0,.11-.15.27-.25.48-.32l.32-.16.32-.16.48-.16c.09-.17-.03-.09-.16,0-.06.08-.16.14-.32.16l-.32.16-.32.16c-.16.11-.32.17-.48.16-.05.11-.1.1-.16,0-.11.15-.27.25-.48.32l-.32.16c-.13.06-.23.06-.32,0-.1.17-.29.33-.48.32-.19.2-.69.38-.96.32.01.2-.28.39-.48.32-.31.34-.83.61-1.28.64-12.97,6.15-25.01,14.09-36.67,22.41-20.63,14.73-40.07,31.33-58.68,48.48-.78.47-1.59.98-2.52.58,4.98-4.85,10.14-9.54,15.35-14.15,2.12-1.88,4.25-3.75,6.4-5.6.31-.27.72-.61,1.12-.72.55-.81-6.65-2.11-7.25-1.94l-.27-.45c2.1-.19,4.3-.6,6.4-.16.22,0,.27-.06.16-.16Z"/>
    <path class="cls-18" d="M165.81,69.32c5.58,5.29,13.75,16.51,13.02,24.49-.37,4.02-7.2,7.47-10.8,7.75-5.43.42-10.11-3.31-15.21-3.65-4.28-.29-11.86,2.53-16.63,3.15-6,.79-17.55.29-16.67-8.36,1.1-10.85,17.41-29.2,28.28-31.21,6.94-1.28,13.26,3.31,18.02,7.83Z"/>
    <path class="cls-18" d="M176.65,23.46c6.81,9.06-1.32,29.82-13.27,29.02-9.62-.65-9.55-14.1-6.87-20.79,2.97-7.42,13.29-17.34,20.14-8.23Z"/>
    <path class="cls-18" d="M144.19,22.66c5.1,5.54,7.06,15.11,4.17,22.13-3.92,9.5-13.32,8.29-18.44.53-3.65-5.53-4.93-13.74-2.43-19.96,3.24-8.05,10.95-8.94,16.7-2.7Z"/>
    <path class="cls-18" d="M122.32,46.29c6.24,5.11,10.81,18.15,3.34,23.92s-17.45-3.68-19.78-10.93c-3.86-12.05,5.83-21.69,16.44-13Z"/>
    <path class="cls-18" d="M194.24,51.6c8.09,9.08-4.13,29.17-15.94,25.29-7.97-2.61-6.98-13.27-3.64-19.23,3.62-6.47,13.33-13.07,19.58-6.06Z"/>
    <path class="cls-13" d="M249.03,67.02c.25-.13.31-.09.16.16-.42.22-.86.42-1.28.64l-.16-.16c.43-.2.83-.44,1.28-.64Z"/>
    <path class="cls-12" d="M189.7,113.55l-.48.16c-.22-.1-.53-.12-.48-.32.36-.16.76.13.96.16Z"/>
    <path class="cls-2" d="M109.58,113.55c.21-.03.6-.32.96-.16.05.2-.26.22-.48.32l-.48-.16Z"/>
    <path class="cls-21" d="M77.44,98.68c.06,0,.35-.22.64,0v.16c-.15.02-.33-.02-.48,0l-.16-.16Z"/>
    <path class="cls-24" d="M221.68,98.68v.16c-.15-.03-.48.08-.48-.08.12-.28.42-.08.48-.08Z"/>
    <path class="cls-7" d="M171.79,115.95c.1.09.33.13.32.32-.25.1-.38-.14-.48-.16l.16-.16Z"/>
    <path class="cls-27" d="M109.42,119.14s.48-.41.32.08c-.06.17-.22.04-.32.08v-.16Z"/>
    <path class="cls-28" d="M49.29,66.54l-.16.16c-.23-.09-.34-.25-.48-.32-.11-.05-.1-.1,0-.16.24.1.42.2.64.32Z"/>
    <path class="cls-30" d="M47.85,65.9c.12.05.12.1,0,.16-.21-.09-.38-.28-.48-.32.18.06.27.07.48.16Z"/>
    <path class="cls-3" d="M48.49,66.22c.11.05.1.1,0,.16-.18-.09-.37-.14-.48-.32h.16c.12.05.22.12.32.16Z"/>
    <path class="cls-32" d="M46.41,65.26v.16c-.21-.1-.36-.26-.48-.32.14.05.25.06.48.16Z"/>
    <path class="cls-23" d="M47.37,65.74c-.18-.06-.26-.07-.48-.16h.16c.12.05.23.12.32.16Z"/>
    <path class="cls-19" d="M47.05,65.58h-.16c-.13-.05-.23-.12-.32-.16.08.04.29.08.48.16Z"/>
    <path class="cls-19" d="M48.17,66.06s-.11.02-.16,0-.12.02-.16,0v-.16c.11.05.23.07.32.16Z"/>
    <path class="cls-26" d="M45.93,65.1c-.13-.05-.24-.13-.32-.16.14,0,.23.12.32.16Z"/>
    <path class="cls-8" d="M45.61,64.94c-.15-.06-.38.12-.32-.16l.32.16Z"/>
    <path class="cls-25" d="M44.81,64.62c.09.02.22-.01.32,0v.16c-.3.09-.27-.13-.32-.16Z"/>
    <path class="cls-5" d="M44.81,64.62c-.09-.02-.22.01-.32,0v-.16c.3-.09.27.13.32.16Z"/>
    <path class="cls-6" d="M46.57,65.42s-.12.02-.16,0v-.16c.06.03.11.14.16.16Z"/>
    <path class="cls-22" d="M250.47,66.38c.1.05.1.1,0,.16-.27.14-.59.21-.8.32-.25.12-.31.09-.16-.16.35-.16.72-.21.96-.32Z"/>
    <path class="cls-14" d="M249.67,66.86c-.13.07-.28.22-.48.32l-.16-.16c.12-.05.27-.23.48-.32l.16.16Z"/>
    <path class="cls-34" d="M250.95,66.22c-.13.06-.28.22-.48.32v-.16c.11-.05.26-.23.48-.32.12.05.11.1,0,.16Z"/>
    <path class="cls-31" d="M252.07,65.74c-.19.07-.35.11-.48.16.13-.06.27-.22.48-.32.11.05.1.1,0,.16Z"/>
    <path class="cls-10" d="M252.71,65.42c-.12.05-.26.23-.48.32-.11-.05-.1-.1,0-.16.22-.1.35-.11.48-.16Z"/>
    <path class="cls-11" d="M253.67,64.94c.05-.09.1-.09.16,0l-.08.16c-.12.04-.29-.03-.4,0,.09-.04.16-.21.32-.16Z"/>
    <path class="cls-16" d="M251.27,66.06c-.11.05-.21.11-.32.16v-.16c.08-.03.24.03.32,0Z"/>
    <path class="cls-19" d="M253.03,65.26c-.08.03-.19.11-.32.16.1-.05.21-.11.32-.16Z"/>
    <path class="cls-5" d="M253.35,65.1c-.1.05-.19.11-.32.16.1-.05.15-.11.32-.16Z"/>
    <path class="cls-8" d="M253.67,64.94c-.01-.21.3-.25.32-.08l-.16.08h-.16Z"/>
    <path class="cls-17" d="M254.46,64.62c-.05.03-.02.25-.32.16v-.16c.1-.02.23.02.32,0Z"/>
    <path class="cls-15" d="M254.46,64.62c.05-.03.02-.25.32-.16v.16c-.1.02-.23-.02-.32,0Z"/>
    <path class="cls-19" d="M251.59,65.9c-.11.05-.21.11-.32.16.09-.04.19-.11.32-.16Z"/>
    <path class="cls-3" d="M252.23,65.74s-.11-.02-.16,0v-.16s.12.02.16,0v.16Z"/>
  </g>
  <g>
    <path class="cls-18" d="M328.61,96.41c-2.56,4.46-6.12,7.78-10.67,9.97-4.56,2.18-9.92,3.28-16.1,3.28-2.06,0-4.49-.11-7.3-.33-2.81-.22-5.4-.73-7.77-1.54-3.06-1.06-4.59-2.9-4.59-5.52v-45.96c0-1.18.33-2.09.98-2.71.66-.62,1.51-1.12,2.57-1.5,2.31-.69,4.82-1.15,7.53-1.4,2.71-.25,5.26-.37,7.63-.37,6.3,0,11.81,1.08,16.52,3.23,4.71,2.15,8.39,5.38,11.04,9.69,2.65,4.31,3.98,9.77,3.98,16.38s-1.28,12.34-3.84,16.8ZM317.8,68.51c-1.65-2.9-3.9-5.05-6.74-6.46-2.84-1.4-6.07-2.11-9.69-2.11-1.37,0-2.67.05-3.88.14-1.22.09-2.39.23-3.51.42v38.84c1.12.25,2.37.42,3.74.51,1.37.09,2.74.14,4.12.14,5.8,0,10.33-1.7,13.57-5.1,3.24-3.4,4.87-8.44,4.87-15.12,0-4.62-.83-8.38-2.48-11.28Z"/>
    <path class="cls-20" d="M352.67,81.38h11.79v11.79c0,3.68-.72,6.76-2.15,9.22-1.44,2.47-3.42,4.29-5.94,5.48-2.53,1.18-5.48,1.78-8.84,1.78s-6.05-.51-8.05-1.54c-2-1.03-3-2.64-3-4.82,0-1.06.19-1.98.56-2.76.37-.78.75-1.39,1.12-1.83,1.06.37,2.14.67,3.23.89,1.09.22,2.23.33,3.42.33,2.68,0,4.66-.64,5.94-1.92,1.28-1.28,1.92-3.29,1.92-6.04v-10.58ZM364.46,85.97h-11.79v-34.35c.5-.12,1.28-.28,2.34-.47,1.06-.19,2.09-.28,3.09-.28,2.18,0,3.79.39,4.82,1.17,1.03.78,1.54,2.23,1.54,4.35v29.58Z"/>
    <path class="cls-1" d="M390.48,84.75h-11.79v-33.13c.5-.12,1.26-.28,2.29-.47,1.03-.19,2.07-.28,3.14-.28,2.25,0,3.87.39,4.87,1.17,1,.78,1.5,2.23,1.5,4.35v28.36ZM402.27,109.84c-4.93,0-9.17-.89-12.73-2.67s-6.26-4.29-8.1-7.53c-1.84-3.24-2.76-7.05-2.76-11.42v-6.74h11.79v6.27c0,3.99,1.11,7.07,3.32,9.22,2.21,2.15,5.04,3.23,8.47,3.23s6.18-1.08,8.42-3.23c2.25-2.15,3.37-5.23,3.37-9.22v-6.27h11.89v6.74c0,4.37-.94,8.17-2.81,11.42-1.87,3.25-4.57,5.76-8.1,7.53-3.53,1.78-7.78,2.67-12.78,2.67ZM425.96,84.85h-11.89v-33.23c.5-.12,1.28-.28,2.34-.47,1.06-.19,2.12-.28,3.18-.28,2.18,0,3.79.39,4.82,1.17,1.03.78,1.54,2.23,1.54,4.35v28.45Z"/>
    <path class="cls-35" d="M460.58,88.4h-20.4v-32.1c0-1.12.33-2,.98-2.62.66-.62,1.51-1.12,2.57-1.5,2-.62,4.35-1.09,7.07-1.4,2.71-.31,5.48-.47,8.28-.47,8.24,0,14.4,1.7,18.49,5.1,4.09,3.4,6.13,8.07,6.13,13.99,0,3.74-.95,7.05-2.85,9.92-1.9,2.87-4.57,5.1-8,6.69-3.43,1.59-7.52,2.39-12.26,2.39ZM440.18,84.29h11.89v23.96c-.5.19-1.26.36-2.29.51-1.03.15-2.11.23-3.23.23-2.25,0-3.87-.42-4.87-1.26-1-.84-1.5-2.26-1.5-4.26v-19.19ZM451.97,79.14h7.77c3.68,0,6.61-.81,8.8-2.43,2.18-1.62,3.28-4.02,3.28-7.21s-1.09-5.49-3.28-7.11c-2.18-1.62-5.4-2.43-9.64-2.43-1.25,0-2.46.05-3.65.14-1.19.09-2.28.23-3.28.42v18.63ZM458.99,85.41l10.11-2.9c1.56,2.06,3.17,4.13,4.82,6.22,1.65,2.09,3.24,4.12,4.77,6.08,1.53,1.97,2.9,3.76,4.12,5.38,1.22,1.62,2.17,2.96,2.85,4.02-.44,1.56-1.26,2.78-2.48,3.65s-2.54,1.31-3.98,1.31c-1.87,0-3.32-.42-4.35-1.26-1.03-.84-2.01-1.98-2.95-3.42l-12.92-19.09Z"/>
    <path class="cls-4" d="M508.13,84.38h-11.89v-32.76c.56-.12,1.36-.28,2.39-.47,1.03-.19,2.07-.28,3.14-.28,2.25,0,3.87.39,4.87,1.17,1,.78,1.5,2.23,1.5,4.35v27.99ZM496.25,70.71h11.89v37.63c-.5.12-1.26.28-2.29.47-1.03.19-2.11.28-3.23.28-2.25,0-3.87-.42-4.87-1.26s-1.5-2.26-1.5-4.26v-32.85ZM516.18,82.79l-14.23-.09,28.92-31.54c2.87.06,4.96.65,6.27,1.78,1.31,1.12,1.97,2.5,1.97,4.12,0,1.19-.3,2.31-.89,3.37-.59,1.06-1.54,2.22-2.85,3.46l-19.19,18.91ZM503.36,78.67l12.26-2.53c5.74,5.87,10.79,11.09,15.16,15.68,4.37,4.59,7.96,8.25,10.76,11,0,2-.64,3.57-1.92,4.73-1.28,1.15-2.76,1.73-4.45,1.73-1.81,0-3.32-.47-4.54-1.4s-2.42-2.03-3.6-3.28l-23.68-25.93Z"/>
    <path class="cls-18" d="M602.76,79.98c0,6.49-1.23,11.95-3.7,16.38-2.47,4.43-5.83,7.78-10.11,10.06-4.27,2.28-9.13,3.42-14.55,3.42s-10.19-1.14-14.46-3.42c-4.28-2.28-7.64-5.63-10.11-10.06-2.47-4.43-3.7-9.89-3.7-16.38s1.26-11.95,3.79-16.38c2.53-4.43,5.93-7.78,10.2-10.06,4.27-2.28,9.03-3.42,14.27-3.42s10.19,1.14,14.46,3.42c4.27,2.28,7.66,5.63,10.16,10.06,2.5,4.43,3.74,9.89,3.74,16.38ZM590.68,79.98c0-6.55-1.48-11.54-4.45-14.98-2.96-3.43-6.91-5.15-11.84-5.15s-8.69,1.72-11.65,5.15c-2.96,3.43-4.45,8.42-4.45,14.98s1.47,11.64,4.4,15.07c2.93,3.43,6.86,5.15,11.79,5.15s8.86-1.72,11.79-5.15c2.93-3.43,4.4-8.45,4.4-15.07Z"/>
    <path class="cls-9" d="M626.16,84.57h-11.89v-32.95c.56-.12,1.36-.28,2.39-.47,1.03-.19,2.07-.28,3.14-.28,2.25,0,3.87.39,4.87,1.17,1,.78,1.5,2.23,1.5,4.35v28.17ZM614.27,71.28h11.89v36.5l-5.52.75c-1.93,0-3.48-.58-4.63-1.73-1.16-1.15-1.73-2.67-1.73-4.54v-30.98ZM620.63,108.53v-9.73h29.76c.38.5.7,1.16.98,1.97.28.81.42,1.72.42,2.71,0,1.68-.39,2.95-1.17,3.79-.78.84-1.83,1.26-3.14,1.26h-26.86Z"/>
    <path class="cls-29" d="M673.61,84.57h-11.89v-32.95c.56-.12,1.36-.28,2.39-.47,1.03-.19,2.07-.28,3.14-.28,2.25,0,3.87.39,4.87,1.17,1,.78,1.5,2.23,1.5,4.35v28.17ZM661.72,71.28h11.89v36.5l-5.52.75c-1.93,0-3.48-.58-4.63-1.73-1.16-1.15-1.73-2.67-1.73-4.54v-30.98ZM668.09,108.53v-9.73h29.76c.38.5.7,1.16.98,1.97.28.81.42,1.72.42,2.71,0,1.68-.39,2.95-1.17,3.79-.78.84-1.83,1.26-3.14,1.26h-26.86Z"/>
    <path class="cls-33" d="M720.78,89.15l-11.61-.09v-31.17c0-1.93.58-3.46,1.73-4.59,1.15-1.12,2.7-1.68,4.63-1.68,1.06,0,2.09.09,3.09.28,1,.19,1.72.34,2.15.47v36.78ZM709.17,70.81h11.61v36.97c-.44.13-1.16.28-2.15.47-1,.19-2.03.28-3.09.28-1.93,0-3.48-.58-4.63-1.73-1.16-1.15-1.73-2.67-1.73-4.54v-31.45ZM715.54,61.17v-9.55h30.98c.31.44.59,1.06.84,1.87.25.81.37,1.68.37,2.62,0,1.62-.36,2.87-1.08,3.74-.72.87-1.76,1.31-3.14,1.31h-27.99ZM715.54,84.1v-9.36h28.17c.31.44.61,1.06.89,1.87.28.81.42,1.68.42,2.62,0,1.62-.38,2.84-1.12,3.65-.75.81-1.78,1.22-3.09,1.22h-25.27ZM715.54,108.53v-9.45h31.45c.25.44.51,1.06.8,1.87.28.81.42,1.72.42,2.71,0,1.62-.37,2.84-1.12,3.65-.75.81-1.78,1.22-3.09,1.22h-28.45Z"/>
    <path class="cls-18" d="M807.82,91.77v15.16c-.75.62-1.75,1.14-3,1.54-1.25.4-2.68.61-4.31.61-1.93,0-3.67-.31-5.19-.94-1.53-.62-2.82-2-3.88-4.12l-13.76-24.62c-.75-1.5-1.54-3.06-2.39-4.68-.84-1.62-1.64-3.21-2.39-4.77-.75-1.56-1.44-3-2.06-4.31l-11.23,2.62v-14.69c.69-.87,1.7-1.53,3.04-1.97,1.34-.44,2.79-.66,4.35-.66,1.87,0,3.59.31,5.15.94,1.56.62,2.87,1.97,3.93,4.02l13.76,24.62c.81,1.5,1.64,3.06,2.48,4.68.84,1.62,1.62,3.21,2.34,4.77.72,1.56,1.36,3,1.92,4.31l11.23-2.53ZM759.62,64.26l10.58-.28c.25,2.37.45,4.87.61,7.49.16,2.62.25,5.21.28,7.77.03,2.56.05,5.02.05,7.39v21.71c-.44.12-1.17.26-2.2.42-1.03.15-2.04.23-3.04.23-2.25,0-3.85-.39-4.82-1.17-.97-.78-1.45-2.17-1.45-4.17v-39.4ZM807.82,95.61l-10.67.28c-.5-4.8-.78-9.5-.84-14.09-.06-4.59-.09-9.03-.09-13.34v-16.85c.56-.12,1.33-.28,2.29-.47.97-.19,2.01-.28,3.13-.28,2.18,0,3.76.41,4.73,1.22.97.81,1.45,2.19,1.45,4.12v39.4Z"/>
  </g>
</svg>