<?xml version="1.0" encoding="UTF-8"?>
<svg id="Lager_1" data-name="Lager 1" xmlns="http://www.w3.org/2000/svg" viewBox="0 0 842.39 158.51">
  <defs>
    <style>
      .cls-1 {
        fill: #441919;
      }

      .cls-2 {
        fill: #3f2020;
      }

      .cls-3 {
        fill: #977f7f;
      }

      .cls-4 {
        fill: #6f4040;
      }

      .cls-5 {
        fill: #6b8080;
      }

      .cls-6 {
        fill: #b77f7f;
      }

      .cls-7 {
        fill: #56b14d;
      }

      .cls-8 {
        fill: #5f5f5f;
      }

      .cls-9 {
        fill: #60605f;
      }

      .cls-10 {
        fill: #4c2929;
      }

      .cls-11 {
        fill: #2e1d1d;
      }

      .cls-12 {
        fill: #3e3e3e;
      }

      .cls-13 {
        fill: #a77f7f;
      }

      .cls-14 {
        fill: #3a0f10;
      }

      .cls-15 {
        font-family: Baloo2-SemiBold, 'Baloo 2';
        font-size: 93.6px;
        font-weight: 600;
      }

      .cls-16 {
        letter-spacing: -.02em;
      }

      .cls-16, .cls-17 {
        fill: #fff;
      }

      .cls-18 {
        fill: #9f8e8e;
      }

      .cls-19 {
        fill: #5f1f20;
      }

      .cls-20 {
        fill: #f0ec8b;
      }

      .cls-21 {
        fill: #657575;
      }

      .cls-22 {
        fill: #f08d24;
        letter-spacing: -.02em;
      }

      .cls-23 {
        fill: #392323;
      }

      .cls-24 {
        fill: #554a4a;
      }

      .cls-25 {
        fill: #828787;
      }

      .cls-26 {
        fill: #8e8f8f;
      }

      .cls-27 {
        fill: #805f5f;
      }

      .cls-28 {
        fill: #938f8f;
      }

      .cls-29 {
        fill: #573f3e;
      }

      .cls-30 {
        fill: #e6254c;
      }

      .cls-31 {
        fill: #5b4747;
      }

      .cls-32 {
        fill: #5f4f4f;
      }

      .cls-33 {
        fill: #8079b8;
        letter-spacing: 0em;
      }

      .cls-34 {
        fill: #9d9f9f;
      }

      .cls-35 {
        fill: #3f82c4;
      }

      .cls-36 {
        fill: #554545;
      }

      .cls-37 {
        fill: #f7f6f5;
      }
    </style>
  </defs>
  <g>
    <path class="cls-17" d="M77.44,98.68c-3.82-.03-7.47-1.46-10.71-3.36.02-.77.71-.32,1.19-.31,1.35.04,2.77.03,4.09-.24.17-.04.52,0,.48-.24h-2.48c-3.84,0-10.15-4.17-12.8-6.87-.26-.27-.7-.56-.71-.96h3.44c.5,0,1.94-.26,2.51-.37.18-.03.63-.03.61-.27-4.31.34-7.94-1.36-11.6-3.36-6.3-3.45-18.33-11.21-18.22-19.3.03-2.31,1.78-6.21,4.32-6.59,4.07-.61,13.17,3.21,17.18,4.87,14.4,5.96,30.27,14.69,42.91,23.77,8.9,6.39,17.55,13.99,23.62,23.15.17.01.22.07.33-.09.21-.32.38-1.17.6-1.61.4-.78,1.36-2.42,1.95-3.01,1.11-1.11.2,1.85.17,2.09-.3,2.19-.41,4.52,0,6.69.05.28.5,1.8.62,1.94.52.59,2-.27,2.62-.6.38-.2,2.47-1.76,2.67-1.57l-.73,1.42-2.14,2.41c2.16-.69,4.5-.19,6.71,0l-.27.45c-.52-.2-7.89,1.17-7.25,1.94.17.02.39.06.53.16,3.52,2.61,7.63,6.66,10.99,9.67,2.83,2.54,5.67,5.11,8.45,7.7.4.37,2.91,2.65,2.89,2.85-.03.31-.62.22-.83.2-1.74-.2-5.41-4.31-6.9-5.65-19.27-17.34-39.61-34.26-61.07-48.87-8.88-6.05-18.06-11.87-27.78-16.43-.34-.03-1.02-.31-1.12-.64-.54-.08-1.07-.29-1.6-.64-.14-.02-.2-.07-.16-.16-.24.06-.57-.1-.64-.32-.21.1-.51-.14-.64-.32-.05.1-.11.11-.16,0-.15.05-.26-.01-.32-.16-.18-.01-.28-.07-.32-.16-.15.01-.31-.04-.48-.16l-.32-.16-.48-.16-.16-.16c-.16,0-.32-.05-.48-.16l-.32-.16q-.23-.06,0,0l.32.16c.21.07.37.17.48.32h.16l.32.16.48.16c.21.07.37.18.48.32.05-.08.11-.08.16,0,.21.07.37.18.48.32.05-.1.1-.1.16,0,.19-.04.43.13.48.32.2-.09.59.11.64.32.12-.08.2-.09.32,0,.53.2.96.47,1.28.8.46-.02,1.01.29,1.28.64,25.77,14.01,48.91,32.35,71.17,51.24.88.67-.12,1.33-.45,2.12s-.4,1.52-.52,2.35c-.09.61-.71-.28-.78-.8-.16-1.08-.02-2.28.46-3.26-.21-.19-3.43,1.04-4,1.2-3.7,1.03-7.29,1.45-11.07.51-1.27-.31-2.85-.92-3.8-1.79.94-.09,1.84.15,2.8.08s2.11-.42,2.96-.8c.19-.13.19-.18,0-.16-3.51.47-9.29-1.13-12.33-2.94-.25-.15-1.31-.72-1.26-.98.07-.35.41-.12.56-.09,5.8.92,8.24.97,13.67-1.43.1-.15-.06-.2-.48-.16-14.04,1.99-25.9-4.86-35.9-13.91-.37-.73,1.53-.44,1.92-.48.64-.07,1.36-.2,2-.32.1-.07.05-.12-.16-.16Z"/>
    <path class="cls-17" d="M171.79,115.95c-1.09-.97-2.2-2.14-2.72-3.52.18-.17,2.56,1.5,3,1.71s1.88.9,2.25.67c.16-.1.71-2.44.77-2.82.43-2.62.03-5.62-.6-8.19.18.04.33-.16.48-.09.41.19,1.94,2.82,2.21,3.39.2.42.33,1.06.5,1.39.1.19.13.12.32.1l2.65-3.83c12.78-16.18,34.66-29.12,53.02-38.12,6.56-3.21,14.25-6.79,21.25-8.82,3.61-1.04,7.39-2.33,9.82,1.37,4.37,6.67-3.29,14.3-8.33,18.03-2.67,1.97-5.79,3.94-8.71,5.52-3.59,1.94-7.09,3.65-11.33,3.3-.04.22.29.24.44.28.57.12,2.16.36,2.68.36h3.28c-.24.64-1,1.28-1.52,1.75-2.67,2.43-8.32,6.08-11.99,6.08h-2.48c-.04.23.3.21.48.24,1.32.27,2.74.28,4.09.24.23,0,1.55-.38,1.12.32-.13.2-2.6,1.44-3.01,1.62-2.47,1.07-5.09,1.67-7.78,1.73-.23.02-.23.08,0,.16.65.11,1.35.25,2,.32,1.08.12,2.88-.4,1.36,1.04-9.53,9.03-21.94,15.06-35.34,13.35l-.8-.06c.18,0,.33,0,.32.22,4.72,2.09,9.07,2.81,14.15,1.28.23.15.05.4-.08.56-.29.34-2.24,1.31-2.77,1.55-3.43,1.57-7.06,2.1-10.82,2.05l1.4.59c1.51.5,2.97.39,4.51.21.34.25-1.59,1.13-1.76,1.19-4.2,1.74-8.69,1.38-12.98.2-.56-.15-3.79-1.39-3.96-1.23.21,1.31.75,2.31.21,3.65-.19.46-.35.85-.6.19s-.28-1.38-.54-2.03c-.27-.68-1.16-1.44-.62-2.08,12.37-10.55,24.96-20.83,38.18-30.33,11.01-7.91,22.35-15.34,34.37-21.68.31-.35.81-.6,1.28-.64.04-.21.27-.41.48-.32.07-.22.55-.34.8-.32.11-.17.29-.35.48-.32.05-.1.16-.16.32-.16l.32-.16c.16-.11.32-.16.48-.16.05-.1.11-.1.16,0,.11-.15.27-.25.48-.32l.32-.16.32-.16.48-.16c.09-.17-.03-.09-.16,0-.06.08-.16.14-.32.16l-.32.16-.32.16c-.16.11-.32.17-.48.16-.05.11-.1.1-.16,0-.11.15-.27.25-.48.32l-.32.16c-.13.06-.23.06-.32,0-.1.17-.29.33-.48.32-.19.2-.69.38-.96.32.01.2-.28.39-.48.32-.31.34-.83.61-1.28.64-12.97,6.15-25.01,14.09-36.67,22.41-20.63,14.73-40.07,31.33-58.68,48.48-.78.47-1.59.98-2.52.58,4.98-4.85,10.14-9.54,15.35-14.15,2.12-1.88,4.25-3.75,6.4-5.6.31-.27.72-.61,1.12-.72.55-.81-6.65-2.11-7.25-1.94l-.27-.45c2.1-.19,4.3-.6,6.4-.16.22,0,.27-.06.16-.16Z"/>
    <path class="cls-17" d="M165.81,69.32c5.58,5.29,13.75,16.51,13.02,24.49-.37,4.02-7.2,7.47-10.8,7.75-5.43.42-10.11-3.31-15.21-3.65-4.28-.29-11.86,2.53-16.63,3.15-6,.79-17.55.29-16.67-8.36,1.1-10.85,17.41-29.2,28.28-31.21,6.94-1.28,13.26,3.31,18.02,7.83Z"/>
    <path class="cls-17" d="M176.65,23.46c6.81,9.06-1.32,29.82-13.27,29.02-9.62-.65-9.55-14.1-6.87-20.79,2.97-7.42,13.29-17.34,20.14-8.23Z"/>
    <path class="cls-17" d="M144.19,22.66c5.1,5.54,7.06,15.11,4.17,22.13-3.92,9.5-13.32,8.29-18.44.53-3.65-5.53-4.93-13.74-2.43-19.96,3.24-8.05,10.95-8.94,16.7-2.7Z"/>
    <path class="cls-17" d="M122.32,46.29c6.24,5.11,10.81,18.15,3.34,23.92s-17.45-3.68-19.78-10.93c-3.86-12.05,5.83-21.69,16.44-13Z"/>
    <path class="cls-17" d="M194.24,51.6c8.09,9.08-4.13,29.17-15.94,25.29-7.97-2.61-6.98-13.27-3.64-19.23,3.62-6.47,13.33-13.07,19.58-6.06Z"/>
    <path class="cls-11" d="M249.03,67.02c.25-.13.31-.09.16.16-.42.22-.86.42-1.28.64l-.16-.16c.43-.2.83-.44,1.28-.64Z"/>
    <path class="cls-10" d="M189.7,113.55l-.48.16c-.22-.1-.53-.12-.48-.32.36-.16.76.13.96.16Z"/>
    <path class="cls-1" d="M109.58,113.55c.21-.03.6-.32.96-.16.05.2-.26.22-.48.32l-.48-.16Z"/>
    <path class="cls-21" d="M77.44,98.68c.06,0,.35-.22.64,0v.16c-.15.02-.33-.02-.48,0l-.16-.16Z"/>
    <path class="cls-25" d="M221.68,98.68v.16c-.15-.03-.48.08-.48-.08.12-.28.42-.08.48-.08Z"/>
    <path class="cls-5" d="M171.79,115.95c.1.09.33.13.32.32-.25.1-.38-.14-.48-.16l.16-.16Z"/>
    <path class="cls-28" d="M109.42,119.14s.48-.41.32.08c-.06.17-.22.04-.32.08v-.16Z"/>
    <path class="cls-29" d="M49.29,66.54l-.16.16c-.23-.09-.34-.25-.48-.32-.11-.05-.1-.1,0-.16.24.1.42.2.64.32Z"/>
    <path class="cls-31" d="M47.85,65.9c.12.05.12.1,0,.16-.21-.09-.38-.28-.48-.32.18.06.27.07.48.16Z"/>
    <path class="cls-2" d="M48.49,66.22c.11.05.1.1,0,.16-.18-.09-.37-.14-.48-.32h.16c.12.05.22.12.32.16Z"/>
    <path class="cls-34" d="M46.41,65.26v.16c-.21-.1-.36-.26-.48-.32.14.05.25.06.48.16Z"/>
    <path class="cls-24" d="M47.37,65.74c-.18-.06-.26-.07-.48-.16h.16c.12.05.23.12.32.16Z"/>
    <path class="cls-19" d="M47.05,65.58h-.16c-.13-.05-.23-.12-.32-.16.08.04.29.08.48.16Z"/>
    <path class="cls-19" d="M48.17,66.06s-.11.02-.16,0-.12.02-.16,0v-.16c.11.05.23.07.32.16Z"/>
    <path class="cls-27" d="M45.93,65.1c-.13-.05-.24-.13-.32-.16.14,0,.23.12.32.16Z"/>
    <path class="cls-6" d="M45.61,64.94c-.15-.06-.38.12-.32-.16l.32.16Z"/>
    <path class="cls-26" d="M44.81,64.62c.09.02.22-.01.32,0v.16c-.3.09-.27-.13-.32-.16Z"/>
    <path class="cls-3" d="M44.81,64.62c-.09-.02-.22.01-.32,0v-.16c.3-.09.27.13.32.16Z"/>
    <path class="cls-4" d="M46.57,65.42s-.12.02-.16,0v-.16c.06.03.11.14.16.16Z"/>
    <path class="cls-23" d="M250.47,66.38c.1.05.1.1,0,.16-.27.14-.59.21-.8.32-.25.12-.31.09-.16-.16.35-.16.72-.21.96-.32Z"/>
    <path class="cls-12" d="M249.67,66.86c-.13.07-.28.22-.48.32l-.16-.16c.12-.05.27-.23.48-.32l.16.16Z"/>
    <path class="cls-36" d="M250.95,66.22c-.13.06-.28.22-.48.32v-.16c.11-.05.26-.23.48-.32.12.05.11.1,0,.16Z"/>
    <path class="cls-32" d="M252.07,65.74c-.19.07-.35.11-.48.16.13-.06.27-.22.48-.32.11.05.1.1,0,.16Z"/>
    <path class="cls-8" d="M252.71,65.42c-.12.05-.26.23-.48.32-.11-.05-.1-.1,0-.16.22-.1.35-.11.48-.16Z"/>
    <path class="cls-9" d="M253.67,64.94c.05-.09.1-.09.16,0l-.08.16c-.12.04-.29-.03-.4,0,.09-.04.16-.21.32-.16Z"/>
    <path class="cls-14" d="M251.27,66.06c-.11.05-.21.11-.32.16v-.16c.08-.03.24.03.32,0Z"/>
    <path class="cls-19" d="M253.03,65.26c-.08.03-.19.11-.32.16.1-.05.21-.11.32-.16Z"/>
    <path class="cls-3" d="M253.35,65.1c-.1.05-.19.11-.32.16.1-.05.15-.11.32-.16Z"/>
    <path class="cls-6" d="M253.67,64.94c-.01-.21.3-.25.32-.08l-.16.08h-.16Z"/>
    <path class="cls-18" d="M254.46,64.62c-.05.03-.02.25-.32.16v-.16c.1-.02.23.02.32,0Z"/>
    <path class="cls-13" d="M254.46,64.62c.05-.03.02-.25.32-.16v.16c-.1.02-.23-.02-.32,0Z"/>
    <path class="cls-19" d="M251.59,65.9c-.11.05-.21.11-.32.16.09-.04.19-.11.32-.16Z"/>
    <path class="cls-2" d="M252.23,65.74s-.11-.02-.16,0v-.16s.12.02.16,0v.16Z"/>
  </g>
  <text class="cls-15" transform="translate(274.98 108.43)"><tspan class="cls-16" x="0" y="0">D</tspan><tspan class="cls-20" x="59.34" y="0">J</tspan><tspan class="cls-33" x="96.59" y="0">U</tspan><tspan class="cls-37" x="157.99" y="0">R</tspan><tspan class="cls-22" x="214.05" y="0">K</tspan><tspan class="cls-17" x="266.94" y="0">O</tspan><tspan class="cls-7" x="332.08" y="0">L</tspan><tspan class="cls-30" x="379.53" y="0">L</tspan><tspan class="cls-35" x="426.98" y="0">E</tspan><tspan class="cls-17" x="477.43" y="0">N</tspan></text>
</svg>