<?xml version="1.0" encoding="UTF-8"?>
<svg id="Lager_1" data-name="Lager 1" xmlns="http://www.w3.org/2000/svg" viewBox="0 0 886.5 200.5">
  <defs>
    <style>
      .cls-1 {
        fill: #443535;
      }

      .cls-2 {
        fill: #798a8a;
      }

      .cls-3 {
        fill: #484242;
      }

      .cls-4 {
        fill: #3f2020;
      }

      .cls-5 {
        fill: #6f4040;
      }

      .cls-6 {
        fill: #583f3e;
      }

      .cls-7 {
        fill: #280c0e;
      }

      .cls-8 {
        fill: #4c3838;
      }

      .cls-9 {
        fill: #3c2c2c;
      }

      .cls-10 {
        fill: #4c2929;
      }

      .cls-11 {
        fill: #a77f7f;
      }

      .cls-12 {
        fill: #2f1111;
      }

      .cls-13 {
        fill: #5f3f3f;
      }

      .cls-14 {
        fill: #3a0f10;
      }

      .cls-15 {
        fill: #b7a5a6;
      }

      .cls-16 {
        fill: #fff;
      }

      .cls-17 {
        fill: #5f1f20;
      }

      .cls-18 {
        fill: #757474;
      }

      .cls-19 {
        fill: #4f2120;
      }

      .cls-20 {
        fill: #252626;
      }

      .cls-21 {
        fill: #493d3d;
      }

      .cls-22 {
        fill: #b49594;
      }

      .cls-23 {
        fill: #655f5f;
      }

      .cls-24 {
        fill: #597575;
      }

      .cls-25 {
        fill: #3a2f2f;
      }

      .cls-26 {
        fill: #504b4b;
      }

      .cls-27 {
        fill: #a49595;
      }

      .cls-28 {
        fill: #587f7f;
      }

      .cls-29 {
        fill: #7f7f80;
      }

      .cls-30 {
        fill: #423737;
      }

      .cls-31 {
        fill: #bf9494;
      }

      .cls-32 {
        fill: #aba6a6;
      }

      .cls-33 {
        fill: #8f7f7f;
      }
    </style>
  </defs>
  <g>
    <path class="cls-16" d="M76.16,119.85c-2.84-.06-5.49-.64-8.09-1.73-.5-.21-3.28-1.58-3.45-1.85-.45-.7.8-.34,1.02-.34,1.5.03,3.07.04,4.54-.26.19-.04.55,0,.51-.26h-2.65c-1.53,0-5.1-1.28-6.52-2.02-2.11-1.1-6.26-4.06-7.8-5.83-.17-.19-.13-.28-.12-.52h3.5c.58,0,2.19-.27,2.86-.38.16-.03.51-.07.47-.3h-2.82c-4.79,0-16.06-7.34-19.99-10.43-4.92-3.85-11.61-11.31-7.81-17.88,2.27-3.92,5.33-3.21,9.16-2.26,8.75,2.15,19.2,7.25,27.28,11.34,18.77,9.5,40.28,22.42,53.48,39.01,1.11,1.4,2.03,2.93,3.17,4.31.38.06.2-.07.26-.25.61-1.91,1.54-3.18,2.6-4.83.67-.43.68.1.6.68-.39,2.81-.89,5.32-.43,8.2.07.42.55,2.49.72,2.7.34.4,1.06.05,1.45-.09,1.5-.52,2.68-1.66,4.1-2.3.06.51-.3.86-.54,1.25l-2.36,2.85c1.78-.55,4.17-.45,6.02-.12.84.15,1.87.38.39.63-1.87.32-5.68.57-7.16,1.7-.17.13-.13.15-.1.35l24.27,21.62c.21.97-2.31-.02-2.63-.46-22.2-20.36-45.43-40.06-70.37-57.1-9.63-6.58-20.44-13.62-31.09-18.38-.22.04-.28-.02-.17-.17h-.17l-.17-.17c-.25.12-.87-.09-1.03-.34-.33.07-.77-.28-1.03-.51-.3,0-.63-.29-.85-.51-.17.1-.4,0-.51-.17-.15.03-.32-.03-.51-.17-.22-.08-.39-.19-.51-.34-.05.11-.11.11-.17,0-.16.01-.33-.04-.51-.17-.16-.03-.27-.08-.34-.17-.13-.12-.18-.12-.17,0l.51.17c.22.07.39.19.51.34.06-.11.11-.11.17,0,.17-.01.34.05.51.17.22.08.39.19.51.34.19-.05.43,0,.51.17.3,0,.67.29.85.51.3.02.73.24.85.51.4-.02,1.05.13,1.2.51.26-.08.38-.02.34.17l.17.17c25.33,13.74,49.04,31.44,70.96,50.06,1.76,1.49,3.78,3.13,5.44,4.69.21.2.85.73.82,1-.03.35-.93,1.55-1.11,2.14-.13.42-.3,3.1-.95,1.69-.58-1.25-.11-2.79.21-4.05-.21-.2-3.39,1.08-3.97,1.24-4.68,1.33-9.68,1.77-14.26-.18-.32-.14-2.72-1.24-1.33-1.23,2.19.02,2.96.37,5.21-.51.49-.23.6-.34.34-.34-3.84.46-9.69-1.21-13.04-3.11-.2-.26-1.62-.75-1.49-1.07.15-.36.4-.18.64-.14,6.14,1.08,8.99,1.05,14.74-1.49.02-.18-.21-.24-.68-.17-7.3.98-14.63-.15-21.31-3.22-6.25-2.88-12.04-7.18-17.06-11.82-.23-.54,1.85-.31,2.22-.34.68-.07,1.46-.22,2.14-.34.24-.09.24-.15,0-.17Z"/>
    <path class="cls-16" d="M176.83,138.48c-.94-1.22-2.55-2.27-2.9-3.93.25-.25,1.38.82,1.66.99.63.39,3.34,2.08,3.9,1.4.91-1.09,1.05-6.12.94-7.6-.09-1.16-.56-2.49-.6-3.68,0-.16-.11-.47.18-.51.61-.08,3.04,4.49,3.25,5.29,1.75-2.18,3.31-4.53,5.13-6.66,12.77-14.98,32.95-27.15,50.39-36.07,8.13-4.16,17.67-8.74,26.4-11.37,3.44-1.04,7.85-2.52,10.53.65,4.89,5.76-.98,13.64-5.46,17.58-3.99,3.51-16.6,11.79-21.7,11.79h-2.82c-.03.26.46.25.65.29.61.12,2.15.39,2.68.39h3.67c-.83,1.12-2.07,2.2-3.17,3.07-2.76,2.19-7.86,5.3-11.45,5.3h-2.65c-.03.25.46.26.65.29,1.4.24,2.98.27,4.4.23.45-.02,1.56-.49,1.02.34-.17.26-2.18,1.28-2.62,1.49-2.58,1.2-5.89,2.12-8.75,2.1-.28,0-.28.05,0,.17.64.1,1.33.27,1.97.34.27.03,2.71-.21,2.3.51-8.13,6.99-17.04,13.33-27.97,14.84-3.72.52-6.78.38-10.48.03l-.34-.17c-.16-.01-.35-.01-.51,0,0,.15.12.26.34.34,5.99,2.53,8.18,2.55,14.61,1.53.17-.03.53-.28.6.1.06.3-1.09.87-1.36,1.03-2.74,1.56-5.86,2.58-9,2.96-1.38.17-2.78.1-4.17.19-.12.05-.11.11,0,.17,1.64.6,2.73.91,4.53.85.16,0,1.71-.45,1.45.09-.1.2-1.45.84-1.76.97-4.51,1.92-9.51,1.52-14.13.23-.6-.17-3.86-1.5-4.1-1.28.47.64.65,4.21.08,4.44-.43.18-.35.02-.42-.26-.18-.7-.25-1.56-.51-2.23-.48-1.24-1.57-1.37-.35-2.56,2.97-2.9,6.93-5.92,10.18-8.62,19.99-16.62,43.45-34.55,66.57-46.47.33-.37.87-.65,1.37-.68.05-.15.11-.15.17,0,.31-.29.76-.7,1.2-.68.05-.09.11-.09.17,0-.05-.19.16-.35.34-.34.04-.12.15-.12.34,0,0-.19.32-.37.51-.34.06-.16.18-.22.34-.17.05-.11.11-.11.17,0,.11-.19.3-.36.51-.34.04-.11.15-.17.34-.17.15-.07.26-.07.34,0,.12-.15.3-.26.51-.34.12-.11.2-.08.34,0,.02-.13.14-.25.34-.34l.34-.17q.39-.13,0,0l-.34.17c-.17.19-.34.25-.51.17.09.08.03.14-.17.17-.17.13-.34.19-.51.17-.04.11-.16.17-.34.17-.15.07-.26.07-.34,0-.11.18-.32.36-.51.34-.06.11-.11.11-.17,0-.06.16-.18.22-.34.17-.15.2-.45.45-.68.34-.06.11-.11.11-.17,0-.1.2-.3.4-.51.34-.05.09-.1.09-.17,0-.08.26-.58.56-.85.51-.15.18-.29.31-.51.17-.33.36-.88.65-1.37.68-13.33,6.44-25.78,14.54-37.83,23.09-22.64,16.07-43.68,34.23-64.22,52.83-.67.35-2.72.88-1.69-.33,7.89-7.2,15.75-14.47,23.92-21.35.12-.43-1.98-1.09-2.39-1.2-1.59-.42-3.26-.49-4.87-.77-.98-.17-1.04-.31-.03-.55,1.7-.4,4.57-.48,6.27-.14.12.09.27.14.17,0Z"/>
    <path class="cls-16" d="M168.9,87.12c6.18,5.45,16.12,18.46,15.44,27.01-.37,4.63-7.18,8.4-11.39,8.78-5.19.47-9.32-2.39-14.08-3.48-3.06-.7-4.75-.28-7.72.31-8.63,1.71-19.77,5.83-27.71.09-6.47-4.68,1.07-16.74,4.53-21.55,5.42-7.53,17.04-19.21,27.06-18.39,4.88.4,10.29,4.08,13.87,7.24Z"/>
    <path class="cls-16" d="M178.98,64.6c-10.32,12.47-22.63,3.7-20.05-11.07,1.41-8.08,9.76-21.32,19.5-17.02s6.18,21.29.55,28.09Z"/>
    <path class="cls-16" d="M146.86,38.08c5.95,5.98,8.12,17.6,4.4,25.2-3.32,6.78-10.24,8.22-16.04,3.26-7.1-6.06-9.68-19.61-4.5-27.55,4.1-6.29,11.11-5.98,16.15-.91Z"/>
    <path class="cls-16" d="M125.12,65.11c5.98,5.77,10.2,19.73,1.52,24.81s-17.7-4.27-20.23-11.83c-4.74-14.24,7.37-23.93,18.71-12.98Z"/>
    <path class="cls-16" d="M197.78,91.59c-4.62,5.1-14.13,8.58-18.69,1.49-7.48-11.61,7.82-32.38,19.57-25.37,8.35,4.98,4.47,17.99-.87,23.88Z"/>
    <path class="cls-25" d="M258.87,86.2c.19-.04.25-.02.17.17-.45.22-.92.46-1.37.68l-.17-.17c.46-.22.89-.46,1.37-.68Z"/>
    <path class="cls-10" d="M110.17,135.74c.28-.04.75-.34,1.2-.17.06.21-.28.24-.51.34l-.68-.17Z"/>
    <path class="cls-24" d="M230.15,119.85v.17c-.16-.03-.35.02-.51,0,.19-.57.47-.17.51-.17Z"/>
    <path class="cls-2" d="M76.16,119.85c.07,0,.39-.21.51.09,0,.17-.36.06-.51.09v-.17Z"/>
    <path class="cls-26" d="M110,141.72c.08,0,.29-.24.34-.17.13.48-.32.37-.68.51l.34-.34Z"/>
    <path class="cls-21" d="M48.65,86.88c-.13-.02-.19.04-.17.17-.1-.06-.23-.12-.34-.17-.22-.19-.1-.25.34-.17.06.03.11.15.17.17Z"/>
    <path class="cls-8" d="M195.12,135.57l.34.34c-.25-.11-.73-.06-.68-.34.11,0,.23,0,.34,0Z"/>
    <path class="cls-8" d="M195.97,135.74c-.14-.01-.3,0-.34-.17.14.01.29,0,.34.17Z"/>
    <path class="cls-28" d="M176.83,138.48s.11-.03.17.09l-.09.09c-.33-.01-.24-.17-.25-.17h.17Z"/>
    <path class="cls-30" d="M196.14,141.72v.17c-.11-.04-.34.09-.34-.09,0-.15.23-.08.34-.09Z"/>
    <path class="cls-20" d="M48.65,87.22c-.14-.01-.15-.04-.17-.17.07.04.12.11.17.17Z"/>
    <path class="cls-9" d="M47.11,86.2l-.17.17c-.29-.15-.57-.36-.85-.51-.09-.05-.09-.11,0-.17.41.18.71.37,1.03.51Z"/>
    <path class="cls-1" d="M46.08,85.69v.17c-.33-.17-.62-.39-.85-.51-.15-.05-.15-.11,0-.17.33.14.63.41.85.51Z"/>
    <path class="cls-17" d="M45.23,85.17v.17c-.09-.04-.29-.05-.51-.17-.09-.05-.09-.11,0-.17.15.06.33.09.51.17Z"/>
    <path class="cls-19" d="M43.52,84.49c.11.05.11.11,0,.17-.25-.1-.36-.26-.51-.34.26.06.34.11.51.17Z"/>
    <path class="cls-32" d="M41.12,83.47c.1.05.1.11,0,.17-.11-.03-.52-.17-.51-.26.15-.28.4.03.51.09Z"/>
    <path class="cls-13" d="M44.2,84.83c-.13-.05-.32-.1-.51-.17-.11-.05-.11-.11,0-.17.24.11.36.26.51.34Z"/>
    <path class="cls-4" d="M44.71,85v.17c-.28-.14-.42-.29-.51-.34.16.06.33.1.51.17Z"/>
    <path class="cls-31" d="M41.98,83.81c.1.05.1.11,0,.17-.22,0-.36-.26-.51-.34.15.04.45-.08.51.17Z"/>
    <path class="cls-18" d="M43,84.32c-.12-.03-.29.03-.42,0l-.09-.17c.05-.11.11-.11.17,0,.17-.05.25.12.34.17Z"/>
    <path class="cls-29" d="M41.47,83.64c-.1-.03-.24.03-.34,0v-.17c.12.06.22.1.34.17Z"/>
    <path class="cls-11" d="M42.66,84.15h-.17l-.17-.09c.02-.18.35-.14.34.09Z"/>
    <path class="cls-5" d="M41.98,83.98v-.17c.22,0,.22.17,0,.17Z"/>
    <path class="cls-21" d="M48.3,86.71c-.07-.03-.13-.11-.17-.17.07.04.12.11.17.17Z"/>
    <path class="cls-14" d="M43.69,84.66s-.12.02-.17,0v-.17c.05.02.13-.02.17,0v.17Z"/>
    <path class="cls-3" d="M260.41,85.69c-.32.32-.79.48-1.2.68-.22-.04-.16-.16.17-.34.18-.08.38-.41.85-.51l.17.17Z"/>
    <path class="cls-23" d="M261.77,85c-.14.07-.28.24-.51.34-.11-.02-.18-.05-.17-.17.22-.1.44-.23.68-.34.12.05.12.11,0,.17Z"/>
    <path class="cls-6" d="M260.92,85.34s-.12.27-.34.34l-.17-.17c.12-.19.32-.25.51-.34.15.05.15.11,0,.17Z"/>
    <path class="cls-17" d="M262.8,84.49c-.12.06-.29.24-.51.34-.11-.05-.11-.11,0-.17.1-.04.28-.25.51-.34.12.05.12.11,0,.17Z"/>
    <path class="cls-27" d="M263.99,83.98c-.14.07-.25.27-.51.34-.13-.05-.12-.11,0-.17.23-.1.4-.12.51-.17Z"/>
    <path class="cls-15" d="M264.68,83.64s-.11.27-.34.34c-.11-.02-.18-.05-.17-.17.25-.12.41-.12.51-.17Z"/>
    <path class="cls-4" d="M262.11,84.83c-.11.05-.23.11-.34.17v-.17c.12-.05.22-.13.34-.17.11.05.11.11,0,.17Z"/>
    <path class="cls-22" d="M265.02,83.47c.09-.03.26-.29.51-.17v.17c-.16.03-.39-.04-.51,0Z"/>
    <path class="cls-12" d="M261.26,85.34c-.08.04-.26-.04-.34,0v-.17s.12.02.17,0l.17.17Z"/>
    <path class="cls-19" d="M263.48,84.15v.17c-.1.03-.26-.03-.34,0,.11-.05.22-.12.34-.17Z"/>
    <path class="cls-5" d="M264.34,83.98c-.1.03-.27-.03-.34,0,.06-.03.11-.14.17-.17l.17.17Z"/>
    <path class="cls-14" d="M263.14,84.32c-.11.05-.22.12-.34.17v-.17c.08-.03.25.03.34,0Z"/>
    <path class="cls-33" d="M265.02,83.47c-.06.02-.23.12-.34.17.1-.04.17-.11.34-.17Z"/>
    <path class="cls-7" d="M262.29,84.83s-.12-.02-.17,0v-.17s.12.02.17,0v.17Z"/>
  </g>
  <g>
    <path class="cls-16" d="M344.33,117.43c-2.73,4.77-6.53,8.32-11.4,10.65-4.87,2.33-10.6,3.5-17.2,3.5-2.2,0-4.8-.12-7.8-.35-3-.23-5.77-.78-8.3-1.65-3.27-1.13-4.9-3.1-4.9-5.9v-49.1c0-1.27.35-2.23,1.05-2.9.7-.67,1.62-1.2,2.75-1.6,2.47-.73,5.15-1.23,8.05-1.5,2.9-.27,5.62-.4,8.15-.4,6.73,0,12.62,1.15,17.65,3.45,5.03,2.3,8.97,5.75,11.8,10.35,2.83,4.6,4.25,10.43,4.25,17.5s-1.37,13.18-4.1,17.95ZM332.78,87.63c-1.77-3.1-4.17-5.4-7.2-6.9-3.03-1.5-6.48-2.25-10.35-2.25-1.47,0-2.85.05-4.15.15-1.3.1-2.55.25-3.75.45v41.5c1.2.27,2.53.45,4,.55,1.47.1,2.93.15,4.4.15,6.2,0,11.03-1.82,14.5-5.45,3.47-3.63,5.2-9.02,5.2-16.15,0-4.93-.88-8.95-2.65-12.05Z"/>
    <path class="cls-16" d="M370.04,101.38h12.6v12.6c0,3.93-.77,7.22-2.3,9.85-1.53,2.63-3.65,4.58-6.35,5.85-2.7,1.27-5.85,1.9-9.45,1.9s-6.47-.55-8.6-1.65c-2.13-1.1-3.2-2.82-3.2-5.15,0-1.13.2-2.12.6-2.95.4-.83.8-1.48,1.2-1.95,1.13.4,2.28.72,3.45.95,1.17.23,2.38.35,3.65.35,2.87,0,4.98-.68,6.35-2.05,1.37-1.37,2.05-3.52,2.05-6.45v-11.3ZM382.64,106.28h-12.6v-36.7c.53-.13,1.37-.3,2.5-.5,1.13-.2,2.23-.3,3.3-.3,2.33,0,4.05.42,5.15,1.25,1.1.83,1.65,2.38,1.65,4.65v31.6Z"/>
    <path class="cls-16" d="M410.43,104.98h-12.6v-35.4c.53-.13,1.35-.3,2.45-.5,1.1-.2,2.22-.3,3.35-.3,2.4,0,4.13.42,5.2,1.25,1.07.83,1.6,2.38,1.6,4.65v30.3ZM423.03,131.78c-5.27,0-9.8-.95-13.6-2.85-3.8-1.9-6.68-4.58-8.65-8.05-1.97-3.47-2.95-7.53-2.95-12.2v-7.2h12.6v6.7c0,4.27,1.18,7.55,3.55,9.85,2.37,2.3,5.38,3.45,9.05,3.45s6.6-1.15,9-3.45c2.4-2.3,3.6-5.58,3.6-9.85v-6.7h12.7v7.2c0,4.67-1,8.73-3,12.2-2,3.47-4.88,6.15-8.65,8.05-3.77,1.9-8.32,2.85-13.65,2.85ZM448.33,105.08h-12.7v-35.5c.53-.13,1.37-.3,2.5-.5,1.13-.2,2.27-.3,3.4-.3,2.33,0,4.05.42,5.15,1.25,1.1.83,1.65,2.38,1.65,4.65v30.4Z"/>
    <path class="cls-16" d="M485.33,108.88h-21.8v-34.3c0-1.2.35-2.13,1.05-2.8.7-.67,1.62-1.2,2.75-1.6,2.13-.67,4.65-1.17,7.55-1.5,2.9-.33,5.85-.5,8.85-.5,8.8,0,15.38,1.82,19.75,5.45,4.37,3.63,6.55,8.62,6.55,14.95,0,4-1.02,7.53-3.05,10.6-2.04,3.07-4.88,5.45-8.55,7.15-3.67,1.7-8.03,2.55-13.1,2.55ZM463.53,104.48h12.7v25.6c-.54.2-1.35.38-2.45.55-1.1.17-2.25.25-3.45.25-2.4,0-4.13-.45-5.2-1.35-1.07-.9-1.6-2.42-1.6-4.55v-20.5ZM476.13,98.98h8.3c3.93,0,7.07-.87,9.4-2.6,2.33-1.73,3.5-4.3,3.5-7.7s-1.17-5.87-3.5-7.6c-2.33-1.73-5.77-2.6-10.3-2.6-1.33,0-2.63.05-3.9.15-1.27.1-2.43.25-3.5.45v19.9ZM483.63,105.68l10.8-3.1c1.67,2.2,3.38,4.42,5.15,6.65,1.77,2.23,3.47,4.4,5.1,6.5,1.63,2.1,3.1,4.02,4.4,5.75,1.3,1.73,2.32,3.17,3.05,4.3-.47,1.67-1.35,2.97-2.65,3.9-1.3.93-2.72,1.4-4.25,1.4-2,0-3.55-.45-4.65-1.35s-2.15-2.12-3.15-3.65l-13.8-20.4Z"/>
    <path class="cls-16" d="M536.13,104.58h-12.7v-35c.6-.13,1.45-.3,2.55-.5,1.1-.2,2.22-.3,3.35-.3,2.4,0,4.13.42,5.2,1.25,1.07.83,1.6,2.38,1.6,4.65v29.9ZM523.43,89.98h12.7v40.2c-.54.13-1.35.3-2.45.5-1.1.2-2.25.3-3.45.3-2.4,0-4.13-.45-5.2-1.35-1.07-.9-1.6-2.42-1.6-4.55v-35.1ZM544.73,102.88l-15.2-.1,30.9-33.7c3.07.07,5.3.7,6.7,1.9,1.4,1.2,2.1,2.67,2.1,4.4,0,1.27-.32,2.47-.95,3.6-.63,1.13-1.65,2.37-3.05,3.7l-20.5,20.2ZM531.03,98.48l13.1-2.7c6.13,6.27,11.53,11.85,16.2,16.75,4.67,4.9,8.5,8.82,11.5,11.75,0,2.13-.68,3.82-2.05,5.05-1.37,1.23-2.95,1.85-4.75,1.85-1.93,0-3.55-.5-4.85-1.5s-2.58-2.17-3.85-3.5l-25.3-27.7Z"/>
    <path class="cls-16" d="M637.23,99.88c0,6.93-1.32,12.77-3.95,17.5-2.63,4.73-6.23,8.32-10.8,10.75-4.57,2.43-9.75,3.65-15.55,3.65s-10.88-1.22-15.45-3.65c-4.57-2.43-8.17-6.02-10.8-10.75-2.63-4.73-3.95-10.57-3.95-17.5s1.35-12.77,4.05-17.5c2.7-4.73,6.33-8.32,10.9-10.75,4.57-2.43,9.65-3.65,15.25-3.65s10.88,1.22,15.45,3.65c4.57,2.43,8.18,6.02,10.85,10.75,2.67,4.73,4,10.57,4,17.5ZM624.33,99.88c0-7-1.58-12.33-4.75-16-3.17-3.67-7.38-5.5-12.65-5.5s-9.28,1.83-12.45,5.5c-3.17,3.67-4.75,9-4.75,16s1.57,12.43,4.7,16.1c3.13,3.67,7.33,5.5,12.6,5.5s9.47-1.83,12.6-5.5c3.13-3.67,4.7-9.03,4.7-16.1Z"/>
    <path class="cls-16" d="M662.23,104.78h-12.7v-35.2c.6-.13,1.45-.3,2.55-.5,1.1-.2,2.22-.3,3.35-.3,2.4,0,4.13.42,5.2,1.25,1.07.83,1.6,2.38,1.6,4.65v30.1ZM649.53,90.58h12.7v39l-5.9.8c-2.07,0-3.72-.62-4.95-1.85-1.23-1.23-1.85-2.85-1.85-4.85v-33.1ZM656.33,130.38v-10.4h31.8c.4.53.75,1.23,1.05,2.1.3.87.45,1.83.45,2.9,0,1.8-.42,3.15-1.25,4.05-.83.9-1.95,1.35-3.35,1.35h-28.7Z"/>
    <path class="cls-16" d="M712.93,104.78h-12.7v-35.2c.6-.13,1.45-.3,2.55-.5,1.1-.2,2.22-.3,3.35-.3,2.4,0,4.13.42,5.2,1.25,1.07.83,1.6,2.38,1.6,4.65v30.1ZM700.23,90.58h12.7v39l-5.9.8c-2.07,0-3.72-.62-4.95-1.85-1.23-1.23-1.85-2.85-1.85-4.85v-33.1ZM707.03,130.38v-10.4h31.8c.4.53.75,1.23,1.05,2.1.3.87.45,1.83.45,2.9,0,1.8-.42,3.15-1.25,4.05-.83.9-1.95,1.35-3.35,1.35h-28.7Z"/>
    <path class="cls-16" d="M763.33,109.68l-12.4-.1v-33.3c0-2.07.62-3.7,1.85-4.9,1.23-1.2,2.88-1.8,4.95-1.8,1.13,0,2.23.1,3.3.3,1.07.2,1.83.37,2.3.5v39.3ZM750.93,90.08h12.4v39.5c-.47.13-1.23.3-2.3.5-1.07.2-2.17.3-3.3.3-2.07,0-3.72-.62-4.95-1.85-1.23-1.23-1.85-2.85-1.85-4.85v-33.6ZM757.73,79.78v-10.2h33.1c.33.47.63,1.13.9,2,.27.87.4,1.8.4,2.8,0,1.73-.38,3.07-1.15,4-.77.93-1.88,1.4-3.35,1.4h-29.9ZM757.73,104.28v-10h30.1c.33.47.65,1.13.95,2,.3.87.45,1.8.45,2.8,0,1.73-.4,3.03-1.2,3.9-.8.87-1.9,1.3-3.3,1.3h-27ZM757.73,130.38v-10.1h33.6c.27.47.55,1.13.85,2,.3.87.45,1.83.45,2.9,0,1.73-.4,3.03-1.2,3.9-.8.87-1.9,1.3-3.3,1.3h-30.4Z"/>
    <path class="cls-16" d="M856.33,112.48v16.2c-.8.67-1.87,1.22-3.2,1.65-1.33.43-2.87.65-4.6.65-2.07,0-3.92-.33-5.55-1-1.63-.67-3.02-2.13-4.15-4.4l-14.7-26.3c-.8-1.6-1.65-3.27-2.55-5-.9-1.73-1.75-3.43-2.55-5.1-.8-1.67-1.54-3.2-2.2-4.6l-12,2.8v-15.7c.73-.93,1.82-1.63,3.25-2.1,1.43-.47,2.98-.7,4.65-.7,2,0,3.83.33,5.5,1,1.67.67,3.07,2.1,4.2,4.3l14.7,26.3c.87,1.6,1.75,3.27,2.65,5,.9,1.73,1.73,3.43,2.5,5.1.77,1.67,1.45,3.2,2.05,4.6l12-2.7ZM804.83,83.08l11.3-.3c.27,2.53.48,5.2.65,8,.17,2.8.27,5.57.3,8.3.03,2.73.05,5.37.05,7.9v23.2c-.47.13-1.25.28-2.35.45-1.1.17-2.18.25-3.25.25-2.4,0-4.12-.42-5.15-1.25-1.03-.83-1.55-2.32-1.55-4.45v-42.1ZM856.33,116.58l-11.4.3c-.53-5.13-.83-10.15-.9-15.05-.07-4.9-.1-9.65-.1-14.25v-18c.6-.13,1.42-.3,2.45-.5,1.03-.2,2.15-.3,3.35-.3,2.33,0,4.02.43,5.05,1.3,1.03.87,1.55,2.33,1.55,4.4v42.1Z"/>
  </g>
</svg>