<?xml version="1.0" encoding="UTF-8"?>
<svg id="Lager_1" data-name="Lager 1" xmlns="http://www.w3.org/2000/svg" viewBox="0 0 614.4 384">
  <defs>
    <style>
      .cls-1 {
        fill: #f18d26;
      }

      .cls-2 {
        fill: #f39c42;
      }

      .cls-3 {
        fill: #fc6450;
      }
    </style>
  </defs>
  <g>
    <path class="cls-1" d="M302.28,176.77c.52-.39,1.38-.36,1.92,0,.29.18.69.22.71.25.05.06-.25.82-.2,1.25.13,1.05,1.21,1.16.2,2.4-.68.83-1.6.45-.24,1.75,2.06,1.97,4.05.79,6.02,1.9,1.05.59.89,1.61,1.57,2.03.57.35,1.22.17,1.78.38.96.35,2,1.54,3.12,1.23,1.87-.52-.36-2.88,2.3-3.96,2.14-.86,2.01.44,3.32.95.6.24,2.43.85,3.06,1.02.89.24,5.09,1.13,5.67.97,1.01-.28,1.04-.99,2.51-.75,2.08.34,1.14,2.48,1.81,4.2.27.68,1.09,1.65,1.43,2.41,1.14,2.52,2.21,5.19,3.37,7.67.41.87,1.2,1.52,1.5,2.57.4,1.41-.05,3.08.41,4.15.32.74,1.48,1.02,1.92,1.91.55,1.09.4,2.78,1.01,3.79.51.86,1.84,1.4,2.5,2.06.4.4,2.54,2.99,2.66,3.35.33.95-.35,1.07-.32,1.51.04.55,1.83,2.34,2.44,2.27.38-.04.69-.52,1.05-.62,1.51-.39,3.64-.52,5.16-.84.97-.2,1.88-.61,2.82-.9-.02.59.05,1.2,0,1.8-.28,3.11-4.57,11.21-6.83,13.56-1.31,1.37-3.15,2.16-4.44,3.72-.93,1.12-1.57,2.61-2.45,3.8-1.41,1.92-2.73,3.22-3.68,5.66-1,2.57-.02,2.81.26,5.03.06.46-.18.88-.12,1.3.32,2.21,1.15,2.9,1.27,5.27.17,3.16,1.01,6.32-1.4,8.8-.9.93-2.06.93-3.01,1.79-.65.59-.76,1.24-1.19,1.69-.78.81-2.7,1.76-2.64,3.09.02.44.36.86.42,1.28.21,1.5.75,4.49.17,5.82-.36.83-1.93,1.06-2.6,1.48-1.79,1.1-.73,1.69-.89,3.18-.04.4-.58,2.57-.74,2.87-.33.64-1.1.83-1.52,1.36-.58.71-.82,2.01-1.33,2.75-.62.9-3.73,4.25-4.63,4.73-.31.16-2.91.83-3.23.85-.8.04-2.05-.38-2.82-.3-.58.06-.89.84-1,.85-.38.05-.77-.22-1.13-.18-1.09.11-1.11,1.36-2.68-.3s-.34-2.6-.64-4.15c-.13-.7-.96-1.77-1.23-2.62s-.17-1.71-.55-2.57-1.37-1.56-1.82-2.5c-1.17-2.46-.97-6.71-1.5-9.29-.21-1-.98-1.85-1.34-2.74-1.21-2.98-2.59-5.31-2.13-8.62.18-1.32,1.27-4.81,1.91-5.96.1-.18.42-.22.61-.63,1.06-2.27-.44-3.06-.62-4.73-.08-.78.28-1.31.14-2.26-.12-.77-1.79-5.48-2.18-6.23-.86-1.66-4.46-4.36-3.91-6.53.14-.54.77-1.1.86-2.05.06-.64-.18-1.06-.14-1.55.14-1.65,1.46-2.12.05-4.24-1.96-2.94-3.69.03-5.22-.96-.63-.41-.73-3.37-2.43-3.51-1.03-.08-2.9.02-3.87.37-.67.24-.91.72-.97.72-.28.01-.46-.27-.98-.06-.55.22-1.82,1.53-2.65,1.71-.59.13-1.21-.56-1.88-.66-1.2-.19-2.79-.05-3.94.35-.93.33-1.71,1.27-2.7,1.02-1.23-.3-4.9-4.8-6.55-5.46-.96-.92-.85-2.55-1.49-3.55-.48-.74-1.64-1.36-2.18-2.37-.22-.41-.25-1.21-.3-1.26-.19-.19-1.4.2-1.75-1-.28-.95,0-1.79-.19-2.7-.1-.48-.69-1.05-.62-1.45s.96-1.13,1.1-1.77c.13-.58.56-3.27.55-3.79-.02-.83-.49-1.46-.51-2.17-.01-.48.29-.97.21-1.38-.09-.44-.92-1.1-1.06-1.61-.24-.86,1.56-3.94,2.1-4.88.25-.43.8-.74.98-1.18.27-.64.1-1.27.45-1.95.26-.51,1.04-.98,1.41-1.47s.33-1.12.83-1.57c.43-.39,1.45-.65,2.05-.95.51-.35,1.26-.97,1.2-1.2,1.88-1.91,1.11-1.88,1.5-4.14.07-.42.58-1.71.81-2.07.81-1.28,2.47-1.42,3.35-2.41.51-.57.72-1.85,1.06-2.05.81-.49,1.71.27,2.52.37.72.09,2.65.09,3.35-.02,1.32-.21,3.21-2.07,4.39-2.33,3.18-.68,7.23-.5,10.62-.78ZM298.44,181.81c.22.24,1.4-.67.6-.96-.76-.27-.63.33-.6.96ZM330.35,187.81c-1.28-.35-3.28.64-3.12,2.15h1.68s-.13-.95-.13-.95l1.57-1.2ZM320.03,189c-.28-.32-.29-1.14-.72-1.2-.32.65-.04,1.18.72,1.2ZM347.62,217.06c-.17-.86-.32-1.98-1.19-2.4.11.82.3,2.21,1.19,2.4Z"/>
    <path class="cls-3" d="M304.2,176.77c-.63.04-1.29-.05-1.92,0,.21-.64,1.15-.61,1.68-.36.15.07.19.33.24.36Z"/>
    <path class="cls-2" d="M273.49,191.4c.23-.57.84-.83,1.2-1.2l.24.12c-.34.27-.64.75-.96.99-.45.33-.45.08-.47.09Z"/>
  </g>
  <g>
    <path d="M314.3,224.49h-.04c-.08.22-.16.46-.26.74s-.19.56-.29.86c-.1.3-.2.58-.29.86l-.13.56c-.04.11-.07.24-.11.38-.04.14-.08.28-.13.42-.05.14-.09.27-.13.4-.04.13-.07.24-.1.33-.06.02-.12.03-.19.05-.07.01-.15.02-.25.02-.19,0-.34-.04-.45-.11-.11-.08-.17-.19-.17-.34,0-.07.01-.13.03-.21.02-.07.04-.15.07-.24.06-.2.14-.45.24-.74.1-.3.21-.62.33-.97.12-.35.25-.7.37-1.05.13-.35.25-.69.36-.99.11-.31.21-.57.3-.78.07-.04.18-.08.33-.12s.3-.05.46-.05c.2,0,.39.03.56.09.17.06.28.16.32.29.13.33.26.71.41,1.13.14.43.29.87.44,1.33.15.46.29.91.43,1.35.14.44.26.83.37,1.19-.06.07-.14.12-.25.16-.1.04-.23.06-.36.06-.2,0-.34-.04-.43-.11-.09-.08-.15-.19-.2-.35l-.37-1.18-.12-.58c-.1-.31-.19-.61-.28-.9-.09-.3-.18-.58-.27-.83s-.16-.48-.22-.67ZM312.79,227.72l.42-.89h2.25l.17.89h-2.84Z"/>
    <path d="M318.66,224.61v1.16h-1.06v-1.21c0-.38.08-.69.23-.92.15-.24.37-.41.64-.52.27-.11.58-.17.93-.17.39,0,.69.05.89.15.2.1.31.25.31.46,0,.09-.02.17-.06.25-.04.07-.08.14-.14.18-.11-.05-.24-.09-.38-.12-.14-.03-.29-.04-.45-.04-.32,0-.55.06-.69.18-.14.12-.22.32-.22.59ZM317.6,225.46h1.11v3.55s-.12.03-.21.05c-.09.02-.19.02-.3.02-.2,0-.36-.04-.46-.11-.1-.08-.15-.21-.15-.4v-3.11ZM318.49,225.91v-.86h1.81s.05.1.08.17c.03.08.04.16.04.26,0,.15-.04.26-.1.33s-.17.1-.29.1h-1.53Z"/>
    <path d="M322.14,225.78v1.23h-1.11v-1.32c0-.15.04-.28.11-.38.07-.1.17-.2.31-.29.18-.11.41-.2.68-.27.28-.07.57-.11.89-.11.56,0,.85.17.85.52,0,.08-.01.16-.04.23-.02.07-.05.13-.09.18-.06-.01-.13-.02-.23-.03-.09,0-.19-.01-.29-.01-.22,0-.42.02-.61.07-.19.04-.35.11-.48.18ZM321.04,226.65l1.11.05v2.3s-.12.03-.21.05c-.09.02-.19.02-.3.02-.2,0-.36-.04-.45-.11s-.15-.21-.15-.4v-1.92Z"/>
    <path d="M324.55,223.5c0-.17.06-.32.18-.44s.28-.18.46-.18.35.06.46.18.17.27.17.44-.06.31-.17.44-.27.18-.46.18-.34-.06-.46-.18-.18-.27-.18-.44ZM325.75,227.21h-1.12v-2.41s.12-.04.21-.05.19-.02.3-.02c.21,0,.36.04.46.11s.14.21.14.41v1.96ZM324.64,226.65h1.12v2.36s-.12.03-.21.05c-.09.02-.19.02-.3.02-.2,0-.36-.04-.46-.11-.1-.08-.15-.21-.15-.4v-1.92Z"/>
    <path d="M328.08,227.25l-1.11-.05v-4.02s.12-.03.21-.04c.09-.02.19-.03.3-.03.21,0,.36.04.46.11.1.08.14.21.14.4v3.64ZM326.97,226.63l1.11.05v2.32s-.12.03-.21.05c-.09.02-.19.02-.3.02-.2,0-.36-.04-.46-.11-.1-.08-.15-.21-.15-.4v-1.93ZM328.58,227.23l-.77-.51,2.04-2.03c.22,0,.4.06.53.16.13.1.2.23.2.38,0,.13-.04.24-.13.34-.09.1-.22.23-.39.38l-1.48,1.29ZM327.83,226.88l.86-.41,2.1,1.97c-.02.2-.08.35-.18.47-.1.11-.24.17-.42.17-.14,0-.26-.04-.38-.1-.11-.07-.23-.18-.35-.32l-1.62-1.78Z"/>
    <path d="M333.24,224.64c.59,0,1.06.12,1.4.37.35.25.52.64.52,1.17v2.07c0,.14-.03.26-.1.34s-.16.16-.27.22c-.17.1-.38.18-.64.24-.26.06-.55.09-.87.09-.6,0-1.07-.12-1.41-.35-.34-.23-.51-.57-.51-1.03,0-.4.13-.71.38-.92.26-.21.63-.34,1.11-.39l1.22-.13v-.16c0-.24-.08-.41-.25-.52-.17-.11-.4-.16-.7-.16-.23,0-.46.03-.68.09-.22.06-.42.13-.59.22-.06-.05-.11-.11-.16-.2s-.07-.17-.07-.26c0-.22.12-.38.36-.48.17-.08.36-.13.59-.17.23-.04.45-.05.67-.05ZM333.29,228.31c.18,0,.34-.02.49-.05.14-.04.25-.08.31-.12v-1.03l-.89.09c-.25.02-.43.07-.56.16s-.19.21-.19.38.07.31.21.41c.14.1.35.15.64.15Z"/>
  </g>
</svg>