<?xml version="1.0" encoding="UTF-8"?>
<svg id="Lager_1" data-name="Lager 1" xmlns="http://www.w3.org/2000/svg" viewBox="0 0 2560 1600">
  <defs>
    <style>
      .cls-1 {
        fill: #f1f1f1;
      }

      .cls-2 {
        fill: #909090;
      }

      .cls-3 {
        fill: #010101;
      }

      .cls-4 {
        fill: #7b996a;
      }

      .cls-5 {
        fill: #88a875;
      }

      .cls-6 {
        fill: #4d6043;
      }

      .cls-7 {
        fill: #bdbdbd;
      }

      .cls-8 {
        fill: #595959;
      }

      .cls-9 {
        fill: #939393;
      }

      .cls-10 {
        fill: #8f8f8f;
      }

      .cls-11 {
        fill: #728d62;
      }

      .cls-12 {
        fill: #e3e3e3;
      }

      .cls-13 {
        fill: #d2d2d2;
      }

      .cls-14 {
        fill: #627a55;
      }

      .cls-15 {
        fill: #b5b5b5;
      }

      .cls-16 {
        fill: #0c0d0b;
      }

      .cls-17 {
        fill: #5a6e4e;
      }

      .cls-18 {
        fill: #d0d0d0;
      }

      .cls-19 {
        fill: #677e5a;
      }

      .cls-20 {
        fill: #88a876;
      }

      .cls-21 {
        fill: #e2e2e2;
      }

      .cls-22 {
        fill: #0e100f;
      }

      .cls-23 {
        fill: #d9d9d9;
      }

      .cls-24 {
        fill: #dbdbdb;
      }

      .cls-25 {
        fill: #86a774;
      }

      .cls-26 {
        fill: #979797;
      }

      .cls-27 {
        fill: #cecece;
      }

      .cls-28 {
        fill: #6b845c;
      }

      .cls-29 {
        fill: #c1c1c1;
      }

      .cls-30 {
        fill: #8cad79;
      }

      .cls-31 {
        fill: #d4d4d4;
      }

      .cls-32 {
        fill: #6e8760;
      }

      .cls-33 {
        fill: #4d514a;
      }

      .cls-34 {
        fill: #516446;
      }

      .cls-35 {
        fill: #b4b4b4;
      }

      .cls-36 {
        fill: #e5e5e5;
      }

      .cls-37 {
        fill: #ccc;
      }

      .cls-38 {
        fill: #9d9d9d;
      }

      .cls-39 {
        fill: #3f5647;
      }

      .cls-40 {
        fill: #e4e4e3;
      }

      .cls-41 {
        fill: #c3c3c3;
      }

      .cls-42 {
        fill: #c4c4c4;
      }

      .cls-43 {
        fill: #dedede;
      }

      .cls-44 {
        fill: #c6c6c6;
      }

      .cls-45 {
        fill: #6f8a61;
      }

      .cls-46 {
        fill: #bebebe;
      }

      .cls-47 {
        fill: #6f8a60;
      }

      .cls-48 {
        fill: #c7c7c7;
      }

      .cls-49 {
        fill: #262d22;
      }

      .cls-50 {
        fill: #607753;
      }

      .cls-51 {
        fill: #9ea3a0;
      }

      .cls-52 {
        fill: #ddd;
      }

      .cls-53 {
        fill: #8cae79;
      }

      .cls-54 {
        fill: #84a372;
      }

      .cls-55 {
        fill: #6c865e;
      }

      .cls-56 {
        fill: #c9c9c9;
      }

      .cls-57 {
        fill: #020202;
      }

      .cls-58 {
        fill: #d7d7d7;
      }

      .cls-59 {
        fill: #b6b7b1;
      }

      .cls-60 {
        fill: #9b9b9b;
      }

      .cls-61 {
        fill: #050604;
      }

      .cls-62 {
        fill: #0a0c09;
      }

      .cls-63 {
        fill: #2f4f3a;
      }

      .cls-64 {
        fill: #bebebc;
      }

      .cls-65 {
        fill: #cdd1ce;
      }

      .cls-66 {
        fill: #8bac78;
      }

      .cls-67 {
        fill: #f9f9f9;
      }

      .cls-68 {
        fill: #f0f0f0;
      }

      .cls-69 {
        fill: #809d6f;
      }

      .cls-70 {
        fill: #7f9e6e;
      }

      .cls-71 {
        fill: #bcbcbc;
      }

      .cls-72 {
        fill: #8bad79;
      }

      .cls-73 {
        fill: #cdcdcd;
      }

      .cls-74 {
        fill: #a8b4ac;
      }

      .cls-75 {
        fill: #6a845c;
      }

      .cls-76 {
        fill: #babbba;
      }

      .cls-77 {
        fill: #536748;
      }

      .cls-78 {
        fill: #e9e9e9;
      }

      .cls-79 {
        fill: #708b61;
      }

      .cls-80 {
        fill: silver;
      }

      .cls-81 {
        fill: #959595;
      }

      .cls-82 {
        fill: #738e63;
      }

      .cls-83 {
        fill: #d5d6d3;
      }

      .cls-84 {
        fill: #a3a3a3;
      }

      .cls-85 {
        fill: #8bad78;
      }

      .cls-86 {
        fill: #b0b2b1;
      }

      .cls-87 {
        fill: #8aab77;
      }

      .cls-88 {
        fill: #8aac78;
      }

      .cls-89 {
        fill: #ababab;
      }

      .cls-90 {
        fill: #68805a;
      }

      .cls-91 {
        fill: #86a674;
      }

      .cls-92 {
        fill: #e1e1e1;
      }

      .cls-93 {
        fill: #6e885f;
      }

      .cls-94 {
        fill: #949494;
      }

      .cls-95 {
        fill: #749065;
      }

      .cls-96 {
        fill: #0d100b;
      }

      .cls-97 {
        fill: #506446;
      }

      .cls-98 {
        fill: #8d8d8d;
      }

      .cls-99 {
        fill: #8aab78;
      }

      .cls-100 {
        fill: #d8d8d7;
      }

      .cls-101 {
        fill: #89aa77;
      }

      .cls-102 {
        fill: #c2c2c2;
      }

      .cls-103 {
        fill: #3a4335;
      }

      .cls-104 {
        fill: #89aa76;
      }

      .cls-105 {
        fill: #cbcbcb;
      }

      .cls-106 {
        fill: #9e9e9e;
      }

      .cls-107 {
        fill: #87a775;
      }

      .cls-108 {
        fill: #c6c6c5;
      }

      .cls-109 {
        fill: #5a6f4e;
      }

      .cls-110 {
        fill: #2d3727;
      }

      .cls-111 {
        fill: #c8c8c8;
      }

      .cls-112 {
        fill: #6a835b;
      }

      .cls-113 {
        fill: #c7c7c6;
      }

      .cls-114 {
        fill: #d3d3d3;
      }

      .cls-115 {
        fill: #dadada;
      }

      .cls-116 {
        fill: #4c5f42;
      }

      .cls-117 {
        fill: #5c6f50;
      }

      .cls-118 {
        fill: #dcdcdc;
      }

      .cls-119 {
        fill: #9c9d9d;
      }

      .cls-120 {
        fill: #83a171;
      }

      .cls-121 {
        fill: #cacaca;
      }

      .cls-122 {
        fill: #a2a4a3;
      }

      .cls-123 {
        fill: #e8e8e8;
      }

      .cls-124 {
        fill: #6d875e;
      }

      .cls-125 {
        fill: #b2b2b2;
      }

      .cls-126 {
        fill: #cfd3d0;
      }
    </style>
  </defs>
  <path class="cls-63" d="M241,226l.98,1.77c-2.08,23.85.88,46.04,7.96,68.48l5.17,37.59c1.64,3.46,2.4,7.37,2.28,11.74l-1.79,63.48c-4.94,17.88-8.86,36.27-11.76,55.16,1.35,10.98,2.72,22.09,4.1,33.34,2.34,3.12,3.33,7.59,2.29,11.35,1.28,7.71,3.45,15.09,6.51,22.14l-.51,2.52c4.01,16.74,7.56,33.41,10.65,50.02,2.85,33.5,22.96,64.98,42.25,91.5,2.99,3.82,4.81,8.23,6.44,12.73,2,5.52,2.28,7.08,3.24,12.91,3.69,22.21,5.5,44.54-2.89,65.73-2.59,17.34-4.43,35.64-4.28,53.08.21,23.36,7.92,30.66,29.78,36.96l.52,1.37c16.11,3.28,26.82,14.66,37.41,26.46,7.96,8.22,16.59,19.46,20.92,31.05l2.26,2.16c4.05,15.72,9.49,32.55,16.64,47.77l-.12,3.61c9.6,28.7,18.19,57.79,25.72,86.95,4.19,22.45,11.23,44.47,19.13,65.64,1.56,10.83,4.76,22.47,9.41,32.34,5.51,20.34,7.66,41.39,7.65,62.38,1.66,4.43.78,11.47-.81,15.99-.11,39.66,13.12,78.14,26.25,114.79,14.31,34.7,31.05,68.53,49.46,101.48,2.22,6.03,5.3,11.66,9.26,16.89,6.6,12.14-4.82,4.92-9.91-1.56-9.18-10.96-17.54-22.46-25.09-34.49l-1.64-.2c-5.17-8.41-10.39-16.58-15.68-24.48-.02-2.71-1.19-4.46-3.53-5.27-4.69-10.87-9.95-21.37-15.77-31.48-9.33-26.46-17.52-53.47-24.58-81.03-3.71-8.83-4.86-20.89-5.71-30.87-.05-.64.31-1.32.8-2.01v-18c-2.13-7.67-1.53-16.4-.72-24.48,1.03-13.34-.73-24.24-4.11-36.62-16.13-59.14-32.08-118.6-47.71-177.68-6.27-16.53-11.99-33.31-17.17-50.35-3.17-7.3-5.88-14.93-8.15-22.9-14.97-26.14-33.81-47.69-64.25-55.79l-6.74-4.29c-4.08,4.49,2.84,63.37,4.45,73.19,3.46,21.15,8.02,42.48,13.34,63.81.3,5.78.66,11.97,3.68,16.95,1.21,13.95,3.87,27.57,7.98,40.85,3.31,24.23,5.58,48.45,5.38,73.05,1.55,2.68,1.68,5.45.07,8.11,1,27.33,1.42,55.97-3.86,82.87-3.71,18.89-10.15,38.11-16.95,56-.18.48,0,1.09.29,1.75-12.98,23.66-21.79,45.79-18.99,73.23-2.68,6.69-6.8-6.56-7.31-9.51-2.11-12.27-.86-22.33.79-34.6,2.58-19.27,7.67-37.8,16.06-55.19,2.33-11.46,5.3-22.6,8.92-33.4,1.43-8.77,2.12-17.38,2.09-25.82.74-.42,1.32-.86,1.36-1.34.79-9.11,1.26-19.47-.38-28.3,1.07-17.9,1.07-36.61.45-54.44.85-12.29-.72-23.81-4.73-34.56l1.22-2.52c-.1-.26.07-.66,0-1-1.97-1.74-2.23-5.42-2-8-6.83-26.01-11.75-52.44-14.76-79.3l-1.5-2.01c-4.04-21.16-8.01-42.4-11.89-63.72-.56-15.3-1.79-30.5-3.36-45.61,1.17-20.27.91-40.47-.8-60.59.88-11.51,1.52-22.85,1.93-34,6.63-19.8,9.16-38.44,7.65-59.77-1.73-24.47-10.76-37.54-24.98-57.95-3.06-7.03-7.07-13.29-12.03-18.79-3.33-8.4-6.93-16.56-10.81-24.47-4.94-17.43-8.32-35.52-10.85-53.72-3.33-18.02-7.64-35.75-12.95-53.18.38-.74.65-1.46.51-2.09-5.12-24.19-9.47-50.89-.92-74.31,4.33-28.36,8.79-58.29,7.22-86.8-3.1-1.83-3.07-7.36-1.92-10.4l-2.38-11.02c.28-18.04-2.32-35.92-7.81-53.64-2.84-15.52-6.2-33.93-1.36-48.63.05-1.58,2.37-3.14,4-4,6.43-1.01,7.35,1.29,11,5Z"/>
  <path class="cls-3" d="M241,226c.16.16,1.82-.54,2.04.63,0,9.14-.47,18.25-.04,27.37.85,1.53.77,3.46,0,5,1.46,17.36,7.88,34.1,10,53,.74,2.57,1.08,5.24,1,8,.55,3.99.59,5.99,2,10,.27,2.28.6,3.61,1,4,.27-.11.69.1,1,0,.43-1.48,1.76-1.82,4-1,6.31,1.65,12.02,2.85,17.04,7.46,1.7,1.56,13.2,16.2,14.04,17.96,3.56,7.5-5.2,7.09-10.47,6.46-9.9-1.18-16.67-9.31-22.32-16.62-.64-.83.01-1.84-2.29-1.25.53,5.95,1.22,11.96,1,17.99l-1,5c-.37,5.74-.87,11.2-1,17l-1,11c.04,2.34-.54,8.67.44,10.06s6.63.85,9.3,1.7c6.2,1.99,23.39,17.81,21.19,24.6-1.13,3.48-12.95.09-15.64-1.15-2.84-1.31-13.39-10.2-15.16-12.84-1.04-1.54-.38-4.28-2.11-4.37-1.5,14.94-6.24,29.03-8.01,44-.7,3.49-.37,5.82,1,7,3.18,2.62,5.65,3.02,8.49,5,7.05,4.92,17.88,18.84.73,14.31l-9.21-8.31c-.42,7.04.72,14.02,2.1,20.89,8.37.11,16.61,4.13,21.87,10.61-6.9,5.25-14.05,4.36-19.97-1.5,0,4.79,1.58,9.53,2.99,14,1.48,1.92,3.15,2.59,5,2,6.3,1.09,9.63,1.53,15.3,5.2,3.28,2.13,12.67,9.67,4.12,10.7-4.53.54-10.79.64-14.66-1.89-.94-.61-5.06-6.43-6.75-5,1.37,6.11,3.76,13,5,18.99-.05,1.81.29,3.47,1,5,.66,3.37,3,24.25,4.04,24.98.38.26,6.42-1.06,9.19-.73,5.93.71,16.93,6.78,20.22,11.79,1.01,1.54,3.98,6.85.89,7.8-4.34,1.34-15.97-1.42-20.05-3.64-3.61-1.96-5.33-6.44-9.29-7.2,2.29,11.61,6.12,23.48,11.25,34.24,1.65,3.44,6.89,13.24,8.91,16.09.84,1.19,2.44,3.35,3.83,3.67,3.62-.87,7.38-.64,11,0,3.99.96,12.34,3.72,15.7,5.79.83.51,7.07,6.27,7.29,6.72.85,1.71-2.41,2.16-3.46,2.51-7.79,2.57-15.84,2.92-23.53,0,2.93,7.58,9.97,13.02,13.8,19.69,1.71,2.97,2.69,6.23,4.19,9.3,1.17.54,1.65.59,3,0,18.63-14.61,40.93-2.01,53.97,13.53,1.37,1.63,9.81,13.28,9.94,14.13.52,3.59-11.46,5.78-13.91,6.34-2.13.76-4.13.76-6,0-20.52.05-30.63-7.5-43.99-22,.34,13.17,3.96,26.3,2.97,39.48-.24,3.26-4.12,13.19-.35,14.38,1.91.6,4.76-.06,7.39.6,9.84,2.49,22.99,19.24,25.03,28.96-11.34,4.13-23.07,1.13-30.48-8.52l-6.57-11.91c-2.26,7.4-2.41,15.28-3.01,22.99l-1,5c-.11,1.27-.05,2.71,0,4,.69,1.6,2.02,2.6,4,3,9.75,2.35,19.16,9.58,22.22,19.29,1.36,4.29.76,4.44-3.68,4.77-10.91.82-17.77-5.85-23.53-14.06.43,6.47-.62,13.64,0,20l1,5c.86,3.82,2.37,7.53,5,10.5,1.17,1.32,8.5,7.07,9.74,7.33,2.8.59,10.71-6.36,14.57-8.01,1.29-.55,7.47-2.82,8.18-2.82h19c.31,0,1.87,1.64,1.5,2.49-5.42,4.99-12.1,8.26-18.74,11.27l-11.25,3.23c17.24,2.86,27.35,15.11,38.63,26.93,3.68-1.74,4.63-5.15,8.48-7.29,2.73-1.51,4.94-1.96,7.88-2.63l5-1c5.03-.14,8.24.93,13,2.01-2.76,10.21-12.31,15.72-22.66,16.62-1.89.16-4.66-1.53-6.34-.14,6.07,7.14,13.58,14.8,15.06,24.43,6.26-.54,11.5-1.75,17.93-1.93,2.87-.8,5.87-.8,9,0,7.27,1.39,9.09,2.9,15.32,6.21,2.01,1.07,5.59.16,3.22,3.83-.79,1.23-10.47,5.91-12.51,6.52-1.86.55-3.41.21-5.03.44-2.3.73-4.69.73-7,0-2.58-.43-4.36-.28-7.02-1.49-1.75-.79-9.98-7.47-10.98-6.5,4.71,10.7,7.26,22.3,12,32.99,1.21,1.03,2.43,1.29,4,1,2.09-.79,4-.65,6-1,3.14-.8,6.14-.8,9,0,2.15.1,3.81-.06,6.05.44,5.06,1.13,31.51,16.41,27.91,21.51-3.99,1.46-6.67,3.03-10.96,4.05-2.33.41-4.66.29-7,0-10.79-1.37-17.54-3.59-25.9-10.6-1.68-1.41-3.29-6.36-6.09-4.91l21.08,64.43c10.25-2.54,21.88.85,28.83,8.72-6.07,9.06-20.01,6.3-26.91-.64l3.03,15.97c8.38-1.6,15.21-3.61,23.96-2.97l5,1c3.87,1.02,25.18,7.84,26.54,9.96.48.75.78,2.54.46,3.02-2.62,3.87-40.51,3.87-45.92,1.44-2.07-.93-5.03-4.41-7.58-5.42l-.48,1.47,13.95,48.11c12.41-6.92,30.15,2.03,37.04,12.9,2.84,4.49,2.31,6.35-2.81,8.2-13.33,4.82-22.02-2.34-31.18-10.69l8.52,30.04c.77,1.13,5.36-.04,7.48.37,4.98.97,13.53,4.94,17.99,7.59l3,3c.3.35.68.65,1,1,2.63,1.89,4.96,4.22,7,7,3.01,4.13,5.51,8.7,8.98,12.5-.94,1.44-1.93,1.4-3.44,1.56-5.09.55-21.63-3.06-25.89-6.21-2.06-1.52-10-13.22-11.65-11.84,4.8,10.09,3.87,20.23,4,30.99l1,6c.03,2-.47,12.55,0,13,.26.25,4.45.33,7.04,1.46,12.18,5.34,17.3,22.62,20.96,34.54.76,1.81.76,3.48,0,5-1.34.83-7.59.14-9.25-.26-9.24-2.23-17.54-16.66-18.76-25.74-1.74-.24-.94,2.27-.99,3.48-.32,8.4.56,13.52,2,21.51,1,2.88,1.67,5.88,2,9,.94,9.81,3.05,19.29,5.12,28.88,19.26,2.15,33.68,6.84,36.87,28.12-.66.04-1.33-.02-1.99,0-3.61-.8-7.38-.64-11,0-5-.73-12.68-6.5-16.51-10-1.16-1.05-1.88-1.8-1.46.46.37,1.98,6.12,19.89,6.99,20.54.46.35,6.54-2.03,8.49-2.01,6.07.04,23.46,10.91,21.44,17.41-.68,2.21-10.93,2.94-13.4,2.54-4.05-.65-8.65-6.27-12.55-7.94-.95,1.23,9.43,27.72,10.99,29,.98,1.27,2.45,1.76,4,2,4.04,1.27,9.37.5,13.72,1.78,12.07,3.54,32.55,22.87,5.72,20.27-5.45-.53-8.82-3.57-13.44-6.05,3.43,7.83,6.52,16.49,10.47,24.02,3.94,7.5,9.99,14.2,13.52,21.98,1.18,1.22,2.48,1.68,4,1,4.38.29,24.95,1.22,16.5,8.01-4.41,3.54-10.19,3.1-15.5,3-1.82,1.65,14.22,20.29,11.99,24.99-3.52,3.44-15.26-9.41-17.51-11.98-8.47-9.68-15.79-22.03-22.5-33l-2.28,14.2c-2.09,4.88-4.89,20.16-11.8,19.32-2.52-.3-2.42-3.57-2.91-5.53l-1-5c.19-5.31,2.68-16.81,4.71-21.79,1.02-2.49,6.03-9.09,5.84-10.26s-5.99-11.8-7.55-9.94c-.9,11.52-5.62,28.82-15.99,35-8.15-15.58,2.77-31.81,9.94-45.49l-13.97-30.5-5.22,16.26c-4.45,7.76-5.71,17.72-15.24,20.74-2.16-1.22-1.17-3.41-1.53-5-.8-3.12-.8-6.12,0-9,.18-5.8.88-9.86,3.27-15.23,1.41-3.16,10.91-17.26,13.73-17.77.7-.78.7-2.11,0-4-7.22-22.59-17.27-44.34-21.01-67.99l-5.16,12.32c-2.46,4.57-15.16,20.24-19.27,22.72-5.49,3.32-5.6-1.51-5.55-6.05l1-5c2.02-16.04,10.2-33.05,25.98-39.06-1.41-3.61-1.36-7.36-1.98-10.94.03-1.76-.31-3.43-1-5-.08-.65.06-1.35,0-2l-1-5c-.17-7.26,1.19-13.82.99-21-4.05,3.51-7.22,12.17-11.09,15.4-2.18,1.82-14.53,7.39-16.47,4.65-.83-7.61,3.01-13.45,7.57-19.05,1.25-1.05,1.92-1.05,2,0l1,2.1c-.81.99-6.59,12.02-5.87,12.51,3.02,2.07,13.22-9.43,15.08-11.72.09-.11-1.05,1.37-2.4,1.27-5.41-.39-4.22-5.14-1.11-8.04-.68.67-1.58.62-2.71-.13-1.41,1.33-1.92.77-1-1,1.83-1.8,3.27-4.22,5.53-5.98,3.14-2.44,6.34-3.38,9.34-5.66.23-12.26,1.11-24.6-2.88-36.36l-4.79,15.69c-3.32,5.24-9.05,14.36-15.7,15.31-2.59.37-1.43-4.12-1.49-6.01-.81-2.54-.81-5.21,0-8,2.79-9.87,9.64-19.28,18-25,.72-.69.72-1.69,0-3-6.8-16.89-9.88-36.28-14.01-53.99l-3.99,8.99c.38,1.26-.28,2.59-2,4-6.96,7.77-10.1,11.28-20.45,15.05-3.36,1.22-7.97,1.88-11.55,2.94,2.29-20.73,13.93-37.43,35-42.01l-4.99-12.98c-1.52,7.92-8.86,11.86-16.01,13.99-1.72.5-3.33.96-5,0-2.71-2.71,1.72-14.53,3.76-17.74,3.67-5.78,8.42-6.46,14.32-8.85-2.33-9.21-4.89-18.14-7.08-27.41.04-1.81-.29-3.47-1-5-.74-3.39-1.51-10.37-3-13-1.92.23-2.81.37-4,2-3.84,6.02-10.67,11.48-17.99,12-.17-.93.21-2.2,0-3-.52-2.65-.65-5.34,0-8,2.91-8.53,10.22-12.66,19-13.01-.95-3.07-5.11-22.29-6.52-22.98l-6.88,8.66c-6.43,3.55-13.49,7.97-21.15,8.34-7.91.38-5.55-3.77-3-9.05,5.21-10.77,13.41-19.68,26.54-17.97l-12.01-39.99-9.3,13.68c-4.17,1.9-8.04,2.85-12.69,2.32.08-10.99,8.13-22.09,19.01-25.02l-6.02-15.98-7.47,11.01c-4.98,5.65-20.51,16.28-27.88,13.84-3.01-1-1.45-7.38-.93-9.65,2.72-11.78,13.76-19.51,24.31-23.72,2.04-.82,6.26.21,3.77-4.27-.21-.38-2.4-1.04-3.32-2.14-2.13-2.54-4.33-5.05-6.43-7.59-3.07-3.7-4.54-9.96-10.02-10.47,2.03,9.47-6.84,13.59-11,19.5-1.54,2.19-2.48,6.42-4.04,7.97-2.05,2.04-11.23,6.05-14.15,6.83-2.68.72-5.06.88-7.81.69l4,29.99c6.29-2.41,10.23-4.86,17.41-3.9,2.78.37,14.1,5.38,15.48,7.5,4.51,6.94-6.77,9.04-11.9,10.4-1.71.49-3.4.97-5,0-2.36,0-4.75.29-7.06-.44s-3.31-3.67-5.94-3.55c1.72,8.78,3.09,18.57,5.99,27,.65,1.43,1.6,1.26,3,1,8.48-2.29,11.1-.51,18,4,2.51,1.44,4.52,3.5,6,6,1.89,3.22,4.92,5.69.23,7.73-8.15,3.55-18.49-2.19-25.22-6.73l2,15c13.44-4.89,22.28-.4,32.99,7,1.33,1.41.77,1.92-1,1l-2.78.57c-7.54-5.7-33.54-9.8-9.88-2.2,8.41,8.64-5.23,6.55-10.77,2.83l8.79,8.52-.36,2.27c2.38,1.67,2.38,2.67,0,3-5.62-3.45-9.4-10.36-14.99-14l5.99,31c2.68-.17,5.34-.65,8-1h6c3.82.8,13.07,4.46,13.99,8.52.6,2.64-7.06,4.04-8.99,4.48-2.33.4-4.66.32-7,0-3.48-.55-6.61-.95-10-1.99l3,16c13.85-4.51,38.98-.56,49.05,10.45,8.27,9.04,1.5,10.06-7.05,10.55l-8,1c-2.6.03-5.43.19-8,0l-5-1c-8.53-1.55-13.3-3.09-19-10-.39,1.7-.73,3.37-1,5,.28,1.92.62,3.92,1,6,0,4.32-.04,8.68,0,13,.86,2.25.83,4.75,0,7,.07,2.33-.06,4.68,0,7.01,12.75-.77,28.54,2.88,32,16.99-3.63-.19-7.38.29-11,0l-5-1c-2.7-.63-5.36-1.47-7.9-2.6l-8.09-6.39c-.72,4.63.93,9,1.04,13.45.35,13.91,0,34.28-1.01,48.09-.33,4.57-4.07,17.41-3.66,20.01.39,2.47,7.11,3.42,9.57,5,1.52.97,4.89,4.54,5.88,6.12,1.4,2.22,5.78,14.35,6.16,16.85.36,2.34-1.35,1.39-3,1.49l-5-1c-7.78-1.88-10.12-4.41-13.7-11.8l-2.29-7.19c-3.76,16.92-8.12,33.57-14.98,49.5,3.27,2.49,6.13.9,9.51,4.44,1.38,1.44,7.51,12.23,7.41,13.56-.31,3.89-12.75-.64-15.02-2.95-2.05-2.09-1.84-5.76-4.92-5.56-3.15,7.52-8.06,15.03-10.79,22.72-.87,2.45-4.22,13.03-4.22,14.78v34.5c-2.99.44-3.89-1.1-5.2-3.3-3.16-5.3-4.8-12.67-5.8-18.7l-1-5c-.03-.66-.02-1.34,0-2l1-5c1.02-12.84,3.43-29.61,6.28-42.22,1.47-6.49,4.87-12.43,6.71-18.78-5.62,3.17-10.92,5.57-17.51,5.98-3.54.22-7.68,1.04-7.58-3.48.16-7.33,13.37-11.22,19.09-12.5,2.45-.77,4.79-.77,7,0,1.57-.17,3.2.38,3.81-1.69,2.22-9.45,4.41-18.9,6.64-28.36.51-2.17,2.18-4.3,2.55-5.95.67-.95,1.01-.61,1,1-2.36,10.89-4.41,23.23-7.72,33.78s-9.39,21-11.79,32.21c-3.69,17.23-9.33,43.66-4.22,60.24l3.72,7.76c.64-8.72.12-18.93,1.03-27.48,2-18.79,18.03-44.82,24.27-64.73,17.35-55.35,16.22-99.3,13.67-156.24-2.27-50.78-17.6-102.16-26.67-152.33-4.59-25.42-11.61-66.82-8.29-91.73.47-3.5,5.14,1.53,7.33,2.69,8.46,4.49,17.08,6.31,24.69,10.31,17.59,9.25,26.05,26.6,39.39,40.61,14.02,40.22,30.45,82.11,40.35,123.65,10.51,44.06,22.78,87.82,35.5,131.5,5.62,19.31,4.61,44.63,3.74,64.76v18c3.93,34.75,19.1,84.3,32.82,116.68,1.44,3.4,11.98,25.24,13.28,26.73,1.49,1.72,3.42,1.37,3.74,1.74s.16,3.48,1.09,5.42c4.58,9.64,17.9,26.98,24.67,36.33,7.73,10.69,15.08,22.34,25.92,30.08.69.21.65-.8.51-1.5-.62-2.99-7.59-11.76-9.53-15.47-33.06-63.13-76.01-144.99-77.43-217.56-.16-8.28,1-15.25,1.04-22.96.21-48.55-22.88-99.85-34.8-147.29-9.47-37.7-17.25-69.82-30.27-106.73-5.21-14.77-11.63-36.45-18.14-49.86-5.06-10.42-29.24-38.06-38.96-44.04-13.14-8.1-36.96-9.6-44.11-25.89-6.67-15.22-2.37-53.82.46-70.92,1.69-10.21,5.98-20.96,6.76-31.23,1.02-13.46-3.45-44.72-9.49-56.58-4.12-8.08-13.32-17.09-18.34-25.66-10.87-18.54-22.1-41.29-26.71-62.29-2.25-10.26-2.71-20.96-4.76-31.24-6.61-33.23-16.59-60.54-18.71-95.28-1.04-17.07,9.19-41.77,10.86-60.11.97-10.69,1.54-24,2.11-34.89,1.26-23.95-3.58-48.73-6.11-72.87-.97-9.27-5.62-17.91-7.44-26.56-3.1-14.72-2.06-31.16-1.44-46.06ZM291.99,361.99c.66-.87-1.92-4-2.59-4.9-4.15-5.59-11.49-15.55-17.35-18.65-1.21-.64-13.32-5.75-13.04-1.94.1,1.36,20,12.6,21.98,16-.62,1.29-2.76.13-3.7-.3-2.07-.95-18.54-14.1-19.29-13.2,4.31,13.11,19.6,26.16,33.98,22.99ZM283.99,432.99c3.91-3.79-19.02-25.94-25.99-21.98l14.99,10.5c.37,1.29-.2,1.97-1.47,1.47-1.75-.68-12.83-10.78-14.51-8.98,2.45,9.9,16.87,19.12,26.99,18.99ZM256,474.02c-.14-.15-3.27-1.1-4-1.01l3.51,2.98c.86.13.58-1.88.49-1.98ZM262.99,484.99c.9-.86-2.87-6.1-4-6.57s-1.83,1.61-2.99,1.13c-.97-.4-5.79-5.79-7.01-4.55-.35,3.91,12.17,11.73,13.99,9.99ZM266,510c3.11-3.05-10.32-8.84-12.99-7.98.59,2.17,7.26,3.25,7.99,4.01,3.42,3.52-6.69.45-7,0,2.37,4.67,7.45,4.17,12,3.99ZM260.01,531.99c4.25,1.77,6.06,4.65,10.93,5.57,9.94,1.87,9.39-1.65,2.4-6.39-1.73-1.18-7.65-4.13-9.54-4.48-1.08-.2-5.7-.44-5.8,1.31,2.06-1.06,15.05,5.07,12.99,7.01-.81.76-6.45-2.99-7.96-3.53-.94-.34-3.25-1.32-3.03.53ZM295.99,599c4.4-4.88-21.07-20.2-26.99-14.99l16.98,8.49c-1.68,2.34-1.68.89-3.29.32-3.54-1.24-6.57-4.43-10.69-3.81,5.37,7.71,15.61,8.38,23.99,9.99ZM322,656.99c-6.45-9.12-19.44-11.59-29.99-10.98-.3.28.9,3.79,1.07,3.93.61.52,13.94-.98,15.93,1.08.95.99.21,2.1-1.48,1.99-4.28-.26-8.88-1.84-13.51-1-1.8,1.35,7.02,5.29,7.96,5.53,6.81,1.72,13.34,1.1,20.04-.55ZM321,694.01c3.47,11.03,21.62,23.15,32.6,24.89,2.93.46,12.12,1.34,14.87,1.14,1.99-.14,12.16-2.93,12.52-4.56-11.15-20.42-37.56-43.25-60-24.49,9.52,3.14,20.82,7.05,29.54,11.97.72.41,3.89,1.76,2.45,3.04-1.87,1.67-26.8-13.42-31.99-11.99ZM353,781.99c-6.78-11.54-15.64-26.94-31-25.98,2.25,3.27,19.8,14.85,19.98,17.49.06.84-.95,1.51-2.48.51-1.73-1.14-16.94-15.69-18.49-14,2.36,15.33,16.75,25.56,31.99,21.98ZM314,804c.64,1.78,4.2,6.7,5.48,8.02,5.63,5.83,11.72,6.97,19.52,7.97-4.04-11.45-9.1-14.81-20-18.99-1.95-.75-2.36-.62-4-1-.13-.03-.71-1.44-1.99-1-.65,2.23.41,3.36.99,5ZM351,843c-4.72,1.05-8.79,3.33-13.01,5.5.07,2.14,12.04-3.16,13.01-4.5l2.52,2.02-16.51,7.49c11.35,1.92,22.69-4.35,30.99-11.49-5.96-.13-11.18-.3-17,.99ZM315,885c.03,1.89-.68,4.91,1,6,.1,8.39-.09,16.78,2.01,24.99l4.45-7.03c2.1-1.76,4.34-3.35,6.53-4.97.34-.25,1.78.1,2.53-.97s.25-2.21.47-3.03c2.82-10.61,5.67-14.94,14-21.99-4.75-1.53-10.46-2.67-14.99-4.52-5.64-2.31-10.51-5.97-16.01-8.48.06,6.65-.1,13.34,0,19.99ZM386,887.99c.27.27,6.34,1.12,7.47,1.06,7.51-.4,14.54-5.47,18.51-11.55.08-4.96-24.48-.93-25.98,5.49,4.41.02,8.96-1.7,13.19-2.31,1.75-.25,2.31-1.41,3.79.82-.08,1.89-13.03,3.04-15.71,4.27-1.03.47-2.6.89-1.27,2.22ZM349.99,881c-13.24,3.09-16.88,19.16-16.98,31,10.11-4.91,22-12.98,20.99-25.52-.09-1.07.56-3.34-1.48-2.47-2.68,1.14-6.16,10.43-9,13.01-1.41,1.28-2.48.17-2.49-.51-.01-1.29,10.35-14.16,8.97-15.5ZM335,914c-6.45-1.55-4.46-1.93-4.49-7.99-3.42,2.48-9.73,6.67-9.01,10.99l6.5-2.99-5.99,6.98c4.84-.44,10.17-3.09,14-5.99,1.08-.82,2.68-1.49,3-2.99-1.68-.29-2.95.74-4,1.99ZM378,914.01c-14.75,2.03-28.48,14.55-29,29.99,5.5.62,11.34-2.76,15.92-5.58,7.57-4.65,16.63-12.66,16.07-22.42-1.8-2.39-14.07,15.78-14.97,16.52-1.29,1.07-2.36.81-2.04-1.03.82-4.67,11.22-13.23,14.02-17.48ZM410,917c-1.66.33-3.27.98-4.99,1.01v.98c1.98.14,4.02-.15,5.99.01,3.53.28,7.17.98,10.5,1.1,2.88.1,8.07-2.65,8.01.91-1.96,2.76-18.42-.06-22.51,0l9.64,5.84c8.27,4.28,19.68,1.95,26.33-4.35-9.24-7.42-21.81-7.73-32.98-5.5ZM385,942c-6.3,3.94-11.09,10.29-10.99,18,8.37-.92,13.13-7.08,15.98-14.51.36-.94,1.9-2.82.51-3.49-4.49,3.29-7.16,8.47-10.69,12.31-.71.77-1.58,2.95-2.83,1.17,1.71-4.74,5.51-8.97,9.01-12.49.86-.86,2.78-1.41,3-2.99-1.99-.53-2.73,1.2-4,1.99ZM326.01,957.01c2.58,7.45,12.88,9.01,19.81,7.31,3.48-.85,12.48-4.26,6.88-7.51-6.83-3.97-13.87-7.48-21.69-4.25-1.58.65-2.46-.14-2,2.44,3.1-.02,6.14-.15,9.23.3,1.59.23,4.5.19,3.76,2.7l-15.99-.99ZM422,964.01c9.09,11.33,31.13,22.06,43.98,11.49-11.54-11.43-23.34-19.37-40.4-17.42-1.48.17-5.99,1.23-6.58,2.91,7.7.54,15.45,3.15,22.51,6l-1.01,1.98-18.51-4.96ZM405,989.01c-14.03-2.55-21.98,9.3-26,20.98,11.7.53,24.3-6.59,28.99-17.5,1.35-4.28-18.6,11.6-18.51,12.5-1.77.75-1.87-1.41-1.51-2.49.47-1.42,15.35-10.7,17.02-13.49ZM337,993c-1.82.63-3.65.77-2.99,3,.26.29,2.08-1.11,2.99-1,2.55.3,9.53,3.83,12,5.5-2.4,2.09-13.48-4.03-13.99-3.5-.46,7.25,23.73,13.26,23.97,8.51.06-1.13-5.65-6.92-6.96-8.02-4.8-4-8.69-6.69-15.01-4.49ZM413,1022.01c-9.19.15-15.25,9.16-13.99,17.98,7.97-1.76,13.9-8.17,15.98-15.99-.74-.84-7.79,6.69-8.5,6.99-1.28.55-1.76-.17-1.47-1.47.68-3.01,6.36-4.94,7.97-7.51ZM466,1040.99c-3.83-6.7-15.57-10.17-22.99-7.98l10.99,4c.39,4.88-7.32-1.33-10,0,5.36,7.03,14.3,6.86,22,3.98ZM448,1058h21.5c1.05,0,1.98,2.45-.02,3-1.88.52-3.42-1-3.98-1h-15.5c9.7,9.49,30.65,7.84,43.21,5.71.57-.1,5.68-.38,4.3-1.72-13.01-5.86-29.18-11.91-43.54-8.53-1.39.33-5.5,1.15-5.97,2.53ZM347,1059c-.59.12-1.35-.09-1.99,0-.65,1.82.57,2.23.99,3,.16.29.69.68,1,1,4.52,4.73,22,5.12,21,.51-1.31-6.03-16.4-5.46-21-4.51ZM429,1078c-13.52,3.66-12.31,8.59-16,20.99,11.04-.77,19-7.54,18.99-18.99-1.33-1.72-11.71,11.64-12.5,11.99-1.23.54-1.84-.21-1.47-1.47.97-3.3,8.22-9,10.99-11.52,4.13-.08,5.5-2.49,0-1ZM352,1085c-.98.05-2.83-1.21-2.99-1-.25,2.04,1.05,3.43,1.99,5,9.59,15.89,31.97,14.74,48,10.99-3.96-12.32-29.44-18.18-40.42-16.9-2.26.26-4.38,1.8-6.58,1.91ZM435,1104.01c-17.1,3.54-25.14,18.21-29,33.98,18.24-1.8,30.83-14.92,32.99-32.99-5,1.52-13.13,12.55-16.5,13.99-1.18.51-1.99-.29-1.48-1.48,1.61-3.76,11.62-9.5,13.99-13.5ZM465,1113.01c2.13,2.65,6.36,2.44,9.67,3.81,2.76,1.14,5.98,2.77,8.3,4.68-1.68,2.34-1.67.89-3.29.32-4.41-1.55-11.22-7.26-15.67-3.32,7.4,7.73,18.8,16.55,29.99,12.01,3.72-1.51,3.45-2.36,1.42-5.45-5.34-8.14-20.86-17.74-30.43-12.05ZM367,1137c-.8-.32-9.97-4.91-10.01-2.5l10.01,3.5,1,1.99-14.99-3.98c5.27,8.34,14.14,10.58,23.52,10.98,6.43.27-1.96-7.15-3.82-8.19s-3.96-1.1-5.7-1.8ZM513,1181.99c2.08-1.87-14.85-18.86-17.06-20.43-4.79-3.41-12.98-6.46-18.93-6.55l18.99,12.5c.36,2.02-.58,1.77-2.09,1.08-2.49-1.13-16.08-12.09-17.9-10.59,8.57,16.19,17.94,23.8,36.99,23.98ZM449,1177c-6.31,7.16-12.32,17.23-8.99,27,10.63-5.56,12.91-15.32,14.99-26,.14-.74,1.82-2.22.99-4-1.39-.34-1.19,1.68-1.99,3-2.45,4.02-4.28,8.48-7.51,11.99-1.15-2.82,1.97-8.26,3.51-10.99.93-1.65,3.45-2.81,2.99-5-1.92.6-2.82,2.67-3.99,4ZM488,1221c-1.43-.78-2.42-2.7-4.99-1.99-1.17.53,3.31,2.24,3.99,2.99,3.02,3.31,8.13,12.54,8.99,17-5.73-4.29-7.12-12.72-12.98-17,.28,14.73,7.61,33.85,24.99,33.99-4.43-14.37-5.99-27.35-20-34.99ZM366,1246.99c-2.89-8.45-4.81-20.81-16-20.98,1.37,3.15,7.43,6.25,8.02,9.48.27,1.5-.02,1.77-1.5,1.5l-8.5-8.99c0,9.21,8.2,20,17.99,18.99ZM307,1259c-6.97,1.54-11.88,3.87-16,9.99,8.05,1.58,18.66-1.24,24-7.98-4.19.03-7.96,2.55-11.7,3.8-1.58.53-1.58,2.07-3.28-.31l8.98-4.5,6.99-1.99c-3.51-.68-6.05.34-8.99.99ZM465,1275.01c-16.61,6.86-24.94,27.86-23.99,44.99,1.03,1.16,9.51-7.82,10.51-8.98,8.04-9.35,13.5-19.51,14.48-32.01-3.97,2.68-10.05,16.48-13.5,17.99-1.19.52-1.95-.27-1.47-1.47.76-1.92,14.95-19.64,13.99-20.51ZM338,1292l-6.99-5c.04,2.83,2.61,5.76,4.99,7,1.43.74,6.31,2.27,7.99,1.51-3.66-4.98-5.18-13.43-12.99-12.5,1.06,2.76,7.49,6.19,7,8.99ZM524,1319.99c-4.49-17.6-16.04-20-31.99-22.99-.61,2.88.93,1.58,2.16,2.3,2.2,1.29,16.58,9.28,16.87,10.22.14.44.29,2.5-.53,2.48-2.45-1.28-16.19-11.08-17.51-9.98,6.53,11.96,16.43,20.6,31,17.98ZM530,1348.99c-1.3-8.5-14.58-16.61-23-13.99.28,1.73,1.99,1.74,3.23,2.27,2.72,1.16,12.22,3.92,13.77,5.74.16.19.37,1.93-.51,2-4.19.3-11.32-6.68-16.49-6,5.56,7.79,13.36,11.42,23,9.98ZM485,1367c-6.07,7.14-10.19,14.99-10.98,24.52-.59,7.11-.81,16.46,5.82,6.82,4.11-5.98,9.92-20.1,10.17-27.33,1.67-.89.9-3.45.99-5h-.98c-.14.6.18,1.72-.01,2-.38.54-1.45.96-2.2,2.26-1.03,1.8-5.15,11.62-6.3,11.72-2.12.19-.71-2.65-.49-3.46.56-2.08,3.79-8.55,4.99-10.52.91-1.49,4.39-3.33,3.99-6-2.24.97-3.52,3.27-4.99,5ZM526,1378c-1.35-.06-3.2-2.47-4.98.5,2.74,3.51,1.65-.49,2.42-.43.4.03,1.66.72,2.56.93,3.19.74,13.83,4.71,14.99,7.51.73,1.77-.64,1.73-2.08,1.08-4.59-2.08-9.1-6.77-14.91-6.59,4.54,10.48,15.55,14.56,26.52,13,4.22-.6-1.35-6.67-3.02-8-6.7-5.32-13.18-7.61-21.5-8ZM504,1412c-3.43,8.26-6.88,15.21-6,24.51.94,9.91,4.78,1.06,6.86-3.15,4.25-8.62,7.99-18.62,7.13-28.36-2.08-.02-5.52,13.9-6.98,12-.15-1.29.17-2.74,0-4l2.99-7.99-3.99,6.99ZM521,1426c-6.09,7.63-7.96,24.55-5.99,34,3.2,2.86,9.27-15.95,9.69-17.8,1.09-4.78,1.66-9.26,1.29-14.2-2.77-.48-1.69.57-2.25,2.19-.98,2.77-1.38,5.83-2.49,8.61-.61,1.52.58,2.7-2.25,2.19-.55-4.39,3.03-10.08,2.99-13.99,4.93-3.58,3.38-6.49-1-1ZM572,1443.99c-1.62-1.95-9.19-3.97-11.53-4.04-2.51-.08-7.61,1.24-5.97,4.05,2.6-2.51,6.19-2.07,9.5-1.99.47,2.85-.59,1.67-2.31,2.13-2.18.59-4.41,1-6.68.87-.05,1.42,4.65,1.8,5.49,1.78,3.83-.09,7.91-1.59,11.5-2.8Z"/>
  <path class="cls-3" d="M226,225c.06,6.01-1.11,11.44-1.04,17.55.28,24.69,8.8,41.89,10.92,63.07.59,5.86-.35,12.03.14,17.86,1.46,17.48,6.5,27.93,4.97,48-.64,8.42-1.42,16.75-1.99,25.01-1.33,19.2-5.18,34.09-8.75,52.25-6.9,35.15,9,75.34,15.46,110.04,5.03,27.05,7.74,53.29,20.58,78.42,9.47,18.53,25.15,38.06,33.89,56.11,7.39,15.25,6.93,50.83,3.14,67.51-3.39,14.93-6.07,17.64-6.37,34.71-.92,51.6-.53,109.91,9.33,160.68,3.07,15.84,8.23,31.36,10.6,47.4,3.17,21.48,5.06,39.94,10.12,61.38-.28.87-.62.86-1,0-2.79-10.01-5.86-19.78-8-30l-1-5c-.12-1.18.55-3.37-.49-4-3.48,5.06-8.14,8.09-13.13,11.38-.68.45-.93,1.72-2.06,2.39-1.51.9-11.87,5.82-13.09,6.08-1.68.36-1.39.05-2.23-.85-1-1.93-.51-4,0-6,4.74-12.84,17.13-19.12,29.05-23.67l-4.06-31.33c-1.57.22-2.12,2.13-2.99,3-1.31,1.44-1.98,2.44-2,3-8.25,8.44-20.8,15.7-32.37,18.07-4.63-6.52,7.76-20.19,12.88-24.07,6.55-4.96,14.64-6.14,21.43-9.62l-6.94-40.38c-1.98-.47-1.76.52-2.45,1.53-4.27,6.2-13.38,14.82-21.16,18.34-7.49,3.38-15.16,4.78-23.38,4.12,3.96-15.74,23.93-41.53,42-38.99,1.05-.29,1.39-1.29,1-3-.14-1.98.08-4.01,0-6l-1-7c-.06-5.31.22-10.7,0-16-1.36-.75-3.03-.09-5,2-9.04,8.26-12.53,10.43-25,13-2.45.77-4.79.77-7,0-2.52-2.4,3.59-11.35,5.59-13.91,7.42-9.55,18.67-12.59,29.97-15.03,1.04-1.49.39-13.01.44-16.06.91-4.28.86-8.71,0-13,0-1.33,0-2.67,0-4-.88-3.27-.84-6.71,0-10-.03-2.55.46-5.66-.5-8-5.47,7.37-20.35,15.33-29.42,15.61-3.95.12.5-9.54,2.09-11.95,4.95-7.51,12.36-11.59,20.83-13.67l6-1c.99-.98.9-1.01,1.05-2.4,1.09-9.57-1.29-21.46.03-31.02.58-4.2,3.72-9.84,4.91-14.59l1-5c.42-2.05.67-3.94,1-6,.72-1.55,1.06-3.22,1-5,.47-3.94,2.47-11.81-.99-14-1.18,2.08-3.53,7.13-4.96,8.55-.63.62-9.02,7.86-9.67,8.33-3.3,2.36-21.78,9.87-23.34,4.52,3.69-15.01,16.56-30.47,32.6-32.35,2.73-.32,5.72,2.59,6.39-1.53-1.42-4.81-.82-9.8-1.66-14.65-2.62-15.18-15.81-28.85-23.26-42.48-2.99-5.47-4.01-13.5-10.11-17.38.59,8.77-.68,19.77-8.52,24.71-6.98-5.84-6.71-15.99-3.03-23.75,1.32-2.79,6.34-8.31,6.55-10.52.35-3.62-5.67-9.89-5.02-14.44l-6.13,14.35c-4.97,4.76-9.19,15.29-16.37,16.65-2.42.46-1.13-1.06-1.49-2.01-.64-2.32-.42-4.66,0-7,2.38-12.99,6.67-28.15,20.03-33.55-7.5-14.82-6.78-31.66-10.04-47.45l-6.11,15.37c-1.88,3.81-3.15,5.61-5.88,8.62-1.8,2.02-3.13,3.68-4,5-2.55,2.2-8.48,6.68-11.7,6.85-2.72.14-1.9-2.5-2.3-3.85-.66-3.31-.49-6.68,0-10,1.91-9.37,10.18-22.08,18.06-27.44,2.05-1.39,9.42-3.55,9.65-5.02l-7.72-35.54-6.99,11.99-3,4c-1.65,1.4-5.54,5.02-6.71,5.79-2.67,1.74-10.24,5-13.34,3.76-3.76-2.48,5.09-15.79,7.05-18.55.93-1.14,1.93-2.14,3-3l3-3c4.77-3.35,6.73-5.22,13-6,1.31-1.09,1.65-2.76,1-5-1.55-7.63-3.09-15.25-4-23-1.05-5.93-.76-12.03,0-18-.05-4.29.45-8.79-.49-12.99-8.05,8.71-22.24,19.19-33.85,22.15-12.56,3.2-15.28,3.05-9.36-9.36,8.37-17.56,27.5-26.27,46.57-24.93,4.13-11.02,4.3-23.19,5.13-34.86l-15.32,17.67c-3.86,1.51-16.88,11.78-20.6,9.26-2.56-13.24,10.98-29.52,22.25-35.11,4.74-2.35,9.36-2.39,14.24-3.76-.07-7.54,1.92-14.64,2.43-22.07l1-9c-.1-4.04-.15-6.92,0-11-.65-1.26-1.32-1.6-2-1-3.96,8.99-9.44,18.67-18.45,23.05-1.83.89-12.64,3.86-13.55,2.95-1.76-14.15,8.95-29.45,21.33-35.18,1.95-.9,3.81-1.16,5.67-1.82,2.08-.1,3.75-.77,5-2-.22-3.4-2.47-6.65-2.94-9.59-.28-1.8.05-3.62-.06-5.41-.82-4.25-.92-8.86,0-13-.64-1.53-.97-3.2-1-5-1.12-6.39-3.37-10.93-4.73-16.77-3.78-16.33-7.38-43.38-5.33-59.79.4-3.18,1.33-2.4,2.05-3.43.31-.43.64-.42,1,0Z"/>
  <path class="cls-57" d="M329,1074c7.11,18.25,4.76,58,4.96,79.54.24,26.05.64,41.64-4.96,67.46l-1-1c1.38-6.18,1.77-13.67,2.99-20-8.5,8.5-23.56,21.55-36.51,20.07-7.37-.84-.1-10.73,2.88-13.71,3.79-3.79,15.35-9.58,20.6-10.9,3.7-.93,10.63-.67,13.05-1.45.34-2.58.68-5.24,1-8,.03-1-.02-2,0-3-.82-2.33-.82-4.69,0-7-.04-2.94.45-6.18-.49-8.99-5.13,3.79-11.16,9.98-17.47,11.53-2.54.63-10.9,2.24-11.11-1.05-.53-8.26,21.1-20.3,28.97-19.58.42-11.84-1.48-23.35.09-34.9-1.73-1.93-5.88,7.07-6.56,7.93-3.41,4.26-13.86,12.91-18.75,15.25-5.55,2.66-11,3.74-17.22,2.82-1.58-.23-1.51.6-1.5-1.51.06-18.81,24.14-39.12,43.04-35.49-.12-4.65.15-9.36,0-14.01-.86-1.88-.78-4.11,0-6-.15-1.78-1.37-9.99-2.5-9.98-.71,0-8.49,7.4-11.55,8.42-5.46,1.82-8,.32-5.43-5.43,1.99-4.44,12.44-10.6,17.48-11.02Z"/>
  <path class="cls-16" d="M387,1043l-5,1c-3.96.19-8.06.24-12,0-2.32-1.1-1.98-1.76,1-2,1.72-2.19,4.69-3.22,8.93-3.07-3.12-2.36-4.43-4.68-3.93-6.93-1.52-2.02-1.52-3.02,0-3,2.79,2.47,11.5,10.32,11,14Z"/>
  <path class="cls-49" d="M371,1042l-1,2c-6.15-.37-11.5-.62-17-4v-3c2.1-1.09,4.97-.66,8.61,1.29,4.27.32,7.4,1.56,9.39,3.71Z"/>
  <path class="cls-110" d="M376,1029v3c-2.76,1.49-9.12-4.1-8-7l1-1c2.33,1.61,4.88,3.12,7,5Z"/>
  <path class="cls-22" d="M329,1073c-3.2.79-2.17-5.02-3-8h1c.61,2.6,1.37,5.08,2,8Z"/>
  <path class="cls-118" d="M227,484c-.05-.42-.92-1.61-1.07-3.38-.35-4.11-.43-10.73,1.07-14.62.07,5.99-.05,12.01,0,18Z"/>
  <path class="cls-33" d="M448,1225c1.56,2.53-1.43,5.37-4,4h-2c2.29-2.82,2.76-2.8,5-5l1,1Z"/>
  <path class="cls-48" d="M509,1171c-2.97-1.69-4.78-4.56-7-7,4.07.35,5.27,4.62,7,7Z"/>
  <path class="cls-51" d="M295,857c.08-4.32.02-8.68,0-13,1.7,3.21,1.67,9.99,0,13Z"/>
  <path class="cls-21" d="M234,323c-1.84-3.32-1-8.9-1-13,.28-.87.62-.86,1,0,.31,4.28-.26,8.71,0,13Z"/>
  <path class="cls-27" d="M256,398c-.06-3.4-.78-8.4,1-11-.08,3.49.89,8.33-1,11Z"/>
  <path class="cls-38" d="M525,1323c-3.14.13-8.1.42-11,0,2.54-1.71,8.66-1.66,11,0Z"/>
  <path class="cls-42" d="M303,644c-3.24-.47-8.07.67-11,0,3.09-2.37,7.64-.81,11,0Z"/>
  <path class="cls-43" d="M485,1266c-1.84-2.42-1.49-6.19-2-9,2.98,2.1,1.71,5.99,2,9Z"/>
  <path class="cls-111" d="M359,1001l-6-6c.96.62,1.97.45,3.55,1.93,1.88,1.77,1.58,2.57,2.45,4.07Z"/>
  <path class="cls-24" d="M214,595c-1.53-5.22-1-5.12,0-10v10Z"/>
  <path class="cls-92" d="M295,840c-1.66-2.02-1.71-7.79,0-10,.04,3.33-.02,6.67,0,10Z"/>
  <path class="cls-59" d="M428,914c-2.99.06-6.01-.08-9,0,2.6-2.62,6.53-.47,9,0Z"/>
  <path class="cls-15" d="M435,956c-2.98-.13-6.01.09-9,0,2.4-.42,6.42-2.66,9,0Z"/>
  <path class="cls-84" d="M238,372c.2-2.87-.94-6.96,1-9,.07,2.76.74,7.07-1,9Z"/>
  <path class="cls-18" d="M291,889c1.47-1.34,2.39-4.5,4.99-3.99.03.66-.02,1.33,0,1.99l-5,2Z"/>
  <path class="cls-9" d="M472,1401c-.56-2.56-2.56-6.38,0-9-.09,2.99.06,6.01,0,9Z"/>
  <path class="cls-105" d="M228,592l-.98-.5c1.14-1.85,3.73-3.13,4.98-4.5.01,2.68-2.35,3.58-4,5Z"/>
  <path class="cls-1" d="M254,320c-.35-2.57-.69-5.26-1-8,2,1.73.68,5.5,1,8Z"/>
  <path class="cls-21" d="M419,1029l-4,2c.44-.69.8-3.85,1.01-4,1.82-.37,2.21.62,2.99,2Z"/>
  <path class="cls-40" d="M397,1040c-1.12-4.19-1.52-3.54,0-8v8Z"/>
  <path class="cls-122" d="M247,467c-.22-.18-1.79.55-2.03-.63-1.01-2.34.87-5.01,1.03-6.37l1,7Z"/>
  <path class="cls-12" d="M437,1201c-2.48-2.39-.68-5.61,0-8,.06,2.66-.09,5.34,0,8Z"/>
  <path class="cls-23" d="M391,1104c-1.66,1.79-5.49.98-8,1,1.71-1.88,5.46-.85,8-1Z"/>
  <path class="cls-86" d="M331,1194c.32-2.5-1-6.27,1-8-.08,2.47.19,4.97-.08,7.45-.1.64-.53.42-.92.55Z"/>
  <path class="cls-58" d="M254,522l1.33.03c1.15,2.66,1.73,1.64,3.67,1.97l-3.99,2.01c.23-1.51-.6-2.69-1.01-4.01Z"/>
  <path class="cls-74" d="M230,221l-4,4h-1c1.48-2.13,2.17-3.56,5-4Z"/>
  <path class="cls-26" d="M297,910c-1.74-1.36-.98-4.81-1-7,1.79,1.39.91,4.79,1,7Z"/>
  <path class="cls-44" d="M266,902c-2.13.44-4.29,2.59-7,0h7Z"/>
  <path class="cls-56" d="M315,1256c-2.25.25-4.72-.17-7,0,1.84-.41,4.94-2.62,7,0Z"/>
  <path class="cls-67" d="M363,1069c-4.58,1.05-3.01.63-7,0h7Z"/>
  <path class="cls-114" d="M458,982c-4.71,1.11-3.23.48-7,0h7Z"/>
  <path class="cls-46" d="M556,1438c-5.33,4.77-3.19.78-4-1,1.23.86,2.56.91,4,1Z"/>
  <path class="cls-78" d="M429,931c-.57.08-1.53,1.14-3.5,1.14s-2.85-1.03-3.5-1.14h7Z"/>
  <path class="cls-37" d="M234,651c-1.72-4.51-.63-3.54,0-7v7Z"/>
  <path class="cls-21" d="M435,1124l2-4c2.86,1.41-1.16,3.06-2,4Z"/>
  <path class="cls-35" d="M351,1125c-.07-2.33.02-4.67,0-7,1.65,1.26,1.65,5.74,0,7Z"/>
  <path class="cls-10" d="M332,1183c-1.65-1.26-1.65-5.74,0-7,.03,2.33.04,4.67,0,7Z"/>
  <path class="cls-29" d="M358,1056h-6c3.49-.46,1.82-.88,6,0Z"/>
  <path class="cls-125" d="M482,1204c-1.68-1.09-.98-4.11-1-6,1.68,1.09.97,4.11,1,6Z"/>
  <path class="cls-81" d="M351,1105c-1.61-1.05-1.06-4.15-1-6,.28-.87.62-.86,1,0v6Z"/>
  <path class="cls-2" d="M294,811c-1.72,1.69-3.74.95-6,1,1.8-.44,3.52-1.8,6-1Z"/>
  <path class="cls-76" d="M331,1098c-1.64-1.01-1.61-5.05,0-6,.17,1.97-.07,4.02,0,6Z"/>
  <path class="cls-24" d="M314,795l4,3c-3.69-.89-3.82,2.05-4-3Z"/>
  <path class="cls-115" d="M370,722c-1.51.34-4.25,2.61-6,0,2,0,4,0,6,0Z"/>
  <path class="cls-89" d="M297,916c.04.51,1.83,2.37.99,4-1.28.45-1.88-.98-1.99-1l1-3Z"/>
  <path class="cls-71" d="M224,533c.07-1.97,1.27-3.24,3-4,0,2.47-1.62,2.84-3,4Z"/>
  <path class="cls-80" d="M214,521c-.88.88-1.36,2.54-3,3,1.26-1.78.81-1.84,3-4,.47.31.46.64,0,1Z"/>
  <path class="cls-23" d="M231,507c.6,2.95,3.21,4.48-1,5l1-5Z"/>
  <path class="cls-123" d="M237,338c.04.66-.02,1.34,0,1.99h-5.01c1.54-.54,3.24-1.64,5-1.99Z"/>
  <path class="cls-102" d="M420,957c-.64.24-2.37,2.44-2.98,2,.02-1.12-.58-2.03-1.02-3l4,1Z"/>
  <path class="cls-100" d="M286,1045c-2.3-2.47-.81-3.79,0-6v6Z"/>
  <path class="cls-73" d="M455,1168v-3c.26.64,1.68,1.57,1.98,2.5-1.08,1.9-1.87.42-1.98.5Z"/>
  <path class="cls-48" d="M501,1163l-3-3c3.42,2.03,1.66,1.45,3,3Z"/>
  <path class="cls-94" d="M372,1149c-2.57-.2-3-.53-5-1,1.6.06,4.15-.62,5,1Z"/>
  <path class="cls-13" d="M375,1105c-2.5-.19-3.29-.69-5-1,1.6.06,4.15-.62,5,1Z"/>
  <path class="cls-83" d="M417,1101c-1.71.51-2.59,2.41-5,0h5Z"/>
  <path class="cls-44" d="M351,1099h-1c.05-1.65-.64-4.95,1-5v5Z"/>
  <path class="cls-115" d="M474,1053c-1.6-.06-4.15.62-5-1,2.62.19,2.86.44,5,1Z"/>
  <path class="cls-41" d="M387,1043c-.23,1.69-3.28.92-5,1,.85-1.62,3.4-.94,5-1Z"/>
  <path class="cls-119" d="M423,1047c-.45-1.89-.64-3.35-1-5,1.62.85.94,3.4,1,5Z"/>
  <path class="cls-108" d="M366,1250c-2.86.16-3.11-.54-5-1,1.6.06,4.15-.62,5,1Z"/>
  <path class="cls-31" d="M462,1254c-.08-.81-.94-2.51-1-5,1.62.85.94,3.4,1,5Z"/>
  <path class="cls-21" d="M510,1258v-5c.39,1.29,2.59,3.4,0,5Z"/>
  <path class="cls-111" d="M318,1035c-.39-1.87-.75-2.6-1-5l1,5Z"/>
  <path class="cls-46" d="M463,1261c-.28-1.6-.73-2.83-1-5,1.62.85.94,3.4,1,5Z"/>
  <path class="cls-113" d="M335,991c-.26.07-.77,1.41-2.48,1-2.13-1.34-.48-1.88-.52-2l3,1Z"/>
  <path class="cls-121" d="M306,990l-.98-.49c.65-1.2,2.19-1.72,2.98-2.51.23,1.99-1.16,2.14-2,3Z"/>
  <path class="cls-18" d="M344,967c-1.21.32-3.54,2.54-5,0,1.67,0,3.33,0,5,0Z"/>
  <path class="cls-7" d="M402,873c-.85,1.62-3.4.94-5,1,1.94-.44,2.25-.92,5-1Z"/>
  <path class="cls-2" d="M314,833l-1-5c.03.26.8,4.12,1,5Z"/>
  <path class="cls-114" d="M438,1316c.03-2.68.83-3.64,1-5-.06,1.6.62,4.15-1,5Z"/>
  <path class="cls-12" d="M314,791c.06-1.6-.62-4.15,1-5-.16,2.1-.95,4.39-1,5Z"/>
  <path class="cls-106" d="M300,1332c.08-2.37.95-4.37,1-5-.06,1.6.62,4.15-1,5Z"/>
  <path class="cls-111" d="M301,1339c-.27-1.62-.89-2.37-1-5,1.62.85.94,3.4,1,5Z"/>
  <path class="cls-65" d="M300,763c.31-1.24.68-3.44,1-5l-1,5Z"/>
  <path class="cls-7" d="M489,1355c.47,1.45,1.74,2.75.98,5.01-.61.19-.91-1.02-.98-1.01v-4Z"/>
  <path class="cls-126" d="M302,752c.26-1.65.91-4.21,1-5-.06,1.6.62,4.15-1,5Z"/>
  <path class="cls-36" d="M320,688c-.63.49-.83,2.46-2.49,2.01-1.06.05-.27-1.52-.51-2.01h3Z"/>
  <path class="cls-105" d="M522,1375c-1.82.17-3.43-.14-4-2,.17.14,3.79,1.93,4,2Z"/>
  <path class="cls-118" d="M263,557c-1.62-.85-.94-3.4-1-5,.35,1.68.67,3.3,1,5Z"/>
  <path class="cls-64" d="M217,518c-.43,1.67-2.11,2.11-3,3v-1c1.66-1.64,1.96-1.27,3-2Z"/>
  <path class="cls-52" d="M258,370c.06-1.6-.62-4.15,1-5-.08,2.27-.97,4.53-1,5Z"/>
  <path class="cls-8" d="M239,352l-2-1c.6-1.37.77-3.33,1.99-3,0,1.32.06,2.67.01,4Z"/>
  <path class="cls-21" d="M262,333c-1.52-.21-2.68.55-4,1-.41-3.91,2.05-1.51,4-1Z"/>
  <path class="cls-102" d="M257,334c-.06.03.14,1.17-.99,1v-5c.39,1.13,1.69,2.12.99,4Z"/>
  <path class="cls-60" d="M234,310h-1c0-1.67,0-3.33,0-5,.29,1.66.82,2.5,1,5Z"/>
  <path class="cls-68" d="M243,259c-.14-1.64.08-3.35,0-5,1.58.66,1.58,4.34,0,5Z"/>
  <path class="cls-48" d="M512,1457c-.49-1.95-1.1-2.12-1-5,1.62.85.94,3.4,1,5Z"/>
  <path class="cls-39" d="M464,1254c-.81-7.15-.3-11.07,0-18l.99,12.51-.99,5.49Z"/>
  <path class="cls-53" d="M321,694.01c5.2-1.44,30.12,13.66,31.99,11.99,1.43-1.28-1.73-2.63-2.45-3.04-8.72-4.92-20.02-8.84-29.54-11.97,22.45-18.77,48.86,4.07,60,24.49-.36,1.63-10.54,4.42-12.52,4.56-2.75.2-11.94-.68-14.87-1.14-10.98-1.74-29.13-13.86-32.6-24.89Z"/>
  <path class="cls-30" d="M352,1085c2.2-.12,4.32-1.65,6.58-1.91,10.97-1.27,36.46,4.58,40.42,16.9-16.02,3.75-38.4,4.91-48-10.99-.29-2.78,2.34-3.08,7.92-.88-3.33-.27-5.64-1.31-6.92-3.12Z"/>
  <path class="cls-53" d="M368,1025c1.66,1.13,6.26,5.36,8,7,.85.8,8.4,7.83,7,8.99-4.13-.51-7.91,1.08-12,1.01-4.71-.09-13.97-2.5-18-5-1.57-.97-15.18-14.01-14-14.99,5.33,1.21,10.36,4.69,15.67,5.84,1.91.41,1.86-1.27,1.32-1.83-1.16-1.19-12.14-4.37-14.72-5.78-1.15-.63-1.7.05-1.28-2.23,9.93-1.83,19.79,1.4,28,7Z"/>
  <path class="cls-53" d="M422,964.01l18.51,4.96,1.01-1.98c-7.06-2.85-14.81-5.47-22.51-6,.59-1.68,5.1-2.74,6.58-2.91,17.06-1.95,28.86,5.99,40.4,17.42-12.85,10.57-34.89-.16-43.98-11.49Z"/>
  <path class="cls-53" d="M435,1104.01c-2.37,4-12.38,9.74-13.99,13.5-.51,1.18.29,1.98,1.48,1.48,3.38-1.44,11.5-12.47,16.5-13.99-2.16,18.07-14.74,31.19-32.99,32.99,3.86-15.77,11.89-30.44,29-33.98Z"/>
  <path class="cls-30" d="M465,1275.01c.96.87-13.23,18.59-13.99,20.51-.47,1.2.28,2,1.47,1.47,3.45-1.51,9.53-15.31,13.5-17.99-.98,12.5-6.44,22.66-14.48,32.01-1,1.16-9.48,10.14-10.51,8.98-.95-17.12,7.38-38.13,23.99-44.99Z"/>
  <path class="cls-30" d="M378,914.01c-2.79,4.25-13.19,12.8-14.02,17.48-.32,1.84.74,2.1,2.04,1.03.9-.74,13.17-18.91,14.97-16.52.56,9.76-8.5,17.77-16.07,22.42-4.58,2.82-10.42,6.2-15.92,5.58.53-15.44,14.25-27.96,29-29.99Z"/>
  <path class="cls-72" d="M488,1221c14.01,7.64,15.57,20.63,20,34.99-17.37-.14-24.71-19.27-24.99-33.99,5.86,4.28,7.25,12.71,12.98,17-.86-4.46-5.97-13.69-8.99-17-1.33-1.41-.77-1.92,1-1Z"/>
  <path class="cls-72" d="M353,781.99c-15.25,3.58-29.64-6.66-31.99-21.98,1.55-1.69,16.77,12.86,18.49,14,1.53,1,2.54.34,2.48-.51-.18-2.64-17.73-14.22-19.98-17.49,15.36-.96,24.22,14.44,31,25.98Z"/>
  <path class="cls-30" d="M513,1181.99c-19.06-.19-28.43-7.79-36.99-23.98,1.82-1.5,15.41,9.45,17.9,10.59,1.51.69,2.44.93,2.09-1.08l-18.99-12.5c5.95.09,14.14,3.15,18.93,6.55,2.21,1.57,19.14,18.56,17.06,20.43Z"/>
  <path class="cls-85" d="M291.99,361.99c-14.39,3.17-29.67-9.88-33.98-22.99.75-.9,17.22,12.25,19.29,13.2.94.43,3.08,1.59,3.7.3-1.97-3.4-21.87-14.65-21.98-16-.29-3.8,11.82,1.3,13.04,1.94,5.86,3.1,13.2,13.06,17.35,18.65.67.9,3.25,4.02,2.59,4.9Z"/>
  <path class="cls-30" d="M465,1113.01c9.57-5.69,25.09,3.91,30.43,12.05,2.03,3.09,2.3,3.94-1.42,5.45-11.19,4.54-22.59-4.28-29.99-12.01,4.44-3.94,11.26,1.77,15.67,3.32,1.62.57,1.61,2.02,3.29-.32-2.32-1.9-5.54-3.53-8.3-4.68-3.32-1.37-7.55-1.16-9.67-3.81Z"/>
  <path class="cls-66" d="M448,1058c.47-1.39,4.58-2.2,5.97-2.53,14.36-3.39,30.53,2.66,43.54,8.53,1.38,1.33-3.73,1.62-4.3,1.72-12.56,2.13-33.52,3.78-43.21-5.71h15.5c.56,0,2.11,1.52,3.98,1,2-.55,1.07-3,.02-3h-21.5Z"/>
  <path class="cls-30" d="M524,1319.99c-14.57,2.62-24.47-6.02-31-17.98,1.32-1.1,15.05,8.7,17.51,9.98.82.02.67-2.03.53-2.48-.3-.94-14.67-8.93-16.87-10.22-1.23-.72-2.77.58-2.16-2.3,15.95,2.99,27.5,5.39,31.99,22.99Z"/>
  <path class="cls-30" d="M349.99,881c1.38,1.34-8.99,14.21-8.97,15.5,0,.68,1.08,1.79,2.49.51,2.84-2.58,6.32-11.87,9-13.01,2.05-.87,1.4,1.4,1.48,2.47,1.02,12.53-10.88,20.61-20.99,25.52.1-11.83,3.74-27.91,16.98-31Z"/>
  <path class="cls-85" d="M405,989.01c-1.68,2.79-16.55,12.07-17.02,13.49-.36,1.09-.26,3.25,1.51,2.49-.09-.9,19.86-16.78,18.51-12.5-4.69,10.91-17.29,18.03-28.99,17.5,4.02-11.68,11.97-23.53,26-20.98Z"/>
  <path class="cls-66" d="M410,917c11.17-2.23,23.74-1.92,32.98,5.5-6.65,6.3-18.06,8.64-26.33,4.35l-9.64-5.84c4.09-.07,20.54,2.75,22.51,0,.06-3.55-5.13-.81-8.01-.91-3.33-.11-6.97-.81-10.5-1.1-2.18-.48-2.51-1.15-1-2Z"/>
  <path class="cls-72" d="M448,1225c3.25-3.25,7.3-7.21,12-7.99.62.51-9.17,10.33-9.99,12.51-.69,1.82,1.4,1.87,2.49,1.5.55-.19,1.47-3.29,2.49-4.53,1.63-1.99,4.5-5.88,7.01-6.48-3.98,11.33-11.7,24.57-24.99,25.99-1.78-1.85,5.38-14.84,6.99-17,.39-.52,3.12-3.12,4-4Z"/>
  <path class="cls-66" d="M486,1368c-1.2,1.98-4.43,8.44-4.99,10.52-.22.81-1.63,3.65.49,3.46,1.15-.1,5.27-9.92,6.3-11.72.74-1.3,1.82-1.72,2.2-2.26.89.82.57,2.01,0,3-.24,7.24-6.05,21.35-10.17,27.33-6.63,9.65-6.41.29-5.82-6.82.79-9.52,4.91-17.38,10.98-24.52,1.41-1.33,1.92-.77,1,1Z"/>
  <path class="cls-88" d="M283.99,432.99c-10.12.13-24.54-9.09-26.99-18.99,1.68-1.79,12.76,8.3,14.51,8.98,1.28.5,1.85-.19,1.47-1.47l-14.99-10.5c6.97-3.95,29.9,18.19,25.99,21.98Z"/>
  <path class="cls-66" d="M326.01,957.01l15.99.99c.74-2.51-2.16-2.48-3.76-2.7-3.09-.44-6.14-.32-9.23-.3-.46-2.58.42-1.79,2-2.44,7.82-3.23,14.85.29,21.69,4.25,5.6,3.25-3.39,6.66-6.88,7.51-6.94,1.7-17.23.14-19.81-7.31Z"/>
  <path class="cls-66" d="M505,1413c.18,1.26-.14,2.71,0,4,1.46,1.9,4.9-12.02,6.98-12,.85,9.74-2.88,19.73-7.13,28.36-2.08,4.22-5.92,13.06-6.86,3.15-.88-9.3,2.58-16.25,6-24.51,1.42-1.46,1.38-.95,1,1Z"/>
  <path class="cls-66" d="M526,1378c8.31.39,14.8,2.69,21.5,8,1.68,1.33,7.24,7.4,3.02,8-10.97,1.56-21.98-2.51-26.52-13,5.8-.19,10.32,4.51,14.91,6.59,1.44.65,2.81.69,2.08-1.08-1.16-2.8-11.8-6.77-14.99-7.51-.82-.29-.8-.62,0-1Z"/>
  <path class="cls-88" d="M522,1427c.04,3.91-3.54,9.6-2.99,13.99,2.83.51,1.64-.67,2.25-2.19,1.11-2.78,1.51-5.83,2.49-8.61.57-1.62-.52-2.67,2.25-2.19.37,4.94-.2,9.42-1.29,14.2-.42,1.84-6.49,20.66-9.69,17.8-1.97-9.45-.1-26.36,5.99-34,1.8-1.37,2.37-.79,1,1Z"/>
  <path class="cls-66" d="M322,656.99c-6.69,1.65-13.23,2.27-20.04.55-.94-.24-9.76-4.18-7.96-5.53,4.63-.84,9.23.73,13.51,1,1.69.1,2.44-1,1.48-1.99-1.99-2.06-15.31-.56-15.93-1.08-.16-.14-1.37-3.65-1.07-3.93,10.55-.6,23.54,1.86,29.99,10.98Z"/>
  <path class="cls-88" d="M450,1178c-1.54,2.74-4.66,8.17-3.51,10.99,3.23-3.51,5.06-7.98,7.51-11.99,1.3-1.32,1.53-.77,1,1-2.08,10.68-4.36,20.43-14.99,26-3.34-9.77,2.68-19.83,8.99-27,1.41-1.33,1.92-.77,1,1Z"/>
  <path class="cls-87" d="M386,887.99c-1.33-1.33.23-1.75,1.27-2.22,2.68-1.23,15.63-2.38,15.71-4.27-1.48-2.23-2.04-1.07-3.79-.82-4.23.61-8.78,2.33-13.19,2.31,1.5-6.42,26.07-10.45,25.98-5.49-3.98,6.08-11.01,11.15-18.51,11.55-1.13.06-7.2-.79-7.47-1.06Z"/>
  <path class="cls-87" d="M429,1078c.87.28.86.62,0,1-2.76,2.52-10.01,8.22-10.99,11.52-.37,1.26.24,2.01,1.47,1.47.8-.35,11.17-13.71,12.5-11.99,0,11.45-7.95,18.22-18.99,18.99,3.69-12.4,2.48-17.33,16-20.99Z"/>
  <path class="cls-87" d="M319,801c10.9,4.18,15.96,7.54,20,18.99-7.8-.99-13.88-2.14-19.52-7.97-1.28-1.32-4.85-6.24-5.48-8.02.28-1.68,1.6-1.77,3.96-.26l.04-1.74c-1.11-.85-.77-1.18,1-1Z"/>
  <path class="cls-88" d="M337,993c6.32-2.2,10.21.48,15.01,4.49,1.32,1.1,7.02,6.89,6.96,8.02-.24,4.75-24.43-1.26-23.97-8.51.5-.53,11.59,5.59,13.99,3.5-2.47-1.68-9.45-5.2-12-5.5-2.07,0-1.69-1.06,0-2Z"/>
  <path class="cls-88" d="M366,1246.99c-9.79,1.01-18-9.78-17.99-18.99l8.5,8.99c1.49.26,1.77,0,1.5-1.5-.58-3.23-6.64-6.33-8.02-9.48,11.19.17,13.11,12.53,16,20.98Z"/>
  <path class="cls-87" d="M295.99,599c-8.38-1.6-18.63-2.28-23.99-9.99,4.12-.62,7.15,2.57,10.69,3.81,1.62.57,1.61,2.02,3.29-.32l-16.98-8.49c5.92-5.22,31.39,10.1,26.99,14.99Z"/>
  <path class="cls-101" d="M530,1348.99c-9.64,1.43-17.44-2.19-23-9.98,5.16-.68,12.3,6.31,16.49,6,.88-.06.67-1.81.51-2-1.55-1.83-11.05-4.59-13.77-5.74-1.23-.53-2.95-.54-3.23-2.27,8.41-2.62,21.69,5.49,23,13.99Z"/>
  <path class="cls-104" d="M351,843c5.82-1.29,11.04-1.12,17-.99-8.3,7.15-19.65,13.41-30.99,11.49l16.51-7.49-2.52-2.02c-.87-.28-.86-.62,0-1Z"/>
  <path class="cls-87" d="M367,1137c1.74.7,3.89.79,5.7,1.8s10.25,8.47,3.82,8.19c-9.38-.4-18.24-2.64-23.52-10.98l14.99,3.98-1-1.99c-.83-.29-.82-.62,0-1Z"/>
  <path class="cls-5" d="M466,1040.99c-7.7,2.88-16.63,3.06-22-3.98,2.68-1.33,10.38,4.88,10,0l-10.99-4c7.42-2.19,19.16,1.28,22.99,7.98Z"/>
  <path class="cls-5" d="M413,1022.01c-1.61,2.57-7.29,4.5-7.97,7.51-.3,1.3.19,2.02,1.47,1.47.71-.3,7.77-7.84,8.5-6.99-2.08,7.83-8.01,14.23-15.98,15.99-1.26-8.83,4.8-17.84,13.99-17.98Z"/>
  <path class="cls-25" d="M386,943c-3.5,3.52-7.3,7.75-9.01,12.49,1.25,1.78,2.12-.4,2.83-1.17,3.52-3.84,6.19-9.03,10.69-12.31,1.39.67-.15,2.54-.51,3.49-2.85,7.43-7.61,13.59-15.98,14.51-.09-7.71,4.69-14.06,10.99-18,1.41-1.33,1.92-.77,1,1Z"/>
  <path class="cls-25" d="M347,1063c.45-1.78,1.52-1.61,3.1-1.24-2.1.2-3.13-.39-3.1-1.76-.87-.28-.86-.62,0-1,4.6-.95,19.69-1.51,21,4.51,1,4.6-16.47,4.21-21-.51Z"/>
  <path class="cls-91" d="M307,1259c1.48-.17,2.15.16,2,1l-8.98,4.5c1.7,2.38,1.7.84,3.28.31,3.74-1.25,7.51-3.77,11.7-3.8-5.34,6.73-15.95,9.56-24,7.98,4.12-6.12,9.03-8.44,16-9.99Z"/>
  <path class="cls-91" d="M260.01,531.99c-.23-1.85,2.08-.87,3.03-.53,1.51.55,7.15,4.3,7.96,3.53,2.06-1.94-10.93-8.07-12.99-7.01.1-1.75,4.71-1.51,5.8-1.31,1.89.35,7.8,3.3,9.54,4.48,6.99,4.74,7.54,8.26-2.4,6.39-4.86-.92-6.68-3.8-10.93-5.57Z"/>
  <path class="cls-107" d="M335,914c1.56-1.38,2.14-.8,1,1-3.83,2.9-9.16,5.55-14,5.99l5.99-6.98-6.5,2.99c-.71-4.32,5.6-8.51,9.01-10.99.04,6.06-1.96,6.44,4.49,7.99Z"/>
  <path class="cls-61" d="M352,1085c9.88,3.18,20.76,4.98,30.27,9.23,1.4.62,3.32,1,3.73,2.76-9.19-1.32-17.74-5.53-26.8-7.69-2.2-.53-6.39-2.17-8.2-.3-.94-1.57-2.24-2.96-1.99-5,.16-.21,2.01,1.05,2.99,1Z"/>
  <path class="cls-69" d="M572,1443.99c-3.59,1.21-7.67,2.71-11.5,2.8-.84.02-5.54-.36-5.49-1.78,2.28.13,4.5-.28,6.68-.87,1.72-.46,2.78.72,2.31-2.13-3.31-.09-6.9-.52-9.5,1.99-1.63-2.81,3.46-4.13,5.97-4.05,2.34.08,9.91,2.1,11.53,4.04Z"/>
  <path class="cls-96" d="M315,800c1.54.49,2.54,1.16,3,2,1.36.83,15.09,9.91,12.99,11.99l-10.66-7.83-6.34-2.16c-.58-1.64-1.64-2.77-.99-5,1.28-.45,1.86.97,1.99,1Z"/>
  <path class="cls-54" d="M338,1292c.49-2.8-5.94-6.23-7-8.99,7.82-.93,9.33,7.52,12.99,12.5-1.68.76-6.57-.76-7.99-1.51-1.68-2.22-.42-2.97,2-2Z"/>
  <path class="cls-70" d="M262.99,484.99c-1.82,1.74-14.34-6.08-13.99-9.99,1.22-1.24,6.03,4.15,7.01,4.55,1.16.48,1.85-1.6,2.99-1.13s4.89,5.71,4,6.57Z"/>
  <path class="cls-70" d="M266,510c-4.55.18-9.62.69-12-3.99.3.46,10.42,3.53,7,0-.73-.75-7.4-1.84-7.99-4.01,2.67-.85,16.1,4.94,12.99,7.98Z"/>
  <path class="cls-62" d="M347,1060c1.83.39,10.64,1.56,11.01,2.51.86,2.22-2.19,1.51-3.38,1.37-2.48-.28-4.94-1.41-7.63-.88-.31-.32-.84-.71-1-1-.59-1.34-.58-2.42,1-2Z"/>
  <path class="cls-95" d="M351,843v1c-.97,1.34-12.94,6.64-13.01,4.5,4.22-2.17,8.29-4.45,13.01-5.5Z"/>
  <path class="cls-75" d="M336,1294c-2.38-1.24-4.95-4.17-4.99-7l6.99,5c-.11.64-1.48,1.46-2,2Z"/>
  <path class="cls-82" d="M367,1137v1l-10.01-3.5c.04-2.41,9.21,2.18,10.01,2.5Z"/>
  <path class="cls-14" d="M505,1413c-.07-.47-.52-.89-1-1l3.99-6.99-2.99,7.99Z"/>
  <path class="cls-93" d="M486,1368l-1-1c1.47-1.73,2.75-4.03,4.99-5,.39,2.67-3.08,4.51-3.99,6Z"/>
  <path class="cls-11" d="M307,1259c2.95-.65,5.48-1.67,8.99-.99l-6.99,1.99-2-1Z"/>
  <path class="cls-124" d="M450,1178l-1-1c1.17-1.33,2.07-3.4,3.99-4,.46,2.19-2.06,3.35-2.99,5Z"/>
  <path class="cls-50" d="M521,1426c4.38-5.49,5.93-2.58,1,1,0-.46-.4-1.17-1-1Z"/>
  <path class="cls-116" d="M526,1378v1c-.89-.21-2.16-.9-2.56-.93-.77-.06.31,3.94-2.42.43,1.78-2.97,3.63-.56,4.98-.5Z"/>
  <path class="cls-32" d="M410,917l1,2c-1.97-.16-4.02.13-6-.01v-.98c1.72-.03,3.34-.68,5-1.01Z"/>
  <path class="cls-117" d="M488,1221l-1,1c-.68-.75-5.17-2.46-3.99-2.99,2.57-.71,3.57,1.21,4.99,1.99Z"/>
  <path class="cls-27" d="M329,904l3-4c-.22.82.28,1.97-.47,3.03s-2.19.72-2.53.97Z"/>
  <path class="cls-98" d="M316,891c-1.68-1.09-.97-4.11-1-6,1.68,1.09.98,4.11,1,6Z"/>
  <path class="cls-45" d="M335,914c1.05-1.25,2.32-2.28,4-1.99-.32,1.5-1.92,2.17-3,2.99-.18-.43-.56-.89-1-1Z"/>
  <path class="cls-6" d="M385,942c1.27-.79,2.01-2.52,4-1.99-.22,1.58-2.14,2.13-3,2.99l-1-1Z"/>
  <path class="cls-17" d="M256,474.02c.09.1.37,2.11-.49,1.98l-3.51-2.98c.73-.09,3.86.85,4,1.01Z"/>
  <path class="cls-55" d="M455,1178l-1-1c.8-1.31.59-3.33,1.99-3,.83,1.78-.85,3.26-.99,4Z"/>
  <path class="cls-103" d="M429,1078c5.5-1.49,4.13.92,0,1v-1Z"/>
  <path class="cls-34" d="M347,1059v1l-1,2c-.42-.76-1.65-1.17-.99-3,.64-.09,1.4.12,1.99,0Z"/>
  <path class="cls-47" d="M337,995c-.91-.11-2.73,1.29-2.99,1-.66-2.22,1.18-2.37,2.99-3v2Z"/>
  <path class="cls-19" d="M319,801l-1,1c-1-.61-2.32-.78-3-2,1.64.38,2.05.25,4,1Z"/>
  <path class="cls-90" d="M490,1371c.03-1-.02-2,0-3,.19-.28-.13-1.4.01-1.99h.98c-.09,1.55.68,4.1-.99,4.99Z"/>
  <path class="cls-53" d="M299,923.99c-4.89,2.1-17.5,9.52-18.98,14.53-.38,1.28.25,2,1.47,1.47,1.84-.79,14.45-15.56,17.51-12.98-5,16-24.33,28.83-41,28.99,3.83-13.04,14.74-27.49,27.61-32.89,4.17-1.75,10.56-3.98,13.39.88Z"/>
  <path class="cls-53" d="M227.99,444.01l-12.02,5.47c-1.76.94-12.48,6.97-12.97,7.54-.16.19-.37,1.93.5,1.99,3.71.28,20.14-13.25,22.48-11.01.23,1.84-1.04,3.13-2.01,4.48-5.09,7.04-26.34,19.47-34.93,21.07-2.02.38-3.99.64-6.05.44,5.11-19.37,25.2-32.41,44.99-29.98Z"/>
  <path class="cls-30" d="M240.99,557.01c.07,1.52-1.91,1.24-3.01,2.47-3.87,4.28-7.18,10.51-10.98,15.03.87,1.39,2.53.3,3.47-.53,3.05-2.65,5.74-11,10.51-12.98-2,14.19-11.26,29.71-24.98,34.99-2-15.36,9.5-35.4,24.99-38.99Z"/>
  <path class="cls-30" d="M302.99,725.01l-11.72,6.76-11.25,8.73c1.77,2.3,1.46,1.06,3.08.11,6-3.55,11.12-9.16,17.89-11.61,2.1,2.32-11.38,15.31-13.51,16.98-5.77,4.51-12.96,7.96-20.48,7.01,4.56-15.4,18.85-29.9,35.99-27.98Z"/>
  <path class="cls-30" d="M227,345c1.47-.49,1.76-.44,1,1-1.33.84-11.65,8.34-9.99,9.99,3.39-.88,16.1-13.26,18.99-10.98-4.29,13.67-14.27,28.77-30,28.98,1.04-12.83,8.76-23.39,20-28.99Z"/>
  <path class="cls-30" d="M230,398c1.49-.48,1.76-.45,1,1-4.72,2.42-15.47,9.36-16.99,14.52-1.73,5.88,7.05-5.12,7.49-5.51,1.24-1.09,11.99-8.61,12.48-8.01-5.33,14.69-18.99,24.85-32.98,31,.63-15.6,14.02-29.63,28.99-33Z"/>
  <path class="cls-72" d="M293,877.01l-14.98,11.49c1.77,2.3,1.46,1.07,3.08.11,4.41-2.61,7.89-6.84,12.89-8.61-4.93,12.22-20.39,19.41-32.99,19.99,4.44-13.07,18.08-23.33,31.99-22.98Z"/>
  <path class="cls-72" d="M307,978.01c-2.12,3.33-11.67,7.34-12.99,10.5-.51,1.21.26,1.94,1.47,1.47,1.92-.75,10.75-9.45,12.52-7.98-6.6,11.54-20.46,19.47-32.99,22.99,4.04-14.05,17.85-24.18,31.99-26.99Z"/>
  <path class="cls-99" d="M251.99,615.01c.77.79-10.18,15.7-10.98,18.51-.5,1.75.8,2.07,2.01,1,3.57-3.16,6.73-14.42,11.97-17.52.1,5.06-2.38,13.25-4.78,17.71-.86,1.59-12.15,16.66-14.2,14.29,1.23-10.35,3.69-22.53,11.02-30.46.78-.84,3.89-4.62,4.96-3.53Z"/>
  <path class="cls-66" d="M294,814.01l-12.99,7.5c-.41,2,.86,1.79,2.28,1.27,1.59-.58,8.64-5.82,9.71-4.78-3.93,10.46-17.31,14.08-26.99,16.99,3.2-12.14,15.3-21.62,27.99-20.98Z"/>
  <path class="cls-87" d="M308,1023c-1.31,1.02-11.45,8.66-10,9.99,1.89,1.73,13.76-10.81,16.5-11.99,1.53,2.85-1.69,5.71-3.48,7.52-6.04,6.12-15.38,10.71-23.02,14.47,1.58-10.53,10.02-16.9,18.99-21,1.48-.92,1.96-.57,1,1Z"/>
  <path class="cls-88" d="M213,528c3.05,2.72,6.73-3.66,9.53-5.97,2.64-2.18,5.63-4.11,8.46-6.03-3.53,11.54-13.79,21.12-24.98,25,.46-5.06,3.06-9.95,5.99-14,1.46-1.3,2.01-.72,1,1Z"/>
  <path class="cls-20" d="M262,645l-2.99,11.99c2.85.52,1.63-.71,2.24-2.2,1.31-3.18,2-7.06,4.26-9.79,1.41,6.62.46,14.8-3.65,20.35-4.44,5.98-5.19-7.57-4.9-10.91.48-5.45,2.27-6.53,5.05-10.45v1Z"/>
  <path class="cls-4" d="M212,527c3.2-4.44,8.43-9.94,14-10.99l-13,11.99c-.35-.31-.64-.7-1-1Z"/>
  <path class="cls-79" d="M232,343c.87.28.86.62,0,1-1.28.6-2.83,1.26-4,2l-1-1c2.35-1.17,2.23-1.21,5-2Z"/>
  <path class="cls-109" d="M307,1022c1.25-.57,2.47-2.81,4.99-1.99,1.04.47-3.09,2.28-3.99,2.99l-1-1Z"/>
  <path class="cls-28" d="M262,645v-1c.21-.29.67-4.02,2.01-2.49l-2.01,3.49Z"/>
  <path class="cls-77" d="M230,398c.82-.18,2.23-1.81,4-.99.33,1.3-1.62,1.28-3,1.99l-1-1Z"/>
  <path class="cls-97" d="M232,343c.78-.22,2.92-2.26,4.01-.5.01.59-2.9.98-4.01,1.5v-1Z"/>
  <path class="cls-53" d="M330,1115.99c-5.98.26-22.77,9.35-24.99,14.52-.51,1.18.29,1.98,1.48,1.48,1.31-.56,8.07-6.97,11.21-8.8,1.63-.95,11.47-6,12.3-5.19-4.15,12.48-22.11,28.99-35.55,29.04-8.13.03,1.45-14.84,4.04-18.05,5.33-6.63,11.94-11.73,20.31-13.69,3.18-.75,9.41-2.96,11.2.69Z"/>
  <path class="cls-85" d="M325,1197.01l-10.99,7.49c4.53,1.18,8.54-4.15,12.99-4.5-8.03,9.32-20.15,17.69-32.99,16.98,4.5-11.33,19.25-18.86,30.99-19.98Z"/>
  <path class="cls-107" d="M322,1165c-1.04.81-9.74,9.28-4.51,6.99.81-.35,11.42-10.34,12.5-8.99.52,6.13-21.15,16.39-23.99,13.99,3.02-7.41,8.13-10.1,15-12.99,1.48-.92,1.96-.57,1,1Z"/>
  <path class="cls-120" d="M321,1083c1.38-.27,1.72-.27,1,1-2.53,2.02-4.53,5.52-9,4.99-1.1-2.8,7.36-9.74,7.99-8.99-.03,1.33-.99,1.66,0,3Z"/>
  <path class="cls-50" d="M321,1164c1.16-.49,2.5-2.85,4.99-1.99,1.04.47-3.08,2.28-3.99,2.99l-1-1Z"/>
  <path class="cls-112" d="M321,1083l5-1.99c-.21,2.24-3.24,2.38-4,2.99-.41-.26-.71-.61-1-1Z"/>
</svg>