<?xml version="1.0" encoding="UTF-8"?>
<svg id="Lager_1" data-name="Lager 1" xmlns="http://www.w3.org/2000/svg" viewBox="0 0 2560 1600">
  <defs>
    <style>
      .cls-1 {
        fill: #546847;
      }

      .cls-2 {
        fill: #7b996a;
      }

      .cls-3 {
        fill: #728d62;
      }

      .cls-4 {
        fill: #627a55;
      }

      .cls-5 {
        fill: #87a774;
      }

      .cls-6 {
        fill: #88a976;
      }

      .cls-7 {
        fill: #86a774;
      }

      .cls-8 {
        fill: #8cad79;
      }

      .cls-9 {
        fill: #516446;
      }

      .cls-10 {
        fill: #718c62;
      }

      .cls-11 {
        fill: #323e2b;
      }

      .cls-12 {
        fill: #6f8a61;
      }

      .cls-13 {
        fill: #6f8a60;
      }

      .cls-14 {
        fill: #607753;
      }

      .cls-15 {
        fill: #8cae79;
      }

      .cls-16 {
        fill: #84a372;
      }

      .cls-17 {
        fill: #6c865e;
      }

      .cls-18 {
        fill: #0a0c09;
      }

      .cls-19 {
        fill: #2f4f3a;
      }

      .cls-20 {
        fill: #8bac78;
      }

      .cls-21 {
        fill: #7e9c6d;
      }

      .cls-22 {
        fill: #8bad79;
      }

      .cls-23 {
        fill: #6d885e;
      }

      .cls-24 {
        fill: #6a845c;
      }

      .cls-25 {
        fill: #000100;
      }

      .cls-26 {
        fill: #536748;
      }

      .cls-27 {
        fill: #4b5c41;
      }

      .cls-28 {
        fill: #708b61;
      }

      .cls-29 {
        fill: #738e63;
      }

      .cls-30 {
        fill: #8bad78;
      }

      .cls-31 {
        fill: #8aab77;
      }

      .cls-32 {
        fill: #8aac78;
      }

      .cls-33 {
        fill: #86a674;
      }

      .cls-34 {
        fill: #506446;
      }

      .cls-35 {
        fill: #4c5a43;
      }

      .cls-36 {
        fill: #8aab78;
      }

      .cls-37 {
        fill: #89aa77;
      }

      .cls-38 {
        fill: #89aa76;
      }

      .cls-39 {
        fill: #809e6e;
      }

      .cls-40 {
        fill: #87a775;
      }

      .cls-41 {
        fill: #667f58;
      }

      .cls-42 {
        fill: #6a835b;
      }

      .cls-43 {
        fill: #87a875;
      }

      .cls-44 {
        fill: #4c5f42;
      }

      .cls-45 {
        fill: #83a371;
      }

      .cls-46 {
        fill: #6d875e;
      }

      .cls-47 {
        fill: #080b07;
      }
    </style>
  </defs>
  <path class="cls-25" d="M226,224l2.01,2.4c-3.23,21.88,1.89,42.95,7.36,64.1,2.4,11.91,3.49,23.93,3.25,36.06,4.18,20.84,7.05,41.15,1.35,61.78-.79,23.5-3.73,46.84-8.81,70.02-1.42,16.19.98,32.37,4.42,48.17,7.52,29.36,13.76,58.93,18.82,88.83,7.31,31.98,20.8,55.72,39.52,82.51,20.52,30.63,15.64,70.97,6.19,103.87-4.65,72.85-.26,147.94,18.35,219.1,1.54,25.35,6.98,48.93,14.21,73.19,5.08,34.05,5.62,70.27,4.37,104.87-1.35,37.44-10.9,68.16-23.34,103.13-6.27,20.95-10.74,43.15-6.35,64.91.23-13.69.54-27.96,6.37-40.63,55.48-105.43,34.35-230.81,6.87-342.3-4.83-22.53-8.21-45.31-9.72-68.27-.43-6.59-1.07-27.68.22-32.88.68-2.74,1.08-2.88,3.63-3.22,9.53,5.24,18.68,10.21,29.46,13.24,17.18,8.12,41.26,36.71,47.78,54.51,24.96,81.4,49.96,165.39,71.6,248.62,1.79,6.88,2.28,14.4,2.69,21.49-1.17,31.97-1.01,59.53,6.45,91,8.8,37.11,21.07,74.7,39.72,107.75,3.58,1.28,3.73,3.25,3.86,6.64,12.29,21.94,27.76,43.04,44.73,61.86-39.19-70.77-80.44-147.12-83.98-230.08,1.34-20.14.78-40.1-1.69-59.89-15.23-46.83-28.78-94.66-40.65-143.5-11.12-39.59-23.24-76.19-37.14-114.83-4.1-11.4-13.92-22.54-21.98-31.47-13.94-15.45-24.29-22.67-44.62-28.23-19.1-8.96-21.91-17.75-22.59-38.34-.8-24.27,2.96-49.17,9.38-72.48,3.67-19.44-.78-53.67-11.86-70.07-20.7-24.49-33.93-55.33-40.9-86.7-6.12-30.75-12.64-61.52-20.53-91.93-3.28-15.56-5.39-31.85-1.67-47.45,14.88-56.36,15.59-119.84-1.81-175.21-1.74-8.95-5.49-41.31-1.45-47.78.41-.65.93-1.24,1.49-1.8.37.53,1.6.32,1.98,2.48,1.35,7.58-.52,19.7-.03,28.06.97,16.24,8.1,29.38,9.76,44.24.66,5.87-.16,11.76.4,17.6s3,11.05,3.89,16.63c6.24-2.76,14.77.62,19.9,4.58,2.87,2.21,14.39,15.78,16.13,18.86,5.85,10.33-9.11,8.11-15.02,6.02-7.97-2.82-12.51-10.64-19.01-15.48l-3,61c6.73-2.74,13.47,2,18.47,6.03,6,4.83,12.97,12.84,12.52,20.98-10.88.16-21-5.54-28.49-13.01-1.92-1.92-2.46-4.72-4.5-5.98-.2,17.34-9.69,33.33-7.89,50.88,6.71,1.46,12.2,4.7,16.3,10.2,1.49,2,5.86,7.48,1.93,8.75-8.24,2.67-11.88-4.81-17.33-8.84l2,22c4.62-2.59,13.37,1.29,17.35,4.14,1.45,1.04,6.33,5.55,3.96,6.87-6.41,3.58-14.03,1.62-19.31-3.01l4,17c10.49-3.67,22.44,3.67,27.96,12.51-7.67,7.28-18.3,1.18-24.95-4.51l9,49c12.28-3.67,31.7,4.79,31.97,18.97-10.76,1.05-22.01-2.62-29.97-9.98-1.02,1.31,8.05,28.1,9.79,31.7.84,1.74,2.52,2.88,3.4,4.6,1.2,2.37,7.15,16.09,7.92,16.58s7.79-1.11,10.37-.9c3.27.26,15.02,4.41,17.86,6.16.87.54,8.39,6.86,8.64,7.37.85,1.71-2.4,2.16-3.46,2.51-7.58,2.5-15.78,2.63-23.53.99,4.86,10.54,16.2,17.8,17.01,29.99,18.49-15.79,41.62-7.39,55.96,9.53,1.52,1.79,11.06,15,11.07,15.97.02,1.85-1.95,2.91-3.34,3.7-8.27,4.7-22.74,3.8-31.72,1.32-9.96-2.75-21.11-12.04-27.97-19.52.06,2.82-.17,5.67,0,8.49.9,15.29,4.68,28.94-.01,44.5,7.56-1.06,14.96,2.03,20.5,7.01,2.9,2.6,14.51,18.32,14.17,21.52s-9.76,2.74-12.22,2.52c-6.45-.58-11.58-3.55-16.45-7.55l-9-14.48-3.88,33.86c12.76,2.51,26.47,10.76,26.87,25.14-7.04.6-13.73-.9-19.5-5l-8.5-9v15.5c0,1.17.92,8.13,1.23,9.77,1.09,5.69,11.27,18.87,16.79,17.33,4.92-1.38,10.77-8.13,18.95-10.13,3.94-.97,19.21-1.79,22.05.02.96.61,1.17,1.42.98,2.5l-15.95,9.56-15.04,4.45c17.36,1.61,27.67,15.23,38.63,26.94,8.39-7.54,14.82-12.07,26.87-10.93,1.2.11,7.1,1.68,7.39,2.09,2.23,3.16-7.91,12.07-10.86,13.45-5.26,2.47-11.41,4.21-17.04,2.47,5.62,8.63,13.16,15.23,15.01,25.99,12.56-4.92,24.15-5.74,36.66-.17,1.77.79,9.48,4.99,9.3,6.68-13.77,10.18-29.17,11.09-42.48-.5-.76-.15-.61.93-.51,1.5,1.85,10.15,9.49,23.08,12.06,33.48,8.93-3.2,17.34-3.94,26.51-1.04,5.98,1.89,24.77,13.66,26.39,19.62.56,2.05-.49,1.15-1.35,1.52-5.06,2.19-10.02,5.1-15.79,4.69-7.52-.54-20.79-5.67-26.76-10.32-2.4-1.87-3.02-5.2-6.05-5.44,6.9,21.25,15.9,41.88,20.03,63.97,7.1-3.25,27.68,1.3,29,9.58.47,2.91-11.38,5.47-13.46,5.37-3.92-.19-9.6-3.37-12.56-5.93l1.99,15c4.44.14,8.31-2.39,12.61-2.9,10.68-1.27,27.5,3,37.37,7.41,2.82,1.26,5.08,2.49,7.01,5,.71,1.8-2.29,2.12-3.46,2.5-9.14,3-35.93,3.46-44.55-.5-2.12-.98-3.39-2.65-5.32-3.68-1.3-.69-1.9-1.75-1.61.6l13.95,49.57c13.17-11.19,36.51,2.78,38.91,17.9-7.89,4.05-16.67,4.36-24.62.31-1.8-.92-10.45-9.05-11.3-8.19,1.97,3.75,7.4,29.35,9.45,29.74,18.88-2.63,33.67,13.71,42.59,28.52.52.86,3.67,1.22,1.4,3.74-16.01-.81-30.5-3.42-39.43-18.01l3,12.49,1.09,36.41c6.6.58,15.88,7.75,19.35,13.14,1.76,2.73,9.91,26.23,9.44,28.38-.56,2.54-8.66.53-10.71-.11-9.18-2.86-16.57-15.18-18.2-24.31-1.75-.23-.94,2.27-.99,3.48-.76,17.94,6.72,39.63,9.47,57.54,8.26,3.24,18.02,2.23,25.46,7.54,6.32,4.51,9.44,14.39,12.06,21.44h-14.5c-5.03,0-12.57-7.01-16.49-10l6,21c11.52-6.34,29.54,4.57,30,17-11.01,2.41-17.61.16-26-7,3.74,10.43,6.68,21.2,12.14,30.92,10.15-3.11,35.7,7.81,36.74,18.76.37,3.91-11.88,3.6-14.39,3.32-5.22-.57-9.1-3.54-13.49-6,5.7,17.27,17.35,31.4,24.04,47.97,7.8-1.75,17.32-1.32,23.91,3.52-3.92,6.62-11.84,7.06-18.96,6.52,1.36,5.56,14.89,19.92,11.9,24.88-1.73,2.86-8.64-3.43-10.37-4.92-12.49-10.71-19.3-26.71-30.03-38.97,1,6.84-4.85,29.35-10.77,32.28-4.43,2.19-6.79-6.13-6.8-9.78-.02-5.18,2.98-19.1,5.2-23.88.96-2.06,5.54-7.62,5.58-8.11.12-1.47-5.08-8.63-6.21-10.51-2.38,8.85-4.75,17.82-8.96,26.02-1.92,3.74-3.77,8.32-8.52,8.97-8.56-15.83,3.5-32.18,10-46.41-3.83-10.27-11.07-19.02-14.02-29.58l-5.22,17.26c-3.84,6.93-6.66,18.41-15.75,19.73-4.66-12.42-.1-26.85,7.17-37.3,3.05-4.39,6.29-7.3,9.83-11.14-8.07-23.26-17.81-46.11-22.02-70.54l-4.15,11.33c-4.25,5.44-8.23,12.09-12.86,17.14-5.16,5.61-13.62,13.84-13.04.01.71-16.9,10.62-37.34,27.04-43.55-3.93-14.43-4.66-29.11-2.99-43.93l-8.02,11.47c-6.82,7.62-25.11,17.59-18.16-1.16,4.13-11.14,15.52-21.34,26.22-25.98-1.79-10.59,1.05-22.74-2.13-32.73-.36-1.11-.32-2.42-1.89-2.6-1.08,12.03-7.48,28.5-21.01,30-2.91-16.16,5.92-30.62,18.81-39.62-6.46-18.37-11.19-37.23-14.83-56.37l-4.82,10.66c-5.99,12.76-20.26,17.68-33.16,20.33,2.35-20.55,13.28-36.57,33.91-42.09l.03-2.27-3.94-9.63c-1.12,7.66-12.85,14.08-19.76,13.79-5.24-.22.43-15.86,2.29-18.75,3.24-5.03,9.17-6.89,14.52-8.62l-11.07-48.43c-2.34-.48-1.6.3-2.24,1.29-5.28,8.26-8.47,14.61-19.75,15.72-3.24-12.38,5.87-24.95,19-24.01l-6.01-22.99c-8,9.77-20.45,19.86-33.96,15.95,1.51-9.2,9.86-22.63,19.14-25.28,2.63-.75,9.26-.07,9.78-2.24l-11.96-37.43c-5.85,8.14-10.03,17.07-21.99,15-.57-11.75,8.4-20.7,18.08-25.65l-5.09-15.34-5.48,9c-8.1,8.59-18.93,17.64-31.47,15.95-2.33-18.34,13.73-29.7,28.93-35.45-5.04-5.55-9.51-13.16-14.47-18.52-.8-.87-4.47-5.05-5.51-3.98,2.21,3.35-1.09,9.33-3.17,12.33-2.26,3.25-5.41,4.5-7.27,6.73-1.95,2.34-2.25,5.19-5.03,7.97-5.04,5.05-14.37,8.87-21.54,7.97l5.01,29.99c11.39-7.71,25.15-3.69,33.91,5.64-6.96,11.2-21.7,10.91-31.91,4.36l6,29c13.24-7.07,24.45,3.66,30.95,14.51-8.12,7.46-21.48,1.31-28.95-4.51l1.99,14.01c21.78-5.54,40.42,9.86,51.98,26.5-1.06,1.86-1.86.96-2.93,1.07-19.9,2.03-32.98-.57-46.04-16.57-.59,10.25,4.6,19.77,4.99,30,7.38-1.66,15.26-2.66,22.15,1.34,2.64,1.53,3.14,3.99,5.77,4.73-2.6,8.79-18.3,6.63-24.91,3.93l3,16c13-4.81,34.81-1.05,45.51,7.98,1.93,1.63,7.61,7.19,7.25,9.57-.71,4.54-25.83,4.86-30.16,4.35-8.11-.95-15.95-5.33-21.6-10.89l1,38c7-2.55,22.39,2.71,26.99,8.5,1.97,2.48,2.51,5.85,5,8-3.7,1.79-11.99.99-16.26.26-6.15-1.06-11.36-4.56-15.73-8.76.36,16.92-.69,33.65-1.06,50.54-.05,2.11,1.07,4.07,1.04,5.96-.12,7.71-3.67,16.97-4.07,24.85,16.02,3.72,17.37,15.2,22.07,28.65-9.92,1.24-16.16-3.13-21.85-10.64l-3.14-9.34c-3.15,16.96-8.12,33.26-14.07,49.4,9.5,1.59,14.37,10.85,16.05,19.59-4.3.06-10.2-1.3-13.71-3.78-3.31-2.34-3.15-6.1-6.27-6.21-12.22,23-18.76,45.64-14.01,71.99-5.67,2.77-10.01-11.85-11.16-16.34-3.89-15.11,1.86-44.05,5.43-59.88.62-2.75,6.51-16.94,5.72-17.77-5.36,2.22-10.48,4.69-16.46,5.03-4.07.23-8.4.87-7.56-4.49.89-5.66,16.53-12.16,21.67-12.49,2.72-.17,6.58,1.8,7.86-.04l12.48-55.01c-7.68,8.58-25.41,22.37-37.49,19.99-6.68-1.31,2.18-11.5,4.98-14.02,7.95-7.15,21.71-13.11,32.53-11.97l.99-27c-5.09,4.7-10.1,8.43-16.72,10.76-7.31,2.57-17.44,4.35-9.24-6.23,6.18-7.98,15.91-12.67,25.92-13.57l-.96-33.96c-10.1,13.78-24.08,28.05-42.99,25,1.15-21.12,21.48-39.92,43.01-36.99l-1.05-27.46-1.94-2.54c-.33,4.08-15.05,11.86-17.07,8.34-3.3-5.75,6.81-11.79,10.72-14.17,2-1.22,5.17-.89,5.37-3.67l-10.06-46.5c-6.21,6.04-21.05,18.93-29.54,20-4.95.63-.24-9.55.75-11.31,5.58-9.95,16.11-15.72,26.67-18.82.09-10.47-2.74-20.54-3.87-30.87-1.93-.47-1.92.71-2.81,1.68-2.71,2.98-5.02,6.25-8.27,8.73-6,4.58-36.85,23.27-25.33,2.67,6.63-11.87,19.74-21.22,33.42-22.09l-7.49-41.01c-1.99-2.07-1.1-.44-1.77.26-12.21,12.85-25.04,26.4-44.76,22.25,6.55-17.95,21.66-39.67,43.02-38.48l-1.02-35-10.51,9.97c-11.42,8.14-39.95,17.68-20.89-5.89,6.59-8.15,19.74-15.01,30.42-14.08l-.49-50.01c-1.19-2.17-5.32,3.58-6.58,4.44-4.26,2.91-9.79,5.68-14.67,7.33-1.77.6-10.59,4.06-10.22.8,1.6-13.93,18.21-26.55,31.96-25.56l-.64-29.34c3.1-11.57,6.94-22.27,8.5-34.3.13-1.03,1.85-14.36-.36-13.36-6.46,8.92-25.05,25.63-36.85,21.83-3.34-1.07,1.02-9.95,2.31-12.37,6.78-12.63,20.18-22.67,35.03-21.47-1.4-5.47-.75-11.34-1.71-16.8-2.44-13.77-12.21-23.37-19.09-34.89-4.78-8.01-7.53-17.17-13.7-24.3-.49,7.33-.29,14.21-4.29,20.7-7.15,11.6-11.12-7.09-9.97-13.97.91-5.44,8.62-14.57,8.71-16.18.21-3.71-5.48-10.03-4.96-14.55l-5.59,13.9c-4.87,6.84-9.56,15.06-18.39,17.1-3.3-2.37,3.26-23.42,5.11-27.38,2.83-6.04,8.02-13.04,14.88-14.64-6.73-14.88-7.85-30.97-10.01-46.98l-7.8,17.69c-3.35,5.46-10.89,13.7-16.81,16.19-2.24.94-3.88,2.28-5.18-.6-6.34-14.08,12.24-41.98,27.8-43.3l-8.02-35.99-6.99,11.49c-4.56,4.38-14.82,14.53-21.47,13.55-4.22-.62-1.79-5.86-.72-8.73,2.7-7.27,9.05-15.32,15.88-19.12,3.89-2.16,7.71-2.44,11.19-4.76-1.33-9.51-5.76-21.57-5.92-30.98-.04-2.42,1.13-4.59,1.11-6.94-.05-6.5-.35-12.99-.09-19.5l-6.08,6.41c-12,8.32-20.57,14.38-35.19,16.81-2.02.34-5.26,3.89-5.76-.71-.28-2.57,4-10.96,5.52-13.53,8.85-14.96,27.36-22.54,44.38-21.11,1.74-1.13,6.4-34.79,4.63-34.88-8.15,13.1-20.13,23.19-34.98,28.03-2.92-10,2.9-20.1,9.95-27.05,7.79-7.68,15.72-11.82,26.59-13.55l1.93-41.42c-3.44,4.27-5.35,9.11-9.02,13.47-4.61,5.48-13.03,11.59-20.5,11.59-3.06,0-3.18-.79-3.52-3.52-1.85-14.75,17.04-34.24,32.06-34.55-4.68-11.19-2.31-23.76-4.11-35.38-2.35-15.19-8.81-29.43-9.88-46.12-.44-6.87-1.11-24.98-.02-31.01.54-2.98,2.39-1.95,3.01-2.48ZM291.99,361.99l-11.02-15.46c-4.73-5.56-10.32-10.24-17.92-11.09-1.09-.12-4.14-.67-4.03,1.06.09,1.36,20,12.6,21.98,16-.62,1.29-2.76.13-3.7-.3-2.03-.93-18.55-14.11-19.29-13.2-.16,1.55.61,2.91,1.27,4.22,2.53,4.99,15.82,17.25,21.45,18.55,1.58.37,10.5,1.21,11.26.23ZM232,343c-2.77.79-2.65.83-5,2-11.24,5.6-18.96,16.16-20,28.99,15.8-.11,25.47-15.52,30-28.98-2.44-1.89-13.73,7.74-16.01,9.48-.79.6-1.92,2.72-3,1,1.82-3.84,6.49-7.26,10.01-9.49,1.17-.74,2.72-1.4,4-2,1.11-.52,4.02-.91,4.01-1.5-1.09-1.76-3.23.28-4.01.5ZM230,398c-14.75,3.32-28.49,17.48-28.99,33,14.29-6.17,27.2-16.24,32.98-31-.5-.6-11.23,6.91-12.48,8.01-.45.39-9.22,11.39-7.49,5.51,1.52-5.16,12.27-12.1,16.99-14.52,1.37-.7,3.32-.69,3-1.99-1.76-.82-3.18.81-4,.99ZM283.99,433c3.66-3.71-18.89-25.85-25.99-21.98l14.99,10.5c.37,1.29-.2,1.97-1.47,1.47-1.75-.68-12.83-10.78-14.51-8.98,2.46,10.14,16.77,18.66,26.99,18.99ZM227.99,444.01c-19.79-2.43-39.88,10.61-44.99,29.98,11.04-.56,21.3-6.17,30.12-12.37,4.95-3.48,11.06-7.48,12.87-13.62-2.42-2.22-18.74,11.29-22.48,11.01-.88-.07-.66-1.81-.5-1.99.49-.57,11.23-6.62,12.97-7.54l12.02-5.47ZM262.99,484.99c.9-.87-2.88-6.11-4-6.57s-1.83,1.61-2.99,1.13c-1.68-.69-4.22-4.89-7.01-4.55-1.73,1.76,10.81,11.53,13.99,9.99ZM266,509.99c3.13-3.03-10.33-8.85-12.99-7.98.59,2.17,7.26,3.25,7.99,4.01,3.42,3.52-6.7.45-7,0,2.23,4.29,7.79,4.15,11.99,3.99ZM212,527c-2.26,3.13-5.45,8.76-6,12.51-.39,2.64,3.79.13,4.68-.33,8.93-4.6,16.49-12.87,20.32-22.17-5.22-.23-13.61,11.88-16.54,12.04-1.11.06-1.1-.73-1.46-1.05l13-11.99c-5.57,1.05-10.8,6.55-14,10.99ZM260.01,531.99c1.69,2.17,19.08,9.69,18.97,4.51-.05-2.12-11.17-8.74-13.7-9.27-1.34-.29-6.87-1.16-7.27.76,2.06-1.06,15.05,5.07,12.99,7.01-.81.76-6.45-2.99-7.96-3.53-.94-.34-3.25-1.32-3.03.53ZM239,558.01c-14.18,4.15-24.88,23.29-22.99,37.99,13.71-5.13,22.76-20.99,24.98-34.99-4.77,1.98-7.46,10.33-10.51,12.98-.95.82-2.61,1.92-3.47.53l11.99-16.5ZM295.99,599c4.41-4.87-21.07-20.21-26.99-14.99l16.98,8.49c-1.68,2.34-1.68.89-3.29.32-3.54-1.24-6.57-4.43-10.69-3.81,5.32,7.8,15.66,8.12,23.99,9.99ZM251.99,615.01c-1.07-1.1-4.18,2.68-4.96,3.53-7.33,7.93-9.8,20.11-11.02,30.46,2.06,2.37,13.35-12.7,14.2-14.29,2.4-4.46,4.89-12.64,4.78-17.71-5.23,3.1-8.4,14.36-11.97,17.52-1.21,1.07-2.5.75-2.01-1,.8-2.82,11.75-17.72,10.98-18.51ZM262,644c-2.77,3.91-4.57,5-5.05,10.45-.31,3.49.51,17.63,5.26,10.27,3.45-5.35,4.2-12.99,3.79-19.21-1-1.39-1.78,1.46-2.03,1.98-1.11,2.35-1.75,4.94-2.73,7.32-.61,1.48.61,2.72-2.24,2.2l2.99-11.99,2.01-3.49c-1.34-1.53-1.8,2.2-2.01,2.49ZM322,656.99c-4.47-7.28-18.5-11.94-26.55-11.03-4.41.5-3.33,3.49-1.96,3.79,3.02.67,13.72-.59,15.51,1.27.95.99.21,2.1-1.48,1.99-4.28-.26-8.88-1.84-13.51-1,6.53,8.12,18.79,7.25,28,4.98ZM320,694.01c5.63,10.72,21.63,22.99,33.61,24.88,2.93.46,12.12,1.34,14.87,1.14,1.99-.14,12.16-2.93,12.52-4.56-11.43-20.49-37.27-43.19-60-24.49,9.52,3.14,20.82,7.05,29.54,11.97.72.41,3.89,1.76,2.45,3.04-1.95,1.73-27.54-14.06-33-11.98ZM302.99,725.01c-17.46-1.94-30.99,12.61-35.99,27.98,7.71.96,15.04-3,20.92-7.57,2.12-1.66,15.22-14.04,13.07-16.42-6.77,2.45-11.89,8.06-17.89,11.61-1.62.96-1.31,2.19-3.08-.11l8.26-6.72,14.72-8.77ZM353,781.99c-6.83-11.64-15.42-26.64-31-25.98,2.25,3.27,19.8,14.85,19.98,17.49.06.84-.95,1.51-2.48.51-1.72-1.13-16.95-15.7-18.49-14,2.55,15.15,16.72,25.62,31.99,21.98ZM339,819.99c-3.83-11.41-12.31-17.88-23.99-19.98l10.47,7.01c1.34.2,8.3,8.83,4.04,6.97-1.24-.54-13.99-12.62-15.5-10.99,4.29,10.53,13.72,16.31,24.99,16.99ZM294,814.01c-12.49-.77-24.67,9.23-27.99,20.98,1.47,1.21,28.02-9.83,26.99-16.99-1.07-1.03-8.12,4.21-9.71,4.78-1.42.52-2.69.73-2.28-1.27l12.99-7.5ZM351,843c-3.98.88-9.41,2.74-12,5.99l13-4.99c1.35.38,4.12-.08.93,2.43-3.46,2.72-12.66,3.42-15.93,7.56,10.1.74,22.22-4.15,29.95-10.54.51-.42,1.78-1.31.54-1.46-5.81-.13-10.83-.25-16.5,1ZM345,878.02c-10.55-3.19-20.71-6.94-29.99-13.02l3,49.99,5.47-7.02c9.65-4.23,7.76-10.79,11.7-18.3,2.65-5.05,5.61-6.22,9.18-9.59.84-.79.92-.68.64-2.07ZM386,887.99c.27.27,6.34,1.12,7.47,1.06,7.51-.4,14.54-5.47,18.51-11.55.08-4.96-24.48-.93-25.98,5.49,4.41.02,8.96-1.7,13.19-2.31,1.75-.25,2.31-1.41,3.79.82-.08,1.89-13.03,3.04-15.71,4.27-1.03.47-2.6.89-1.27,2.22ZM293,877.01c-13.84-.52-27.33,10.17-31.99,22.98,12.48-.56,28.12-7.93,32.99-19.99-5,1.77-8.48,5.99-12.89,8.61-1.62.96-1.31,2.19-3.08-.11l14.98-11.49ZM353.99,884.01c-2.31-2.6-9.55,13.81-11.49,13.97-2.22.19-.75-2.35-.29-3.26.97-1.93,8.81-12.63,7.78-13.72-13.08,3.16-16.84,19.04-16.98,31,11.03-5.16,23.12-14.28,20.98-27.99ZM335,914c-6.45-1.55-4.46-1.93-4.49-7.99-3.42,2.48-9.73,6.67-9.01,10.99l6.5-2.99-5.99,6.98c4.84-.44,10.17-3.09,14-5.99,1.08-.82,2.68-1.49,3-2.99-1.68-.29-2.95.74-4,1.99ZM378,914.01c-14.49,1.99-28.62,14.81-29,29.99,5.5.62,11.34-2.76,15.92-5.58,7.57-4.65,16.63-12.66,16.07-22.42-1.8-2.39-14.07,15.78-14.97,16.52-1.29,1.07-2.36.81-2.04-1.03.82-4.67,11.22-13.23,14.02-17.48ZM410,917c-1.53.32-4.31.6-4,1.99,1.65.08,3.34-.07,5,.01,4.01.2,7.88.94,11.5,1.09,2.52.11,7.07-2.76,7.01.91-1.96,2.76-18.42-.06-22.51,0l10.31,6.17c8.25,3.44,19.93,1.82,25.68-5.17-10.28-6.34-21.25-7.51-33-5.02ZM299,923.99c-3.14-4.8-10.41-2.05-14.68-.17-12.24,5.39-22.63,19.69-26.31,32.18,9.71,0,18.93-4.23,26.47-10.02,6.13-4.71,12.92-11.2,14.53-18.96-3.04-2.59-15.69,12.2-17.51,12.98-1.22.53-1.85-.19-1.47-1.47,1.48-5.02,14.09-12.43,18.98-14.53ZM385,942c-6.3,3.94-11.09,10.29-10.99,18,8.37-.92,13.13-7.08,15.98-14.51.36-.94,1.9-2.82.51-3.49-4.49,3.29-7.16,8.47-10.69,12.31-.71.77-1.58,2.95-2.83,1.17,1.71-4.74,5.51-8.97,9.01-12.49.86-.86,2.78-1.41,3-2.99-1.99-.53-2.73,1.2-4,1.99ZM326,958c6.86,8.48,17.75,9.15,26.7,3.2,1.65-1.1,3.6-1.66,1.29-3.69-.4-.35-8.28-4.34-9.29-4.72-6.38-2.38-10.44-1.85-16.7.7,3.26,2.64,7.56,1.04,11.83,2.22,1.77.49,2.6-.32,2.16,2.28-4.85.38-9.08-1.3-13.99-.99l-3.99-2c-.67,2.15,1.31,2.15,1.99,3ZM422,964.01c9.01,11.27,31.32,22.03,43.98,11.49-12.35-12.73-28.8-22.26-46.97-15.49l21.31,6.17,1.2.81-1.01,1.98-18.51-4.96ZM305,979c-13.48,3.03-26.18,12.49-29.99,26,12.54-3.52,26.39-11.45,32.99-22.99-1.76-1.47-10.59,7.23-12.52,7.98-1.21.47-1.98-.26-1.47-1.47,1.04-2.5,9.32-7.15,11.99-8.51,1.37-.7,3.32-.69,3-1.99-1.76-.82-3.18.81-4,.99ZM405,989.01c-14.13-2.68-21.68,9.56-26,20.98,11.66.63,24.22-6.76,28.99-17.5,1.35-4.28-18.6,11.6-18.51,12.5-1.77.75-1.87-1.41-1.51-2.49s15.48-10.82,17.02-13.49ZM337,993c-1.82.63-3.65.77-2.99,3,.26.29,2.08-1.11,2.99-1,2.55.3,9.53,3.83,12,5.5-2.4,2.09-13.48-4.03-13.99-3.5-.46,7.25,23.73,13.26,23.97,8.51.06-1.13-5.65-6.92-6.96-8.02-4.8-4-8.69-6.69-15.01-4.49ZM384,1040.99c-11.34-12.88-25.35-26.39-43.99-22.98-.42,2.28.12,1.6,1.28,2.23,3.01,1.65,15.65,5.05,16.71,7.28.86,1.82-1.09,1.64-2.3,1.3-2.39-.68-15.82-7.53-16.69-6.8,9.77,16.05,26.65,22.26,45,18.98ZM288.01,1043c1.1,1.42,28.99-15.7,26.98-22-4.57,1.46-11.29,10.5-14.64,11.85-1.18.48-3.07.48-2.34-1.33l9.99-9.51c-6.02-1.44-22.87,17.28-19.98,20.99ZM413,1022.01c-9.19.15-15.25,9.16-13.99,17.98,7.97-1.76,13.9-8.17,15.98-15.99-.74-.84-7.79,6.69-8.5,6.99-1.28.55-1.76-.17-1.47-1.47.68-3.01,6.36-4.94,7.97-7.51ZM466,1040.99c-3.83-6.7-15.57-10.17-22.99-7.98l10.99,4c.47,4.82-6.58-.9-9,0,4.89,7.25,13.54,6.73,21,3.98ZM449,1058h20.5c1.05,0,1.98,2.45-.02,3-1.88.52-3.42-1-3.98-1h-15.5c11.98,10.96,33.27,6.94,48,4.5-12.26-6.69-27.26-10.83-41.39-9.4-1.78.18-6.74,1.05-7.61,2.89ZM347,1059c-.59.12-1.35-.09-1.99,0-.65,1.82.57,2.23.99,3,.16.29.69.68,1,1,4.52,4.73,22,5.12,21,.51-1.31-6.03-16.4-5.46-21-4.51ZM429.99,1078.01c-12.66.78-14.35,10.77-16.99,20.98,11.04-.77,18.99-7.54,18.99-18.99-1.34-1.72-11.71,11.64-12.5,11.99-3.06,1.33-.3-4.35,1-5.01l9.51-8.97ZM321,1083c-1-1.34-.03-1.67,0-3-.63-.75-9.09,6.19-7.99,8.99,3.72-.21,6.42-3.16,8.99-4.99.94-.67,3.71-.73,4-2.99l-5,1.99ZM400,1099.99c-6.93-11.63-27.76-18.19-40.5-16.99-1.92.18-6.51,1.06-7.49,2.99,9.36,1.31,22.5,4.43,30.99,8.51,1.17.56,2.75.99,3,2.49l-35-8.98c8.37,17.59,32.94,15.33,49,11.98ZM436,1103.01c-17.38,5.37-26.09,17.74-30,34.98,18.08-1.8,30.92-15.03,32.99-32.99-5,1.52-13.13,12.55-16.5,13.99-1.18.51-1.99-.29-1.48-1.48,1.76-4.11,12.52-10.02,14.99-14.5ZM465,1113.01c2.13,2.65,6.36,2.44,9.67,3.81,2.76,1.14,5.98,2.77,8.3,4.68-1.67,2.33-1.67.9-3.29.33-1.33-.47-15.77-7.97-15.67-3.33,8.03,8.04,18.03,16.03,30.01,12.03,3.79-1.26,3.26-2.64,1.4-5.47-5.21-7.93-21.08-17.79-30.43-12.05ZM330,1115.99c-2.07-3.83-10.12-1.1-13.54-.03-9.72,3.03-21.17,14.07-24.17,23.83-1.03,3.37-2.87,7.28,2.16,7.26,13.44-.05,31.39-16.56,35.55-29.04-.83-.82-10.67,4.24-12.3,5.19-3.14,1.82-9.9,8.24-11.21,8.8-1.19.51-1.99-.29-1.48-1.48,2.22-5.17,19.01-14.27,24.99-14.52ZM367,1137c-.8-.32-9.97-4.91-10.01-2.5l10.01,3.5c1.71.6,1.75,2.17-.52,2.04-3.75-.23-8.17-3.73-12.48-3.03,4.74,7.84,14.89,9.88,23.48,10.03,3.93.07-1.11-5.47-2.45-6.57-3.03-2.51-4.96-2.23-8.04-3.46ZM513,1181.99c1.97-1.76-14.9-18.9-17.06-20.43-4.6-3.27-12.27-6.08-17.94-6.55,2.7,3.5,16.59,9.16,17.99,12.5.74,1.75-.64,1.74-2.09,1.08-2.49-1.13-16.08-12.09-17.9-10.59,8.3,16.1,18.35,23.54,36.99,23.98ZM321,1164c-3.28,1.39-6.03,2.08-8.9,4.6-1.73,1.51-5.34,6.03-6.09,8.4,2.51,2.13,24.72-7.86,23.99-13.99-1.09-1.35-11.69,8.64-12.5,8.99-5.23,2.28,3.47-6.18,4.51-6.99.91-.71,5.03-2.52,3.99-2.99-2.49-.86-3.83,1.5-4.99,1.99ZM449,1177c-6.33,7.18-12.1,17.25-8.99,27,10.63-5.56,12.91-15.32,14.99-26,.14-.74,1.82-2.22.99-4-1.39-.34-1.19,1.68-1.99,3-2.45,4.02-4.28,8.48-7.51,11.99-1.15-2.82,1.97-8.26,3.51-10.99.93-1.65,3.45-2.81,2.99-5-1.92.6-2.82,2.67-3.99,4ZM325,1197.01c-11.74,1.12-26.49,8.66-30.99,19.98,12.92.87,24.64-8.05,32.99-16.98-4.46.34-8.46,5.67-12.99,4.5l10.99-7.49ZM460,1217.01c-11.31,4.16-21.71,16.72-22.99,28.99,13.25-1.5,21.02-14.63,24.99-25.99-1.26-1.32-6.95,6.51-7.87,7.65-1.3,1.61-.48,4.99-4.11,2.85l9.99-13.5ZM488,1221c-1.43-.78-2.42-2.7-4.99-1.99-1.17.53,3.31,2.24,3.99,2.99,3.02,3.31,8.13,12.54,8.99,17-5.73-4.29-7.12-12.72-12.98-17,.12,14.53,8.02,33.73,24.99,33.99-4.43-13.88-6.33-27.53-20-34.99ZM366,1246.99c-3.38-8.3-4.61-20.88-16-20.98,1.37,3.15,7.43,6.25,8.02,9.48.27,1.5-.02,1.77-1.5,1.5l-8.5-8.99c0,9.21,8.2,20,17.99,18.99ZM307,1259c-6.97,1.54-11.88,3.87-16,9.99,1.87,2.35,22.58-2.68,24-7.98-4.19.03-7.96,2.55-11.7,3.8-1.58.53-1.58,2.07-3.28-.31l8.98-4.5,6.99-1.99c-3.51-.68-6.05.34-8.99.99ZM465,1275.01c-16.68,7.16-24.94,27.72-23.99,44.99,1.03,1.16,7.52-5.9,8.51-6.98,8.98-9.82,15.52-20.41,16.48-34.01-3.97,2.68-10.05,16.48-13.5,17.99-1.19.52-1.95-.27-1.47-1.47.77-1.96,14.94-19.62,13.99-20.51ZM338,1292l-6.99-5c.04,2.83,2.61,5.76,4.99,7,1.43.74,6.31,2.27,7.99,1.51-3.66-4.98-5.18-13.43-12.99-12.5,1.06,2.76,7.49,6.19,7,8.99ZM524,1319.99c-4.52-17.78-16.04-19.76-31.99-22.99-.61,2.88.93,1.58,2.16,2.3,2.2,1.29,16.58,9.28,16.87,10.22.14.44.29,2.5-.53,2.48-2.45-1.28-16.19-11.08-17.51-9.98,6.41,11.82,16.66,20.6,31,17.98ZM530,1348.99c-1.4-8.82-14.26-16.28-23-13.99.28,1.73,1.99,1.74,3.23,2.27,2.72,1.16,12.22,3.92,13.77,5.74.16.19.37,1.93-.51,2-4.19.3-11.32-6.68-16.49-6,5.56,7.79,13.36,11.42,23,9.98ZM485,1367c-6.03,7.15-10.2,15-10.98,24.52s-.52,16.19,6.4,5.4c3.72-5.79,9.39-19.24,9.58-25.92,1.67-.89.9-3.45.99-5h-.98c-.14.6.18,1.72-.01,2-.38.54-1.45.96-2.2,2.26-1.03,1.8-5.15,11.62-6.3,11.72-2.12.19-.71-2.65-.49-3.46.56-2.08,3.79-8.55,4.99-10.52.91-1.49,4.39-3.33,3.99-6-2.24.98-3.52,3.26-4.99,5ZM522,1380c.64,1.29,1.67,1.53,2,2,7.4,10.54,14.91,13.36,28,11.99,4.03-3.9-14.86-14.71-17.96-15.53-2.88-.76-5.24-.34-8.03-.47-1.71-.08-6.32-2.71-4,2ZM504,1412c-3.19,8.32-6.88,15.23-6,24.51.94,9.91,4.78,1.07,6.86-3.15,4.25-8.62,7.99-18.62,7.13-28.36-2.08-.02-5.52,13.9-6.98,12-.15-1.29.17-2.74,0-4l2.99-7.99-3.99,6.99ZM521,1426c-6.09,7.63-7.96,24.55-5.99,34,3.2,2.86,9.27-15.95,9.69-17.8,1.09-4.78,1.66-9.26,1.29-14.2-2.78-.48-1.68.58-2.25,2.19-1.36,3.84-1.08,9.51-4.73,11.8-.88-4.77,3.03-10.82,2.99-15,4.93-3.58,3.38-6.49-1-1ZM572,1443.99c-.35-1.95-2.11-1.63-3.45-2.03-4.51-1.35-11.03-3.57-14.54.56l9.99-.51c.6,3.44-6.15,2.34-7.99,3-.17,1.48,3.63,1.79,4.49,1.78,3.81-.07,7.93-1.6,11.51-2.8Z"/>
  <path class="cls-19" d="M241,225c-1.31,15.15-1.58,32.06,1.44,47.06,1.69,8.4,6.49,17.85,7.46,26.54,2.48,22.35,7.13,47.9,6.15,69.94-.9,20.12-2.64,41.85-6.34,61.66-1.77,9.46-5.71,19.73-6.58,29.42-2.22,24.87,7.25,51.66,12.6,75.16,11.11,48.78,11.18,75.46,37.47,120.53,5.15,8.83,15.01,18.6,18.98,27.02,5.62,11.89,9.35,40.94,8.86,54.22-.39,10.32-5.04,21.92-6.77,32.23-2.85,17.03-7.11,55.77-.46,70.92s29.16,17.72,42.21,24.79c10.83,5.87,36.28,35.18,41.47,46.53,30.73,75.01,46.97,154.09,69.23,231.77,3.08,10.75,9.12,23.32,11.05,33.95,3.49,19.26.87,40.49,1.28,59.73,1.58,73.25,44.11,153.92,77.43,217.56,2.37,4.52,6.25,9,8.58,13.42.49.94,1.83,2.84.45,3.55-6.26-4.3-11.26-10.19-15.92-16.08-8.23-10.41-30.25-40.07-35.05-50.96-.71-1.62-.24-4.32-.7-4.85-.57-.65-2.35.4-4.99-4.44-19.52-35.75-37.33-93.09-43.56-133.44-4.54-29.35,3.56-60.52-5.01-89.99-20.39-70.06-36.99-140.57-60.28-209.72-4.58-13.61-7.73-32.05-14.77-44.23-3.56-6.15-23.82-30.25-29.29-34.71-6.57-5.36-15.19-10.01-23.63-11.37l-19.28-10.21c.57,11.98-.77,24.63-.05,36.54,4.27,70.86,33.77,144.58,36.08,215.92,1,30.75,2.5,75.21-3.53,104.55-4.64,22.55-11.77,49.27-20.48,70.52-2.97,7.25-8.52,15.22-11.22,22.78-4.97,13.95-3.99,29.05-4.82,43.69l-3.72-7.76c-9.65-50.72,24.91-99.16,28.72-148.75,2.45-31.83,1.53-77.92-1-109.97-1.34-17.02-9.45-37.12-12.71-54.29-1.9-10.03-1.85-20.82-3.39-30.61-2.56-16.33-7.5-32.21-10.61-48.39-9.76-50.86-10.25-108.03-9.32-159.68.31-17.08,2.98-19.79,6.37-34.71,4.1-18.07,4.19-52.89-4.16-69.49-8.81-17.53-23.37-36.16-32.71-54.29-13.15-25.5-15.66-50.88-20.75-78.25-6.59-35.43-22.16-73.72-15.26-109.84,4.31-22.55,7.55-35.83,7.47-59.44-.02-5.06,2.65-12.44,3.07-18.02,1.24-16.74-1.18-25.62-3.88-41.08-1.4-8.03-.38-16.74-1.23-24.78-2.26-21.43-10.68-38.31-10.92-63.07-.06-6.43,1.23-12.2,1.04-18.55,6.01-5.11,10.01-6.14,15,1Z"/>
  <path class="cls-15" d="M320,694.01c5.46-2.07,31.05,13.72,33,11.98,1.43-1.28-1.73-2.63-2.45-3.04-8.72-4.92-20.02-8.84-29.54-11.97,22.73-18.7,48.57,4,60,24.49-.36,1.63-10.54,4.42-12.52,4.56-2.75.2-11.95-.68-14.87-1.14-11.97-1.9-27.98-14.16-33.61-24.88Z"/>
  <path class="cls-15" d="M299,923.99c-4.89,2.1-17.5,9.52-18.98,14.53-.38,1.28.25,2,1.47,1.47,1.83-.78,14.47-15.57,17.51-12.98-1.61,7.76-8.4,14.25-14.53,18.96-7.54,5.8-16.76,10.03-26.47,10.02,3.68-12.49,14.08-26.79,26.31-32.18,4.27-1.88,11.54-4.63,14.68.17Z"/>
  <path class="cls-15" d="M330,1115.99c-5.98.26-22.77,9.35-24.99,14.52-.51,1.18.29,1.98,1.48,1.48,1.31-.56,8.07-6.97,11.21-8.8,1.63-.95,11.47-6,12.3-5.19-4.15,12.48-22.11,28.99-35.55,29.04-5.03.02-3.19-3.89-2.16-7.26,2.99-9.75,14.45-20.79,24.17-23.83,3.42-1.07,11.47-3.8,13.54.03Z"/>
  <path class="cls-15" d="M227.99,444.01l-12.02,5.47c-1.74.92-12.49,6.97-12.97,7.54-.16.19-.37,1.93.5,1.99,3.74.28,20.07-13.23,22.48-11.01-1.81,6.14-7.91,10.15-12.87,13.62-8.82,6.19-19.09,11.81-30.12,12.37,5.11-19.37,25.2-32.41,44.99-29.98Z"/>
  <path class="cls-8" d="M400,1099.99c-16.05,3.36-40.63,5.61-49-11.98l35,8.98c-.25-1.5-1.84-1.92-3-2.49-8.49-4.09-21.63-7.2-30.99-8.51.98-1.94,5.56-2.81,7.49-2.99,12.74-1.19,33.57,5.36,40.5,16.99Z"/>
  <path class="cls-15" d="M422,964.01l18.51,4.96,1.01-1.98-1.2-.81-21.31-6.17c18.17-6.77,34.63,2.76,46.97,15.49-12.66,10.54-34.97-.22-43.98-11.49Z"/>
  <path class="cls-15" d="M384,1040.99c-18.35,3.28-35.23-2.93-45-18.98.87-.73,14.3,6.12,16.69,6.8,1.21.34,3.16.52,2.3-1.3-1.06-2.23-13.7-5.63-16.71-7.28-1.15-.63-1.7.05-1.28-2.23,18.64-3.41,32.65,10.1,43.99,22.98Z"/>
  <path class="cls-15" d="M436,1103.01c-2.47,4.48-13.23,10.39-14.99,14.5-.51,1.18.29,1.98,1.48,1.48,3.38-1.44,11.5-12.47,16.5-13.99-2.06,17.96-14.91,31.19-32.99,32.99,3.91-17.25,12.62-29.62,30-34.98Z"/>
  <path class="cls-8" d="M465,1275.01c.96.89-13.22,18.54-13.99,20.51-.47,1.2.28,2,1.47,1.47,3.45-1.51,9.53-15.31,13.5-17.99-.95,13.6-7.49,24.19-16.48,34.01-.99,1.08-7.48,8.14-8.51,6.98-.94-17.27,7.31-37.83,23.99-44.99Z"/>
  <path class="cls-8" d="M378,914.01c-2.79,4.25-13.19,12.8-14.02,17.48-.32,1.84.74,2.1,2.04,1.03.9-.74,13.17-18.91,14.97-16.52.56,9.76-8.5,17.77-16.07,22.42-4.58,2.82-10.42,6.2-15.92,5.58.39-15.18,14.51-28,29-29.99Z"/>
  <path class="cls-8" d="M239,558.01l-11.99,16.5c.87,1.39,2.53.3,3.47-.53,3.05-2.65,5.74-11,10.51-12.98-2.22,14.01-11.28,29.86-24.98,34.99-1.88-14.7,8.81-33.84,22.99-37.99Z"/>
  <path class="cls-8" d="M302.99,725.01l-14.72,8.77-8.26,6.72c1.77,2.3,1.46,1.06,3.08.11,6-3.55,11.12-9.16,17.89-11.61,2.15,2.37-10.95,14.76-13.07,16.42-5.88,4.58-13.2,8.54-20.92,7.57,5-15.37,18.53-29.92,35.99-27.98Z"/>
  <path class="cls-8" d="M488,1221c13.67,7.46,15.57,21.11,20,34.99-16.97-.26-24.87-19.46-24.99-33.99,5.86,4.28,7.25,12.71,12.98,17-.86-4.46-5.97-13.69-8.99-17-1.33-1.41-.77-1.92,1-1Z"/>
  <path class="cls-8" d="M227,345c1.47-.49,1.76-.44,1,1-3.52,2.23-8.19,5.65-10.01,9.49,1.07,1.72,2.2-.4,3-1,2.28-1.74,13.57-11.37,16.01-9.48-4.53,13.46-14.2,28.87-30,28.98,1.04-12.83,8.76-23.39,20-28.99Z"/>
  <path class="cls-22" d="M353,781.99c-15.27,3.63-29.44-6.84-31.99-21.98,1.55-1.7,16.78,12.87,18.49,14,1.53,1,2.54.34,2.48-.51-.18-2.64-17.73-14.22-19.98-17.49,15.58-.66,24.17,14.34,31,25.98Z"/>
  <path class="cls-8" d="M513,1181.99c-18.65-.45-28.69-7.88-36.99-23.98,1.82-1.5,15.41,9.45,17.9,10.59,1.44.66,2.82.67,2.09-1.08-1.4-3.34-15.29-9.01-17.99-12.5,5.67.47,13.33,3.28,17.94,6.55,2.15,1.53,19.03,18.67,17.06,20.43Z"/>
  <path class="cls-8" d="M230,398c1.49-.48,1.76-.45,1,1-4.72,2.42-15.47,9.36-16.99,14.52-1.73,5.88,7.05-5.12,7.49-5.51,1.25-1.1,11.98-8.61,12.48-8.01-5.78,14.76-18.7,24.83-32.98,31,.5-15.52,14.24-29.68,28.99-33Z"/>
  <path class="cls-22" d="M291.99,361.99c-.77.99-9.68.14-11.26-.23-5.63-1.3-18.92-13.55-21.45-18.55-.66-1.31-1.43-2.67-1.27-4.22.74-.91,17.26,12.27,19.29,13.2.94.43,3.08,1.59,3.7.3-1.97-3.41-21.89-14.65-21.98-16-.11-1.73,2.94-1.18,4.03-1.06,7.61.86,13.19,5.53,17.92,11.09l11.02,15.46Z"/>
  <path class="cls-8" d="M465,1113.01c9.35-5.74,25.22,4.12,30.43,12.05,1.86,2.83,2.39,4.21-1.4,5.47-11.98,4-21.98-3.99-30.01-12.03-.1-4.65,14.34,2.86,15.67,3.33,1.62.58,1.62,2.01,3.29-.33-2.32-1.9-5.54-3.53-8.3-4.68-3.32-1.37-7.55-1.16-9.67-3.81Z"/>
  <path class="cls-30" d="M449,1058c.87-1.85,5.83-2.71,7.61-2.89,14.12-1.44,29.13,2.7,41.39,9.4-14.72,2.44-36.02,6.46-48-4.5h15.5c.56,0,2.11,1.52,3.98,1,2-.55,1.07-3,.02-3h-20.5Z"/>
  <path class="cls-8" d="M524,1319.99c-14.34,2.62-24.59-6.16-31-17.98,1.32-1.1,15.05,8.7,17.51,9.98.82.02.67-2.03.53-2.48-.3-.94-14.67-8.93-16.87-10.22-1.23-.72-2.77.58-2.16-2.3,15.95,3.23,27.47,5.21,31.99,22.99Z"/>
  <path class="cls-8" d="M353.99,884.01c2.13,13.71-9.96,22.83-20.98,27.99.14-11.96,3.9-27.84,16.98-31,1.03,1.08-6.81,11.79-7.78,13.72-.46.92-1.93,3.46.29,3.26,1.95-.17,9.19-16.58,11.49-13.97Z"/>
  <path class="cls-22" d="M293,877.01l-14.98,11.49c1.77,2.3,1.46,1.07,3.08.11,4.41-2.61,7.89-6.84,12.89-8.61-4.87,12.06-20.51,19.44-32.99,19.99,4.66-12.81,18.15-23.51,31.99-22.98Z"/>
  <path class="cls-22" d="M305,979c1.49-.48,1.76-.45,1,1-2.67,1.37-10.95,6.01-11.99,8.51-.51,1.21.26,1.94,1.47,1.47,1.92-.75,10.75-9.45,12.52-7.98-6.6,11.54-20.46,19.47-32.99,22.99,3.81-13.51,16.52-22.97,29.99-26Z"/>
  <path class="cls-30" d="M405,989.01c-1.54,2.67-16.67,12.42-17.02,13.49s-.26,3.25,1.51,2.49c-.09-.9,19.86-16.78,18.51-12.5-4.78,10.74-17.33,18.12-28.99,17.5,4.32-11.42,11.87-23.66,26-20.98Z"/>
  <path class="cls-30" d="M460,1217.01l-9.99,13.5c3.64,2.14,2.81-1.24,4.11-2.85.93-1.15,6.61-8.98,7.87-7.65-3.96,11.36-11.74,24.49-24.99,25.99,1.28-12.26,11.68-24.82,22.99-28.99Z"/>
  <path class="cls-20" d="M410,917c11.75-2.5,22.72-1.32,33,5.02-5.75,6.99-17.43,8.61-25.68,5.17l-10.31-6.17c4.09-.07,20.54,2.75,22.51,0,.06-3.67-4.49-.81-7.01-.91-3.62-.15-7.5-.89-11.5-1.09-1.72-.46-2.7-.75-1-2Z"/>
  <path class="cls-30" d="M486,1368c-1.2,1.98-4.43,8.44-4.99,10.52-.22.81-1.63,3.65.49,3.46,1.15-.1,5.27-9.92,6.3-11.72.74-1.3,1.82-1.72,2.2-2.26.89.82.57,2.01,0,3-.19,6.68-5.86,20.13-9.58,25.92-6.93,10.78-7.18,3.99-6.4-5.4s4.96-17.37,10.98-24.52c1.41-1.33,1.92-.77,1,1Z"/>
  <path class="cls-30" d="M325,1197.01l-10.99,7.49c4.53,1.18,8.54-4.15,12.99-4.5-8.36,8.93-20.08,17.86-32.99,16.98,4.5-11.33,19.25-18.86,30.99-19.98Z"/>
  <path class="cls-31" d="M251.99,615.01c.77.79-10.18,15.7-10.98,18.51-.5,1.75.8,2.07,2.01,1,3.57-3.16,6.73-14.42,11.97-17.52.1,5.06-2.38,13.25-4.78,17.71-.86,1.59-12.15,16.66-14.2,14.29,1.23-10.35,3.69-22.53,11.02-30.46.78-.84,3.89-4.62,4.96-3.53Z"/>
  <path class="cls-20" d="M326,958c-1.91-1.92-.21-1.73,2-1,4.91-.3,9.14,1.37,13.99.99.44-2.6-.39-1.79-2.16-2.28-4.27-1.18-8.56.42-11.83-2.22,6.26-2.54,10.32-3.07,16.7-.7,1.01.38,8.88,4.36,9.29,4.72,2.31,2.03.36,2.59-1.29,3.69-8.95,5.95-19.83,5.29-26.7-3.2Z"/>
  <path class="cls-32" d="M283.99,433c-10.22-.33-24.53-8.85-26.99-18.99,1.68-1.79,12.76,8.3,14.51,8.98,1.28.5,1.85-.19,1.47-1.47l-14.99-10.5c7.09-3.87,29.65,18.27,25.99,21.98Z"/>
  <path class="cls-20" d="M526,1378c2.8.13,5.15-.29,8.03.47,3.1.82,21.99,11.63,17.96,15.53-13.09,1.37-20.59-1.45-28-11.99-.93-2.01-.19-2.47,1.81-1.87l.19-1.13c-.87-.28-.86-.62,0-1Z"/>
  <path class="cls-20" d="M294,814.01l-12.99,7.5c-.41,2,.86,1.79,2.28,1.27,1.59-.58,8.64-5.82,9.71-4.78,1.03,7.16-25.52,18.19-26.99,16.99,3.33-11.75,15.5-21.75,27.99-20.98Z"/>
  <path class="cls-30" d="M505,1413c.18,1.26-.14,2.71,0,4,1.46,1.9,4.9-12.02,6.98-12,.85,9.74-2.88,19.73-7.13,28.36-2.08,4.22-5.92,13.06-6.86,3.15-.88-9.28,2.82-16.19,6-24.51,1.42-1.46,1.38-.95,1,1Z"/>
  <path class="cls-32" d="M522,1427c.04,4.18-3.87,10.23-2.99,15,3.65-2.3,3.37-7.96,4.73-11.8.57-1.61-.53-2.67,2.25-2.19.37,4.94-.2,9.42-1.29,14.2-.42,1.84-6.49,20.66-9.69,17.8-1.97-9.45-.1-26.36,5.99-34,1.8-1.37,2.37-.79,1,1Z"/>
  <path class="cls-31" d="M322,656.99c-9.21,2.27-21.47,3.14-28-4.98,4.63-.84,9.23.73,13.51,1,1.69.1,2.44-1,1.48-1.99-1.79-1.86-12.49-.59-15.51-1.27-1.37-.31-2.45-3.3,1.96-3.79,8.06-.91,22.09,3.75,26.55,11.03Z"/>
  <path class="cls-32" d="M450,1178c-1.54,2.74-4.66,8.17-3.51,10.99,3.23-3.51,5.06-7.98,7.51-11.99,1.3-1.32,1.53-.77,1,1-2.08,10.68-4.36,20.43-14.99,26-3.11-9.75,2.66-19.82,8.99-27,1.41-1.33,1.92-.77,1,1Z"/>
  <path class="cls-31" d="M386,887.99c-1.33-1.33.23-1.75,1.27-2.22,2.68-1.23,15.63-2.38,15.71-4.27-1.48-2.23-2.04-1.07-3.79-.82-4.23.61-8.78,2.33-13.19,2.31,1.5-6.42,26.07-10.45,25.98-5.49-3.98,6.08-11.01,11.15-18.51,11.55-1.13.06-7.2-.79-7.47-1.06Z"/>
  <path class="cls-31" d="M429.99,1078.01l-9.51,8.97c-1.3.66-4.06,6.34-1,5.01.8-.35,11.17-13.71,12.5-11.99,0,11.45-7.95,18.22-18.99,18.99,2.65-10.21,4.34-20.2,16.99-20.98Z"/>
  <path class="cls-37" d="M339,819.99c-11.27-.68-20.7-6.46-24.99-16.99,1.51-1.63,14.27,10.45,15.5,10.99,4.26,1.86-2.7-6.77-4.04-6.97l-10.47-7.01c11.69,2.1,20.17,8.57,23.99,19.98Z"/>
  <path class="cls-36" d="M337,993c6.32-2.2,10.21.48,15.01,4.49,1.32,1.1,7.02,6.89,6.96,8.02-.24,4.75-24.43-1.26-23.97-8.51.5-.53,11.59,5.59,13.99,3.5-2.47-1.68-9.45-5.2-12-5.5-2.07,0-1.69-1.06,0-2Z"/>
  <path class="cls-31" d="M288.01,1043c-2.89-3.71,13.96-22.44,19.98-20.99l-9.99,9.51c-.73,1.81,1.15,1.81,2.34,1.33,3.35-1.35,10.07-10.39,14.64-11.85,2.01,6.3-25.88,23.42-26.98,22Z"/>
  <path class="cls-32" d="M366,1246.99c-9.79,1.01-18-9.78-17.99-18.99l8.5,8.99c1.49.26,1.77,0,1.5-1.5-.58-3.23-6.64-6.33-8.02-9.48,11.38.1,12.62,12.68,16,20.98Z"/>
  <path class="cls-32" d="M213,528c.36.32.35,1.12,1.46,1.05,2.93-.17,11.32-12.27,16.54-12.04-3.83,9.3-11.39,17.56-20.32,22.17-.89.46-5.07,2.97-4.68.33.55-3.75,3.74-9.38,6-12.51,1.46-1.3,2.01-.72,1,1Z"/>
  <path class="cls-31" d="M295.99,599c-8.33-1.87-18.68-2.19-23.99-9.99,4.12-.62,7.15,2.57,10.69,3.81,1.62.57,1.61,2.02,3.29-.32l-16.98-8.49c5.92-5.23,31.4,10.12,26.99,14.99Z"/>
  <path class="cls-38" d="M530,1348.99c-9.64,1.43-17.44-2.19-23-9.98,5.16-.68,12.3,6.31,16.49,6,.88-.06.67-1.81.51-2-1.55-1.83-11.05-4.59-13.77-5.74-1.23-.53-2.95-.54-3.23-2.27,8.73-2.3,21.6,5.17,23,13.99Z"/>
  <path class="cls-38" d="M351,843c5.67-1.26,10.69-1.13,16.5-1,1.24.15-.03,1.04-.54,1.46-7.74,6.39-19.86,11.28-29.95,10.54,3.27-4.14,12.47-4.84,15.93-7.56,3.19-2.51.42-2.05-.93-2.43-1.36.31-1.73.28-1-1Z"/>
  <path class="cls-6" d="M413,1022.01c-1.61,2.57-7.29,4.5-7.97,7.51-.3,1.3.19,2.02,1.47,1.47.71-.3,7.77-7.84,8.5-6.99-2.08,7.83-8.01,14.23-15.98,15.99-1.26-8.83,4.8-17.84,13.99-17.98Z"/>
  <path class="cls-32" d="M367,1137c3.08,1.23,5,.96,8.04,3.46,1.33,1.1,6.38,6.64,2.45,6.57-8.59-.15-18.74-2.18-23.48-10.03,4.31-.7,8.73,2.8,12.48,3.03,2.27.14,2.23-1.43.52-2.04-.83-.29-.82-.62,0-1Z"/>
  <path class="cls-6" d="M466,1040.99c-7.46,2.75-16.11,3.27-21-3.98,2.42-.9,9.46,4.82,9,0l-10.99-4c7.42-2.19,19.16,1.28,22.99,7.98Z"/>
  <path class="cls-40" d="M262,645l-2.99,11.99c2.85.52,1.63-.71,2.24-2.2.98-2.38,1.62-4.97,2.73-7.32.25-.52,1.03-3.37,2.03-1.98.41,6.22-.34,13.85-3.79,19.21-4.75,7.37-5.56-6.78-5.26-10.27.48-5.45,2.27-6.53,5.05-10.45v1Z"/>
  <path class="cls-43" d="M322,1165c-1.04.81-9.74,9.28-4.51,6.99.81-.35,11.42-10.34,12.5-8.99.73,6.14-21.47,16.13-23.99,13.99.75-2.36,4.36-6.89,6.09-8.4,2.87-2.51,5.62-3.21,8.9-4.6,1.48-.92,1.96-.57,1,1Z"/>
  <path class="cls-33" d="M386,943c-3.5,3.52-7.3,7.75-9.01,12.49,1.25,1.78,2.12-.4,2.83-1.17,3.52-3.84,6.19-9.03,10.69-12.31,1.39.67-.15,2.54-.51,3.49-2.85,7.43-7.61,13.59-15.98,14.51-.09-7.71,4.69-14.06,10.99-18,1.41-1.33,1.92-.77,1,1Z"/>
  <path class="cls-33" d="M347,1063c.45-1.78,1.52-1.61,3.1-1.24-2.1.2-3.13-.39-3.1-1.76-.87-.28-.86-.62,0-1,4.6-.95,19.69-1.51,21,4.51,1,4.6-16.47,4.21-21-.51Z"/>
  <path class="cls-43" d="M307,1259c1.48-.17,2.15.16,2,1l-8.98,4.5c1.7,2.38,1.7.84,3.28.31,3.74-1.25,7.51-3.77,11.7-3.8-1.42,5.3-22.12,10.33-24,7.98,4.12-6.12,9.03-8.44,16-9.99Z"/>
  <path class="cls-7" d="M260.01,531.99c-.23-1.85,2.08-.87,3.03-.53,1.51.54,7.15,4.3,7.96,3.53,2.06-1.94-10.93-8.07-12.99-7.01.4-1.92,5.93-1.05,7.27-.76,2.53.54,13.66,7.16,13.7,9.27.11,5.18-17.28-2.34-18.97-4.51Z"/>
  <path class="cls-5" d="M335,914c1.56-1.38,2.14-.8,1,1-3.83,2.9-9.16,5.55-14,5.99l5.99-6.98-6.5,2.99c-.71-4.32,5.6-8.51,9.01-10.99.04,6.06-1.96,6.44,4.49,7.99Z"/>
  <path class="cls-21" d="M572,1443.99c-3.58,1.2-7.7,2.73-11.51,2.8-.86.02-4.66-.3-4.49-1.78,1.84-.67,8.59.43,7.99-3l-9.99.51c3.51-4.12,10.02-1.9,14.54-.56,1.34.4,3.1.08,3.45,2.03Z"/>
  <path class="cls-45" d="M338,1292c.49-2.8-5.94-6.23-7-8.99,7.82-.93,9.33,7.52,12.99,12.5-1.68.76-6.57-.76-7.99-1.51-1.68-2.22-.42-2.97,2-2Z"/>
  <path class="cls-39" d="M262.99,484.99c-3.18,1.54-15.72-8.23-13.99-9.99,2.78-.33,5.32,3.86,7.01,4.55,1.16.48,1.85-1.6,2.99-1.13s4.89,5.7,4,6.57Z"/>
  <path class="cls-47" d="M526,1379c4.39.87,13.7,4.15,14.99,8.99-1.56,1.48-13.41-9.51-16.99-5.99-.33-.47-1.36-.71-2-2-.57-3.01,2.38-2.58,4-1Z"/>
  <path class="cls-39" d="M266,509.99c-4.2.16-9.76.3-11.99-3.99.3.46,10.42,3.53,7,0-.73-.75-7.4-1.84-7.99-4.01,2.66-.86,16.12,4.96,12.99,7.98Z"/>
  <path class="cls-16" d="M321,1083c1.38-.27,1.72-.27,1,1-2.58,1.84-5.28,4.78-8.99,4.99-1.1-2.8,7.36-9.74,7.99-8.99-.03,1.33-.99,1.66,0,3Z"/>
  <path class="cls-2" d="M212,527c3.2-4.44,8.43-9.94,14-10.99l-13,11.99c-.35-.31-.64-.7-1-1Z"/>
  <path class="cls-18" d="M347,1060c1.83.39,10.64,1.56,11.01,2.51.86,2.22-2.19,1.51-3.38,1.37-2.48-.28-4.94-1.41-7.63-.88-.31-.32-.84-.71-1-1-.59-1.34-.58-2.42,1-2Z"/>
  <path class="cls-29" d="M351,843c.16.45.55.88,1,1l-13,4.99c2.59-3.25,8.02-5.11,12-5.99Z"/>
  <path class="cls-24" d="M336,1294c-2.38-1.24-4.95-4.17-4.99-7l6.99,5c-.11.64-1.48,1.46-2,2Z"/>
  <path class="cls-3" d="M367,1137v1l-10.01-3.5c.04-2.41,9.21,2.18,10.01,2.5Z"/>
  <path class="cls-23" d="M486,1368l-1-1c1.47-1.74,2.75-4.02,4.99-5,.39,2.67-3.08,4.51-3.99,6Z"/>
  <path class="cls-4" d="M505,1413c-.07-.47-.52-.89-1-1l3.99-6.99-2.99,7.99Z"/>
  <path class="cls-3" d="M307,1259c2.95-.65,5.48-1.67,8.99-.99l-6.99,1.99-2-1Z"/>
  <path class="cls-14" d="M521,1426c4.38-5.49,5.93-2.58,1,1,0-.46-.4-1.17-1-1Z"/>
  <path class="cls-46" d="M450,1178l-1-1c1.17-1.33,2.07-3.4,3.99-4,.46,2.19-2.06,3.35-2.99,5Z"/>
  <path class="cls-28" d="M232,343c.87.28.86.62,0,1-1.28.6-2.83,1.26-4,2l-1-1c2.35-1.17,2.23-1.21,5-2Z"/>
  <path class="cls-27" d="M526,1378v1c-2.44-.48-2.62-1.86-4,1-2.32-4.71,2.29-2.08,4-2Z"/>
  <path class="cls-14" d="M321,1164c1.16-.49,2.5-2.85,4.99-1.99,1.04.47-3.08,2.28-3.99,2.99l-1-1Z"/>
  <path class="cls-10" d="M410,917l1,2c-1.66-.08-3.34.07-5-.01-.31-1.39,2.47-1.67,4-1.99Z"/>
  <path class="cls-42" d="M321,1083l5-1.99c-.29,2.26-3.06,2.32-4,2.99-.41-.26-.71-.61-1-1Z"/>
  <path class="cls-1" d="M488,1221l-1,1c-.68-.75-5.17-2.46-3.99-2.99,2.57-.71,3.57,1.21,4.99,1.99Z"/>
  <path class="cls-12" d="M335,914c1.05-1.25,2.32-2.28,4-1.99-.32,1.5-1.92,2.17-3,2.99-.18-.43-.56-.89-1-1Z"/>
  <path class="cls-44" d="M385,942c1.27-.79,2.01-2.52,4-1.99-.22,1.58-2.14,2.13-3,2.99l-1-1Z"/>
  <path class="cls-11" d="M328,957c-.85.05-1.73.04-2,1-.69-.85-2.66-.85-1.99-3l3.99,2Z"/>
  <path class="cls-41" d="M490,1371c.03-1-.02-2,0-3,.19-.28-.13-1.4.01-1.99h.98c-.09,1.55.68,4.1-.99,4.99Z"/>
  <path class="cls-24" d="M262,645v-1c.21-.29.67-4.02,2.01-2.49l-2.01,3.49Z"/>
  <path class="cls-35" d="M305,979c.82-.18,2.23-1.81,4-.99.33,1.3-1.62,1.29-3,1.99l-1-1Z"/>
  <path class="cls-17" d="M455,1178l-1-1c.8-1.31.59-3.33,1.99-3,.83,1.78-.85,3.26-.99,4Z"/>
  <path class="cls-26" d="M230,398c.82-.18,2.23-1.81,4-.99.33,1.3-1.62,1.28-3,1.99l-1-1Z"/>
  <path class="cls-9" d="M347,1059v1l-1,2c-.42-.76-1.65-1.17-.99-3,.64-.09,1.4.12,1.99,0Z"/>
  <path class="cls-13" d="M337,995c-.91-.11-2.73,1.29-2.99,1-.66-2.22,1.18-2.37,2.99-3v2Z"/>
  <path class="cls-34" d="M232,343c.78-.22,2.92-2.26,4.01-.5.01.59-2.9.98-4.01,1.5v-1Z"/>
</svg>