<?xml version="1.0" encoding="UTF-8"?>
<svg id="Lager_1" data-name="Lager 1" xmlns="http://www.w3.org/2000/svg" viewBox="0 0 2560 1600">
  <defs>
    <style>
      .cls-1 {
        fill: #2b3525;
      }

      .cls-2 {
        fill: #7c9a6c;
      }

      .cls-3 {
        fill: #83a072;
      }

      .cls-4 {
        fill: #364130;
      }

      .cls-5 {
        fill: #647a56;
      }

      .cls-6 {
        fill: #86a575;
      }

      .cls-7 {
        fill: #68815a;
      }

      .cls-8 {
        fill: #010101;
      }

      .cls-9 {
        fill: #96b385;
      }

      .cls-10 {
        fill: #3a4036;
      }

      .cls-11 {
        fill: #93b083;
      }

      .cls-12 {
        fill: #7c996c;
      }

      .cls-13 {
        fill: #595959;
      }

      .cls-14 {
        fill: #696a6a;
      }

      .cls-15 {
        fill: #6d865e;
      }

      .cls-16 {
        fill: #495840;
      }

      .cls-17 {
        fill: #7e9b6e;
      }

      .cls-18 {
        fill: #819e71;
      }

      .cls-19 {
        fill: #9bb88a;
      }

      .cls-20 {
        fill: #5f7653;
      }

      .cls-21 {
        fill: #82a172;
      }

      .cls-22 {
        fill: #99b588;
      }

      .cls-23 {
        fill: #99b688;
      }

      .cls-24 {
        fill: #454545;
      }

      .cls-25 {
        fill: #728d63;
      }

      .cls-26 {
        fill: #6b845c;
      }

      .cls-27 {
        fill: #95b285;
      }

      .cls-28 {
        fill: #7c996b;
      }

      .cls-29 {
        fill: #7c986c;
      }

      .cls-30 {
        fill: #83a073;
      }

      .cls-31 {
        fill: #6e8960;
      }

      .cls-32 {
        fill: #85a174;
      }

      .cls-33 {
        fill: #91af80;
      }

      .cls-34 {
        fill: #779367;
      }

      .cls-35 {
        fill: #959696;
      }

      .cls-36 {
        fill: #090b08;
      }

      .cls-37 {
        fill: #98b587;
      }

      .cls-38 {
        fill: #656565;
      }

      .cls-39 {
        fill: #4f4f4f;
      }

      .cls-40 {
        fill: #769266;
      }

      .cls-41 {
        fill: #9cb98b;
      }

      .cls-42 {
        fill: #020202;
      }

      .cls-43 {
        fill: #79926a;
      }

      .cls-44 {
        fill: #6d706e;
      }

      .cls-45 {
        fill: #84a173;
      }

      .cls-46 {
        fill: #2f4f3a;
      }

      .cls-47 {
        fill: #769167;
      }

      .cls-48 {
        fill: #809d6f;
      }

      .cls-49 {
        fill: #7f9b6e;
      }

      .cls-50 {
        fill: #7b976b;
      }

      .cls-51 {
        fill: #9bb88b;
      }

      .cls-52 {
        fill: #84a374;
      }

      .cls-53 {
        fill: #738e64;
      }

      .cls-54 {
        fill: #536749;
      }

      .cls-55 {
        fill: #84a174;
      }

      .cls-56 {
        fill: #9ab789;
      }

      .cls-57 {
        fill: #678059;
      }

      .cls-58 {
        fill: #708b61;
      }

      .cls-59 {
        fill: #9bb78a;
      }

      .cls-60 {
        fill: #676767;
      }

      .cls-61 {
        fill: #758f65;
      }

      .cls-62 {
        fill: #8b8b8b;
      }

      .cls-63 {
        fill: #747474;
      }

      .cls-64 {
        fill: #6b6b6b;
      }

      .cls-65 {
        fill: #749064;
      }

      .cls-66 {
        fill: #95b284;
      }

      .cls-67 {
        fill: #161c13;
      }

      .cls-68 {
        fill: #090c08;
      }

      .cls-69 {
        fill: #0d100b;
      }

      .cls-70 {
        fill: #7f7f7f;
      }

      .cls-71 {
        fill: #43533a;
      }

      .cls-72 {
        fill: #585858;
      }

      .cls-73 {
        fill: #95b184;
      }

      .cls-74 {
        fill: #6e6e6e;
      }

      .cls-75 {
        fill: #7a966a;
      }

      .cls-76 {
        fill: #809e6e;
      }

      .cls-77 {
        fill: #759166;
      }

      .cls-78 {
        fill: #616161;
      }

      .cls-79 {
        fill: #728c63;
      }

      .cls-80 {
        fill: #787878;
      }

      .cls-81 {
        fill: #7d9b6d;
      }

      .cls-82 {
        fill: #81a070;
      }

      .cls-83 {
        fill: #617969;
      }

      .cls-84 {
        fill: #4c4c4c;
      }

      .cls-85 {
        fill: #809c6f;
      }

      .cls-86 {
        fill: #898989;
      }

      .cls-87 {
        fill: #999;
      }

      .cls-88 {
        fill: #7d9b6c;
      }

      .cls-89 {
        fill: #97b486;
      }

      .cls-90 {
        fill: #647b56;
      }
    </style>
  </defs>
  <path class="cls-46" d="M161,209c1.86-.87,4.16-.99,6,0,1.53.37,5.71,5.63,6,7-5.63,22.13-12.94,49.07-31.51,67.03-8.07,10.02-14.7,20.76-18.16,32.92l-1.64,1.2c-3.4,10.44-6.29,21.05-8.69,31.86-1.09,10.09-.82,18.87-1,29-4.76,26.57-4.29,56.48-2.01,84.25,5.19,29.89,16.23,58.9,27.91,86.64-.51,4.39.16,10.71,2.75,14.08.7,3.44,1.08,9.14-.35,11.99,3.7,23.06,8.78,46.31,15.09,68.76,1.2,13.1,3.27,26.12,6.2,39.05-.58,7.2-.57,15.23,2.42,21.76.97,18.58,2.25,37.98,7.96,55.37,1.6,16.56,3.55,33.21,5.83,49.96-.42,15-.62,30.09-.59,45.26.66,1.16,1.18,2.31,1.19,3.47.29,33.28-1.44,66.05-14.1,96.49-5.48,16.68-9.61,33.74-13.5,50.68-4.86,21.16-8.76,41.29-9.99,62.73l-1.56,2.16c-1.24,13.03-4.03,25.92-7.87,38.31-3.72,18.92-3.97,38.29-3.5,57.07.36,14.29,1.46,28.61,3.62,42.66.05,15.23.57,30.35,1.56,45.36-4.18,27.25-6.72,56.32,1.34,82.93.94,13.59,4.78,27.61,9.09,40.44-.67,7.77,2.1,17.29,5.64,24.46.86,11.38,2.76,22.72,5.7,34,.29,2.28-.34,14.24-.97,15.77s-3.46-1.18-3.69-2.81l-12.35-36.18c-3.36-2.06-4.64-6.09-3.87-9.91-6.02-16.31-11.23-32.73-15.6-49.26.42-10.72-2.5-22.06-6.07-31.8-2.03-2.54-2.36-7.67-.51-10.39.66-11.48.95-22.74.8-33.94,3.2-18.26,1.29-37.47-.77-55.75l1.43-3.3c-3.11-30.31-5.36-60.58-2.06-90.24,7.54-31.36,12.25-63.22,14.12-95.61,5.32-18.17,9.88-36.48,13.69-54.95,4.57-10.29,8.22-22.21,10.75-33.2,6.35-14.19,10.25-29.95,10.27-45.3.07-.32-.06-.68,0-1,.54-13.18.19-26.32-1.01-39.58,1.2-19.47,2.08-39.28-1.08-58.36,1.32-12.03-1.18-25.06-4.16-37.09-3.33-24.77-6.51-49.58-9.55-74.44-2.26-5.9-3.77-11.98-4.37-18.28-2.69-28.38-8.91-56.31-15.28-84.06l-3.56-27.47c-5.83-17.56-11.88-35.06-18.14-52.5l.38-2.31c-7.9-18.99-10.86-39.55-13.08-59.58.81-18.13,1.02-36.32.62-54.56,2.66-8.75,3.76-19.26,2.86-28.3,2.14-19.55,9.96-51.18,19.83-68.1,9.82-12.22,19.26-24.67,28.32-37.36,5.6-14.5,10.43-29.32,14.47-44.48l1.74-1.52c.88-.18,1.88-.97,3-1Z"/>
  <path class="cls-8" d="M112,378c-.06,3.18.06,5.89-1,8.99,3.05-.19,5.62-.07,8.54.96,3.78,1.33,17.16,13.19,19.31,16.69,7.8,12.73,2.99,15.28-9.53,9.53-6.42-2.95-14.41-8.55-17.34-15.18-.39-.27-1.98,1.32-1.98,1.5v25.5c3.81-2.24,10.13,1.64,13.69,3.81,6.04,3.68,15.79,13.49,16.05,20.86.15,4.15-2.39,3.61-4.74,4.33-1.99.48-3.99.38-6,0-10.34-2.04-12.27-6.54-17.74-14.77-.69-1.04-.9-2.66-1.77-.24-1.45,4,1.92,30.35,4.41,33.4,14.45,2.51,35.42,11.03,43.28,23.95,1.82,2.99,8.68,15.99,5.68,18.53-.74.63-9.39,1.17-11.1.91-8.36-1.25-25.44-14.79-30.19-21.83l-5.55-9.94,17.99,55,6,1c5.86,1.62,13.86,5.78,18.21,9.99,7,6.77-4.2,7.98-9.67,6.95-4.1-.77-7.13-5.9-10.53-7.95l1.99,12.01c11.68-2.55,39.01,15.81,41.02,26.48.38,2.01-.27,1.34-1.5,1.51-8.33,1.18-22.37-2.93-28.99-8.03-1.59-1.22-8.08-9.14-9.52-7.97l11.52,57.04c4.75.6,10.67-.65,15.89.04,14.39,1.9,28.74,16.69,38.57,26.44.4,1.74-1.95,2.45-3.15,2.81-12.63,3.83-27.3-.83-38.16-7.52-3.47-2.13-6.66-5.15-9.67-7.82-.72,8.26,3.45,16.86,4.93,24.55.75,3.91-1.82,7.25,2.06,7.44,1.86-.76,3.86-.76,6,0,5.44,1.22,8.37,2.14,12.91,5.59s6.91,8.31,11.09,11.92c.6,1.93-2.4,1.95-3.77,2.2-12.94,2.3-18.98-2.32-27.22-11.71l.98,17.01c2,.02,4.01-.03,6.01,0,1.84-.77,3.84-.77,6,0,9.93,2.52,18.45,6.6,23.84,15.66,6.02,10.12,4.55,14.19-7.64,11.64-9.97-2.08-19.64-7.54-26.19-15.3l5.5,37.99c1.45,2.07,4.56-1.09,7.93-1.03,10.02.18,22.48,11.93,24.54,21.56-11.88,3.45-20.06-7.24-29.97-11.52l4.99,45,7,1c7.21,1.63,13.12,3.76,18.53,8.97,3.19,3.07,10.15,11.6,7.03,16.09-2.35,3.38-19.55-1.08-23.24-2.89s-5.71-5.12-9.32-6.18v35c7.38-2.36,13.34.02,19.67,3.83s17.39,16.21,20.88,23.12c3.29,6.52,5.24,13.74,5.46,21.04-15.78,2.09-27.26-13.14-38-22.5l-7-12.5v26c13.8,1.81,24.65,14.84,26.97,27.97-11.63.78-21.02-9.24-25.97-18.97-1.37.09-1.53-1.88-1.62-3.21-.01-.18,1.04,3.19-.38,3.21-1.07,13.45-5.17,28.18-9,40.99,12.17,3.24,18.59,17.26,20,29-12.3-.01-20.76-12.55-21.01-23.99-4.12,2.98-3.9,9.96-5.3,14.19-.98,2.96-3.02,6.11-3.85,9.15-1.95,7.11-2.37,14.66-4.85,21.64,11.38,3.36,21.12,16.12,21.01,28.03-3.85.09-8.3-.68-11.36-3.15-.69-.56-7.22-7.04-7.52-7.48-1.71-2.48-1.17-6.96-4.11-8.38-1.32,8.04-5.36,16.82-6.76,24.75-1.64,9.31-.55,18.6-3.33,27.63,12.22,3.93,17.94,17.04,21.08,28.62.49,1.72.94,3.32,0,5-3.79,3.89-13.19-6.12-15.41-9.09-2.86-3.82-3.62-6.49-5.34-10.71-.61-1.5.6-2.72-2.25-2.19,1.15,7.7-1.22,15.58-3.01,22.98,15.58,3.27,23.2,19.73,26,34-14.13.44-27.32-10.67-28.5-25-2.73,8.03-3.67,16.67-4.5,25.01-.86,1.56-.76,3.42,0,5-.17,2.73-2.31,11.49-.84,13.84,9.72,3,15.96,11.81,19.71,20.79,1.04,2.5,3.69,8.09-.27,8.33-9.75.6-15.84-13.04-19.6-19.96-.91,3.32-.79,7.48,0,11-.01,11.11,1.48,21.94,2,33,.74,1.25,2.08,1.91,4,2,8.52,1.98,12.66,7.92,16.17,15.33,1.03,2.17,5.21,12.52,4.76,14.05-1.79,6.11-12.97-1.87-15.45-4.37s-4.65-6.69-7.49-9.01v27c17.89-1.02,33.67,16.05,38.47,32.03,2.79,9.3,3.66,13.54-7.74,11.73-15.25-2.42-27.63-18.11-29.75-32.75l-1.98,7.51c-.38,18.88-2.57,38.21-.99,56.97.29,3.44,1.68,6.98,2.05,10.45,8.04-1.52,20.4,1.32,26.41,7.09,9.39,9.01-12.94,7.85-18.48,5.48-2.49-1.06-3.43-3.39-6-3.49l7.14,32.86c5.52-.06,13.06,1.61,17.58,4.83,1.89,1.35,8.41,7.96,4.63,9.14-6.08,1.91-16.73-2.66-21.33-6.84l4.95,20.34c8.68,2.16,18.12,4.87,24.03,12.16,8.57,10.57.59,9.49-7.98,5.98-6.29-2.57-9.05-6.23-14.01-10.48,2.2,6.52,2.45,20.97,4.95,26.36.55,1.19,1.15.55,2.04.64,2.91-.77,5.91-.77,9,0,7.5,1.44,25.33,9.93,9.87,13.37-7.91,1.76-13.49-1.4-19.37-6.35-1.97.01-1.34,11.17-1.5,12.98-1.09.09-2.03.09-3.02-.47-4.44-2.5-11.78-34.86-14.74-41.25-2.44-4.53-2.67,3.42-3.53,5.94-3.14,9.25-8.93,18.82-17.7,22.79-3.19-13.59,4.84-30.87,17.85-36.47-2.85-7.94-6.66-15.68-9.15-23.75-1.85-5.98-2.27-14.51-4.9-20.1-.68-1.44-1.09-2.2-2.32-.69-1.88,2.29-4.4,9.54-6.48,12.25-1.7,2.23-15.66,12.29-17.01,10.75.1-13.85,9.77-27.9,23.97-30.03.21-3.45-5.54-32.05-7.47-31.95-4.18,6.33-13.45,14.79-20.56,17.42-10.31,3.81-4.37-9.58-1.17-14.17,5.3-7.61,12.75-12.35,22.18-12.32-.32-7.16,1.26-13.76,1.05-20.95-.42-3.9-1.09-4.9-2-3-1.48,1.9-2.58,4.43-4.06,6.21-8.12,9.78-29.19,19.54-17.12-2.89,3.16-5.88,7.97-10.39,14.21-12.79,1.89-.73,7.51-1.29,8.08-2.13,1.93-2.79,1.76-14.55,1.89-18.4-.81-4.29-.83-8.71,0-13-.03-3.95.44-8.13-.5-12-3.61,2.79-5.66,7.01-9.03,9.97-5.98,5.27-28.39,18.91-19.66.34,4.73-10.06,17.15-23.41,29.18-22.32-.57-15.14-5.02-29.78-4.01-44.99l-4.02,6.47c-6.45,8.05-30.9,18.92-20,0,2.39-4.15,11.02-11.63,15.35-13.65,3.01-1.4,5.75-1.11,7.68-1.83.95-2.54.78-5.43,0-8-.01-5.76-.25-12.91.11-18.38.26-3.99,1.87-8.5,1.88-12.61l-11.17,16.36c-4.17,4.78-21.22,14.86-27.23,13.46-4.9-1.14-.1-15.33,1.23-18.5,4.46-10.58,17.03-20.5,28.7-21.33,3.56-.25,8.42,2.03,9.94-1.03,7.16-27.56,11.32-55.53,13.53-83.96-7.44,10.06-15.87,18.3-28.98,19.99.84-16.07,14.31-29.61,30.87-29.12l10.12-37.87c-3.33,1.88-4.3,5.95-6.95,8.54-8.96,8.73-43.17,21.09-26.03-2.03,8.06-10.88,21.48-16.24,34.9-15.6l10.09-31.89-8.32,5.18c-3.04,2.4-20.06,6.93-19.56,1.47s14.99-14.42,20.08-15.95c2.54-.76,11.5-1.58,12.33-2.67,1.49-1.94,2.69-12.01,3.46-15.03-2.78,1.54-6.32,7.64-8.79,8.92-2.02,1.05-12.9,3.53-14.22,2.63-5.12-3.5,9.68-15.78,13.73-17.34,2.44-.94,9-1.55,10.06-2.43,1.41-1.18,1.78-8.52,2.24-10.77,1.63,1.57,1.21,5.45,1.03,7.54-2.14,24.46-11.13,40.1-17.53,62.46-5.27,18.42-13.21,45.41-16.23,63.77s-3.06,37.51-6.73,56.27c-6.02,30.72-10.02,44.87-9.5,77.42.55,34.49,4.69,65.72,4,101.08-.3,15.56-3.54,36.97-2.03,51.95.49,4.84,2.87,7.59,3.71,11.29,2.04,9,2.6,18.54,4.58,27.42,6.09,27.41,18.81,58.81,28.24,85.76.69,1.96,1.78,5.93,3.45,7.03,1.19-18.58-3.41-37.82-7.46-56.03-7.25-32.58-18.84-71.03-17.57-104.51.42-11.19,2.66-22.72,3.03-33.97,1.67-50.77-11.12-102.61.31-152.69,4.36-19.12,8.01-35.61,10.69-55.31,4.29-31.59,11.49-63.2,21.26-93.74,9.62-30.09,12.45-39.78,12.85-72.14.46-37.5,1.57-76.58-4.26-113.94-1.09-6.97-3.57-13.75-4.58-20.42-4.9-32.5-6.41-65.54-12.5-97.5-4.43-23.24-10.94-45.93-14.64-69.36-1.23-7.83-.74-16.74-2.37-24.63-4.49-21.79-17.05-45.82-23.46-67.54-8.5-28.75-9.13-75.6-4.98-105.42.22-1.62-.03-6.6,2.7-5.79Z"/>
  <path class="cls-8" d="M158,210c-4.34,13.68-7.2,28.44-12.82,41.68-8.16,19.22-27.7,32.16-35.66,52.34-16.68,42.3-20.3,108.15-16.51,153.47,1.98,23.66,11.26,45.34,18.25,67.75,3.13,10.01,7.88,22.21,10.47,31.53,2.17,7.79,3.19,20.92,4.97,30.03,12.61,64.64,23.3,129.19,31.42,194.58,3.73,30.05,2.63,55.17,2.91,85.09.11,11.44.81,20.76-1.04,31.54l-2.01-38-5.97,8.52c-7.46,8.64-20.69,14.6-32.03,14.48.48-14.39,11.99-29.47,25.97-33.54,3.34-.97,9.3-.53,12.03-1.47.35-2.57.68-5.24,1-8,.31-10.3-.22-20.69-.01-31-5.64,5.04-8.14,11.16-14.85,15.64-12.6,8.4-15.72,4.71-9.64-8.64,4.02-8.82,13-18.28,23.46-18.04l-2.97-30.96c-4.53,3.93-11.33,10.03-17.73,9.81-5.13-.18,1-10.93,2.74-13.31.97-1.31,5.33-5.7,6.62-6.38,1.98-1.05,5.19-.93,5.38-1.13.77-.75-3.33-14.3-2.02-17-4.16,2.96-4.33,8.6-7.55,12.96-3.01,4.08-16.51,11.98-21.19,12.86-7.38,1.39-6.45-1.62-4.42-6.5,4.15-9.93,11.87-22.07,21.22-27.78,5.34-3.26,8.67-.73,8.96-7.54l-1-7c-.38-3.79-.82-7.13-1-11l-1-7c-.07-5.64.08-9.28-1.74-14.79-.32-.97.16-3.01-1.75-2.2-2.82,1.2-4.34,8.17-7.49,9.73-2.91,5.88-10.33,13.32-15.78,17.23-3.07,2.2-21.43,13.49-23.16,7.41-.38-1.33,3.54-17.95,4.42-20.37,5.93-16.3,22.78-31.08,40.46-32.04l.1-1.45-7.06-37.52c-1.74-1.58-6.38,5.81-7.35,6.64-8.03,6.88-21.94,12.87-32.65,11.36-.4-16.05,22.87-29.25,37-26.01l-3.5-23-5.8,11.7c-4.86,3.37-9.25,8.21-15.68,8.3-1.31-12.31,8.92-22.47,19.07-27.66-2.22-8.63-1.36-19.05-3.51-27.4-1.17-4.53-4.38-9.42-5.84-14.16-2.29-7.43-4.06-15.18-5.73-22.78-1.44-.15-1.62,2.36-2,3.48-3.41,10.08-8.51,31.12-17.8,37.17-6.72,4.38-11.3,5.66-13.92-3.42-2.88-9.97.49-24.08,5.54-32.93,5.57-9.76,13.47-14.66,23.18-19.8-7.63-15.77-10.76-33.12-12-50.51l-6.99,12.49c-7.32,7.64-15.69,15.6-27,15.5-.25-18.54,13.63-37.83,33-39v-43l-7,10.5c-8.74,8.81-18.91,10.43-31,9.51-.7-17.09,14.66-29.64,30-33,2.14-.75,4.14-.75,6,0,.81-.07,2.63.28,2.93-.06.94-1.03,2.42-22.45,3.06-25.94-3.02,2.19-3.77,6.35-6.5,8.99-3.85,3.73-23.93,15.09-23.98,4.9-.06-11.62,18.97-26.63,30.49-24.9l1-5c3.33-15.18,8.7-37.04,15.83-50.67s21.83-25.27,29.34-38.66c4.19-7.47,13.87-45.78,15.88-47.26.93-.82,1.85.62,1.95.6Z"/>
  <path class="cls-42" d="M173,216c1.43,6.69-3.33,15.3-5.31,21.19-3.47,10.27-6.97,22.72-13.27,31.73-6.84,9.78-16.33,18.55-22.39,28.83-.91,1.54-6.16,12.04-6.03,12.74,4.11,2.34,9.22,2.1,14,4.03,8.03,3.25,18.14,13.53,19.76,22.23,1.34,7.18-1.64,8.21-8.8,7.8-13.88-.78-22.41-14.16-25.93-26.08-.34-1.14-.24-2.95-2-1.45-4.53,3.85-4.69,26.41-10.02,31.99,3.11-28.76,13.84-48.26,31.03-71.47,2.88-3.89,7.41-7.38,10.17-11.83,6.65-10.73,14.1-33.82,16.66-46.39.38-1.84-.89-3.9,2.14-3.31Z"/>
  <path class="cls-86" d="M113,1258c-1.67-3.01-1.7-9.79,0-13,.03,4.31.15,8.7,0,13Z"/>
  <path class="cls-78" d="M129,1166c-2.16-2.67-.56-7.25-.99-10.5l.99-.5c0,3.66,0,7.34,0,11Z"/>
  <path class="cls-24" d="M166,1434c-2.92-.21-6.15.3-9,0,2.6-2.62,6.54-.47,9,0Z"/>
  <path class="cls-13" d="M158,848c.32-2.5-1-6.27,1-8-.08,2.48.18,4.97-.08,7.45-.11.6-.54.42-.92.55Z"/>
  <path class="cls-84" d="M108,1167c0-2.66,0-5.34,0-8,1.69,1.48,1.61,7.4,0,8Z"/>
  <path class="cls-60" d="M185,807c-1.89-.31-6.36.96-7-1,2.84-.78,4.93.53,7,1Z"/>
  <path class="cls-70" d="M145,705c-1.74-1.36-.97-4.81-1-7,1.8,1.39.89,4.79,1,7Z"/>
  <path class="cls-44" d="M147,723c-1.9-1.42-.76-4.81-1-7,.21,2.03,1.14,3.65,1,7Z"/>
  <path class="cls-39" d="M140,541c-1.99-.22-5.13.88-6-1,2.56-.76,4.21.51,6,1Z"/>
  <path class="cls-38" d="M135,455c-4.2,1.3-2.54.68-6,0h6Z"/>
  <path class="cls-87" d="M112,1291l-2-3c.53-.68.8-2.02,1.99-2,.06,1.66-.04,3.34,0,5Z"/>
  <path class="cls-64" d="M175,702c-2-.02-4,.03-6,0,1.76-2.57,4.41-.4,6,0Z"/>
  <path class="cls-72" d="M88,388c-1.97.17-4.02-.12-6,0,1.5-.33,4.26-2.62,6,0Z"/>
  <path class="cls-83" d="M167,209c-1.31-.31-4.37-.04-6,0,.95-1.61,4.99-1.64,6,0Z"/>
  <path class="cls-63" d="M169,677c-1.99-.07-4.01.1-6,0,1.75-2.62,4.5-.33,6,0Z"/>
  <path class="cls-74" d="M135,1201c-2.89-.67-3.83,1.65-4-2l4,2Z"/>
  <path class="cls-14" d="M130,1132c-1.58-.66-1.58-4.34,0-5-.16,1.64.1,3.35,0,5Z"/>
  <path class="cls-62" d="M180,906h-2c.08-1.05-.46-4,.5-4.01.9.96.8,2.64,1.5,4.01Z"/>
  <path class="cls-80" d="M163,1092v-5c.46,1.71,2.4,2.53,0,5Z"/>
  <path class="cls-35" d="M94,351c-.83-2.08.72-3.72,1-5l-.08,4.43-.92.57Z"/>
  <path class="cls-41" d="M183,860c13.59-2.78,32.28,20.16,36.48,32.02,1.3,3.67,1.66,7.68,2.54,11.46-11.71,1.78-30.38-15.53-36.21-24.79-1.21-1.92-6.71-13.57-5.79-14.7,3.44,2.22,7.32,4.4,10.47,7.02,2.75,2.29,10.07,11.13,12.04,11.97,1.18.51,1.99-.29,1.48-1.48-.38-.88-11.3-11.6-12.96-13.04-2.59-2.24-5.2-4-8.03-6.47-1.66-.86-1.96-1.66,0-2Z"/>
  <path class="cls-41" d="M142,493.99c-1.57-2.73-5.07-3.08-7.5-4.99-3.66-2.88-6.69-7.14-10.5-9.99,18.48,3.42,32.57,15.29,37.96,33.5-8.7,6.96-23.5-4.49-30.43-10.54-7.69-6.7-12.08-14.4-15.53-23.96,10.33,2.06,14.65,16.7,26,15.98Z"/>
  <path class="cls-41" d="M171,1286c-20.44.2-33.84-18.14-35.99-37,3.17,1.94,8.24,5.71,10.64,8.35,3.33,3.66,7.49,12.79,10.33,15.17,1.25,1.05,2.49.76,2.01-1-2.48-8.99-14.87-18.84-20.98-25.51,19.05,2.88,32.37,21.7,34,39.99Z"/>
  <path class="cls-41" d="M105,1120c1.51.23,1.17.89-1,2-2.05,1.11-13.9,10.27-13.98,11.5-.06.87.95,1.49,2.47.5,4.93-3.22,9.13-8.66,15.02-10.99,1.39,1.4.01,3.91-.66,5.34-6.1,12.98-19.84,26.18-34.84,26.66-.68-17.96,15-34.66,33-35Z"/>
  <path class="cls-51" d="M190,645c5,3.85,9.8,7.71,14,12.5-18.44,5.58-40.03-4.07-49.99-20.01,10.63-1.38,20.11,6.54,29.92,9.08,1.93.5,3.53,1.42,3.07-1.58-1.23-2.52,1.29-1.09,3,0Z"/>
  <path class="cls-19" d="M200,726.99c-2.46,2.69-21.12-4.24-24.36-6.14-1.79-1.05-7.72-7.29-9.67-9.32-1.03-1.08-2.33-1.78-1.97-3.53,6.01-1.3,16.14,7.32,20.48,7.01.88-.06.67-1.81.51-2-.28-.33-6.6-3.31-7.73-3.78-3.92-1.64-8.2-2.58-12.26-3.73,1.14-1.66,2.73-1.43,4.44-1.56,12.55-.92,28.85,9.94,30.56,23.04Z"/>
  <path class="cls-19" d="M209,831c-7.63,1.17-32.44-5.82-31.07-15.48.12-.87.92-2.46,1.56-2.49,2.01-.12,10.95,7.15,13.02,7.96,3.21,1.26.2-4-1.59-4.42l-12.92-7.56c13.02-1.82,30.14,8.32,31,21.99Z"/>
  <path class="cls-19" d="M138,451.99c-14.45,5.45-24.56-8.91-27.99-20.99,1.06-1.3,12.73,9.66,13.5,9.99,4.66,2-3-7.78-4.59-7.42l-8.92-5.56c12.51-1.07,25.12,12.21,27.99,23.98Z"/>
  <path class="cls-19" d="M121,985l-.51,3.98c1.63-1.9,14.73-7.69,15.5-6.97l-7.94,11.54c-7.58,5.53-16.32,10.27-26.05,9.45-1.35-1.3,3.84-9,5.02-10.47,3.3-4.1,6.61-6.39,10.98-8.52,2.74-.96,3.74-.63,3,1Z"/>
  <path class="cls-19" d="M142,1097c9.99,5.49,15.91,15.97,18,26.99-12.56-.06-23.91-12.27-22.99-24.99l8.49,9.99c1.6-3.22-3.27-8.47-5.51-10.99-1.07-1.44-.4-1.77,2-1Z"/>
  <path class="cls-59" d="M164,573c5.75,4.13,10.6,8.1,13.99,14.51-2.7,1.01-6.26.63-9.05.05-1.99-.42-10.34-3.68-12.34-4.66-6.61-3.27-12.36-9.3-15.61-15.88.9-.75,13.68,5.62,15.75,6.7,1.95,1.02.66,3.93,5.25,1.29-1.39-2.46-.65-2.91,2-2Z"/>
  <path class="cls-19" d="M110,1231c-4.79,8.95-15.61,18.05-26,18.99,1.78-8.58,13.99-24.05,22.54-25.95,1.25-.28,3.21-.4,2.45,1.45l-5.97,6.01c1.25,2.72,4.81-1.41,5.98-2.5,1.43-1.07,1.77-.4,1,2Z"/>
  <path class="cls-56" d="M129,405c1.95-.05,3.62-.71,5-2,.81.96,2.45,1.3,3.43,3.06.53.96,2.94,8.55,2.57,8.93-7.64-1.17-17.12-6.59-22.51-11.98-1.02-1.02-9.83-10.77-5-10.99,7.51,1.93,11.6,9.29,16.51,12.98Z"/>
  <path class="cls-37" d="M105,1281.01c-.27,3.97-6.37,5.92-7.01,9.48-.27,1.5.02,1.77,1.5,1.5,1.19-.51,7.66-10.88,9.51-8.99,1.03,6.36-17.9,23.04-21.99,19.98,2.67-9.19,7.24-20.46,17.99-21.98Z"/>
  <path class="cls-56" d="M109,1037c1.98.49,14.29-9.74,14.99-9-4.37,10.92-14.13,20.52-25.99,21.99,1.72-5.74,4.26-9.51,8-13.99,2.11-3.46,4.02-3.24,3,1Z"/>
  <path class="cls-37" d="M174,681c.54.24,1.77-.08,2.91.55,2.17,1.22,12.17,10.01,12.07,11.95-.06,1.13-2.4,1.42-3.42,1.54-10.02,1.15-17.99-5.89-22.55-14.04,5.71-1.4,10.21,4.54,13.51,5.98,3.55,1.55-.03-3.51-2.51-4.99-.54-.3-.53-.64,0-1Z"/>
  <path class="cls-23" d="M143,1216c1.07,2.45,2.47,4.32,3.48,2.73-.23-2.37.27-3.28,1.52-2.73,2.25,4.59,3.94,8.02,5.53,12.99.43,1.33,1.03,1.18-1.03,1.03-10.06-.71-19.9-15.26-18.48-25.02,4.21,2.92,7.02,6.28,8.99,11Z"/>
  <path class="cls-22" d="M96,1321c.34,1.56-1.35,3.75,1.64,2.15,1.62-.87,10.52-6.99,11.35-6.14-2.78,9.88-13.5,16.35-22.49,20-.01-6.68,3.93-11.67,8.49-16.01h1Z"/>
  <path class="cls-89" d="M100,1174c-1.46,1.36-4.16,4.38-5.51,5.99-.67.8-2.64,2.02-.98,3.02,4.41-2.97,6.78-6.02,11.49-9.01,1.41-1.33,1.92-.77,1,1-.96,1.94-1.31,4.12-2.55,5.96-3.48,5.18-12.37,9.16-18.45,10.04.07-8.78,7.41-13.7,13.99-18,1.41-1.33,1.92-.77,1,1Z"/>
  <path class="cls-89" d="M161,1003c6.41,4.61,10.63,12.61,13,19.99-7.89-.18-16.46-8.89-18.22-16.27-.31-1.29-1.93-1.91.71-1.71l8.51,7.99c-.1-2.71-3.25-6.77-4.99-9-1.33-1.41-.77-1.92,1-1Z"/>
  <path class="cls-37" d="M151,1075c.57,3.55,3.82,3.88,3.91-.09l2.09,3.09c1.22,2.95,3.37,6.41,3.95,9.56,1.11,6.05-7.47-1.45-8.97-3.03-4.88-5.15-8.35-12.41-8.97-19.52,2.91,2.1,6.69,6.66,7.99,10Z"/>
  <path class="cls-89" d="M195,909c1.26,1.47,2.65,1.88,4.2,4.31,1.79,2.8,2.69,6.51,4.8,9.2.76,2.36-13.46-5.58-14.51-6.49-1.35-1.17-9.34-12.14-8.48-13.01,4.96-.29,9.27,8.99,11.51,9.99,2.07.92,1.26-1.36,1.49-1.99-1.29-2.1-1.45-3.1,1-2Z"/>
  <path class="cls-9" d="M180,958c3.29,4.11,5.86,9.61,5.99,14.99-10.56-1.51-15.6-13.41-15.98-22.99l5.53,7.95c1.23,1.18,1.98,6.54,2.48,7.04,2.91,2.95,1.3-5.04.99-6-.48-1.49-.45-1.76,1-1Z"/>
  <path class="cls-66" d="M190,645c-2.61-1.42-2.81.03-3,0-9.78-1.42-20.79-11.21-32-10.01.6-2.24,2.69-1.89,4.44-2.04,12.92-1.07,21.04,4.72,30.56,12.05Z"/>
  <path class="cls-89" d="M192,764c.37-2.38,1.04-3.04,2-2,2.37,2.42,4.62,3.8,5.99,7.51-2.64,2.22-6.1,1.04-8.9-.11l-17.09-11.39c4.86-3.09,16.44,6.1,18,5.99Z"/>
  <path class="cls-89" d="M143,938c1.55-.25,2.21.09,2,1-2.67,1.39-6.6,3.84-7,7,2.62-.48,2.69-.06,1,2-4.13,2.13-7.37,4.22-12.48,4.04-1.14-.04-3.34.47-2.51-1.52,2.12-5.08,13.81-10.74,18.99-12.51Z"/>
  <path class="cls-22" d="M132,1415c-1.79,7.89-7.08,19.31-14.99,21.99.03-4.31,1.71-8.16,2.99-11.99.81-1.9,2.06-4.71,3-2,.1,0,.8,1.51,1.98.6.6-.47,4.96-7.93,6.02-9.6,1.3-1.32,1.56-.77,1,1Z"/>
  <path class="cls-89" d="M136,1158c1.87.94,2.71.25,2.51-2.07l1.49.07c1.64,2.05,9.45,14.54,7.99,15.99-8.7-.42-12.43-9.81-15.99-16.5,1.8-1.7,2.92,1.69,3.99,2.51Z"/>
  <path class="cls-23" d="M104,1364l1.4.09c-.07,2.6,1.39,3.27,3.6,1.91,2.15-3.33,3.82-2.94,2,1-3.65,5.2-7.27,10.43-13.99,12-.07-6.47,3.14-10.65,6.99-15Z"/>
  <path class="cls-73" d="M146,1337c2.7,1.12,3.35-1.6.64-3.07l2.36.07c4.24,1.56,8.58,2.56,11,6.99-9.06,1.47-18.68,1.98-24-6.98,3.36.78,6.74,1.88,10,2.99Z"/>
  <path class="cls-27" d="M172,1438c14.61,5.73,2.39,10.28-7.39,5.9-2.4-1.07-3.97-3.34-6.6-3.91-.23-1.82,2.14-.87,3.22-.72,1.5.21,7.47,1.99,7.77,1.73.25-.21-.19-1.51,0-2-1.45-1.64-.45-1.98,3-1Z"/>
  <path class="cls-27" d="M144,545c4.09,1.87,8.13,3.78,11.72,6.78,3.16,2.63,3.35,3.69-1.33,4.15-5.27.51-6.85-.67-10.39-3.92-1.73-2.35-.47-2.26,2-2,.41-2.4-1.88-2.91-3-4-1.33-1.41-.77-1.92,1-1Z"/>
  <path class="cls-66" d="M145,917c1.85-1.46,2.5-.82,1,1-.19.35-1.68.78-2,1.5,1.53,1.32,5.34-.57,7-1.5,1.41-1.33,1.92-.77,1,1-4.11,6.33-8.1,8.23-16,7.99-.65-.55,4.8-7.43,5.45-8.06,1.56-1.51,2.64-1.32,3.54-1.93Z"/>
  <path class="cls-45" d="M134,403c-1.26,2.89-1.63,4.53-5,2l2.99-1.98c-6.5-5.26-11.11-9.07-18.79-12.76-1.36-.66-2.76.64-2.19-2.26,9.97.95,16.86,7.76,22.99,15Z"/>
  <path class="cls-11" d="M164,1408c3.83,2.41,7.28,4.44,9,8.99-4.9.21-8.13-1.59-12-3.99-1.68-2.21-.4-3.08,2-2,.18-.42-.13-1.38,0-2-1.67-1.32-1-2.01,1-1Z"/>
  <path class="cls-55" d="M164,573c-.69.53-1.32,1.61-2,2-4.18-3.57-10.86-6.87-16-9-.87-.28-.86-.62,0-1,8.6,1.64,11.11,3.05,18,8Z"/>
  <path class="cls-29" d="M194,762c-.54.53-1.34,1.95-2,2,.52-3.25-1.86-4.09-4.13-5.37l-14.87-4.62c8.89-2.89,15.16,2.05,20.99,7.99Z"/>
  <path class="cls-32" d="M150,1375c6.08,1.52,9.32,3.23,13,8.5-1.77.9-5.06-.06-7-.5-2.11-.63-2.08-1.25,0-2-1.29-3.26-5.2-3.89-8-5-.9-.97-.23-1.31,2-1Z"/>
  <path class="cls-30" d="M157,1078l-1.5-2.01c-.77,2.7-1.82,2.12-4.49,2.01-.22-.88.24-2.36,0-3,.28.72,1.96,3.3,2.99,1.99s-4.7-9.45-5.99-10.99c-1.33-1.41-.77-1.92,1-1,5.95,4.89,5.42,6.75,8,13Z"/>
  <path class="cls-45" d="M123,1423c-2,.05-1.95.19-3,2,2.05-6.14,3.64-11.35,9.51-14.99l-6.51,12.99Z"/>
  <path class="cls-3" d="M148,1216c-1.66,1.87-.2,6.21-4.06,3.55-1.32-.91-.64-2.82-.94-3.55l2.99,3c.37-3.21-2.05-7.53-3.99-10-1.33-1.41-.77-1.92,1-1,4.31,3.82,3.03,3.99,5,8Z"/>
  <path class="cls-17" d="M106,1036c.22-.26.07-1.48,1.03-2.43,2.63-2.58,7.26-5.11,10.97-5.56-2.15,3.61-8.22,4.4-9,8.99-.93-.23-.61-3.27-3-1Z"/>
  <path class="cls-48" d="M130,980c1.8-.4,2.47-.07,2,1-2.21.95-9.21,3.9-11,4-.16,0-1.94-1.52-3-1,4.62-2.25,7.07-3,12-4Z"/>
  <path class="cls-18" d="M195,909c-1.12.26-.75,1.3-1,2l-8-8.99c5.29-.3,6.67,4.27,9,6.99Z"/>
  <path class="cls-6" d="M104,1364c2.17-2.44,4.17-5.93,8-5.99-.86,2.11-10.63,9.14-3,7.99-1.71,2.75-4.37.8-5-2Z"/>
  <path class="cls-52" d="M148,941c-1.59,1.38-2.9,3.92-5.06,5.47-1.52,1.09-2.86.97-3.94,1.53-.18-.57-1.05-1.62-1-2,3.24-1.07,5.98-3.3,9-5h1Z"/>
  <path class="cls-81" d="M163,1411c-.3.68-1.45,1.38-2,2-1.3-.81-9.46-6.41-7.99-8l9.99,6Z"/>
  <path class="cls-53" d="M95,1321c2.67-2.54,5.7-5.77,9.5-6.02,1.11-.08,1.75-.29,1.49,1.01l-9.99,5.01h-1Z"/>
  <path class="cls-31" d="M156,1381c.18.45-.12,1.39,0,2-3.33-.77-8.06-1.98-10-4.99l10,2.99Z"/>
  <path class="cls-82" d="M172,1438c-1.38-.08-2.45-.37-3,1l-8-2.99c4.31-.64,7.22.51,11,1.99Z"/>
  <path class="cls-49" d="M114,1362c-1.05,1.9-1.72,3.17-3,5,.25-3.67-.66-1.2-2-1,.32-.51.21-1.67.96-2.53,1.02-1.17,2.17-1.64,3.04-2.47,1.41-1.33,1.92-.77,1,1Z"/>
  <path class="cls-12" d="M149,1334l-.66.45.66,3.54c-1.68.67-2.37-.78-3-.99,1.88.55,3.17-.88,1.4-2.07s-6.21-1.87-8.4-1.94c1.13-3.37,7.35.04,10,1.01Z"/>
  <path class="cls-34" d="M140,1156c-1.62,2.71-.71,4.5-4,2,5.16.47-1.45-5.58-1-5.99,2.53-.27,3.73,2.4,5,3.99Z"/>
  <path class="cls-47" d="M99,1173c1.51-.98,2.71-3.85,6-2.99-.76,2.08-3.55,2.65-5,3.99l-1-1Z"/>
  <path class="cls-65" d="M145,917c1.57-1.07,2.7-3.8,6-2.99l-5,3.99c.26-.46-.32-1.16-1-1Z"/>
  <path class="cls-81" d="M164,1408c-.45.14-.91.55-1,1l-5-3.99c2.52-.2,4.16,1.83,6,2.99Z"/>
  <path class="cls-15" d="M146,550c-.11.63-1.48,1.46-2,2-1.3-1.19-3.53-1.75-2.99-3.99l4.99,1.99Z"/>
  <path class="cls-7" d="M143,1208l-1,1c-.83-1.05-3.66-2.07-4-3.99,2.52-.45,3.53,1.69,5,2.99Z"/>
  <path class="cls-90" d="M174,681v1c-1.94-1.15-4-1.6-6.01-2.5,2.43-2.06,4.46.81,6.01,1.5Z"/>
  <path class="cls-57" d="M149,1065l-1,1c-.92-1.1-3.61-2.05-4-3.99,2.01-.26,3.45,1.72,5,2.99Z"/>
  <path class="cls-28" d="M142,1097l-2,1c-.77-.87-2.82-1.4-3-2.99,2.05-.29,3.41,1.12,5,1.99Z"/>
  <path class="cls-20" d="M146,565v1c-1.14-.47-5.02-.72-5.01-1.5,1.39-1.87,4.09.32,5.01.5Z"/>
  <path class="cls-71" d="M150,1375l-2,1c-1.31-.52-2.53-1.1-3.99-1.01v-.98c2.54-.83,4.29.56,5.99.99Z"/>
  <path class="cls-85" d="M110,1231l-1-2c.86-.8,1.41-2.8,2.99-3,.3,2.06-1.14,3.41-1.99,5Z"/>
  <path class="cls-1" d="M177,955c-1.17-1.2-3.57-1.63-2.99-4,2.29.48,2.3,2.63,2.99,4Z"/>
  <polygon class="cls-10" points="111.99 1279.01 112 1279.99 107.01 1281 107 1279.01 111.99 1279.01"/>
  <path class="cls-26" d="M144,545l-1,1c-.89-.86-2.77-1.41-3-2.99,1.99-.66,2.86,1.47,4,1.99Z"/>
  <path class="cls-50" d="M147,937c1.3-.28,1.6-.32,1,1-.92.38-1.93.44-3,1l-2-1c1.83-.62,2.24-.64,4-1Z"/>
  <path class="cls-75" d="M151,918c.67-.38.89-2.76,2.99-1.99.73,2.13-1.51,2.25-1.99,2.99l-1-1Z"/>
  <path class="cls-54" d="M114,1362l-1-1c.86-.82,1.41-2.8,2.99-3,.59,2-1.31,2.77-1.99,4Z"/>
  <path class="cls-25" d="M180,958l-1,1c-.07-.21-1.63-3.27-2-4,1.06,1.09,1.79,1.5,3,3Z"/>
  <path class="cls-58" d="M161,1003l-1,1c-.62-.79-2.88-1.42-3-2.99,1.92-.46,2.71,1.06,4,1.99Z"/>
  <path class="cls-5" d="M130,980c1.16-.24,2.98-1.91,5-.99.33,1.21-1.63,1.41-3,1.99l-2-1Z"/>
  <path class="cls-4" d="M147,937c1.17-.24,2.99-1.91,5-.99v.98c-1.46-.08-2.69.48-4,1.01l-1-1Z"/>
  <path class="cls-16" d="M147,941c1.02-.57,1.84-2.33,3.49-2.01,1.56,1.32-2.32,1.86-2.49,2.01h-1Z"/>
  <path class="cls-43" d="M105,1174c.75-.47.89-2.74,3-1.99.45.36-1.74,2.47-2,2.99l-1-1Z"/>
  <path class="cls-76" d="M183,860v2c-.44-.39-3.03-.19-3-1.99.96-.14,2.12.17,3,0Z"/>
  <path class="cls-58" d="M105,1120c1-.02,2,0,2.99.01.34,1.7-2.67,1.27-3.99,1.99l1-2Z"/>
  <path class="cls-79" d="M132,1415l-1-1c.81-1.28.57-3.34,1.99-3,.85,1.82-.81,3.22-.99,4Z"/>
  <path class="cls-41" d="M138.99,664.99l1.01,4c-6.36.76-14.26,7.06-19.02,11.49-2.11,1.97-7.08,5.67-5.49,8.51,1.97-2.63,22.68-19.92,24.49-17.99.24.25.73,3.92.48,4.92-.62,2.51-9.35,14.99-11.49,17.55-7.33,8.78-19.8,18.89-31,21.08-2.37-1.61,1.91-16.19,2.98-19.1,6.02-16.22,20.89-28.22,38.03-30.47Z"/>
  <path class="cls-41" d="M97,512c1.64-.87,2.57-1.03,2,1-6.1,8.95-12.75,18.69-12.99,30,2.38.4,1.9-.24,2.46-1.98,1.07-3.33,1.41-6.75,2.77-10.28,1.1-2.86,10.59-19.6,12.26-19.72s1.58,4.38,1.56,5.5c-.2,11.76-10.58,40.04-21.73,45.31-4.67,2.21-5.26.59-6.64-4.02-5.25-17.48,5.45-36.76,20.31-45.81Z"/>
  <path class="cls-19" d="M86,390c2.66.32,2.54,1.24,0,2-.71,1.16.63,1.49,4,1-2.08,9.98-11.26,22.97-21.74,24.76-4.61.79-9.63.05-14.26,1.23.2-13.24,17.67-28.44,30.04-29.6,1.47-.14,1.75.58,1.96.61Z"/>
  <path class="cls-41" d="M147,852c1.86-.32,2.86.01,3,1-2.74,1.16-6.87,4.24-9,6.5,2.65,1.65,13.72-6.93,14.99-5.5-.65,16.21-20.03,25-33.99,26.99,2.88-13.27,11.62-25,25-28.99Z"/>
  <path class="cls-19" d="M89,447.99c-4.51,1.45-18.47,12.98-19.99,16.53-.51,1.18.29,1.99,1.48,1.48,1.83-.78,17.33-18.02,19.51-15.98-5.06,14.74-14.85,28.07-31,30.98,1.36-4.31,1.66-9.03,3.22-13.27,3.04-8.27,15.74-20.79,24.71-21.33,1.21-.07,1.88.4,2.07,1.59Z"/>
  <path class="cls-19" d="M148,732c-1.27,15.76-14.72,27.72-29.49,31.01-1.14,0-.35-2.17-.05-3.05,3.27-9.48,11.99-21.68,20.53-26.97,1.9-.6,2.56-.26,2,1l.55,1.12c2.61-3.34,4.76-4.38,6.45-3.12Z"/>
  <path class="cls-59" d="M127.99,618.01l-20.98,9.5c-.4,2.05.83,1.71,2.3,1.3,6.38-1.81,13.6-6.94,20.69-7.8-4.33,5.42-9.59,10.41-15.67,13.82-6.92,3.88-12.38,5.27-20.33,4.16,3.49-9.26,11.89-16.02,21.01-19.48,4.06-1.54,8.71-3.33,12.98-1.5Z"/>
  <path class="cls-56" d="M89,354c1.8-.41,2.47-.08,2,1-2.34.78-11.11,7.45-11.99,9.51-.51,1.18.3,1.99,1.48,1.48,1.56-.68,11.09-10.41,12.51-8.99-3.3,11.87-14.84,20.51-26.99,20.99-.4-12.09,12.44-21.48,22.99-24Z"/>
  <path class="cls-23" d="M158,802c-3.87,2.28-4.87,3.62-3,4,1.86-1.16,1.5.33,1,2-5.36,8.45-11.8,16.47-21.99,18.99-1.31-8.47,15.45-31.9,23.99-24.99Z"/>
  <path class="cls-66" d="M121,594c-3.11,8.1-4.78,14.34-15,15.99-1.81-1.76,6.68-16.05,9.99-16.99l-.5,4.99c1.73-1.46,3.03-3.32,4.51-4.99,1.41-1.33,1.92-.77,1,1Z"/>
  <path class="cls-36" d="M91,392l-1,1-28.99,19.99c-1.15-1.12,4.57-6.11,5.52-6.97,3.43-3.12,15.67-12.38,19.47-14.03.75-1.94,3.63-1.51,5,0Z"/>
  <path class="cls-33" d="M154,762c-.48,5.87-10.25,12.34-16,11.99-.7-.63,2.36-5.89,3-6.99,1.59-1.38,2.16-.81,1,1,2.02-.09,4.05-1.57,6.08-4.45,2.72-2.73,4.69-3.25,5.92-1.55Z"/>
  <path class="cls-68" d="M144,731c1.28-.39,2.53-1.13,3.99-1-.01.66.06,1.34,0,2-4.87-.17-12.53,14.7-13.5,15.02-1.09.37-3.19.31-2.49-1.5.77-2.02,7.11-9.57,8.99-11.52.05-1.05,1.05-2.05,3-3Z"/>
  <path class="cls-69" d="M158,802c1.83,1.48.23,1.21,0,2-.92,1.66-1.92,2.33-3,2-4.67,2.81-5.74,4.05-8.51,8.99-2.04.41-1.74-.86-1.31-2.31,1.42-4.82,7.54-10.56,12.82-10.68Z"/>
  <path class="cls-67" d="M154,762c-4.57-.31-7.79,6.85-10.51,7.99-2.08.87-1.28-1.27-1.49-1.99,1.05-4.14,6.36-9.33,11-9,1.12,1.08,1.13,1.47,1,3Z"/>
  <path class="cls-21" d="M153,759c-4.44,2.35-8.08,4.81-11,9-.13-.45-.55-.84-1-1,1.73-3.02,7.99-11.86,12-8Z"/>
  <path class="cls-88" d="M147,852c3.51-1.05,6.51-1.15,9.99-2,.72,3.29-5.13,2.21-6.99,3l-3-1Z"/>
  <path class="cls-77" d="M89,354c1.28-.31,2.84-1.85,5-.99v1.99c-.91.18-2.28-.23-3,0l-2-1Z"/>
  <path class="cls-82" d="M91,392c-1.62-.59-3.4-.69-5,0v-2c1.54.2,4.79-.41,5,2Z"/>
  <path class="cls-61" d="M144,731c-.41,1.67-2.15,2.13-3,3l-2-1c2.1-1.3,2.83-1.33,5-2Z"/>
  <path class="cls-40" d="M97,512c1.26-.77,2-2.54,4-1.99.41.32-1.64,2.47-2,2.99l-2-1Z"/>
  <path class="cls-7" d="M121,594l-1-1c.86-.97,1.44-2.73,2.99-3,.71,1.96-1.59,2.96-1.99,4Z"/>
  <path class="cls-2" d="M156,808l-1-2c.9-.54,1.69-1.79,3-2-.69,2.34-.87,2.23-2,4Z"/>
  <path class="cls-19" d="M127,318.01c1.68-1.6,12.61,12.16,14.51,12.98,1.18.51,1.99-.29,1.48-1.48-1.27-2.95-12.12-11.38-13.99-15.5,11.16-.04,26.61,11.96,28.79,22.73.75,3.7.46,4.85-3.25,5.31-13.63,1.69-24.24-12.32-27.54-24.05Z"/>
</svg>