<?xml version="1.0" encoding="UTF-8"?>
<svg id="Lager_1" data-name="Lager 1" xmlns="http://www.w3.org/2000/svg" viewBox="0 0 2560 1600">
  <defs>
    <style>
      .cls-1 {
        fill: #88a875;
      }

      .cls-2 {
        fill: #667f59;
      }

      .cls-3 {
        fill: #88a976;
      }

      .cls-4 {
        fill: #7f9d6e;
      }

      .cls-5 {
        fill: #3e4d36;
      }

      .cls-6 {
        fill: #5e7552;
      }

      .cls-7 {
        fill: #86a774;
      }

      .cls-8 {
        fill: #5b714f;
      }

      .cls-9 {
        fill: #556949;
      }

      .cls-10 {
        fill: #6f8a60;
      }

      .cls-11 {
        fill: #8cae79;
      }

      .cls-12 {
        fill: #7a986a;
      }

      .cls-13 {
        fill: #2f4f3a;
      }

      .cls-14 {
        fill: #8bac78;
      }

      .cls-15 {
        fill: #8bad79;
      }

      .cls-16 {
        fill: #85a573;
      }

      .cls-17 {
        fill: #6a845c;
      }

      .cls-18 {
        fill: #000100;
      }

      .cls-19 {
        fill: #708b61;
      }

      .cls-20 {
        fill: #85a673;
      }

      .cls-21 {
        fill: #8aab77;
      }

      .cls-22 {
        fill: #86a674;
      }

      .cls-23 {
        fill: #4b5d41;
      }

      .cls-24 {
        fill: #89aa76;
      }

      .cls-25 {
        fill: #708c61;
      }

      .cls-26 {
        fill: #6a835b;
      }

      .cls-27 {
        fill: #87a875;
      }

      .cls-28 {
        fill: #576b4b;
      }

      .cls-29 {
        fill: #1f251a;
      }
    </style>
  </defs>
  <path class="cls-13" d="M2418,237c-2.18,37.54,4.42,81.55,11.01,120.71,7.74,28.55,2.88,58.57-11.77,83.92l-11.36,22.95c-5.44,10.75-9.9,21.37-13.47,32.5-4.76,28.11-5.83,55.22-3.39,84.17-2.12,34.45,4.61,69.22,19.44,100.16l17.17,33.74c1.96,7.76,3.63,15.59,5.02,23.48,1.04,24.16,1.49,48.38,1.36,72.64-2.43,10.34-3.29,21.04-2.6,32.08-5.35,29.3-10.67,58.89-13.46,88.71-1.97,21.12,2.31,37.19,9.53,56.09,7.32,15.46,14.52,31.41,17.6,48.46,2.75,33.45,2.39,66.77-.04,99.83-.35.74-.95,1.31-1.76,1.48-3.91.84-8.91-18.52-9.38-21.96-.53-14.1-1.16-28.74-2.52-42.94-2.69-28.16-5.89-54.05-21.24-78.81-12.52-28.45-10.31-59.63-7.19-89.62.06-.58-.31-1.21-.8-1.85,2.55-14.99,5.4-30.01,8.55-45.07,5.32-23.11,6.42-50.48,6.23-74.66-.01-1.65-.54-3.29-1.23-4.93.46-16.42-.26-32.82-2.16-49.2-11.84-24.06-22.35-48.58-31.54-73.57-4.72-22.53-8.61-45.13-9.02-68.1-.9-26.14-1.78-51.72,1.76-77.6,3.88-28.35,16.4-53.13,29.88-77.82,2.9-4.9,4.63-9.91,5.21-15.03,7.99-15.89,7.58-33.85,5.46-51.24-9.79-40.99-12.25-83.72-12.48-126.17l-.83-1.37c3.01-11.21,14.23-10.97,18-1Z"/>
  <path class="cls-18" d="M2418,237c2.16,5.71.63,14.02,1.01,20.49,1.04,17.55,2.04,35.54,4,53,1.78,15.89,5.16,31.75,7.46,47.57l.98.69c13.36-4.79,27.72,1.55,37.59,10.71,1.06.99,9.65,10.33,10.02,10.98,3.66,6.46-.69,7.84-6.5,7.59-14.97-.65-28.89-10.44-39.54-20.03.03,9.17,1.64,18.14.86,27.37-1.08,12.81-5.73,24.95-10.85,36.56,6.88,2.32,14.14,11.47,15.01,18.54.35,2.86.88,16.06-2.51,16.32-4.21.32-11.12-13.56-12.69-17.11-.72-1.62-2.34-10.73-4.34-7.7l-11.48,24.01c8.63-.98,18.43,21.92,16.92,27.38-.46,1.68-1.52,1.55-2.96,1.2-6.5-1.56-15.85-15.85-15.97-22.57-1.73,1.02-7.13,10.68-6.94,11.43.23.89,2.21,1.35,2.96,2.34,4.42,5.84,7.25,10.67,7.99,18.22-3.34.55-5.6-1.56-8.03-3.46l-5.95-9.53c-2.98,11.45-3.11,22.68-4.07,34.43,10.06,2.59,21.56,10.83,19.05,22.57-1.68,1.65-14.68-6.21-16.5-8-2.14-2.11-1.65-5.45-4.49-5-.47,7.44.19,14.68.99,21.99l1,5c-.06,2.14-1.8,6.36-.85,7.86.25.39,6.33,2.94,8.18,4.31,6.76,5.01,12.7,14.25,12.67,22.83-5.73.6-10.79-1.8-14.99-5.51l-6-8.48c-1.49,18.52,2.03,35.8,3.98,54,11.05-2.48,31.21,13.87,30.99,24.56-.01.6-.04.98-.41,1.48-2.93,4.02-17.24-4.39-20.51-6.61-1.83-1.24-3.83-5.24-6.06-3.94,4,9.14,7.17,18.63,11.28,27.72,4.91,10.85,12.22,21.76,16.74,32.26,3.47,8.05,3.02,14.95,3.98,23.52,20.12-1.31,39.41,14.05,40.89,34.66.32,4.54-.59,5.98-5.58,6.02-2.1.02-10.82-4.22-12.99-5.49-4.91-2.88-12.85-9.26-16.32-13.68-1.67-2.14-2.01-5.17-3.99-6.49,1.65,16.37.84,32.88.94,49.34,10.15,3.61,21.9,14.14,21.04,25.65-9.38-.9-16.85-3.57-20.99-12.51-.67-.93-1.71.56-1.87,1.15-1.64,6.03.51,19.6-1.17,26.7,8.95,4.08,18.28,9.51,16.01,21.14-2.01,10.27-14.59-7.8-16.96-10.47l-9.76,58.54c.4,2.35,7.58,1.2,10.02,1.68,6.67,1.32,10.56,10.11,11.62,16.19-7.57,5.17-16.29-2.35-21.88-7.42-2.58,14.85-3.35,30.34.47,45.05l.97.71c14.2-4.39,30,8.31,31.49,22.19-10.96,2.42-21.42-1.96-28.94-9.95,2.67,9.82,8.53,18.62,12.47,28.02,1.25,2.96,3.72,14.04,6.18,14.82s6.72,0,10.21.79c5.75,1.31,11.98,7.82,13.66,13.34s-.99,3.49-1.53,4.02q-2.97-2.44,0,0c-.12.12.45,1.72-.66,2.02-5.15,1.4-14.14-2.93-18.33-6.02l.98,51.99c10.77,1.54,26.02,9.74,23.11,22.41-5.17,2.39-14.73-2-18.12-5.89-1.84-2.11-2.55-6.04-4.98-7.51.74,4.3-.85,8.42-1.05,12.45-.28,5.69,1.32,25.23-1.45,28.54-5.37,6.41-10.7-11.74-11-15-2.33,4.01-3.89,7.37-7.49,10.51-1.59,1.38-10.29,6.53-11.52,6.47-1.87-.1-1.57-4.95-1.41-6.38.97-8.76,10.69-17.23,18.98-19.16l-3.07-42.43-5.48,8c-2.84,2.78-14.18,13.83-15.52,5.43-1.49-9.38,10.81-22.73,20.02-23.45l-3.01-23.99c-1.93-.47-1.92.71-2.81,1.68-6.7,7.36-13.63,14.04-23.19,17.81-3.38,1.33-16.08,4.36-16.65-.98-.11-1.06,1.5-4.33,2.11-5.57,6.51-13.12,24.35-19.81,37.6-23.53.66-4.63-12.01-27.04-14.55-33.44-6.77-17.06-9.57-35.59-9.53-53.98l-5.5,6.98c-8.91,8.56-43.41,24.2-26.31-.31,7.43-10.65,21.61-18.72,33.88-22.29l.93-21.39c-6.71,6.38-12.82,12.24-22.99,11-1.92-12.45,13.42-19.84,24.01-19-.72-9.74,3.55-18.61,4.98-28-7.2,7.98-38.01,13.43-19-2.51,6.17-5.18,13.22-7.28,21.13-8.06,3.3-10.54,2.13-21.32,2.89-31.92.86-11.94,2.45-24.02,3.04-35.96.05-1.08.81-8.71-1.53-7.54-.93.47-9.64,14.28-12.12,16.89-5.26,5.53-18.98,16.57-26.87,15.12-5.51-1.01.89-11.14,2.67-14.32,7.81-13.99,19.6-26.77,36.37-28.63,1.99-2.77-1.12-21.01-1.56-25.58s.29-8.77-.46-13.54c-1.44-9.2-8.45-15.99-10.56-24.94l-6.47,15.01c-.29,4.09-15.94,19.01-17.56,12.31-3.22-13.3,8.24-31.34,18.79-38.81-5.95-12.37-11.93-25.1-14.76-38.52-5.55,3.46-8.75,9.57-14.93,12.55-12.41,5.99-8.73-9.04-3.47-15.46,4.06-4.97,9.4-7.04,14.31-10.76l-3.91-27.32-4.58,8.91c-1.41,3.59-19.86,17.85-21.46,11.42-2.3-9.23,15.81-28.26,25.11-29.94-2.18-18.06.17-36.37-2.07-54.38l-5.96,10.52c-3.74,3.55-7.23,8.42-13.02,8.47-1.12-10.14.97-17.32,7.48-25.01,2.25-2.65,10.85-8.65,11.29-9.71,2.57-6.13.67-18.32,3.21-25.28-3.69,3-6.22,6.93-9.99,10-2.58,1.11-3.04-.18-1-2-.2-2.41,1.09-4.77,3.86-7.07-1.72,1.24-3.76.68-4.76-1.13-3.85,4.45-7.22,9.19-10.09,14.2,2.18-.22,3.12-.31,2,2-7.89,2.26-3.63-8.11-1.43-11.93,3.32-5.77,12.28-14.11,18.42-16.58,1.51-.61,4.04-.22,5.06-.94.94-.67,4.24-18.59,5.94-21.55-4.15,1.41-7.24,5.67-11.96,4.97-2.01-12.31,10.85-18.93,20.43-23.01,4.24-12.29,15.47-26.23,18.52-38.48.14-.55.29-1.63-.48-1.47-8.33,8.51-20.26,16.05-31.74,19.26-5.6,1.56-17.06,5.65-13.48-3.47,5.08-12.94,25.78-25.19,39.27-25.82,2.4-.11,9.12,1.92,9.49,1.62,3.02-2.39,2.47-19.41,3.95-23.58l-7.64,6.85c-8.74,4.62-24.32,5.78-14.59-7.58,4.96-6.81,12.82-10.01,21.23-9.27-1.8-20.35-8.29-40.16-9.99-60.51-1.89-22.6-3.2-48.23-4.07-70.98-.11-3,.48-3.35,1.06-5.51,3.03-.56,1.92,1.53,2,3.45,1.18,25.57,1.89,51.56,4.01,77.03,1.57,18.83,8.79,38.97,10.03,57.97,3.02,46.53-29.59,76.04-38.79,119.3-10.42,49.01-7.67,131.6,11.26,179.22,7.21,18.13,17.35,35.35,24.4,53.6,3.49,36.2,3.82,72.63,1.08,108.9-1.51,19.91-8.9,37.98-10.98,57.02-2.65,24.28-5.06,58.19.26,81.71,3.49,15.41,12.16,27.97,17.9,42.1,11.38,28.04,8.66,69.01,12.94,99.06.19,1.36,4.45,22.71,7.88,18.61-.11-5.68,1.04-10.78,1.05-16.55.07-38.53,4.85-73.45-9.56-110.43-9.86-25.3-21.1-40.8-19.47-70.51,1.32-24.09,5.54-47.57,9.86-71.14,7.63-41.58,9.19-101.02,3.05-142.79-1.57-10.66-8-18.31-12.44-27.56-7.42-15.45-16.37-33.76-20.74-50.26-8.43-31.81-5.75-65.88-7.73-98.27-.6-9.92,1.86-29.36,3-39.97,3.53-32.65,29.07-63.35,38.7-95.3,7.74-25.7,1.14-45.03-2.55-69.88-4.64-31.24-10.39-71.65-9.17-102.88.08-1.93-1.03-4.01,2-3.45Z"/>
  <path class="cls-29" d="M2362,520c-3.1,2.52-5.89,4.82-10,6-.49-.54-1.89-1.44-2-2,1.43-3.33,7.51-6.86,11-6l1,2Z"/>
  <path class="cls-11" d="M2468,774c-3.17,3.12-24.51-11.93-27.65-15.36-1.63-1.78-9.25-14.57-8.34-15.65,4.35,2.77,9.1,5.19,13.32,8.17,2.73,1.93,5.24,6.8,8.67,5.33-5.95-7.6-15.01-11.12-21.99-17.49,18.22-1.85,38.01,16.27,36,34.99Z"/>
  <path class="cls-11" d="M2435,365.01c7.9-.15,13.89,5.96,21,7.98-4.69-7.05-14.25-9.17-22-11,.41-2.04,2.09-1.65,3.51-1.97,9.28-2.14,21.59,4.28,28.5,10.47,1.5,1.34,11.95,12.13,11.97,13.01.09,4.19-18.68-1.15-20.97-2.01-8.17-3.09-16.59-9.68-22.01-16.48Z"/>
  <path class="cls-11" d="M2412.99,774.01l-8.35,3.14c-2.3,2.31-7.96,6.02-7.66,9.34s2.76-1.73,2.98-1.97c2.69-2.81,6.68-7.21,11.02-6.03-8.77,13.94-19.96,28.84-36.99,32.5,5.42-16.09,19.6-38.07,38.99-36.99Z"/>
  <path class="cls-15" d="M2404,416c-2.55,2.01-4.78,4.84-7.67,6.83-9.73,6.69-21.5,11.83-33.32,13.16,2.8-9.08,9.91-15.15,17.98-19.51,6.91-3.74,18.66-9.18,26.01-4.98-5.62,1.25-20.85,4.27-24.52,8.47-1.07,1.22-.74,2.51,1,2.01,2.77-.79,7.48-3.85,10.98-5.02,2.84-.95,5.64-1.36,8.54-1.97,1.49-.49,1.77-.45,1,1Z"/>
  <path class="cls-15" d="M2422,1031.01c-3.7,3.24-9.01,4.66-13.31,7.18-1.68.99-8.16,5.06-8.69,6.32-.74,1.77.63,1.72,2.08,1.08,2.66-1.19,15.76-11.58,17.91-9.58.43,1.88-1.06,2.37-1.99,3.5-5.8,7.04-21.19,18.06-30.51,17.58-6.14-.31-1.44-6.06,1-9.09,7.37-9.14,22.01-15.92,33.51-16.98Z"/>
  <path class="cls-15" d="M2390,931c1.48-.92,1.96-.57,1,1-2.36,1.83-10.62,9.12-11.03,11.48-.32,1.84,1.26,2.18,2.01,1.51.14-.12.25-1.69.99-2.47,4.27-4.49,9.01-9.4,15.03-11.51-2.77,5.4-4.39,10.3-8.99,14.5-3.77,3.44-21.54,14.77-26.01,11.48,4.25-12.77,15.04-20.94,27-25.99Z"/>
  <path class="cls-14" d="M2397,698.01c-2.72,6.1-9.1,11.04-10.82,17.68-.48,1.86.33,3.74,1.81,2.31.41-.4,3.9-8.31,5.21-10.3.91-1.39,2.4-4,3.8-4.69-2.86,10.53-7.13,25.91-18.98,28.99-.3-6.84,1.7-13.62,4.83-19.66,1.2-2.32,11.25-16.98,14.16-14.33Z"/>
  <path class="cls-14" d="M2449,986.99c-10.76.54-21.1-4.25-25.99-13.98.65-.55,7.36,3.08,8.69,3.79.55.29,9.17,7.19,7.3,2.71l-15.99-10.5c12.09-2.07,22.61,6.8,25.99,17.98Z"/>
  <path class="cls-21" d="M2422,660.99c-3.56,3.17-25.38-11.73-24.99-17.99.95-1.13,14.66,10.73,15.99,11.5,1.2.69,3.41,1.45,2.99-.98l-17.99-13.5c10.41,1.41,22.05,10.2,24,20.98Z"/>
  <path class="cls-21" d="M2350,524c-1.3-6.41,11.57-19.63,16.94-22.55.87-.47,4.86-2.83,5.05-.46-3.95,1.23-10.22,4.22-9.98,9.01.88,1.11,8.61-8.13,10.98-6.5-3.62,4.47-7.6,10.85-11.99,14.51-3.17,2.63-7.1,4.65-11,6Z"/>
  <path class="cls-20" d="M2426,437c6.63,5.35,9.96,10.64,10.09,19.5.01.98-.25,7.66-2.58,6.49-2.95-1.48-11.82-19.53-10.5-23.99,3.19,2.08,4.29,7.32,6.52,9.98,1.29,1.54,2.44.03,2.45-.47.02-1.36-5.34-8.37-5.98-10.51v-1Z"/>
  <path class="cls-3" d="M2464,1040c-2.26,1.72-22.1-5.8-20.99-12,1.24-1.49,10.62,6.61,11.5,6.99,3.37,1.46-.2-4.6-2.19-4.82l-10.32-6.17c11.37-.37,18.99,5.09,22,15.99Z"/>
  <path class="cls-21" d="M2412.99,378.01l-12.98,6.49c1.67,2.33,1.67.91,3.29.33,2.55-.91,4.66-3.18,7.68-2.82-3.25,8.15-11.68,11.06-19.99,9.99,2.47-9.91,12.03-15.45,21.99-13.98Z"/>
  <path class="cls-3" d="M2364.01,661.99c1.63,1.67,5.22-4.76,6-5.49,4.45-4.19,10.89-7.67,3.97.97-3.78,4.72-8.82,8.37-14.49,10.51-4.28-7,12.02-22.71,16.99-21.99.35.05,1.69,1.14,1.04,2.01-.88,1.17-16.37,11.07-13.51,13.99Z"/>
  <path class="cls-21" d="M2363,614c-2.32,2.62-5.27,6.48-5.99,9.99,1.61,1.66,7.58-9.21,9.51-9.99s1.58,1.27,1.29,2.29c-1.66,5.92-7.71,11.93-12.89,15.11-4.14,2.54-7.73,5.03-5.44-2.44,1.43-4.68,9.55-12.75,13.53-15.97.46.31.45.64,0,1Z"/>
  <path class="cls-24" d="M2366,543c-3.17,3.9-9.07,10.26-8.5,14.99l8.49-9.99c-.44,8.17-6.85,15.49-13.98,19-.81-11.37,5.04-18.12,12.99-25,1.41-1.33,1.92-.77,1,1Z"/>
  <path class="cls-27" d="M2466.99,1109c-8.77-.98-15.51-5.13-17.98-13.99,1.89-2.03,9.82,11.48,12.99,8.5l-9.99-10.49c7.66,1.13,15.9,7.47,14.99,15.99Z"/>
  <path class="cls-3" d="M2421,1069l-4.99,6.99,10.49-8c-2.76,8-9.41,15.08-17.49,18,1.03-8.58,4.45-12.9,11-17.99,1.4-1.32,1.92-.76,1,1Z"/>
  <path class="cls-7" d="M2451.99,823c-8.99-.53-16.49-5.84-17.98-15,3.92,2.15,7.02,7.73,10.49,10,1.3.85,2.54.69,2.48-.5-.04-.71-5.34-6.47-6.46-7.52-2.32-2.2-5.57-3.59-7.52-5.97,5.67-2.26,20.82,17.11,18.99,18.99Z"/>
  <path class="cls-1" d="M2396,576c6.08,4.74,11.54,11.01,11.99,19-7.87-2.24-14.91-8.59-15.98-17,.16-.21,3.94,2.49,4.48,3.01.47.45,6.73,9.44,6.49,4.5-.08-1.54-6.41-7.11-7.98-8.5-1.33-1.41-.77-1.92,1-1Z"/>
  <path class="cls-3" d="M2438,926.99c-7.26,1.33-13.12-3.39-17-8.98,3.34-.47,5.57,2.19,8,3.49,1.58.84,2.31.99,1.99-.99l-8.98-5.5c8.44-2.15,14.59,4.04,15.99,11.98Z"/>
  <path class="cls-16" d="M2426,1120.01c.74.67-8.55,7.64-6.99,8.98,2.31,1.99,6.66-6.83,9.5-6.99,2.39,4.47-11.92,15.64-13.5,13.99-.41-6.45,4.52-14.27,10.99-15.99Z"/>
  <path class="cls-22" d="M2394,865c.15.64-.49,2.06.52,2.02,3.27-1.27,5.87-2.86,9.43-3.58,1.02-.21,3.29-1.3,3.04.55-7.47,3.33-14.12,9.49-22.99,8.01-2.13-1.86,7.95-7.41,8.99-7.99,1.58-.63,1.86-.59,1,1Z"/>
  <path class="cls-3" d="M2442.99,861.99c-1.26,1.42-10.34-8.95-10.98-10.51-.25-.59-.18-1.69.48-1.48l4.5,1.99-3.99-4.98c7.76.57,11.25,7.79,9.99,14.99Z"/>
  <path class="cls-4" d="M2420.99,490.99c-2.1,2.24-9.46-9.07-10.16-10.32-.91-1.61-3.21-4.85-2.34-6.66,3.58,1.9,5.25,8.54,7.48,10.52,1.21,1.07,2.49.76,2.01-1-1.25-4.52-7.56-9.79-8.97-14.52,4.43.99,13.77,20.1,11.99,21.99Z"/>
  <path class="cls-7" d="M2386,904c-.03.25-2.37,4.27.49,2.99,1.2-.54,8.79-7.43,10.51-5.98.1,4.55-16.43,12.58-17.99,10.99-.37-4.35,3.1-6.64,5.99-9,1.73-1.45,2.27-.9,1,1Z"/>
  <path class="cls-16" d="M2403,535c2.83,2.9,5.08,5.62,4.99,10-6.37-2.34-14.2-5.95-15.99-12.99,1.65-1.54,8.34,6.47,9.51,6.98,2.84,1.23.54-2.69.49-2.99-1.3-1.88-.75-2.44,1-1Z"/>
  <path class="cls-12" d="M2374,470c-.52.96-.08,2.66,1.49,1.99,1.89-.81,5.19-6.27,8.51-5.99,1.91,1.86-10.75,10.39-12.52,10.98-2.46.82-.95-.86-.72-1.72.93-3.47,1.81-3.25,3.24-5.27Z"/>
  <path class="cls-25" d="M2393,864c4.82-2.69,9.09-5.09,14.99-4.99.49,3.08-.8,1.59-2.5,1.96-4.25.92-7.7,1.51-11.49,4.04-.1-.44-.56-.84-1-1Z"/>
  <path class="cls-6" d="M2374,470c.3-.43.21-1.71.95-2.52,2.88-3.14,7.81-5.84,12.05-6.48-2.64,2.8-11.17,5.65-13,8.99Z"/>
  <path class="cls-19" d="M2385,903c3.16-2.57,6.59-5.45,11-4.99l-10,5.99c.06-.49-.38-1.18-1-1Z"/>
  <path class="cls-26" d="M2403,535c-.61-.19-1.08.55-1,1l-7-5.99c3.24.27,5.9,2.84,8,4.99Z"/>
  <path class="cls-12" d="M2403,495c.16-.02.22-1.22.98-1l2.02,5.99c-2.44.24-3.82-2.34-5-3.99-1.29-.88-.62-1.21,2-1Z"/>
  <path class="cls-9" d="M2420,1068c2.06-1.6,4.12-3.94,6.99-4l-5.99,5-1-1Z"/>
  <path class="cls-17" d="M2365,542c1.18-1.02,1.62-3.62,3.99-2.99.66,2.38-2.06,2.84-2.99,3.99l-1-1Z"/>
  <path class="cls-8" d="M2396,576l-1,1c-1.32-1.17-3.41-2.06-4-3.99,2.05-.28,3.41,1.75,5,2.99Z"/>
  <path class="cls-10" d="M2390,931c1.16-.49,2.5-2.85,4.99-1.99,1.04.47-3.08,2.28-3.99,2.99l-1-1Z"/>
  <path class="cls-23" d="M2401,496c-.92-1.29-2.46-2.04-1.99-4,2.46.99.86,3.48,3.99,3l-2,1Z"/>
  <path class="cls-2" d="M2363,613c.85-.69.85-2.66,3-1.99-.18,1.59-2.23,2.12-3,2.99v-1Z"/>
  <path class="cls-28" d="M2426,437v1l-3-2.99c2.15-.67,2.15,1.31,3,1.99Z"/>
  <path class="cls-5" d="M2403,415c.78-.16,2.23-1.82,4-.99.38,1.5-1.86,1.09-3,1.99l-1-1Z"/>
</svg>