<?xml version="1.0" encoding="UTF-8"?>
<svg id="Lager_1" data-name="Lager 1" xmlns="http://www.w3.org/2000/svg" viewBox="0 0 2560 1600">
  <defs>
    <style>
      .cls-1 {
        fill: #7c9a6c;
      }

      .cls-2 {
        fill: #68815a;
      }

      .cls-3 {
        fill: #88a875;
      }

      .cls-4 {
        fill: #82a170;
      }

      .cls-5 {
        fill: #728d62;
      }

      .cls-6 {
        fill: #677e59;
      }

      .cls-7 {
        fill: #88a976;
      }

      .cls-8 {
        fill: #5b704f;
      }

      .cls-9 {
        fill: #738f64;
      }

      .cls-10 {
        fill: #789568;
      }

      .cls-11 {
        fill: #8cad79;
      }

      .cls-12 {
        fill: #769366;
      }

      .cls-13 {
        fill: #4a5c41;
      }

      .cls-14 {
        fill: #69825b;
      }

      .cls-15 {
        fill: #556949;
      }

      .cls-16 {
        fill: #8cae79;
      }

      .cls-17 {
        fill: #83877b;
      }

      .cls-18 {
        fill: #2f4f3a;
      }

      .cls-19 {
        fill: #8bac78;
      }

      .cls-20 {
        fill: #7f9e6e;
      }

      .cls-21 {
        fill: #8bad79;
      }

      .cls-22 {
        fill: #080a07;
      }

      .cls-23 {
        fill: #85a573;
      }

      .cls-24 {
        fill: #000100;
      }

      .cls-25 {
        fill: #678059;
      }

      .cls-26 {
        fill: #8bad78;
      }

      .cls-27 {
        fill: #8aab77;
      }

      .cls-28 {
        fill: #8aac78;
      }

      .cls-29 {
        fill: #8b908c;
      }

      .cls-30 {
        fill: #68805a;
      }

      .cls-31 {
        fill: #86a674;
      }

      .cls-32 {
        fill: #6e885f;
      }

      .cls-33 {
        fill: #7c9a6b;
      }

      .cls-34 {
        fill: #89aa77;
      }

      .cls-35 {
        fill: #809f6f;
      }

      .cls-36 {
        fill: #89aa76;
      }

      .cls-37 {
        fill: #87a775;
      }

      .cls-38 {
        fill: #4c5f42;
      }

      .cls-39 {
        fill: #82a271;
      }

      .cls-40 {
        fill: #81a070;
      }

      .cls-41 {
        fill: #7d9b6c;
      }

      .cls-42 {
        fill: #3d4c34;
      }

      .cls-43 {
        fill: #6d875e;
      }

      .cls-44 {
        fill: #627954;
      }

      .cls-45 {
        fill: #6b855d;
      }
    </style>
  </defs>
  <path class="cls-18" d="M2237,272l1.15,2.38c.11,42.04,5.39,85.06,27.08,121.59,6.25,14.76,13.52,28.8,21.8,42.14,2.69,8.21,6.36,14.89,10.52,22.27,1.59,2.82,3.12,6.32,2.47,9.39,7.27,15.62,10.96,32.15,10.63,49.14-.01.6-.58,1.19-1.32,1.77-1.12,33.21-.96,66.11,2.99,99.81,1.56,24.32-.53,48.27-3.19,72.72-3.28,30.17-9.49,60.61-15.71,90.42-.26,1.25-.99,2.4-1.85,3.52-10.42,47.82-20.05,96.16-29.48,144.2-1.76,25.43-4.09,50.68-6.99,75.73-3.93,12.98-5.26,25.07-5.63,38.87-1.89,70.79-2.67,141.99-.7,212.28l-.88,3.8c.41,26.15.39,51.43-5.86,76.18-1.19,54.57,10.61,111.93,36.41,159.66,1.24,1.43,5.3,12,1.07,11.22-4.1-.76-16.19-14.62-18.71-18.79-7.07-15.52-14.02-31.19-20.85-47,.23-1.06.33-2.07.04-2.96-13.59-40.62-19.72-80.69-10.82-122.71,1.47-32.58,1.5-65.51.09-98.8,1.19-61.83,2.43-123.16,3.73-183.99,2.87-24.71,6.3-49.66,10.27-74.84,6.36-67.57,20.65-134.82,35.41-201.24,4.89-10.25,7.02-23.18,7.29-34.53,2.05-8.35,3.87-16.04,5.12-24.61,4.92-33.86,5.59-69.77,1.22-103.54.44-10.88-.13-22.76-2.39-33.21.68-17.18,1.31-34.17,1.9-50.96-.02-15.75-4.97-28.51-10.96-42.86-6.48-15.5-13.62-30.22-20.88-45.03-15.48-28.02-28.42-56.54-33.82-88.03-3.07-21.87-5.12-43.53-6.15-64.99,2.49-6.69,10-9.19,15.07-3.56,1.89,2.1,1.69,4.26,1.93,4.56Z"/>
  <path class="cls-24" d="M2220,271c3.07-.56,1.87,1.54,2,3.46,2,30.2,2.35,52.18,10.25,81.79,11.5,43.08,39.05,80.05,54.23,121.77,11.21,30.82,4.37,55.28,5.48,86.52.91,25.67,5.4,51.25,5.09,77.01-.57,46.74-9.15,85.73-19.37,130.63-9.18,40.35-17.54,80.93-24.41,121.59-6.32,37.44-8.98,73.36-14.41,110.59-1.97,13.48-5.26,24.92-5.91,39.09-1.05,23.19.33,47.1.05,70.05-.53,44.52-1.76,89.58-2.05,133.95-.12,18.24,1.93,37.19,1.08,55.08-.65,13.81-4.26,28.32-5.08,41.92-2.95,48.99,10.12,93.35,31.19,136.9,5,10.34,12.16,19.72,21.36,26.64,1.18-.94.22-3.59-.18-4.82-2.47-7.45-8.43-16.33-11.79-24.21-17.56-41.22-26.33-84.58-27.52-129.47-.38-14.37,5.16-28.56,6.03-42.95,2.17-36.06-.49-75.53-.08-112.08.57-50.3-.34-104.01,2.29-153.94.85-16.1,4.33-28.63,6.63-44.14,3.64-24.6,3.39-49.35,7.44-73.56,5.62-33.6,14.03-68.6,21.01-101.99,11.62-55.55,25.79-109,27.72-166.28.94-27.93-2.86-55.35-4.09-83.01-1.09-24.58,4.82-55.93-.66-79.34-10.56-45.12-45.58-90.01-59.56-135.44-8.27-26.88-9-56.75-9.74-84.76.08.1,1.73-.42,2.01.66.71,2.64-.28,8.44,0,11.83,1.14,13.94,2.19,29.24,4,43,.91,6.91,2.06,13.82,4,20.51,8.52-2.79,15.22-5.05,24.49-4.01,3.27.37,15.37,4.58,16.49,7.52.65,1.72-8.39,5.68-9.64,7.34-9.47,2.87-19.07,4.66-28.35.16,4.96,12.03,9.17,24.74,15.58,35.87,10.32-3.38,22.79-2.47,32.48,2.56,15.21,7.9,3.97,10.3-6.61,12.59l-20.44-4.54,13.01,27.51c12.39-5.38,21.49-.5,29.88,8.61,1.7,1.84,4.75,4.8,1.4,6.19-7.54,3.12-17.28,2.41-24.28-1.79-.42.51,4.44,11.38,5.45,12.11,1.36.98,3.65-.35,5.77.07,15.49,3.04,14.96,18.41-1.22,9.82-1.21,3.65,1.5,3.63,2.14,5.38.76,2.07,2.49,11.14,2.94,11.52s5.35-.03,7.18.33c5.09,1.01,12.33,6.37,15.71,10.29,1.35,1.56,6.67,10.71,6.89,12.14.15.99-.68,2.15-1.42,2.29-.66.13-11.93-1.24-13.28-1.62-5.38-1.54-7.3-6.06-11.16-9.33.91,2.31.51,10.8,1.15,11.85.27.45,6.79,3,8.87,5.63,2.49,3.14,3.25,7.64,2.97,11.53-6.38,1.06-8.37-3.23-12-7-1.1,1.27-.54,4.14,0,6-.94,7.72-1.36,15.38-1.04,23.33,7.33,3.79,15.9,9.48,16.03,18.67-.61.62-7.35-1.17-8.71-1.78-2.86-1.3-5-4.27-7.29-6.21v16.5c0,.62,8.7,5.14,10.48,6.52,6.44,5.02,11.64,12.08,12.56,20.4-9.26,3.38-16.36-4.4-21.03-11.43.37,4.1-.77,9.14.44,13.05.91,2.95,6.5,6.75,8.39,10.61,5.62,11.49-.5,10.09-7.82,4.33l1.13,15.86c15.4,4.23,31.59,17.09,37.34,32.16,3.2,8.38,5.03,12.93-6.09,12.88-8.22-.04-16.57-3.65-21.22-10.57l-11.16-19.32c.47,14.84-1.46,29.58-3.08,44.31,7.81,5.58,18.16,13.84,20.63,23.63.64,2.53,2.31,11.07-.85,10.89-5.49-.31-12.51-7.28-15.13-11.91l-5.57-10.91c-2.89,22.47-8.27,44.4-13.05,66.5.13,1.42,7.15,6.79,9.01,9.01,6.72,8.05,9.73,16.09,10.02,26.48l1,6c.05,3.65-.03,7.34,0,10.99-10.7-3.43-15.44-11.64-18.71-21.78l-4.27-20.21c-8.23,37.78-15.41,75.68-22.92,113.64-.24,1.48-.41,2.99.41,4.35.64,1.05,11.28,8.09,13.49,10.51,5.37,5.87,7.1,11.75,8.69,19.31.55,2.62,3.51,19.57,3.26,20.58-.68,2.74-5.04.61-6.64-.2-12.96-6.6-21.16-23.02-22.31-37.19l-3.89,15.59-1.1,23.4c7.91-.16,13.77,4.57,16.85,11.65,3.58,8.21,2.98,11.9-6.52,7.52-4.92-2.26-7.72-6.46-11.32-10.17l-5.09,42.37c11.7,4.31,20.92,12.29,27.25,22.96,1.25,2.1,7.12,13.67,6.77,15.09-.82,3.34-12.96-.35-15.48-1.39-8.42-3.47-18.4-17.28-20.47-26.03-1.33.51-1.73,5.26-1.87,6.62-1.3,13.18-1.33,26.47-.96,39.72,11.82,6.54,20.71,15.9,27.36,27.64,1.76,3.11,9.5,19.21,9.49,21.57-.01,4.34-9.52,1.75-12,.94-7.25-2.36-13.6-10.23-17.43-16.57l-7.57-15.92-1.02,54c9.27-.94,22.31,9.85,27.44,17.06,6.47,9.1,8.1,22.45,11.56,32.93-12.33-2.59-24.83-11.84-32.97-21.52-.95-1.13-5.54-10.16-7.02-8.47.8,11.74,1.34,23.41-.01,34.99,8.1-.2,13.95,5.83,16.48,13.02.67,1.9,3.45,9.59-.87,8.9-.51-.08-7.88-4.34-8.95-5.08-2.47-1.7-4.07-4.34-6.66-5.84v44.5c8.49,5.26,18.88,9.7,25.51,17.49,2.91,3.42,9.26,15.44,9.47,19.59.14,2.69-5.67,2.63-7.49,2.47-8.27-.72-16.39-10.69-22.01-16.04l-5.48-8.01c-.85,17.58.82,36.03-1.14,53.37-1.36,12.03-6.23,23.36-4.88,35.63,5.45-.29,11.49,1.46,15.94,4.56,3.9,2.72,14.25,14.43,7.06,17.96-6.3,3.1-18.52-7.55-21.99-12.52l1.93,34.39c10.41,2.78,24.66,12.44,18.58,24.56-5.58-2.26-10.84-5.53-15.02-9.94-.78-.15-.59.89-.5,1.49,1.64,11.41,6.83,24.88,9.1,36.41,5.72-.62,12.85,2.61,16.95,6.56,11.23,10.81-6.57,8.09-12.54,3.54-.68-.22-.69.82-.48,1.47,2.53,7.85,7.38,18.43,10.81,26.2,2.14,4.85,10.87,18.62,10.23,22.79-1.49,9.61-16.63-8.06-19.04-10.47-.49,8.03-2.03,16.01-6.07,22.98-2.53,1.73-6.14-10.8-6.49-12.93-1.41-8.77.65-15.15,5.37-22.38l-12.83-30.66-3.48,16c-1.7,6.9-6.25,12.85-13.5,13.99-2.8-11.68.25-29.16,7.55-38.93,1.16-1.55,4.46-3.35,4.52-3.71.42-2.66-8.02-22.89-9.36-27.57-3.97-13.85-5.44-32.73-5.79-47.27-.27-11.15,1.74-22.32,1.06-33.51-6.72,7.87-15.59,15.94-24.98,20.51-13.87,6.76-14.59-.16-7.85-10.85s22.85-20.15,34.86-23.14l.85-1.15,1.12-30.37c-1.66.91-2.27,2.95-3.97,4.52-4.29,3.96-13.59,11.43-19.51,9.53-1.34-.43-1.54.71-1.56-1.54-.11-13.34,13.42-24.5,25.1-28.17l-.06-46.34-6.48,9.01c-1.38,2.49-16.14,12.46-17.51,10.98-.14-16.14,6.98-33.73,24.04-37.65l1.94-100.34-11.94,15.54c-7.39,6.03-16.03,12.86-25.8,14.19-1.98.27-9.77,1.14-10.24-1.27,8.52-21.15,25.52-36.8,47.06-44.08l2.93-75.39c-9.01,6.54-15.35,19.8-27.99,19,1.39-17.81,15.9-32.52,32.03-38.68l2.96-22.32c-1.55.18-1.56,2.28-2.93,3.55-7.02,6.49-25.59,13.3-14.49-2.49,2.67-3.8,7.95-7.75,12.04-9.96,2.32-1.25,6.3-.78,7.2-3.8,1.12-10.38.9-21.52,2.2-31.8,1.77-13.93,6.95-27.34,6.98-41.51-4.36,3.5-9.1,7.69-14.98,7.99-.87-12.41,11.13-20.76,19.83-27.66l3.15-26.34c-6.88,5.96-11.86,16.32-20.59,19.9-1.99.82-13.57,3.27-14.82,2.97-4.8-1.14,1.96-13.03,3.39-15.4,7.72-12.78,20.23-24.44,36.14-24.05l10.87-53.42c-5.44,6.22-26.58,21.39-34.33,18.84-4.53-1.49,3.79-12.87,5.51-15.18,8.28-11.11,20.01-17.66,33.86-19.14,2.3-1.47,5.82-27.16,6.96-31.53-5.89,4.91-10.97,11.01-17.95,14.54-11.2,5.67-16.21,5.41-9.58-7.58,3.74-7.33,11.3-15.21,19.27-17.73,2.97-.94,9.78-1,10.17-1.33,2.25-1.9,2.74-36.59,4.09-41.9-8.3,10.12-57.98,36.56-36.62,2.87,9.1-14.36,20.94-24.43,38.58-25.91l-.96-36.95-5.55,8.93c-4.84,7.12-13.54,12.64-22.19,13.85-7.39,1.04-5.25-5.26-3.47-10.51,3.69-10.94,18.18-27.19,30.23-28.28l-2.02-31.99c-3.83,5.87-16.18,15.59-12.03,1.45,1.3-4.44,3.61-7.17,7.52-9.51,1.38-.83,3.52-.75,3.52-.94v-15.5c0-.55,2.47-3.49.01-3.49-.66,4.71-17.4,19.55-21.01,15.99-.05-12.92,9.49-25.4,22.96-26.04.47-15.94-1.48-33.11-7.47-47.94-.67-1.65-1.92-5.21-3.47-6.01-1.42,6.31-2.5,11.7-6.6,16.91-5.93,7.53-12.1,9.97-11.43-2.37.49-9.03,7.64-16.61,16.08-19.1-1.73-10.78-9.37-19.31-12.07-29.43l-3.49,9.99c-3.45,6.71-8.08,13.56-16.44,13.96-6.14-15.21-.1-28.14,13.82-35.44l-12.89-26.51-3.81,8.67c-10.76,18.03-20.8,9.41-9.02-7.01,2.45-3.41,8.82-5.72,8.91-6.26.27-1.62-4.31-10.96-6.07-12.4-.93,7.8-7.86,14.62-16.01,13-.61-9.61,6.72-15.81,15.08-18.61-4.61-10.7-6.39-22.11-9.08-33.38l-12.46,14.02c-6.58,5.65-19.17,10.74-27.8,8.75-8.04-1.85.19-11.62,3.31-15.25,8.97-10.47,21.35-14.7,34.97-13.53-4.31-18.87-4.77-37.31-4.95-56.54-.04-4.38-1.95-5.34-.04-10.46Z"/>
  <path class="cls-29" d="M2311,521c-.16,1.95.23,4.1,0,6-1.93-1.51-.74-4.86-.99-7,1.11-.17.92.92.99,1Z"/>
  <path class="cls-17" d="M2316,816c-1.7-1.1-.95-4.11-1-6,1.68,1.09.97,4.11,1,6Z"/>
  <path class="cls-16" d="M2294,652.01c-.74,1.02-.71,3.16-1.25,3.74-.37.4-7.32,3.21-9.66,4.84s-12.32,10.15-13.08,11.92c-.51,1.18.29,1.98,1.48,1.48,1.65-.7,9.35-8.86,12.18-10.82s5.69-4.63,9.33-4.16c.58,13.68-20.45,25.18-31.72,28.76-11.68,3.71-9.82-.68-5.45-8.44,7.94-14.1,20.99-27.3,38.17-27.32Z"/>
  <path class="cls-16" d="M2352,678.99c-21.42,4.13-32.44-15.45-36.99-32.99,3.72,3.86,8.85,7.34,12.54,10.95,2.27,2.22,6.47,8.96,8.97,10.04,1.22.53,1.85-.19,1.47-1.47-1.73-5.89-17.53-16.01-21.53-21.47-5.58-7.62,5.45-1.74,8.85.15,13.77,7.68,23,19.42,26.7,34.79Z"/>
  <path class="cls-16" d="M2221,1101c-3.72,2.36-13.35,10.76-14.99,14.51-.51,1.18.3,1.99,1.48,1.48,1.85-.79,19.52-21.32,22.51-17.99-3.4,18.71-24.03,35.64-42.99,36.99,5.07-16.53,17.84-28.32,32.99-35.99,1.67-.66,1.92-.61,1,1Z"/>
  <path class="cls-16" d="M2251,1138c3.42-3.35,19.26,9.45,22,12.5,7.02,7.82,8.85,20.26,12.02,29.99l-8.28-2.72c-11.04-7.79-22.78-16.96-25.74-30.76.25-3.06.25-6.06,0-9Z"/>
  <path class="cls-16" d="M2256,1070c2.3,1.44,4.86,2.4,7.04,4.46,10.08,9.54,16.96,24.8,21.96,37.53-19.87.58-29.98-24.61-32.99-40.99l13.49,14.99c.96-.08.57-1.63.3-2.3-.73-1.83-7.98-10.62-9.81-12.69v-1Z"/>
  <path class="cls-16" d="M2259,830.01c-3.4,3.78-12.25,7.79-15.01,11.71-.91,1.29-.75,3.36.51,3.26,1.07-.08,13.06-12.83,17.01-12.97.67-.21.73.89.48,1.48-1.92,4.52-14.41,19.19-18.47,22.54-5.5,4.53-11.2,7.02-18.52,6.97-3.38-3.36,13.2-23.1,16.47-26.02,4.73-4.22,10.95-7.59,17.52-6.97Z"/>
  <path class="cls-11" d="M2292.99,952c-15.19-7.39-23.19-23.58-23.5-39.99,6.65,8.49,11.82,18.32,16.52,27.99l1.98-1.47-18.99-32.52c19.35,7.39,22.04,27.88,23.99,45.99Z"/>
  <path class="cls-11" d="M2216,341c2.02-.38,3.02-.04,3,1-4.27,1.65-14.16,6.25-15.99,10.51-2.04,4.76,5.61-2.63,6.06-2.95,4.4-3.06,9.66-5.49,14.93-6.56-5.31,7.54-12.03,15.23-20.74,18.75-4.56,1.84-20.94,7.21-16.11-2.12,5.89-11.4,16.88-16.65,28.85-18.64Z"/>
  <path class="cls-11" d="M2291.99,598c1.22,1.29-.77,2.95-1.65,3.84-5.64,5.71-13.39,9.4-16.89,18.11-.53,1.31-1.45,3.44,1.03,3.04.96-3.32,15.82-21.26,18.51-18.98-5.34,13.76-13.56,27.37-29.99,27.98,1.01-10.89,10.69-23.92,19.66-29.83,1.1-.72,8.83-4.69,9.33-4.16Z"/>
  <path class="cls-16" d="M2261,1012c13.71,6.79,19.95,17.49,26,30.99-15.64.08-28.61-15.49-30.99-29.99,4.02,1.81,10.37,11.69,13.5,12.99,1.8.74,1.81-1.15,1.33-2.34-.78-1.93-8.71-8.98-10.85-10.65-1.33-1.41-.77-1.92,1-1Z"/>
  <path class="cls-11" d="M2257,1255c-1.33-1.41-.77-1.92,1-1,12.1,7.38,20.03,14.21,23,28.99-14.03-1.64-28.56-16.24-30.99-29.99,5.94,2.74,10.48,9.45,15.89,12.61,1.61.94,1.3,2.21,3.08-.11-3.79-3.72-7.96-7.05-11.98-10.5Z"/>
  <path class="cls-21" d="M2271,762.01l-13.99,11.49c.79,1.43,2.58.07,3.52-.48,1.63-.96,14.64-10.92,15.47-10.02-6.14,14.34-20.76,22.47-34.98,26.99,4.64-13.37,15.97-24.76,29.99-27.99Z"/>
  <path class="cls-26" d="M2313,822c-10.85-2.96-15.92-23.56-16.05-33.47-.01-1.12-.55-2.79,1.03-2.52,1.84,5.25,4.74,10.24,7.52,15.02.76,1.31-.17,2.51,2.48,1.97-.39-7.25-8.03-14.31-9.98-20.51-.16-.51-.27-1.63.48-1.48,5.86,4.69,14.5,18.12,14.5,25.5v15.5Z"/>
  <path class="cls-26" d="M2218,1326c1.31-.35,1.62-.29,1,1-5.75,3.56-10.19,8.82-14.99,13.51,1.15,4.74,3.87-1.04,4.94-2.04,5.21-4.85,11-10.7,18.05-12.46-9.31,12.25-20.99,23.43-35.99,27.99.85-10.42,11.2-19.57,19.68-24.8,2.82-1.74,4.85-2.07,7.31-3.2Z"/>
  <path class="cls-28" d="M2253.5,351c-1.14.07-3.52,1.83-5.5.99,10.56-8.36,24.26-6.85,36-.98-6.61,8.35-26.73,11.96-34,3,8.16-.03,15.89-1.55,23.99-.02.87-1.67-1.71-2.99-2.49-2.99-5.85,0-12.24-.37-18,0Z"/>
  <path class="cls-26" d="M2231,1005c-2,1.83-8.19,8.45-8.99,10.52-.47,1.21.26,1.98,1.47,1.47,2.3-.96,7.69-10.31,11.02-11.99,1.14,3.23-2.31,7.33-4.09,9.91-5.38,7.77-13.87,15.15-22.4,19.09,1.48-13.4,11.05-23.19,21.99-30,1.41-1.33,1.92-.77,1,1Z"/>
  <path class="cls-19" d="M2261,430.01c-4.23,5.5-8.84,11.72-8.99,18.99.78,1.05,8.12-16.07,10.49-17,1.53,7.29-2.34,17.24-7.48,22.52-7.15,7.34-8.15,4.61-8.58-4.25s5.91-18.48,14.56-20.26Z"/>
  <path class="cls-28" d="M2225,1213c1.5-.49,1.77-.46,1,1-4.65,4.14-11.45,11.99-12.99,17.99l13.99-14.99c1.16-.96,1.49-.29,1,2-2.63,10.23-10.07,19.03-19.99,23,.49-11.25,5.4-25.43,16.99-29Z"/>
  <path class="cls-28" d="M2229,1465.5c.59-4.36,5.33-16.39,8.49-19.51,2.02-1.99,1.85-.56,1.1,1.1-2.59,5.76-5.84,11.49-6.58,17.91,2.67.51,1.74-.58,2.44-2,2.18-4.41,4.21-10.21,5.57-14.99,1.66-.27,1.07,2.42,1.04,3.53-.32,9.46-2.68,25.07-12.05,29.46.47-4.89-.64-10.76,0-15.5Z"/>
  <path class="cls-34" d="M2272,401.01l18.52,2.96c1.63-1.21,1.97-1.95-.23-2.75-6.1-2.23-16.61-2.13-23.28-3.23.67-1.45,5.52-2.37,6.94-2.54,9.62-1.16,20.54,1.79,28.04,8.05-8.6,6.3-21.88,3.74-29.98-2.49Z"/>
  <path class="cls-26" d="M2269,728c2.92.48,12.16-9.8,17-7.99-6.09,9.76-16.44,18.86-28,20.98,1.91-6.14,4.64-10.38,9-14.99,2.54-1.65,2.49-.62,2,2Z"/>
  <path class="cls-19" d="M2221,1281c-2.14,1.6-5.78,4.16-5.99,6.99,1.72,1.65,10.64-8.18,12.51-8.99,2.06-.89,1.71,2.19,1.43,3.44-1.24,5.69-15.43,17.53-21.94,17.55.46-9.22,5.76-15.31,12.99-20,1.61-.72,1.94-.59,1,1Z"/>
  <path class="cls-27" d="M2288,439.01c2.68-1.12,15.22,3.65,15.99,2.98,1.43-1.23-1.6-2.63-2.51-2.98-4.11-1.6-10.09-1.95-14.49-3.02,8.59-8.05,19.82,1.98,25.98,8.51-7.59,5.42-19.85,1.95-24.98-5.49Z"/>
  <path class="cls-27" d="M2331.99,506.99c-10.38-.22-16.84-3.06-20.99-12.99,1.02-1.03,9.17,5.96,10.69,6.8.93.52,3.46,1.79,3.28-.31-.16-1.88-16.88-10.89-16.96-12-.12-1.6,2.79-1.31,4.04-1.07,7.97,1.53,18.33,11.49,19.94,19.57Z"/>
  <path class="cls-28" d="M2251,1354c7.81,2.42,13.85,7.56,15,15.99-8.19.41-17.67-6.27-19.99-13.99.56-.68,11.17,9.06,9.01,2.5-.15-.47-4.94-2.89-6.02-3.5-.97-1.09-.3-1.42,2-1Z"/>
  <path class="cls-37" d="M2328.99,728c-4.23-1.72-8.76-5.34-11.43-9.06-1.57-2.19-4.24-7.11-4.07-9.93l10.49,12.99c2.1-2.79-11.88-17.29-12.99-20.99.65-.63,7.76,5.25,8.49,6,5.33,5.43,9.77,13.13,9.5,20.99Z"/>
  <path class="cls-7" d="M2287,535c-3.86,5.86-9.13,11.86-15.99,14-2.16-2.36,8.61-21.15,14.99-18.5-1.29,1.01-8.16,8.32-6.99,9.5,3.21-.13,5.1-4.05,6.99-5.99,1.39-1.32,1.89-.76,1,1Z"/>
  <path class="cls-36" d="M2255,1500c3.88,3.94,1.02-9.57,4.99-11,1.51,9.1.74,17.2-2,26-4.52-3.26-4.1-9.94-3.99-15,.28-.87.62-.86,1,0Z"/>
  <path class="cls-3" d="M2275.99,475c-.04,6.84-4.52,14.52-10.98,16.99-.95-7.7,1.33-14.65,7.98-18.99.12,3.11-6.91,6.84-3.49,9.98l6.49-7.98Z"/>
  <path class="cls-7" d="M2277.99,972.99c-4.64-.02-9.92-4.47-12.51-7.98-1.05-1.42-1.33-2.88,1.02-1.02,1.52,1.2,1.64,3.04,3.48.5l-5.98-6.49c7.68.48,13.11,7.87,13.99,14.98Z"/>
  <path class="cls-22" d="M2251,1138l22.98,24.5c.06.84-.95,1.51-2.48.5-6.84-4.48-11.8-15.23-19.5-19.51l-1,3.5c-.54-2.53-2.59-6.41,0-9Z"/>
  <path class="cls-37" d="M2238.99,970.01c1.05,5.11-14.75,14.72-16.99,12.98,1.89-4.01,4.11-8.04,7.51-10.98l.98,3.98,8.5-5.99Z"/>
  <path class="cls-31" d="M2259,1405c5.42,6.47,8.56,15.06-2.91,6.41-3.55-2.67-6.47-6.26-8.09-10.4,1.38-1.33,7.29,5.31,8.64,5.85,1.89.76,2.81.27,2.36-1.86Z"/>
  <path class="cls-31" d="M2263.99,1208c-.64.84-14.29-7.07-12.98-10.99,1.18-1.24,6.48,6.31,6.99,1.51l-5.99-4.5c5.05-2.51,13.49,12.04,11.99,13.99Z"/>
  <path class="cls-3" d="M2241,406c-2.21,4.55-3.63,7.91-8.99,10-.19-5.64,3.32-12.79,7.98-16,.26,1.94-1.49,2.65-2.01,4.49-.81,2.92,1.56.53,2.02.51,1.72-1.5,2.32-.92,1,1Z"/>
  <path class="cls-23" d="M2324,598c1.42.67,2.99.83,2.6-1.13l1.4.13c.48,1.04,2.49,5.53,2,5.99-7.7-.62-13.94-6.73-15.99-13.99,3.63,2.34,6.84,6.3,9.99,9Z"/>
  <path class="cls-4" d="M2247,882c-1.04,1.85-2.21,3.74-1.99,6l5.49-5.99c1.02,6.25-7.27,9.24-11.49,11.99-1.91-2.55,5.12-10.99,6.99-13,1.41-1.33,1.92-.77,1,1Z"/>
  <path class="cls-35" d="M2328,597c-1.27,2.22-1.71,2.96-4,1,2.85.31,2.45-.6,1.01-2.51-3.48-4.63-10.93-7.95-14.01-13.48,7.24,2.53,13.75,7.98,17,14.99Z"/>
  <path class="cls-39" d="M2275,1457.99l-10-2c-.47-.61,1.98-2.05,1.98-2.49,0-1.99-6.66-1.51-6.98-3.49,6.08-.57,11.73,3.09,15,7.98Z"/>
  <path class="cls-40" d="M2230,391c-1.81,1.68-3.09,3.04-5.99,3-1.22-1.36,3.15-11.34,6.01-9.48-.32,1.51-1.09,2.89-1.02,4.49,2.33-.33,2.66.33,1,2Z"/>
  <path class="cls-33" d="M2267,726c4.42-4.68,10.03-9.41,17-8.99l-8.91,4.58c-1.99,2.17-5.89,2.95-6.09,6.41-.63-.1-1.46-1.48-2-2Z"/>
  <path class="cls-20" d="M2318,559c1.83,1.93,4.68,3.67,4.49,7.01-3.63-.77-6.94-2.87-9.49-5.51,1.95-1.26,4.53,2.57,3.99-1.5.31-.42.64-.41,1,0Z"/>
  <path class="cls-4" d="M2320.99,526l-6.98-5.51c-.33-2.48,2.97-.45.99-3.48,2.34-1.74,6.4,7.12,5.99,8.99Z"/>
  <path class="cls-41" d="M2306,463c10.45,5.37,2.8,6.47-3.99,2.99l3.99-1.99c-.87-.28-.86-.62,0-1Z"/>
  <path class="cls-1" d="M2280.01,570c-.2-3.16,1.12-7.27,3.98-9-.4,4.57,2.09,6.91-3.98,9Z"/>
  <path class="cls-4" d="M2319.99,622c-2.73-1.56-6.17-2.59-6.99-5.99,4.95-1.97,5.93,1.64,6.99,5.99Z"/>
  <path class="cls-43" d="M2220,1100c3.48-1.76,6.26-5.04,11-3.99l-10,4.99-1-1Z"/>
  <path class="cls-6" d="M2306,463v1l-8.01-2.5c3.49-1.97,5.62.27,8.01,1.5Z"/>
  <path class="cls-30" d="M2216,341c1.8-.3,4.28-1.93,7-.99.29,1.58-2.49,1.41-4,1.99l-3-1Z"/>
  <path class="cls-25" d="M2318,559h-1l-4.49-4.01c2.82.1,3.98,2.41,5.49,4.01Z"/>
  <path class="cls-12" d="M2226,1277c.87.28.86.62,0,1-1.65,1.04-3.41,1.81-5,3l-1-1c2.58-1.67,3.52-1.85,6-3Z"/>
  <path class="cls-14" d="M2230,1004c1.82-1.13,3.08-3.63,5.99-2.99-.78,1.72-3.48,2.6-4.99,3.99l-1-1Z"/>
  <path class="cls-8" d="M2259,1405c-1.51.43-5.49-3.56-5-3.99,2.56-.28,3.7,2.43,5,3.99Z"/>
  <path class="cls-9" d="M2223,1324c-.24.08-2.69,2.19-4,3l-1-1c2.11-.97,2.92-1.22,5-2Z"/>
  <path class="cls-44" d="M2230,391c-.19-.62-.98-1.5-1-2,2.49.75,2.01-2.4,3.99-3,.34,2.37-1.45,3.57-2.99,5Z"/>
  <path class="cls-15" d="M2246,881c1.19-1.28,1.73-3.56,4-2.99.46.36-2.61,3.29-3,3.99l-1-1Z"/>
  <path class="cls-45" d="M2261,1012l-1,1c-.9-.71-5.04-2.51-3.99-2.99,2.55-.77,3.66,1.33,4.99,1.99Z"/>
  <path class="cls-5" d="M2258,1254l-1,1c-1.2-1.03-2.28-2.42-3-3h1c1.22.67,2.02,1.4,3,2Z"/>
  <path class="cls-43" d="M2251,1354l-2,1c-1.34-.75-3.33-.63-3-1.99,2.22-.77,3.49.52,5,.99Z"/>
  <path class="cls-43" d="M2241,406c.13-.69-.36-1.03-1-1l2.99-3c.64,2-1.42,2.83-1.99,4Z"/>
  <path class="cls-42" d="M2255,1252h-1c-.21-.17-4.04-.68-2.49-2.01,1.65-.33,2.48,1.45,3.49,2.01Z"/>
  <path class="cls-10" d="M2223,1324c.71-.27,3.67-2.36,3.99-2,.8,3.47-2.12,1.35-3.99,2Z"/>
  <path class="cls-2" d="M2228,1219l-1-2,1.99-2c.69,1.77-.73,2.99-.99,4Z"/>
  <path class="cls-14" d="M2225,1213c1.03-.32,2.12-1.74,4-.99.42,1.53-1.99,1.09-3,1.99l-1-1Z"/>
  <path class="cls-32" d="M2256,1070v1c-.76-.87-2.83-1.4-3-2.99,2.11-.75,2.26,1.52,3,1.99Z"/>
  <path class="cls-13" d="M2226,1277c.58-.27,4.25-3.79,3.01-.51-.32.85-2.11.95-3.01,1.51v-1Z"/>
  <path class="cls-38" d="M2286,534c3.45-3.55,3.5-2.79,1,1l-1-1Z"/>
  <path class="cls-5" d="M2255,1500h-1c.02-1.14-.42-5.01.5-5.01l.5,5.01Z"/>
</svg>