<?xml version="1.0" encoding="UTF-8"?>
<svg id="Lager_1" data-name="Lager 1" xmlns="http://www.w3.org/2000/svg" viewBox="0 0 2560 1600">
  <defs>
    <style>
      .cls-1 {
        fill: #2b3525;
      }

      .cls-2 {
        fill: #84a473;
      }

      .cls-3 {
        fill: #68815a;
      }

      .cls-4 {
        fill: #89a976;
      }

      .cls-5 {
        fill: #88a875;
      }

      .cls-6 {
        fill: #6c6c6c;
      }

      .cls-7 {
        fill: #060806;
      }

      .cls-8 {
        fill: #6a835c;
      }

      .cls-9 {
        fill: #607653;
      }

      .cls-10 {
        fill: #5f7653;
      }

      .cls-11 {
        fill: #88a976;
      }

      .cls-12 {
        fill: #7f9d6e;
      }

      .cls-13 {
        fill: #6b845c;
      }

      .cls-14 {
        fill: #617853;
      }

      .cls-15 {
        fill: #8cad79;
      }

      .cls-16 {
        fill: #656565;
      }

      .cls-17 {
        fill: #425239;
      }

      .cls-18 {
        fill: #8cae79;
      }

      .cls-19 {
        fill: #769266;
      }

      .cls-20 {
        fill: #688059;
      }

      .cls-21 {
        fill: #516547;
      }

      .cls-22 {
        fill: #2f4f3a;
      }

      .cls-23 {
        fill: #8bac78;
      }

      .cls-24 {
        fill: #6d885f;
      }

      .cls-25 {
        fill: #8bad79;
      }

      .cls-26 {
        fill: #85a573;
      }

      .cls-27 {
        fill: #000100;
      }

      .cls-28 {
        fill: #8aab77;
      }

      .cls-29 {
        fill: #8aac78;
      }

      .cls-30 {
        fill: #86a674;
      }

      .cls-31 {
        fill: #0d100b;
      }

      .cls-32 {
        fill: #738f63;
      }

      .cls-33 {
        fill: #8aab78;
      }

      .cls-34 {
        fill: #89aa77;
      }

      .cls-35 {
        fill: #89aa76;
      }

      .cls-36 {
        fill: #070906;
      }

      .cls-37 {
        fill: #6a6a6a;
      }

      .cls-38 {
        fill: #586d4c;
      }

      .cls-39 {
        fill: #5f605f;
      }

      .cls-40 {
        fill: #647b56;
      }
    </style>
  </defs>
  <path class="cls-22" d="M172,215c.44.84.75,1.65.61,2.38-4.61,25.04-14.55,49.74-32.5,67.75-22.45,27.3-26.59,59.13-29.05,93.34-.45,6.3-.72,12.54-.99,18.97-.03.83-.52,1.64-1.14,2.45-.18,17.12-.24,34.24-.12,51.14,1.84,12.69,3.98,25.19,6.43,37.49l18.1,50.1c5.34,10.13,7.48,24.48,7.36,35.8,3.55,23.15,8.13,46.57,14.78,69,.93,11.59,2.96,22.97,6.11,34.15-.45,12.08-.25,23.5,2.55,35.61,1.18,15.07,3.66,30.49,7.71,44.96,1.51,17,3.56,34.32,6.3,51.02-.49,32.12-.72,64.07-.69,95.85-2.57,14.66-5.59,29.28-9.06,43.86-7.41,15.35-11.77,32.68-14.43,49.68-6.68,19.86-11.61,40.85-12.06,61.82-3.42,18.84-7.33,37.57-11.73,56.19-4.35,32.25-1.84,64.82,1.77,97.14-.32,13.53.05,26.97,1.12,40.32-1.5,4.07-2.17,8.93-1.51,13.28-4.66,27.19-1.36,51.47,4.07,78.01,2.45,12,5.12,23.84,8.58,35.36l-.46,2.58c4.2,16.26,7.57,31.81,9.85,48.43.41,2.98,2.01,18.11.55,19.75-.82.93-1.82,1.08-2.93.54-10.45-31.52-21.08-62.96-31.88-94.32-1.49-11.9-3.82-23.91-6.97-36.01-1.87-2.22-2.25-7.41-.52-9.89l.48-22.54c1.74-22.31,1.83-44.81.26-67.52l1.07-2.61c-3.78-32.98-6.05-65.91-2.6-99,8.68-28.52,13.18-58.39,14.69-88.06,5.08-18.22,9.43-37,13.54-55.49,7.21-18.64,13.47-37.58,18.78-56.81,2.74-23.04,2.01-46.73,1.21-70.13.65-16.43,1.2-33.18-1.51-49.51l.87-3.89c-2.14-19.14-4.72-37.97-8.02-56.91-2.93-24.88-6.72-49.56-11.39-74.06-.64-14.54-3.11-29.46-7.7-43.23-4.21-20.73-7.65-41.26-10.33-61.6-5.44-18.38-11.85-36.36-18.93-54.11.39-.93.63-1.82.4-2.56-6.09-19.31-11.22-37.07-12.16-57.46.16-34.56,2.19-68.76,6.11-102.61,4.72-21.49,10.25-41.76,23.12-59.6,20.38-20.85,30.36-44.65,36.58-73.32l1.67-1.73c3.73-.7,4.15-2.81,8.55-1.08,4.46,1.75,4.11,3.78,5.45,7.08Z"/>
  <path class="cls-27" d="M158,209c-3.63,14.13-7.11,29.23-12.82,42.68-8.12,19.14-27.76,32.32-35.66,52.34-12.33,31.26-13.68,55.55-15.63,88.37-1.74,29.43-3.59,61.04,3.22,90,5.64,23.96,18.65,50.67,24.62,74.38,2.16,8.57,3.12,20.48,4.98,30.02,6.05,31.04,12,60,16.54,91.46,7.3,50.48,17.61,101.33,17.7,152.21.05,28.05,3.14,66.25-2.03,92.96-2.95,15.24-11.12,30.56-15.42,45.58-4.84,16.92-10.47,37.72-14.19,54.81-3.69,16.95-3.82,34.42-6.46,51.54-2.66,17.27-8.62,33.94-10.73,51.27-4.47,36.8,2.54,71.7,2.82,107.83.09,11.01.3,22.08.09,33.08-.29,15.21-3.47,36.17-1.92,50.84,1,9.41,5.85,28.73,8.17,38.82,4.9,21.28,12.12,36.91,19.18,56.82,4.3,12.12,7.04,24.91,11.53,36.97,1.74.24.94-2.27.99-3.48.64-17.07-4.22-35.6-7.66-52.35-7.01-34.16-18.41-69.35-17.38-104.7.32-10.92,2.63-22.95,3.03-33.97,1.89-51.26-11.07-101.44.31-152.69,4.34-19.57,7.75-36.37,10.58-56.42,5.71-40.5,16.82-71.6,27.84-110.16,7.96-27.84,6.29-48.81,6.24-76.67-.03-17.69.97-36.57.09-54.08-1.71-33.82-11.1-68.15-15.03-101.97-1.22-10.54-.47-22.4-2.12-32.88-4.73-30.17-13.84-59.94-18.77-90.23-1.24-7.59-.93-15.93-2.39-23.61-4.73-24.8-19.71-51.44-25.46-76.54-6.53-28.52-5.86-59.89-3.87-88.92,2.25-32.73,3.8-64.57,20.79-93.62,7.88-13.47,21.21-25.27,27.66-38.34,7.02-14.21,11.28-30.07,15.14-45.36.11.27,1.77.35,1.77,2.23,0,2.55-1.5,8.05-2.27,10.77-2.68,9.5-9.14,28.99-13.75,37.25-3.55,6.34-12.42,14.39-17.16,20.85-5.6,7.64-10.81,15.72-14.59,24.41,10.98,1.74,21.35,5.52,28.4,14.58,2.73,3.51,9.82,16.92,3.87,18.69-10.8,3.21-20.88-2.95-27.11-11.45-3.71-5.07-4.58-10.55-8.16-15.33-4.48,14.45-8.94,29.29-10.05,44.46-.6,8.24,1.3,16.48-1.96,24.53,3.5.31,7.1.69,10.35,2.16,2.18.99,14.3,11.66,16.21,13.79,1.7,1.91,6.53,14.02,5.44,15.05-11.92,1-24.7-8.32-32-16.99-1.16.14-.42,2.78,0,4-1.16,7.05-1.22,13.76-1.01,21,10.23-.08,21.52,8.48,26.52,16.98,3.5,5.95,7.27,12.13-2.26,13.79-11.59,2.01-17.45-7.38-23.03-15.46-.6-.88.17-1.87-2.23-1.3.18,11.75,2.2,23.49,5.09,34.9,13.3-.15,35.26,10.82,42.74,21.76,1.6,2.34,6.91,13.5,7.15,15.93.85,8.38-13.87,5.39-19.02,2.95-11.89-5.62-20.07-14.55-26.47-25.57-.36-.62-.87-3.74-2.49-1.96-.53.58,5.34,12.43,6.04,14.45,1.57,4.55,2.27,9.4,3.94,14.06,1.21,3.37,7.69,22.55,8.5,23.5.46.54,10.66,2.93,13.56,4.44s17.88,10.66,10.94,14.03-15.57-.7-19.97-6.48c.51,2.13.56,8.8,1.43,10.06.41.6,10.58,2.08,13.1,2.9,6.38,2.08,14.1,7.43,18.86,12.14,1.63,1.61,12.77,13.46,7.02,14.78-.61.14-10.99-1.05-12.43-1.37-2.48-.55-12.06-4.35-14.33-5.67-3.88-2.26-7.52-6.68-10.65-9.84l10.2,56.3c1.1,2.92,5.26-.27,8.34-.33,17.57-.38,33.87,13.6,45.36,25.62,5.26,5.5-4.51,5.2-8.92,5.42-2.86.8-5.86.8-9,0-13.32-1.99-21.45-6.85-31.99-15-1.18,1.47,6.93,25.68,4.99,29.99,14.62-1.66,23.31,7.64,32.02,17.51-.11,1.28.62,1.78-.69,2.5-7.47,4.12-16.89,1.34-23.26-3.58l-7.06-6.43,1,16c14.07-3.9,33.96,6.07,38.49,20,2.42,7.45,2.01,8.54-6.03,8.03-10.74-.67-23.71-7.77-30.45-16.04l6,39c5.14-3.34,10.96-2.44,16.31.18,5.81,2.86,17.7,13.61,14.68,20.82-3.21-1.67-6.59-.58-10.03-1.47-2.35-.61-18.3-12.42-18.96-11.53l4.98,45c11-1.35,27.71,7.3,32.09,17.41,1.11,2.56,2.9,9.06-.58,9.59-10.42,1.58-23.18-2.56-30.49-10l-1.02,34c14.23-2.4,26.1,7.73,34.52,17.98,6.82,8.32,11.94,19.45,11.54,30.43-14.87,4.04-27.43-12.65-37.57-21.41l-7.49-12.01v23.5c3.74,2.6,8.44,3.08,12.33,5.67,6.73,4.46,15.3,16.42,14.66,24.83-12.54-1.47-20.41-10.1-26.98-19.99l-9.01,40.99c7.32.32,14.25,11.41,16.76,17.75,1.02,2.58,4.83,12.35.95,12.08-10.41-.73-19.74-13.84-19.72-23.82-.92-.02-1.42.94-1.86,1.63-1.58,2.5-5.84,17.27-6.85,21.15-1.7,6.52-2.89,13.11-3.89,19.77,3.92,3.89,8.2,5.04,12.02,9.53,4.02,4.72,8.51,12.62,8.13,18.96-6.43,3.64-15.68-4-19-9.09-1.73-2.64-1.61-6.51-4.53-7.96-1.53,8.56-5.25,17.22-6.73,25.77s-.39,17.76-3.29,26.22c9.49,1.21,13.59,8.45,17.19,16.33,10.48,22.92.83,21.99-12.61,6.61l-6.06-10.94c.44,7.37-.97,15.14-3.51,22,11.96,1.11,19.28,12.78,23.49,23.02,1.29,3.15,1.1,6.84,1.71,8.53.28.76,2.71-.16,1.8,2.45-12.41,1.06-24.55-7.29-28.53-18.96-.68-2.01.36-5.56-1.46-6.02-.76,7.56-3.06,15.1-3.88,22.62-.43,3.95-1.38,13.3-1.23,16.88.24,5.79,2.88,4.13,6.42,6.67,8.19,5.87,15.1,16.57,15.67,26.82-6.98.6-11.94-3.41-15.83-8.67l-6.16-11.32v15.48c1.85,4.64.57,27.84,3.73,29.52,4.52,2.39,8.69,1.89,13.26,6.78,2.51,2.69,11.17,21.08,10.95,23.73-.31,3.69-11.73.43-14.22-1.48-3.14-2.41-6.24-9.42-9.73-12.02v27c18.92-1.89,34.33,16.5,39.27,33.21,1.29,4.36,3.54,10.05-2.72,10.84-16.97,2.14-34.02-17.08-35.57-33.05-1.88.23-.91,4.51-.99,5.99-.86,1.91-.76,4.09,0,6-.69,9.84-1.89,19.01-2,29-.83,1.9-.84,4.1,0,6,.1,9.59.05,18.52,2.01,28.01,5.67-1.58,11.01-.88,16.55.94,6.34,2.09,21.84,11.73,7,13.1-6.48.6-15.7.31-20.05-5.04.43,11,5.5,21.55,5.6,32.91,7.77-.51,12.99.53,18.92,5.58,11.66,9.92-.14,9.86-8.98,6.98-1.54-.5-7.33-4.2-8.02-3.47,1.38,2.66,3.53,16.81,4.46,18.02.83,1.08,17.76,3.74,23.97,12.04,9.06,12.1-2.86,9.7-10.67,5.67-4.57-2.36-8.07-6.32-11.75-9.74,2.15,8.59,4.4,17.06,5.04,25.95,10.27-.43,22.25.86,27.83,10.56-7.77,8.4-19.57,4.37-26.87-2.51.13,1.57-.41,12.39-1.07,12.94-.32.26-3.17.25-3.78-.11-2.82-1.69-11.55-36.34-14.17-41.83-2.57-.29-1.59,0-2.01,1.45-2.48,8.53-3.11,12.84-9,20.01-13.35,16.26-12.86,1.63-8.46-10.46,2.92-8.01,8.18-15.57,16.48-18.5l-15.5-45.51c-4.71,10.66-12.13,21.74-24.49,23.99-.44-13.96,9.71-28.38,24-30-1.58-10.86-3.8-21.52-7.02-31.99l-9.66,10.82c-5.33,3.31-10.56,8.11-17.33,7.17-1.02-13.36,13.39-28.26,27-27v-24c-6.25,7.8-14.67,19.12-25.91,16.91-.68-9.79,7.38-22.13,16.39-25.93,2.53-1.07,9.09-1.73,9.44-2.06.5-.46,2.16-11.96,2.16-13.42,0-2.61-1.2-5.06-1.13-7.95.19-7.57,1.07-14.99,1.04-22.54l-10.51,10.97c-6.23,4.07-12.42,9.58-20.48,9.03-.09-14.45,15.93-32.66,31-32.01-.95-14.77-4.87-29.13-4.01-43.99l-6.34,8.64c-3.06,2.86-20.13,12-20.68,4.86-.67-8.71,16.96-24.43,26.04-23.5l.99-36.99-10.94,15.54c-5.56,4.66-11.88,9.23-19.02,10.99-4.97,1.22-10.26,3.4-10.06-2.98.65-20.7,20.68-39.13,41.37-35.5,8.78-27.35,11.46-56.41,14.65-85.05l-7.95,10.53c-6.25,4.48-12.9,9.41-21.03,9.46-.47-7.49,6.02-19.19,12.06-23.44,4.37-3.08,13.77-6.81,18.93-5.55l9-36.01c-3.39,2.86-5.54,6.6-9.07,9.42-9.76,7.78-38.62,16.86-22.89-4.89,8.73-12.08,20.53-14.88,34.76-16.73l10.21-30.79c-6.28,8.38-40.84,16.17-22.53-1.04,6.87-6.46,17.38-10,26.61-10.49l3.93-15.46c-6.56,9.08-12.71,11.91-23.99,11.99.51-11.4,14.03-20.16,24.99-20v-48.99s-8.97,11.52-8.97,11.52c-4.23,3.52-22.69,12.49-27.45,11.35-4.31-1.03.94-12.96,2.24-15.56,6.22-12.44,20.01-21.49,34.19-20.31l.99-39-10,12.49c-8.98,7.24-23.21,15.22-15.17-4.17,3.68-8.86,13.63-20.57,24.18-19.32-1-10.01-3.72-19.85-3.02-30-2.62,3.2-16.73,12.06-19.56,8.05-2.13-3.02,5.58-14.7,8.15-16.97,2.17-1.91,7.9-3.26,8.33-4.71.59-1.98-2.81-11.44-2.93-14.37l-6.57,11.91c-1.35,5.43-26.51,17.61-27.49,11.47-1.29-8.14,20.76-37.14,32.03-36.43-.38-7.86-2.12-15.67-2.94-23.47-.44-4.16.36-8.64-.12-12.88-.13-1.16-2.34-11.13-3.88-9.08-3.2,4.25-6.19,10.61-9.46,14.53-4.49,5.36-21.76,19.35-28.28,20.72-10.43,2.19-8.55-2.5-6.98-9.97,4.69-22.27,18.76-41.25,42.66-43.84,1.76-1.8-4.92-34-5.96-38.95-9.72,9.42-24.04,20.28-38.49,18-4.38-.69-.49-7.2,1.09-9.92,4.27-7.35,14.72-14.06,22.87-16.13,4.14-1.05,6.53-.46,10.08-.94,1.49-.2,1.61.56,1.48-1.5-.29-4.41-1.91-12.58-3.01-17.01-.33-1.33-.02-2.59-1.51-3.49-2.16,10.25-9.32,19.58-20.47,19.97-1.95-9.76,5.6-18.08,12.47-23.98,2-1.72,6.24-2.34,6.42-5.42-2.34-7.66-1.49-16.18-3.17-23.83-1.26-5.74-4.71-10.98-6.46-16.54-2.09-6.62-3.48-14.42-5.3-21.21-1.3-.29-1.19,1.04-1.48,1.99-3.91,12.82-8.9,33.63-21.98,40.02-4.95,2.42-7.04,2.22-9.59-3.45-5.69-12.65,1.86-35.18,11.52-44.61,2.6-2.54,15.47-9.35,15.52-11.39.09-3.51-6.57-17.2-7.73-22.31-1.79-7.94-2.46-18.11-3.26-26.25l-5.99,10.49c-7.98,8.83-15.53,16.02-27.99,17.5-1.18-19.07,13.27-39.2,32.99-40v-41.99s-6.03,8.47-6.03,8.47c-3.17,4.2-12.33,10.53-17.47,10.53h-14.5c-1.43-18.25,21.38-37.34,38.99-33l3-25c-6.65,10.02-17.09,18.57-29.87,16.88-3.78-15.31,16.3-28.59,29.81-29.96,1.25-13.15,6.38-25.51,10.61-37.89,2.78-8.12,3.91-14.18,9.02-21.98,14.01-21.38,24.33-25.43,33.46-52.54,1.45-4.32,7.55-28.9,9.6-29.43.65-.17,1.3.93,1.38.91Z"/>
  <path class="cls-37" d="M197,661c-2.55,2.71-6.7.34-9,0,2.99-.1,6.02.15,9,0Z"/>
  <path class="cls-16" d="M131,1302c-1.61-.95-1.64-4.99,0-6-.02,2-.02,4,0,6Z"/>
  <path class="cls-6" d="M133,1267c-1.61-.95-1.64-4.99,0-6-.1,1.99.14,4.02,0,6Z"/>
  <path class="cls-39" d="M111,400c-.14,1.28.2,2.79,0,4-1.81-1.19-.83-4.16-.99-6h.98c.13.59-.18,1.77.01,2Z"/>
  <path class="cls-18" d="M138.99,664.99l1.01,4c-6.71,1.17-14.12,6.93-19.02,11.49-2.11,1.97-7.08,5.67-5.49,8.51,1.89-2.91,22.71-19.9,24.49-17.99.24.26.73,3.92.48,4.92-1.35,5.47-15.72,22.58-20.46,26.59-5.81,4.92-14.54,11.12-22.03,12.05-2.37-1.61,1.91-16.19,2.98-19.1,5.99-16.16,21.01-28.21,38.03-30.47Z"/>
  <path class="cls-18" d="M101,510.01c-5.35,8.65-14.52,19.92-15,30.51-.09,2.07-.59,2.88,1.98,2.48-1.66-5.15,12.92-31.85,15.51-31.98,2.11-.1,1.48,6.88,1.37,8.36-.88,11.05-11.34,38.36-22.16,42.85-4.43,1.84-5.22-1.2-6.26-5.17-4.49-17.19,7.14-41.21,24.56-47.05Z"/>
  <path class="cls-18" d="M180.01,864c.4-.48,9.54,6.25,10.47,7.02,2.75,2.29,10.07,11.13,12.04,11.97,1.18.51,1.99-.29,1.48-1.48-.38-.89-9.88-10.14-11.47-11.54-3.89-3.43-8.68-5.95-12.52-9.48,3.34-1.94,6.74-1.46,10.24-.23,12.19,4.32,26.63,22.51,30.04,34.95,1,3.64,3.43,8.84-1.74,8.84-11.3,0-38.6-26.87-38.53-40.06Z"/>
  <path class="cls-18" d="M142,493.99c-1.57-2.73-5.07-3.08-7.5-4.99-4.03-3.18-7.49-7.71-11.5-10.99,18.52,4.66,33.5,15.56,38.98,34.5-9.42,6.59-23.22-4.23-30.45-10.53-7.69-6.7-12.08-14.4-15.53-23.96,3.44-2.91,19.36,19.43,26,15.98Z"/>
  <path class="cls-18" d="M135.01,1249l10.99,8.5c2.53,2.79,8.89,14.68,10.52,15.48s1.74-.59,1.08-2.08c-4.57-10.24-13.05-17.12-20.59-24.9,14.03,1.74,24.75,13,30.17,25.32,5.69,12.94,6.19,18.87-9.87,11.87-12.82-5.6-20.83-20.75-22.3-34.19Z"/>
  <path class="cls-18" d="M107,1120.01l-12.47,9.02-4.53,4.47c.79,1.44,2.57.06,3.52-.49,2.22-1.29,13.44-11.73,15.48-10.01-6.66,15.58-18.69,31.07-37,31.99-.35-19.41,15.78-35.14,34.99-34.99Z"/>
  <path class="cls-18" d="M204,657.99c-18.47,4.45-40.77-4.41-50-20.98,11.02-.63,21.04,7.73,30.71,9.79,2.12.45,2.62.63,2.29-1.79-10.77-3.43-20.48-9.51-31.99-10.51,1.15-1.67,2.72-1.42,4.44-1.55,17.82-1.36,33.47,12.64,44.56,25.04Z"/>
  <path class="cls-15" d="M91,392c-3.64.87-3.97,1.21-1,1-2.56,11.1-10.83,22.79-22.58,24.92-1.11.2-13.39,1.24-13.43.57,1.08-14.35,20.28-30.86,34.5-28.47,1.1.18,2.42.67,2.51,1.98Z"/>
  <path class="cls-18" d="M156.99,850c.52,2.98-.79,1.58-2.34,2.11-5,1.68-10.24,3.02-13.65,7.4,3.07,1.54,13.76-7.26,15.99-5.49-3.33,16.39-19.87,24.8-35,26.98,3.65-17.33,17.08-30.28,34.99-30.99Z"/>
  <path class="cls-18" d="M127.01,316.01c3.33,2.69,11.31,13.62,14.5,14.99,1.18.51,1.99-.29,1.48-1.48-1.27-2.95-12.12-11.38-13.99-15.5,11.26-.25,27.36,12.68,28.81,23.75.45,3.42.08,3.88-3.27,4.3-14.25,1.76-25.57-13.48-27.53-26.05Z"/>
  <path class="cls-15" d="M89,447.99c-4.5,1.7-18.43,12.89-19.99,16.53-.51,1.18.29,1.99,1.48,1.48,1.62-.7,17.31-18.13,19.51-15.98-5,14.55-14.91,28.29-30.99,30.99,1.46-13.54,9.03-26.86,21.75-32.74,1.89-.88,7.64-3.24,8.24-.27Z"/>
  <path class="cls-15" d="M200,726.99c-11.99.49-23.56-4.28-31.53-13.01-.66-.72-5.1-5.43-4.46-5.98,5.63-1.36,16.78,7.3,20.48,7.01.88-.07.67-1.8.5-1.99-2.08-2.47-16.24-6.37-19.99-7.51,6.16-4.23,18.76.85,24.32,4.67,4.97,3.41,9.57,10.93,10.67,16.82Z"/>
  <path class="cls-15" d="M209,831c-7.63,1.17-32.44-5.82-31.07-15.48.12-.87.92-2.46,1.56-2.49,2.01-.12,10.95,7.15,13.02,7.96,3.21,1.26.2-4-1.59-4.42l-12.92-7.56c12.87-1.86,30.15,8.44,31,21.99Z"/>
  <path class="cls-15" d="M144,731c.81,1.12.07,2.49-2.21,4.13,2.11-3.02,4.18-4.07,6.21-3.13-.43,15.18-15.67,28.55-29.99,31,3.15-12.05,13.46-28.36,25.99-32Z"/>
  <path class="cls-15" d="M130,980c1.8-.4,2.46-.07,2,1-4.46,1.75-9.69,2.52-12.99,6.51,2.91,1.42,15.7-6.72,16.99-5.5l-7,10.49c-7.66,6.62-16.53,11.4-26.99,10.5,3.29-14.11,14.8-20.09,28-22.99Z"/>
  <path class="cls-15" d="M138,451.99c-14.45,5.45-24.56-8.91-27.99-20.99,3.05,1.66,6.11,3.52,8.91,5.58.73.54,7.08,7.39,6.06,2.93-.93-4.09-11.48-7.88-13.98-11.51,12.59.14,24.01,12.18,27,23.98Z"/>
  <path class="cls-25" d="M128.99,618.01l-21.98,9.5c-.4,2.06.82,1.7,2.29,1.29,5.9-1.65,12.84-7.5,19.7-6.8-4.91,6.5-15.73,15.16-23.72,16.77-3.73.75-7.69-.69-11.27,1.22,3.17-13.66,21.55-24.41,34.98-21.99Z"/>
  <path class="cls-25" d="M146,565c13.49,2.73,25.35,10.77,32,22.99-14.68.01-30.29-7.27-37-20.98,1.99-1.67,17.2,9.85,20.99,7.49-5.08-3.11-10.44-6.34-16-8.5-.87-.28-.86-.62,0-1Z"/>
  <path class="cls-25" d="M94,353.01l-10.47,7.02c-1.52.27-6.91,7.65-3.04,5.96,1.28-.56,11.03-10.49,12.51-8.99-3.28,12.11-14.67,20.38-26.99,20.99-.26-13.22,15.79-24.69,27.99-24.99Z"/>
  <path class="cls-15" d="M159.99,1125c-12.85-2.54-23.33-12.29-22.98-26l8.49,9.99c3.35-3.54-9.02-12.44-7.5-13.99,12.28,4.64,20.23,17.36,21.98,30Z"/>
  <path class="cls-25" d="M109,1224.01c1.54,1.3-5.92,6.73-5.98,7.49-.06.86.96,1.5,2.48.5,2-1.31,3.95-4.47,6-6,.74,4.03-4.9,11.13-7.97,14.03-2.45,2.31-16.92,12.25-19.53,9.96,3.64-11.13,12.9-24,24.99-25.99Z"/>
  <path class="cls-23" d="M118,390c8,2.41,21.51,15.84,21.99,25-1.67,1.66-17.7-7.5-20.02-9.47-1.62-1.38-12.73-13.17-7.48-13.5,3.11,1.92,6.48,3.33,9.42,5.56,2.34,1.79,9.67,11.49,10.07,5.43-3.48-1.89-6.31-5.53-9.65-7.85-2.37-1.64-4.74-2.95-7.33-4.17-.56-1.08.44-1.42,3-1Z"/>
  <path class="cls-23" d="M158,800c-.54,2.26-.2,3.59,1,4-.47,2.17-11.63,15.7-13.98,17.52-1.38,1.07-10.31,6.26-11.02,5.47.15-10.51,12.57-28.13,23.99-27Z"/>
  <path class="cls-23" d="M118,1028.01c-1.59,3.01-7.73,4.48-8.99,7.5-.51,1.21.27,1.94,1.47,1.47,1.12-.44,12.77-9.87,13.51-8.99-4.14,10.88-14.23,20.49-25.99,21.99,3.12-9.41,9.6-19.86,19.99-21.98Z"/>
  <path class="cls-29" d="M107,1280.01c-1.78,3.46-7.92,6.9-8.98,10.51-.36,1.21.29,2.09,1.47,1.47,1.87-.97,6.2-9.53,10-10,1.51.76-.24,2.42-.66,3.34-3.47,7.58-13.12,17.24-21.83,17.66,2.85-10.57,8.17-20.98,20-22.98Z"/>
  <path class="cls-23" d="M143,1208c6.2,5.65,7.79,14.51,11,21.99-5.94,4.43-24.48-17.63-19.5-24.99,5.03,3.78,7.48,9.4,11.49,13.99.37-3.22-2.05-7.53-3.99-10-1.33-1.41-.77-1.92,1-1Z"/>
  <path class="cls-28" d="M147,1064c1.71,1.09,2.58.79,4.53,2.97,2.94,3.29,9.26,17.24,9.49,21.53.07,1.37.12,1.94-1.49,1.48-7.67-2.19-17.03-16.87-16.04-24.97,3.52,2.73,5.37,6.64,7.93,10.1.36.49,1.12,3.7,2.57,1.89,1.22-1.52-5.61-10.43-6.99-11.99v-1Z"/>
  <path class="cls-23" d="M174,681c.61.26,1.84-.02,2.9.56,4.92,2.7,8.68,7.58,12.08,11.94-10.22,5.45-21.26-3.72-25.98-12.49,5.71-1.4,10.21,4.54,13.51,5.98,3.55,1.55-.03-3.51-2.51-4.99-.54-.3-.53-.64,0-1Z"/>
  <path class="cls-28" d="M103,1171.01l-10.01,11.48c1,1.66,2.22-.32,3.02-.98,3.57-2.98,6.62-6.8,10.5-9.5-.04,10.82-11.93,17.45-21.5,18.99-.11-7.64,7.84-14.89,13.95-18.54,1.33-.79,2.04-1.97,4.04-1.45Z"/>
  <path class="cls-33" d="M96,1321c.34,1.56-1.35,3.75,1.64,2.15,1.62-.87,10.52-6.99,11.35-6.14-2.83,9.55-13.35,17.01-22.48,20.01-.01-6.52,3.91-11.84,8.49-16.01h1Z"/>
  <path class="cls-28" d="M193.99,912.99c1.6-1.68-6.66-9.11-7.99-10.5,5.8-.27,11.44,8.31,14.16,12.84,1.39,2.31,2.13,5.03,3.82,7.18.9,2.79-13.85-6.18-14.9-7.1-1.67-1.47-9.33-12.12-8.09-13.4,3.46-.86,11.24,12.83,12.99,10.99Z"/>
  <path class="cls-34" d="M132.01,1411.01c1.93-.18.81,3.09.55,4.05-2.13,7.74-7.79,19.29-15.56,21.93,1.26-10,4.03-21.09,12.99-26.99-1.07,3.94-4.42,6.72-5.81,10.69-.56,1.62-2.02,1.61.32,3.29l7.51-12.97Z"/>
  <path class="cls-34" d="M173,1021.99c-8.85.9-17.28-10.64-17.99-18.99,3.38,1.04,6.41,8.94,8.5,9.99,1.63.82,1.87-1.06,1.34-2.35-.92-2.22-5.75-5.91-6.85-8.64,5.41-1.35,16.91,18.2,14.99,19.98Z"/>
  <path class="cls-34" d="M148,937.01c-1.87,2.84-8.65,4.29-9.99,7.5-1.9,4.57,8.75-4.52,9.99-3.5-5.15,7.66-15.04,10.94-23.99,10.98-.44-1.89,1.07-2.37,1.99-3.5,4.71-5.78,14.33-11.67,22-11.49Z"/>
  <path class="cls-28" d="M114,1362c-3.98,7.31-8.33,14.58-16.99,17-.65-6.41,7.7-19.18,13.51-20.98.51-.16,1.63-.28,1.48.48l-5.99,7.5c1.67,1.46,5.71-3.68,7-4.99,1.41-1.33,1.92-.77,1,1Z"/>
  <path class="cls-4" d="M177,955c6.36,6.05,8.01,10.35,9.99,19-10.76-2.92-16.07-12.36-16.98-23,4.36,3.19,6.82,8.9,8,14,4.48.87-.3-8.53-1.01-10Z"/>
  <path class="cls-34" d="M147.99,1171.99c-8.83-.52-14.19-11.26-15.98-18.99,4.7,5.43,9.06,8.07,2.99-.99,1.04-1,4.31,2.63,5,3.49,1.57,1.95,9.42,15.1,8,16.49Z"/>
  <path class="cls-28" d="M192,764c.34-2.39,1.01-3.05,2-2,2.38,2.43,4.61,3.79,5.99,7.51-3.09,1.93-6.39,1.06-9.31-.7l-16.67-10.8c4.68-3.15,16.92,6.07,18,5.99Z"/>
  <path class="cls-35" d="M160,1340.99c-9.3.86-18.45,2.41-24-6.98l13,2.98c-1.85-3.17-6.64-3.85-9.99-4-.26-1.69,2.41-1.09,3.47-.98,6.02.62,14.07,3.74,17.52,8.98Z"/>
  <path class="cls-28" d="M121,594c-3.08,7.87-5.04,14.54-15,15.99.25-5.65,3.42-9.94,7-13.99h1c-.09,5.2,4.15-.91,6-3,1.41-1.33,1.92-.77,1,1Z"/>
  <path class="cls-11" d="M179,1443.99c-7.84,3.32-16.26,1.28-21-5.98,1.98-.32,10.37,3.56,10.99,2.99,1.2-1.09-1.31-2.6-2.41-3.08-1.79-.77-5.19-.16-5.58-1.91,6.18-.24,15.99,1.07,17.99,7.98Z"/>
  <path class="cls-30" d="M152.99,758.01l-7.03,5.46c-1.9,1.77-5.94,8.46-1.47,5.54,2.75-1.8,5.57-6.31,9.01-8,2.96,5.5-13.15,15.12-15.5,12.99,1.85-7.32,6.66-15.42,14.99-15.99Z"/>
  <path class="cls-5" d="M149,915.01c.59,1.43-5.94,3.43-3.99,4.98s7.78-5.15,8.99-3.99c-2.76,7.76-9.86,11.7-17.99,10.99-.7-.59,5.21-7.88,5.94-8.55.95-.86,6.17-4.18,7.05-3.44Z"/>
  <path class="cls-11" d="M144,545c5.12,2.23,8.32,3.92,12.73,7.71.52.45,2.72.68,1.27,2.28-.92,1.01-6.52,1.14-8.26.79-3.53-.71-5.65-3.2-7.73-5.78-1.33-1.41-.77-1.92,1-1,.69.39,2.62,1.75,3.01.49.15-1.98-1.96-2.52-3.01-3.49-1.33-1.41-.77-1.92,1-1Z"/>
  <path class="cls-26" d="M162.99,1410.99l-4.99-5.99c6.43,1.54,12.14,6.08,15,11.98-4,.32-7.95-1.13-11.34-3.15-1.33-.79-9.91-7.44-8.65-8.84,3.85,1.18,5.8,5.83,9.99,5.99Z"/>
  <path class="cls-7" d="M91,392c.07.95-.54.7-1,1-4.37,2.81-9.03,5.08-13.31,8.19-2.87,2.08-12.72,11.17-14.2,11.81-1.18.51-1.99-.29-1.48-1.48,1.42-3.32,20.27-16.71,24.33-18.71,2.1-1.03,3.2-1.97,5.66-.81Z"/>
  <path class="cls-36" d="M144,731c.88-.26,3.68-1.25,3.99-1,0,.66.03,1.33,0,2-6.01,2.17-8.53,8.76-12.6,12.9-.62.63-2.31,3.18-3.4,2.09-1.46-1.46,10.69-14.25,11.99-15.99Z"/>
  <path class="cls-31" d="M159,804l-5.93,2.57-8.06,8.43c-.28-3.39,2.33-5.89,4-8.49l8.99-6.51c1.37.14,1.27,2.74,1,4Z"/>
  <path class="cls-12" d="M194,762c-.53.53-1.35,1.95-2,2,.59-3.69-2.98-4.57-5.33-6.17l-12.66-3.82c8.38-2.74,14.52,2.42,19.99,7.99Z"/>
  <path class="cls-2" d="M150,1375c3.56.89,7.37,1.87,9.99,4.79,4.19,4.67-.18,3.93-3.99,3.21-2.18-.6-2.15-1.2,0-2-1.29-3.26-5.2-3.89-8-5-.9-.97-.23-1.31,2-1Z"/>
  <path class="cls-24" d="M156,1381c.18.45-.12,1.39,0,2-3.26-.61-8.12-2.1-10-4.99l10,2.99Z"/>
  <path class="cls-19" d="M95,1321c2.94-2.68,6.31-5.66,10.49-6.02,1.57.93-.68,1.24-1.34,1.65-2.57,1.58-5.26,3.5-8.15,4.37h-1Z"/>
  <path class="cls-20" d="M143,1208l-1,1c-.83-1.05-3.66-2.07-4-3.99,2.51-.43,3.53,1.65,5,2.99Z"/>
  <path class="cls-40" d="M174,681v1c-1.94-1.15-4-1.6-6.01-2.5,2.46-2.09,4.72.96,6.01,1.5Z"/>
  <path class="cls-32" d="M118,390l-3,1c-1.28-.6-2.56-1.03-3.99-1.01v-.98c2.96-.67,4.69.3,6.99.99Z"/>
  <path class="cls-17" d="M150,1375l-2,1c-1.31-.52-2.53-1.1-3.99-1.01v-.98c2.54-.83,4.29.56,5.99.99Z"/>
  <path class="cls-10" d="M146,565v1c-1.15-.45-5.02-.75-5.01-1.5,1.41-1.87,4.08.31,5.01.5Z"/>
  <path class="cls-21" d="M114,1362l-1-1c.87-.89,1.42-2.77,2.99-3,.59,2-1.32,2.77-1.99,4Z"/>
  <path class="cls-13" d="M144,545l-1,1c-.94-.86-2.75-1.43-3-2.99,1.98-.68,2.88,1.5,4,1.99Z"/>
  <path class="cls-1" d="M177,955c-1.26-1.2-3.53-1.66-2.99-4,2.28.5,2.3,2.59,2.99,4Z"/>
  <path class="cls-3" d="M121,594l-1-1c.86-.97,1.44-2.73,2.99-3,.71,1.96-1.58,2.95-1.99,4Z"/>
  <path class="cls-14" d="M130,980c1.24-.27,2.88-1.86,5-.99,1.14.52-2.29,1.71-3,1.99l-2-1Z"/>
  <path class="cls-9" d="M147,1064v1c-.77-.87-2.82-1.4-3-2.99,2.11-.75,2.25,1.52,3,1.99Z"/>
  <path class="cls-8" d="M114,596h-1c.86-.97,1.44-2.73,2.99-3,.36,1.66-.54,2.37-1.99,3Z"/>
  <path class="cls-38" d="M143,549l-1,1c-.69-.85-2.66-.85-1.99-3,.39-.48,2.45,1.7,2.99,2Z"/>
</svg>