<?xml version="1.0" encoding="UTF-8"?>
<svg id="Lager_1" data-name="Lager 1" xmlns="http://www.w3.org/2000/svg" viewBox="0 0 1254 1280">
  <defs>
    <style>
      .cls-1 {
        fill: #ef596d;
      }

      .cls-2 {
        fill: #fa5566;
      }

      .cls-3 {
        fill: #d95161;
      }

      .cls-4 {
        fill: #fed4d8;
      }

      .cls-5 {
        fill: #272727;
      }

      .cls-6 {
        fill: #fecbd0;
      }

      .cls-7 {
        fill: #ce3b47;
      }

      .cls-8 {
        fill: #feb6c0;
      }

      .cls-9 {
        fill: #fecfd4;
      }

      .cls-10 {
        fill: #201511;
      }

      .cls-11 {
        fill: #fc6e80;
      }

      .cls-12 {
        fill: #fe7785;
      }

      .cls-13 {
        fill: #fe95a1;
      }

      .cls-14 {
        fill: #f7f7f7;
      }

      .cls-15 {
        fill: #fef8a1;
      }

      .cls-16 {
        fill: #fcfcfc;
      }

      .cls-17 {
        fill: #f29ba3;
      }
    </style>
  </defs>
  <path class="cls-13" d="M825.43,140.72c4.33.93,9.58,3.15,12.02,7.04,3.16,5.05,1.59,16.18.11,21.8-.79,2.99-2.36,8.15-4.06,10.66l-1.22,2.15c-3.17,3.99-5.25,7.88-5.38,12.99-.12,4.47.69,9.91,5.73,11.19.75.07.86.21,1.62-.18,2.45-1.26,1.13-3.49,1.12-5.46-.02-5.24,4.64-9.78,9.27-11.47,8.73-3.2,16.02-1.02,24.27,2.24,11.05,4.36,21.86,14.29,24.18,26.3.47,1.97-1.19,3.09-1.99.68-.19,5.15-3.01.98-3.88-1.18.62,1.11,1.04,2.27,1.24,3.5-.08,3.45-4.15-.08-5.12-1.17.4.67.77,1.48.36,2.24l-.3.03c.29.81-1.22.92-1.79.58-1.22-.92-2.29-2.02-3.22-3.3,1.01,2.93-1.95,3.03-3.68,1.6-1.59-1.28-3.03-2.8-4.39-4.35l.78,2c1.04,4.01-2.68,2.17-4.19.59-1.17-1.22-2.34-2.44-3.39-3.77.54,1.21,1.07,2.44,1.44,3.72.23,3.27-2.68,1.04-3.82-.12-1.69-1.71-3.05-3.68-4.26-5.81.27,1.18.32,2.38.21,3.53-.14,1.44-.45,2.97-2.25,1.64-2.5-1.84-4.25-7.13-5.11-9.9,0-.01.06.12-.1.17.6,2.13.83,4.3.96,6.46.14,2.48.14,6.01-1.97,7.72-2.24,1.81-8.88,1.81-11.64,1.02-5.77-1.67-11.64-8.54-14.64-13.5-1.25-2.07-2.49-4.29-3-6.66-.34-5.1.14-10.27,2.02-15.06,1.1-2.81,3.29-5.18,4.94-7.73,2.76-4.28,4.59-8.2,6.58-12.86l.81-2.27c1.87-4.09,2.9-10.07-.28-13.77-1.66-1.93-2.69-1.79-4.08.13-1.55,2.73-3.17,5.48-6.01,7.2-.66.16-1.31.27-1.99.37l-.13-.41c.66-2.34,1.35-4.66,2.08-6.96l.29-.21.09-.12c2.4-.14,2.7-3.04.53-3.85l-.28.1c-1.79-1.03-3.57.34-3.03,2.35l-.17.28c.15.55-1.08,1.14-1.59,1.19-1.1-.18-2.05.27-2.85,1.37l-.28-.08-.23-.35c.3-3.88,1.06-8.8,4.38-11.29.84-.63,1.6-.98,2.68-1.03h2.61Z"/>
  <path class="cls-14" d="M823.32,152.02c.21-.04.29,0,.25.12-.15,1.04-.73,1.95-.94,2.97-.36,1.78-.76,2.88-1.3,4.6-.37,1.18-.76,2.39-.99,3.6-1.35-.8-3.06-2.48-2.36-4.22l-.21-.11c-1.62,1.2-2.85,2.81-3.68,4.85-.15.2-.33.17-.54.06-1.27-1.56-2.51.03-3.12,1.3l-.27.12h-.12c.06-.67-.08-1.46,0-2.11.42-3.49,3.47-7.47,5.96-9.81.6-.56,1.46-1.57,2.3-1.62.27-.02.51.1.72.09.65-.04,1.23-.55,1.69-.95l.29.03c.5.63,1.23.91,2.19.83l.12.26Z"/>
  <path class="cls-11" d="M849.63,208.66l.16.05c1.13,3.43,2.61,7.43,4.83,10.32,2.46,3.22,2.55-.32,2.48-2.27.03-.08.06-.14.12-.17.66-.29,4.31,3.08,4.6,3.97.89,1.28,4.14,3.58,2.99.32-.05-.25.03-.44.28-.53.27-.09,4.23,1.26,4.68,1.95.69.38.91.39,1.54-.06,2.64.41,5.26.92,7.86,1.54l.13.28c-.88.15-1.7.87-2.52,1.27-3.09,1.48-7.61,2.5-11.01,2.96-.2.28-.52.4-.97.36-.6.14-1.11.11-1.52-.11-4.98.46-8.76.22-13.66-.62-.6.29-1.9.12-2.36-.37-13.1-2.63-26.92-8.64-27.93-23.85,2.51,6.4,6.23,11.72,11.42,16.21,2.39,2.07,4.56,3.56,7.78,4.01,2.52.35,8.68.4,10.4-1.73,2.02-2.52,1.44-6.56,1.19-9.61-.11-1.31-.28-2.62-.5-3.91Z"/>
  <path class="cls-17" d="M849.63,227.91l1.87,17.94c.34.96,1.54,2.12,1.61,3.11.08,1.16-1.03,2.49-1.38,3.6.08,11.93-.09,23.86,0,35.78.02,2.41.42,5.46.13,7.82-.24,1.96-3.04,3.35-4.8,3.52-.61.06-3.03.32-2.53-.73-2.37.45-7.38-.08-2.52-2.21.84-.37,1.98-.74,2.86-.99,1.63-.45,3.33-.43,4.75-1.36-.03-1.94.02-3.88,0-5.82-.13-10.66,0-21.39-.26-32.04-.03-1.31.18-3.14.01-4.36-.07-.47-.69-1.14-.88-1.73-.6-1.84.06-2.96.76-4.6l-1.99-18.32c.73.15,1.6.24,2.36.37Z"/>
  <path class="cls-17" d="M865.77,228.29l1.75,17.07c.34,1.31,2.03,2.67,1.67,4.05-.2.76-1.3,2.14-1.43,2.8-.33,1.76,0,5.73,0,7.76.03,9.81.07,19.46.12,28.94v2.61c.14,1.39.07,2.82,0,4.22-.46,2.84-4.18,4.12-6.76,3.72-.78-.12-.48-.63-.57-.73s-2.16.15-2.65.1c-.76-.07-2.72-.39-1.54-1.38,1.06-.89,3.91-1.81,5.31-2.14s2.81-.29,3.98-1.14c.07-14.08-.11-28.14-.12-42.22-1.37-1.83-1.56-3.99-.28-5.98-.62-5.61-.79-11.42-1.71-17-.04-.23.14-.5-.25-.43.77-.07,1.7-.14,2.48-.25Z"/>
  <path class="cls-5" d="M810.16,165.31c.01-.61,1.2-2.01,1.79-2.24.76-.3,1.36.23,1.87.75.77-1.24,1.34-2.77,2.36-3.85.24-.25,1.48-1.26,1.74-1.36.35-.14.06.4.06.5-.28,1.14-.77,2.24-1.47,3.29-.24.47-.47.95-.67,1.44-.5,1.25-.53,1.73.46,2.65,1.19,1.09,1.91,1.04,3.2.09.31-.15.44-.12.46.24-.06,2.07,0,4.57.43,6.59.13.6.77,2.06.76,2.42-.04,1.07-1.1,1.01-1.85.66-.87-.4-3.51-2.3-4.36-2.96-2.14-1.68-4.84-5.37-4.78-8.2Z"/>
  <path class="cls-2" d="M849.63,208.66c-.06-.23-.27-1,0-1.12.48,2.02,1.24,4.12,2.13,6.01.59,1.25,2.68,5.12,4.27,5.04,1.28-.07.85-3.44.8-4.28l-.43-2.42c1.2,2.02,2.36,4.11,3.91,5.9.65.74,3.13,3.42,4.16,2.68.92-.65-.44-2.89-.63-3.73l-1.24-2.73c1.59,1.7,3.07,3.83,4.84,5.34,1.58,1.35,4.43,2.76,3.39-.78l-1.27-3.2c1.29,1.47,2.64,3.04,4.09,4.35,1.09.98,2.15,2.06,3.73,1.86,1.03-.13,1.02-.9.9-1.77l-.65-1.71c.89.9,3.26,4.21,4.37,4.44.59.12,1.06.05,1.4-.47.41-.6.65.47.69.87.07.69.08,1.65-.81,1.61-1.31-.2-2.65-.26-3.97-.5-1.05-.19-7.69-1.73-8.06-1.55-.11.05-.18.24-.34.29-.93.29-1.89-.84-2.61-1.19-.92-.43-2.16-.51-3.07-1.02-.41-.12.03.76.06.94.18,1.43-.44,1.53-1.59.97-1.77-.86-2.8-3.06-4.1-4.22-.63-.56-1.64-.97-2.3-1.55-.02,1.27.49,4.88-1.76,3.5s-5.16-8.96-5.87-11.58Z"/>
  <path class="cls-1" d="M883.4,222.08c.79-1.23-.66-2.33-.99-3.48,1.04.88,3.62,3.74,5.02,3.6,1.79-.18.06-3.61-.36-4.47s-1.06-1.69-1.43-2.61c.81.67,1.49,1.71,2.04,2.62.42.69,1.41,3.34,2.47,3.08,1.42-.36.36-4.48-.03-5.45.72.9.78,2.15,1.22,3.19.23.55.78,1.84,1.37.95.33-.51.15-1.04.39-1.53,2.41,3.58,4.59,7.27,6.35,11.22.23.51.93,1.74-.03,1.14-1.32-.82-2.41-2.26-3.89-3.07-1.06-.58-2.11-.78-3.19-1.1-.03.11-.07.11-.12,0l-.25.08c-2.21-.71-4.61-1.03-6.95-1.22l1.92,1.29.06.36c.37.05.45.17.25.37-1.24-.49-2.69-2.29-3.97-2.48.8-.55.66-1.3.43-2.11-.06-.21.02-.44-.31-.37Z"/>
  <path class="cls-11" d="M832.88,168.04c1.25-4.85,2.48-10.46-.31-15.03-.16-.26-.56-1.05-.93-.81l-4.41,5.16c-1.19,1.02-2.41,1.63-3.91,1.99l-.31-.12c1.92-1.18,3.45-2.78,4.63-4.68.91-1.47,2.52-5.51,4.87-3.7,4.18,3.22,3.58,9.46,1.92,13.85-.43,1.15-1.07,2.23-1.55,3.36Z"/>
  <path class="cls-11" d="M828.41,193.88c-.11,1.19-.18,2.44,0,3.6.16,3.17,1.12,7.55,4.22,9.07-6.37-.6-6.56-10.44-5.5-15.13.99-4.38,3.93-7.62,6.37-11.2-.72,1.93-1.78,3.75-2.63,5.63-1.23,2.72-2.3,4.96-2.46,8.03Z"/>
  <path class="cls-6" d="M820.34,163.32c-.25,1.26-.33,2.19-.37,3.48-.2-.16-.32-.03-.48.07-.71.41-1.07.81-2,.62-.69-.14-2.08-1.35-2.2-2.03-.28-1.48,2.08-4.91,2.71-6.37-.07,1.87.74,2.6,2.03,3.75.16.14.34.19.33.47Z"/>
  <path class="cls-3" d="M892.34,226.17l2.48,8.2c-.26.29-.76-1.14-.81-1.23-1.28-2.1-4.77-4.53-6.76-6.09-.09-.07-.16-.31-.25-.37l.2-.17c1.68-.02,3.36.21,5.03.71-.22-.46-.23-.81-.02-1.03.04.01.09-.01.12,0Z"/>
  <path class="cls-4" d="M867.88,288.9c-.21-.13-.12-.47-.13-.68-.1-9.41-.03-18.85,0-28.26.21.13.12.47.13.68.12,9.41,0,18.85,0,28.26Z"/>
  <path class="cls-9" d="M867.88,295.73v-4.22c.21.13.12.47.13.68.01,1.18.06,2.39-.13,3.54Z"/>
  <path class="cls-8" d="M828.41,197.48c-.21-.13-.12-.47-.13-.68,0-.94-.09-2.02.13-2.92-.06,1.11-.06,2.5,0,3.6Z"/>
  <path class="cls-15" d="M824.19,148.17c1.8.57,1.05,4.05-.87,3.85-.95-.07-2.12-.02-2.61-1.12-.17-.38-.17-1.23-.1-1.65.28-1.54,2.42-2.07,3.57-1.08Z"/>
  <path class="cls-12" d="M823.56,152.14c-.06,0-.18-.12-.25-.12,1.71-.47,2.22-2.7.87-3.85.08-.22.4-.03.52.03,1.15.56,1.49,1.83.91,2.95-.45.88-1.15,1.02-2.06.99Z"/>
  <path class="cls-7" d="M892.21,226.17l.37,1.37c-1.85-.38-3.67-.93-5.59-.87-.84-.67-1.97-1.17-2.73-1.99,2.58.22,5.14.56,7.64,1.24.23.06.29.24.31.25Z"/>
  <path class="cls-10" d="M823.19,148.79c0,.11-.03.22-.13.27-1.01.56.3,1.2.25.22l.26-.12s.18.05.23.2c.32,1.09-.88,2-1.85,1.36-1.16-.78-.06-2.83,1.25-1.93Z"/>
  <path class="cls-16" d="M823.19,148.79c.13.09.28.24.37.37-.08,2.12-2.31-.13-.37-.37Z"/>
</svg>