<?xml version="1.0" encoding="UTF-8"?>
<svg id="Lager_1" data-name="Lager 1" xmlns="http://www.w3.org/2000/svg" viewBox="0 0 1254 1280">
  <defs>
    <style>
      .cls-1 {
        fill: #a35425;
      }

      .cls-2 {
        fill: #0b0906;
      }

      .cls-3 {
        fill: #242014;
      }

      .cls-4 {
        fill: #564531;
      }

      .cls-5 {
        fill: #554531;
      }

      .cls-6 {
        fill: #030302;
      }

      .cls-7 {
        fill: #4f3723;
      }

      .cls-8 {
        fill: #8f8f8f;
      }

      .cls-9 {
        fill: #857165;
      }

      .cls-10 {
        fill: #060605;
      }

      .cls-11 {
        fill: #2b180e;
      }

      .cls-12 {
        fill: #381e0e;
      }

      .cls-13 {
        fill: #3d2e1d;
      }

      .cls-14 {
        fill: #252014;
      }

      .cls-15 {
        fill: #321a0c;
      }

      .cls-16 {
        fill: #251006;
      }

      .cls-17 {
        fill: #392014;
      }

      .cls-18 {
        fill: #040302;
      }

      .cls-19 {
        fill: #666665;
      }

      .cls-20 {
        fill: #847267;
      }

      .cls-21 {
        fill: #525252;
      }

      .cls-22 {
        fill: #9d8f87;
      }

      .cls-23 {
        fill: #080706;
      }

      .cls-24 {
        fill: #31190c;
      }

      .cls-25 {
        fill: #020101;
      }

      .cls-26 {
        fill: #3b2113;
      }

      .cls-27 {
        fill: #636363;
      }

      .cls-28 {
        fill: #351c0e;
      }

      .cls-29 {
        fill: #020202;
      }

      .cls-30 {
        fill: #070605;
      }

      .cls-31 {
        fill: #31190b;
      }

      .cls-32 {
        fill: #331a0c;
      }

      .cls-33 {
        fill: #646464;
      }

      .cls-34 {
        fill: #70492f;
      }

      .cls-35 {
        fill: #060504;
      }

      .cls-36 {
        fill: #686563;
      }

      .cls-37 {
        fill: #472d1d;
      }

      .cls-38 {
        fill: #371d0e;
      }

      .cls-39 {
        fill: #281f13;
      }

      .cls-40 {
        fill: #2d160a;
      }

      .cls-41 {
        fill: #92847c;
      }

      .cls-42 {
        fill: #482d1d;
      }

      .cls-43 {
        fill: #756256;
      }

      .cls-44 {
        fill: #bcb7b2;
      }

      .cls-45 {
        fill: #2b1e11;
      }

      .cls-46 {
        fill: #361c0e;
      }

      .cls-47 {
        fill: #050402;
      }

      .cls-48 {
        fill: #998a81;
      }

      .cls-49 {
        fill: #925b3b;
      }

      .cls-50 {
        fill: #2e170a;
      }

      .cls-51 {
        fill: #020201;
      }

      .cls-52 {
        fill: #050504;
      }

      .cls-53 {
        fill: #91847d;
      }

      .cls-54 {
        fill: #2d170b;
      }

      .cls-55 {
        fill: #070503;
      }

      .cls-56 {
        fill: #381e0f;
      }

      .cls-57 {
        fill: #7d6b60;
      }

      .cls-58 {
        fill: #080604;
      }

      .cls-59 {
        fill: #3b2010;
      }

      .cls-60 {
        fill: #737373;
      }

      .cls-61 {
        fill: #180c06;
      }

      .cls-62 {
        fill: #857268;
      }

      .cls-63 {
        fill: #161512;
      }

      .cls-64 {
        fill: #794627;
      }

      .cls-65 {
        fill: #341b0d;
      }

      .cls-66 {
        fill: #080605;
      }

      .cls-67 {
        fill: #371e10;
      }

      .cls-68 {
        fill: #30190c;
      }

      .cls-69 {
        fill: #97928d;
      }

      .cls-70 {
        fill: #15130c;
      }
    </style>
  </defs>
  <path class="cls-42" d="M976.61,848.52c.36.76.53,1.52.5,2.3l-.18,2.16c-.02.97.12,1.53.94,2.11.23.32.87,4.19.8,4-.04-.09-.05-.65.02-.74l.23,2.66.86,4.66v.22c-.2,1.16-.2,2.29,0,3.39-.06.66.08,1.43,0,2.08-.13,1.06-.93,2.79-1.26,3.93-.36,1.24-.29,2.86-1.5,3.63-.64.41-1.43.55-2.16.3-.26.41-.87-.23-.38-.49.43.1,1.7.29,1.99-.1.21-.28-.94-2.81-1.32-3.16-2.38-2.2-2.32-4.19-2.18-7.31.21-2.27.39-4.52.36-6.79,0-.68-.15-1.44-.49-2.01-1.01-1.22-1.73-2.23-2.26-3.8-.57-2.92-1.78-5.43-3.34-7.94-.5-.96-.95-1.96-1.02-3.05l.11-.19.3-.1c1.83.91,4.03,1.05,5.15-.96l.34-.25c-.31-.21-.08-.95.33-.76.18,1.23,1.06,2.81,1.97,3.66.44.42,1.45,1,1.75,1.42.25.34.27.78.44,1.15Z"/>
  <path class="cls-49" d="M959.23,838.9c.62-.39,1.72-.28,2.43-.12l.19.23.28.11c.57,1.28,1.4,2.52,2.84,2.85.29.13.51.38.16.54l-.14.03c.5.44.74,1.1.91,1.73l.1-.12c.15-.32.46-.09.33.22.42,2.84,2.44,4.96,3.44,7.54.7,1.81.87,4.11,1.98,5.67s1.66,1.54,1.8,3.77c.22,3.48-.87,7.81-.2,11.12.23,1.13,1.78,2.38,2.4,3.5.3.54.94,1.97.96,2.55.03.74-1.81.61-2.29.37.05.17.28.27.44.33-.07.19-.14.33-.33.44-1.16.04-2.35-.22-3.34-.82l-6.22-4.83c-2.18-1.79-3.9-3.99-4.75-6.7.08.19-.05.13-.22,0l-.06.28c-.63.38-1.13.94-1.62,1.48h-.29c-1.99,2.71-4.05,5.48-6.52,7.85-.05.05-.07.13-.08.22-.6.39-1.12.83-1.54,1.33-.99.6-2.03,1.13-3.12,1.57-1.63.38-3.24.81-4.82,1.26l-.2.21c-.2,1.03-1.27,4.17-2.21,2.3-.05.03-.18.11-.22.11-.35.91-.68,1.54-1.44,2.16-.84.68-1.53,1.28-2.16,2.15-.84,1.51-1.92,3.4-3.89,3.23-.5.09-1.72.23-2.28.12-.03,0-.05-.06-.07-.12l-.14-.19c.28-.93.49-1.88.68-2.83.01-.07.03-.1.12-.09-.08-.54-.08-1.14,0-1.8,0,1.7-.36,3.33-.87,5.03-.03.1-.12.18-.23.26-.76,2.48-1.27,4.98-1.52,7.49-.03.28.1.69-.11.87-.34.97-.68,1.99-1.03,3.05.3,3.08.11,6.09-.8,9.12-.56,1.51-1,3.05-1.31,4.62l-.15.09.14.02c-.05,1.59-.09,3.17-.14,4.73.04-.3.08-.63.11-.98.19.67.12,1.53.11,2.24,0,.18.07.49-.11.6l-.07-.06c-.14,1.98-.17,3.96-.15,5.94,0,.16-.02.3-.1.35-.02.01.06-.47.22-.33,0,.15,0,.29,0,.44-.39,2.31.52,4.09,1.6,6-.46,1.13-3.11,2.44-4.17,1.99-.87-.36-1.29-3.69-1.13-4.57-.49-.53-1.03-1.02-1.62-1.48-.06-.12-.1-.29-.04-.41.17-1.46.48-2.93.91-4.4.16-2.5.18-5.01.04-7.52.15-2.28.11-4.53-.11-6.77-.89-2.4-1.03-4.46,0-6.87.79-3.06.05-6.35-.74-9.38-.31-1.64-.24-3.49-.03-5.12-.31-.31-2.26-.05-2.83.04-1.28.2-2.49.56-3.64,1.18-1.73,1.17-3.64,1.77-5.69,2.13-6.22,2.09-12.75,3.85-19.01.74l-4.53-2.27s-.08.01-.11,0c-1.12-.63-2.23-1.3-3.33-2.02-1.07-.47-2.15-.87-3.26-1.21-1.02.86-2.07,1.72-3.14,2.57.15.28-.14.59-.44.44-3.01,2.75-5.53,6.1-7.58,9.55-.2.33-.44.54-.73.61.03.29-.23.44-.44.22-.76.96-1.46,1.96-2.12,3-.31.37-.54.82-.57,1.31.06,1.26.04,2.23-.98,3.09-.45,1.01-.88,2.92-.9,4.04-.09,4.94-.05,10.01.91,14.85.68,1.58,1.24,3.03.89,4.78.78.58,2.05,2.14,1.12,2.98-1.13.54-2.31.99-3.52,1.36-1.64,1.4-1.54-.37-1.09-1.62.21-1.56-.3-2.84-1.54-3.79-.54.1-1.14-.82-1.35-1.29-.52-1.17-.15-1.82.43-2.83.42-2.67,0-5.49-.4-8.2-.55-2.77-.98-5.55-1.31-8.35-.61-2.05-1.21-4.11-1.79-6.17l.15-.55c3.42-2.78,4.05-6.56,4.21-10.8.74-2.41.59-4.53-.66-6.78-1.06-1.84-1.85-3.76-2.39-5.78-1.74-2.8-1.8-6.68-1.6-9.93.08-1.22.24-2.12,1.13-3,.31-.27.36-1.98-.06-1.85-.18.06-1.78,2.89-1.9,3.31l.04.63c-.94,3.18-.96,6.49-.8,9.76l-.12.31-.22.09-4.1-3.72c-.13,1.16-.2,2.32-.22,3.49l-.27.02c-.03-3.98.03-8.29,1.53-12.02.51-.84,1.06-1.68,1.64-2.51.49-.74,1.13-1.51,1.75-2.19,2.35-2.19,5.17-4.27,8.43-5.16,3.73-.93,7.17-2.17,10.53-4.05,3.16-1.52,6.78-1.42,10.21-1.15,3.78.52,7.56.71,11.34.58,3.01-.67,6.02-1.12,9.05-1.38,2.4-.19,4.62-1.08,6.74-2.24l4.4-2.38c1.68-.96,3.45-1.57,5.29-1.82.77-.42,1.66-.65,2.65-.67,4.08-.31,8.17-.43,12.26-.37,4-.04,7.94-.76,11.83-1.55.08-.1.16-.18.25-.21,3.28-.95,6.51-2.15,9.48-3.71.52-.19,1.37-.48,1.82-.27.03-.07.06-.13.11-.14,1.81-.41,3.07-.71,4.52-1.87.1,0,.19.07.26.15Z"/>
  <path class="cls-3" d="M925.35,837.7c1.5,1.39,3.08,2.62,4.75,3.69-.73-1.01-1.19-2.01-1.68-3.16-.05-.11-.64-2.14-.36-1.81,1.52,1.76,2.99,3.78,3.79,5.92l.11-.17c-.14-.95-.68-8.12-.15-8.6.07-.06.14-.1.15-.09,1.13,2.02,1.77,4.87,1.95,7.13l.15.05c.53-2.06.87-4.14,1.01-6.24,0-.07,0-.15,0-.22,0-.27.26-.27.43-.09.59,1.64,1.23,3.28,1.94,4.88.08.06.18.08.26,0l.24-3.05.24-.16c.39,1.06.84,2.1,1.33,3.13.64,2.09,1.46,4.48,2.56,6.1.49-.02.37-.14.55-.22.47-.33.13-1.68-.07-2.32-.95-2.16-1.93-4.31-2.94-6.45-.28-.71-.29-.98-.03-.81,1.13,1.69,2.46,3.22,3.85,4.77.52.75.91,1.37,1.16,1.87.06.01.16.11.22.11-.39-1.36-.95-2.68-1.68-3.97-.2-.34-1.07-2.68-.77-2.81.05-.02.13.03.21.1,1.21,1.55,2.25,3.2,3.14,4.95.16.05.26-.05.3-.2-.2-1.32-.33-2.63-.41-3.95,1.18.81,2.1,2.24,2.18,3.71-.03.23.28,2.88.4,2.73.02-.03.07-.4.08-.53.15-1.86-.34-3.86-.81-5.66-.03-.23,1.23.91,1.37,1.04.85.79,1.51,1.65,1.89,2.73.16.1.22.12.27-.06.46-1.7.18-3.6-.23-5.27-.03-.15-.06-.45.06-.47.24-.04,2.69,3.27,2.82,3.89.44,1.47.67,1.64.7.52l.03-3.82c.06,0,.11,0,.15.01.27.13,2.01,3.04,1.6,3.61l.26.13c.76-1.05,1.13-2.29,1.4-3.53.2-.73.4-.84.49-.04.19.64.28,1.31.24,1.98.09.32.19.38.28.16.63-.81,1.22-1.67,1.77-2.57l-.04,2.11c.24-.15.44-.2.6-.15.34,0,.47.66.22.87l-.02.27c-.65.45-1.34.84-2.06,1.15-.44.06-1.19.77-1.65,1.03-1.61.89-3.2.72-4.86,1.26-.82.27-1.56.82-2.35,1.15-6.35,2.65-11.23,3.98-18.19,4.32-5.17.26-11.12-.27-16.12.87-.24,0-.42-.03-.55-.11-.11,0-.22.01-.33,0l-.04-.14c-2.5-.05-4.65-.3-6.8-1.57l-.08-.16c1.39.05,2.79.11,4.2.18-.38-.38-.38-.54-.01-.49-.04-.22-.06-.56.21-.49l2.79.37c.2-.18.07-.39-.41-.62l-1.83-.76c-.26-.13-1.13-.65-.54-.69.29.06.64.13.62-.17l-.87-.97c.1-.1.26-.16.47-.17.07,0,.15,0,.22,0l.17.09c3.18.58,6.92,1.76,10.17,3.01.23.09.64.31.82.48.02.02-.39-.1-.23-.3l-.77-.98-1.06-.88c-2.46-1.47-4.65-3.07-5.72-5.79,0-.03,0-.07,0-.11,0-.26.1-.3.29-.14l2.24,1.75.16-.15c-.12-.25-.5-1.77-.23-1.79,1.4,1.54,2.99,3.07,4.7,4.18.47.61.52.53.15-.24-.16-.14-1.35-1.49-.69-1.28,1.06.95,2.47,1.58,3.76,2.05-.7-1.36-1.39-2.72-2.08-4.09-.13-.2,0-.27.22-.18.12.1.22.23.33.33Z"/>
  <path class="cls-64" d="M936.5,894.52c0,.68-.06.82-.22,1.42-.12.18-.15.19-.08.03-.48.97-.87,2.02-.85,3.12.45,2.18.23,4.26-.41,6.4l.02.28c-.16.65-.22,1.09-.33,1.64-1.08,2.78-1.77,5.98-1.42,8.85.03-.1.07-.09.11,0,0,.22,0,.44,0,.66-.1.39-.09.81,0,1.2,0,.31.09.77-.11.98-.38,3.81-.8,8.25,1.3,11.65l.16.55c-.56.97-3.22,2.33-4.21,1.76-.75-.43-1.21-3.77-1.02-4.52-.49-.48-1.03-.97-1.64-1.48l-.16-.43s0-.07,0-.11c1.18-4.01,1.57-8.28.98-12.57,0-.07,0-.15,0-.22.04-.92.08-1.83.11-2.73.13-1.86-.27-3.6-.74-5.42-.15-.75-.19-1.52-.02-2.27,1.28-2.87,1.01-5.86.66-8.93-.09-.03-.15-.06-.16-.1-.05-.44.49-2.67.8-2.82,1.85.19,4.12.32,5.34-1.44,1-1.96,2.39-3.24,3.99-4.69.24-.17-.71,2.1-.8,2.19-.67,2.25-1.01,4.63-1.3,6.97Z"/>
  <path class="cls-45" d="M850.82,871.24c.18-.59.29-.98.64-1.6.26-.47,1.16-1.58,1.27-1.9.15-.44,0-.95.11-1.42.18-.77,1.04-1.45,1.7-1.8l2.63-1.14c-1.04.98-2.74,1.02-3.65,2.19-1.03,1.33-.14,2.46-.42,3.84-.1.51-.77,1.01-.98,1.53-.64,1.56-.38,7.97.24,9.64.47,1.27.84,1.64,1.23,3.14.68,2.59,3,5.26,3.25,8.11.12,1.31-.3,2.44-.43,3.71-.39,3.64-.14,6.04-2.68,9.01-.6.7-1.57,1.19-1.58,2.23.32,2.09,1.56,4.57,1.82,6.6.52,4.11,1.53,8.15,1.67,12.31.03.95.11,2.5,0,3.39-.1.81-.92,1.21-.76,2.28.04.27.73,1.39.93,1.59.38.38,1.24.86,1.58,1.26.53.61.73,2.25.63,3.03-.05.37-.63,1.77-.12,1.93.37.12.54-.3.84-.45.61-.31,1.58-.51,2.26-.8.35-.15,1.24-.51,1.5-.68.63-.42-.1-1.57-.46-1.99-.14-.17-.78-.65-.78-.7-.04-.22.17-.82.18-1.1.06-1.72-1.1-3.03-1.3-4.71-.57-4.78-.69-9.58-.67-14.41.26-.99.48-2.29.8-3.24.19-.55.85-.83,1.01-1.61.14-.67-.08-1.49.1-2.09.19-.65,2.24-3.56,2.79-3.93.24-.1.34.04.23.28-.68.81-1.29,1.66-1.85,2.55.51,1.42.8,2.89.96,4.45.95,4.36,1.26,8.82,1.44,13.22l-.15.6c-1.02,1.41-.94,2.1.25,3.31,2.07,1.31,2.67,3.48,1.85,5.75v.4s4.62-1.97,4.62-1.97c.07-.3-.01-.58-.17-.83l-1.2-1.51.15-.23c.03-.1.07-.09.11,0,.81.65,1.37,1.3,1.51,2.38.03.25-.11.43-.04.68.1.38,1.29,1.69,1.26,1.9-.07.4-1.1.86-1.49.92-.59.08-3.5.12-3.97-.02-.22-.07-1.13-1.02-1.17-1.23-.17-.76.43-1.43.42-2.16-.02-1.63-.53-2.05-1.48-3.12-.09-.11-.18-.42-.27-.33-.01.01-.03.18-.11.27-.35.4-.71.54-1.2.71-.34-.94-.19-1.81-.15-2.77,0-.19-.09-.43-.08-.68.04-.85.67-1.26.77-1.86.33-2.14-.11-6.07-.46-8.27-.26-1.64-.77-3.26-1.03-4.87-.24-1.52-.13-3.03-.69-4.51-.94.77-.34,2.14-.73,3.26-.22.63-.8.88-.99,1.31-.26.58-.59,2.4-.68,3.09,0,.55-.04,1.1-.11,1.64-.02.69,0,1.39,0,2.08-.02,2,.01,4.01.11,6.01.18,1.58.4,3.14.58,4.72.16,1.39.96,2.42,1.17,3.8.09.38.09.74,0,1.09,0,.2-.09.93-.06.98.07.14.71.52.96.91.21.33.49,1.1.51,1.47,0,.24-.19.35-.15.46.13.37,1.33,1.73,1.36,1.93.03.15-.47.59-.61.68-.73.45-3.66.46-4.57.35-.26-.03-.49-.13-.7-.28-.42-.74-.89-.63-.76-1.62.17-1.27.59-1.37.15-2.9-.29-1-.88-1.28-1.37-2.08-.4.51-.78.8-1.42.98-.3-.23-.31-3.59-.12-4.1.2-.55.6-.84.67-1.52.44-4.46-.81-8.46-1.51-12.71-.16-1-.14-2.04-.28-3-.13-.89-.67-1.99-.91-2.92-.15-.6-.15-1.31-.34-1.95-.17-.58-.5-1.09-.69-1.66-.19-.02-.12.38-.11.49.11,1.76.82,3.55.99,5.3-.23.04-.26-.1-.33-.27-.38-.97-.56-2.15-1.09-3.11-.24-.32.24-.37.37,0-.24-1.22-.43-2.43-.41-3.67,0-.05.09-.08.17-.09l-5.19-4.54c-.48,1.3-.91,2.63-1.28,4-.16.59-.45.97-.86,1.14.82-2,1.57-4.14,1.84-6.3.22-1.73-.02-3.44-.09-5.17-.02-.21.25-.45.38-.34,1.88,1.44,3.75,3.05,5.3,4.82.17-.02.23.07.24.22l.59,6.47c1.84-1.67,3.14-3.85,3.36-6.38l.41-4.11c.89-2.26.49-4.18-.61-6.3-1.08-1.85-1.84-3.78-2.28-5.8-1.14-1.63-1.43-2.79-1.62-4.75-.18-1.82-.54-6.11.36-7.72.6-.53.88-1.14.85-1.82l-1.58,2.62-.27.02Z"/>
  <path class="cls-70" d="M843.93,905.77c1.13-1.64,1.1-3.24,1.78-4.94.08-.19.21-.37.35-.52l5.25,4.59c.16.07.76,1.1.33,1.09-.29,0,.1-.76-.38-.65.09,1.73.47,3.43.76,5.13l-.76-1.58c-.03-.17-.11.05-.11.05-.06.02-.21-.06-.23.07-.03.18.3,1.58.34,1.96.16,1.6.19,3.21.44,4.8l-.22.28-.33-1.02-.22.15-.26-.13c-.2-1.59-.82-2.53-2.21-3.49-1.64-1.25-3.15-2.61-4.51-4.09l-1.15,1.63c.33-.07.56.09.46.43l-1.13,1.43c.17-.22,1.25-.89,1.15-.31-.01.08-.13.13-.22.15.02.38-.25,1.11-.66,1.09-.09.99-1.15,2.07-2.08,2.4-.03.1-.07.09-.11,0,.4-.38,1.09-1.06,1.42-1.48.18-.23.81-1.19.88-1.42.04-.14-.02-.22-.16-.16-.22.09-1.09.88-1.2.87-.08-.08-.17-.12-.15-.26.04-.23,1.42-1.73,1.63-2.09-.12-.15-.77.39-.76,0,0-.14,1.45-1.98,1.64-2.3-.1-.2-.98.8-.88.22.07-.39,1.04-1.52,1.31-1.91ZM851.19,913.59c-.24-.29-.26-.4-.46.08l.74,1.61c-.05-.45-.02-1.14-.11-1.56-.02-.08-.13-.08-.17-.13Z"/>
  <path class="cls-2" d="M850.93,915.17c.24.8.28,1.43.33,2.29l.11,1.2c0,.29,0,.58,0,.87h-.33s-.25-1.66-.25-1.66l-.62-2.05v3.33s-.16.22-.22.11c-.17-.13-.47-3.45-.98-4.21-.2.08-.12-.13-.12-.12.13.51-.31,1.75-.52,2.26-.14.33-1.26,2.55-1.38,2.64-.2.15-.27.07-.21-.2.34-1.53.21-3.07.04-4.57-.16-.06-.2-.21-.13-.44l-3.47-3.03c-.19-.27-.27-.48-.11-.79-.02-.06.05-.22-.05-.22l-1.64,1.2-.05-.16,1.75-2.19c.22-.5-.91.39-.98.22.38-.27,1.62-2.53,1.91-2.46.07.02.73.85.93,1.04,1.71,1.57,3.6,2.95,5.25,4.59.49.7.52,1.56.77,2.35Z"/>
  <path class="cls-69" d="M961.31,828.08c.92,3.18,1.89,6.19,3.27,9.17.81,1.76,1.39,2.35,3.4,2.06,1.72-1.8,4.38,1.06,4.48,2.86,0,.04,0,.07,0,.11-.26.18-.22.54-.33.76-.63.72-1.82.54-2.66.31-1.16-.3-2.13-.93-2.2-2.22-4.12,1.4-5.81-4.61-6.5-7.6-.05-1.47,0-3.87.36-5.26.05-.19.02-.39.18-.2Z"/>
  <path class="cls-34" d="M849.94,881.95c.6,2.36.92,4.88.87,7.32l-.22.1-4.89-4.33-.14.02c.07.29,0,.46-.21.5l-.22-2.02c0-.56-.01-1.13,0-1.69,0-.01.11-.12.11-.26.03-.97-.07-2.24.11-3.17.03-.18.14-.27.27-.38l4.32,3.93Z"/>
  <path class="cls-7" d="M850.82,889.27c.56,1.7.76,3.68.66,5.46l-.21.14c-1.7-1.36-3.36-2.8-5.01-4.3l-.62-.34c0-.38-.06-.6-.17-.64-.07-1.41-.27-2.62-.11-4.04.05-.4-.19-.8.43-.71l5.03,4.43Z"/>
  <path class="cls-13" d="M845.46,889.6c.4-.3.12.25.24.42.03.04.61.3.8.46,1.37,1.12,2.64,2.4,3.99,3.55.28.24.65.57.99.71l.3.54.75,4.34c.1.4-.17.64-.48.42l-.54-1.31-.15.05c-1.78-1.55-3.56-3.12-5.36-4.64l-.32.16c-.06-1.57-.14-3.13-.22-4.7Z"/>
  <path class="cls-36" d="M960.76,833.55c.5.88.66,1.98,1.04,2.95.58,1.48,1.68,3.79,3.18,4.47.96.43,1.59.09,2.55-.09-.14,1.17.51,1.75,1.53,2.13,1.11.42,1.95.46,3.06.05-1.18,2.58-3.52,2.43-5.79,1.31-.09-.04-.19-.2-.33-.22l-.13-.02c-.17-.54-.39-1.1-.79-1.51l.05-.11s.03-.17-.11-.27c-.15-.12-.73-.24-1.02-.4-1-.57-1.72-1.79-2.15-2.82-.42-.14-.84-1.2-.55-1.53-.07-.23-.17-.64-.22-.87-.32,0-.3-.09-.11-.33-.13-.76-.19-1.94-.22-2.73Z"/>
  <path class="cls-44" d="M963.82,834.97c.31.08.52.2.33.55.32.63.72,1.21.99,1.86.52-.15.87-.46,1.42-.6,2.55-.67,5.27,1.18,5.78,3.73.11.56.05,1.17.12,1.68-.16-1.16-2.15-3.35-3.33-3.27-.45.03-.76.55-1.12.63-.51.11-1.8.05-2.26-.21-.69-.38-1.49-2.21-1.84-2.97-1.19-2.61-2.09-5.44-2.6-8.27.97,1.13,1.72,5.18,2.51,6.88Z"/>
  <path class="cls-28" d="M918.79,931.56c-.03.1-.07.09-.11,0,.06-1.75.83-3.27.97-4.99.13-1.54.01-3.05,0-4.57,0-2.55.22-5.61,0-8.09-.12-1.35-.79-2.74-.88-4.15-.12-1.91.88-3.25.99-5.14s.01-4.17-.39-6.07c-.13-.64-.82-2.48-.82-2.89v-1.97c0-.42.04-1.74.11-2.13-.31-.1-.81-.09-1.2,0-3.95.06-5.23,1.8-8.52,2.9-.64.21-1.34.26-1.97.44-3.23.91-6.69,2.32-10.05,2.46-.87.11-1.75.11-2.62,0-4.25-.17-7.6-1.9-11.15-4.04,2.64.97,4.94,2.65,7.87,3.33,6.22,1.46,9.75-.34,15.5-1.88,1.49-.4,2.84-.49,4.25-1.21.59-.3,1.11-.78,1.74-1.1,2.03-1.01,4.02-1.21,6.27-1.22,0-.37.04-.73-.05-1.1-.11-.41-.52-.62-.6-.82-.14-.32.24-.09.38.05.84.85.4,1.7.38,2.67-.02,1.17-.1,2.69,0,3.83.22,2.43,1.19,4.57,1.21,7.32.01,2.1-.44,2.81-.96,4.62-.71,2.46.53,3.63.73,5.76.16,1.63-.15,3.82-.11,5.58.06,2.83.48,5.65-.03,8.49-.23,1.32-.93,2.55-.95,3.91Z"/>
  <path class="cls-65" d="M916.06,847.53c-4.45,1.01-7.85,3.66-11.92,5.41-2.93,1.26-4.98,1.1-8.02,1.49-1.76.23-3.53.75-5.27.96-6.06.7-12.36-1.36-18.44-.41-3.72.58-6.25,3.01-9.91,3.97-4.44,1.17-7.5,1.99-11.09,5.08-.42.36-.8,1.02-1.37,1.09,3.65-4,7.19-5.05,12.24-6.39,3.91-1.04,6.54-3.61,10.56-4.08,5.71-.68,11.6,1.03,17.37.65,1.83-.12,3.75-.82,5.58-1.08,2.27-.32,4.51-.21,6.73-.92,4.21-1.35,8.71-5.19,12.98-5.87.15-.02.47-.04.55.11Z"/>
  <path class="cls-39" d="M933.22,919.1c0,.54-.1.99-.11,1.47-.11,4.27-.38,6.85,1.71,10.65.29.52,2.18,1.95,1.36,2.57-.51.39-2.86.44-3.55.38-.78-.06-1.77-.25-2.22-.94-.19-.29-1-2.02-1-2.28v-2.46l-.98.72c-.18.06-.37-.04-.49-.18-.23-.27-.29-1.95-.28-2.4l1.84,1.6c.04.86,0,1.73.16,2.58.05.28.6,1.91.73,2,.37.24,1.65.03,2.08-.12s1.87-1.13,2.02-1.47c.27-.6-.87-1.79-1.12-2.48-.55-1.52-.54-5.77-.47-7.52.04-.94.31-1.93.22-2.89.2.06.11.58.11.76Z"/>
  <path class="cls-14" d="M924.15,930.03c.03,1.25.01,2.33.46,3.53.35.94,1.14,2.35,1.72,3.09,1.48,1.88,1.62,2.31-1.14,2.46-1.1.06-3.11.06-3.76-.95-.45-.7-1.11-2.22-1.11-3.04v-1.69c-1.7,1.95-1.68-.51-1.64-1.86h.11c.18.43,1.64,1.34,1.73,1.6.15.44.01,1.94.16,2.68.07.34.5,1.61.68,1.83.31.38,2.04-.01,2.5-.23.39-.19,1.68-1.19,1.71-1.58.03-.49-.91-1.5-1.13-2.03-.44-1.02-.41-2.12-.4-3.21,0-.18-.07-.49.11-.6Z"/>
  <path class="cls-30" d="M958.79,870.48c-.35-.23-.33-.95.18-.93.59.02.9,4.84.86,5.1l.31-.58c.13-.76.37-1.03.74-.8.22,1.18.4,2.36.53,3.55-.2-.9-.24-1.78-.15-2.66l.15-.07c.1-.43.29-.18.47.1s.63,1.43.29,1.59l.22.12c.03.5-.03,1-.22,1.46l.34-1.32c.1-1.12.16-1.49,1.21-.8l.24,1.43c-.11-.73-.05-2.31.86-1.11.66.88,1.55,4.74,1.34,5.7,0,.03,0-.48.17-.45-.23-.34-.4-1.62,0-1.91.49-.47.48.39.45.78l.24,1.17.07-2.24c.06-.32.32-.36.52-.11l.69,1.41-.02-2.24c.04-.16.12-.3.23-.42-.2-.62.35-.53.22-.11l-.11,3.5-.38-.22-.82-1.2c.04,1.1-.05,2.19-.16,3.28-.38-.47-.56-1.07-.71-1.64l-.33.98-.16-.11-1.58-6.12c-.19.03-.12.57-.11.71.05.92.23,2.02.11,2.95-.02.15-.06.31-.22.16-.26-.24-.65-2.17-.66-2.62l-.19.96-.25.14-.22-1.64-.35,1.01c-.19.15-.23.58-.52.52.04-.92-.14-1.84-.33-2.73l-.09-.06c-.06.27-.04.55-.02.82,0,.42.05.87-.1,1.27-.06.15.04.19-.23.15l-.82-2.95c-.02.15-.79,1.82-1.04,1.53-.01-1.7-.16-3.41-.44-5.08-.02-.12-.09-.13-.11-.16-.08.12-.11.09-.11-.11Z"/>
  <path class="cls-29" d="M925.35,837.7l4.59,3.5c-1.34-1.41-1.6-3.01-2.18-4.75-.08-.23-.58-.91-.11-.82,1.2,1.86,2.81,3.43,3.83,5.41l.43,1.26c-.14-2.18-.6-4.3-.44-6.51l.22-2.89c.19.03.19.22.25.35,1.12,2.33,2.02,4.78,2.05,7.41l1.09-6.23s.11.12.11.26c.03,2.7-1.19,5.62-1.1,8.37l-.34-3.32c-.29-2.16-1.01-4.19-1.84-6.19l-.22,2.13c-.13,2.4.43,4.76.33,7.16-.31.06-.18-.09-.25-.24-.21-.44-.3-.93-.5-1.36-.76-1.67-2.17-3.25-3.24-4.73l.49,1.7c.39,1.11,1.02,2.14,1.75,3.06.21.26,1.18.94.87,1.26-.84-.8-1.88-1.34-2.78-2.08-1.01-.82-2.04-1.84-3.01-2.73Z"/>
  <path class="cls-68" d="M927.54,899.33c-.19-.14-.12-.49-.1-.7.44-3.49,1.46-6.56,2.49-9.86l.23-2.23v1.8c0,.08-.19.31-.11.49,1.03-.2,2.22-.7,3.01-1.42.73-.66,1.8-2.92,2.22-3.9.19-.42.37-.88.34-1.35.21.02.11.56.08.68-.16.75-1.8,4.03-2.32,4.56-.38.39-1.15.84-1.66,1.07-.29.13-1.6.52-1.65.59-.14.16-.37,2-.57,2.38h2.35c2.54,0,3.03-2.55,4.32-3.99.52-.58,1.36-1.1,1.91-1.69.48-.52,1.03-1.26,1.15-1.97.06-.01.1.11.11.11-.4,1.44-1.04,2.77-1.59,4.15l-1.26,6.45c-.02-1.67.54-4.88,1.02-6.58.26-.93.8-1.58,1.06-2.49-.61.85-1.56,1.42-2.24,2.18-.64.71-.95,1.65-1.54,2.4-1.47,1.87-3.43,1.64-5.6,1.67-.39.92-.69,1.71-.56,2.71.01.11,0,.16-.11.11,0,0-.09-.2-.11-.05,0,1.62-.73,3.29-.87,4.86Z"/>
  <path class="cls-28" d="M873.33,892.66c.82-.97,2.11-1.64,2.9-2.62.55-.68.83-1.57,1.47-2.19l-1.09,2.18c1.01.36,2.23.64,3.17,1.14,1.08.57,1.72,1.24,2.99,1.82.16.07.34.06.29.31-.33-.12-.88-.35-1.19-.5-.73-.37-1.82-1.35-2.53-1.53-.15-.04-.26-.08-.39.06-1,1.49-2.14,2.89-3.2,4.34-.54.74-1.13,2.02-1.78,2.59-.28.25-.66.34-.92.61-.44.44-1.81,2.38-2.17,2.96-.64,1.03.08,2.36-.67,3.48-.2.29-.66.55-.78.86-.28.72-.64,2.73-.68,3.52-.09,1.62-.12,3.3-.11,5.03-.03.1-.07.09-.11,0l-.23-.39c-.13-1.2-.12-2.87-.05-4.08.13-2.13.45-4,1.77-5.64.11-2.41.72-3.79,2.47-5.6,1.32-.92,2.01-2.1,2.76-3.47l3.31-4.41c-.68-.29-1.38-.53-2.09-.72-.83.86-1.77,1.62-2.81,2.25l-.32-.03Z"/>
  <path class="cls-29" d="M944.81,841.96c-.76-2.02-1.97-3.84-2.51-5.96-.08-.31-.43-1.54.11-1.06.31.27,1.01,1.25,1.29,1.64.8,1.14,1.44,2.41,2.1,3.64.19.03.12-.26.11-.38-.05-.57-.61-3.88-.44-4.1.26-.07.18.07.25.14.77.87,1.64,1.66,1.99,2.81s.27,2.34.38,3.5l.11-1.04c-.16-1.51-.35-3.1-.8-4.55-.12-.4-.35-.68-.4-1.07.92,1,2,1.67,2.84,2.79.47.63.76,1.06.88,1.8-.08-.04-.67-1.2-.88-1.47-.63-.84-1.52-1.54-2.29-2.24.71,2.01.88,4.16.87,6.28.01.16-.21.36-.33.27-.23-.18-.41-3.43-.58-4.07-.26-1-1.09-1.99-1.82-2.71.07,1.61.5,3.12.44,4.75,0,.13.08.41-.11.38-.07-.82-.63-1.34-1-2-.77-1.39-1.43-2.9-2.6-4.01.19,2.21,1.9,4.2,2.46,6.23.04.13.14.44-.06.44Z"/>
  <path class="cls-35" d="M948.3,879.55l.21.11c.46,1.3.97,2.54,1.53,3.71-.02.21.07.25-.22.22-.52-1.2-1.35-2.33-1.64-3.6l-.93,4.7-.16.11-.66-2.84-.11,1.09-.11,1.09c-.02.95-.1,1.89-.11,2.84-.04.45-.08.88-.11,1.31-.2,0-.41-.49-.49-.66-.48-1.01-1-2.47-1.37-3.55-.1-.3-.23-.6-.22-.93-.3.38-.73,1-.92,1.43-.33.76-.3,1.75-.78,2.39-.17-1.05-.24-2.11-.38-3.17.01-.44.05-.87.11-1.31-.08.08-.11.04-.11-.11-.31-.18.05-.81.34-.3.24.88.32,1.8.24,2.78.29-.63.64-1.24,1.04-1.83.12-.63.36-.84.69-.63l1.56,4.42.27-5.6c.26-.28.45-.18.65.08l.51,1.71.54-3.09.27-.28c0-.19.22-.28.33-.11Z"/>
  <path class="cls-51" d="M950.71,840.1c.19.09.2,0,.22-.16.11-.93.18-2.13.11-3.06-.07-.83-.42-1.79-.44-2.63,0-.19,0-.36.17-.49.48,1.26,1.64,2,2.33,3.13.44.73.9,1.69,1.01,2.55l.22-5.03,1.61,2.38c.28.57.27,1.15.25,1.77.26.06.18-.03.24-.14.26-.4.62-1.25.79-1.72.25-.67.4-1.79.73-2.33.37-.62.31.62.31.7-.07-.15-.16-.23-.11-.44-.17-.25-.58,1.89-.63,2.04-.25.71-.85,1.67-1.21,2.39-.04.08-.06.37-.23.16-.06-.08.07-1.68-.24-2l-1.39-2.26.11,3.77c-.19.57-.04,1.2-.11,1.75-.02.15-.08.34-.22.16-.22-2.49-1.84-4.42-3.39-6.23,0,.94.46,1.87.53,2.8s-.19,1.89-.31,2.83c-.05.37.16.96-.22,1.15.04-.37-.05-.73-.11-1.09Z"/>
  <path class="cls-54" d="M956.72,871.35c.03.15,0,.18-.11.11-.29.13-.45.17-.42.57.6,1.7,1.59,3.5,1.73,5.33-.03.1-.07.09-.11,0l-.28-.29c-.5-1.56-1.05-3.09-1.64-4.6-.11.31-.27.45-.48.41.05.17.05.2-.11.11-.06.06-.14.13-.22.22,0,.07-.04.11-.11.11-.17.6-.55,1.14-1.12,1.41-.28.67-.83,1.26-1.51,1.54-.16.41-.41.77-.77,1.09-.03.1-.07.09-.11,0l-.22.33c-.03.1-.07.09-.11,0-.1-.03-.75.62-.77,1.09,0,.19-.04.33-.11.44l-.09-.07-.02-.47h-.11c0,.29,0,.58,0,.87-.04.23-.11.31-.22.22-.14-.25-.23-.53-.27-.82l-1.03.71-.23-.11c-.08.04-.22.06-.33.11l-.26.35c-1.69.63-3.57,1.09-5.35,1.4l-.41-.12c.92-.68,2.43-.68,3.57-.97,5.89-1.5,8.76-7.1,12.5-11.27.24-.17.36-.02.28.26-.56.66-1.1,1.33-1.59,2.04Z"/>
  <path class="cls-51" d="M935.08,834.2c-.01-.27-.03-.67,0-.93.02-.15.07-.32.22-.16.65,2.02,1.36,4,2.3,5.9l.22-3.99.22-.16c.19,1.44,1.08,2.66,1.61,4.02.4,1.01.64,2.1,1.04,3.11s.99,1.99,1.39,3.03c0,0-.03.08-.06.08-.15-.02-1.27-2.26-1.41-2.59-.5-1.19-.81-2.53-1.28-3.74-.38-.98-.97-1.89-1.18-2.92l-.43,4.15-2.27-5.76-.35-.03Z"/>
  <path class="cls-51" d="M944.59,841.85s-.04.1-.09.1c-.72-1.58-1.95-2.79-3.08-4.09l-1.97-2.67c.61,2.09,1.86,3.98,2.72,5.97.47,1.08.9,2.17.79,3.38-.05.55-.29.25-.33.27.32-1.36-.32-2.68-.86-3.9-.92-2.09-2.39-4.16-2.64-6.48.73,1,1.4,2.04,2.19,3,1.17,1.42,2.73,2.59,3.28,4.43Z"/>
  <path class="cls-67" d="M927.43,900.2c.03.84-.51,1.61-.73,2.38-.36,1.25-.07,1.77-.03,2.97.1.54.1,1.1,0,1.64-.07,1.48-.57,3.55-.93,5.03s-.96,2.84-1.23,4.34-.23,2.79-.25,4.29c0,.33,0,.66,0,.98h-.11s0-4.75,0-4.75c0-1.42,1.15-3.74,1.5-5.27.44-1.93.9-4.32.8-6.31-.04-.79-.31-1.42-.19-2.26.17-1.24,1.28-2.35,1.07-3.69l.11.66Z"/>
  <path class="cls-15" d="M960,867.31c.11-.05.18-.14.33-.11,1.43,5.44,6.78,8.01,10.72,11.41.37.23.75.44,1.17.58.75.25,1.55.29,2.32.47-.51.28-1.62,0-2.19-.16-1.44-.43-2.42-1.5-3.61-2.35-.06-.04-.09-.23-.22-.22,0,.11,0,.22,0,.33-.26.09-.3-.18-.3-.39-3.61-2.36-6.85-5.22-8.3-9.32l.07-.24Z"/>
  <path class="cls-25" d="M916.5,837.26c0-.07-.18-.46.05-.43.16.01,2.2,1.77,2.57,1.96-.33-.76-.35-1.44-.46-2.22-.02-.17-.39-.67-.03-.62,1.1,2.17,3.24,3.57,5.03,5.13.18-.12-.05-.24-.11-.33-.47-.62-1.25-1.23-1.2-2.08,1.05,1.46,2.82,2.07,4.37,2.84l-2.35-4.54c.29-.18.52.26.66.38-.22.07,0,.33.05.44.63,1.3,1.13,2.51,1.98,3.7.31.43.84.85,1.08,1.32.08.14.11.29-.11.22-.03-.01-.2-.42-.39-.6-1.17-1.09-3.42-1.52-4.53-2.79-.18.11.04.24.11.33.45.53,1.01,1.03,1.15,1.75-.44.21-.7-.38-1.04-.65-1.56-1.26-3.11-2.45-4.37-4.05.04.74.26,1.48.49,2.18-.16.13-2.23-1.67-2.55-1.88-.14-.09-.23-.23-.4-.08Z"/>
  <path class="cls-5" d="M949.83,879.77l.11.26-.03,2.71.14.09c0,.18.02.37,0,.55-.2-.07-.25-.21-.33-.38-.38-.79-.9-1.82-1.22-2.61-.11-.27-.23-.53-.2-.84.16-.08,1.47-1.06,1.53-.98,0,.4,0,.8,0,1.2Z"/>
  <path class="cls-38" d="M928.74,911.02c-.03.1-.07.09-.11,0-.04-2.07-.25-2.85-.62-4.79-.48-2.49-.08-2.61.48-4.81.33-1.3.29-2.68.36-4.02l-.33-2.89s.13-.04.11-.11c.28,2.28.65,4.08.28,6.45-.14.89-.79,1.69-.91,2.48-.37,2.36.88,3.87.95,5.89.02.55-.19,1.25-.21,1.78Z"/>
  <path class="cls-51" d="M912.89,841.74c-.05.14-.41.03-.27.22,1.09,1.53,2.23,1.12,3.52,1.84.17.1.39.22.36.46-1.27-.45-2.55-1.09-3.93-1.09.17.23.57.41.83.53,1,.45,1.93.58,2.66,1.54-1.19.09-2.36-.4-3.5-.38l.22.27c-.11-.03-.28.11-.33.11-.08-.34-.3-.35-.33-.66l3.39.44c-.13-.17-.46-.41-.65-.5-.88-.44-1.97-.53-2.63-1.41.27-.34.65-.09.98-.06-.27-.5-.71-.86-1.09-1.26.21-.1.53-.06.76-.05Z"/>
  <path class="cls-6" d="M912.46,845.24s-.12.13-.06.22c.1.15.45.14.39.44-1.35,0-2.68-.18-4.02-.3-.12-.01-.37-.13-.35.08.81.16,1.48.74,2.25.98,1.51.46,3.39.36,4.97.55l-.44.22c-1.47-.19-3.06-.09-4.48-.49-1.14-.32-2.05-1.31-3.28-1.37l.16-.22,4.75.33c-.04-.21-.38-.11-.55-.27-.75-.71.6-.17.66-.16Z"/>
  <path class="cls-67" d="M868.63,914.95c.01.8.1,1.59.11,2.4-.1.5-.1,1.03,0,1.53.13,1.04.46,2.12.54,3.12.05.56-.04,1.14.03,1.72.25,1.99,1.93,3.62,1.06,5.76h-.11l-.21-.23c.19-.63.09-1.26-.06-1.89-1.53-3.63-1.7-7.9-1.68-11.89,0-.12.03-.24.06-.37s.08-.25.14-.37h.11c.08.06.05.14,0,.22Z"/>
  <path class="cls-11" d="M978.69,858.35c.02.25.01.57,0,.82,0,.13.08.41-.11.38.24-.89-.28-1.55-.41-2.26-.1-.54-.02-1.2-.21-1.76-.22-.66-.97-.74-1.1-1.63-.2-1.3.23-2.71.08-4.01-.06-.52-.5-.93-.33-1.37.21.45.57.81.65,1.38.17,1.27-.65,3.65.17,4.64.25.3.68.41.76.87.14.95.41,2.01.5,2.95Z"/>
  <path class="cls-70" d="M841.64,915.06c-.04-.31.98-1.28,1.19-1.31.25-.04.3.07.39.28l-.76,1.82.74-.89c.2-.04.29.1.35.29l-.35,1.04c.4-.86,1.29-1.39.88-.08-.3.55-.53,1.11-.69,1.69.06.03.05.07,0,.11-.12.18.04.42-.27.44-.16,0-.2.02-.17-.16.06-.38.39-.96.5-1.36.03-.11.14-.36-.06-.33-.25.43-.58,1.2-.87,1.57-.08.1-.31.09-.33.07-.11-.11.64-1.86.65-2.18-.44.26-.98,1.49-1.31,1.7-.16.1-.32-.04-.33-.11,0-.2,1.38-2.73,1.53-3.17-.31-.09-.6.42-.82.61-.09.08-.24.08-.27.11-.04-.03-.04-.07,0-.11Z"/>
  <path class="cls-52" d="M953.88,876.38c-.06,1.07-.28,2.1-.33,3.17-.28.04-.17-.02-.23-.15-.27-.6-.4-1.41-.65-2.03-.18-.03-.1.21-.11.33.09.47.1.95,0,1.42,0,.39.05.89,0,1.26-.02.15-.08.34-.22.16l-.87-3.06c-.1-.03-.09-.07,0-.11h.11c.27.04.45.31.54.79-.02-.68.05-1.3.22-1.89.18-.18.3-.03.41.15l.51,1.42.22-1.55c-.02-.82.11-1.12.39-.9.12.27.12.59,0,.98Z"/>
  <path class="cls-51" d="M924.04,845.02s.04.1.11.15c.05.03.18-.03.2-.01.14.12.2.58-.09.63-.03-.47-.47-.67-.85-.85-3.26-.87-6.58-2.46-9.92-2.98-.2-.03-.44.14-.38-.22,2.28.15,8.88,2.18,10.93,3.28Z"/>
  <path class="cls-39" d="M927.65,926.53c.06-1.18.48-2.16.71-3.28.62-3,.32-6.23.27-9.29.17.15.2.39.22.6.21,2.7.19,5.68-.16,8.36l-1.04,3.6Z"/>
  <path class="cls-26" d="M936.28,895.94c-.26,1-.96,2.24-.86,3.21.05.47.27,1.03.31,1.54.15,1.85-.34,3.34-.76,5.08-.2-.11-.09-.38-.06-.55.15-.78.39-1.57.49-2.36.31-2.52-.82-4.62.77-6.99l.12.07Z"/>
  <path class="cls-70" d="M848.96,915.06c-.13.35-.07.73-.16,1.1-.32,1.33-1.44,2.74-1.92,4.04-.13.03-.28-.04-.31-.17-.04-.21.29-1.55.31-1.95.04-.72-.06-1.42-.11-2.13l-.76,1.48c-.43.74-.99,1.38-1.53,2.02-.03.05-.07.05-.11,0,.41-.83.9-1.65,1.45-2.44l.55-1.26.3-.24c-.26-.19-.2-.37.11-.44.19.18.21.46.22.71.08,1.36-.01,2.76-.17,4.1.79-1.59,1.98-3.17,1.91-5.03.12,0,.16.14.22.22Z"/>
  <path class="cls-6" d="M958.25,835.07c.35.72.39,1.18.33,2.02l.22.05c.47-.74.99-1.79,1.55-2.44.1-.11.1-.23.31-.18v1.8s-.23.2-.06.27l.38-.33s.08.19.11.33l-1.42.98c.64-.66.8-1.46.87-2.35,0-.12.09-.51-.11-.49-.09.34-.23.66-.41.95-.42.66-1.24,1.82-1.73,2.43-.07.08-.27.33-.38.22-.09-.09.39-.55.43-.83.11-.71-.04-1.72-.1-2.45Z"/>
  <path class="cls-10" d="M958.9,870.59c-.41,1.58-.37,3.24-.33,4.87,0,.16.13.57.11.59-.17.2-.23-.14-.27-.22-.32-.79-.47-1.64-.77-2.4-.27-.7-.79-1.26-1.04-1.97.03-.01.07-.08.11-.11l.25.05c.83,1.01,1.29,2.13,1.39,3.36,0,.01-.08-.16,0-.2-.2-.79-.27-1.61-.22-2.46l.22-.16c-.38-.1.11-1.4.44-1.48.03.03.09.07.11.11Z"/>
  <path class="cls-25" d="M916.5,837.37l1.11,1.78c1.27,2.25,4.25,3.19,5.66,4.88-1.61-1.34-3.76-2.16-5.13-3.77-.58-.68-1.46-2.02-1.64-2.89Z"/>
  <path class="cls-68" d="M941.96,881.3l.12.26c-.42.83-.49,1.1-.23.83.05.01.1.06.11.11,0,.34-.08.6-.22.76-.17.88-.43,1.82-1.04,2.51l-.05-1.42c-.22-.04-.29.2-.5.22-.38.04-.61-.43-.6-.77,0,0,0-.13.11-.11.31,1.48,1.4-.24,1.66-.91.13-.34.27-1.22.41-1.43.07-.11.2-.05.23-.07Z"/>
  <path class="cls-23" d="M951.25,878.56c-.04,1.46-.31,2.81-.33,4.26-.35-.15-.18-.61-.23-.92-.16-.92-.44-1.75-.42-2.69,0-.14-.05-.36.11-.44.24.07.36.34.37.8l.16-1.68c.03-.12.11-.19.24-.21h.11c.08.27.09.59,0,.87Z"/>
  <path class="cls-39" d="M934.64,907.41c-.41,2.11-1.2,3.61-1.31,5.9-.05.99-.08,1.98-.11,2.95l-.11.11c.04-1.58-.11-3.18.12-4.74s.94-2.83,1.28-4.29l.12.07Z"/>
  <path class="cls-66" d="M955.08,874.08c.09,1.05.11,2.12,0,3.17,0,.43.05.97,0,1.37-.02.16-.08.34-.22.16.11-1.13-.64-2.08-.77-3.17l-.22-.22c-.51-.1-.06-.9.29-.73l.47,1.23c-.05-.92.06-1.78.33-2.58.03-.04.08-.07.11-.11v.87Z"/>
  <path class="cls-17" d="M845.46,914.62c.19.78-.07,1.88-.29,2.69-.2.77-.48,1.51-.8,2.11h.11s-.69,1.1-.54.28c.11-.62.69-1.62.88-2.4.17-.67.3-1.46.31-2.14l-1.55,2.66c-.03.09-.17.14-.2.18v-.11c.4-1.17.93-2.3,1.6-3.38h.25c-.13-.6.78-.12.22.1Z"/>
  <path class="cls-55" d="M840.32,914.29c.48-.24.96-.49,1.44-.76,1.66-.57.25,1.03-.32,1.48l.19.05v.11c-.4.34-.88.94-1.31,1.26-.67.49-.4-.05-.11-.44.51-.67,1.16-1.27,1.64-1.97-.21-.07-.55.14-.76.22-.18.07-.98.49-1.04.49-.07,0-.22-.24-.16-.32.1-.02.26-.05.33-.11h.11Z"/>
  <path class="cls-14" d="M924.26,923.69c0,.24.01.48,0,.71,0,.14-.11.29-.11.33v3.61c0,.38,0,.83,0,1.26l-.22.33c-.09-2.34.09-4.67.22-6.99.2.06.11.59.11.76Z"/>
  <path class="cls-18" d="M955.41,872.88l.35.24c.63,1.55,1.33,3.07,2.03,4.57,0,.02-.26-.33.02-.33h.11c.02.22.04.56-.05.76-1.21-1.46-1.99-3.35-2.57-5.14.03-.04.08-.07.11-.11Z"/>
  <path class="cls-35" d="M950.05,882.83c-.3.19-.21.11-.22-.16-.04-.96,0-1.94,0-2.9l.22-.22c-.02,1.09.03,2.19,0,3.28Z"/>
  <path class="cls-53" d="M859.78,923.91c-.22-1.93-.13-4.04-.11-6.01l.11,6.01Z"/>
  <path class="cls-46" d="M846.66,869.82c.38-.94.91-1.81,1.64-2.51-.46.69-.82,1.48-1.25,2.19-.1.17-.13.34-.39.32Z"/>
  <path class="cls-22" d="M868.63,914.95c0-.07,0-.15,0-.22-.02-1.47-.02-2.96,0-4.43,0-.18-.07-.49.11-.6-.07,1.52.02,3.12,0,4.65,0,.18.07.49-.11.6Z"/>
  <path class="cls-60" d="M955.08,877.25c.01-1.05,0-2.11,0-3.17.19.79.12,1.74.11,2.57,0,.18.07.49-.11.6Z"/>
  <path class="cls-41" d="M933.33,916.26h-.11c.07-.96-.14-2.02.11-2.95-.05.97,0,1.98,0,2.95Z"/>
  <path class="cls-39" d="M928.63,913.75c-.02-.91.02-1.82,0-2.73h.11c-.03.89.12,1.88-.11,2.73Z"/>
  <path class="cls-43" d="M896.94,897.36c-.78.18-1.84.18-2.62,0,.83.03,1.79.04,2.62,0Z"/>
  <path class="cls-63" d="M963.82,834.97h.77s-.44.55-.44.55c-.09-.17-.23-.33-.33-.55Z"/>
  <path class="cls-21" d="M961.75,875.07c-.19.15-.11.53-.11.76l-.11-1.42c.16.05.18.49.22.66Z"/>
  <path class="cls-62" d="M926.66,907.19c.02-.52.02-1.11,0-1.64.18.4.18,1.21,0,1.64Z"/>
  <path class="cls-48" d="M859.67,915.82c.02-.62.03-1.04.11-1.64-.06.52.14,1.18-.11,1.64Z"/>
  <path class="cls-5" d="M941.85,883.81c-.02-.17.08-.45-.11-.55.05-.24.07-.57.22-.76.05.34.05,1.04-.11,1.31Z"/>
  <path class="cls-64" d="M868.74,918.88s-.1-.17-.12-.37c-.02-.33-.05-.91.12-1.16,0,.51,0,1.02,0,1.53Z"/>
  <path class="cls-8" d="M952.56,879.11c0-.47-.02-.95,0-1.42.18.33.19,1.07,0,1.42Z"/>
  <path class="cls-20" d="M917.48,891.57c.35-.24.9-.05,1.31-.11.03.09-.11.1-.11.11-.4,0-.8,0-1.2,0Z"/>
  <path class="cls-33" d="M951.47,877.36v.11c-.27.29.06.83-.22,1.09,0-.29-.02-.59,0-.87,0-.11,0-.22,0-.33h.22Z"/>
  <path class="cls-27" d="M946.01,888.29c.05-.41-.13-.98.11-1.31,0,.42,0,.84,0,1.26l-.11.06Z"/>
  <path class="cls-5" d="M954.97,873.32c-.04,1.39-.21,2.76,0,4.15l-.98-2.73c-.2.02-.1.5-.11.65.04-.03.2-.13.22-.11.01.11-.01.22,0,.33l-.22.76c.02-.32,0-.66,0-.98-.01.01-.09-.03-.11.07,0,1.19-.38,2.35-.33,3.54l-.86-2.47-.23-.26c.9-.95,1.77-1.96,2.62-2.95Z"/>
  <path class="cls-39" d="M933.33,918.12c-.19-.28-.18-.95,0-1.2,0,.4,0,.8,0,1.2Z"/>
  <path class="cls-9" d="M851.36,918.67c-.21-.29-.09-.82-.11-1.2.19.28.12.83.11,1.2Z"/>
  <path class="cls-19" d="M946.23,884.14c0-.35-.09-.84.11-1.09-.05.34.12.83-.11,1.09Z"/>
  <path class="cls-57" d="M861.53,933.53c.01-.36,0-.73,0-1.09.05.3.29.8,0,1.09Z"/>
  <path class="cls-61" d="M970.45,851.05c.52-.16,1.83,0,2.33.25.79.4.95.81.44,1.53-.79,1.1-2.15.64-2.84-.33-.29-.4-.57-1.26.08-1.45Z"/>
  <path class="cls-64" d="M868.52,914.73c.06,3.1.19,5.83.55,8.9.22,1.89,1.33,3.06,1.31,5.03,0,.28-.14.54-.11.82.05.49,1.92,1.73,1.37,2.73l-4.8,2.07c-.51-.17.1-1.56.14-1.91.1-.78-.06-1.84-.38-2.56-.47-1.06-1.96-1.59-2.55-2.81-.75-1.56.57-1.93.64-3.04.02-.31-.12-.57-.12-.87-.03-2.78-.11-5.31-.58-8.06-.39-2.32-.78-4.21-1.07-6.58-.06-.49-.64-1.96-.62-2.18.03-.28,1.62-2.35,1.92-2.67l-.09-.14c.14-.09.27-.18.44-.22.27-.06.51-.26.71-.58,2.05-3.45,4.61-6.84,7.6-9.58.12-.1.25-.28.44-.44.59-.48,1.47-.99,2.13-1.53.19-.16.87-.93.98-.94s2.02.67,2.17.75c.1.06.22.1.18.25-1.08,1.51-2.3,2.98-3.37,4.5-.61.88-.96,1.98-1.82,2.66-1.18.93-1.97,1.82-2.72,3.18s-.28,2.03-.68,3.25c-.18.56-.8.94-.97,1.44-1.05,3.12-.77,5.32-.71,8.53Z"/>
  <path class="cls-5" d="M960,867.31c.42.37.5,1.08.75,1.6,1.63,3.52,4.57,5.64,7.64,7.82l.14.52c-.05,1.05.04,2.12,0,3.17-.68-.45-.72-1.38-1.2-1.97l-.11,3.5-.4-1.07c-.05-.4-.17-.79-.24-1.18-.04-.28.14-.9-.23-.81v1.91s-.11.52-.22.49c0-.19.02-.39-.03-.57-.28-1.19-.54-2.57-.88-3.71-.07-.24-.66-2.01-1.06-1.62l.11,3.39-.28-.76-.49-2.85-.22.16-.11,1.04c-.09-.37-.07-.78-.11-1.15-.02-.2.04-.18-.22-.16,0,.75-.19,1.71-.66,2.29v-1.58c0-.14-.42-1.39-.52-1.55-.07-.11,0-.19-.25-.14v2.73l-.4-1.51-.36-2.1-.31.95-.78,1.46c0-1.22.03-2.43-.13-3.64-.05-.39-.31-1.9-.48-2.15-.03-.05-.14-.14-.16-.11-.03.24.04.54,0,.76-.06.33-.44,1.24-.44,1.48v2.62c0,.06.29.47,0,.49-.19-.57-.24-1.21-.47-1.77-.26-.64-1-1.32-1.17-1.94-.03-.12-.1-.13-.03-.29.14-.34.95-1.26,1.23-1.62.07-.09.38-.28.11-.38.53-.59,1.25-1.4,1.97-1.75Z"/>
  <path class="cls-65" d="M965.13,842.51c.31.39.76,1.16.87,1.64.25,1.03.14,2.5-.5,3.38-1,1.39-4.88,2.25-6.39,1.37.3-.11.6.13.93.17,1.06.1,3.28-.3,4.23-.8,1.69-.89,1.91-2.78,1.37-4.47-.35-1.11-.71-1.45-1.94-1.29,0,.17.2.13.31.28,1.29,1.78-.19,4.42-2.26,4.71-.86.12-3.22.01-3.27-1.2-.04-1.02.39-2.33,1-3.15,1.67-.2,3.46-1.06,5.15-.87.21.02.33.09.49.22Z"/>
  <path class="cls-15" d="M932.45,883.7l-.22-.16-.11-4.59c-.12-5.39-2.52-9.85-2.95-15.19-.26-3.24-.27-6.01-.91-9.25-.27-1.35-.61-3.42-1.04-4.65-.04-.12-.23-.26.03-.36.08-.03.71,1.5.76,1.64,1.83,5.16,1.31,9.71,2.04,14.9.39,2.76,1.68,5.29,2.14,8.02.53,3.12.11,6.47.25,9.64Z"/>
  <path class="cls-15" d="M938.79,876.21c0,.08.17.22.11.38-.62-.58-.69-1.66-.98-2.46-1.04-2.94-2.29-5.77-2.81-8.88-.55-3.28-.01-6.54-.25-9.8-.1-1.4-.61-2.9-.84-4.3-.11-.64-.14-1.29-.25-1.93,0-.09.18-.12.22,0,.1.29.08.9.16,1.25.25,1.09.7,2.1.99,3.16.82,3.06.18,6.61.38,9.78.16,2.46,1.16,5.42,1.97,7.76.21.61,1.31,3,1.31,3.39,0,.53-.04,1.12,0,1.64Z"/>
  <path class="cls-32" d="M917.26,884.79l-.22-.16c-.04-3.04-.59-6.25.16-9.24.26-1.03.81-2.05,1.07-3.08.8-3.24-.62-6.63-.8-9.86-.12-2.14.32-4.38.5-6.51.14,2.2-.03,4.41.17,6.61.29,3.14,1.56,6.74.79,9.86-.27,1.09-.85,2.16-1.11,3.26-.71,2.93-.52,6.12-.56,9.12Z"/>
  <path class="cls-15" d="M930.6,848.52c0,3.36,1.66,6.44,1.86,9.77.09,1.43-.09,2.95,0,4.38.3,5.51,4.59,10.73,4.38,16.44-.14.18-.2-.01-.22-.16-.04-.34.04-.74,0-1.09-.59-5.34-4.52-9.77-4.81-15.19-.08-1.43.09-2.95,0-4.37-.16-2.6-1.04-5.26-1.31-7.87-.04-.43-.16-1.38-.11-1.75.02-.15.08-.34.22-.16Z"/>
  <path class="cls-32" d="M927.32,877.58c-.31.06-.18-.08-.25-.24-.96-2.35-.72-4.81-1.21-7.32-.29-1.51-.9-2.7-1.25-4.11-.51-2.08-.16-4.49-.25-6.64-.07-1.67-.37-3.36-.44-5.02-.04-.92.03-1.86,0-2.78l1.09,7.7c.12,2.17-.27,4.52.25,6.63.24.97.73,1.88.98,2.84.76,2.86.73,6.01,1.06,8.94Z"/>
  <path class="cls-15" d="M949.29,846.77c-.09,1.65.59,3.18.42,4.85-.15,1.52-1.08,2.96-1.49,4.41-.88,3.18.03,6.4.19,9.58.11,2.25-.17,4.49-.39,6.72-.18-.12-.16-.3-.17-.49-.11-1.48.07-3.1.01-4.6-.13-3.11-.88-6.27-.66-9.4.18-2.6,1.85-4.72,1.98-7.42.05-1.14-.26-2.38-.11-3.5.02-.16.08-.34.22-.16Z"/>
  <path class="cls-32" d="M910.38,863.92s.38.9.49,1.09c1.89,3.39,2.12,7.66,1.43,11.48-.3,1.67-1.31,3.24-1.47,4.98-.19,2.1.67,4.79-.89,6.49.22-.61.49-1.01.55-1.69.23-2.63-.74-3.96.14-6.86.63-2.08,1.17-3.17,1.28-5.49.18-3.48-.36-6.77-1.75-9.95-.01-.09.21-.06.22-.05Z"/>
  <path class="cls-15" d="M873.44,860.21s.02.25.1.38c.76,1.19,2.16,2.04,2.68,3.33,1.14,2.8-.27,5.98.91,8.81.33.79.95,1.55,1.27,2.33,1.16,2.76.16,6.28.16,9.18-.46-.28-.12-.95-.1-1.36.06-2.12.14-5.33-.58-7.3-.5-1.38-1.52-2.44-1.81-3.99-.49-2.68.61-5.63-.81-8.15-.42-.75-1.96-2.37-2.05-3.08-.03-.22.16-.22.22-.16Z"/>
  <path class="cls-32" d="M939.45,848.62c.05,2.2-.07,4.41,0,6.61.17,5.87,1.12,11.68,1.85,17.49.06.52.14,1.05.12,1.57-.14.19-.2-.01-.22-.16-.24-1.87-.93-3.45-1.19-5.26-.47-3.33-.86-7.13-.99-10.48-.1-2.69.09-5.28.22-7.97.03-.52-.07-1.15,0-1.65.02-.16.08-.34.22-.16Z"/>
  <path class="cls-15" d="M905.35,863.92c-.1,2.02.73,3.96.87,5.96.24,3.39.02,5.89-.42,9.19-.18,1.32-.01,2.44,0,3.7,0,2.17.03,4.34-.06,6.51l-.72-9.02c1.26-5.04.34-10.02.11-15.07-.01-.32-.03-.8,0-1.1.02-.16.08-.34.22-.16Z"/>
  <path class="cls-15" d="M923.49,876.6c-.14.18-.2-.01-.22-.16-.05-.41.04-.89,0-1.31-.41-4.36-2.66-8.51-2.52-12.9.02-.67.2-1.51.22-2.18.11-2.8-.67-5.37-.65-8.14.16,0,.17.39.19.52.4,2.58,1.21,4.86,1.13,7.51-.02.71-.2,1.58-.22,2.29-.12,3.56,1.37,7.28,1.84,10.83.16,1.17.26,2.36.23,3.54Z"/>
  <path class="cls-15" d="M944.7,872.01c-.13.18-.2,0-.22-.16-.17-1.34.05-3.18,0-4.6-.04-1.52-.07-3.41-.22-4.91-.11-1.07-.51-2.14-.64-3.18-.31-2.34.32-4.95.2-7.31-.07-1.38-.41-2.7-.87-3.99.61.75.92,2.06,1.08,3.02.44,2.71,0,5.42.23,8.07.1,1.13.58,2.31.66,3.49.21,3.16-.3,6.41-.22,9.56Z"/>
  <path class="cls-15" d="M953.99,846.77v3.55c0,.94-1.6,3.58-1.97,4.7-1.18,3.54-.22,8.42,0,12.13.05.85-.04,1.72.11,2.57-.13.17-.2,0-.22-.16-.12-1.04-.1-2.12-.22-3.17-.39-3.5-1.42-7.8-.41-11.23.48-1.62,1.49-3.05,1.97-4.7.36-1.25.36-2.28.52-3.53.02-.2-.04-.18.22-.16Z"/>
  <path class="cls-32" d="M913.44,865.23c1.24,3.48,2.52,6.86,1.48,10.6-.36,1.3-1.27,2.84-1.45,4.13-.19,1.44.2,4.12-.74,5.27-.14.17-.36.34-.6.33,0-.32.34-.3.53-.62.64-1.06,0-3.53.14-4.89.18-1.68,1.35-3.42,1.69-5.09.6-3.03-.06-5.83-.91-8.72-.02-.08-.58-1.43-.14-1.01Z"/>
  <path class="cls-15" d="M908.41,879.33l-.22-.16c.04-1.2-.32-2.41-.22-3.61.08-.92.53-1.78.72-2.67.33-1.53.4-3.96.27-5.53-.12-1.46-1.04-2.83-.82-4.31.27,1.68,1.39,3.07,1.54,4.77.23,2.52-.36,4.63-.89,7.03-.32,1.45-.36,3-.38,4.48Z"/>
  <path class="cls-31" d="M958.03,863.92l-.52-1.07c-.57-1.72-.97-3.52-1.12-5.33-.11-1.34-.15-2.69.14-4.01.22-1,.73-1.89.61-2.97-.03-.3-.36-.6-.04-.83.7,1.42-.06,2.9-.26,4.33-.28,1.98-.03,5.06.37,7.04.2.97.56,1.89.82,2.84Z"/>
  <path class="cls-50" d="M853.66,871.35l.22,1.48c.15,1.86-.98,3.34-.74,5.22.08.66.44,1.54.66,2.19,1.14,3.41,2.98,6.64,3.69,10.19h-.22c.07-.71-.23-1.39-.46-2.05-.82-2.32-1.94-4.62-2.79-6.94-.52-1.41-1.26-3.04-1.11-4.55.08-.83.75-2.23.75-2.85v-2.68Z"/>
  <path class="cls-15" d="M856.72,924.35l-.2-.83c0-2.38-1.14-4.77-1.32-7.09-.11-1.41.1-2.96,0-4.37-.06-.93-.42-1.84-.33-2.78l.54,2.68c.09,1.46-.11,3.03,0,4.48.2,2.56,1.44,5.27,1.31,7.92Z"/>
  <path class="cls-50" d="M864.59,903.26c.91-.62,1.21-1.75,1.81-2.61,1.98-2.85,3.8-5.36,6.5-7.55.19.08-.27.45-.33.49-2.47,2.16-4.08,4.57-5.99,7.23-.37.51-1.4,2.49-1.93,2.55-.07,0-.05-.11-.06-.11Z"/>
  <path class="cls-37" d="M961.85,839.01c-.79-.08-1.84-.22-2.62-.11l.36-.35,1.72-1.07c.13.44.37,1.1.55,1.53Z"/>
  <path class="cls-28" d="M856.61,906.54c-.18,0-.24.07-.2-.14.21-1.13.97-2.04,1.42-3.06,1-2.28,1.42-4.97,1.51-7.45,0-.13-.08-.41.11-.38,0,2.53-.37,5.69-1.45,8-.47,1-1.39,1.87-1.39,3.04Z"/>
  <path class="cls-32" d="M920.87,919.76c-.18.03-.12-.27-.11-.39.08-1.38.33-2.76.23-4.15-.07-.92-.42-1.91-.45-2.83-.02-.81.16-1.65.17-2.46.13,0,.04,2.31.06,2.57.06.91.37,1.82.44,2.73.11,1.49-.2,3.05-.33,4.54Z"/>
  <path class="cls-24" d="M926.01,899.98c-.14,1.36-1.07,2.53-1.19,3.89-.08.86.17,1.57.21,2.39.07,1.22-.03,2.9-.77,3.88.49-1.22.62-2.57.55-3.88-.03-.51-.2-1.14-.22-1.64-.07-1.64.88-2.83,1.2-4.37.04-.19-.12-.33.22-.27Z"/>
  <path class="cls-32" d="M922.73,894.08c.08-.68.13-1.43.6-1.97.5-.58,1.28-.59,1.9-.94.81-.46,1.8-1.7,2.14-2.56l.49-1.75c0,1.59-1.09,3.67-2.48,4.46-.81.47-1.89.43-2.27,1.44-.17.45-.04,1.03-.38,1.31Z"/>
  <path class="cls-40" d="M974.09,878.56c-1.37-1.34-1.44-3.42-2.2-5.07-.39-.84-1.08-1.49-1.4-2.36.48.63,1.14,1.35,1.5,2.05.49.97.67,2.17,1.07,3.19.29.74.73,1.45,1.04,2.19Z"/>
  <path class="cls-46" d="M930.16,890.69l1.8-.32c1.07-.28,2.04-1.18,2.55-2.15.46-.89.53-2.02,1.22-2.77-.59,1.41-.75,2.95-1.91,4.05-.97.92-2.34,1.32-3.66,1.2Z"/>
  <path class="cls-46" d="M869.07,891.68c-.34-.38,1.9-1.11,2.04-1.18,1.02-.52,1.67-1.65,2.33-2.53-.33,1.04-1.27,2.24-2.25,2.72-.7.34-1.54.41-2.12,1Z"/>
  <path class="cls-56" d="M923.06,927.3c-.1.71-.26,1.62-.22,2.35.06,1.08.69,2.13.65,3.22l-.87-3.01c.06-.76.13-1.53.22-2.29.02-.21-.1-.32.22-.27Z"/>
  <path class="cls-59" d="M859.01,913.09c-.2-.04-.2-.21-.22-.38-.19-1.69.75-2.79.99-4.37.15-.18.12.13.11.22-.03.32-.11.59-.19.9-.11.39-.68,1.71-.68,1.94v1.69Z"/>
  <path class="cls-16" d="M856.83,930.96c-.01.09-.15.24-.11.38h-.11c-.12-.26.11-.67.11-.82v-2.68h.11c-.09.98.12,2.16,0,3.11Z"/>
  <path class="cls-46" d="M934.97,895.06c-.06,1.36-1.07,2.56-1.19,3.89-.07.76.17,1.44.21,2.17.06,1.06,0,2.21-.28,3.23-.04.14-.1.52-.27.54.27-1.23.4-2.4.33-3.66-.04-.79-.3-1.59-.21-2.39.11-1,.84-1.98,1.12-2.93.09-.3-.06-.92.29-.85Z"/>
  <path class="cls-15" d="M929.94,914.84c-.19,0-.23.06-.22-.16.08-1.24.25-2.48.34-3.72-.38-1.97-.6-3.94-.39-5.96.12,0,.04,2.1.06,2.35.08,1.16.53,2.51.55,3.61.01.82-.25,1.89-.33,2.73-.04.38.02.77,0,1.15Z"/>
  <path class="cls-46" d="M932.02,922.38c-.02.69-.24,1.57-.22,2.23.02,1.09.74,2.23.66,3.34l-.76-2.68c-.05-.88.06-1.75.11-2.62.01-.22-.09-.32.22-.27Z"/>
  <path class="cls-2" d="M851.19,913.59s.15.04.17.13c.09.42.06,1.11.11,1.56l-.74-1.61c.2-.48.22-.38.46-.08Z"/>
  <path class="cls-55" d="M846.77,915.06c-.03.18-.07.28-.11.44-.66.84-1.17-.16-1.2-.87-.02-.03.03-.17,0-.21-.03-.03-.18.11-.21.1-.05.07-.11.17-.19.17-.27,0-2.81-1.8-2.72-2.37l.07-.42c.22-.36.37-.77.66-1.09.08.22.15.45.28.65l3.45,3.01c.19.19.02.4,0,.6Z"/>
  <path class="cls-5" d="M947.97,879.66l-.77,4.37-.74-2.6-.25-.24-.33,6.77-1.97-5.57-.23.7-.99,1.63-.42,1.5c-.19-1.11,0-2.35-.12-3.43-.01-.11-.19-.86-.31-.72-.02.1.02.24,0,.33-.28,1.01-.7,1.95-.98,2.95-.19.03-.1-.25-.11-.38-.05-1.07.24-.97.6-1.81.26-.6.3-1.27.6-1.86,2.08-.58,4.01-.69,6.01-1.64Z"/>
  <path class="cls-5" d="M955.41,872.88c.05-.06.46-.98.66-.76.4,1.78,1.42,3.43,1.75,5.24.02.09.04.39-.05.44-1.05-1.5-1.57-3.28-2.35-4.92Z"/>
  <path class="cls-5" d="M951.14,877.69l-.33,3.5-.44-2.4c-.02-.23-.54-.34-.44-.44.01-.01.17-.04.27-.11.3-.24.61-.49.88-.76l.05.22Z"/>
  <path class="cls-4" d="M952.35,876.27c.17.97-.1,2.04,0,3.06l-.76-1.97-.06-.32c.22-.29.59-.52.82-.77Z"/>
  <path class="cls-47" d="M842.4,911.89c.2.19.07.5.25.73.27.35,2.18,1.82,2.59,1.89l-1.86,3.39c-.1-.06-.09-.11-.07-.21.13-.69.62-1.47.72-2.19-.52.57-.85,1.31-1.28,1.94-.03.05-.18.34-.25.19l.87-2.57-1.75,2.19,1.42-3.39c-.52.34-.95.79-1.42,1.2-.07.06-1.1,1.02-.87.49.05-.13.81-.89.98-1.1.22-.27.55-.6.66-.93-.08-.08-1.61.75-1.86.83-.1.03-.16.03-.21-.07.88-.7,1.51-1.45,2.08-2.4Z"/>
  <path class="cls-47" d="M846.66,915.5c-.39,1.47-1.34,2.76-2.3,3.93-.06.07-.23.41-.22.06.83-1.49.98-3.22,1.31-4.86.03.04.14.07.19.18.25.52.16.99,1.01.69Z"/>
  <path class="cls-1" d="M971.8,851.57c-.13.2.07.29.22.11.38.24.72.36.46.95-.86,2-3.66-1.79-1-1.24.15.03.23.14.31.17Z"/>
  <path class="cls-58" d="M971.8,851.57c.09.03.14.06.22.11l.22.76c-.16.08-.63-.09-.55-.22.01-.01.3.07.22-.16-.12-.34-.4.11-.44.05.02-.32-.17-.64.33-.55Z"/>
  <path class="cls-32" d="M865.68,919.43l-.36-2.53c-1.22-3.36-.93-6.47-1.16-9.87-.06-.9-.4-1.77-.33-2.67l.54,2.57c.09,1.46-.11,3.03,0,4.48.21,2.61,1.46,5.33,1.31,8.03Z"/>
  <path class="cls-12" d="M867.97,908.18l-.22-.93c-.08-1.37.95-2.47.98-3.82.15-.18.12.13.11.22-.02.37-.09.66-.19,1.01-.13.44-.69,1.59-.69,1.94v1.58Z"/>
  <path class="cls-65" d="M865.68,922.93l.22,1.69c.02.64.02,1.21-.23,1.81-.29-.02,0-.43,0-.49v-3Z"/>
</svg>