<?xml version="1.0" encoding="UTF-8"?>
<svg id="Lager_1" data-name="Lager 1" xmlns="http://www.w3.org/2000/svg" viewBox="0 0 1254 1280">
  <defs>
    <style>
      .cls-1 {
        fill: #f1f1f1;
      }

      .cls-2 {
        fill: #7d6e64;
      }

      .cls-3 {
        fill: #b57f65;
      }

      .cls-4 {
        fill: #a08f85;
      }

      .cls-5 {
        fill: #7d746e;
      }

      .cls-6 {
        fill: #ac9b90;
      }

      .cls-7 {
        fill: #796a60;
      }

      .cls-8 {
        fill: #66615c;
      }

      .cls-9 {
        fill: #4d433b;
      }

      .cls-10 {
        fill: #a69286;
      }

      .cls-11 {
        fill: #e7efee;
      }

      .cls-12 {
        fill: #937c6d;
      }

      .cls-13 {
        fill: #937c6c;
      }

      .cls-14 {
        fill: #7c7872;
      }

      .cls-15 {
        fill: #7b736d;
      }

      .cls-16 {
        fill: #61493d;
      }

      .cls-17 {
        fill: #dedad7;
      }

      .cls-18 {
        fill: #4f443c;
      }

      .cls-19 {
        fill: #554b43;
      }

      .cls-20 {
        fill: #59534e;
      }

      .cls-21 {
        fill: #cac5c3;
      }

      .cls-22 {
        fill: #cbb8ae;
      }

      .cls-23 {
        fill: #e0e1e3;
      }

      .cls-24 {
        fill: #65554b;
      }

      .cls-25 {
        fill: #797872;
      }

      .cls-26 {
        fill: #58514c;
      }

      .cls-27 {
        fill: #e09b7c;
      }

      .cls-28 {
        fill: #4c453e;
      }

      .cls-29 {
        fill: #73847f;
      }

      .cls-30 {
        fill: #e7f1f0;
      }

      .cls-31 {
        fill: #564f49;
      }

      .cls-32 {
        fill: #ac9b91;
      }

      .cls-33 {
        fill: #a7abae;
      }

      .cls-34 {
        fill: #e2dfdb;
      }

      .cls-35 {
        fill: #cbc2bc;
      }

      .cls-36 {
        fill: #eaefee;
      }

      .cls-37 {
        fill: #5f4f45;
      }

      .cls-38 {
        fill: #5a544e;
      }

      .cls-39 {
        fill: #766c67;
      }

      .cls-40 {
        fill: #8c7f77;
      }

      .cls-41 {
        fill: #807871;
      }

      .cls-42 {
        fill: #87796f;
      }

      .cls-43 {
        fill: #fefefe;
      }

      .cls-44 {
        fill: #625248;
      }

      .cls-45 {
        fill: #998b82;
      }

      .cls-46 {
        fill: #68433a;
      }

      .cls-47 {
        fill: #b3aca7;
      }

      .cls-48 {
        fill: #7b6c62;
      }

      .cls-49 {
        fill: #83695c;
      }

      .cls-50 {
        fill: #4d443d;
      }

      .cls-51 {
        fill: #7d736d;
      }

      .cls-52 {
        fill: #4f433c;
      }

      .cls-53 {
        fill: #544840;
      }

      .cls-54 {
        fill: #7d726c;
      }

      .cls-55 {
        fill: #7a7b75;
      }

      .cls-56 {
        fill: #7ae4dc;
      }

      .cls-57 {
        fill: #ccc8c5;
      }

      .cls-58 {
        fill: #bfb1a8;
      }

      .cls-59 {
        fill: #ebebed;
      }

      .cls-60 {
        fill: #312018;
      }

      .cls-61 {
        fill: #4c423b;
      }

      .cls-62 {
        fill: #cabcb5;
      }

      .cls-63 {
        fill: #66564c;
      }

      .cls-64 {
        fill: #c4bfbc;
      }

      .cls-65 {
        fill: #b6a498;
      }

      .cls-66 {
        fill: #d0bca1;
      }

      .cls-67 {
        fill: #3b3632;
      }

      .cls-68 {
        fill: #65564c;
      }

      .cls-69 {
        fill: #292b2a;
      }

      .cls-70 {
        fill: #6d6762;
      }

      .cls-71 {
        fill: #edf4f3;
      }

      .cls-72 {
        fill: #776f69;
      }

      .cls-73 {
        fill: #b37f66;
      }

      .cls-74 {
        fill: #c8c4c0;
      }

      .cls-75 {
        fill: #8b8079;
      }

      .cls-76 {
        fill: #d0d1d3;
      }

      .cls-77 {
        fill: #9f9793;
      }
    </style>
  </defs>
  <path class="cls-65" d="M537.08,145.76c.16.2,0,.09,0,.08.16-.14,1.23.16,1.43.4,4.97,1.21,8.75,4.62,9.19,9.88s-2.82,10.1-7.52,12.58c-.77.41-3.25,1.56-3.98,1.51-.08,0-.16-.02-.23-.04l-.03-.3c.34-.75.56-1.56.59-2.39l.16-.25c-.36-1.86-1.53-3.26-3.34-3.87s-4.93-.36-6.56.53c-1.26.69-1.67,1.61-2.18,2.86-.02.15.02.27.12.34-.06.94.18,1.87.56,2.72l-.05.27c-.07.02-.14.04-.22.05-.69.08-3.25-1.11-3.99-1.5-4.59-2.43-7.87-7.1-7.49-12.42s4.3-8.76,9.23-9.96c-.03-.2.04-.28.24-.24.01,0,.16.08.27.07,1.04-.11,2.1-.42,3.19-.47,3.28-.17,6.92-.02,10.19.23.15.01.29.02.42-.07Z"/>
  <path class="cls-66" d="M592.77,182.86c.11.19.23.4.29.62.18.67.49,3.25.38,3.72-.05.22-.55.05-.63-.15-.94-1.37-1.96-2.78-3.4-3.71.45,1.86.82,3.74,1.1,5.62.08,1.12-.05,3.91-1.72,2.53-1.95-1.78-2.76-1.92-2.42-.43.2.83.42,1.65.68,2.46.17.84.26,1.82-.88.88-1.31-1.18-5-4.48-3.95-.38l.77,2.41c.27.91-.34.75-.95.55-.86-.45-1.72-.87-2.6-1.27-.34.2.76,2.48.93,2.83.24.58.02.64-.5.62-.57-.02-1.11-.38-1.54-.74-1.05-1.09-1.96-2.19-2.94-3.34-.11-.07-.13-.07-.08,0,.16.53.32,1.2-.08,1.67-.06,0-.11-.02-.16-.05-.86-.37-1.44-4.01-1.24-4.98.16-1.88.4-3.75.73-5.61.49-3.63.19-7.5-2.09-10.51l-.09-.39c-.27-.5-.48-1.02-.63-1.57-.71-1.8-1.35-2.7-2.47-4.23-.1-.14-.2-.3-.23-.47l-.25-.03c-.78-.74-1.66-1.38-2.64-1.82l-.12-.22c.45-.18.93-.3,1.41-.38,1.86-.28,3.99-.25,5.8.27,3.13.91,6,1.57,8.86,3.21,2.38,1.37,7.29,5.11,8.57,7.48.27.49.58,1,.13,1.51-.16.18-.59.23-.54.41.01.05.39.38.47.48.48.59,1.91,2.34,2.07,2.98Z"/>
  <path class="cls-65" d="M566,166.89c1.05.41,2.23,1.27,3.02,2.07.36.73.56,1.63.62,2.48.06.93.11,1.7-1.02,1.65l-.17.19c-1.23.23-2.17,1.13-2.93,2.07l-.24.05c-2.78,2.23-4.63,5.43-5.48,8.9.05.21,0,.24-.16.08-.08.07-.16.13-.25.18s-.17.11-.26.13c-1.49.45-3.01.9-4.53,1.23-.09.02-.19.02-.3,0s-.2-.02-.31-.04c-.03.07-.05.07-.08,0l-.22-.1c-.39-.86-1.12-1.46-1.84-2.04l-.24-.03c-1.31-1.51-2.74-1.6-4.13-.13-.07.38-.25.74-.53,1.1-.18.47-.43.84-.74,1.13-.03.06-.08.14-.12.12-4.19-1.32-6.88-3.73-8.5-8-.28-.73-1.2-3.59-1.06-4.16.02-.07.04-.13.07-.19-.07-.03-.07-.05,0-.08l.35-.28c2.87-.98,5.38-2.8,7.37-5.07l.39-.21c7.36,2.64,14.55-3.65,21.29-1.03Z"/>
  <path class="cls-59" d="M529.21,174.44c.95.07,1.9.07,2.86,0l.32-.18c1.35-.18,2.69-.43,4.02-.76l.19.06c.83,4.79,2.73,9.28,7.41,11.37l2.2.86c.07.44-.21,1.07-.56,1.35-.58,1.36-1.14,2.73-1.69,4.11-1.23,2.6-2.57,3.2-5.47,3.15-4.36-.07-8.86-1.74-12.15-4.64-5.28-5.45-4.22-10.24-2.86-17.08l.32-.02c1.61.79,3.3,1.53,5.12,1.6l.28.16Z"/>
  <path class="cls-45" d="M564.72,176.35c3.05-4.19,7.49-1.78,7.83,3.03.22,3.32.07,6.66-.45,10-.43,3.17-.38,6.05,1.98,8.45.12.21-.06.35-.28.36l-.91-.06c2.08,1.1,2.85,3.31,3.05,5.53.21,2.35-.3,7.36-1.87,9.2-.26.3-.79.86-1.17.66-.07.06-.28.23-.41.28-.4.15-1.35.32-1.66.04-.02-.09-.1-.12-.24-.08-.07.15-.22.18-.48.08.22-.83,1.05-1.27,1.5-1.96,1-1.56,1.38-4.83.79-6.56-.73-2.13-3.09-2.93-4.82-4-.38-.24-.85-.69-1.2-.87-.19-.09-.14,0-.24.12-.11-.07-.17-.18-.17-.32-1.07-.83-1.97-2.13-2.67-3.32-.34-.59-1.52-2.81-1.43-3.33.01-.06.03-.12.06-.18-.05-.04-.1-.08-.14-.12-.41-.45-.67-3.75-.71-4.56s-.1-4.3.25-4.79c.04-.05.08-.09.13-.14-.03-.05-.06-.1-.08-.16-.18-.51,1.38-5.11,1.83-5.41.05-.03.1-.06.16-.08.37-.68.82-1.29,1.35-1.83Z"/>
  <path class="cls-45" d="M549.47,217.42c-.07,0-.07-.04,0-.08l.08-.32c-.27-.14.05-.69.24-.79l-.08-.08c-.18.4-.34.82-.47,1.25l-.17.1c-.01.07-.04.07-.08,0-.34.28-1.41.1-1.59-.32-.25-.27.14-.85.4-1.03,0-.08-.03-.11-.08-.08-.14.3-.29.6-.45.92l-.19.03c-.18.29-.42-.09-.32-.32.17-1.02.88-1.36,1.38-2.15,1.51-2.37.5-8.52-.21-11.21-.68-2.55-1.96-4.87-2.6-7.37-.06-.06-.11-.12-.15-.18-.31-.46-.42-2.1-.46-2.75-.11-1.95.06-4.12.93-5.88.15-.46.36-.91.56-1.35.36-.8.74-1.52,1.27-2.22,1.27-1.3,2.74-.79,3.64.67,1.24,2.02,2.2,6.51,2.24,8.9.06,4.18-.38,8.16-.92,12.3-.32,3-.34,6.1.28,9.01.21,1.39-.56,2.34-1.8,2.85-.37.15-1.21.45-1.45.12Z"/>
  <path class="cls-45" d="M592.85,182.94l.08.08c.72.95,1.7,3.02,1.9,4.18.12.73.31,2.67-.94,2.33-.12.05-.2.11-.24.24.48.88,1.6,3.21,1.41,4.15-.07.35-.52.75-.86.53-.11.05-.14.13-.16.24.54,1.75.85,4.55.95,6.4.07,1.15-.09,2.98-1.67,2.7-1.4-.92-2.93-1.65-4.37-2.51-.2,0-.27,0-.4.16.06,1.04-.03,1.88-1.35,1.47-.95-.29-3.87-2.89-4.69-3.69-.25.09-.42-.18-.4-.4-.06,0-.09.06-.08.16.21-.02.3.31.08.4.11,1.36-.94,1.47-1.9.83-.74-.49-1.35-1.19-1.91-1.78.4.21.76.4,1.2.5.17.04.73.2.78,0,.05-.2-.78-1.73-.9-2.12-.13-.43-.17-.8-.14-1.25.2-.19,2.36,1.11,2.76,1.25.18.06.74.27.86.1.13-.19-.93-2.91-.99-3.47-.17-1.59.39-1.97,1.76-1.21,1.14.63,2.07,1.78,3.19,2.45.19-.04.12-.66.1-.81-.1-.73-1.2-3.41-.68-3.93.31-.3.92.13,1.2.31.52.34,1.56,1.39,2.1,1.48.44.08.63-.83.7-1.17.18-.88.07-1.84-.07-2.72-.25-1.63-.83-3.19-1.01-4.83,1.1.64,1.98,1.61,2.78,2.58.26.32.84,1.3,1.07,1.47.1.07.16.09.28.07-.04-.62-.09-1.24-.17-1.86-.09-.7-.22-1.77-.39-2.43.03.02.05.05.08.08Z"/>
  <path class="cls-32" d="M556.62,128.44c-.36.63-1.16,1.05-1.83,1.35.02.11-.13.2-.24.24l-.14.26c-1.38,1.3-2.69,2.67-3.91,4.11l1.37-.22c.97-.13,2.66.02.94.97-1.63.75-3.11,1.74-4.43,2.96l1.5-.62c.38-.21,1.64-.48,1.24.29-1.45,1.12-2.88,2.26-4.07,3.74l2.8-.6c.38.03.51.45.11.67-1.39,1.17-2.75,2.39-4,3.71l1.7-.33c.3.02.52.04.53.39.01.5-2.19,2.12-2.68,2.45h-.25s-.5-.07-.5-.07c-2.29-1.19-4.81-1.78-7.3-2.32l-.22-.14c3.48-8.03,10.46-14.85,19.15-16.76l.08-.08s.11,0,.16,0Z"/>
  <path class="cls-32" d="M522.46,144.73l-.34.23c-2.41.51-4.67,1.64-6.5,3.28l-.39.14-.25-.06c-.98-.79-1.92-1.6-2.82-2.43-1.17-1.38,1.18-.81,1.88-.57-1.29-1.32-2.63-2.59-4.07-3.74-.38-.23-.32-.6.08-.65l2.93.62c-1.26-1.4-2.63-2.65-4.14-3.74-.38-.89.91-.48,1.35-.27l1.52.65c-.73-.76-1.59-1.4-2.52-1.92l-2.69-1.52c-.63-.5.94-.77,1.25-.59l1.68.21c-1.2-1.55-2.53-2.92-4.02-4.14l-.03-.21c-.15-.1-.26-.21-.32-.32-.6-.22-1.41-.68-1.67-1.27,8.79,1.81,15.28,8.44,19.07,16.29Z"/>
  <path class="cls-45" d="M534.14,217.74c-.33-.35-.06-1.22.32-1.51,0-.06-.02-.09-.08-.08-.21.42-.38.87-.53,1.33l-.19.1c-.02.1-.05.22-.14.28-.14.1-1.55-.41-1.45-.76.09-.54.02-.65-.24-.32-.2.17-.42-.09-.4-.32.25-.91,1.3-1.57,1.71-2.62,1-2.59.07-8.26-.7-10.98-.7-2.48-2.07-4.9-2.6-7.37.07-.06.15-.12.24-.13.86-.06,2.93.91,3.7,1.37,3.78,2.3,4.33,5.22,4.02,9.42-.35,2.55-.55,5-.23,7.54.07,1.63-.47,2.92-1.94,3.71-.39.21-1.13.57-1.5.32Z"/>
  <path class="cls-54" d="M572.35,175.23c2.29,2.92,2.75,6.17,2.46,9.81s-2,8.5.4,11.72c.68.91,1.13.92,1.9,1.56.99.81.96,1.72.78,2.91-.3,1.94-.97,3.91-1.17,5.9-.22,2.19.56,5.3-.91,7.11-.75.92-1.98.94-3.1,1.04-.13.01-.36.04-.44-.08l.14-.2c0-.36.02-.87.33-1.07.07-.14.13-.27.16-.4,1.86-.68,2.4-3.84,2.68-5.62.53-3.44.52-8.39-3.31-9.87-.02-.14.18-.08.28-.08.5-.01.98.17,1.47.04-1.14-1.43-2.08-2.61-2.22-4.53-.36-4.94,2.39-13.78-.84-17.83-1.84-2.31-4.6-1.18-6.23.71h-.08c-.04-.05-.09-.12-.09-.19,0-.19.55-.63.73-.76.84-1.07,1.92-2.13,3.34-2.3,1.53-.52,3.12.79,3.73,2.14Z"/>
  <path class="cls-45" d="M560.83,193.51c.47.86,1.03,1.65,1.69,2.37.46.62.09.78-1.11.49,2.75,1.46,3.27,4.84,3.1,7.68-.12,2.02-.51,4.47-1.33,6.32-.34.77-.84,1.23-1.63,1.41-.01.15-.14.15-.16,0l-.08.08c-.26.3-1.55.55-1.85.35l-.06-.19c-.02-.08-.08-.1-.16-.08.04.03.04.05,0,.08h-.08c-.07.2-.42.25-.48,0,.23-.72,1.09-1.25,1.5-1.88,1.07-1.65,1.44-5.35.53-7.1-.84-1.62-3.71-2.98-5.28-3.93-.13-.08-.16-.17-.32-.03l-.09-.2c.1-1.59.14-3.19.11-4.8l.14-.4c.09-.04.18-.08.28-.11s.18-.06.28-.06c1.48-.05,2.97-.08,4.45-.11.19,0,.38.06.56.12Z"/>
  <path class="cls-54" d="M551.85,183.73c.73.47,1.16,1.24,1.57,1.99l-.06.24c.07.03.07.05,0,.08l.08.08.25.11c1.13,2.21,1.49,4.75,1.72,7.2l-.14.23c.12,1.92,0,3.5-.16,5.4-.27,3.41-.94,6.93-1.11,10.29-.1,1.91.32,5.88-.46,7.48-.59,1.19-2.5,1.47-3.71,1.54-.17,0-.8.04-.84-.08l.35-.16c-.1-.31-.05-.53.12-.64-.07-.01-.07-.04,0-.08,1.21.06,2.93-.8,3.09-2.11.11-.94-.17-1.6-.29-2.48-.88-6.6,1.32-13.02.93-19.68-.14-2.31-1.12-8.2-2.94-9.69-.91-.75-1.88-.49-2.78.12,1.42-1.91,2.94-1.44,4.37.16Z"/>
  <path class="cls-76" d="M503.39,128.44c.53.45,1.13.82,1.67,1.27.09.09.04.12-.16.08l-.3.05c-4.9-2.02-5.11,2.89-4.69,6.33.95,7.77,3.69,16.06,10.72,20.42l.31.37c.19.21.16,1.2.08,1.48l-.16.11c-7.87-2.51-11.29-11.53-12.38-19.04-.45-3.12-.99-8.06.8-10.78.69-1.05,1.29-.74,2.4-.6.57.08,1.15.19,1.72.31Z"/>
  <path class="cls-76" d="M550.9,157.84c-.06-.01-.15-.03-.17-.08-.05-.23-.16-1.74-.07-1.85.02-.03.05-.04.08-.06l.26-.4c5.46-4.5,8.1-11.52,9.01-18.37.49-3.66.56-9.54-4.84-7.17l-.31-.04c-.11.09-.15.05-.08-.08.59-.48,1.22-.89,1.83-1.35.87-.18,2.2-.48,3.06-.48.81,0,1.45,1.55,1.69,2.21,1.01,2.76.42,7.75-.1,10.67-1.15,6.48-4.1,13.97-10.37,17Z"/>
  <path class="cls-54" d="M539.94,196.6c-.05,1.23-.12,2.47-.24,3.69-.32,3.35-.98,6.73-1.12,10.09-.07,1.71.35,5.45-.6,6.79-.6.86-2.57,1.15-3.57,1.2-.16,0-.8.04-.84-.08.21-.08.4-.18.56-.32-.02-.09-.02-.17,0-.24,1.14-.16,2.33-.81,2.87-1.85.82-1.55.14-3.8.22-5.5.16-3.23,1.12-6.46-.07-9.69-1.01-2.74-4.48-4.9-7.31-5.2-.21-.99-.34-2.01-.32-3.02l.26-.02c3.05,1.8,6.43,3.46,9.96,3.98l.19.17Z"/>
  <path class="cls-58" d="M545.34,195.97c-.79.12-1.56.36-2.35.47-.87.11-2.21.21-3.05.17-2.79-.14-8.03-2.56-10.41-4.13-1.2-.79-2.18-1.67-3.18-2.7,1.66,1.16,3.35,2.29,5.25,3.06,2.52,1.03,6.92,1.91,9.55,1.13,2.87-.85,2.99-4.72,4.51-6.81-.93,2.84-1.06,5.92-.32,8.82Z"/>
  <path class="cls-54" d="M561.94,193.43c.66,2.28,2.11,4.74,3.77,6.44.35.36.49.13.44.71-.12,1.5-.71,3.16-.87,4.73-.3,2.97,1.15,8.23-3.5,8.14l-.59.05s.01-.87.03-1c-.19-.07-.1-.3.08-.32.08-.17.16-.3.24-.4.8-.39,1.26-.87,1.59-1.71.88-2.21,1.42-5.92,1.19-8.26s-1.22-4.8-3.57-5.52c.05-.14.47-.09.6-.08.4.03.82.16,1.23.16.14-.13-.6-.85-.71-.99-.35-.46-.76-1.02-1-1.55-.05-.11-.14-.19-.04-.32.28-.27.8-.31,1.11-.08Z"/>
  <path class="cls-4" d="M545.58,150.05c.26-.07.67.39.56.64l.22.03c.12.08.85,1.16.66,1.32.12.05.23.12.31.23.88,1.18,1.23,3.66,1.28,4.94.03.43.04.89.01,1.39l-.17.2c-.3,3.38-1.91,6.22-4.32,8.51-.13.12-.18.13-.05.31-2.03,1.69-4.64,3.19-7.32,3.85-.07.02-.15.01-.23,0s-.16-.02-.24-.05c-.07.32-1.09.53-1.19.16l-.06-.19.74-1.21.19-.03c2.46-.68,4.81-1.72,6.79-3.34,6.76-5.5,6.62-15.81-1.73-19.63-.82-.37-1.68-.63-2.52-.94.06-.03.13-.05.19-.06.62-.12,3.24,1.08,3.93,1.45.65.35,2.7,1.63,2.91,2.23.02.06.03.13.04.2Z"/>
  <path class="cls-4" d="M522.78,146.24c-.65.34-1.62.53-2.36.86-6.69,2.95-8.63,10.26-4.79,16.42,2.15,3.45,5.75,5.53,9.61,6.55l.21.06.72,1.16-.05.21.08.08c.07.02.07.05,0,.08l-.18.09c-.72-.2-1.44-.38-2.16-.55l-.04-.18c-5.63-1.78-10.19-5.91-10.96-12-.27-.09-.41-1.03-.16-1.19-.07-.05-.14-.12-.16-.21-.1-.38.2-1.83.31-2.29.13-.56.5-2.05.81-2.45.06-.07.15-.11.23-.13-.05-.31.07-.63.34-.98.17-.41.4-.67.69-.77-.16-.17-.06-.29.16-.24,0-.07,0-.14.02-.2.18-.71,2.42-2.29,3.13-2.71.75-.45,3.64-1.84,4.36-1.68.06.01.13.04.19.07Z"/>
  <path class="cls-40" d="M522.46,144.73c.2.42.43.82.56,1.27-.02.02.03.1-.24.24-2.88.64-5.87,2.17-7.71,4.53-.05.04-.13.09-.16.06-.14-.11-.91-.88-.91-.98,0-.04.02-.07.04-.11-.07-.03-.07-.05,0-.08.02-.44.6-1.04,1.03-1.11-.08-.2-.04-.24.16-.16,1.98-1.89,4.53-3.16,7.23-3.65Z"/>
  <path class="cls-13" d="M544.07,167.61c.3.06.45.25.64.32-2.14,2.54-4.9,4.56-8.1,5.56-.32-.34-.48-1.19-.24-1.59l-.08-.4c-.07-.02-.07-.05,0-.08,2.78-.72,5.37-1.96,7.55-3.85.08-.03.16.02.24.03Z"/>
  <path class="cls-40" d="M545.26,147.83c.07.02.07.05,0,.08,0,.17-.12.33-.36.48.31-.19.59-.24.84-.16.03-.07.05-.07.08,0,.3-.05.91.33.87.64.07.02.07.05,0,.08v.22s-.89.86-.89.86l-.22.03c-1.83-1.97-4.49-3.18-7.07-3.81-.5-.12-1-.23-1.51-.32-.03-.02.06-.11.08-.16.05-.17.09-.31.16-.48,2.77.44,5.54,1.2,8.02,2.54Z"/>
  <path class="cls-58" d="M526.19,171.66l.19-.06c.84,1.05,1.8,2.16,3.15,2.56l.15.2c.06.18-.33.15-.48.08-2.01.01-3.96-.88-5.72-1.75.11-.55.2-1.12.32-1.67.57.18,2.01.44,2.38.64Z"/>
  <path class="cls-33" d="M550.9,157.84c-.8.39-1.6.73-2.46.95.04-.42.04-.89,0-1.31.01-.08.1-.23.16-.28l-.05-.1c.59-.37,1.19-.78,1.81-1.22l.31-.03c.03-.07.05-.07.08,0l.16,1.99Z"/>
  <path class="cls-33" d="M512.69,157.84c0,.29.12.86.16,1.19-.69-.02-1.34-.27-1.99-.48l.08-1.59c.02-.07.05-.07.08,0,.04-.05.1-.07.16-.06.11,0,1.37.73,1.51.93Z"/>
  <path class="cls-54" d="M561.31,211.86c-.21.48-.36.95-.43,1.43h.09c-.04-.4.05-.66.26-.79v.95c.18,0,.37,0,.56,0-.48.17-1.12.08-1.61-.02s-.78-.21-1.18-.53c-.06-.31.15-.63.32-.87.02-.07.05-.07.08,0,.6.25,1.29-.08,1.91-.16Z"/>
  <path class="cls-54" d="M572.91,213.53c0,.15-.02.31-.16.4-.27.21-.42.76-.47,1.14l-.16.13c-.69-.02-1.08-.13-1.59-.56-.15-.14-.03-.58.16-.64l.08-.08c-.07-.02-.07-.05,0-.08.01-.07.04-.07.08,0,.65.02,1.46-.09,2.07-.32Z"/>
  <path class="cls-51" d="M548.99,217.5c.26.08.21.68,0,.79-.63,0-1.23-.12-1.75-.48-.1-.15-.16-.53.08-.56,0-.08.02-.11.08-.08.5.24,1.04.3,1.59.32Z"/>
  <path class="cls-51" d="M532.07,217.1c.3.19.63.39.97.5.16.05.56.21.62-.02.2.05.2.09,0,.16.23.06.07.45-.08.56-.64,0-1.14-.12-1.67-.48-.11-.17-.15-.57.08-.64.02-.06.04-.08.08-.08Z"/>
  <path class="cls-28" d="M572.75,213.92c-.12.44-.22.79-.16,1.27-.11,0-.21,0-.32,0-.05,0-.11,0-.16,0-.02-.61.32-1.13.68-1.59.1.05-.02.23-.04.32Z"/>
  <path class="cls-25" d="M531.83,216.78v.08c.1.19-.02.61-.16.79-.37-.39-.37-.71-.24-1.19l.4.32Z"/>
  <path class="cls-18" d="M531.99,217.18c-.01.2.07.5-.08.64-.08-.06-.15-.07-.24-.16-.09-.26.02-.57.16-.79.35-.64.33-.11.16.32Z"/>
  <path class="cls-14" d="M559.16,212.02v.08c-.02.24-.1.48-.24.71-.3-.31-.4-.3-.24-.79h.48Z"/>
  <path class="cls-55" d="M570.6,213.76c.07.02.07.05,0,.08-.02.21-.1.57-.24.71-.26-.28-.34-.34-.24-.71.1-.26.24-.05.48-.08Z"/>
  <path class="cls-52" d="M547.33,217.26c-.03.17.08.44-.08.56-.13-.09-.14-.12-.24-.24-.18-.3-.15-.46.08-.48.15-.38.38-.17.24.16Z"/>
  <path class="cls-29" d="M547.09,217.02s.04.05,0,.08c-.05.16-.12.3-.08.48-.2-.25-.33-.38-.32-.75,0-.06.07-.11.08-.13,0,.2.16.26.32.32Z"/>
  <path class="cls-53" d="M559.32,212.02c0,.21-.24.65-.32.87-.03-.02-.05-.05-.08-.08-.07-.33.11-.48.24-.71l.08-.08s-.01-.06,0-.08c.14-.11.19-.06.08.08Z"/>
  <path class="cls-71" d="M582.52,199.23l-.4.16s-.06-.3-.08-.4c-.04-.15-.01-.2.08-.16.17.14.26.26.4.4Z"/>
  <path class="cls-19" d="M570.76,213.84v.08l-.08.08c-.07.19-.13.43-.16.64-.03-.02-.11-.02-.16-.08-.04-.31.11-.49.24-.71.06-.16.19-.19.16,0Z"/>
  <path class="cls-36" d="M594.2,194.46l-.16.24c-.06-.18-.25-.41-.24-.64.17.03.31.34.4.4Z"/>
  <path class="cls-30" d="M588.95,201.29l-.4.16c0-.14-.12-.31-.08-.48.05-.07.44.29.48.32Z"/>
  <path class="cls-11" d="M593.88,189.53l-.24.24c-.04-.07-.26-.38-.24-.4.19-.05.33.12.48.16Z"/>
  <path class="cls-56" d="M575.37,195.09h-.08s-.12-.02-.08-.16c.1,0,.12.11.16.16Z"/>
  <path class="cls-76" d="M556.38,128.52l.08-.08s-.05.07-.08.08Z"/>
  <path class="cls-66" d="M592.93,183.02l-.08-.08s.06.05.08.08Z"/>
  <path class="cls-23" d="M536.68,167.21c.02,1.04-.26,2.01-.71,2.94-.21.42-.6,1.05-.87,1.43.02.09.04.19,0,.28-.49.96-2.49,2.56-3.65,2.5-.47.14-1.3.2-1.75,0-1.18-.25-2.02-1.07-2.82-1.91-.17-.18-.49-.7-.67-.8v-.08l-.08-.08c-.28-.42-.66-.98-.87-1.43-.5-1.05-.8-2.19-.64-3.34l.09-.03c.64-2.05,3.13-3.27,5.15-3.48,2.75-.28,6.2,1.03,6.84,3.99Z"/>
  <path class="cls-49" d="M533.74,160.85c.21.29.55.43,1.01.42.37,0,.72.05,1.05.14l.04-.1c.78-.03,1.57-.04,2.37-.01l.12.11s-.09.07-.19.08c-.29.03-.62-.02-.92,0-.06.02-.06.05,0,.08.03,0,.06,0,.08,0l.16.08c.76.27,2.84.96,3.38,1.43.61.54.15,1.39-.76,1.16-.53-.14-1.53-.76-2.18-1-4.75-1.76-9.91-1.5-14.62.24-.45.17-1.64.8-1.98.8-.5,0-.8-.43-.66-.9.11-.36,1.49-.92,1.87-1.07.75-.3,1.54-.56,2.32-.73.02-.14-.18-.07-.28-.08-.59-.02-1.04,0-1.63-.08.41-.17.87-.22,1.37-.17.47-.06.86,0,1.17.17l.13-.1c.56.03,1.15-.06,1.7-.22l.16.08c.07-.07.05-.2.14-.24.19-.09,1.66-.23,1.96-.24,1.35-.07,2.84-.02,4.17.16Z"/>
  <path class="cls-16" d="M525.8,156.56s.03.09.08.16c.05,0,.08.03.08.08.15.13.23.27.24.4.67.77.63,2.09.26,3.02-.17.43-.5,1.13-.97,1.19-.27,0-.54,0-.83,0-.57-.01-1.14.02-1.71,0-1.31-.17-2.26-.79-3.05-1.83-.22-.29-.47-.59-.44-.95-.31-1.1.8-2.76,1.91-2.94-.06-.15.28-.11.13-.11l-.05-.05c-.02-.25.43-.31.52-.08,0-.06.03-.15.07-.16.12-.02,1.27-.03,1.33,0s.09.1.11.16l.13-.15c.14-.11,2.05.8,2.19,1.03.04.07.06.13.02.23Z"/>
  <path class="cls-16" d="M539.86,155.53s-.04.06-.06.07c-.19.05-.1-.09.06,0,.01,0,.01.04,0,.09.74.01,1.44.87,1.74,1.51.16.34.41.89.17,1.19.04.39.09.38-.1.74-.63,1.21-1.98,2.1-3.32,2.28-.76-.04-1.51.08-2.27.08-.12,0-.23-.08-.27-.08-.48-.01-.82-.73-.99-1.15-.37-.9-.46-2.22.2-2.98-.03-.12.13-.32.24-.32v-.08l.16-.24c.08-.47.76-.79,1.2-.98s.94-.31,1.43-.36c.55-.06,1.42-.12,1.83.22Z"/>
  <path class="cls-1" d="M536.68,167.21c-1.23-3.51-5.66-4.69-8.9-3.29-1.27.55-2.81,1.73-3.1,3.13l-.08-.32c.53-3.58,4.56-4.05,7.51-3.82,2.25.18,4.53,1.93,4.57,4.29Z"/>
  <path class="cls-67" d="M527.31,158.87c.02.12-.01.17-.08.16l-.2-.11c-.25-.61-.5-1.2-.75-1.79-.11-.06-.22-.16-.32-.32v-.08c-.1-.03-.15-.09-.16-.16-.42-.4-1.79-1.11-2.34-1.11h-1.51c-.16,0-.4.07-.52.08-.1.04-.23.06-.4.08l-.1.16c-.76.04-1.53.09-2.29.2l-.16.11c.08.25.05.33-.08.24-.11-.47-.27-.94-.24-1.43.3-.01.61.02.91,0,2.62-.18,5.31-.9,7.19,1.47.62.78.82,1.56,1.03,2.5Z"/>
  <path class="cls-67" d="M533.9,159.03c.17-.85.36-1.5.81-2.25,1.73-2.83,4.71-2.07,7.49-1.88.3.02.61-.01.91,0-.03.43-.14.85-.24,1.27l-.11.04c.07-.31-.05-.46-.37-.43-.04.04-.07.08-.12.1-.18.12-1.77-.06-2.03-.26-.14-.03-.28-.06-.4-.08-1.66-.24-3.17-.08-4.45,1.11-.04.11-.13.19-.24.24.02.12-.12.3-.24.32-.25.62-.5,1.24-.74,1.87l-.22.19c-.07.02-.1-.06-.08-.24Z"/>
  <path class="cls-43" d="M527.23,159.03c.1.09.13.22.08.4.13.09.11.32.08.48.14.14.14.44.08.64.01.21,0,.42,0,.64-.19.19-1.46.31-1.79.32-.1,0-.19-.09-.2-.09,1.14-1.19,1.36-2.71.71-4.21-.05-.13-.05-.15.08-.08.42.52.77,1.26.95,1.91Z"/>
  <path class="cls-43" d="M535.01,157.28c-.61,1.36-.34,3.13.79,4.13-.01,0-.12.09-.27.08-.37-.02-1.25-.09-1.56-.2-.25-.1-.24-.19-.24-.44,0-.17.06-.37.08-.56-.06-.21-.07-.48.08-.64-.03-.14-.05-.32.08-.4.19-.77.5-1.42.95-2.07.11-.11.15-.06.08.08Z"/>
  <path class="cls-43" d="M521.03,155.61c.13-.07.37-.09.32.08-1.11.62-1.82,1.65-1.91,2.94-.04-.04-.1-.15-.16-.16v-.08c-.01-.11-.14-.19-.16-.24-.19-.31-.39-.73-.4-1.11-.16-.26-.23-.58-.24-.95.01-.06-.03-.21,0-.23.09-.09,2.25-.25,2.54-.24Z"/>
  <path class="cls-43" d="M540.26,155.61c.7-.01,1.42.15,2.14.16l.33.05c.18.16-.12,1.16-.25,1.38l-.08.08c.06.02.06.05,0,.08.05.02.05.05,0,.08.03.2-.12.49-.24.64-.06.13-.25.28-.24.48h-.08s-.08-.16-.08-.16c-.13-1.24-.82-2.15-1.91-2.7-.07-.17.26-.15.4-.08Z"/>
  <path class="cls-26" d="M542.4,155.77c.39,0,.42-.11.41.34l.06.05c-.1.43-.26.79-.4,1.19-.02.07-.05.07-.08,0,0-.02,0-.06,0-.08l.08-.08c.07-.26.28-1.09.24-1.31-.02-.1-.28,0-.32-.12Z"/>
  <path class="cls-72" d="M519.12,158.15c-.07.2-.12-.08-.15-.13-.11-.27-.24-.55-.33-.82-.02-.13,0-.18.08-.16.1.34.28.75.4,1.11Z"/>
  <path class="cls-38" d="M518.73,157.04l-.08.16c-.09-.27-.17-.6-.24-.87.11-.04.06-.16.08-.24.16.27.15.66.24.95Z"/>
  <path class="cls-15" d="M542.48,157.52c-.08.21-.19.41-.24.64l-.08-.08c.07-.16.17-.45.24-.64.04-.04.06-.01.08.08Z"/>
  <path class="cls-5" d="M533.9,159.66c-.04.21-.06.42-.08.64-.21-.21-.03-.59,0-.79.06-.04.08,0,.08.16Z"/>
  <path class="cls-75" d="M527.47,160.54c-.01-.23-.05-.41-.08-.64,0-.1.02-.16.08-.16.02.2.22.58,0,.79Z"/>
  <path class="cls-70" d="M527.47,159.74l-.08.16c-.02-.17-.04-.31-.08-.48-.02-.14,0-.22.08-.24.04.21.05.34.08.56Z"/>
  <path class="cls-20" d="M527.39,159.19l-.08.24c-.03-.13-.05-.28-.08-.4l.08-.16c.02.1.05.18.08.32Z"/>
  <path class="cls-8" d="M533.98,159.27c-.03.13-.05.26-.08.4l-.08-.16c.02-.19.04-.29.08-.48l.08.24Z"/>
  <path class="cls-10" d="M537.48,161.65l-.16-.08c.07.03.13.07.16.08Z"/>
  <path class="cls-10" d="M537.24,161.49v.08c-.06-.02-.16.04-.16-.04,0-.07.1-.04.16-.04Z"/>
  <path class="cls-41" d="M519.28,158.47s-.02.07-.04.08c-.12-.02.04-.15.04-.16v.08Z"/>
  <path class="cls-31" d="M542.48,157.52l-.08-.08s0-.06,0-.08h.08s.01.12,0,.16Z"/>
  <path class="cls-13" d="M572.35,175.23c-.98-1.24-2.02-2.36-3.73-2.14.14-.17.43,0,.6-.16.61-.62.07-2.88-.18-3.64-.03-.09-.16-.28-.02-.34,1.66,1.67,2.8,3.99,3.34,6.28Z"/>
  <path class="cls-58" d="M561.47,183.81c-.46,2.77-.3,6.91.48,9.61-.37.01-.74.05-1.11.08-1.84.15-3.71.1-5.56.16-.14-2.15-.69-5.71-1.83-7.55l-.08-.08s0-.06,0-.08c.02-.26.45-.29.56-.08.03,0,.05,0,.08,0l.24.04c.25.32.42.69.55,1.07.88,3.95,2.66,2.96,3.92-.25l.72-2.21.21-.15c.07-.02.13-.07.16-.08.49-.37,1.06-.53,1.67-.48Z"/>
  <path class="cls-59" d="M559.64,184.37c-.5,1.49-.98,3.55-2.06,4.73-.94,1.02-1.94.75-2.45-.5-.37-.91-.44-1.92-1.13-2.72,1.89-.38,3.79-.96,5.64-1.51Z"/>
  <path class="cls-13" d="M565.28,175.39c-.23.29-.5.61-.64.95-.47.58-.89,1.19-1.27,1.83-.84,1.61-1.61,3.86-1.91,5.64-.55.16-1.11.31-1.67.48-.26.03-.12-.05-.08-.2.63-2.86,2.53-6.36,4.81-8.22.22-.18.48-.39.75-.48Z"/>
  <path class="cls-58" d="M536.28,171.42v.08l.08.4c.03.55.15,1.06.24,1.59,0,.03,0,.05,0,.08-1.51.38-2.95.81-4.53.87-.19.06-.53.07-.64-.08,1.5-.39,2.76-1.55,3.65-2.78.33.13.85-.07,1.19-.16Z"/>
  <path class="cls-12" d="M553.92,185.88c-.17.03-.38.03-.56.08-.35-.74-.96-1.61-1.51-2.22.93.4,1.67,1.22,2.07,2.14Z"/>
  <path class="cls-35" d="M531.44,174.36c.11,0,.39.09.64.08-.08.13-.3.08-.44.08-.66,0-1.33,0-1.99,0-.13,0-.35.05-.44-.08.15,0,.39.05.48-.08.71.15,1.11,0,1.75,0Z"/>
  <path class="cls-42" d="M564.72,176.35c-.5.58-.86,1.25-1.35,1.83.34-.65.67-1.36,1.27-1.83h.08Z"/>
  <path class="cls-68" d="M570.6,213.76c.07-.11.61-.73.71-.63l-.48.71s-.05,0-.08,0c-.01,0-.07-.1-.16,0,.01-.02-.01-.06,0-.08Z"/>
  <path class="cls-37" d="M549.79,216.23c-.12.22-.19.55-.24.79l-.08.32s0,.05,0,.08,0,.05,0,.08c-.13.16-.27.16-.4,0,.02-.49.32-.99.64-1.35.11-.11.15-.06.08.08Z"/>
  <path class="cls-61" d="M549.47,217.5c0,.28,0,.52.08.79-.18,0-.37,0-.56,0-.06-.17.04-.58,0-.79.03,0,.05,0,.08,0,.13,0,.26,0,.4,0Z"/>
  <path class="cls-44" d="M547.8,216.15c-.22.35-.3.64-.4,1.03,0,.03-.08.06-.08.08,0-.19-.09-.29-.24-.16,0-.02,0-.06,0-.08.12-.32.39-.7.64-.95.11-.11.15-.06.08.08Z"/>
  <path class="cls-2" d="M549.79,216.23l-.08-.08c.1-.11.2-.3.4-.28-.05.11-.28.29-.32.36Z"/>
  <path class="cls-48" d="M547.72,216.07c.1-.1.13-.28.32-.24.03.03-.2.26-.24.32l-.08-.08Z"/>
  <path class="cls-54" d="M549.47,217.34l.08-.32c-.02.09-.08.3-.08.32Z"/>
  <path class="cls-34" d="M582.12,198.83l-.08.16c-.01-.07-.14-.18-.08-.32.1,0,.11.12.16.16Z"/>
  <path class="cls-27" d="M550.74,155.85s-.06-.01-.08,0l-.21-.33c-.31-1.66-.95-3.4-2.06-4.65l.05-.19c-.12-.09-.22-.23-.32-.4l-.24-.02c-.29-.47-.73-.82-1.18-1.13v-.19s-.03-.07-.01-.08c-.05-.05-.07-.11-.04-.18.8-.68.9-.92.32-.71-.4.2-.78.29-1.15.25-.02,0-.06,0-.08,0-.22.04-.49-.06-.48-.32v-.08c.74-.7,1.83-1.24,2.46-2.03.28-.34.6-.67-.1-.67l-2.12.43c1.43-1.54,2.99-2.95,4.61-4.29l-.19-.19-3.3.71c.67-.84,1.47-1.57,2.22-2.34.23-.31,2.2-1.69,2.23-1.83.02-.09-.06-.17-.13-.19-.42-.13-2.23.76-2.77.94-.08.03-.22.15-.28.04.74-.87,1.67-1.6,2.65-2.2.37-.22,2.91-1.49,2.91-1.69-.28-.28-.85-.22-1.23-.2-.7.03-1.41.26-2.1.28,1.38-1.62,2.83-3.19,4.45-4.57.12-.09.22-.14.32-.16,4.65-2.18,5.7,1.29,5.48,5.2-.42,7.36-3.57,16.24-9.61,20.78Z"/>
  <path class="cls-22" d="M554.87,129.87c-.08.04-.16.19-.32.16.07-.06.13-.15.24-.24l.08.08Z"/>
  <path class="cls-27" d="M504.9,129.79c.19-.04.35.11.48.24.32.19.67.5.95.75,1.26,1.13,2.39,2.53,3.49,3.81-.93-.07-1.88-.35-2.82-.28-.24.02-.58.04-.4.32,1.56.96,3.28,1.65,4.65,2.9.12.11.76.72.79.8.04.1-.02.15-.12.12-.59-.18-2.43-1.18-2.93-1.02-.07.02-.15.1-.13.19.03.11,1.57,1.14,1.75,1.35.15.24,2.85,2.7,2.7,2.82l-3.37-.71-.13.19c1.67,1.3,3.2,2.79,4.69,4.29-.52-.03-1.02-.28-1.56-.35-.14-.02-.93-.08-.98,0-.16.22.76,1.06.95,1.23.75.67,1.67,1.15,2.31,1.95-.05.05-.11.11-.16.16l-.26.1c-.73-.35-1.47-.59-2.21-.72.46.53.95,1.04,1.46,1.54l-.03.19s.01.06,0,.08c.09.26-.38.81-.64.87-.03.07-.05.07-.08,0l-.24.11c-.19-.05-1.39-.33-1.43-.24-.04.1.84,1.03.98,1.14l-.03.18v.36c-.66,1.42-1.23,2.91-1.4,4.49l-.19.31s-.06.01-.08,0c-6.89-3.98-9.95-11.98-11.03-19.52-.54-3.79-.96-10.18,4.99-7.65Z"/>
  <path class="cls-62" d="M505.38,130.03c-.13-.08-.34-.18-.48-.24l.16-.08c.12.1.26.16.32.32Z"/>
  <path class="cls-37" d="M534.46,216.23c-.3.55-.29.91-.32,1.51,0,.08,0,.16,0,.24-.17-.04-.33-.12-.48-.24,0-.05-.01-.11,0-.16.13-.6.31-.97.71-1.43.11-.11.15-.06.08.08Z"/>
  <path class="cls-24" d="M532.07,217.1s-.05.06-.08.08c.01-.19.06-.37.08-.56-.09.03-.19.16-.24.24v-.08c.23-.34.43-.73.79-.95-.12.28-.31.5-.43.8-.08.18-.08.31-.12.48Z"/>
  <path class="cls-7" d="M534.46,216.23l-.08-.08c.09-.11.16-.27.32-.32.04.17-.17.27-.24.4Z"/>
  <path class="cls-63" d="M559.24,211.94c.07-.1.52-.66.64-.56l-.48.63h-.08s-.03-.09-.08-.08Z"/>
  <path class="cls-54" d="M561.55,211.78c.06-.02.73-.28.48,0-.07.08-.64.13-.71.4-.11-.1-.03-.22.08-.32-.04-.02-.03-.05,0-.08.04-.02.12.02.16,0Z"/>
  <path class="cls-54" d="M561.39,211.86c-.02.07-.05.07-.08,0,.02-.03.03-.06.08-.08v.08Z"/>
  <path class="cls-63" d="M559.16,212.1v-.08h.08s-.07.06-.08.08Z"/>
  <path class="cls-12" d="M553.44,186.12s-.07-.05-.08-.08c.03.02.06.05.08.08Z"/>
  <path class="cls-50" d="M533.66,217.74l.4-.08.08.32c0,.11,0,.21,0,.32-.18,0-.37,0-.56,0-.07-.22.06-.42.08-.56Z"/>
  <path class="cls-9" d="M561.31,212.17c-.03.12-.06.19-.08.32-.05.31-.13.62-.08.95h-.48c0-.53.29-1.19.64-1.59h.08c-.03.11-.05.21-.08.32Z"/>
  <path class="cls-3" d="M550.66,155.85c-.35.26-.69.55-1.07.8-.24.16-.85.42-.99.55-.24.04-.15-.12-.16-.27-.07-1.72-.58-3.4-1.43-4.89l.05-.22c.42-.34.8-.71,1.15-1.13h.23s.4.43.49.57c.91,1.4,1.51,2.92,1.73,4.59Z"/>
  <path class="cls-3" d="M548.12,150.29c0,.06-.01.16-.06.17-.17.05-1.64.36-1.73.35l-.2-.12c-.13-.16-.41-.48-.56-.64.3-.43.76-.73,1.11-1.11.33.19.72.54.99.79.13.13.31.46.44.56Z"/>
  <path class="cls-40" d="M548.12,150.29s.21-.03.28.08c.07.1.01.27.04.32-.47.46-.85,1.02-1.43,1.35-.21-.37-.62-1.02-.87-1.35l1.99-.4Z"/>
  <path class="cls-3" d="M513.88,152.75c-.67,1.38-1.22,3.58-1.19,5.08-.5-.2-1.02-.44-1.49-.7-.1-.05-.15-.16-.18-.17.13-1.82.81-3.54,1.59-5.16.03-.07.05-.07.08,0,.46.08,1,.53,1.19.95Z"/>
  <path class="cls-40" d="M514.91,151c-.36.5-.76,1.19-1.03,1.75-.42-.29-.81-.62-1.19-.95l-.1-.15c.06-.23.49-1.05.73-1.04.03,0,.05,0,.08,0,.43-.15,1.18.09,1.51.4Z"/>
  <path class="cls-3" d="M515.07,150.77c-.05.06-.1.16-.16.24-.51-.1-1-.28-1.51-.4.14-.35.41-.59.64-.87l1.03,1.03Z"/>
  <path class="cls-58" d="M526.19,171.58s-.06-.05-.08-.08l.08.08Z"/>
  <path class="cls-32" d="M515.07,148.54c-.34.34-.73.74-1.03,1.11l-1.51-1.55c-.21-.33.04-.39.34-.34.68.1,1.51.64,2.2.78Z"/>
  <path class="cls-4" d="M536.36,171.9c-.13-.07-.07-.27-.08-.4.13.07.07.27.08.4Z"/>
  <path class="cls-6" d="M546.69,148.86l-.87-.64c.33-.11,1.39-.62,1.67-.44.1.06.09.11.04.2-.12.23-.64.66-.84.87Z"/>
  <path class="cls-73" d="M545.74,148.22c-.45.16-.88.38-1.35.48.08-.17.77-.79.87-.79.08,0,.4.23.48.32Z"/>
  <path class="cls-68" d="M570.68,214s.05-.06.08-.08l-.08.08Z"/>
  <path class="cls-69" d="M530.88,172.29c-.06.25-.42.25-.48,0-1.29-.12-2.25-.63-2.37-2.04-.04-.41-.04-.68.31-.94.69-.51,3.83-.48,4.55-.03.48.3.32,1.39.11,1.83-.39.82-1.29,1.09-2.12,1.17Z"/>
  <path class="cls-46" d="M530.88,172.29c-.06.47.06.76.45,1.02.19.13.92.3.79.57-.24.47-1.32-.3-1.55-.56-.02.37-1.2.92-1.4.64-.27-.39.42-.47.63-.57.46-.24.62-.59.61-1.1.24.02.24.02.48,0Z"/>
  <path class="cls-60" d="M522.14,156.8c.05-.13.19-.18.31-.2,1.9-.4,3.39,1.41,2.64,3.2s-3.2,1.79-4.1.18c-.3-.53-.48-1.47-.04-1.98l.17-.06c.63.49,1.46-.34.96-.96l.06-.17Z"/>
  <path class="cls-43" d="M522.14,156.8c.78.76-.41,1.97-1.19,1.19s.38-1.98,1.19-1.19Z"/>
  <path class="cls-74" d="M526.27,157.12l-.08.08s-.19-.32-.24-.4c.13.12.19.16.32.32Z"/>
  <path class="cls-21" d="M521.43,155.53c.35.02.08.07-.08.16-.06-.12-.21-.08-.32-.08.07-.14.27-.06.4-.08Z"/>
  <path class="cls-39" d="M525.96,156.72h-.08s-.13-.05-.16-.12l.08-.04c.06.06.1.05.16.16Z"/>
  <path class="cls-47" d="M525.96,156.8s-.05-.05-.08-.08h.08s-.01.06,0,.08Z"/>
  <path class="cls-60" d="M537.32,156.96c-.02-.08-.04-.16-.08-.24,1.96-.76,3.93,1,3.14,3.02-.92,2.33-4.65,1.61-4.4-1.22.01-.11.02-.42.23-.37l.15-.11c.66.24.96-.39.83-.95l.13-.13Z"/>
  <path class="cls-43" d="M537.32,156.96c.23.83-.26,1.58-1.11,1.19-1.22-.55.2-2.48,1.11-1.19Z"/>
  <path class="cls-64" d="M539.86,155.53c.12.02.33-.06.4.08-.13,0-.33-.05-.4.08-.22-.11-.42-.15,0-.16Z"/>
  <path class="cls-57" d="M535.25,156.96c-.06.09-.21.26-.24.32l-.08-.08c.08-.12.14-.21.24-.32.05.01.08.03.08.08Z"/>
  <path class="cls-77" d="M535.25,156.88h-.08c.09-.11.14-.15.24-.24.03.15-.13.19-.16.24Z"/>
  <path class="cls-17" d="M535.25,156.96l-.08-.08h.08s.01.06,0,.08Z"/>
  <path class="cls-65" d="M542.4,157.28s.04-.07.08-.08c0,.03-.05.06-.08.08Z"/>
  <path class="cls-32" d="M513.32,150.61l-.64,1.19s-.06.01-.08,0c-.2-.18-1.34-1.28-1.11-1.51.62,0,1.23.18,1.83.32Z"/>
</svg>