<?xml version="1.0" encoding="UTF-8"?>
<svg id="Lager_1" data-name="Lager 1" xmlns="http://www.w3.org/2000/svg" viewBox="0 0 1254 1280">
  <defs>
    <style>
      .cls-1 {
        fill: #7ece96;
      }

      .cls-2 {
        fill: #685d59;
      }

      .cls-3 {
        fill: #5ac177;
      }

      .cls-4 {
        fill: #231915;
      }

      .cls-5 {
        fill: #909090;
      }

      .cls-6 {
        fill: #59c075;
      }

      .cls-7 {
        fill: #2a1d18;
      }

      .cls-8 {
        fill: #170f0b;
      }

      .cls-9 {
        fill: #6c6c6c;
      }

      .cls-10 {
        fill: #61c37d;
      }

      .cls-11 {
        fill: #9ddaaf;
      }

      .cls-12 {
        fill: #42b863;
      }

      .cls-13 {
        fill: #241915;
      }

      .cls-14 {
        fill: #1a2924;
      }

      .cls-15 {
        fill: #727272;
      }

      .cls-16 {
        fill: #443430;
      }

      .cls-17 {
        fill: #443531;
      }

      .cls-18 {
        fill: #1b2a25;
      }

      .cls-19 {
        fill: #767676;
      }

      .cls-20 {
        fill: #42aa60;
      }

      .cls-21 {
        fill: #4c3d37;
      }

      .cls-22 {
        fill: #8ed3a2;
      }

      .cls-23 {
        fill: #541911;
      }

      .cls-24 {
        fill: #38b45a;
      }

      .cls-25 {
        fill: #40b561;
      }

      .cls-26 {
        fill: #69c684;
      }

      .cls-27 {
        fill: #160f0b;
      }

      .cls-28 {
        fill: #035b1c;
      }

      .cls-29 {
        fill: #7acc92;
      }

      .cls-30 {
        fill: #88d29e;
      }

      .cls-31 {
        fill: #94d6a7;
      }

      .cls-32 {
        fill: #5db777;
      }

      .cls-33 {
        fill: #525252;
      }

      .cls-34 {
        fill: #757575;
      }

      .cls-35 {
        fill: #90d5a5;
      }

      .cls-36 {
        fill: #8ad29f;
      }

      .cls-37 {
        fill: #433430;
      }

      .cls-38 {
        fill: #40a95f;
      }

      .cls-39 {
        fill: #85c898;
      }

      .cls-40 {
        fill: #50bc6f;
      }

      .cls-41 {
        fill: #717171;
      }

      .cls-42 {
        fill: #8f8683;
      }

      .cls-43 {
        fill: #3b2c27;
      }

      .cls-44 {
        fill: #848484;
      }

      .cls-45 {
        fill: #51bd6f;
      }

      .cls-46 {
        fill: #646464;
      }

      .cls-47 {
        fill: #82cf98;
      }

      .cls-48 {
        fill: #887f7b;
      }

      .cls-49 {
        fill: #65bb7e;
      }

      .cls-50 {
        fill: #9c9391;
      }

      .cls-51 {
        fill: #8fd4a2;
      }

      .cls-52 {
        fill: #9fdbb0;
      }

      .cls-53 {
        fill: #78cc8f;
      }

      .cls-54 {
        fill: #96d7a9;
      }

      .cls-55 {
        fill: #9edaaf;
      }

      .cls-56 {
        fill: #493c36;
      }

      .cls-57 {
        fill: #594c47;
      }

      .cls-58 {
        fill: #4ebc6d;
      }

      .cls-59 {
        fill: #4c3c37;
      }

      .cls-60 {
        fill: #6b6b6b;
      }

      .cls-61 {
        fill: #b3b3b3;
      }

      .cls-62 {
        fill: #242517;
      }

      .cls-63 {
        fill: #62c37e;
      }

      .cls-64 {
        fill: #675c58;
      }

      .cls-65 {
        fill: #513a35;
      }

      .cls-66 {
        fill: #7dc592;
      }

      .cls-67 {
        fill: #47b967;
      }

      .cls-68 {
        fill: #504541;
      }

      .cls-69 {
        fill: #8bd39f;
      }

      .cls-70 {
        fill: #737373;
      }

      .cls-71 {
        fill: #50433e;
      }

      .cls-72 {
        fill: #41322e;
      }

      .cls-73 {
        fill: #9b9491;
      }

      .cls-74 {
        fill: #2b1e19;
      }

      .cls-75 {
        fill: #4f3934;
      }

      .cls-76 {
        fill: #50423e;
      }

      .cls-77 {
        fill: #239d46;
      }

      .cls-78 {
        fill: #6cc786;
      }

      .cls-79 {
        fill: #53bd71;
      }

      .cls-80 {
        fill: #463732;
      }

      .cls-81 {
        fill: #787878;
      }

      .cls-82 {
        fill: #40b763;
      }

      .cls-83 {
        fill: #160e0b;
      }

      .cls-84 {
        fill: #7dcd93;
      }

      .cls-85 {
        fill: #362722;
      }
    </style>
  </defs>
  <path class="cls-77" d="M405.79,526.18c.41.48.84,1.01,1.2,1.53.73,1.06,1.24,2.14,1.63,3.37v1.46c-.37,1.71-2.63,2.02-4.11,2.13l-.19-.16c-.16-.07-.35-.07-.52,0-.32.27-.88.26-1.2,0-.25.07-.52.08-.77,0-.19.02-.39.05-.6.09-.43.17-.86.17-1.29,0-.17.07-.35.07-.52,0-.83.07-1.66.07-2.49,0-.2.07-.4.07-.6,0-.57.17-1.15.17-1.72,0-.23-.03-.46-.06-.69-.09-.17.06-.35.06-.52,0-.23.07-.46.07-.69,0-.37.17-.75.17-1.12,0-.21-.03-.41-.06-.6-.09-.14.06-.29.06-.43,0-.17.06-.35.06-.52,0-.2.07-.4.07-.6,0-.57.17-1.15.17-1.72,0-.69-.1-1.44-.07-2.15,0-.52.27-1.27.33-1.8.09-.15-.03-.29-.06-.43-.09-.16.02-.34.05-.52.09-.24.1-.49.19-.76.22-3.94.47-7.86,1-11.76,1.76-2.15.4-4.32.66-6.49.76l-.39-.09-.43.09c-.15.2-.61.2-.77,0l-.52.09c-.4.14-.89.14-1.29,0l-.6.09c-.08.06-.17.06-.26,0-.16-.07-.35-.07-.52,0-.27.02-.56.05-.86.09h-.43c-.15-.03-.29-.06-.43-.09-.22.06-.46.06-.69,0-.22.02-.44.05-.69.09h-5.84c-.21-.03-.41-.06-.6-.09-.17.06-.35.06-.52,0-.22.02-.44.05-.69.09-.2,0-.4,0-.6,0-.27,0-.68-.08-1.03-.09-.15-.03-.29-.06-.43-.09-.16.06-.35.07-.52,0-.2.07-.4.07-.6,0-.31,0-.63,0-.94,0-.19-.07-.41-.07-.6,0-.43-.01-.85-.07-1.29-.09-.16-.07-.35-.07-.52,0-.22,0-.53-.09-.64-.09h-1.55c-.16,0-.57-.07-.82-.09-.16-.07-.35-.07-.52,0-.37-.02-.71-.08-1.12-.09l-.52-.09c-.17,0-.34,0-.52,0-.16-.07-.35-.07-.52,0-.27-.01-.56-.07-.86-.09-.16-.07-.35-.07-.52,0-1.48-.1-2.98-.23-4.47-.34l-.43-.09c-.14-.01-.29.01-.43,0-.16-.08-.35-.07-.52,0-.66-.05-1.32-.12-1.98-.17l-.43-.09c-1.71-.13-3.44-.2-5.15-.34-.14-.06-.28-.09-.43-.09-5.23-.45-10.39-1.05-15.59-1.72-1.53-.2-2.97-.18-4.47-.68-.21-.07-1.61-.71-1.66-.78-.03-.05,0-.17,0-.25,2.2-.59,4.42-1.16,6.61-1.8.96-.47,1.97-.85,3.02-1.16,2.31-.91,4.88-2.12,5.17-4.89.1-1.11.73-5.13,2.13-5.18.38-.02.62.35.8.63.66,1.84,1.45,2.17,2.35.99.9-1.18,1.86-2.31,2.88-3.39.37-.32,1.16-.98,1.6-.66,1.42-.2,1.68.8,2.15,1.8h.19c.6,2.46,2.04,1.86,3.77.77.79-.58,1.61-1.13,2.44-1.64l.2.09c-.05-.25.17-.36.34-.17l.06-.2c1.02-.27,2.26-.32,2.86.71l.73,1.59c1.21-1.72,2.84-3.1,4.59-1.12.3.24.57.13.82-.32l.22.02c-.04-.25.12-.44.34-.26.01-.32.87-.24.86.09.26-.21.37.12.43.34l.2-.03c.3.43.81.45,1.26.29l.34.08.15-.22c.32-.16,1.96-.84,2.19-.84.09,0,.17.06.23.12.51-.43,1.73-.38,2.28.02.65.97,1.21,1.04,2.34.92l.1.17c.14-.17.29-.17.43,0,.22-.22.61-.31.81-.07l.39-.02.13-.18c.81,0,1.62-.06,2.16-.75.87-1.19,2.24-3.04,3.76-1.68.67,1.01,1.46,1.27,2.37.79l1.77-1.01.21.08c0-.27.23-.35.43-.17.49-.67,1.74-.72,2.48-.38.6.46,1.19.95,1.76,1.47,1.09.34,2.2.09,3.32-.77,3.49-2.34,5.98-3.54,8.32.75l1.47,2.99c.73,1.45,2.2,2.93,3.93,2.33.91-1.03,1.45-1.58,2.94-1.6l2.3.2c1.39-.1,2.72-.58,3.99-1.43,1.99-.85,3.38-1.02,5,.52,1.63,1.83,3.33,3.63,5.1,5.39.2.18.31.4.36.67Z"/>
  <path class="cls-49" d="M357.36,537.43c.07.02.07.05,0,.09h-.69c-.07-.02-.07-.05,0-.09.23,0,.46,0,.69,0Z"/>
  <path class="cls-38" d="M356.67,537.43v.09h-.69c.14-.15.47-.08.69-.09Z"/>
  <path class="cls-66" d="M349.03,537.43c.07.02.07.05,0,.09h-.69c.14-.15.47-.08.69-.09Z"/>
  <path class="cls-20" d="M350.15,537.51h-.6c-.07-.02-.07-.05,0-.09.19,0,.48-.06.6.09Z"/>
  <path class="cls-32" d="M349.54,537.43v.09h-.52v-.09c.17,0,.34,0,.52,0Z"/>
  <path class="cls-39" d="M357.79,537.51h-.43v-.09c.14,0,.36-.05.43.09Z"/>
  <path class="cls-7" d="M332.8,465.74v.2c-.6.92-1.45,1.71-2.26,2.45.93,1.26,1.94,1.84,3.54,1.25.65,0,1.31.08,1.97.21,1.15-.37,1.97-.16,3.06.31,1.87.49,2.76.16,4.1-1.18l1.27-1.42.25-.02c.06.28.12.16.17-.34-.19-.19.02-.47.26-.34l.28.37c.73,2.5,2.14,4.71,3.61,6.83l.14.44.18.11c.01.19.1.35.25.49.15-.08.26-.09.33-.04l1.19,1.85c.57.77,1.41,1.22,2.37,1.21,1.59-.12,3.11-.16,4.69.08,1.62.02,2.7-1.34,3.21-2.74l.22-.11c-.12-.45.07-1.26.34-1.63l.19-.38c.97-.98,1.74-2.12,2.29-3.42l.27-.15c.07.1.09.21.04.32.08-.41.21-.81.39-1.18l.25-.02c1.71,1.96,3.47,3.24,6.15,2.46.12,0,.13.1.12.22,1.1,2.44,1.84,4.98,2.19,7.64.14,1.05.27,2.3.3,3.35-.07.22-.07.47,0,.69,0,.06,0,.11,0,.17-.07.14-.07.29,0,.43-.12,3.9-1.1,8.42-2.21,12.17-.83,2.79-1.88,5.85-3.89,8-.16-.45-.21-.92-.15-1.42-.02,1.63-.21,3.28-.77,4.82-1.18,2.77-1.94,5.75-2.67,8.68l-.1.12c-.89.44-1.98,1.39-3.05,1.36s-1.41-2.25-3.19-1.29c-.99.53-1.49,1.96-2.4,2.41-.6.29-1.13.22-1.74.27-.08-.15-.13-.31-.14-.48.46-3.35.6-6.41.22-9.79-.7-4.02-1.08-8.07-1.13-12.15-.2,2.14-.03,4.3.26,6.44l.78,5.48c.53,3.46.17,6.9-.26,10.33.14-.02.22,0,.26.17-.39.03-.79.08-1.2.09l-.16-.1c.29-2.48.49-4.97.59-7.46-.11.05-.18.02-.26-.09l-.17.13c-2.64.16-5.92.12-8.51-.5-.06-.01-.12-.05-.17-.09-.06-.04-.11-.09-.16-.14-.04.14-.14.16-.3.06-.29,2.34-.52,4.69-.68,7.05l-.13.27c-.17-.08-.68-.13-.86-.09-.04-.09-.08-.18-.11-.27s-.05-.18-.05-.27c-.03-1.6.17-3.24.39-4.83,0-.27-.7,4.96-.45,5.45l-.12.18c-.25.22-.38.64-.81.6-.45-.04-.98-1.02-1.82-1.11-1.36-.15-2.27,1.32-3,2.22-.63-.73-.55-1.85-1.47-2.39-.54-.32-1.6-.21-2.18-.01-.07.01-.17.01-.18-.03-.82-4.14-1.57-8.35-2.09-12.59-.22-2.32-.1-4.67.62-6.89-.53,1.6-.82,3.28-.84,4.97l-.17.46c-2.49-3.62-4.68-8.09-5.23-12.5-.78-6.28.31-11.82,2.39-17.68.47-1.31,1.18-2.64,1.5-3.99s.26-2.76.47-4.12l.28-.07c1.08.42,2.26.64,3.41.39l.26.11Z"/>
  <path class="cls-85" d="M346.71,453.63c2.36.04,4.49.92,6.56,2.03v-.32c-.27-.94-.35-1.91.22-2.77.52-.92.86-.67,1.01.75l.15-.15c.21-.35.75-1.23.92-.44,0,.1.41,3.85.6,3.84l.33-.41c1.02-1.75,2.59-3.22,4.73-2.26,1.05.77,2.16,1.1,3.49,1.1l.2.16c.34.23.56.6.67,1.11.26.54.35,1.06.27,1.55l.23.31c.05,1.08.26,1.36,1.07,2,1.06.84,2.01,1.45,3.42,1.63,3.05.38,5.66.87,7.31,3.77v.28c.31.39.57.83.9,1.2.8.91,1.8,1.64,2.61,2.54.02.1-1.04,1.15-1.2,1.27-.41.29-.49.24-.94.31-.4.04-.8.03-1.2,0-1.07-.11-1.68-.07-2.75,0l-.43.09c-.44-.02-1.02-.26-1.48-.24-.62.03-1.18.46-1.7.58-.01,0-.11-.07-.2-.06-2.18.39-3.01.35-4.74-1.06-.54-.44-1.07-1.14-1.59-1.54-.08.02-.11,0-.09-.09l-.07-.38c.32-1.12.64-2.25.82-3.4-.46,1.49-.94,2.98-1.64,4.38-.32.64-1.47,2.77-2.05,2.93-.1-.26-.15-.55-.15-.86l-.19-.23c-.06-1.02-.4-2-1.01-2.82v-.3c-.15-.64-.24-1.3-.27-1.98-.29-1.44-.54-2.9-.51-4.37.14-.06.28-.01.44.13.91.29,1.36.86,1.44,1.83l-.14-1.49c.15-.23.41-.17.78.18,1.98,1.1,2.34-1.15,1.97-2.6-.24-.92-2.24-.79-2.75-.1-.52.63-1.1,1.2-1.72,1.7.11.08.08.15,0,.27.07,1.95.29,3.91.66,5.87.04.2,0,.28-.14.23h-.25c-2.58-1.89-6.94-1.53-9.45.34h-.25s-.17-.07-.17-.07c.04-2.07.06-4.14.09-6.22l.08-.23-.11.04c-.56-.55-1.1-1.14-1.61-1.8-.51-.72-2.29-.92-2.53.04-.3,1.26-.11,3.71,1.77,2.62.67-.67.87-.34.62.98.06-.9.77-1.32,1.49-1.67l.19.05.09.21c0,2.15-.06,4.42-.26,6.49l.03.27c-.65,1.13-.81,2.46-.88,3.74l-.18.2c-.07,0-.13,0-.2-.03-.88-.25-2.46-3.52-2.78-4.48l-1.36-3.9c.1.77.25,1.53.43,2.28l-.13.2c-.1.1-.19.22-.26.34,0,.15,0,.38-.17.34-1.34,1.39-2.32,3.14-4.51,3-1.01-.06-1.5-.37-2.36-.64s-1.1.1-1.85.12c-.49.01-1.16-.25-1.62-.25-.36,0-.84.21-1.21.25-1.46.13-2-.56-2.77-1.65.78-.85,1.71-1.7,2.4-2.63v-.27c.55-1.02,1.6-2.75,2.53-3.41.81-.57,1.93-.94,2.89-1.18,1.79-.21,3.41-.52,4.61-1.93l1.99-2.14-.09-.22c.13-.48.52-1.49.79-1.91.25-.39.72-1.08,1.19-1.04Z"/>
  <path class="cls-28" d="M365.69,512.62l2.9,1.35c2.88,1.16,5.4-1.68,8.06-1.94,1.94-.19,3.8.5,5.73.32,1.64-.15,4.11-1.25,5.49-2.15.84-.55,2.42-2.13,3.47-1.9,1.82.4,2.01,3.49,3.45,4.8,1.3,1.18,3.53,2.87,5,3.84.77.5,1.65.84,2.37,1.32,1.67,1.11,3.16,3.99,3.57,5.91.14.66.26,1.38.04,2.02-1.11-1.3-2.39-2.46-3.56-3.69-2.15-2.25-2.9-4.33-6.54-2.85-1.16.47-2.34,1.38-3.61,1.54-1.57.2-3.45-.69-4.82.33-.78.58-.69,1.29-1.94,1.24-4.81-.21-3.73-9.98-9.6-8.05-1.81.6-4.3,3.04-6.11,2.8-1.2-.16-1.57-1.49-2.67-1.79-.79-.21-1.39.03-2.1.34-.03-.08-.06-.16-.07-.24-.07-.39.52-2.69.76-3.01.05-.07.11-.12.17-.18Z"/>
  <path class="cls-9" d="M351.69,447.45c.28.15,1.95,1.05,1.98,1.23v.15c.25.18-.04.6-.19.81-.5.71-1.69,1.38-2.45,1.8-1.38.62-2.71,1.33-3.97,2.15l-.34.05c-1.34,1.09-1.27,1.7-1.89,3.18-1.33,1.3-3.11,2.37-4.77,3.22-1.94.99-4.42,1.87-6.58,2.13-5.22.63-8.31-3.82-8.66-8.52.13-.26.19-.36.34-.6.69-.95,1.47-1.84,2.32-2.66,1.19-.99,3.87-2.63,5.39-2.81.52-.06,1.27.15.9.75-3.02,1.8-5.56,3.75-6.03,7.47-.07.33-.07.64,0,.94.04.82.19,1.36.6,2.06.14.26.42.56.69.69,1.12.7,1.94.99,3.26,1.12,1.09-.05,1.82-.32,2.75-.86.17-.14.36-.28.52-.43,2.07-1.88,4.25-4.55,6.1-6.87.19-.49,1-1.35,1.37-1.8.7-.88,1.56-1.68,2.58-2.4.02,0,.06,0,.09,0,.12-.02.21-.08.26-.17.03,0,.06,0,.09,0,.41-.14.79-.31,1.12-.52,1.65-.59,2.89-.73,4.55-.09Z"/>
  <path class="cls-9" d="M355.81,448.22c1.46-1.17,3.11-1.41,4.92-1.01.59.13,1.14.44,1.7.67.17.15.38.26.6.34.02.01.06,0,.09,0,.38.27.73.53,1.03.77.02.01.06,0,.09,0,.34.43.71.83,1.12,1.2,0,.03-.01.07,0,.09.16.29.53.73.86,1.03.33.45.64.93.94,1.37.6.85,1.26,1.62,1.98,2.32.01.03-.01.07,0,.09,1.43,1.9,3.01,3.59,4.75,5.09l.4.23c.6.16,1.01.21,1.63.26.22.02.42-.01.6-.09.28-.09.62-.11.88-.2,1.57-.54,2.9-1.45,3.07-3.24.14-.5.13-1.3,0-1.8-.11-1.29-.89-2.53-1.55-3.61-.95-1.14-2.07-2.11-3.35-2.92-.37-.15-.72-.43-1.03-.69-.05-.3.19-.43.43-.52h.6c1.37.24,2.89,1.12,4.04,1.89,1.17.88,2.52,2.13,3.43,3.52.01.02-.01.06,0,.09.1.29.24.54.43.77.03.06.06.11.09.17-.37,3.2-1.7,6.13-4.78,7.57-3.62,1.69-9.68-1.25-12.62-3.38-.06-.05-.11-.11-.16-.18s-.09-.15-.13-.23c-.23-.94-.48-1.81-.94-2.66l-.26-.11c-.75-1.17-1.98-1.89-3.18-2.53l-3.17-1.58c-1.15-.59-2.1-1.33-2.58-2.53l.09-.21Z"/>
  <path class="cls-28" d="M323.27,516.82c-1.9.27-3.44,3.51-4.89,4.68-1.2.96-1.59-.74-2.08-1.53-.46-.74-.75-.72-1.31-.05-1.21,1.46-1,4-1.62,5.76-.97,2.74-5.51,4.04-8.05,4.79,1.48-1.34,2.62-2.85,3.62-4.58,1.85-3.2,3.17-6.6,5.48-9.54.32-.41,1.33-1.68,1.76-1.8s.54.47.66.83c.37,1.07.26,2.45,1.14,3.33,1.34-1.32,2.53-7.78,4.67-3.38l.61,1.49Z"/>
  <path class="cls-56" d="M355.81,448.22c.44.85.57,1.23,1.38,1.84,2.22,1.66,6.36,2.61,7.72,5.12-.67-.01-1.47-.07-2.12-.24-1.31-.36-1.58-1.33-3.23-1.11-1.07.15-1.61.65-2.25,1.45-.2.25-1,1.58-1.21,1.54-.19-.04-.4-1.49-.45-1.78-.14-.82-.23-1.67-.28-2.51-.29.09-.67,1.23-1.03.94-.05-.04-.24-1.18-.26-1.37-.66.69-.94,1.38-.85,2.35.03.27.44,1.37.03,1.4-.16.01-2.39-1.2-2.9-1.37-1.09-.37-2.24-.48-3.38-.66-.16-.03-.34.1-.29-.17,1.85-1.5,4.31-2.02,6.14-3.61.48-.42.63-.58.82-1.2-.09-.16-.13-.24.09-.26.03-.13-.1-.38.13-.34l.82,1.12c-.04-.2.88-1.54.94-1.46-.06.2.15.29.17.34Z"/>
  <path class="cls-33" d="M344.82,456.81c-.36.86-2.49,3.01-3.36,3.47-1.45.76-3.31.53-4.92,1.27-2.25,1.03-2.43,2.42-3.75,4.19-1.31.37-2.72.09-3.95-.43-.69-.29-1.26-.7-1.8-1.2-.43-.31-.79-.7-1.12-1.12-.06-.06-.11-.12-.17-.17l-.26-.34c-.28-.31-.48-.67-.69-1.03l-.52-1.03c-.36-.85-.47-1.2-.52-2.15-.09-.54-.09-1.09,0-1.63.04-.63.15-.89.34-1.46l.17-.43c.18-.46.3-.69.52-1.12.15.09.14.24.18.38.67,2.96,1.01,4.84,3.58,6.73,2.2,1.62,4.07,1.51,6.64.92,3.72-.85,6.56-2.7,9.62-4.85Z"/>
  <path class="cls-33" d="M383.55,454.06c.4.93.78,1.9.86,2.92-.02.35-.05.69-.09,1.03.08.12.06.3,0,.43-.19,3.24-3.24,6.74-6.44,7.38-.52-.65-.96-1.42-1.59-1.98-2.62-2.32-6-1.13-8.57-3.02-.22-.16-1.5-1.22-1.56-1.36-.15-.33-.2-1.2-.3-1.63,2.32,1.67,4.65,2.95,7.45,3.67,2.42.62,4.36.85,6.49-.68,2.43-1.75,2.99-3.65,3.57-6.48.03-.16-.08-.33.18-.28Z"/>
  <path class="cls-28" d="M325.42,518.63c1.24-.29,1.82-3.36,3.21-3.18.85.11,1.29,1.89,1.64,1.89s1.05-1.56,1.25-1.89c.32.74.59,1.65.52,2.4-1.54.71-3.82,3.22-5.58,2.53-.54-.21-.8-1.25-1.03-1.76Z"/>
  <path class="cls-8" d="M332.37,517.68c-.07.02-.24.12-.34.17-.16-.09-.14-.24-.17-.39-.12-.67-.23-1.35-.35-2.02-.65-3.71-1.75-8.13-1.8-11.85-.03-2.41.45-4.79,1.44-7.01l2.33-5.26c-.91,2.94-2.49,5.69-3.06,8.74-.48,2.56-.18,5.12.16,7.69l1.79,9.93Z"/>
  <path class="cls-8" d="M368.09,504.03c-.11,2.83-1.61,5.81-2.4,8.59-.32,1.13-.66,2.27-.86,3.43-.13.06-.32.12-.43.17-.14-.06-.02-.27,0-.38.46-1.86.92-3.8,1.51-5.61.41-1.23,1.01-2.46,1.35-3.71.78-2.83.47-6.48.21-9.4-.1-1.13-.33-2.26-.34-3.39l.16.74c.4,3.19.91,6.33.78,9.56Z"/>
  <path class="cls-15" d="M335.55,459.3c2.22-2.07,4.04-4.64,6.1-6.87-.01.04,0,.16-.17.38-1.74,2.17-3.7,4.39-5.67,6.36-.04.04-.22.3-.26.13Z"/>
  <path class="cls-74" d="M335.03,459.73c-1.05.89-1.36.99-2.75.86.89-.36,1.77-.81,2.75-.86Z"/>
  <path class="cls-15" d="M374.28,460.41c-.73-.19-1.47-1.07-2.06-1.67-1.11-1.14-2.22-2.44-3.09-3.65,1.67,1.8,3.16,3.85,5.15,5.32Z"/>
  <path class="cls-15" d="M383.03,453.03c-.19.01-.22-.13-.31-.25-.98-1.33-1.62-2.06-2.96-3.05-.04-.03-.35-.17-.16-.23,1.16.78,2.86,2.22,3.43,3.52Z"/>
  <path class="cls-15" d="M378.91,451.74c-.98-1.14-2.12-1.99-3.35-2.83-.04-.03-.04-.06,0-.09,1.28.83,2.58,1.65,3.35,2.92Z"/>
  <path class="cls-41" d="M327.48,450.37l-2.32,2.66c.7-1.13,1.3-1.81,2.32-2.66Z"/>
  <path class="cls-70" d="M343.02,450.63c.63-.77,1.6-2.07,2.58-2.4.01.21-.13.22-.26.3-.92.62-1.39,1.1-2.08,1.96-.03.04-.19.33-.24.15Z"/>
  <path class="cls-15" d="M369.12,455.01c-.18,0-.28-.14-.39-.26-.57-.62-1.14-1.41-1.59-2.06l1.98,2.32Z"/>
  <path class="cls-15" d="M353.75,448.57c-.02.1-.06.17-.09.26l-.31-.33-1.66-1.04c.77.3,1.35.73,2.06,1.12Z"/>
  <path class="cls-19" d="M380.46,457.15c.05-.48.04-1.32,0-1.8.36.18.09.64.09.9s.28.72-.09.9Z"/>
  <path class="cls-15" d="M365.34,450.2c-.47-.2-.86-.77-1.12-1.2.14.05,1.07,1.08,1.12,1.2Z"/>
  <path class="cls-60" d="M327.05,464.11c-.42-.21-.91-.69-1.12-1.12.39.36.74.76,1.12,1.12Z"/>
  <path class="cls-15" d="M366.2,451.31c-.26-.06-.81-.74-.9-.95-.03-.06.05-.08.04-.08.35.27.6.68.86,1.03Z"/>
  <path class="cls-70" d="M347.14,447.54c.05.22-.11.18-.23.23-.32.14-.59.21-.88.28.31-.27.74-.38,1.12-.52Z"/>
  <path class="cls-34" d="M375.56,448.82v.09c-.22-.15-.98-.5-1.03-.77.38.14.7.47,1.03.69Z"/>
  <path class="cls-15" d="M364.14,449s-.03.08-.08.05l-.95-.82c.34.13.82.48,1.03.77Z"/>
  <path class="cls-81" d="M323.78,458.27c-.14-.46-.14-1.16,0-1.63-.03.5-.02,1.13,0,1.63Z"/>
  <path class="cls-34" d="M383.46,453.89c-.21.03-.39-.49-.47-.68-.02-.05.05-.08.04-.09.26.2.31.51.43.77Z"/>
  <path class="cls-34" d="M329.02,459.47s-.02.08-.13.01c-.08-.05-.47-.45-.53-.53-.12-.16-.03-.16-.03-.17l.69.69Z"/>
  <path class="cls-34" d="M363.03,448.22s-.04.06-.09.04c-.15-.05-.57-.2-.51-.39.21.09.49.11.6.34Z"/>
  <path class="cls-42" d="M379.26,471.15c-.58.09-.65.06-1.2,0h1.2Z"/>
  <path class="cls-19" d="M375.56,447.62c-.19.12-.41.12-.6,0,.39-.14.3-.05.6,0Z"/>
  <path class="cls-44" d="M384.41,458.01c-.02.07-.05.07-.09,0,0-.33-.07-.77.09-1.03.02.32,0,.7,0,1.03Z"/>
  <path class="cls-5" d="M327.73,456.72c-.23-.25-.03-.69,0-.94.01.31-.02.63,0,.94Z"/>
  <path class="cls-19" d="M376.51,460.59s-.02.16-.22.17c-.14.01-.27-.08-.39-.09.16-.14.4-.08.6-.09Z"/>
  <path class="cls-48" d="M374.19,483.25c-.14-.13-.14-.55,0-.69,0,.23,0,.46,0,.69Z"/>
  <path class="cls-40" d="M344.22,537.34c-.2,0-.4,0-.6,0,.11-.14.49-.14.6,0Z"/>
  <path class="cls-35" d="M345.77,537.34c.07.02.07.05,0,.09-.19,0-.48.06-.6-.09.2,0,.4,0,.6,0Z"/>
  <path class="cls-63" d="M346.28,537.34c.07.02.07.05,0,.09-.17,0-.34,0-.52,0v-.09c.17,0,.34,0,.52,0Z"/>
  <path class="cls-9" d="M325.76,462.82c-.1-.1-.26-.13-.26-.34.08.09.28.13.26.34Z"/>
  <path class="cls-46" d="M324.13,455.18l.17-.43c-.05.12-.15.36-.17.43Z"/>
  <path class="cls-12" d="M342.33,537.26c-.17,0-.34,0-.52,0,.08-.14.43-.14.52,0Z"/>
  <path class="cls-26" d="M338.81,537.08c-.17,0-.34,0-.52,0,.08-.14.43-.14.52,0Z"/>
  <path class="cls-79" d="M328.94,536.4c-.17-.01-.35.01-.52,0,.08-.14.43-.14.52,0Z"/>
  <path class="cls-69" d="M337.18,537c-.16,0-.42.06-.52-.09.16,0,.42-.06.52.09Z"/>
  <path class="cls-78" d="M334.77,536.83c-.17-.01-.34.01-.52,0,.08-.14.43-.14.52,0Z"/>
  <path class="cls-45" d="M336.15,536.91c-.17,0-.34,0-.52,0,.08-.14.43-.14.52,0Z"/>
  <path class="cls-36" d="M329.79,536.48c-.18-.01-.39-.08-.43-.09.14,0,.36-.05.43.09Z"/>
  <path class="cls-47" d="M326.45,536.23c-.18-.01-.38-.08-.43-.09.14,0,.36-.05.43.09Z"/>
  <path class="cls-22" d="M320.86,535.8c-.18-.02-.38-.08-.43-.09.14,0,.36-.05.43.09Z"/>
  <path class="cls-73" d="M374.19,483.85c-.14-.06-.14-.37,0-.43,0,.14,0,.29,0,.43Z"/>
  <path class="cls-50" d="M375.31,471.15s-.2.1-.43.09c.07-.14.29-.08.43-.09Z"/>
  <path class="cls-82" d="M346.71,537.43c-.14,0-.29,0-.43,0v-.09c.14,0,.36-.05.43.09Z"/>
  <path class="cls-70" d="M345.94,448.05c.07.3-.22.16-.26.17.06-.08.15-.15.26-.17Z"/>
  <path class="cls-61" d="M384.32,458.44c0-.14,0-.29,0-.43h.09c0,.14.05.36-.09.43Z"/>
  <path class="cls-46" d="M324.81,461.45c-.22-.38-.35-.62-.52-1.03.24.24.44.68.52,1.03Z"/>
  <path class="cls-28" d="M352.72,515.36c.14,1.24.01,2.5-.34,3.69-.47,0-1.28.08-1.68-.08-.47-.18-.66-.97-1.3-1.1-.43-.09-1.29-.03-1.74.07.5-.85,1.02-1.99,2.19-1.89.4.03.65.28,1.09.24.65-.06,1.21-.67,1.79-.93Z"/>
  <path class="cls-83" d="M341.99,518.11c-.05.01-.28.2-.34.26-.14-.32-.11-.82-.09-1.16.29-6.2,1.77-9.31,3.7-14.93,1.14-3.33,1.89-6.64,2.06-10.18.15-.02.08.19.09.3,0,.22.01.47,0,.69-.11,2.5-.31,4.65-1.01,7.06-.93,3.19-2.38,6.21-3.31,9.4-.82,2.8-1.08,5.66-1.09,8.57Z"/>
  <path class="cls-8" d="M343.96,510.81c-.16,1.07-.33,2.14-.43,3.22-.11,1.21-.17,2.44-.26,3.65.21.23.29.69,0,.86-.09-.07-.4-.33-.43-.34.17-2.49.24-5.01.69-7.47.17-.08.33.07.43.08Z"/>
  <path class="cls-8" d="M352.98,511.41c.07,0,.27-.17.43-.09v1.33s-.6,6.39-.6,6.39c-.14,0-.29,0-.43,0,.11-1.23.24-2.46.34-3.69.11-1.31.28-2.63.26-3.95Z"/>
  <path class="cls-28" d="M345.08,518.88c-.58.15-.96.36-1.54-.05-.13-.09-.2-.25-.26-.29.01-.28-.02-.58,0-.86l1.8,1.2Z"/>
  <path class="cls-30" d="M399.44,534.59c.07.02.07.05,0,.09-.83.01-1.66,0-2.49,0-.07-.02-.07-.05,0-.09.83,0,1.66,0,2.49,0Z"/>
  <path class="cls-24" d="M387.76,534.42c-.71,0-1.43-.01-2.15,0,.5-.15,1.14-.09,1.68-.09.15,0,.38-.05.47.09Z"/>
  <path class="cls-31" d="M402.61,534.51c-.17.16-.53.08-.77.09-.07-.02-.07-.05,0-.09.26,0,.52,0,.77,0Z"/>
  <path class="cls-54" d="M393.42,534.51c.07.02.07.05,0,.09-.22,0-.54.07-.69-.09.23,0,.46,0,.69,0Z"/>
  <path class="cls-3" d="M394.63,534.59c-.23,0-.46,0-.69,0-.07-.02-.07-.05,0-.09.22,0,.54-.07.69.09Z"/>
  <path class="cls-52" d="M396.95,534.59v.09c-.19,0-.48.06-.6-.09.2,0,.4,0,.6,0Z"/>
  <path class="cls-6" d="M401.84,534.51v.09c-.2,0-.4,0-.6,0,.12-.15.41-.08.6-.09Z"/>
  <path class="cls-51" d="M360.45,537.34c-.12.15-.41.08-.6.09.12-.15.41-.08.6-.09Z"/>
  <path class="cls-12" d="M391.62,534.51c-.2,0-.4,0-.6,0-.07-.02-.07-.05,0-.09.19,0,.48-.06.6.09Z"/>
  <path class="cls-11" d="M390.08,534.42c.07.02.07.05,0,.09-.19,0-.48.06-.6-.09.2,0,.4,0,.6,0Z"/>
  <path class="cls-25" d="M359.59,537.43c-.17,0-.34,0-.52,0,.09-.14.43-.14.52,0Z"/>
  <path class="cls-1" d="M390.59,534.42c.07.02.07.05,0,.09-.17,0-.34,0-.52,0v-.09c.17,0,.34,0,.52,0Z"/>
  <path class="cls-58" d="M383.38,534.42c.07.02.07.05,0,.09-.17,0-.34-.01-.52,0,.09-.14.35-.09.52-.09Z"/>
  <path class="cls-67" d="M404.33,534.51c-.17.01-.34,0-.52,0,.09-.14.43-.14.52,0Z"/>
  <path class="cls-53" d="M393.94,534.51v.09c-.17,0-.34,0-.52,0v-.09c.17,0,.34,0,.52,0Z"/>
  <path class="cls-31" d="M362.25,537.26c-.09.14-.35.08-.52.09.09-.14.35-.08.52-.09Z"/>
  <path class="cls-55" d="M399.95,534.59c-.09.14-.35.08-.52.09v-.09c.17,0,.34,0,.52,0Z"/>
  <path class="cls-84" d="M363.46,537.17c-.07.14-.29.08-.43.09.02,0,.26-.08.43-.09Z"/>
  <path class="cls-10" d="M391.02,534.42v.09c-.14,0-.29,0-.43,0v-.09c.14,0,.29,0,.43,0Z"/>
  <path class="cls-29" d="M383.81,534.51c-.14,0-.29,0-.43,0v-.09c.14,0,.36-.05.43.09Z"/>
  <path class="cls-64" d="M360.54,467.8c.13-.05.21.06.26.34.81,1.05,1.14,2.03,1.2,3.35l.08.77c.22.37.19,1.09-.08,1.46-.04.6-.16,1.09-.34,1.63-.21.25-.51.24-.91-.03-.75-.63-1.55-.75-2.52-.82-2.12-.15-4.63-.11-6.74.14-.58.07-1.09.18-1.59.5-.08-.06-.16-.08-.26-.04-.08-.03-.18.04-.3-.08-.13-.13-.12-.35-.13-.52-.22-.48-.36-1.32,0-1.72.05-1.34.26-3.09,1.03-4.21-.01-.26.03-.51.34-.43,2.02-2.05,7.96-2.44,9.96-.34Z"/>
  <path class="cls-68" d="M361.65,475.35c-.48,1.41-1.52,2.87-3.13,3.01-.78.07-1.49-.14-2.23-.18-2.08-.1-3.68.75-5.2-1.07-.31-.37-1.13-1.87-1.31-2-.06-.04-.12,0-.15-.02.42-.28,1.08-.55,1.59-.6,1.95-.19,6.84-.45,8.58.09.69.21,1.08.9,1.85.77Z"/>
  <path class="cls-27" d="M354.01,518.97h-.43c.22-2.47.61-4.94.51-7.43-.16-4.08-1.21-8.11-1.38-12.19-.1-2.44.32-4.84.56-7.26l.05.73c-.29,3.19-.25,6.42.09,9.6s1.02,6.34,1.11,9.54c.07,2.33-.37,4.68-.52,7Z"/>
  <path class="cls-56" d="M349.2,472.78c-.02.52-.04,1.2,0,1.72-1.72-2.34-3.28-4.8-4.04-7.64-.2-.75-.43-1.95-.5-2.72-.01-.14-.09-.58.07-.63,1.24,3.13,1.9,6.92,4.47,9.27Z"/>
  <path class="cls-83" d="M365.17,468.91c-.55,2.41-1.14,4.9-1.45,7.35-.38,3.06-.43,5.35,1.21,8.04.76,1.26,1.71,2.04,2.6,3.15.13.17.35.39.38.6-.84-.93-2.06-1.74-2.82-2.72-3.4-4.38-1.7-10.69-.36-15.57-.21-.24.05-.85.34-.94.03.02.05.06.09.09Z"/>
  <path class="cls-56" d="M365.09,468.83c-.09.32-.25.62-.34.94-.73,1.44-1.43,2.95-2.75,3.95.04-.68.03-1.55,0-2.23l.13.77c2.08-2.33,3.04-5.55,3.91-8.5.15-.02.09.2.08.3-.14,1.76-.56,3.1-1.03,4.77Z"/>
  <path class="cls-83" d="M344.91,467.2c.12.16.01.52-.01.72-.69,4.86-2.12,8.66-6.31,11.55-1.43.98-4.34,2.43-6.07,2.24-.08,0-.32-.04-.31-.16,1.1.25,2.29-.25,3.26-.73,4.64-2.27,7.55-5.64,8.8-10.69.21-.84.28-1.8.47-2.58.02-.09.12-.24.17-.34Z"/>
  <path class="cls-64" d="M366.46,464.88c.22-.07.24,0,.09.17,1.25,1.92,1.91,2.72,4.35,2.84,1.11.06,3.73-.11,4.49-.98.69-.78-1.06-2.44-1.63-2.94v-.21c-.12-.09-.09-.12.09-.09,1.86.68,3.27,2.8,4.05,4.58s-.76,2.03-2.2,1.95c-1.09-.06-2.58-.27-3.67-.45-1.65-.27-4.78-1.21-5.37-2.96-.22-.65-.21-1.28-.2-1.91Z"/>
  <path class="cls-64" d="M337.09,462.56l-.02.23c-.46.35-1.89,2.3-1.55,2.79.95,1.38,5.39,1.6,6.56.21l1.19-1.77c-.15-.21-.09-.32.17-.34.02-.07.05-.07.09,0-.23,1.18-.02,2.08-.95,3.04-1.55,1.58-4.94,2.14-7.08,2.28-1.48.1-2.72-.08-2.06-1.89.6-1.63,1.91-3.96,3.56-4.64.11-.02.13-.02.09.09Z"/>
  <path class="cls-2" d="M360.02,461.7c-.02-.1-.23-.17-.14-.34.05-.09.33-.23.44-.34.49-.47,1.34-1.6,1.87-1.82.57-.24,1.95-.28,2.34.27.35.5.23,2.27,0,2.84-.41.98-2.1.56-2.62-.17.13.9.24,1.75.08,2.66-.17-.03-.15-.17-.17-.3-.09-.57-.11-1.36-.48-1.84-.33-.44-.97-.42-1.33-.86v-.09Z"/>
  <path class="cls-2" d="M350.58,461.62c-.03.13-.09.21-.17.26-.34.42-.96.44-1.24.87-.33.52-.31,1.26-.39,1.84-.02.13-.01.26-.17.3-.13-.9-.04-1.77.08-2.66-.55.79-2.12,1.12-2.45,0-.16-.52-.23-2.28.04-2.71.17-.28.87-.43,1.18-.43,1.59-.02,1.92,1.52,3.04,2.33l.08.22Z"/>
  <path d="M370.5,463.33c.47,0,1-.03,1.46,0,.19-.05.31-.02.34.09.23-.08.43,1.24.41,1.31-.15.53-.4.29-.67,0-.34-.1-.69,0-1.01.11-1.07.5-2.07.86-3.29.6.47,1.52-.87.34-1.19-.38-.02-.06-.06-.11-.09-.17,0-.05-.15-.26-.08-.34.02-.03.13.01.17,0,.31-.07.63-.07.94,0,.09-.01.14-.08.17-.09.23-.12.46-.26.69-.43.15-.08.34-.21.43-.26.1-.17.41-.3.6-.26.08-.02.22-.08.26-.09.05-.06.14-.06.26,0,.04,0,.09.01.13,0,.04-.02.05-.04.04-.09.09-.09.3-.05.43,0Z"/>
  <path d="M338.98,462.13c.2,0,.4,0,.6,0,.16-.06.38-.08.52,0,0,.04,0,.07.04.09.04,0,.09,0,.13,0,.15-.07.26-.07.34,0,.1.02.31.13.43.17.19,0,.36.08.52.26.16.09.28.2.34.34.07.04.1.05.17.09.43.24.93.31,1.48.22.07.02-.02.35-.11.39-.04.12-.12.23-.17.34-.3.69-1.46,1.72-.99.23-.55.14-1.1.17-1.62-.08-.7-.41-1.4-.62-2.1-.63-.15.22-.3.43-.56.22-.1-.08.14-1.42.29-1.55.17-.12.4-.14.69-.09Z"/>
  <path class="cls-4" d="M360.02,461.79c.22,1.45.36,2.91.68,4.35l.1,2.01c-.08-.11-.17-.25-.26-.34.11-.13.04-.26.02-.4-.23-1.42-.55-2.73-.62-4.19-.02-.46-.05-1.08.09-1.51,0,.03,0,.06,0,.09Z"/>
  <path class="cls-13" d="M350.58,468.14c-.11.11-.25.3-.34.43-.14-.28-.11-.76-.09-1.08.1-1.87.37-3.77.26-5.62,0-.1.06-.23.17-.26v6.53Z"/>
  <path class="cls-80" d="M342.07,463.08c.53.23.98.18,1.55.17.05.17-.06.3-.09.43h-.09c.02-.06.11-.32.09-.34-.49-.02-1.1.22-1.46-.26Z"/>
  <path class="cls-75" d="M373.85,463.68l-.09.09c-.17.08-.38.06-.63-.07-.4,0-.67-.09-.83-.28-.06,0-.16-.07-.34-.09.22-.14.72-.03.96.02.37.07.6.2.93.32Z"/>
  <path class="cls-65" d="M338.98,462.13c-.28.01-.43.05-.69.09-.15.27-.91.43-1.2.34l-.09-.09c.58-.23,1.36-.55,1.98-.34Z"/>
  <path class="cls-37" d="M368.35,464.02c-.13.27-.43.35-.69.43l-.09-.08c.27-.07.53-.22.77-.34Z"/>
  <path class="cls-59" d="M367.49,464.54c-.29.04-.64-.03-.94,0,.28-.11.7-.17.94,0Z"/>
  <path class="cls-17" d="M369.38,463.51c-.24.07-.39.16-.6.26-.12-.17.39-.34.54-.33l.06.08Z"/>
  <path class="cls-75" d="M371.7,463.16c.02.15-.19.08-.3.08-.21,0-.43,0-.64,0-.02-.15.19-.08.3-.08.21,0,.43,0,.64,0Z"/>
  <path class="cls-72" d="M341.56,462.65c-.13-.07-.39-.21-.52-.26.24-.19.39.14.52.26Z"/>
  <path class="cls-16" d="M341.9,462.99c-.19-.12-.22-.22-.34-.34.15.08.32.1.43.3l-.08.04Z"/>
  <path class="cls-80" d="M339.58,462.13c.13-.17.42-.06.6-.08,0,.04-.09.07-.09.08h-.52Z"/>
  <path class="cls-21" d="M370.5,463.33h-.43s-.08-.04-.09-.08c.16.01.41-.07.52.08Z"/>
  <path class="cls-80" d="M340.27,462.22c.22-.22.8-.02.34,0-.09-.02-.24.01-.34,0Z"/>
  <path class="cls-80" d="M369.9,463.42c-.08.01-.18-.02-.26,0-.42,0,.04-.22.26,0Z"/>
  <path class="cls-43" d="M360.71,469.43c.13.83-.23,1.36-.82,1.89-.19.17-1.06.82-1.25.9-.52.23-.47-.39-.41-.75.16-.86,1.72-1.72,2.47-2.04Z"/>
  <path class="cls-43" d="M351.52,469.17c.17-.19,1.62,1.29,1.76,1.55.2.39.46,1.67-.21,1.16-.53-.4-1.43-1.32-1.54-1.98-.04-.23.01-.49,0-.72Z"/>
  <path class="cls-71" d="M353.84,473.98l-.3-.69c-.23-.84.3-1.5.07-2.39-.18-.68-1.03-1.16-1.4-1.73.33.06.66.3.9.51,1.64,1.43.41,2.53.73,4.29Z"/>
  <path class="cls-76" d="M359.33,469.69c.07.02.07.05,0,.09-.68.28-1.41,1.63-1.25,2.32.06.27.28.41.31.72.04.43-.21.74-.18,1.16l-.17-.04c.39-.73-.25-1.36-.27-1.98-.03-1.04.7-1.83,1.55-2.28Z"/>
  <path class="cls-57" d="M359.33,469.69c.33-.17.6-.38,1.03-.34l-1.03.43v-.09Z"/>
  <path class="cls-23" d="M373.76,463.76c.41.25,1.21,1.15,1.48,1.57.57.87.87,1.47-.22,2.05-1.56.83-5.18.99-6.7.05-.62-.38-1.53-1.69-1.78-2.39.37.39.71.78,1.2,1.03l-.26-.86c.54.08,1.21.15,1.75.08.83-.11,1.96-1,2.82-.75.19.06.25.36.49.33l-.26-1.46c.52.06.99.05,1.46.34Z"/>
  <path class="cls-23" d="M338.3,462.22c.15.25-.22,1.4-.17,1.46.11.13.25-.23.36-.28.7-.32,2.07.73,2.87.79.4.03.84-.11,1.23-.16l-.34.86c.47-.12.69-.58,1.03-.86-.27.64-.82,1.77-1.38,2.18-1.37,1-4.42.84-5.86.03-.26-.15-.72-.48-.74-.8-.05-.67,1.22-2.52,1.8-2.87.38-.23.78-.28,1.2-.34Z"/>
  <path class="cls-62" d="M363.8,460.84c-.09.55-.72.64-1.12.26-1.34-.69.4-1.99,1.15-1.04.21.27.24.59-.04.78Z"/>
  <path class="cls-18" d="M362.68,461.1c-.54-.32-.99.03-1.55.04.7-.81,1.56-2.09,2.74-1.2.31.24.42.71.78.94-.34.1-.52-.39-.86-.04.3-1.86-2.31-.88-1.12.26Z"/>
  <path class="cls-62" d="M348.34,461.1c-.32.5-1.19.43-1.29-.17-.54-.51.18-1.18.83-1.08.7.1,1.15.9.45,1.25Z"/>
  <path class="cls-14" d="M347.05,460.93c-.35-.35-.5.18-.86.04.5-.4.53-.93,1.18-1.13,1.19-.37,1.65.75,2.42,1.39-.5.05-.96-.3-1.46-.13.78-1.22-1.56-1.85-1.29-.17Z"/>
</svg>