<?xml version="1.0" encoding="UTF-8"?>
<svg id="Lager_1" data-name="Lager 1" xmlns="http://www.w3.org/2000/svg" viewBox="0 0 1254 1280">
  <defs>
    <style>
      .cls-1 {
        fill: #f1f1f1;
      }

      .cls-2 {
        fill: #b2a5a5;
      }

      .cls-3 {
        fill: #bdbdbd;
      }

      .cls-4 {
        fill: #2c2c03;
      }

      .cls-5 {
        fill: #d0d0d0;
      }

      .cls-6 {
        fill: #cecece;
      }

      .cls-7 {
        fill: #77500c;
      }

      .cls-8 {
        fill: #b1a4a4;
      }

      .cls-9 {
        fill: #c9c6c6;
      }

      .cls-10 {
        fill: #beb1b1;
      }

      .cls-11 {
        fill: #dedede;
      }

      .cls-12 {
        fill: #b0a3a3;
      }

      .cls-13 {
        fill: #bebebe;
      }

      .cls-14 {
        fill: #f6e9e9;
      }

      .cls-15 {
        fill: #0b0b0b;
      }

      .cls-16 {
        fill: #262626;
      }

      .cls-17 {
        fill: #bcbcbc;
      }

      .cls-18 {
        fill: #e4d7d7;
      }

      .cls-19 {
        fill: #d8bfcc;
      }

      .cls-20 {
        fill: #e5dbe6;
      }

      .cls-21 {
        fill: #b5a8a8;
      }

      .cls-22 {
        fill: #cd9f4d;
      }

      .cls-23 {
        fill: silver;
      }

      .cls-24 {
        fill: #0c0c0c;
      }

      .cls-25 {
        fill: #e5d9d9;
      }

      .cls-26 {
        fill: #e5bf65;
      }

      .cls-27 {
        fill: #f3e7e7;
      }

      .cls-28 {
        fill: #bfbfbf;
      }

      .cls-29 {
        fill: #f2e6e6;
      }

      .cls-30 {
        fill: #cbcbcb;
      }

      .cls-31 {
        fill: #e4d6d7;
      }
    </style>
  </defs>
  <path class="cls-1" d="M939.31,685.17c.07,0,.11.04.12.12.53.42,1.28,2.04-.05,1.61l-1.03-.24c.27.17.51.57.13.66-.55-.06-1.12-.08-1.66.08.42-.01,3.23,1.46,3.29,1.82.03.22-.16.4-.38.32-1.7-.6-3.28-1.06-4.96-.26,1.06.28,2.15.5,3.24.66l.13.26c-.02.09-.06.23-.13.23-.24.03-2.32.04-2.44,0l-.17-.23-.07.24-1.27.15c-.29.3-.68.52-1.17.67.13-.09.28-.18.44-.22.42-.11,2.21.06,2.75.12.03,0,.05.05.08.1v.16c-1.44.34-2.88.7-4.33,1.06-.01,0,.27-.1.24.06.93-.09,1.82-.05,2.68.12l-.17.16c-1.44.2-2.87.44-4.28.84v.26s-1.01.3-1.01.3c.01.1.02.18,0,.19-.29.14-.78.27-1.07.35-.05.42-.86,1.06-1.28,1.05l-4.96,3.27.23-.93-4.09,3.5c.06-1.26.78-2.38,1.69-3.21l-.35-.11c.53-.54,1.14-1.01,1.75-1.46.03-.21.09-.31.23-.12.81-.87,1.76-1.6,2.85-2.22-.31.08-.59-.18-.37-.41l1.83-.76.1-.25c.3.28,2.66-.41,2.7-.55.02-.08-1.47-.14-1.7-.14-.08,0-.15-.06-.23-.13-2.49.82-4.92,1.01-7.46,1.15l-.18-.19h-.82s.12-.18.12-.18l2.1-.64c-2,.32-4.17.73-6.07,1.46-1.75.68-3.81,1.82-3.97,3.91-.4-.22-.28-.86-.58-1.17v-1.64c.61-2.13,2.34-2.77,3.97-3.85,2.38-1.32,5.33-1.65,8.04-1.61.06-.46.54-.52.92-.55l-.03-.17c-.13.3-1.94.32-2.27.23-.14-.04-.21-.08-.24-.23-.07-.22.03-.3.22-.36-.78-.17-1.57-.25-2.36-.25l-.19-.21c-.48-.11-1.2-.21-1.69-.23-2.22-.1-5.47-.17-5.19,2.92-.25-.18-.5-.61-.55-.9-.27-1.46,1.25-2.9,2.31-3.71l-.23-.12c.24-.42.7-.61.98-1,.36-.51.6-1.25,1-1.8.56-.78,1.34-1.42,2.1-1.99h-.58c3.22-4.04,9.09-3.34,13.66-2.75-.05-.24-.59-.42-.41-.7,1.36.2,2.6.54,3.79,1.23,2.1,1.23,4.71,4.33,6.31,6.24Z"/>
  <path class="cls-31" d="M985.3,623.97c1.52.83,3.26,1.47,4.32,2.92.28.65-.57,1.3-1.17,1.52.01.18-.19.18-.35.12l.04.24c1.06.48-.03.56-.66.59l-.43.11c.29-.11,1.49-.28,1.62-.16.04.04.06.09.08.16-.07-.39.27-.36.5-.1.33.37.08.85-.32,1.04-1.12.44-3.49,2.18-3.8,3.38-.26,1.03.24,3.45.45,4.58,1.81,9.9,7.01,19,9.8,28.62,1.09,3.75,1.79,7.6,2.54,11.42l-.27-.07c-.34-1.41-.78-2.4-2.47-2.17l-2.37.24c-.13-.19-.26-.24-.37-.04l-.23-.19c-.15.4-.89.05-.82-.35.16-1.49-.46-4.62-.74-6.21-1.37-7.89-4.23-16.14-6.7-23.78-2.24-6.9-6.53-14.28-1.2-20.87.36-.45.76-.76,1.28-1h1.28ZM985.65,625.37c-2.51.03-3.93,1.83-4.38,4.2-1.18,6.17,3.86,15.35,5.84,21.27,1.91,5.71,3.49,11.47,4.28,17.44.13.96.35,2.7,1.13,3.34s1.65.42,1.98-.56c.56-1.65-.78-4.49-1.22-6.19-.94-3.59-1.61-7.15-3.05-10.62-.43-1.03-1.06-1.99-1.48-2.96-1.81-4.2-5.96-14.59-5.53-18.85.15-1.48,1.26-3.77,2.78-4.22.28-.08.62.04.82-.17.41-.05.98-.35,1.05-.82-.61.7-1.88,1.11-2.46.17-.09-.15.02-.16.01-.17.42.3,1.33.39,1.63-.07.17-.27,0-.45.03-.56.06-.2.36-.1.33-.3-.51.09-.8-.18-1.05-.59.46-.05.85.17,1.28.23-.15-.34-.92-.64-1.25-.67-.22-.02-.47.09-.73.09ZM986.3,631.68c-.6.03-1.21-.02-1.81,0l1.05.23-.23.7,1.17-.87c.29-.48-.12-.06-.18-.06ZM985.42,640.09c.1.28.23.76.47.93.05-.39-.26-.75-.35-1.05-.59-1.99-.5-3.86-.58-5.9,0-.14.09-.43-.12-.41-.42,2.17-.16,4.36.58,6.42Z"/>
  <path class="cls-16" d="M992.19,676.17c.69,0,.94.25.73.72.8,1.56.85,3.37.77,5.14l-.37,5.37c-4.33,5.28-9.57,10.07-16.52,10.74-.34.61-.66,1.07-1.24,1.51-2.9,1.51-5.28,3.49-7.74,5.67-.08.24-3.21,2.06-3.22,1.17,0-.61,1.19-2.12,1.65-2.68,1.58-1.96,3.58-3.57,5.69-4.93-3.43,1.69-6.44,3.93-8.57,7.19-.53.66-2.16,2.53-3.06,2.34-.25-.05-.61-.17-.43-.51.89-1.63,2.61-3.7,3.84-5.15.8-.95,1.64-1.86,2.55-2.7-2.83.99-4.27,3.03-5.55,5.62-.26.75-2.51,3.08-3.23,2.64-.66-.4.85-3.77,1.11-4.24,1.06-1.93,2.54-3.52,4.13-5.02-.53.09-1.07.15-1.64.1l-8.77-.45c-4.36-.11-8.18.39-12.35,1.29-2.51.34-5.97.23-7.44-2.1-.24-.2-.43-.53-.7-.76-.24-.2-.56-.25-.7-.52.44.02,1.12.48,1.52.47,0-.18.11-.33.33-.46.05-.36-1.9-1.39-2.28-1.52l-.03-.12c.15-.01.31.01.47,0v-.11s-1.05-.23-1.05-.23c-.14,0-1.12-.2-.87-.39.07-.05.93-.42,1.1-.48l4.43-.98v-.13c-.82-.27-1.81-.05-2.67-.12.18-.21.54-.26.83-.28,1.24.16,2.39.1,3.43-.18-.53.28-1.93.32-2.58.21-.09-.01-.14-.12-.17-.21l.04-.13,2.16-.36c.95-.28.38-.47-1.71-.56-.2-.08-.2-.26-.07-.43,1.78-.06,3.57-.13,5.35-.2.23-.06-2.94-1.21-3.12-1.21-.06-.1-.17-.29-.14-.35.17-.32,3.26.51,3.72.73.11.03.72.15.74.12.11-.15-2.49-2.04-3.11-2.03v-.15s.12-.23.12-.23c.55-.09,1.83-.02,2.32.23-1.12-.26-.43-.88.38-.36.11-.01-.55-1.92-.85-1.86-.03-.04-.08-.07-.12-.12-.03-.22-.14-.39-.23-.58.27-.18.59-.09.94.26l1.67,1.82c.6.64,1.46.9,2.31.73.29-.06,1.08-.28.91-.58-.67-.02-.93-.19-.79-.51,3.49-1.9,7.07-3.62,10.74-5.16.21-.25.51-.39.91-.4,1.62-.24,3.37-.99,5.14-1.28l.4-.3c2.81-.31,5.63-.27,8.45.12,1.52.09,3.04.17,4.52-.13l.16-.16c0-.07,0-.33.17-.23,3.76,2.56,8.59,2.48,12.78,4.15.86.34,1.94,1.34,2.86.64.06-.05.04-.21.06-.23.67-1.25.96-2.67.86-4.26l-.04-2.05c.04-.39.22-1,.23-1.17.2.14.58.34.82.35Z"/>
  <path class="cls-24" d="M997.91,678.39c.22,1.14.36,2.05.76,3.15.25.7.13.43.2,1.08.19,1.77.98,2.7.8,4.93-.27,3.22-2.52,6.33-2.45,9.64l-.7-1.05v5.37c-.21.03-.45-1.23-.7-.93-.06.06-.29,1.36-.38,1.66-1.27,3.91-3.46,7.86-7.32,9.67l.41-1.63c-.17.19-.37.34-.58.47-1.65,1.03-4.07,1.74-5.96,2.33-.06.02-.19.03-.17-.06l1.17-.99c-.63-.15-1.16.04-1.75.23-.12.24-.34.39-.65.46l-1.77,1.06-.26-.12-.17-.21.41-1.07-1.49,1.17c-.54.53-1.09.8-1.66.81-.32.28-1.02.84-1.4.58-.5.48-1.93.53-1.24-.41-1.71.93-3.58,1.93-5.49,2.37-.9.21-1.64.32-.92-.55-1.37.63-2.86.92-4.35,1.13-.59-.05-.58-.45.02-1.19-1.46.51-3.37,1.07-4.7.11-.49.19-2.91.66-2.87-.14,0-.19.65-.42.87-.4l.18-.34c-1.14.31-2.28.65-3.39,1-.03-.2-.13-.24-.29-.2.01.41-.95.29-1.04.02-.15-.44,1-1.04,1.39-1.07l.09-.24c-.3.09-.62.17-.91.01-.04.37-.98.4-1.17.12-.06-.29.15-.24.31-.33,2.02-1.15,3.8-2.73,5.06-4.69-3.97-.09-8.57.26-11.73-2.57l.23,1.28c-.51-.31-1.07-.55-1.57-.89s-1.19-1.11-1.62-1.3c-.5-.22-1.7-.26-2.36-.44-2.57-.69-4.84-2.71-5.54-5.31-.27-.99-.31-2.06-.64-3.04.2.17.67.55.94.75,3.42,2.52,8.42.61,12.2.09,5.32-.74,10.78.16,16.1.21.46,0,1.05-.21,1.56-.1-2.19,1.97-4.24,4.1-5.25,6.95-.27.75-.57,1.59-.52,2.4,2.53-.79,3.3-3.63,4.7-5.58,1.3-1.81,2.92-2.16,4.73-3.21.48-.28.8-.8,1.36-.79l-1.7,1.4c-2.6,2.36-4.59,5.14-6.59,8.01-.03.23,0,.16.17.18,1.49.18,4.06-3.83,5.02-4.91s2.09-1.94,3.34-2.73c.68-.43,3.44-2.09,4.02-2.17.11-.02.44-.07.41.12-3.28,1.95-6.48,4.59-8.29,8,.56.12,1.26-.31,1.75-.58,2.08-1.14,3.75-3.21,5.73-4.55,1.08-.73,2.75-1.4,3.67-2.29.26-.25.68-1.06.76-1.11.21-.13,2.42-.43,2.94-.56,5.75-1.45,9.75-5.78,13.51-10.07.02-2.97.75-6.14.09-9.07-.11-.48-.43-.95-.52-1.33-.04-.17.24-.52-.15-.63l-.06.35-.29-.47c1.1.06,2.47-.37,3.79-.23,1.47.15,1.51,1.3,1.93,2.45Z"/>
  <path class="cls-18" d="M981.22,712.26c-.81,3.52-2.96,6.47-5.31,9.11-3.86,4.34-6.74,5.93-8.43,12-2.85,10.22-1.78,23.09-1.09,33.61.02.25.07.9.12,1.1-.46.05-1.07.27-.3.49.32.57-.54,1.31-1.01,1.68.03,1.55,1.47,2.51,2.93,2.45.36-.01,1.23-.12,1.18-.53.61-.33,1.56.37.93.93-.4-.03-1.33.34-1.92.35-.66.01-.97-.02-1.58-.24-.95-.68-1.96-1.26-3.04-1.75-.49-.05-.81-.07-1.28.12-.85-2.89-.76-5.94-.58-8.93.36-5.97.74-11.57.82-17.58.12-.07.2.07.23.41-.22-2.06-.19-4.17-.12-6.25-.02-2.92.02-5.84,0-8.76.12.33.24.67.26,1.02.56,9.47.94,18.96.1,28.41-.22.54-.26.89-.12,1.05l.2.2c-.27,2.16-.11,4.39.09,6.57.34-.23.72-.38,1.14-.44-1.41-2.37-1.28-5.38-.84-7.97l-.11-.52c.41-1.64.52-3.33.5-5.01-.21-8.65-.38-17.32-.51-26.01-.13-.18-.13-.41,0-.7,1.1-2.14,3.46-3.61,4.09-6.07l.25-.3c1.81-.25,3.5-.78,5.08-1.59l.39.02c.09-.04.21-.05.27.02.27.31-1.2,3.94-1.48,4.58,1.79-1.28,5.25-5.25,4.93-7.44-.16-.27-.2-.49-.1-.66v-.34s1.29-1.58,1.29-1.58l.34-.06,1.86-1.11c.25-.16.55-.2.82-.29ZM966.28,727.33c2.23-1.05,4.32-3.17,4.55-5.72-1.77,1.7-2.49,4.25-4.55,5.72ZM968.03,731.18c-1.53.54-2.59-.07-3.62-1.17.54,1.93.89,3.94.93,5.96l.64-1.75c.5-1.17,1.13-2.15,2.04-3.04ZM965.46,736.44c-.34-.06-.19.07-.25.27-.08.28-.13.59-.18.88-.69,3.6-.38,7.14-.62,10.77.34.05.21-.07.23-.29.45-3.86.88-7.73.82-11.62Z"/>
  <path class="cls-18" d="M958.34,721.96c-.43-.14.25-1.9.35-1.91.23-.02.28,0,.45.19l-.25,1.42c.99-.33,1.2.11.58.89.19.21.18.48-.02.84.69-.46,1.32-.97,1.91-1.55.69-.6,2.58-.6,1.3.48-2.43,1.76-4.57,3.4-5.49,6.42.08.18.07.22-.06.3-.5.32-2.15-.17-2.6-.61.24,2.04.48,4.18.33,6.29.23-.91.48-1.82.85-2.68.03-.08.1-.14.17-.21s.16-.13.25-.18c-1.65,5.95-1.72,12.16-2.22,18.28-.35,4.27-2.16,15.14,1.23,18.28.82.76,1.49.34,2.42.5.55.09,2.15.64,2.77.85.11.04.27.01.23.17-.29,0-.31.3-.54.45-1.28.83-5.66,1.14-7.04.66-.74-.26-1.91-1.69-2.05-1.69-.06,0-.57.65-.64.58-1.23-6.57-.82-13.29-.23-19.91.55-6.11,1.44-12.2,1.76-18.33.1-2.03-.3-3.62.58-5.55.19-.27.34-.27.46.05-.31,2.79-.36,5.6-.18,8.44-.23,5.03-.69,10.07-1.36,15.1,1.23-7.06,2.39-14.12,1.65-21.29l.02-.93c.33-.86.24-1.43-.27-1.73.11-.25.2-.48.26-.71.65-.93,1.56-1.68,2.1-2.69.48-.36,1.1-.41,1.63-.12l.04.38c-.16.15-2.26,3.15-2.1,3.05.86-.5,2.4-1.99,3.06-2.79.16-.36.37-.62.63-.76Z"/>
  <path class="cls-1" d="M978.53,713.66c-.48.62-1.08,1.43-1.63,1.99l.06.26c-.38.45-1.22,1.17-1.82,1.17-.21.54-1,1.9-1.51,2.1-.12.04-.24.02-.36-.02-1.64,1.19-3.8,1.39-5.72,1.87-.25.06-1.25.46-1.4.35l.18-.7c-.53.29-1.05.64-1.63.82-1.06.33-1.05.09-2.05.81l.35-.58c-1.37-.31-1.76.64-2.69,1.33-.17.13-1.03.78-1.16.65-.07-.34.16-.58.23-.87.09-.34-.36.11-.23-.23.06-.16.55-.8.46-.88l-1.05.23.35-1.87-.41.93c-.02.33-.09.62-.17.94-.41.39-1.16.43-1.63.12-.55.05-1.08.08-1.63.12-.5.03-1.08.22-1.63.12-.15-.14.89-1.45,1.05-1.63h-5.78c-.09,0-.34.2-.53.12-.17-.13,2.25-1.5,2.33-1.75-2.32.55-4.67.45-6.77-.76.21-.2.48-.31.74-.43,1.55-.75,4.39-2.23,5.92-2.67.49-.14.8-.04,1.17-.12.37.01.64.09.82.23l-1.28.99c.26.09.66.08.93.06.38-.08.5.01.37.28.94-.45,2.08-.79,3.1-1.04.06-.01.09.18.02.29-.31.18-1.17.49-.3.59,1.26.14,2.5-.39,3.68-.71-.15.26-.64.33-.88.46-.08.04-.39.05-.17.24.06.05,1.41.24,1.58.24,1.14,0,2.35-.57,3.44-.83.05.04-.73.98-.82,1.11-.06.09-.25.19-.06.29,1.87-.26,3.75-.62,5.37-1.64.19.12-.04.26-.12.35-.27.32-.65.57-.88.93,2.25-.46,4.4-1.42,6.38-2.55.34-.2,1-.73,1.27-.84.05-.02.19-.03.17.06-.43.48-1.01.86-1.28,1.46l1.28-.12c.11.26.27.27.46.01.36-.15.67-.35.94-.6,1.34-.7,2.46-1.8,3.68-2.69l-.76,1.98Z"/>
  <path class="cls-27" d="M963.48,727.1v.47s.23-.12.23-.12c.03,1.38-.04,2.77,0,4.15.17,6.4.38,12.87.47,19.26.04,3,.24,5.53-.58,8.47,0,.5-.1,1.45-.58,1.64-.29.18-.24.17-.2-.14.6-5.54.6-11.84.55-17.44-.04-4.27-.52-8.64-.58-12.9-.02-1.37.07-2.17.7-3.39Z"/>
  <path class="cls-10" d="M957.17,728.73c.14-.02.72-.24.58.06-.13.28-.73.98-.95,1.38-.27.48-.46.98-.68,1.48-1.71,3.82-1.65,7.73-2.1,11.85-.21,1.98-.7,3.97-.82,5.96-.19,3.12.17,6.5-.62,9.54-.6,2.3-2.34,5.09.15,6.92,0,.1-1.75.99-1.86.88-.58-3.08.85-5.96,1.27-8.95s.39-6.16.72-9.21c.6-5.64,2.04-11.32,1.76-17.06-.06-1.27-.31-2.54-.47-3.79.79.77,1.62,1.16,2.75,1.06.16-.02.25-.12.28-.12Z"/>
  <path class="cls-13" d="M919,693.23c.73-.25,2.49-.13,3.43-.25,1.6-.2,3.14-.71,4.68-1.15l-.41.35c.88-.03,1.76.11,2.62.24.2.03.2-.06.18.23-.33-.02-.64.06-.96.15-.51.15-1.63.62-2.02.66-.04,0,.1-.26-.75-.11-.99.36-1.8.72-2.55,1.41-.64.61-1.23,1.27-1.76,1.98-.07.05-.17.07-.23.12l-.06-1.75c-1.84,1.88-4.34,2.9-6.36,4.55-.06-.06.6-1.07.7-1.23.55-.87,1.27-2.09,2.34-2.28l-.93-.17,1.75-1.29c-.51,0-1.04.23-1.55.32-.15.03-.23.22-.2-.09.5-.47,1.48-1.48,2.1-1.7Z"/>
  <path class="cls-27" d="M952.97,724.88c.29.12-.22.43-.11.58.01.02.21.03.33.19.45.62.05,1.1.02,1.74-.11,2.55.34,5.06.23,7.59-.15,3.42-.8,7.65-1.3,11.08-.3,2.05-.79,4.08-1.04,6.15-.2.03-.11-.26-.12-.41-.01-.27-.01-.55,0-.82.27-4.74,1.14-9.57,1.4-14.36.19-3.46-.34-7.01.18-10.34.03-.22.19-.41-.18-.36.19-.43.31-.66.58-1.05Z"/>
  <path class="cls-28" d="M929.51,694.63c-.49.94-.99,1.95-.94,3.04-.23.04-.06-.28-.12-.35-.02-.03-.34.19-.41.24-.93.71-1.48,2.28-1.7,3.38l-.23-.35-.94,2.68c-.22.03-.09-.24-.06-.36.07-.38.55-2.38.41-2.56-.37.21-.8.11-1.17-.06l.45-.49.72-1.32c-.29-.01-.59.01-.88,0-.13,0-.32.08-.29-.12.68-.25,1.37-1.03,1.87-1.58.27-.3.48-.75.7-1,.4-.45.78-.73,1.28-1.05l.2-.02c.5-.35.87-.38,1.09-.1Z"/>
  <path class="cls-29" d="M966.51,768.09c.56,2.36,3.28,2.89,5.33,2.99.39.02.63-.14,1.09-.07.82,1.25-1.85,1.13-2.57.81l-2.09-1.01c-.54-.23-1.68-.61-1.65.2.42.07.78.28,1.09.62.55.22,1.08.4,1.59.55l.47.17c-1.62,1.32-4.69.32-4.79-1.93l-.58.23,1.63-1.46-1.17.17c.09-.28,1.1-.4,1.17-.47.34-.32-.88-.22-.82-.46.5-.1.79-.89,1.28-.35Z"/>
  <path class="cls-26" d="M989.62,626.89c.08-.16.3-.3.23-.58.49.21.89.61,1.44.84.38.16,1.29.45,1.66.45h2.98c.17.8-.31.86-.94,1.1-1.92.74-4.15.94-6.07,1.7.2-.26.39-.85,0-.99-.09-.03-.15.06-.18.06h-1.69c.1-.19.6-.25.81-.3.2-.04.39-.06.59-.05-.01-.24-.64-.18-.7-.23-.19-.19.24-.31.35-.35.23-.02.39.02.47.12.2.07-.05.23-.17.23s2.29-.48,2.51-.12c.36-.09.35-.16,0-.23-.18.19-.64.2-.82,0,.14-.3.5-.44,1.07-.4.99-.27,1.08-.35.28-.22l-.19-.2c-.18.09-.52.12-.7,0-.19.51-1.41.77-1.97.81-.04,0-.08-.04-.13-.11.62-.45.84-.88,1.17-1.52Z"/>
  <path class="cls-25" d="M966.63,771.01c-.26-.33-.4-.54.2-.68,1.45-.32,2.99,1.45,4.66,1.48.16,0,1.4-.17,1.45-.22.02-.02-.28-.48,0-.58.47.08,1.09.32,1.58.47s-.28.43-.53.53c-.37.16-.9.24-1.29.34-.3.08-.67.12-.93.3-.33.28-1.22,0-1.47-.36-.93-.13-1.82-.37-2.66-.71-.23-.33-.56-.52-1-.57Z"/>
  <path class="cls-24" d="M934.76,692.64c.13,0,.49-.09.47.12-1.94.73-3.98.92-5.95,1.52l.82.35c-.19,0-.39,0-.58,0-.21,0-.4,0-.61.03s-.56.32-.67.09c.54-.35,1.23-.79,1.87-.82.08-.42-.35-.2-.57-.16-.19.04-.38.14-.13-.13,1.7-.41,3.61-1.01,5.37-.99Z"/>
  <path class="cls-9" d="M966.63,771.01c1.08-.2.66-.03,1.1.48.51.59,1.98.43,2.67.58.1.02.08.21.22.27.36.13.79.18,1.14.32.9.36-.42.79-.99.7-.19-.03-.33-.21-.53-.23-.09-.91-.21-.82-.93-.93-.89-.14-2.1-.45-2.68-1.17Z"/>
  <path class="cls-24" d="M930.67,694.98c.53.11,2.67,1.06,2.55,1.68-.03.18-.37.42-.56.43-.39-1.03-1.39-1.6-2.33-2.04.03-.12.24-.05.35-.06Z"/>
  <path class="cls-27" d="M962.77,739.24c.02,2.09.1,4.16.12,6.25l-.23-.41c.02-1.73-.02-3.47,0-5.2,0-.2-.07-.52.12-.64Z"/>
  <path class="cls-29" d="M963.71,771.48c.89.09,1.91.96,2.73,1.42.16.09.37.04.31.33-1.02-.36-2.04-1.27-3.04-1.75Z"/>
  <path class="cls-11" d="M960.91,769.61l-1.17-.47c.63.26,1.04-.49,1.17.47Z"/>
  <path class="cls-13" d="M917.83,687.97c.99-.19,2.56.38,3.62.23l-1.28.58h2.51l.87.23c-.49.04-1.29.13-1.63.47.33.02.77.16.93.47-3.08-.63-6.18.25-9.11,1.17.06-.04.15-.25.29-.35.71-.48,1.39-1.05,2.28-1.17.03-.2-.27-.11-.41-.12-.12,0-1.51.08-1.11-.23,1,.05,2.22-1.13,3.04-1.29Z"/>
  <path class="cls-24" d="M974.45,678.98s.14.19.11.23c-.39.44-3.13.39-3.79.36-3.77-.18-5.93-.78-9.86-.12-.64-.57.47-.77.93-.88,1.74-.41,3.53-.27,5.31-.29l7.3.7Z"/>
  <path class="cls-24" d="M955.77,680.73l-11.37,5.62c-.51.33.36.28.51.45-.02.1-.06.1-.12,0-.24-.01-.49.03-.73-.03l-.91-.32c1.64-.44,2.81-1.85,4.24-2.71,2.24-1.34,5.02-1.83,7.47-2.66.15-.06.04-.31.08-.35.02-.03.61.03.81,0Z"/>
  <path class="cls-24" d="M939.08,684.58s-.13-.04-.16-.11c-.06-.15.05-.5-.19-.7,1.64.21,2.59,3.08,3.97,3.45.59.16,1.7.14,2.1-.41.04,0,.08,0,.12,0,.17,0,.46-.06.58.06-.84.62-1.87.91-2.86.53-1.38-.53-2.13-2.32-3.56-2.81Z"/>
  <path class="cls-24" d="M990.32,683.3c.63-2.03.63-4.2.82-6.31l.24,2.04c.02,1.12-.03,3.29-.76,4.16-.08.09-.26.08-.29.11Z"/>
  <path class="cls-15" d="M939.43,685.28c-.03-.38.07-.24.22-.04.47.64.97,1.45.89,2.26l-1.11-.47.47.47h-2.45l1.39.65c.82.55,1.68,1.06,2.34,1.8-1.74,0-3.29-1.11-5.02-1.05l2.41.8c.28.15.58.27.84.44.16.11.54.28.48.51-1.96-.12-3.89.28-5.84,0-.03.17.22.15.35.18.54.11,1.11.15,1.66.21l1.02.32-1.26.44-2.24.27h2.74c.07,0,.51-.31.52,0-.34.03-.83.41-1.12.43-1.11.1-2.38-.11-3.66.04-.11.01-.39.07-.35-.12l1.43-.5,3.01-.67h-3.27c.16-.27.54-.52.82-.64.3-.13,1.4-.41,1.69-.41h2.74l-2.92-.52-1.05-.35c1.71-1.07,3.94-.61,5.72.06.29-.29-1.62-1.3-1.82-1.39-.65-.26-1.34-.38-2.03-.48-.03-.16.2-.16.32-.2.76-.28,1.45-.35,2.25-.15l-1.17-.82c.89-.02,1.72.29,2.57.46-.25-.46-.28-1.08-.58-1.52Z"/>
  <path class="cls-13" d="M922.39,684.93c-.06.25-.32.24-.52.24-1.19.03-2.81-.36-4.08-.37-.92,0-1.83.21-2.75.12.11-.29.47-.32.72-.39,2.13-.59,4.54-.19,6.63.39Z"/>
  <path class="cls-3" d="M934.64,682.13c-.23,1.14-.68.23-1.11.12-.08-.02,0,.33-.23.23l-.41-.58,1.75.23Z"/>
  <polygon class="cls-17" points="927.64 682.13 926.73 682.45 924.95 682.6 926.31 682.14 927.64 682.13"/>
  <path class="cls-23" d="M926.94,686.1c-.38-.04-1.05,0-1.28-.35.39.07,1.25-.24,1.28.35Z"/>
  <path class="cls-19" d="M985.65,625.37v.31c.23-.06.3.06.23.28.23.25-.28.84-.58.7-.47,1.14.56,1.35,1.52,1.4-.2.2-.54.09-.82.17-1.52.45-2.63,2.75-2.78,4.22-.43,4.26,3.72,14.64,5.53,18.85.42.97,1.05,1.93,1.48,2.96,1.44,3.46,2.11,7.02,3.05,10.62.44,1.7,1.78,4.54,1.22,6.19-.33.98-1.18,1.23-1.98.56s-1-2.39-1.13-3.34c-.79-5.97-2.37-11.73-4.28-17.44-1.98-5.92-7.02-15.1-5.84-21.27.45-2.37,1.88-4.17,4.38-4.2Z"/>
  <path class="cls-4" d="M986.35,625.72c.25.41.54.68,1.05.59.03.2-.27.1-.33.3-.03.11.14.29-.03.56-.3.47-1.21.38-1.63.07-.35,0-.31-.36-.12-.58.14-.18.43-.58.58-.7-.15-.35.21-.53.47-.23Z"/>
  <path class="cls-22" d="M991.26,627.71s.61-.11.64-.11c.22,0,.66.5,1.05.12l.06.23-2.92.58c-.34.22-1.13.26-1.52.12-.15,0-.39.06-.47-.12.1-.04.26-.09.35-.12.96-.23,1.26-.41,2.1-.7.24.05.47.05.7,0Z"/>
  <path class="cls-12" d="M985.54,639.97c.03.15.03.18-.12.12-.74-2.06-1.01-4.26-.58-6.42.2-.03.11.27.12.41.08,2.04,0,3.91.58,5.9Z"/>
  <path class="cls-8" d="M985.65,625.37c.26,0,.51-.11.73-.09.33.03,1.1.34,1.25.67-.43-.06-.82-.29-1.28-.23-.18.02-.33.12-.47.23-.03-.2-.34.05-.43.1-.21.12-.42.23-.62.37.03-.49.5-.76.82-1.05Z"/>
  <path class="cls-21" d="M985.42,627.24s-.11.02-.01.17c.58.94,1.85.53,2.46-.17-.07.46-.64.77-1.05.82-.71.09-2.13-.12-1.84-1.09.06-.21.26-.23.33-.31.09.16.06.38.12.58Z"/>
  <path class="cls-2" d="M986.3,631.68c.06,0,.46-.42.18.06l-1.17.87.23-.7-1.05-.23c.6-.02,1.21.03,1.81,0Z"/>
  <path class="cls-19" d="M985.54,639.97c.09.3.4.66.35,1.05-.24-.18-.37-.65-.47-.93l.12-.12Z"/>
  <path class="cls-16" d="M973.51,703.5c.33-1.73,2.27-3.84,4.06-4.06,2.01-.25.26,1.72-.38,2.31-.97.89-2.34,1.69-3.68,1.75Z"/>
  <path class="cls-16" d="M955.89,700.35c-1.41,2.62-4.24,1.89-6.65,1.4l1.75-.29c1.63-.47,3.15-1.31,4.9-1.11Z"/>
  <path class="cls-16" d="M946.9,700.93c-2.25,0-4.57.76-6.77.06,1.88-.31,3.85-1.09,5.78-.88.6.07.84.22.99.82Z"/>
  <path class="cls-30" d="M975.62,714.36c.02.27-.18.3-.34.42-1.28.97-2.7,2.06-2.93,3.78l-.17-.93-.94.93c-.1.04-.03-.17-.08-.21-.15-.12-2.28,1.34-2.66,1.55-.41.22-.99.54-1.42.68-.11.03-.46.2-.44-.04,1.06-.34,2.04-.92,2.95-1.54.78-.53,4.63-3.69,4.63-4.07,0-.09,1.21-.48,1.4-.58Z"/>
  <path class="cls-16" d="M948.65,702.22l-1.22.58c-1.54.46-3.29.5-4.85.11.06-.19.53-.23.72-.27,1.74-.41,3.56-.43,5.35-.43Z"/>
  <path class="cls-16" d="M938.73,700.93c-1.21,1.47-3.38.3-3.97-1.17,1.23.62,2.62.93,3.97,1.17Z"/>
  <path class="cls-5" d="M952.04,716.35c.58-.06,1.46-.3,2.04-.47,1.1-.31,2.25-.77,3.27-1.28.34-.02.1.13-.02.21-.57.38-1.2.72-1.79,1.07-.08-.19-.37-.02-.51.01-1.17.29-2.29.47-3.05,1.5-.19-.25.07-.56.15-.78.08-.2.31-.3-.09-.27Z"/>
  <path class="cls-16" d="M997.2,685.65c.3.21.56,2.14-.05,2.44-.45-.47-1.17-1.85-.48-2.34.13-.09.41-.18.52-.1Z"/>
  <path class="cls-16" d="M995.93,677.81c-.05.64.2,1.36-.29,1.87-.41.44-.66-.02-.8-.49-.27-.91.26-1.25,1.09-1.38Z"/>
  <path class="cls-16" d="M995.34,684.35c-.79-.46-.72-1.41-.7-2.22,1.64.04,1.12,1.18.7,2.22Z"/>
  <path class="cls-16" d="M998.96,686.22c-1.54-.17-.94-1.16-1.19-2.02-.04-.14-.38-.39-.33-.43.14-.11.34.05.45.19s1.15,2.17,1.06,2.26Z"/>
  <path class="cls-6" d="M951.57,715.07c.77-.16,1.5-.4,2.22-.7-.29.28-1.03.88-1.4.93-.26.04-.73.06-.82-.23Z"/>
  <path class="cls-14" d="M973.28,719.15c.96-.69,1.63-1.75,1.87-2.92l.11.52c0,.11.2.07.27.04.1-.04,1.2-.99,1.36-1.15.08.15.25.3.3.46.54,1.86-2.43,5.54-3.74,6.78-.23.22-1.13,1.02-1.35,1.11s-.22.03-.35-.12c.56-1.33,1.17-2.82,1.51-4.22.04-.17.13-.34,0-.51Z"/>
  <path class="cls-10" d="M963.59,759.33c.29.33.01.83,0,1.22-.11,2.22-.16,5.16,1.29,6.95-.89.14-1.19.05-1.75.82-.22-2.04-.38-4.31-.24-6.37.02-.25.07-.76.12-.99.12-.51.42-1.05.58-1.64Z"/>
  <path class="cls-10" d="M968.03,731.18c-.91.89-1.54,1.87-2.04,3.04l-.64,1.75c-.05-2.02-.4-4.02-.93-5.96,1.03,1.1,2.09,1.71,3.62,1.17Z"/>
  <path class="cls-10" d="M965.46,736.44c.06,3.89-.37,7.76-.82,11.62-.03.22.11.34-.23.29.24-3.62-.07-7.16.62-10.77.06-.29.1-.6.18-.88.06-.2-.09-.33.25-.27Z"/>
  <path class="cls-10" d="M966.28,727.33c2.06-1.47,2.78-4.03,4.55-5.72-.23,2.55-2.32,4.67-4.55,5.72Z"/>
  <path class="cls-10" d="M958.34,721.96c-.13.53-.43.92-.81,1.35-.98,1.09-2.34,1.88-3.33,2.97-.15-.07,0-.32.04-.43.54-1.37,1.71-2.53,2.48-3.77.54-.05,1.09-.06,1.63-.12Z"/>
  <path class="cls-30" d="M952.04,716.47l-.64.93c-.19-.08.27-.38-.11-.35-1.42.13-3.18,1.22-4.73,1.17l4.02-1.52c.47-.16.96-.28,1.46-.23Z"/>
  <path class="cls-30" d="M955.19,718.57l-1.37.55-3.76.85c-.02-.16.26-.2.39-.25.79-.31,1.69-.54,2.53-.68l-.47-.23,2.68-.23Z"/>
  <path class="cls-30" d="M966.51,717.87l-.91,1.13-.61,1.32c-.07-.31.1-1.31-.02-1.5-.07-.11-.85-.24-.91-.48.44-.01.88.03,1.31-.03.47-.07.73-.29,1.14-.44Z"/>
  <path class="cls-30" d="M964.06,719.62l-2.22,1.75c0-.25-.05-.53.17-.71l2.05-1.04Z"/>
  <path class="cls-30" d="M956.47,717.87l-.58,1.17v-.7c-.67.35-.82.06-1.05-.58.6.21,1.01.31,1.63.12Z"/>
  <path class="cls-20" d="M990.09,628.52c.27,0,.55.01.82,0v.23c-.84.04-1.67,0-2.51.12l.17-.23c.56.01,1.01-.1,1.52-.12Z"/>
  <path class="cls-7" d="M991.26,627.71s.09.22-.17.25c-.21.02-.47-.02-.53-.25.21-.07.49-.29.7,0Z"/>
</svg>