<?xml version="1.0" encoding="UTF-8"?>
<svg id="Lager_1" data-name="Lager 1" xmlns="http://www.w3.org/2000/svg" xmlns:xlink="http://www.w3.org/1999/xlink" viewBox="0 0 1254 1280">
  <defs>
    <style>
      .cls-1 {
        fill: #b7b6b6;
      }

      .cls-2 {
        fill: #070707;
      }

      .cls-3 {
        fill: #bab3aa;
      }

      .cls-4 {
        fill: #a8a19a;
      }

      .cls-5 {
        fill: #050505;
      }

      .cls-6 {
        fill: #aaa39a;
      }

      .cls-7 {
        fill: #aaa39c;
      }

      .cls-8 {
        fill: #988a7b;
      }

      .cls-9 {
        fill: #9d9285;
      }

      .cls-10 {
        fill: #aba49c;
      }

      .cls-11 {
        fill: #060605;
      }

      .cls-12 {
        fill: #988b7c;
      }

      .cls-13 {
        fill: #a59e96;
      }

      .cls-14 {
        fill: #ada9a4;
      }

      .cls-15 {
        fill: #b5b4b3;
      }

      .cls-16 {
        fill: #a49d96;
      }

      .cls-17 {
        fill: #a9a29b;
      }

      .cls-18 {
        fill: #a49c93;
      }

      .cls-19 {
        fill: #a59e95;
      }

      .cls-20 {
        fill: #ada59d;
      }

      .cls-21 {
        fill: #090808;
      }

      .cls-22 {
        fill: #9e9387;
      }

      .cls-23 {
        fill: #a1978c;
      }

      .cls-24 {
        fill: #070706;
      }

      .cls-25 {
        fill: #a7a199;
      }

      .cls-26 {
        fill: #aeaaa6;
      }

      .cls-27 {
        fill: #a0968a;
      }

      .cls-28 {
        fill: #5e5b5a;
      }

      .cls-29 {
        fill: #c0ab94;
      }

      .cls-30 {
        fill: url(#Namnlös_övertoning_3);
      }

      .cls-31 {
        fill: url(#Namnlös_övertoning_4);
      }

      .cls-32 {
        fill: #a49b91;
      }

      .cls-33 {
        fill: #a69f97;
      }

      .cls-34 {
        fill: #060606;
      }

      .cls-35 {
        fill: #9b8f81;
      }

      .cls-36 {
        fill: #a8a199;
      }

      .cls-37 {
        fill: #c3ad96;
      }

      .cls-38 {
        fill: #040404;
      }

      .cls-39 {
        fill: #998b7c;
      }

      .cls-40 {
        fill: #a39b90;
      }

      .cls-41 {
        fill: #afa89f;
      }

      .cls-42 {
        fill: #9a8d7f;
      }

      .cls-43 {
        fill: url(#Namnlös_övertoning_13);
      }

      .cls-44 {
        fill: #aca8a3;
      }

      .cls-45 {
        fill: #b3b1ae;
      }

      .cls-46 {
        fill: #b0ada9;
      }

      .cls-47 {
        fill: #050504;
      }

      .cls-48 {
        fill: #080807;
      }

      .cls-49 {
        fill: #ada59e;
      }

      .cls-50 {
        fill: #636261;
      }

      .cls-51 {
        fill: #b2aaa1;
      }

      .cls-52 {
        fill: #98928b;
      }

      .cls-53 {
        fill: #a59e97;
      }

      .cls-54 {
        fill: #aaa49d;
      }

      .cls-55 {
        fill: #afa9a3;
      }

      .cls-56 {
        fill: #a99885;
      }

      .cls-57 {
        fill: #998c7d;
      }

      .cls-58 {
        fill: #a6a098;
      }

      .cls-59 {
        fill: #aba59f;
      }

      .cls-60 {
        fill: #a7a098;
      }

      .cls-61 {
        fill: #b7afa6;
      }

      .cls-62 {
        fill: #060505;
      }

      .cls-63 {
        fill: #a7a19a;
      }

      .cls-64 {
        fill: #a49e96;
      }

      .cls-65 {
        fill: #a69f96;
      }

      .cls-66 {
        fill: #a39c95;
      }

      .cls-67 {
        fill: #070606;
      }

      .cls-68 {
        fill: #090908;
      }

      .cls-69 {
        fill: #afaca8;
      }

      .cls-70 {
        fill: #a1988d;
      }
    </style>
    <linearGradient id="Namnlös_övertoning_3" data-name="Namnlös övertoning 3" x1="964.97" y1="753.41" x2="965.8" y2="1163.41" gradientTransform="translate(707.94 913.16) scale(.11)" gradientUnits="userSpaceOnUse">
      <stop offset="0" stop-color="#b7b7b7"/>
      <stop offset="1" stop-color="#a39a91"/>
    </linearGradient>
    <linearGradient id="Namnlös_övertoning_4" data-name="Namnlös övertoning 4" x1="643.89" y1="745.54" x2="644.28" y2="1140.54" gradientTransform="translate(707.94 913.16) scale(.11)" gradientUnits="userSpaceOnUse">
      <stop offset="0" stop-color="#b6b6b6"/>
      <stop offset="1" stop-color="#998b7d"/>
    </linearGradient>
    <linearGradient id="Namnlös_övertoning_13" data-name="Namnlös övertoning 13" x1="646.01" y1="1111.01" x2="646.01" y2="1414.01" gradientTransform="translate(707.94 913.16) scale(.11)" gradientUnits="userSpaceOnUse">
      <stop offset="0" stop-color="#b8b8b7"/>
      <stop offset="1" stop-color="#998c7d"/>
    </linearGradient>
  </defs>
  <path d="M787.83,993.98c2.59.2,5.14.71,7.66,1.55,1.2.32,2.38.41,3.61.18,5.64-1.2,11.6-1.22,17.45-.95l11.87.71c1.93-.23,3.83-.65,5.69-1.26l1.82-.23h2.73c.77.28,1.6.31,2.38.52,4.92,1.29,10.97,4.62,15.4,7.22s5.16,6.55,6.9,10.8c.85,2.07,1.73,3.53,2.28,5.8.74,3.07.63,5.76.9,8.82.2,2.28,1.27,4.6,1.42,6.99.12,1.9-.46,3.31-.98,5.08-.75.04-.37-1.5-.45-2.12-.32-2.56-2.65-4.44-2.28-7.43.08-.65.57-1.4.65-2.08.29-2.68-.2-5.8-.76-8.42l-1.97-4.31c-.03,1.19.32,2.37.43,3.55.19,1.93.23,3.95-.01,5.88-.59,4.75-2.58,9.68-1.24,14.49.97,3.5,2.89,4.33,1.45,8.33-1.71,4.73-3.88,8.23-4.45,13.46-.18,1.67.2,4.02-.54,5.46-.44.86-.9,1.26-1.8,1.58-2.19.78-4.24,1.05-6.56.98-.44-.01-1.11-.22-1.53-.22-1.35.01-2.59.45-4.15.33-1.96-.15-3.09-1.48-1.9-3.31,1.6-2.45,4.46-4.66,5.82-7.18.57-1.05,2.21-5.79,2.35-6.93.26-2.05-.38-5.54-1.12-7.49-.64-1.7-1.43-1.73-2.85-2.51-.35-.19-.26-.51-.67-.08-1.18,1.26-2.81,4.34-2.9,6.07-.03.53.16,1.12.11,1.73-.06.74-.47,1.35-.93,1.91-1.65,1.99-4.08,3.82-5.68,5.8-.99,1.23-2.72,3.87-3.47,5.27-.64,1.19-.92,2.79-1.94,3.74-2.15,1.97-3.61,1.6-6.29,1.69-.39.01-.85.2-1.21.21-.99.03-1.93-.34-2.83-.42-1.24-.12-2.43.3-3.59-.23-.67-.31-.95-1.05-.81-1.76.04-.22.87-2.01,1.02-2.26.79-1.27,2.25-2.23,3.37-3.18l7.88-10.36c.63-1.22.86-3.5.71-4.86-.11-1-.67-2.32-.85-3.41-.05-.35-.14-2.24-.25-2.32-3.12,1.9-6.29,3.27-9.92,3.9-4.94.87-10,.92-15,.69.32,2.13,1.06,4.23,1.2,6.39.18,2.84-.37,4.8.41,7.68.58,2.15,2.2,5.52,2,7.61-.15,1.57-1.02,2.1-2.42,2.49-1.83.52-5.31,1.29-7.11.92-.5-.1-1.07-.44-1.57-.51-1.01-.13-3.44.28-4.14-.35-.91-.82-.47-2.52-.01-3.49.79-1.68,2-2.83,2.33-4.88.46-2.96-2.05-8.7-3.71-11.21-.67-1.02-1.67-1.97-2.33-3.02-.68,2.04-1.33,4.12-1.88,6.2-.23.88-.33,1.76-.54,2.62-.61,2.47-1.33,3.97-1.13,6.63.17,2.25,1.55,4.72-.33,6.55-.86.84-3.05,1.33-4.23,1.78-2.02.78-2.78,1.58-5.22,1.22-.39-.06-.81-.41-1.21-.44-.31-.02-.57.12-.87.12-1.15.01-3.17.1-4.22-.27s-.79-1.67-.63-2.49c.53-2.57,3.39-3.68,4.47-5.79.98-1.91,1.69-5.31,1.62-7.45-.04-1.18-.47-2.27-.55-3.38-.09-1.21.18-2.42.11-3.61-.08-1.41-.4-3.72-.68-5.1-.06-.31-.67-2.48-.76-2.57-.13-.14-1.39-.19-1.73-.3-.14-.04-1.98-1.06-2.11-1.16-.36-.28-.57-.88-.89-1.19-.24-.23-.63-.34-.87-.55-.59-.51-1.02-1.2-1.75-1.53-1.49-.69-2.04-.5-3.03-2.11-.22-.36-1.1-2.37-1.21-2.45-.12-.08-.8-.13-1.05-.21-2.38-.8-2.68-1.91-5.73-1.43-2.68.42-3.56.79-6.44.38-1.88-.27-7.43-1.91-8.77-1.71-.43.06-.75.28-1.31.33-1.62.12-3.22-.14-4.43-1.27-.16-.15-.2-.44-.24-.47-.12-.08-.57.02-.8-.03-.9-.17-1.4-.48-1.97-1.2l-1.04-4.26v-1.53c.07-1.08.46-1.69,1.12-2.52.2-.78.47-1.5.81-2.17-1.64-3.46-2.24-7.86-1.49-11.67.28-1.45,1.36-2.2,1.88-.4.06,2.11.74,4.22,1.65,6.14.42.89,1.53,2.65,2.55,2.81.86.69,1.84.99,2.8.33l-.02-1.95c-.05-1.25.88-2.2,1.99-1.25,1.66,3.09,3.78,3.94,6.49,1.17,2.07-2.71,4.77-4.89,8.25-5.5-2.08-1.09-3.08-2.34-2.28-4.75.45-1.35.57-1.5,2-1.27.65.11,1.41.39,2,.67l.21-.58c.22-1.78.83-2.3,2.52-1.45,2.37,1.19,4.35,3.33,4.92,5.92,2.95-.43,5.81-1.35,8.49-2.67,3.48-1.88,7.06-3.56,10.72-5.03l1.89-.2h3.28Z"/>
  <path class="cls-30" d="M832.2,995.41c-1.64,2.38.22,3.96,1.19,5.96.77,1.61,1.22,3.69,1.42,5.46.15,1.37.51,2.35-.89,3.12-1.06.58-2.75.6-3.9.25-.38-.11-1.49-.95-1.69-.49-.37,3.93-.97,7.87-2.27,11.6-2.02,5.82-6.04,14.19-11.77,17.07-4.77,2.4-13.92,3.56-18.09-.39-.07-.07-.17-.1-.27-.11.96-2.58,1.04-5.72.36-8.38-.83-3.23-2.54-6.62-3.26-9.85-1.27-5.74-2.04-14.58.91-19.85,2.11-3.76,5.34-3.77,9.27-4.17,6.13-.63,12.52-.35,18.67-.01,2.48.14,5.65.69,8.06.3.35-.06,2.13-.62,2.27-.52Z"/>
  <path class="cls-31" d="M759.85,1007.96c.51-.23,2.43-2.51,2.78-3.07.43-.69.68-1.58.73-2.38,6.21-.62,11.36-4.31,16.89-6.77,1.27-.56,2.66-1.12,4.04-1.31,4.34-.6,8.39,1.22,12.61,1.84.06.26-.04.18-.14.24-1.06.72-1.63.92-2.46,2.01-1.92,2.53-2.66,6.54-2.75,9.65-.1.72-.1,1.46,0,2.18.1,4.23,1.28,7.36.17,11.69-.64,2.49-3.54,6.61-5.52,8.24-2.34,1.94-8.64,2.58-11.5,1.77-.88-.25-3.99-1.82-4.73-2.37-4.42-3.36-2.43-11.57-.79-15.97.66-1.76,2.79-5.29,2.93-6.91s-.83-2.26-2.18-1.42c-1.75,1.09-3.03,6.12-3.45,8.13-.84,4.02-1.91,9.54-.14,13.37.47,1.02,1.33,1.98,1.6,3.1.47,1.96-.12,4.24,1.34,5.87.31.35.95.61,1.3,1,.25.28.8,1.08.73,1.46-2.05-.51-3.33-1.95-3.93-3.93-.14-.45-.21-1.4-.38-1.69-.57-.98-2.15-1.21-3-1.92-1.19-.99-1.15-2.07-1.06-3.54s.75-2.31,1.13-3.68c1.09-3.94.61-9.09-1.84-12.42-.59-.79-1.64-2.34-2.23-2.96-.3.07-.31.01-.11-.22Z"/>
  <path class="cls-44" d="M866.19,1028.17c-.04.35-.3.22-.37-.1l-.06-2.23-.11-.03v1.99c-.2.25-.49.2-.33-.07.11-3.58-.12-7.02-1.51-10.34-.19-.45-1.62-3.7-1.82-3.75-.37-.09-.28.82-.27,1.04.08,1.99.62,3.99.65,6-3.14,9.55-15.48,14.13-22.79,6.07-2.39-2.64-3.85-8.51-3.88-12.02-.11-1.91-.1-3.81.05-5.71l.23.14.08-.22h24.82l.13.22c-.25-.33.19-.43.49-.33.47,1.08.81,2.2,1.26,3.28,1.75,4.2,2.83,6.34,3.22,11.09.13,1.57-.05,3.51.22,4.97Z"/>
  <path class="cls-60" d="M758.32,1010.59c1.26.92,2.16,2.7,1.86,4.26-1.24-.75-2.33-1.88-3.88-1.86-1.97.02-3.75.67-4.97,2.25-.26.34-.68,1.44-1.04,1.48-.9.09-.96-1.07-1.27-1.57-.9-1.47-4.3-2.51-5.77-1.54-.37.24-.98,1.32-1.07,1.77-.14.69-.18,1.09.36,1.56,1.15,1,2.52,1.89,4.05,2.07.97.11,2.05.05,2.61-.87.27-.44.16-.93.44-1.3,1.17.82,1.39-.58,1.91-1.26,1.52-1.97,4.44-2.9,6.66-1.63.35.2,2.06,1.6,2.3,1.36.24-1.33-.02-2.63-.78-3.75-.85-1.25-2.11-1.58-3.04-2.69,1,.5,2.32.45,3.22-.22.12.03,1.16,1.89,1.21,2.07.84,3.37.07,9.06-1.94,11.94-3.65,5.22-8.31,6.6-14.41,4.93-2.02-.55-3.98-1.54-6.12-1.48.29-.53,1.02-.62,1.37-1.08.65-.85-.85-1.07-1.46-1.18-1.21-.22-2.45-.41-3.67-.24-.6.08-1.66.31-2.23.5-.95.31-1.35,1.09-2.38.58-.26-.12-.78-.6-.9-.85-.1-.22-.75-2.8-.77-3.06-.02-.24.39-1.05.58-1.23.09-.08,1.06-.64,1.18-.68,1.04-.34,2.96.53,3.58,1.44-.84-.37-1.64-.29-2.44.13-.23.12-.42.36-.7.5s-1.49.41-1.56.65c-.33,1.19,1.08,1.28,1.89.99.94-.34,1.34-1.54,2.43-1.55.34,0,1.02.37,1.21-.06.06-.14-1.52-2.27-1.75-2.51-1.48-1.59-2.3-1.33-4.21-.71-.14.04-.15.11-.11-.11.08-.44.77-1.17,1-1.62.2-.39.14-1.07.69-1.16.24-.04.51.03.75-.01,1.79-.34,3.49-1.34,3.78-3.27.44,0,.82.3,1.26.33.27.02.61-.11.75-.09.07.01.48.37.72.46,1.11.45,2.84.37,3.86-.29.33-.22.55-.7.73-.8.41-.21,1.56-.28,2.29-.6.37-.1.65.03.95.23,3.54-.04,7.08,0,10.62.09.86.01,1.27-.01,1.93-.37.08-.04.18,0,.26.05Z"/>
  <path class="cls-43" d="M779.31,1048.7s.24.06.31.11c1.04-1.65,1.72-3.36,2.25-5.24.48-1.7.88-3.64.94-5.4,0-.3-.05-.54-.12-.82,1.01.06.76.67.92,1.32.62,2.5,1.87,2.14,2.89,3.78,1.27,2.05-.47,4.84-1.03,6.92-.4,1.49-.53,3.16-.89,4.68-.53,2.27-1.28,3.6-1.13,6.08.11,1.72,1.21,4.54.33,6.01-.77,1.27-2.49,1.49-3.77,2.02.24-2.71-2.75-4.87-5.03-3.06-.96-1.88-3.03-1.84-4.86-1.53.36-.52.92-.88,1.31-1.37,1.63-2.02,2.43-6.95,2.19-9.5-.06-.66-.38-1.39-.44-2.07-.1-1.16.13-2.4.12-3.49-.04-3.19-1.6-7.15-.74-10.35.53-1.98,3.52-2.54,5.27-2.37,2.15.21,2.47,1.73,2.76,3.58.41,2.64.02,6.19-.66,8.79-.08.3-.68,1.86-.62,1.94Z"/>
  <path class="cls-15" d="M861.16,1008.07c.01.26.09.41.22.44.04.09.06.21.11.33.05.39-.1.1-.26.14-.14.04-.22.19-.24.19h-25.03s-.25.11-.28.18c.02,1.2-.01,2.39,0,3.59,0,.59,0,1.24,0,1.8-.1-.73-.1-1.45-.11-2.18-.1-.87-.1-1.75,0-2.62.01-.7-.05-1.44,0-2.13.19-3.15,2.13-8.1,4.48-10.26.42-.39,2.65-1.89,3.11-1.9.22,0,2.05.65,2.38.78,3.98,1.69,7.93,4.51,11.88,6.37,1.59,1.38,2.81,3.39,3.72,5.29Z"/>
  <path class="cls-60" d="M846.85,1041.17c-1.32-.38-2.11-1.68-3.13-2.49s-3.03-2.05-4.22-2.55c-6.78-2.84-10.96,2.39-16.69,4.77s-16.4,2.67-22.44,1.79c-1.75-.25-3.6-.85-5.37-.97-.29-.02-2.89.09-2.9-.06,1.48-.89,2.9-1.96,3.66-3.55.35.32.78.77,1.18,1,4.83,2.83,13.95,2.59,19.2,1.01,6.35-1.91,15.07-8.64,17.3-15.04,1.01-2.89,1.67-6.09,1.83-9.15.21.04.19.22.22.38.33,2.06.45,3.9,1.2,5.9,1.23,3.28,3.05,7.2,4.58,10.39.79,1.65,1.73,3.61,2.75,5.12.82,1.21,1.97,2.27,2.84,3.44Z"/>
  <path class="cls-25" d="M858.87,1044.55c-.2.17-.32.07-.33-.19l.2-1.2c-2.96.08-5.95.15-8.92.07-.34,0-.9-.38-1.12-.65-.59-.97-1.69-1.76-2.46-2.62-2.76-3.08-4.54-7.08-6.19-10.85-.34-.78-.65-1.58-.96-2.37.21.09.26.34.43.5,1.97,1.87,3.84,3.13,6.56,3.71,6.38,1.37,12.25-2.03,15.39-7.45l.89-1.89c-.15,1.16-.5,2.43-.87,3.55-1.14,3.45-3.78,7.61-3.48,11.23.14,1.67,1.23,3.51,1.27,5.15.02.92-.34,2.07-.41,3Z"/>
  <path class="cls-9" d="M848.7,1042.59l1.15.44c3.04-.07,6.1.13,9.13-.11.05.05-.18,1.18-.21,1.38-.04.25.11.24.1.26-.04.24-.35.74-.45,1.04-.05.16-.21.51-.22.54-.31,2.6,2.46,3.14,2.85.5.14-.83.19-1.74.16-2.72.5.03,1.01.08,1.54.13.06.6.08,1.2.05,1.83-.74,3.14-3.12,6.77-4.01,10.03-.6,2.18-.91,5.12-1.02,7.39-.03.53.03,1.06,0,1.59l-.22-.15c-.12-1-.2-1.99-.22-2.99.25-.2.44-1.11.02-.71-3.19.04-6.39.06-9.6.07l-.96-.11c-.56.37-1.04.82-1.44,1.35.36-.08.8.34.29.35l-1.2.06c1.2-1.34,2.7-2.83,3.55-4.42.63-1.18,2.28-5.89,2.45-7.16.27-2.01-.68-6.82-1.74-8.56Z"/>
  <path class="cls-26" d="M832.42,1026.42c-.19-.09-.39-.09-.59,0l-.12-.11-.1.22h-6.22l-.13-.22c-.12.09-.21.13-.3.02,0,.42-.63,1.32-.85.75.7-1.49,1.38-3.23,1.94-4.78,1.42-3.94,2.34-8.06,2.54-12.26.11-.12,1.17.45,1.4.52,1.67.46,3.66.31,4.94-.95l.23,4.32c-.41,4.02-.91,8.86-2.74,12.5Z"/>
  <path class="cls-18" d="M824.11,1027.08c.11.19.51-.35.53-.4.18-.34,0-.7.37-.57.11.04.23.2.24.2h6.45c.18,0,.52-.59.71.11-2.9,5.75-9.98,11.31-16.09,13.25-2.56.81-5.75,1.19-8.44,1.29-.49.02-1.05.02-1.54,0-.13,0-.41.08-.38-.11,1.02-.13,2.08-.17,3.1-.34,7.53-1.29,11.97-6.85,15.04-13.42Z"/>
  <path class="cls-27" d="M792.42,1019c.33.14.18.58.27.88.33,1.22,1.65,4.09,1.69,5.08.02.52-.33,1.89-.46,2.47-.98,4.28-2.94,6.88-7,8.63-.61.26-1.29.41-1.88.74-.32-.02-.29-1.83-.27-2.13.24-3.07,4.93-7.26,6.4-10.21.81-1.64,1.25-3.64,1.25-5.47Z"/>
  <path class="cls-46" d="M744.55,1010.59c1.55-.68,1.56-1.29,2.57-2.4,2.73-3.03,5.73-4.38,9.84-4.59.31-.09.65.6.59.81-.07.24-1.18.68-1.42.92-.96.97-.44,2.97.34,3.9.6.72,1.19.89,1.85,1.37-.28.28-.41.4-.81.44-3.78.38-8.19-.3-12.03,0l-.93-.44Z"/>
  <path class="cls-8" d="M845.64,1062.68s.09-.06.11-.11l-.88-.06c.33-.41.69-.87,1.09-1.21.29-.24.66-.12.55-.7.24.16.41.2.7.22,3.14.27,6.66-.22,9.85,0,.5.08.3-.6.7-.55-.05.37.08.9,0,1.24-.02.09-.21.04-.23.23-.06.81.23,2.28.23,3.12,0,.45-1,2.04-1.4,2.18-.28.1-1.18.41-1.41.43-.38.04-.76,0-1.13.01l.11-.98c.09-.12.09-.3,0-.55-.52-.53-.66,1.4-.79,1.67-.29.59-2.57.61-3.15.46-.63-.16-.92-.84-.8-1.45.05-.24.67-1.5.83-1.63.42-.35,2.84-.58,3.3-.13.37.36.11.95.72.76.08-.42-.27-1.02-.66-1.2-.08-.03-.21-.11-.22-.11-1.02-.32-2.13-.43-3.32-.31-1.22-.67-2.61-1.12-4-1.22-.05-.02-.12.02-.16,0-.05-.02-.06-.06-.06-.11Z"/>
  <path class="cls-1" d="M835.15,1007.09c-.16-1.9-.53-3.87-1.33-5.61s-2.73-3.55-1.5-5.57c.06-.1.47-.62.53-.67.19-.15,2.25-.74,2.59-.8.62-.1,1.86-.18,2.49-.14,1.52.1,3.19.66,4.64,1.1.08.1-1.23.75-1.39.85-3.07,2.01-5.56,7-5.82,10.62-.04.24-.12.31-.22.22Z"/>
  <path class="cls-57" d="M794.71,1025.77c.3,1.52,1.19,3.1,1.31,4.64.06.83-.11,2.45-.36,3.24-.55,1.76-3.6,4.42-5.18,5.42-1.1.69-2.6,1.39-3.85.61-.19-.12-1.27-1.29-1.37-1.47-.07-.13-.27-1.04-.23-1.09.07-.1,1.89-.7,2.21-.85,4.32-1.94,6.01-4.59,7.06-9.1.1-.44.09-1.12.4-1.4Z"/>
  <path class="cls-19" d="M759.3,1027.84c1.24-1.16.33-.91-.09-1.71-.34-.63.43-1.19.73-1.75,1.17-2.21,1.9-8.05,1.87-10.59-.01-.91-.36-1.95-.26-2.88.46.64,1.07,1.38,1.43,2.07,1.77,3.46,1.95,11.83-1.66,14.18-.6.39-1.26.7-2,.67Z"/>
  <path class="cls-39" d="M770.76,1063.81c1.06-.13,3.21-.09,3.65,1.09.18.49-.18,1.24-.42,1.7-.55,1.06-1.48,2.15-2.67,2.47-.73.2-3.64.41-3.82-.55-.37-1.99,1.19-4.47,3.25-4.72Z"/>
  <path class="cls-12" d="M845.19,1063.04c.57-.01,2.04.48,2.61.72.35.15,1.16.48,1.23.84.18.93-.59,2.47-1.38,2.98-1.05.68-4.28,1.06-5.32.33-.61-.42-.7-1.36-.38-1.98.17-.32,1.76-2.4,2-2.59.21-.17.96-.29,1.24-.3Z"/>
  <path class="cls-65" d="M862.8,1045.86c-.17-.17-.24-.49-.23-.71,0-.2.21-.14.23-.23.05-.2-.02-.47,0-.69-.58.07-1-.04-1.53-.22l-.11,3.06c-.19.02-.1-.31-.11-.44,0-.22,0-.44,0-.66l.11-1.09c-.03-1.63.06-2.27-.75-3.79-1.67-3.11-2.8-4.84-1.52-8.59l3.14-7.72c-.28,2.39-.99,4.79-1.3,7.17-.37,2.84-.44,5.24.53,7.96.75,2.1,2.08,3.6,1.53,5.95Z"/>
  <path class="cls-14" d="M768.16,1015.83c-.2-.1-.45-.08-.74.06h-.61s-.18,1.37-.18,1.37c-.32.23-.35.07-.33-.23.52-3.29,1.05-7.09,2.71-10.01.36-.64.96-1.49,1.76-1.61,1.33-.2.96,1.63.69,2.42-.97,2.76-2.43,5.04-3.3,8.01Z"/>
  <path class="cls-22" d="M770.12,1038.44l-2.32-1.2c-.76-.98-1.99-2.19-2.98-2.95-.61-.47-1.04-.44-1.69-.71-1.64-.7-2.03-2.25-2.82-3.71.98-.73,1.85-1.28,2.16-2.56.18-.03.12.27.11.38-.05.82-.19,1.58.23,2.39.62,1.19,2.18,1.53,3.15,2.1.91.53.81,1.61,1.1,2.51.58,1.79,1.57,2.7,3.06,3.77Z"/>
  <path class="cls-40" d="M768.16,1015.83c-1.24,4.26-2.4,9.49.66,13.27.52.64,1.13.97,1.75,1.48-.54-.08-1.41.53-1.76.92-.18.2-.14.43-.32.5-.1-.73-.08-1.47-.28-2.18-.35-1.3-1.29-2.34-1.77-3.58-1.09-2.82-.75-5.02-.36-7.89.08-.26.11-.55.11-.87.03-.19.09-.34.11-.44l.11.27.22-1.69c.65.15,1.01.1,1.53-.33v.55Z"/>
  <path class="cls-42" d="M774.2,1069.21c-.45-.48.27-2.9.57-3.47.54-1.03,2.93-1.27,3.61-.33.58.79.79,2.26.05,3.01-.21.22-1.43.92-1.73,1-.53.16-2.13.19-2.51-.22Z"/>
  <path class="cls-60" d="M865.32,1027.73s.05.1.11.11v-2.29s.52.1.53.12c.09.1-.06,2.16.13,2.55l.11-.05c.63,3.43,2.14,5.62.89,9.36-.06.17.1.31-.23.26.1-.2.13-.36.11-.59-.28-2.77-2.71-4.33-2.26-7.63.04-.29.4-1.53.52-1.77.03-.05.05-.06.11-.06Z"/>
  <path class="cls-56" d="M731.76,1008.62c.24.39,1.96,2.3,1.96,2.45,0,.32-.98,1.56-1.25,1.81s-1.7,1-1.93.69c-.16-.21-.73-1.65-.83-1.98-.21-.65-.46-1.65-.58-2.32-.02-.38.05-.66.21-.84l1.48.08c.4-.11.71-.07.93.1Z"/>
  <path class="cls-70" d="M738.07,1026.17c-.97.75-3.28.71-4.38.24-.17-.07-1.14-.73-1.3-.86-.09-.08-.13-.16-.16-.28.03-.23.81-.49,1.04-.57,1.19-.4,2.62-.87,3.85-.52.39.11.83.44,1.16.49s1.58-.45,1.57-.05c0,.14-1.31,1.03-1.53,1.2-.12.09-.16.29-.24.35Z"/>
  <path class="cls-37" d="M731.76,1008.62c-.3.05-.62.11-.92.12s-1.35-.12-1.42-.1c-.25.07-.08.5-.28.64-.28-1.6-.45-3.91-.33-5.52.02-.32.43-2.47.55-2.56.46-.35.42,1.05.44,1.15.24,1.8,1.01,4.74,1.97,6.28Z"/>
  <path class="cls-69" d="M752.42,1001.19c-.25-.57-.26-.83-.21-1.46.03-.3.34-1.75.53-1.87.37-.25,2.54.56,3.06.72-.29.9-.7,1.76-.44,2.72.14.45-.39.17-.38-.2-.85.11-1.7.14-2.57.1Z"/>
  <path class="cls-17" d="M761.93,1005.12c-.13-.2-.05-.52.25-.97-.29.01-.56-.05-.84-.13.04.2-.15.54-.35.47-.05-.02.04-.97.07-1.12-.08-1.35-.22-2.71-1.2-3.71l.03-.25c.11-.12,1.54-.12,1.72.03.38.52.83.99,1.08,1.6.54,1.3.34,3.12-.75,4.08Z"/>
  <path class="cls-45" d="M761.6,999.45c-.49.29-1.22-.07-1.75.22-.37-.38-.98-.71-1.35-1.1-.29-.3-1.14-1.72-1.27-1.8-.35-.21-.36.54-.55.61.04-1.41.38-1.34,1.49-.89,1.58.63,2.45,1.66,3.42,2.97Z"/>
  <path class="cls-29" d="M740.94,1010.48c.13.18-.87.8-1.06.85-.52.13-1.87.24-2-.47-.09-.5-.01-2.59.37-2.9.56-.46,1.36,1.3,1.7,1.7.21.24.48.49.71.72.09.09.26.1.27.11Z"/>
  <path class="cls-35" d="M761.05,1003.38c.02.36-.02.73,0,1.09l.11-.76c.45.23.8.26,1.31.22.1.09-.44,1.03-.55,1.2-.4.65-1.82,2.49-2.57,2.62-.48.08-.91.08-1.25-.21.03.03.27.03.34-.06.19-.26.3-1.07.59-1.36.42-.42,1.4-.5,1.79-1.26.26-.51-.03-1,.23-1.46Z"/>
  <path class="cls-23" d="M860.25,1044.46c.71-.01.46,2.05.33,2.52-.49,1.88-2.39.91-2.05-.84.07-.38,1.24-1.67,1.71-1.67Z"/>
  <path class="cls-14" d="M759.85,1007.96c.04.06.06.17.11.22-.37.06-.56.47-.93.54-.3.06-1.31.05-1.63,0-.57-.09-.92-.56-1.14-1.04-.69-1.47-.06-2.19,1.3-2.77.15.78-.4,2.07.06,2.73.4.57,1.66.6,2.24.33Z"/>
  <path class="cls-32" d="M752.42,1001.19c.1-.21.15-.21.37-.23.78-.05,1.67.2,2.36-.21l.11.61.11-.06c.21.76,1.02,1.29,1.42,1.96-.34-.04-1.34.27-1.57.21-.12-.03-.15-.24-.26-.32-.53-.4-1.12-.7-1.66-1.09-.32-.29-.57-.51-.77-.66-.06-.09-.07-.13-.11-.22Z"/>
  <path class="cls-32" d="M755.92,999.77c.11.86.26,1.58.87,2.24.78.83,2.14.66,1.96,2.07-.05.41-.15,1-.22,1.42-.05.31-.55,1.91-.43,2.03-.65-.57-.13-1.49-.12-2.25,0-.6-.14-1.4-.49-1.89-1.04-1.48-2.24-1.41-1.69-3.83.12-.19.16-.12.11.22Z"/>
  <path class="cls-33" d="M732.97,1018.99c-.36-.14-.58-.29-.98-.39-.3-.07-1.08-.19-1.37-.16-.48.04-2.11.89-2.02,1.53-.15,0-.21-.53-.21-.61,0-.19.11-1.12.21-1.19.11-.09,1.93-.6,2.14-.6.87-.02,1.79.73,2.24,1.42Z"/>
  <path class="cls-7" d="M748.48,1015.94c-.67-.02-1.68-.97-2.23-.97-.37,0-1.07.28-1.42.44-.21.1-1.41.93-1.49.86.77-1.54.93-2.28,2.87-1.94,1.11.2,1.57.8,2.27,1.61Z"/>
  <path class="cls-59" d="M730.34,1014.52c-.11-.77.48-.47.99-.6.93-.24,1.8-1.16,2.34-1.92.26-.37.27-1.01.75-.85.51.17-.05,1.22-.27,1.54-.79,1.19-2.41,1.84-3.81,1.82Z"/>
  <path class="cls-36" d="M743.68,1017.25c1.23.37,3.26,1.3,4.48.6.26-.15.59-.9.99-1.03.11.8-.56,1.77-1.36,1.86-.56.07-2.29-.24-2.82-.47-.43-.18-.93-.64-1.28-.96Z"/>
  <path class="cls-54" d="M747.17,1014.19c-1.28-.27-2.58-.74-3.43.56-.17.26-.84,1.67-.94,1.74-.58.4-.21-1.32-.05-1.64.6-1.22,1.45-1.31,2.73-1.2.48.04,1.36.2,1.7.54Z"/>
  <path class="cls-55" d="M741.93,1010.91c-.86,1.6-3.27,1.55-4.7.76.37-.59.55-.15.87-.05.62.18,1.27.23,1.9.04s1.16-1.05,1.92-.75Z"/>
  <path class="cls-58" d="M748.92,1016.48c-1.29,2.13-3.53.95-5.35.33,0-.15.55-.29.6-.29.08,0,.6.58.9.7.48.19,1.22.21,1.69,0,.26-.12.35-.36.71-.49.42-.16.99-.18,1.45-.25Z"/>
  <path class="cls-9" d="M845.86,1062.79c.1-.21.37-.07.53-.04.81.15,1.74.37,2.5.67.32.13.73.48.99.54.49.11,1.3-.12,1.93-.07.28.02.79.14,1.1.2.04,0,.57.13.28.22-.21-.05-.89-.22-1.04-.22h-1.75c-.96,0-.99-.35-1.85-.66s-1.82-.39-2.68-.65Z"/>
  <path class="cls-44" d="M835.59,1012.55c-.18-.78-.18-1.84,0-2.62-.01.87-.01,1.75,0,2.62Z"/>
  <path class="cls-63" d="M748.81,1015.72l-1.09-1.2c.52.05.96.73,1.09,1.2Z"/>
  <path class="cls-4" d="M791.54,1010.37c-.18-.63-.18-1.55,0-2.18-.02.72-.02,1.46,0,2.18Z"/>
  <path class="cls-9" d="M854.06,1065.63c-.11-.51-.3-.82-.66-1.2,0,0,.02-.1.16-.01.25.16.84,1.11.5,1.22Z"/>
  <path class="cls-44" d="M861.38,1008.51c-.16.25-.51.17-.55-.06-.06-.37.44-.01.33-.38.07.15.15.28.22.44Z"/>
  <path class="cls-28" d="M755.92,999.77c-.01-.09,0-.19-.11-.22l.44-.98-.33,1.2Z"/>
  <path class="cls-14" d="M766.19,1017.47v1.15s-.11-.27-.11-.27c.04-.29.07-.58.11-.87Z"/>
  <path class="cls-69" d="M753.29,1002.07c-.33-.24-.48-.23-.77-.66l.05-.11.71.76Z"/>
  <path class="cls-9" d="M861.05,1045.97c0-.34-.09-.84.11-1.09,0,.34.08.85-.11,1.09Z"/>
  <path class="cls-50" d="M835.37,1006.87c-.02.22.01.44,0,.65-.34.07-.19-.17-.22-.44l.22-.22Z"/>
  <path class="cls-9" d="M853.95,1065.96c.23.24.06.77.11,1.09-.19,0-.11-.41-.11-.55v-.55Z"/>
  <circle class="cls-24" cx="782.9" cy="1029.88" r=".54"/>
  <circle class="cls-24" cx="786.9" cy="1027.31" r=".54"/>
  <circle class="cls-68" cx="789.46" cy="1016.21" r=".53"/>
  <circle class="cls-67" cx="789.46" cy="1019.91" r=".53"/>
  <circle class="cls-34" cx="788.88" cy="1024.44" r=".54"/>
  <circle class="cls-34" cx="781.48" cy="1027.9" r=".54"/>
  <circle class="cls-11" cx="785.95" cy="1024.53" r=".54"/>
  <circle class="cls-24" cx="778.88" cy="1030.74" r=".54"/>
  <circle class="cls-48" cx="855.41" cy="1027.61" r=".54"/>
  <circle class="cls-2" cx="855.4" cy="1023.06" r=".54"/>
  <circle class="cls-34" cx="851.11" cy="1028.75" r=".55"/>
  <circle class="cls-34" cx="853.09" cy="1021.62" r=".55"/>
  <circle class="cls-34" cx="852.28" cy="1018.77" r=".55"/>
  <circle class="cls-48" cx="853.96" cy="1025.9" r=".54"/>
  <circle class="cls-34" cx="857.96" cy="1025.62" r=".53"/>
  <circle class="cls-48" cx="851.14" cy="1037.01" r=".55"/>
  <circle class="cls-24" cx="854.26" cy="1035.58" r=".55"/>
  <circle class="cls-67" cx="849.11" cy="1034.49" r=".55"/>
  <circle class="cls-5" cx="852.3" cy="1033.57" r=".54"/>
  <circle class="cls-34" cx="857.13" cy="1031.04" r=".54"/>
  <path class="cls-9" d="M859.09,1042.37c-.18.2-.47-.38-.05-.54.09.06.07.52.05.54Z"/>
  <circle class="cls-21" cx="788.89" cy="1031.04" r=".53"/>
  <circle class="cls-38" cx="791.18" cy="1028.75" r=".53"/>
  <circle class="cls-62" cx="789.74" cy="1032.42" r=".54"/>
  <circle class="cls-47" cx="787.17" cy="1033.87" r=".55"/>
  <circle class="cls-67" cx="788.59" cy="1037.29" r=".53"/>
  <circle class="cls-67" cx="790.88" cy="1036.42" r=".54"/>
  <path class="cls-13" d="M789.03,1024.24c.14.14-.19.65-.33.27-.12-.32.24-.35.33-.27Z"/>
  <path class="cls-20" d="M781.71,1027.73c0,.43-.43.43-.44,0h.44Z"/>
  <path class="cls-49" d="M785.75,1024.67c-.08-.08-.05-.44.27-.33.38.14-.13.47-.27.33Z"/>
  <path class="cls-61" d="M779.09,1030.57c.08.08.05.44-.27.33-.38-.14.13-.47.27-.33Z"/>
  <path class="cls-41" d="M851.33,1028.61c0,.43-.43.43-.44,0h.44Z"/>
  <circle class="cls-16" cx="853.07" cy="1021.62" r=".21"/>
  <circle class="cls-66" cx="852.31" cy="1018.78" r=".21"/>
  <path class="cls-6" d="M853.73,1025.77c.07-.09.5-.12.44.16-.07.34-.59.04-.44-.16Z"/>
  <path class="cls-10" d="M857.77,1025.77c-.08-.08-.05-.44.27-.33.38.14-.13.47-.27.33Z"/>
  <path class="cls-3" d="M851.33,1036.8c.14.14-.19.65-.33.27-.12-.32.24-.35.33-.27Z"/>
  <rect class="cls-10" x="854.06" y="1035.41" width=".39" height=".31" transform="translate(-482.1 907.79) rotate(-45.02)"/>
  <path class="cls-16" d="M848.92,1034.61c-.08-.08-.05-.44.27-.33.38.14-.13.47-.27.33Z"/>
  <path class="cls-53" d="M852.09,1033.74c-.08-.08-.05-.44.27-.33.38.14-.13.47-.27.33Z"/>
  <circle class="cls-52" cx="857.12" cy="1031.01" r=".21"/>
  <path class="cls-64" d="M789.9,1032.21c.14.14-.19.65-.33.27-.12-.32.24-.35.33-.27Z"/>
  <circle class="cls-13" cx="787.17" cy="1033.85" r=".21"/>
  <path class="cls-51" d="M790.67,1036.58c-.08-.08-.05-.44.27-.33.38.14-.13.47-.27.33Z"/>
</svg>