<?xml version="1.0" encoding="UTF-8"?>
<svg id="Lager_1" data-name="Lager 1" xmlns="http://www.w3.org/2000/svg" xmlns:xlink="http://www.w3.org/1999/xlink" viewBox="0 0 1254 1280">
  <defs>
    <style>
      .cls-1 {
        fill: #feef91;
      }

      .cls-2 {
        fill: #f1f1f1;
      }

      .cls-3 {
        fill: #fed181;
      }

      .cls-4 {
        fill: #ec8b1b;
      }

      .cls-5 {
        fill: #d46305;
      }

      .cls-6 {
        fill: #fc9720;
      }

      .cls-7 {
        fill: #0b0906;
      }

      .cls-8 {
        fill: #dc9152;
      }

      .cls-9 {
        fill: #f38e27;
      }

      .cls-10 {
        fill: #fedc56;
      }

      .cls-11 {
        fill: #f8931f;
      }

      .cls-12 {
        fill: #feb547;
      }

      .cls-13 {
        fill: #f1b148;
      }

      .cls-14 {
        fill: #f37f03;
      }

      .cls-15 {
        fill: #fec572;
      }

      .cls-16 {
        fill: #973902;
      }

      .cls-17 {
        fill: #feca8a;
      }

      .cls-18 {
        fill: #fee358;
      }

      .cls-19 {
        fill: #fedc55;
      }

      .cls-20 {
        fill: #ecac38;
      }

      .cls-21 {
        fill: #ecbc99;
      }

      .cls-22 {
        fill: #f4af69;
      }

      .cls-23 {
        fill: #f8921e;
      }

      .cls-24 {
        fill: #f99420;
      }

      .cls-25 {
        fill: #fddf56;
      }

      .cls-26 {
        fill: #fa951e;
      }

      .cls-27 {
        fill: #ce6004;
      }

      .cls-28 {
        fill: #fb951e;
      }

      .cls-29 {
        fill: #db6605;
      }

      .cls-30 {
        fill: #fc961f;
      }

      .cls-31 {
        fill: #fee659;
      }

      .cls-32 {
        fill: #fee357;
      }

      .cls-33 {
        fill: #fede56;
      }

      .cls-34 {
        fill: #fee457;
      }

      .cls-35 {
        fill: #e2924f;
      }

      .cls-36 {
        fill: #feb96b;
      }

      .cls-37 {
        fill: #f4be89;
      }

      .cls-38 {
        fill: #fec670;
      }

      .cls-39 {
        fill: #fcca85;
      }

      .cls-40 {
        fill: #fede57;
      }

      .cls-41 {
        fill: #ec8c1c;
      }

      .cls-42 {
        fill: #fee458;
      }

      .cls-43 {
        fill: #f7921d;
      }

      .cls-44 {
        fill: #fc961e;
      }

      .cls-45 {
        fill: #fee65a;
      }

      .cls-46 {
        fill: #f9941e;
      }

      .cls-47 {
        fill: #fed078;
      }

      .cls-48 {
        fill: #fb941c;
      }

      .cls-49 {
        fill: #fecc56;
      }

      .cls-50 {
        fill: #fedc9b;
      }

      .cls-51 {
        fill: #fee559;
      }

      .cls-52 {
        fill: #b04000;
      }

      .cls-53 {
        fill: #fead41;
      }

      .cls-54 {
        fill: #f1ac3e;
      }

      .cls-55 {
        fill: #fdd096;
      }

      .cls-56 {
        fill: #fed89d;
      }

      .cls-57 {
        fill: #fee55b;
      }

      .cls-58 {
        fill: #f48004;
      }

      .cls-59 {
        fill: #fee25d;
      }

      .cls-60 {
        fill: #c84f00;
      }

      .cls-61 {
        fill: #fef3a6;
      }

      .cls-62 {
        fill: #b03e00;
      }

      .cls-63 {
        fill: #fed287;
      }

      .cls-64 {
        fill: #fad452;
      }

      .cls-65 {
        fill: #b54905;
      }

      .cls-66 {
        fill: #fee459;
      }

      .cls-67 {
        fill: #e5a774;
      }

      .cls-68 {
        fill: url(#Namnlös_övertoning_3);
      }

      .cls-69 {
        fill: #fdc350;
      }

      .cls-70 {
        fill: #fee158;
      }

      .cls-71 {
        fill: #d4a285;
      }

      .cls-72 {
        fill: #fdd954;
      }

      .cls-73 {
        fill: #d58626;
      }

      .cls-74 {
        fill: #070605;
      }

      .cls-75 {
        fill: #f29c35;
      }

      .cls-76 {
        fill: #e18e47;
      }

      .cls-77 {
        fill: #f1b049;
      }

      .cls-78 {
        fill: #fee45a;
      }

      .cls-79 {
        fill: #fedf5a;
      }

      .cls-80 {
        fill: #fedd99;
      }

      .cls-81 {
        fill: #fee95c;
      }

      .cls-82 {
        fill: #fee057;
      }

      .cls-83 {
        fill: #fdde55;
      }

      .cls-84 {
        fill: #fee359;
      }

      .cls-85 {
        fill: #070505;
      }

      .cls-86 {
        fill: #b74d06;
      }

      .cls-87 {
        fill: #feda9b;
      }

      .cls-88 {
        fill: #ec8a1b;
      }

      .cls-89 {
        fill: #feb75f;
      }

      .cls-90 {
        fill: #f7931e;
      }

      .cls-91 {
        fill: #fec75c;
      }

      .cls-92 {
        fill: #fed086;
      }

      .cls-93 {
        fill: #fa9520;
      }

      .cls-94 {
        fill: #f39b34;
      }

      .cls-95 {
        fill: #ebb78e;
      }

      .cls-96 {
        fill: #fedf56;
      }

      .cls-97 {
        fill: #f6b74d;
      }

      .cls-98 {
        fill: url(#Namnlös_övertoning_12);
      }

      .cls-99 {
        fill: #fad251;
      }

      .cls-100 {
        fill: #fddb5a;
      }

      .cls-101 {
        fill: #f1b249;
      }

      .cls-102 {
        fill: #fee259;
      }

      .cls-103 {
        fill: #fee258;
      }

      .cls-104 {
        fill: #fbd251;
      }

      .cls-105 {
        fill: #f9d954;
      }

      .cls-106 {
        fill: #fad351;
      }

      .cls-107 {
        fill: #e5aa79;
      }

      .cls-108 {
        fill: #e7a062;
      }

      .cls-109 {
        fill: #fea61a;
      }

      .cls-110 {
        fill: #e58524;
      }

      .cls-111 {
        fill: #d7730e;
      }

      .cls-112 {
        fill: #f37f02;
      }

      .cls-113 {
        fill: #fbd553;
      }

      .cls-114 {
        fill: #fbba4e;
      }

      .cls-115 {
        fill: #f8931d;
      }

      .cls-116 {
        fill: #fee558;
      }

      .cls-117 {
        fill: #ad4103;
      }

      .cls-118 {
        fill: #b34b07;
      }

      .cls-119 {
        fill: #fcce95;
      }

      .cls-120 {
        fill: #fbbc6d;
      }

      .cls-121 {
        fill: #fd981f;
      }

      .cls-122 {
        fill: #fecd70;
      }

      .cls-123 {
        fill: #eaa96e;
      }

      .cls-124 {
        fill: #e09d66;
      }

      .cls-125 {
        fill: #ed821e;
      }

      .cls-126 {
        fill: #060505;
      }

      .cls-127 {
        fill: #bb4e07;
      }

      .cls-128 {
        fill: #d7771d;
      }

      .cls-129 {
        fill: #f37e02;
      }

      .cls-130 {
        fill: #fda91f;
      }

      .cls-131 {
        fill: #fece94;
      }

      .cls-132 {
        fill: #983902;
      }

      .cls-133 {
        fill: #c85200;
      }

      .cls-134 {
        fill: #e39654;
      }
    </style>
    <linearGradient id="Namnlös_övertoning_3" data-name="Namnlös övertoning 3" x1="1307.85" y1="1076.59" x2="626.1" y2="1700.29" gradientTransform="translate(456.99 321.94) scale(.11)" gradientUnits="userSpaceOnUse">
      <stop offset="0" stop-color="#fbbb2b"/>
      <stop offset="1" stop-color="#e4a23f"/>
    </linearGradient>
    <linearGradient id="Namnlös_övertoning_12" data-name="Namnlös övertoning 12" x1="647.49" y1="1641.78" x2="872.35" y2="1832.73" gradientTransform="translate(456.99 321.94) scale(.11)" gradientUnits="userSpaceOnUse">
      <stop offset="0" stop-color="#d5741a"/>
      <stop offset="1" stop-color="#eeb047"/>
    </linearGradient>
  </defs>
  <path class="cls-16" d="M516.94,541.11c.14-.14.47-.17.66-.11.92.04,2.51,2.39,2.64,3.3h-7.59c-.05-1.07.71-2.65.66-3.63.24-.1.52-.06.84.12.98.2,1.91.3,2.79.32Z"/>
  <path class="cls-16" d="M540.15,540.78c.2-.26.76,0,.77.33.97.13,1.89.18,2.86.11.04-.34.35-.33.55-.11.35.48,1.28,1.02,1.76,1.6.38.47.72,1.01.88,1.59h-7.7c.08-1.16.55-2.39.66-3.52,0-.26.15-.26.22,0Z"/>
  <path class="cls-27" d="M485.15,500.62c.26-.28.72.05.88.33.21.2.18.25-.11.22-1.48,1.53-3.07,2.97-4.79,4.32-1.55,1.39-3.04,3.01-3.52,5.09l-.28.27-.11-.11c.06-.73-.09-1.59,0-2.31s.57-1.89.88-2.53c.17-.08.25-.22.22-.33.04-.07.06-.14.11-.22,1.08-1.62,2.75-2.92,4.51-3.96.52-.25,1.64-.83,2.2-.77Z"/>
  <path class="cls-16" d="M558.3,541.22c.59.08,2.68,2.32,2.75,3.08h-7.48c-.01-1.05.61-2.4.55-3.41l.29-.11c1.14.49,2.36.56,3.65.21l.24.23Z"/>
  <path class="cls-8" d="M500.66,544.19v.11h-2.75c-.1-.03-.09-.07,0-.11.02-.09.06-.21.13-.22.34-.03,2.16-.06,2.4,0,.12.03.17.09.23.22Z"/>
  <path class="cls-124" d="M497.91,544.19v.11h-2.64c-.1-.03-.09-.07,0-.11.02-.09.06-.21.13-.22.31-.05,2.05-.05,2.35,0l.16.22Z"/>
  <path class="cls-107" d="M495.27,544.19v.11h-2.31v-.11l.12-.22h2.03l.15.22Z"/>
  <path class="cls-68" d="M570.62,409.19l.22-.2c.8.12,1.6.27,2.35.57l.07.29c.28.18.8,1.02,1.21.99.1.03.09.07,0,.11.19,0,.34.1.46.32.41.26.59.52.53.78.6.1,1.5,1.14,1.43,1.76.3-.13.71.77.55.99.11.13.43.41.44.44.23.12.38.4.44.83.41.33.59.64.55.93,1.3,1.62,2.48,3.09,4.19,4.34.72.53,2.01,1.07,2.52,1.71.06.18.03.39-.09.63.09.7.38,1.37.86,2.01.15.71.45,1.21.66,1.87,0,.07-.02.13-.05.17-.52.72-4.91,1.27-5.68.14-.51-.5-.95-1.01-1.31-1.52.05.14.01.19-.11.11l-10.78-2.09c-2.22-.81-4.29-2.2-4.99-4.62-.69,2.33,1.3,4.17,3.44,4.62l.12.23c-.27.11-.26.43-.33.66-.27.14-.64.1-1.1-.13-1.36-.43-3.04-.69-3.69.91-.44,1.08,1.64,4.26,3.09,3.98l.17.19c-.18.62-.37,1.25-.55,1.87l-.25.1c-.66-.61-.86-.58-1.66-.27-.73.28-3.35,1.66-3.57,2.31-.46,1.37,1.69,4.96,3.3,5.06l.2.28c-.19.73-.36,1.47-.55,2.2-1.5-.74-3.81.42-5.12,1.28-1.2.78-1.24,1.18-.72,2.48.78,1.94,1.88,2.31,3.91,2.59l.16.25c-.31,1.13-.55,2.28-.88,3.41-.48-.24-.94-.56-1.39-.96-6.07-3.93-5.58,5.67-.7,6.3l.22.28c-.29.76-.56,1.56-.88,2.31l-.27.09c-2.03-1.31-4.09-2.44-3.13,1.29.25.97.59,1.97,1.25,2.74l-.04.27c-.23.45-.48.9-.65,1.38.39,1.26.74,2.53,1.09,3.8l-.17.29c-2.23.74-3.98,1.33-3.14,4.04s2.21,3.95,5.05,2.74l.35.09c.07.37.06,1,.11,1.43l.11.55c.03.34.09.8.11,1.1-.01.09-.05.12-.11.11l-.26.15c-.85-.33-1.73-.56-2.63-.7l-.19-.22c-.51.06-1.03.05-1.54,0l-.12.26c-2.86,1.25.07,6.66,2.62,6.72.37-.01.64.08.8.29-.46,1.14-1.12,2.29-1.65,3.41l-.25-.03-.66-1.44c-3.72,1-4.25,2.79-.54,4.49l.12.28c-.02.14,0,.3,0,.44l-.11.66c0,.22,0,.44,0,.66-.15.1-.34.07-.55-.07-3.23.01-2.25,3.23.25,3.8l.09.23s0,.07,0,.11c-.04.23-.08.45-.11.66.08.25.09.52,0,.77l-.21.18c-2.61.22-2.51,2.68-.02,2.9l.12.22c0,.37,0,.76,0,1.1-.03.1-.07.09-.11,0l-.17.21c-2.94-.33-2.69,3.18.01,3.11l.16.2c.07,2.09.72,3.11.99,4.95.08.39.08.79,0,1.21-.23,1.63-.63,2.66-.55,4.4l.11.55c.08,1.05.21,2.08.35,3.12.56,4.44,1.14,9.49,1.99,13.85.21,1.07.63,2.26,1.2,3.2.41.67,1.04,1.19,1.3,1.95-.55-.08-1.61.27-2.36.22-.64-.05-1.24-.3-1.82-.55-.06-1.04-1.33-2.47-1.51-3.82-.65-4.89-1.05-9.82-1.8-14.7-.23-1.51-.47-3.54-.97-4.91-.22-.79-.61-1.67-1.1-2.31-.62-1.63-.1-3.37-.36-5.19-.42-2.87-1.46-5.86-2.17-8.67-.34-.1-.23-.62.11-.66-.14-.3.45-1.46.64-1.69l.24-.07c-.18-.32-.26-.73-.23-1.23-.16-.39-.19-.71-.1-.97-.22-.63-.5-1.94.11-2.31l.25-.07c.55.69,1.19,1.07,1.91,1.14,2.7-1.53,1.11-5.46-1.81-4.51l-.24-.08c-.02.1-.06.1-.11,0-.02.1-.06.1-.11,0-.11,0-.22-.02-.29-.1-.11-.14-.22-3.39-.09-3.58.04-.06.1-.12.15-.17l.24-.09c.77.96,1.65,1.58,2.64,1.86,2.39-1.56,3-2.78,1.37-5.26-.82-1.23-1.15-1.23-2.57-.75-.35.24-.66.33-.91.28-.06-.07-.11-.14-.15-.22-.21-.41.03-3.18.13-3.85l.25-.44.22-.14c.94.92,2.67,1.7,3.12-.14.25-1.01-.58-5.18-1.17-6.14-.44-.73-1.75-1.6-2.12-.43l-.27.02-.18.58c-.98.86-1.65,1.84-2.02,2.94l-.22.11c-.05.08-.13.15-.21.13-1.78-.34-2.22-.39-3.75.79-.09-.03-.16-.08-.21-.16-.13.01-.28.09-.44.22-.43,1.96-.67,3.81.07,5.75l1.32,3.59c.05.12.02.24-.06.35.01.11.02.24-.04.33-.5.71-4.8,2.68-5.63,3.03-6.3,2.69-12.5,3.87-19.3,2.7-.78-.13-2.68-.46-3.29-.75-.07-.04-.13-.23-.13-.35.19-1.3.41-2.59.65-3.88l.23-.1c-.08-.74-.08-1.47,0-2.2l.23.08.15,1.73c1.45-.33,2.62-1.22,3.16-2.62l.31-.18.21-.2c1.83.08,2.6-1.97,2.99-3.44l.32-.43c-.3-.12-.2-.35.11-.33l.16-.32c.98-.58,1.91-1.25,2.77-2h.36c.15-.14.22-.08.11.12l.29.09c.59,1.12,1.7,1.43,2.89,1.48,3.82.14,3.49-2.17,2.73-5.07l.14-.24c-.1-.03-.1-.07,0-.11l.18-.29c1.16-.62,2.33-1.18,3.52-1.7l.26.12.13.25c-.59,1.08-1.18,2.17-1.75,3.25-1.11,1.73,3.26,3.97,4.11,3.09.41-.42,1.63-3.82,1.52-4.35-.07-.34-.39-.64-.66-.85-.86-.53-1.75-1.02-2.67-1.45l-.02-.28v-.28c.7-.87,1.43-1.66,2.2-2.36.03-.1.07-.09.11,0l.27.12c.85,2.74,4.94,4.55,7.06,2.33l.26-.04c.08-.29.05-.59,0-.88l-.27-.22-.46-2.16c-.76-2.83-1.53-3.15-4.3-2.21l-.26-.15c-.07-.05-.17-.14-.15-.2.08-.27.89-2.3.99-2.38.07-.06.17-.07.26-.06.04-.29.09-.26.22,0l.57-.14,2.92.28c.74-.97,1.03-1.41-.06-2.45l-1.37-1.45.03-.31c-.1-.03-.09-.07,0-.11-.21-.46.5-1.34.88-1.54.03-.1.07-.09.11,0h.25c.68.96,1.49,1.94,2.76,1.85.86-.06,3.41-.53,3.84-1.32.51-.93.14-5.1-.67-5.76-.65-.53-1.7-.59-2.51-.61l-.16-.22c-.06-.05-.15-.13-.13-.19.08-.22.84-1.73.98-1.94l.25-.07c.12-.15.19-.08.22.22l.3-.04c1.59,1.34,4.17.35,4.91-1.41.35-.82-1.25-3.85-2.18-4.25l-.06-.24c-.1-.04-.1-.07,0-.11l-.14-.21c.33-.41.52-.84.58-1.32l.23-.13c.15-.16.24-.1.22.11l.28-.12c1.18.57,3.81.2,4.45-1.03.33-.63-.35-5.76-1.72-5.86l-.03-.25-.19-.18c-.02-.18.67-1.69.96-1.69l.19-.18c.88.26,3.52-.43,3.95-1.23.23-.44-.2-3.99-1.39-3.86l-.11-.22c-.05-.74.3-1.74.77-2.31-.14-.16-.07-.22.11-.11l.22-.31c.29-.05,1.32-.59,1.34-.75-.56-1.35-.34-2.84.2-4.12-.06-.34.03-.71.22-.99l-.16-.25c.25-1.15.99-2.06,1.7-2.94,0-.1.05-.18.14-.22l1.21.26c.73.2.58-1.16.52-1.14-.11-.73-.42-1.46-.94-2.21l.17-.21c.43-.23.5-.63.66-.77l.19-.4c.69-.4,1.4-.77,2.14-1.08l.2.16c.03-.1.07-.1.11,0,.51-.14,1.44-.15,1.98-.11Z"/>
  <path class="cls-104" d="M560.61,424.38c-.18.8-.45,1.56-.77,2.31.15.16.08.22-.11.11l-.18.21c-1.48-.06-1.56.72-1.63,2.1-.1,1.01-.34,1.96-.71,2.87.3.04.26.1,0,.22-.1.58-.71,1.24-.77,1.87.05.29,0,.32-.22.11-.64.76-1.06,1.67-1.28,2.74l-.48,1.11c.21.39.06.8-.33.99-.43.68-.69,1.47-.88,2.2-.03.96-.34.96-.66,1.65-.33.28-.45.59-.57,1.01l-.2.09c.06.06.1.12.09.15-.25.59-.62,1.2-1.01,1.71-1,.78-1.34,1.56-1.37,2.8l-.13.06c-.04.32-.88,1.94-1.1,2.2.17.27.05.39-.22.22-1.44,1.36-2.56,2.89-3.36,4.58.11.49.1.91-.05,1.25-.05.37-.74,1.13-.88,1.54h-.3c-1.15-1.88-2.1-1.99-2.87-.33-2.3,1.93-2.6,3.73.78,4.27l.09.24-1.1,2.64c.06.29-.08.41-.33.22l-.32.34c-1.2.25-1.96.97-1.58,2.28-.03.15-.1.27-.19.36,0,.14,0,.27-.1.39-.76.55-1.39,1.72-2.1,2.25.12.32-.46.59-.66.33-.4.2-.88.32-1.29.53-.88.46-1.71,1.07-2.67,1.34-.23-.04-.47-.13-.74-.28-1.25-.19-5.58,2.1-5.25,3.82l-.17.2c-1.08.78-2.07,1.78-3.3,2.31-.16-.18-.28-.44-.37-.78-.94-1.28-6.26-1.37-6.98.07-.76,1.51,1.91,4.51,3.44,4.74l.06.26c.16-.25.26-.18.22.11-.67,1.81-1.83,2.67-3.69,3.08l-.16-2.09c-.04-.13-.04-.28,0-.44l-.22-.11c0-.77-.16-1.59-.33-2.31l-.15.1c.27,2.2.17,4.42-.18,6.62.04.09.07.17.09.26.15.81-2.1,5.48-2.8,5.9-.08.05-.16.08-.25.11l-.22.15c-.82-.36-1.27-.32-2.04.08-1.56.83-2.71,2.08-.47,2.95l.09.23c-.99.88-1.47,3.27-2.07,4.59-.29.64-.7,1.26-1.01,1.9-.32-.16-.65-.36-.97-.58-2.39-1.07-2.83.71-1.55,2.38.5.07.79.24.87.51l-.2.05c.47-.05.65.05.53.28-.12.25-.21.52-.33.77-.24.19-.39.47-.44.77-.03.11-.07.22-.11.33-.16.13-.27.31-.33.55,0,.04,0,.07,0,.11-.12.11-.2.26-.22.44-.13.91-.31,1.83-.44,2.75,0,.2-.03.38-.11.55-.19,1.08-.69,1.69-1.04,2.64-2.08,5.54-3.48,12.33-3.69,18.26-.11.73-.11,1.47,0,2.2.03.54.11.91.22,1.43.36.93.83,1.82,1.41,2.68l-.04.13c-1.2-.06-2.38-.08-3.56-.05-.26.28-.77.13-.88-.22.02-.45-.33-1.37-.44-1.87-.04-.39-.2-.79-.44-1.1-.15-.66.14-1.9.44-2.53.1-.22.14-.44.11-.66.04-.26.07-.51.11-.77.08-.16.12-.35.11-.55,0-.33.08-.51.11-.77.14-.17.16-.34.11-.55.1-.73.23-1.47.33-2.2.1-.09.13-.27.11-.55,0-.11,0-.22,0-.33.08-.13.12-.31.11-.55,0-.07,0-.15,0-.22.09-.12.13-.34.11-.66,0-.11,0-.22,0-.33.13.09.16-.13.11-.66,0-.07,0-.15,0-.22.17-.27.16-.58.11-.88,0-.15-.01-.29,0-.44.08-.25.12-.54.11-.88,0-.15,0-.29,0-.44.16-.46.17-.95.11-1.43,0-.26,0-.51,0-.77.09-.13.15-.06.18.2-.12-1.26-.1-2.56-.07-3.83.01-.59.13-.29.02-.26-.03.01-.08-.03-.13-.08,0-.18,0-.37,0-.55.05-.3.06-.61-.11-.88,0-.07,0-.15,0-.22,0-.26-.03-.48-.11-.66,0-.07,0-.15,0-.22.02-.25-.02-.47-.11-.66-.07-.48-.16-.94-.22-1.43-.03-.34-.03-.67,0-.99,0-.07-.01-.16,0-.22.11,0,.26-.22.43-.67l1.66-2.75c.01-.3.18-.61.33-.88.26-.72.56-1.46.77-2.2l.23.09.19,1.4c1.36.15,2.44-.38,1.45-1.85-.45-.67-.67-.92-1.44-.85-.14.13-.13.08-.11-.11.01-.07,0-.15,0-.22.18-.27.22-.6.11-.99.01-.15-.01-.29,0-.44l.12-.04c-.02.24-.02,0,0-.73,0-.07,0-.15,0-.22.15-.35.17-.73.11-1.1,0-.11,0-.22,0-.33.1-.22.13-.52.11-.88,0-.07,0-.15,0-.22.09-.32.13-.65.11-.99,0-.15,0-.29,0-.44.08-.21.12-.46.11-.77,0-.04,0-.07,0-.11-.03-.1.01-.14.11-.11-.03-.25.09-.48.36-.7-.33-.09-.56-.26-.69-.51-.26-.88-.69-1.68-.99-2.53.03-.28.03-.57-.01-.85l.23-.14c-.15-.52-.09-1.09.17-1.69.92-1.4-.13-3.62-1.41-4.43l-.08-.26c-.15.23-.21.22-.41.03-.05-.05-.14-1.23-.15-1.43,0-.19-.04-1.1-.03-1.16.01-.04.07-.06.14-.08l.09-.12c.47.18.97.31,1.48.4.45-.82.96-1.77,1.18-2.68.37-1.55-.8-3.69-2.3-2.13l-.24-.09c-.2.18-.27.07-.22-.33.1-.44.15-.88.28-1.32.16-.57.47-1.17.6-1.71.1-.38-.28.1-.32.15-.17.21-.32.44-.45.68-.97,1.33-1.74,3.03-2.39,4.6-.83,1.99-1.47,4.06-1.97,6.16-.08.21-.2.4-.36.57-.37,1.52-.97,4.07-1.21,6.05.17.81-.36,2.1-.99,2.64-.48.46-.3-.25-.13-.61l.02-.27c1.84-5.47,1.73-11.52,4.07-16.94.09-.04.14-.09.16-.15l.72-1.72c2.03-3.51,4.87-6.36,8.14-8.69.04-.01.08.01.11,0,.92-.45,1.8-.92,2.64-1.43.04,0,.08.01.11,0,.4-.07.78-.31,1.1-.55.03,0,.07,0,.11,0,.54-.26,1.36-.6,1.87-.22l.25.04c.56,1.16,2.35,2.2,3.62,1.81,1.11-.34.7-1.21.12-1.9l.07-.28c0-.07,0-.12.02-.12.61-.14,1.23-.25,1.85-.32,1.12.01,1.24,1.37,1,2.28-.13,1.22,2.72,3.28,3.69,3.16.53-.07,2.48-1.47,2.78-1.93.84-1.29-1.57-2.5-2.49-2.9-.29-.22-.21-.53.13-.62,1.52-.03,2.71-.53,3.56-1.51l.36-.23c-.11-.27,0-.31.22-.11.26-.41,1.24-.75,1.65-.44l.14.05c-.04.48-.03.97.01,1.47.18.37,4.98.59,5.38-.38.57-1.1.78-2.35.61-3.74l.23-.25c.12-.45.99-.89,1.43-.77.31.04.59.25.85.62,1.65,1.63,4.88-1.28,5.99-2.53.97-1.09.67-1.97-.45-2.78v-.27s-.03-.29-.03-.29l1.72-1.71.28.02c.09-.06.18-.06.27,0,.46,1.4,1.21,1.75,2.26,1.06,1.03-.6,2.07-1.14,3.1-1.62.04-1.52.34-2.99.91-4.41.23-.6.2-.96-.12-1.09l-1.41-.16-.07-.27-.04-.32,1.28-1.91.31-.08.28-.11c1.09.57,2.27,1.08,2.63-.56.34-1.34.84-2.61,1.51-3.82.35-.75.61-1.71-.53-1.77l-.15-.23c.15-.93.61-1.79,1.32-2.42.4-.26.88-.43,1.44-.5,1.79-.54,2.76-.96,1.9-2.97-.33-.66-.49-1.3-.48-1.91,0-.13.02-.26.04-.38.13-.64,1.73-3.68,2.18-4.11.09-.09.2-.16.31-.24l.26-.06c.66.81,1.41,1.15,2.27,1.01l.22.16Z"/>
  <path class="cls-27" d="M561.6,414.81c.01.31-.06.59-.26.83-3.01,4.07-5.91,8.29-8.31,12.84l-5.46,10c-5.17,9.93-13.04,18.37-23.8,21.81-2.67,1.23-5.61,1.97-8.48,2.67-2.42.59-4.97,1.16-7.43,1.55-.25.04-.42-.02-.38-.3,2.57-1.22,5.61-1.53,8.38-2.23,7.63-1.93,14.04-4.68,19.89-10.03,7.27-6.65,10.69-14.79,15.49-23.13,2.87-4.99,5.96-9.75,9.59-14.23.24-.26.69-.12.77.22Z"/>
  <path class="cls-86" d="M553.24,478.84c.51.04,1.03.06,1.54,0,.97-.01,2.15.51,3.08.77.11.32.07.75,0,1.1-.09,1.77-.66,3.76-1.32,5.39-.81.02-1.77-.26-2.46-.68-1.76-1.08-3.84-5.97-.84-6.58Z"/>
  <path class="cls-104" d="M561.49,408.53c1.33.82,2.62,1.76,3.74,2.86.04,0,.08.01.11,0,.15.69.82,1.28.97,1.96.06.27.05.34-.2.46.02.08.03.21-.02.23-1.24.4-2.76.72-4.05.76-.05.31-.35.3-.44,0-.27-.05-.51-.14-.77-.22-.32-.09-.49-.21-.77-.33-.11-.13-.25-.2-.44-.22-.04,0-.08,0-.11,0-1.9-.91-3.17-2.52-4.12-4.38l-.17-.13c-.38-.8-.67-1.67-.88-2.53-.1-.19.04-.31.22-.22,2.37.39,4.75.7,6.93,1.76Z"/>
  <path class="cls-27" d="M560.06,451.77c-.56,1.9-1.17,3.76-1.87,5.61-2.1-.45-3.28-1.34-3.88-3.44-.44-1.52-.73-3.14.87-4.02s3.28.4,4.56,1.45c.14.12.33.15.31.4Z"/>
  <path class="cls-27" d="M562.7,441.76c-.59,2.2-1.17,4.42-1.76,6.6-1.13-.2-2.49-.36-3.36-1.21-.55-.54-1.41-2.37-1.24-3.12.24-1.08,3.37-2.43,4.39-2.65.56-.12,1.73-.36,1.96.37Z"/>
  <path class="cls-86" d="M555.55,469.27c.64,2.26,1.66,4.91,2.09,7.15-2.65,1.15-4.27.71-5.33-1.98-1.37-3.48.2-4.18,3.24-5.17Z"/>
  <path class="cls-27" d="M565.23,432.08c-.7,2.48-1.32,4.99-1.98,7.48-1.06-.26-1.89-.84-2.51-1.72-.57-.81-1.76-3.2-1-4.04.48-.53,2.87-1.87,3.59-2.13,1.13-.41.98-.22,1.9.41Z"/>
  <path class="cls-27" d="M567.32,425.26c-.53,1.64-1.06,3.3-1.54,4.95-1.79.39-3.78-2.82-3.48-4.19.09-.4,1.04-1.34,1.45-1.42.87-.16,2.74.31,3.57.65Z"/>
  <path class="cls-129" d="M495.93,475.32c-1.59,2.89-2.89,6.91-3.69,10.12-1.5,6.05-1.54,10.2-5.77,15.18.13.32-.16.5-.44.33-.36.06-.57-.3-.88-.33.36-.48.87-.82,1.32-1.21.93-1.24,1.71-2.57,2.33-3.99l.2-.08c.38-.87.75-1.72.99-2.64.29-2.02.71-4.07,1.21-6.05.95-4.05,2.19-7.72,4.45-11.24.07-.12.11-.41.28-.1Z"/>
  <path class="cls-104" d="M581.95,408.75c.21-.03.43-.15.66-.11-.95,2.53-2.68,4.95-5.17,6.16-.43-.53-.33-.62-.55-.99.06-.26.26-.47.59-.63.92-1.14,1.91-2.15,2.98-3.02-1.63.23-3.19.85-4.53,1.81l-.47.08c-.32-.34-.83-.6-.99-1.1.29-.09.55-.24.77-.44.03,0,.07,0,.11,0,.19-.03.33-.11.44-.22.04,0,.07,0,.11,0,.19-.02.33-.1.44-.22.53-.24,1.4-.69,1.98-.66l.33-.11s.07,0,.11,0l.33-.11c.52-.1.9-.16,1.43-.22.44.04.62,0,.55-.11.07,0,.15,0,.22,0,.32.03.54,0,.66-.11Z"/>
  <path class="cls-16" d="M562.04,414.81c.76-.17,1.35-.06,1.76.33l-.07.35c-.79.81-1.49,1.69-2.12,2.63l-.35.1-.06.33c-.97,1.43-1.92,2.87-2.85,4.33l-.49.4c-.9,1.54-1.68,3.17-2.53,4.73-.52,1.53-1.34,3.29-2.22,4.67-.17.27-.39.51-.64.72-.44.8-.88,1.62-1.32,2.42,0,.11,0,.22-.01.32s-.03.21-.08.29c-.99,1.84-2.05,3.73-3.16,5.5-.05.08-.13.14-.21.21s-.18.12-.27.17c-.43.7-1.06,1.64-1.54,2.31l-.04.43c-1.46,2.01-2.92,4.03-4.51,5.93l-.4.13c-.49.57-1.41,1.44-1.98,1.98,0,.09-.02.17-.05.25s-.05.15-.11.2c-1.67,1.6-3.79,3.25-5.75,4.46-.06.04-.14.04-.22.05s-.17,0-.26-.01c-.43.27-.97.52-1.43.77-.04.09-.09.17-.15.25s-.12.14-.19.19c-1.02.57-4.84,2.5-5.75,2.39-.1-.01-.19-.04-.29-.07-.21-.28-.29-.66-.23-1.14-.74.02-1.12.51-1.14,1.49l-.28.21c-.07.02-.15.09-.22.11-.51.34-1.09.54-1.75.59l-6.89,1.22c-.21-.07-.41-.09-.59-.05l-1.65.32-.11-.1c-1.23.48-2.64.69-3.96.55-.59.09-1.29.1-1.87.22.27-.28,1.06-.73,1.43-.77.02,0,.16.12.35.08,15.1-2.78,27.04-6.57,35.89-19.9,5.2-7.83,8.88-16.62,14.16-24.34,1.21-1.77,2.63-3.41,3.72-5.25.13.03.31-.02.44,0Z"/>
  <path class="cls-27" d="M557.31,459.69c-.65,1.49-1.47,2.95-2.2,4.4-.95-.9-1.6-3.17-1.65-4.46-.11-2.68,2.77-.58,3.85.06Z"/>
  <path class="cls-86" d="M553.57,492.81c-1.2-.37-3.85-2.11-2.59-3.53.36-.4,2.77-1.64,3.13-1.41.08.05.7,1.41.78,1.64-.52,1.1-1.17,2.06-1.32,3.3Z"/>
  <path class="cls-16" d="M572.71,407.65c-.07.31-1.05.36-1.1,0-.42-.58-1.1-1.19-1.2-1.94-.4-2.82,2.95-2.82,3.26-.95.19,1.13-.42,1.98-.96,2.89Z"/>
  <path class="cls-132" d="M566.55,407.87c-.86-.91-2.19-2.27-1.19-3.56s3.15-.47,3.06,1.19c-.04.71-.35,1.57-.77,2.15-.05.34-.93.53-1.1.22Z"/>
  <path class="cls-86" d="M553.46,494.57c0,.26,0,.51,0,.77l-.11.55c-.02.4.02.81,0,1.21-.1.25-.09.52,0,.77,0,.15-.1.39-.11.66-1.06-.07-2.71-1.49-2.64-2.58.07-1.21,1.87-2.3,2.86-1.38Z"/>
  <path class="cls-27" d="M569.08,424.38c-.42-.03-1.05.23-1.43.22-1.32-.04-3.45-1.57-3.77-2.88-.16-.63-.25-2.06.31-2.51.34,1.5,1.15,2.77,2.39,3.66.8.57,1.82.85,2.5,1.51Z"/>
  <path class="cls-86" d="M552.91,504.47c.09.19.09.56,0,.77.1.11.08.42,0,.55.09.36.09.73,0,1.1,0,.37-.01.74,0,1.1-1.32.21-2.91-.96-2.43-2.37.39-1.14,1.35-1.23,2.43-1.15Z"/>
  <path class="cls-86" d="M553.13,500.07c.09.29.09.59,0,.88,0,.4,0,.81,0,1.21l-.11,1.21c-.07.02-.89-.1-1.02-.14-.51-.15-1.32-1.12-1.3-1.68.03-.8,1.67-1.75,2.43-1.49Z"/>
  <path class="cls-112" d="M568.64,407.98c-.03.45-.07.89-.11,1.32-.38.12-2.22,1.03-2.53,1.32.18-.71-.26-1.97-.11-2.57.04-.19.52-.16.66-.18.28-.05.94-.21,1.1-.22.07,0,.6.21.81.13.1.03.16.1.18.2Z"/>
  <path class="cls-4" d="M587.01,427.57c.02.06.21.12.06.33-.32.47-3.14,1.17-3.8,1.21-.24.1-.53.1-.77,0-.33-.02-.44-.01-.77-.11-.53-.32-1.07-.69-1.43-1.21,0-.04,0-.07,0-.11-.02-.18-.09-.33-.22-.44-.06-.17-.07-.28-.11-.44-.03-.15-.03-.3,0-.44.11-.09.16-.11.28-.01.26.22.54.8.82,1.06,1.65,1.59,4.05.83,5.95.16Z"/>
  <path class="cls-112" d="M571.61,407.65c.36.02.85-.02,1.1,0,.27.02.57.19.88.11l-.33,2.09c-.45-.3-2.07-.62-2.64-.66v-1.54c.33.01.66-.02.99,0Z"/>
  <path class="cls-33" d="M501.98,466.96c.22.31.06.16-.1.28-3.9,2.87-5.33,4.52-8.04,8.41,1.31-2.4,2.95-4.57,5.01-6.38.47-.42,2.69-2.18,3.13-2.31Z"/>
  <path class="cls-72" d="M488.89,494.46c.29.31-.46.89.11.88-.67,1.55-1.25,2.98-2.53,4.07.87-1.6,1.84-3.21,2.42-4.95Z"/>
  <path class="cls-85" d="M578.87,417.01c-.68-.84-.78-.49-.99-1.76,1.4-.48,1.7.79.99,1.76Z"/>
  <path class="cls-7" d="M586.35,425.7c-.73-.48-1.56-1.94-.77-2.64.7.89.56,1.68.77,2.64Z"/>
  <path class="cls-40" d="M555.22,409.52c.3-.21.17-.08.27.11,1.09,1.93,1.7,3.01,3.73,4.09.15.08.35.04.29.31-1.75-.39-3.56-2.97-4.29-4.51Z"/>
  <path class="cls-29" d="M482.95,501.39c.06.27-.15.22-.29.31-1.62,1-2.85,1.83-3.93,3.44-.04.05-.22.45-.29.21,1.09-1.79,2.64-3.05,4.51-3.96Z"/>
  <path class="cls-96" d="M565.23,411.39l-3.74-2.86c1.43.69,2.75,1.61,3.74,2.86Z"/>
  <path class="cls-33" d="M502.09,466.96c.7-.39,1.9-1.24,2.64-1.43.02.3-.17.27-.35.36-.76.39-1.6.75-2.29,1.07Z"/>
  <path class="cls-10" d="M493.84,475.65c-.08.12-.5,1.64-.76,1.94l-.12-.07c.3-.7.5-1.17.88-1.87Z"/>
  <path class="cls-11" d="M580.3,427.79l1.43,1.21c-.46-.14-1.34-.72-1.43-1.21Z"/>
  <path class="cls-82" d="M505.94,464.98c.08.22-.72.57-.89.62s-.2-.07-.21-.07c.3-.24.72-.46,1.1-.55Z"/>
  <path class="cls-33" d="M575.24,410.51c.05.32-.51.41-.77.44v-.11c.12,0,.56-.28.77-.33Z"/>
  <path class="cls-36" d="M568.64,409.3s-.08-.01-.11,0c.05-.42-.13-.99.11-1.32.08.34-.06.94,0,1.32Z"/>
  <path class="cls-134" d="M557.86,480.71c.02-.35-.05-.77,0-1.1,0-.05.06-.1.11-.11.02.36.08.94-.11,1.21Z"/>
  <path class="cls-123" d="M553.02,503.37c.01-.38-.1-.92.11-1.21,0,.26.08,1.15-.11,1.21Z"/>
  <path class="cls-18" d="M581.95,408.75c.07.46-.43.13-.66.11.19-.19.45-.08.66-.11Z"/>
  <path class="cls-63" d="M553.9,514.16v-1.21s.09-.01.11.16c.04.46-.05.67-.11,1.05Z"/>
  <path class="cls-21" d="M552.91,506.9c0-.37,0-.73,0-1.1.03-.1.07-.09.11,0,0,.35.09.85-.11,1.1Z"/>
  <path class="cls-102" d="M581.07,408.86l.11.22-.66-.11c.14-.02.25-.11.55-.11Z"/>
  <path class="cls-59" d="M559.62,414.03s.5-.22.44.22c-.14-.06-.35-.02-.44-.22Z"/>
  <path class="cls-11" d="M580.08,427.24c.44-.06.21.41.22.44-.18-.1-.17-.28-.22-.44Z"/>
  <path class="cls-33" d="M576.34,410.07c.06.44-.39.21-.44.22.09-.2.3-.16.44-.22Z"/>
  <path class="cls-95" d="M553.13,500.95c0-.29,0-.59,0-.88.03-.1.07-.09.11,0,0,.28.09.7-.11.88Z"/>
  <path class="cls-108" d="M553.35,497.87c-.18-.14-.18-.63,0-.77-.01.26.01.51,0,.77Z"/>
  <path class="cls-76" d="M553.02,505.24c-.03.1-.07.09-.11,0v-.77h.11c0,.26,0,.51,0,.77Z"/>
  <path class="cls-131" d="M583.27,429.11c-.14.18-.63.18-.77,0,.24.01.53.02.77,0Z"/>
  <path class="cls-3" d="M553.24,500.07h-.11c0-.26,0-.51,0-.77.03-.1.07-.09.11,0,0,.26,0,.51,0,.77Z"/>
  <path class="cls-33" d="M575.79,410.29c.07.43-.36.2-.44.22.1-.16.26-.2.44-.22Z"/>
  <path class="cls-11" d="M579.97,426.8c-.02-.07-.15-.13-.11-.33.02-.08.07-.08.11-.11.11.15.11.3,0,.44Z"/>
  <path class="cls-81" d="M554.56,406.77l-.22.22c-.01-.06-.18-.15-.11-.33.17-.07.28.1.33.11Z"/>
  <path class="cls-47" d="M553.46,493.91c0-.21-.08-.54.11-.66,0,.21.08.54-.11.66Z"/>
  <path class="cls-102" d="M579.09,409.19c.05.45-.23.12-.33.11.06-.15.22-.09.33-.11Z"/>
  <path class="cls-91" d="M553.24,499.3h-.11c0-.21-.08-.54.11-.66,0,.22,0,.44,0,.66Z"/>
  <path class="cls-80" d="M557.86,478.4c-.18-.09-.1-.37-.11-.55.02.13.09.31.11.55Z"/>
  <path class="cls-102" d="M578.65,409.3c.05.44-.21.12-.33.11.09-.09.2-.12.33-.11Z"/>
  <path class="cls-92" d="M553.46,519.11c-.18-.09-.1-.37-.11-.55,0,.03.09.34.11.55Z"/>
  <path class="cls-67" d="M553.02,505.8h-.11v-.55h.11c0,.18,0,.37,0,.55Z"/>
  <path class="cls-29" d="M478.33,505.58l.11.05c-.11.17-.08.34-.33.28.07-.15.16-.23.22-.33Z"/>
  <path class="cls-35" d="M553.35,495.89c0-.18-.07-.46.11-.55,0,.24-.11.52-.11.55Z"/>
  <path class="cls-88" d="M521.23,492.92c-.22,0-.44-.02-.65.01-.7,2.9-1.77,5.74-3.07,8.43-1.83,3.78-5.36,8.6-5.41,12.8l-.11.66c-.02,1.22-.05,2.53,0,3.74l.11.55c.24,4.73,1.08,9.83,2.1,14.45.43,1.93.81,3.59,1.97,5.24.44.65.91,1.27,1.43,1.87.02.06-.01.15,0,.22-.26.07-.48.14-.66.22-.43.18-1.13.15-1.59.11-.69-.06-1.44-.19-2.04-.55-.01-.22-.15-.37-.22-.55l.04-.15c-.52-.88-.97-1.79-1.36-2.71v-.85s-.11-.03-.11-.03c0-.18-.01-.37,0-.55.02-.32-.01-.54-.11-.66,0-.07,0-.15,0-.22.02-.28-.02-.46-.11-.55,0-.07,0-.15,0-.22.02-.28-.01-.46-.11-.55-.05-.34-.06-.68-.11-.99.06-.34.05-.55-.11-.66.04-.23,0-.41-.11-.55-.49-3.07-1.45-6.25-1.87-9.24-.01-.38-.12-.71-.33-.99-.15-.47-.29-.96-.44-1.43,0-.25,0-.51-.22-.66-.24-.74-.56-1.45-.77-2.2-.06-.35-.2-.72-.44-.99,0-.03,0-.08,0-.11-.25-.71-.54-1.37-.88-1.98-.35-1.54.26-1.82.77-3.08.22-.33.36-.73.44-1.21.14-.83.35-1.69.44-2.53.09-.16.13-.38.11-.66,0-.11,0-.22,0-.33.19-.41.17-.88.11-1.32.03-.36-.02-.74,0-1.1.13-.1.21.43.2.45-.06.11-.2-2.25-.09-2.43,0-.22,0-.44,0-.66.11-.55.15-1.24.11-2.09-.03-.24.1-.61-.11-.77.02-.19.13-.35.32-.48,2.49-1.38,3.74-3.51,4.84-6l.13-.08c2.58.61,5.14,1.08,7.8,1.16l.11.23Z"/>
  <path class="cls-98" d="M542.68,488.74c.08.18.15.33.22.44.36.06.58.6.33.88l.28.15c.34,1.23.76,2.42,1.27,3.58l-.12.22c.27,1.08.61,2.13,1.04,3.16l-.16.25.34.56c.16.89.3,1.77.43,2.63-.11.3-.06.45-.11.66-.51,2.08-.96,4.69-.99,6.82l-.11.55c-.02.3,0,.49,0,.77-.09.58-.1,1.18,0,1.76,0,.29,0,.59,0,.88.1.5.1,1.04,0,1.54-.24,1.7-.98,2.31-1.38,3.74-.32,1.14-.36,2.36-.49,3.52,0,.19-.03.38-.11.55-.06.62-.07,1.15-.11,1.76l-.11.55c-.02.47,0,.96,0,1.43-.04.27-.08.52-.11.77.1.29.09.59,0,.88,0,.88,0,1.76,0,2.64l-.11,2.42c0,.66,0,1.32,0,1.98-.04.41-.08.81-.11,1.21.09.28.08.6,0,.88l-.07.51-1.8,1.99c-.28.45-.58.84-.89,1.19-.15-.22-.26-.38-.32-.5-.99-.93-.29-4.27-.22-5.56.1-1.77.15-3.56.22-5.34l.11-1.76c0-1.3.06-2.56.11-3.85l.11-1.76c0-2.54-.59-3.89-.88-6.16.05-.51.06-1.03,0-1.54.09-1.01.28-1.78.44-2.75.08-.06.12-.21.11-.44-.06-2.03.1-4.4.11-6.49.1-3.04.1-6.12,0-9.24-.03-1.76-.07-3.52-.11-5.28-.04-.08-.09-.2-.04-.24.26-.2,2.28-1.62,2.42-1.62.1,0,.18.02.26.09.32.41.45,1.02.55,1.54Z"/>
  <path class="cls-27" d="M514.19,484.34c-.09.88-.06,1.76,0,2.64-.04.58-.79,4.01-.65,4.17,1.39.22,2.76.65,4.15.86,7.42,1.1,14.98-.95,21.48-4.42.84-.45,1.85-.95,2.53-1.6.35.24.47.79.44,1.21l-2.64,1.76c0,.08-.02.12-.11.11-2.99,1.74-9.32,3.51-12.76,3.63l-.66.11c-.33,0-.66,0-.99,0l-.99.11c-.91,0-1.84-.03-2.75,0l-4.22-.34-3.63-.85c-.17.05-.76,1.6-.94,1.93-1.3,2.45-2.3,2.94-4.42,4.44-.06.05-.16.07-.22.11-.19-.24-.11-.54.23-.88.75-.7,1.42-1.48,1.98-2.34l.32-.08c1.3-1.91,2.43-4.01,2.97-6.27.07-.78.18-1.55.33-2.31l.11-.88c-.08-.4-.09-.81,0-1.21l-.11-.99c-.09-.18-.1-.37,0-.55l-.11-.66c-.09-.14-.04-.19.11-.11.41.52.51,1.75.55,2.42Z"/>
  <path class="cls-77" d="M542.68,536.49c.14,1.78.56,3.12,1.65,4.62-.18.07-.37.08-.55.11-.97.07-1.9.02-2.86-.11-.32-.08-.51-.23-.77-.33l-.33-.44s0-.07,0-.11c.05-.19,0-.28-.11-.44-.17-.15-.21-.44-.22-.66.02.01.16-.04.2.02.07.1-.08.35.13.31.53-1.4,2.01-2.27,2.75-3.52.07.16.11.34.11.55Z"/>
  <path class="cls-110" d="M539.6,503.48c-.03-3.11-.07-6.16-.11-9.13,0-.04,0-.07,0-.11.03-.1.07-.09.11,0,.05,2.88.2,5.83.11,8.75,0,.14.07.49-.11.49Z"/>
  <path class="cls-9" d="M539.6,503.48c-.19-.04-.11-.34-.11-.49-.08-2.87,0-5.77,0-8.64.18.11.11.42.11.6.04,2.84,0,5.69,0,8.53Z"/>
  <path class="cls-128" d="M539.6,494.24h-.11c0-.95,0-1.91,0-2.86l-.11-2.09v-.22s.07-.08.11-.11c.22,1.73.08,3.53.11,5.28Z"/>
  <path class="cls-43" d="M517.6,540.67l-1.1-1.16-.33-.71c.39.56,1.28,1.31,1.43,1.87Z"/>
  <path class="cls-75" d="M538.94,514.71c-.1-.74-.06-.85,0-1.54.18.4.19,1.16,0,1.54Z"/>
  <path class="cls-125" d="M539.49,491.38c-.2-.62-.11-1.42-.11-2.09.2.62.11,1.42.11,2.09Z"/>
  <path class="cls-53" d="M539.71,522.63c.02-.57-.11-1.26.11-1.76,0,.56.09,1.27-.11,1.76Z"/>
  <path class="cls-12" d="M539.49,528.24c.02-.57-.11-1.26.11-1.76,0,.56.09,1.27-.11,1.76Z"/>
  <path class="cls-43" d="M517.6,540.89v.11c-.08,0-.42.1-.66.11-.13,0-.56.08-.55-.11l1.21-.11Z"/>
  <path class="cls-22" d="M524.97,492.81c-.22.2-.68.11-.99.11.22-.2.68-.11.99-.11Z"/>
  <path class="cls-114" d="M539.82,540.34c.26-.06.26.25.44.39l-.11.05c-.05-.02-.15.01-.22,0,.01-.11-.11-.32-.11-.44Z"/>
  <path class="cls-114" d="M539.71,539.79s.2-.03.22,0c.13.18-.11.42-.11.44l-.11-.44Z"/>
  <path class="cls-17" d="M511.99,514.82c0-.21-.07-.54.11-.66,0,.21.07.54-.11.66Z"/>
  <path class="cls-37" d="M526.62,492.7c-.12.18-.45.11-.66.11.12-.19.45-.1.66-.11Z"/>
  <path class="cls-94" d="M539.49,509.98c0,.24.3.5-.11.44.02-.14-.07-.36.11-.44Z"/>
  <path class="cls-89" d="M512.1,519.11c-.18-.09-.1-.37-.11-.55,0,.03.1.32.11.55Z"/>
  <path class="cls-16" d="M487.13,504.14l-.11.55c-.93,5.59-5.32,4.34-7.53,7.93-.5.81-.94,1.89-.95,2.85-.27-.11-.25-.67-.33-.88-.62-2.39.8-4.78,2.24-6.64l3.26-3.82c.67-1.06,1.41-2.05,2.2-2.97.04-.07.07-.16.11-.22.08-.1.35-.22.44-.33.49,1.05.72,2.36.66,3.52Z"/>
  <path class="cls-27" d="M494.61,541c.16-.06.42-.08.44.11.63.13,1.33.09,1.98,0,.25-.14.6-.16,1.06-.06.02-.18.14-.16.37.06.74.96,1.87,1.74,2.2,3.08h-7.7c-.03-1.02.73-2.49.77-3.41.3.06.58.16.88.22Z"/>
  <path class="cls-86" d="M485.92,501.17c-.64.99-1.07,1.87-1.83,2.85-2.3,2.95-5.65,5.58-5.88,9.64-.02.34.17.66,0,.93-.38-1.03-1.07-2.62-.88-3.74.61-3.65,4.39-6.05,6.93-8.31.52-.46.97-1.19,1.65-1.38Z"/>
  <path class="cls-112" d="M495.82,482.47c-.16.07-.31.04-.44-.11-.03-.47-.12-.89-.11-1.43l.11-.55c.01-.78.08-1.44.22-2.2.15-.33.3-.44.44-.33.81-.67,1.31-1.17,2.2-.16,1.09,1.24.63,2.45.05,3.79-.11.26-.6,1.32-.76,1.44-.31.23-1.34-.28-1.71-.45Z"/>
  <path class="cls-112" d="M498.02,503.92c.76-.79,1.66.65,1.92,1.32.58,1.45-1,1.7-2.13,1.63l-.24-1.74c.09-.33.16-.65.22-.99l.22-.22Z"/>
  <path class="cls-5" d="M496.04,485.66l.26.35c.2,1.53.51,3.05,1.02,4.5l-.07.43c0,.23-.1.31-.33.22-.41-1.41-1.2-4.46-1.32-5.83.17-.64.62-.18.44.33Z"/>
  <path class="cls-13" d="M495.82,482.47l.23,2.64c.07.03.16-.01.21,0,.3.13.09.61-.22.55-.04-.33-.05-.58-.44-.33,0-.11,0-.22,0-.33,0-.34-.04-.67-.11-.99,0-.15,0-.29,0-.44.03-.36,0-.66-.11-.88,0-.11,0-.22,0-.33.09-.28.35.07.44.11Z"/>
  <path class="cls-66" d="M494.94,517.46l.22-.16c-.03,1.49-.01,2.96,0,4.46l-.22-.33c.02-1.32.02-2.65,0-3.96Z"/>
  <path class="cls-19" d="M496.48,508.22c-.56,1.22-1.2,2.13-1.84,3.28-.09.17.09.37-.25.13.08-.49,1.62-2.69,1.98-3.41.03-.08.07-.07.11,0Z"/>
  <path class="cls-58" d="M498.35,495.01l.99.33c.1.13-.52.77-.66.88-.2-.13-.21-.42-.22-.66-.04-.18-.05-.37-.11-.55Z"/>
  <path class="cls-127" d="M497.25,490.94c.19-.02.3.16.33.55-.05.31.12.76-.22.99-.15-.42-.32-.9-.44-1.32.08-.14.15-.26.33-.22Z"/>
  <path class="cls-31" d="M494.83,523.62c0-.51.1-1.05.11-1.43.14.46.22,1.03-.11,1.43Z"/>
  <path class="cls-82" d="M492.85,537.81c.17-.14.51.72.52.85s-.09.24-.08.26c-.21-.32-.36-.73-.44-1.1Z"/>
  <path class="cls-25" d="M498.02,502.6c.16.26.26,1.11-.11.99.04-.29.09-.74.11-.99Z"/>
  <path class="cls-32" d="M498.13,501.17c0-.44.09-.78.11-1.1.17.34.21.85-.11,1.1Z"/>
  <path class="cls-79" d="M496.48,508.22h-.11c.13-.27.17-.66.44-.88-.11.31-.14.47-.33.88Z"/>
  <path class="cls-34" d="M494.39,512.84c-.03-.24-.3-.71,0-.99,0,.25.24.62,0,.99Z"/>
  <path class="cls-69" d="M495.49,483.57c-.21-.24-.08-.59-.11-.88l.22-.11c.09.34-.09.7-.11.99Z"/>
  <path class="cls-51" d="M498.35,498.64c-.01-.3-.08-.78.11-.99,0,.26.32.7-.11.99Z"/>
  <path class="cls-103" d="M494.61,526.26c0-.37.1-.66.11-.88.14.27.23.74-.11.88Z"/>
  <path class="cls-18" d="M498.35,498.86c.02.32.17.65.11.99l-.22-.11c.02-.28-.1-.69.11-.88Z"/>
  <path class="cls-42" d="M494.94,516.91c0-.16-.11-.54-.11-.88.34.14.25.61.11.88Z"/>
  <path class="cls-83" d="M496.04,477.85c-.14.12-.27.25-.44.33.05-.26.18-.48.22-.66l.22.33Z"/>
  <path class="cls-78" d="M498.13,501.39c.01.32.17.65.11.99h-.11s-.11-.22-.11-.22c.02-.24-.09-.62.11-.77Z"/>
  <path class="cls-45" d="M494.83,524.06c.02.34.13.65.11.99l-.22-.11c.02-.28-.1-.69.11-.88Z"/>
  <path class="cls-49" d="M495.6,485c-.18-.26-.12-.67-.11-.99.34.3.09.75.11.99Z"/>
  <path class="cls-57" d="M498.57,496.44c.05.29.13.58.11.88l-.22-.11c0-.24-.07-.63.11-.77Z"/>
  <path class="cls-18" d="M494.5,527.47c.01.23.35.74-.11.66,0-.2-.07-.55.11-.66Z"/>
  <path class="cls-84" d="M494.83,515.81c-.17-.11-.12-.46-.11-.66l.22-.11c.07.27-.1.54-.11.77Z"/>
  <path class="cls-84" d="M493.29,535.28c-.1-.25.09-.5.11-.66.32.42-.04.52-.11.66Z"/>
  <path class="cls-42" d="M494.61,526.48c.01.26.13.5.11.77l-.22-.11c0-.2-.07-.55.11-.66Z"/>
  <path class="cls-70" d="M494.28,529.23c.01.17.36.62-.11.55.02-.17-.08-.45.11-.55Z"/>
  <path class="cls-116" d="M494.72,514.93c-.2-.12-.08-.46-.11-.66.43.15.12.49.11.66Z"/>
  <path class="cls-18" d="M494.39,528.35c.01.2.16.43.11.66l-.22-.11c0-.17-.06-.46.11-.55Z"/>
  <path class="cls-130" d="M498.68,496.22s-.07.08-.11.11c-.04-.2-.21-.47-.11-.77.05.19.12.49.22.66Z"/>
  <path class="cls-102" d="M493.51,533.85c.03-.17-.08-.46.11-.55,0,.12.3.42-.11.55Z"/>
  <path class="cls-84" d="M493.73,532.53c.03-.23.09-.4.11-.55.15.21.16.46-.11.55Z"/>
  <path class="cls-109" d="M495.27,480.93c0-.18-.07-.46.11-.55,0,.18.07.46-.11.55Z"/>
  <path class="cls-25" d="M498.02,503.92s.08.3-.22.22c.03-.15.1-.3.11-.33l.11.11Z"/>
  <path class="cls-71" d="M487.02,504.69c0-.18-.07-.46.11-.55-.02.28-.08.37-.11.55Z"/>
  <path class="cls-112" d="M504.62,504.8c-.37.77-.73,1.55-1.1,2.31-.14.16-.32.16-.55,0-.31-.19-.7-.14-1.03-.34-.56-.35-.95-2.12-.61-2.67.53-.84,2.97-.22,3.29.7Z"/>
  <path class="cls-112" d="M510.34,494.9c-.3.44-.54.85-.88,1.26-.54.65-1.39,1.17-1.65,2.04-.03.03-.07.07-.11.11-.86-.05-1.71-.92-1.54-1.81.1-.49,1.92-1.72,2.44-1.85.69-.17,1.11.03,1.74.25Z"/>
  <path class="cls-106" d="M498.46,541.11h-1.43c-.65.09-1.35.12-1.98,0-.03,0-.31-.08-.44-.11.11-.18.42-.11.6-.11.95-.01,2-.08,2.92.11-.29-.87-1.2-1.72-1.4-2.6-.02-.07.08-.14.08-.15.51.88,1.04,2.06,1.65,2.86Z"/>
  <path class="cls-43" d="M511.77,537.26c.24.35.19.37.38.77.3.62.72,1.17,1.02,1.84.09.19.28.28-.09.25-.4-1.05-1.09-1.73-1.32-2.86Z"/>
  <path class="cls-44" d="M508.14,498.86c.06.6.14,1.07.11,1.71,0,.21.11.44-.22.38-.01-.66-.08-1.47.11-2.09Z"/>
  <path class="cls-23" d="M506.05,513.83c.28-.06.22.14.3.3.27.59.43,1.14.58,1.68-.32-.62-.73-1.3-.88-1.98Z"/>
  <path class="cls-121" d="M508.03,501.61c.02.84.19,1.68.11,2.53-.09.02-.22-.52-.22-.55-.06-.56-.05-1.44.11-1.98Z"/>
  <path class="cls-28" d="M507.81,506.02c-.01-.48.08-.91.11-1.32.17.31.25,1.13-.11,1.32Z"/>
  <path class="cls-61" d="M496.59,536.82c-.18-.64-.18-1.57,0-2.2-.02.7-.03,1.5,0,2.2Z"/>
  <path class="cls-115" d="M506.93,515.92c.24-.09.48.65.52.84.02.07-.09.14-.08.15-.23-.25-.35-.67-.44-.99Z"/>
  <path class="cls-24" d="M508.8,521.2c.21-.14.41.58.42.75s-.09.23-.09.24c-.23-.27-.23-.67-.33-.99Z"/>
  <path class="cls-90" d="M507.26,509.54c-.04.24-.03.57-.13.91-.06.18-.05.36-.31.3.15-.38.18-.87.44-1.21Z"/>
  <path class="cls-6" d="M511.77,537.26c-.07-.35-.12-.47-.11-.88l.11-.22h.11c.12.26-.16,1.02-.11,1.1Z"/>
  <path class="cls-100" d="M502.97,508.22c-.12.26-.24.56-.44.77,0,0-.1-.08-.08-.15.07-.24.22-.63.52-.62Z"/>
  <path class="cls-100" d="M502.97,507.12c.18,0,.37,0,.55,0-.07.14-.18.25-.22.33-.13-.3-.37-.23-.66-.22v-.11c.11,0,.22,0,.33,0Z"/>
  <path class="cls-26" d="M511.11,531.98s.2-.06.23.06c.04.17.01.46-.12.6-.03-.18-.08-.44-.11-.66Z"/>
  <path class="cls-26" d="M511.55,535.17c.48-.08.12.47.11.66-.17-.11-.12-.46-.11-.66Z"/>
  <path class="cls-44" d="M507.81,506.35c.01.23.18.5.11.77l-.22-.11c.02-.21-.09-.54.11-.66Z"/>
  <path class="cls-48" d="M508.14,519.11c.32-.09.34.47.22.66-.07-.22-.15-.43-.22-.66Z"/>
  <path class="cls-46" d="M511.33,533.63c.47-.06.13.37.11.55-.19-.1-.09-.38-.11-.55Z"/>
  <path class="cls-93" d="M511.44,534.4c.46-.07.12.34.11.55-.16-.08-.12-.38-.11-.55Z"/>
  <path class="cls-30" d="M511.11,531.98c-.02-.12-.08-.36-.11-.55l.22-.11c.06.14-.13.63-.11.66Z"/>
  <path class="cls-100" d="M502.42,509.32c-.06.19-.18.42-.33.55.03-.13-.05-.61.33-.55Z"/>
  <path class="cls-100" d="M502.09,509.98c-.03.18-.05.33-.22.44,0-.05-.22-.5.22-.44Z"/>
  <path class="cls-1" d="M501.32,513.72c.03-.18.09-.44.11-.55,0,.18.07.46-.11.55Z"/>
  <path class="cls-87" d="M542.68,531.87c0-.78-.09-1.68.11-2.42,0,.78.09,1.68-.11,2.42Z"/>
  <path class="cls-54" d="M548.73,515.15c.31-.21.16-.08.27.11.27.47.35.95.67,1.31l.15.89c-.29-.8-.8-1.53-1.1-2.31Z"/>
  <path class="cls-120" d="M545.1,511.19c-.18-.45-.19-1.29,0-1.76,0,.59,0,1.17,0,1.76Z"/>
  <path class="cls-55" d="M545.1,513.61v-1.54c.17.25.15.85.12,1.17-.02.2-.11.32-.12.37Z"/>
  <path class="cls-50" d="M542.68,536.49c0-.11-.1-.29-.11-.55-.01-.29,0-.59,0-.88.03-.1.07-.09.11,0v1.43Z"/>
  <path class="cls-122" d="M542.68,535.06h-.11c0-.38-.09-.92.11-1.21,0,.4,0,.81,0,1.21Z"/>
  <path class="cls-56" d="M542.79,526.81c0-.29,0-.59,0-.88.03-.1.07-.09.11,0,0,.28.09.7-.11.88Z"/>
  <path class="cls-38" d="M542.9,525.93h-.11c0-.24-.08-.62.11-.77,0,.26,0,.51,0,.77Z"/>
  <path class="cls-15" d="M542.9,523.73c.01-.24.11-.5.11-.55,0,.18.07.46-.11.55Z"/>
  <path class="cls-119" d="M545.1,508.66c.01-.18-.07-.46.11-.55,0,.18.07.46-.11.55Z"/>
  <path class="cls-39" d="M543.12,521.42c.02-.23.1-.45.11-.55,0,.18.07.46-.11.55Z"/>
  <path class="cls-97" d="M543.78,541.22c-1.06.19-1.83.16-2.86-.11.46-.22,1.12.12,1.6.12.42,0,.91-.28,1.26,0Z"/>
  <path class="cls-104" d="M544.99,475.32l.23-.08c.61.98,1.18,1.85,2.13,2.54l.16.5c.29-.09.32,0,.11.22-.07,1.5-.28,3.01-.22,4.51.16.17.12.25-.11.22l-.18.35c-1.2.86-1.02,1.98-.48,3.17.22.03.21.14,0,.22-.05,1.02.07,2.2.11,3.25,0,.21-.01.42.11.6l.04.14c-1.51.79-1.15,1.83-.07,2.83l.14.33c.21.06.21.16,0,.22,0,.16-.11.38-.11.6-.02.57.05,1.15,0,1.71l-.29-.04c-.67-.67-1.65-1.72-1.91-2.6-.5-.8-1.09-2.95-1.43-3.96l.2-.19c4.17.33,1.4-5.95-1.37-4.67l-.26-.1-.27-.15c-.43-1.27-.74-2.55-.94-3.87.16-.11.2-.31.11-.6-.15-.49-.27-4.08-.05-4.33.04-.04.09-.06.16-.07.74-.22,1.15-.94,1.95-1.07.5-.08,1.82.03,2.23.3Z"/>
  <path class="cls-27" d="M544.77,456.94c-.04-.11-.02-.36.03-.49.84-1.49,1.68-2.98,2.53-4.47l.75-.87c.07-.05.16-.15.22-.22.83-.02,2.15.1,2.81.66.91.77,1.06,4.19.93,5.34-.12,1.08-.86,1.34-1.79,1.62-.64.19-2.25.54-2.87.52-.99-.05-2.13-1.27-2.6-2.08Z"/>
  <path class="cls-27" d="M550.57,460.49c2.07-.47,2.46,1.84,2.56,3.33s.08,4.85-1.92,5.01c-.64.05-2-.22-2.58-.5-1.33-.62-2.37-2.59-1.81-4.01.27-.69,1.87-2.4,2.47-2.92.26-.22,1-.84,1.29-.91Z"/>
  <path class="cls-27" d="M545.65,470.04c.05.29.08.59,0,.88-.53,1.39-2.98,1.34-4.16,1.02-1.54-.42-2.99-1.93-3.43-3.44-.03-.15-.01-.29.04-.43.62-.7,1.15-1.47,1.6-2.28l.33-.26c.07-.03.17-.17.33-.22,2.07-.69,3.72-1.15,4.51,1.37.3.97.56,2.34.77,3.36Z"/>
  <path class="cls-27" d="M524.06,480.4c.14-.04.27-.03.41-.02.61.02,2.7.31,3.28.47.45.12.61.51.73.92.28.95.35,3.41.23,4.4-.06.46-.93.84-1.37.94-1.43.36-3.03.17-4.39-.37-.45-.18-1.5-.66-1.6-1.16-.14-.71,1.21-3.56,1.7-4.2.13-.17.86-.93,1-.98Z"/>
  <path class="cls-27" d="M533.86,479.42c.72-.08.96,0,1.56.36.88.55,2.96,2.45,2.6,3.57-.2.64-1.97,1.44-2.59,1.7-.67.28-3.55,1.31-4.1,1.14s-1.03-2.76-1.06-3.34c-.13-2.1,1.73-3.23,3.6-3.43Z"/>
  <path class="cls-112" d="M521.67,479.39c0,.06-.09.22-.11.33l-.26.43c-1.26.94-2.5,2.03-3.26,3.41l-.22.11c-.89-.3-2.28-1.18-2.84-1.94-.52-.71-1.37-2.59-.74-3.34,1.1-1.33,5.43-1.2,6.81-.31.51.33.68.7.62,1.3Z"/>
  <path class="cls-27" d="M535.75,471.14c.97.69,3.85,1.46,3.58,2.97-.09.51-1.08,3.25-1.33,3.74-.6,1.18-2.01.49-2.9.04-3.88-1.93-1.08-3.73-.01-6.42.12-.06.63-.31.66-.33Z"/>
  <path class="cls-86" d="M547.41,483.02c.49-.5,1.89-.88,2.58-.76s1.93,2.46,2.03,3.14c.04.28.05.8-.01,1.07-.13.57-1.86,2.45-2.45,2.51-1.1.1-2.14-1.39-2.92-1.99,0-.07,0-.15,0-.22l-.16-.43c.26-.91.44-1.82.56-2.74l.26-.35c.02-.14.01-.12.11-.22Z"/>
  <path class="cls-27" d="M547.63,478.51c-.04-.07-.06-.16-.11-.22l-.23-.5-.09-5.54.21-.56c.33-.45.09-.84,1.04-.77,1.29.1,1.84,1.46,2.09,2.53.21.89.81,3.91.69,4.65-.1.56-.69,1.36-1.26,1.49-.97.22-1.58-.72-2.34-1.08Z"/>
  <path class="cls-27" d="M553.46,441.32c-.09-.09-.14-.19-.13-.31.04-.44.21-.83.39-1.23.12-.26.25-.52.4-.76.1-.33.23-.66.33-.99.5-1.21,1-2.42,1.49-3.62l.27-.23c.07-.02.18-.11.22-.11.03,0,.48.24.55.28.84.59,1.2,2.42,1.32,3.41.06.52.21,2.09.09,2.51-.07.25-.8.8-1.04.94-1.08.6-2.79.68-3.88.13Z"/>
  <path class="cls-27" d="M531.13,473.45c.3.68.56,2.6.55,3.35-.02,1.47-1.2,2-2.49,2.14-1.67.18-3.37-.12-4.11-1.75l-.03-.24,5.85-3.62.23.12Z"/>
  <path class="cls-27" d="M549.61,448.91c-.19-.3-.04-.65.12-.95.65-1.28,1.4-2.54,2.14-3.77.06-.1.16-.17.28-.23-.15-.32.07-.91.44-.99.73.12,1.22,1.09,1.56,1.69.39.68,1.17,2.07.91,2.82-.21.62-1.69,2.01-2.35,2.16-1.04.22-2.28,0-3.09-.72Z"/>
  <path class="cls-88" d="M543.78,458.48v.4c-.71,1.28-1.41,2.54-2.09,3.78-.07-.01-.15.01-.22,0-1.2-.21-3.03-.65-2.85-2.24.1-.84,1.22-1.71,1.75-2.32.47-.54.7-1.48,1.59-1.37.64.08,1.38,1.32,1.82,1.76Z"/>
  <path class="cls-86" d="M546.97,494.35c0-.07,0-.15,0-.22-.32-.45-.32-1.1,0-1.54.05-.58.09-1.17.11-1.76.05-.02.13-.15.3-.19.82-.21,1.19-.21,1.94.21,1.61.9,1.87,2.49.83,3.97-1.18,1.68-2.08.51-3.17-.48Z"/>
  <path class="cls-88" d="M562.48,418.33c.12.1.03.46-.11.55-.3,1.84-.7,3.78-1.65,5.39-.03.02-.06.09-.11.11-1.2.46-1.95-.37-2.75-1.1,1.07-1.82,2.14-3.39,3.41-5.06.28-.27,1.08-.27,1.21.11Z"/>
  <path class="cls-27" d="M557.2,432.19c.01-.07-.01-.15,0-.22.55-1.42,1.23-2.9,1.92-4.34.15-.31.38-.57.61-.83.02-.04.09-.07.11-.11.63-.01,1.1.5,1.32,1.04s.58,2.66.38,3.14c-.14.34-1.31.95-1.68,1.07-.73.24-1.93.45-2.67.25Z"/>
  <path class="cls-27" d="M543.78,458.59c.49.64,2.29,2.18,2.32,2.92.03.58-.56,1.03-.86,1.48-1.18-.06-2.39-.15-3.55-.33-.2-.29.13-.72.27-.99.55-1.05,1.23-2.05,1.82-3.08Z"/>
  <path class="cls-88" d="M547.52,478.29c-.31-.43-1.14-1-1.54-1.49-.24-.29-.82-1.36-.99-1.48-.02-.22.04-.41.1-.61.33-.99,1.67-2.14,2.32-3.02l.11,6.6Z"/>
  <path class="cls-112" d="M531.13,473.34s-.01.08,0,.11l-6.05,3.74s-.1-.07-.11-.11c-.39-1.22.84-2.13,1.73-2.73s3.68-2.41,4.43-1.01Z"/>
  <path class="cls-86" d="M575.46,412.05c1.72-1.32,3.66-2.05,5.83-2.2-.32.37-.83.52-1.21.82-1.14.91-1.78,2.51-3.19,3.14-.37-.62-.93-1.23-1.43-1.76Z"/>
  <path class="cls-86" d="M549.03,497.02c1.04-.31,2.45.93,2.21,2.1-.06.31-1.23,1.79-1.47,1.83-.69.12-1.93-3.58-.73-3.93Z"/>
  <path class="cls-126" d="M570.04,414.94c1.4-.36,2.6,1.25,1.73,2.5-.71,1.01-1.89.95-2.58-.05-.54-.79-.07-2.21.85-2.45Z"/>
  <path class="cls-86" d="M540.37,476.31l.17.15c0,1.35.02,2.71.07,4.07l.08-.04.58,2.99c.11.55.38,1.09.52,1.63.62,1.03.98,2.42.99,3.63-.03.1-.07.09-.11,0-.17-.49-.37-1.02-.55-1.54-.14-.41-.3-.82-.44-1.21-1.2-3.3-2.92-6.15-1.32-9.68Z"/>
  <path class="cls-86" d="M548.74,505.57s-.36-.94-.4-1.09c-.24-1.02-.1-1.95.06-2.97.83.21,2.09,1.65,2.08,2.48,0,.49-1.39,1.83-1.74,1.58Z"/>
  <path class="cls-27" d="M518.04,483.79c-.06,0-.15-.09-.22-.11-.03-.22.09-.35.19-.52.84-1.33,2.24-2.58,3.55-3.44-.35,1.73-1.33,4.42-3.52,4.07Z"/>
  <path class="cls-129" d="M546.86,496.66c.35.57.43,1.55.33,2.2l-.24.13c-.61-.38-1.09-.93-1.41-1.56-.3-1.12-1.06-2.18-.88-3.41.53.85,1.67,1.8,2.2,2.64Z"/>
  <path class="cls-4" d="M548.07,451.11l-3.3,5.83h-.11c.11-.72-.57-.76.13-2.01.85-1.53,1.9-2.83,3.28-3.82Z"/>
  <path class="cls-27" d="M562.48,419.1c-.3,1.54-.58,2.75.1,4.28-.4.2-.77.45-1.16.66-.22.12-.56.15-.7.24.55-1.8,1.15-3.58,1.65-5.39.08-.07.12,0,.11.22Z"/>
  <path class="cls-129" d="M566.11,413.81h.22c.2,2.23-1.08,1.07-2.09,1.1,0,.2-.26.38-.44.22-.57-.14-1.18-.23-1.76-.33l4.07-.99Z"/>
  <path class="cls-14" d="M546.97,490.83c.12.52.09,1.2,0,1.76,0,.51.01,1.03,0,1.54-.73-.28-1.63-1.76-1.22-2.48.14-.24.84-.69,1.11-.82.03-.01.08.01.11,0Z"/>
  <path class="cls-112" d="M540.04,465.53c-.39,1.14-1.29,2.01-1.98,2.97h-.11c.04-.89-.49-1.38.38-2.21.57-.54,1.07-.52,1.71-.77Z"/>
  <path class="cls-74" d="M582.47,423.18c.63-.17,2.55,1.67,1.9,2.14-.31.22-1.75-.7-1.99-1-.26-.33-.38-1.02.08-1.14Z"/>
  <path class="cls-88" d="M552.14,443.96c-.73,1.49-1.61,2.92-2.37,4.4-.09.18-.17.35-.16.55-.08-.07-.14-.15-.22-.22.04-.32-.04-.7,0-1.04.17-1.21,1.05-1.55,1.69-2.38.29-.38.53-.88.72-1.31.14-.28.22-.32.33,0Z"/>
  <path class="cls-99" d="M564.24,414.92c.15.17.01.27-.08.41-.77,1.14-1.11,1.34-1.46,2.78-.06.17-.13.25-.22.22l-1.21-.11c.76-1.01,1.55-2.27,2.53-3.08.12-.1.28-.22.44-.22Z"/>
  <path class="cls-86" d="M549.36,507.46c.51-.16,1.07.87,1.12,1.28.03.27-.24,1.29-.48,1.35-.53.12-1.39-2.39-.64-2.63Z"/>
  <path class="cls-88" d="M547.19,498.86c-.09.58-.68,1.21-.88,1.76-.55-.88-.5-2.19-.77-3.19.6.39.98,1.16,1.65,1.43Z"/>
  <path class="cls-65" d="M540.37,476.31c.07-.15.22-.9.44-.66.01.02.01.36,0,.44-.07.6-.22,1.44-.22,2.03,0,.8.14,1.54.11,2.37,0,.14.09.56-.11.55-.24-1.57.04-3.18-.22-4.73Z"/>
  <path class="cls-41" d="M553.46,441.32c-.07-.04-.15-.07-.22-.11,0-.04-.11-.19-.1-.37.03-.48.62-1.49.98-1.83-.24.77-.55,1.52-.66,2.31Z"/>
  <path class="cls-101" d="M552.58,442.86s.01.08,0,.11c-.15.32-.29.68-.44.99h-.33c.18-.41.12-1.15.77-1.1Z"/>
  <path class="cls-133" d="M514.19,484.78c.03.67.05,1.54,0,2.2-.18-.79-.18-1.85,0-2.64,0,.15,0,.29,0,.44Z"/>
  <path class="cls-52" d="M554.78,478.84s-.13.11-.38.12c-.35.01-.9.07-1.16-.12.57-.11.97-.07,1.54,0Z"/>
  <path class="cls-117" d="M546.97,492.59v-1.76s.08.01.11,0c.04.37,0,.78,0,1.16,0,.19.07.49-.11.6Z"/>
  <path class="cls-111" d="M562.48,419.1l-.11-.22c.05-.17.06-.43.11-.55.03-.07.17-.15.22-.22-.07.3-.16.69-.22.99Z"/>
  <path class="cls-20" d="M545.65,470.92v-.88c.09.43.19.37,0,.88Z"/>
  <path class="cls-88" d="M513.07,468.75c.46-.03.74-.04,1.16.2.82.48,1.85,3.2,2.21,4.17.54,1.42.99,1.94-.6,2.8-.51.28-2.16.85-2.69.82-.57-.04-1.49-1.84-1.93-2.36-.19-.22-.49-.54-.71-.72-1.05-.87-3.57-1.34-2.09-3.08.95-1.12,3.24-1.75,4.65-1.84Z"/>
  <path class="cls-88" d="M531.71,469.57c-.33-.33-.19-1.25-.26-1.67s-.34-.85-.4-1.25c-.16-1.07.91-3.98,1.85-4.59.63-.41,3.1-.73,3.73-.44.23.11.52.7.59.95.32,1.32-.49,2.42-.84,3.63-.17.58-.33,2.43-.85,2.67-.58.26-1.13-.2-1.57-.14-.59.08-1.7,1.39-2.25.83Z"/>
  <path class="cls-88" d="M522.88,462.23c-.43,1.08-1.3,1.41-2.33,1.69-.28.07-1.57.24-1.63.3-.21.18.08.19.16.23,1.02.54,3.26,1.57,2.47,3.11-.26.51-2.41,2.01-2.97,2.09-1.09.14-3.72-1.9-3.92-2.98-.11-.62.23-1.19.03-1.8-.06-.19-.66-.82-.83-.87h-.22c.36-.13.81-.23,1.18-.3,2.63-.49,5.47-.87,8.06-1.46Z"/>
  <path class="cls-112" d="M501.84,481.06c.76-.16,1.49.01,2.06.53.3.26,1.69,1.71,1.87,1.99.67,1.02-.19,2.09-.82,2.91-.36.47-1.75,2.06-2.26,2.14-1.55.25-2.31-.84-2.85-2.09-.11-.26-.82-2.04-.83-2.15-.06-.97,1.88-3.13,2.83-3.32Z"/>
  <path class="cls-112" d="M508.89,485.14c1.23-.17,3.91-.11,3.99,1.56.04.75-.29,2.87-.69,3.5-.31.49-2.06,1.91-2.58,2.15-1.16.51-1.94-1.1-2.41-1.96-.19-.36-1.02-2.09-1.04-2.38-.04-.6,1.53-2.48,2.1-2.73.17-.07.44-.12.63-.14Z"/>
  <path class="cls-112" d="M509.99,476c.3-.04.6.02.85.2.67.48,1.38,2.86,1.58,3.7.11.44.5,2.08.45,2.41s-1.15.73-1.49.83c-.54.16-1.86.44-2.34.24-.57-.23-2.54-2.35-2.77-2.95-.26-.7-.12-.95.19-1.55.64-1.25,2.07-2.67,3.51-2.88Z"/>
  <path class="cls-88" d="M526.27,465.67c3.18-.37,4.59,3.47,2.45,5.42-.53.48-2.3,1.62-2.97,1.32-.33-.15-1.58-1.84-1.93-2.25-.79-.93-1.89-1.36-.87-2.74.69-.94,2.18-1.61,3.32-1.74Z"/>
  <path class="cls-112" d="M502.73,473.03c.65-.12,3.95.94,4.1,1.69.16.82-1.39,3.61-2.03,4.13-.79.63-2.73.19-3.5-.35-.54-.38-1.89-2.06-1.64-2.7.3-.78,2.27-2.61,3.08-2.77Z"/>
  <path class="cls-88" d="M545.87,444.62c.37.22,1.63.02,1.88.4.33.51-.57,2.53-.73,3.23-.17.79-.23,1.6-.3,2.4-.95.34-3.83,2.46-4.7,2.06-.52-.24-.75-1.19-1.1-1.6,1.54-1.78,3.54-4.53,4.95-6.49Z"/>
  <path class="cls-88" d="M520.76,470.84c.67,0,3.02,1.95,3.2,2.57s-.78,3.03-1.38,3.2c-.27.08-.46-.03-.7-.14-.56-.27-2.92-1.83-3.23-2.27-.44-.63-.77-1.76-.23-2.42.36-.43,1.8-.95,2.33-.95Z"/>
  <path class="cls-88" d="M532.56,458.04c2.12-1.31,4.58-3.23,6.38-4.95,1.07.65,1.74,1.79.88,2.91-.57.74-3.37,3.02-4.23,3.25-1.52.42-2.15-.1-3.03-1.22Z"/>
  <path class="cls-88" d="M531.13,458.81c-.1,2.09.4,4.66-2.36,4.85-.73.05-3.36.09-3.88-.19s-.15-1.36-.14-1.79c-.1-.02-.09-.06,0-.11,2.2-.6,4.38-1.66,6.38-2.75Z"/>
  <path class="cls-112" d="M505.81,467.21c1.61-.11,1.43.72,1.2,1.97-.42,2.34-1.35,3.34-3.82,2.23-.63-.28-2.17-1.48-1.82-2.25s3.56-1.89,4.43-1.95Z"/>
  <path class="cls-88" d="M547.41,442.31c1.24-2.01,2.58-4.41,3.74-6.49,2.38.09.57,2.57.09,3.67-.37.85-.65,2.45-1.1,3.08-.64.91-1.97.09-2.73-.26Z"/>
  <path class="cls-88" d="M552.47,433.4c.97-1.77,1.9-3.63,2.86-5.39.32.83,1.27,3.05.93,3.85-.32.75-2.97,1.55-3.79,1.54Z"/>
  <path class="cls-88" d="M511.88,464.21c.21,0,.27.08.11.22.43.64,1.27,1.53.28,2.2-1.32.89-3.84-.45-4.35-1.87,1.32-.2,2.63-.39,3.96-.55Z"/>
  <path class="cls-112" d="M504.7,491.4c.81-.17,2.14,1.29,1.99,2.1-.25,1.3-2.21,1.98-3.06.69-.48-.74.26-2.62,1.07-2.79Z"/>
  <path class="cls-112" d="M499.46,490.17c.39.07,2.78.84,2.85,1.06-1.07,4.09-4.44,2.8-2.85-1.06Z"/>
  <path class="cls-112" d="M497.58,491.49c-.27-.1-.25-.35-.33-.55-.61-1.57-1.02-3.6-1.21-5.28l.22-.55c.99.31,1.4,1.29,1.78,2.24.65,1.61.29,1.25-.12,2.67-.13.46-.26,1.01-.34,1.48Z"/>
  <path class="cls-112" d="M503.82,498.44c.28-.06.37-.05.58.14.14.13.83,1.4.85,1.56.05.51-.66,1.75-1.23,1.81-2.4.25-1.86-3.18-.2-3.51Z"/>
  <path class="cls-112" d="M500.36,497.62c-.33-.4.03-1.81.43-1.99.28-.12,1.92.17,2.33.26,1.41.32-1.28,2.29-1.95,2.18-.11-.02-.76-.37-.82-.45Z"/>
  <path class="cls-112" d="M500.31,508.36c.44-.04.77-.17.85.4.16,1.06-1.25,2.18-2.21,2.21-.8.03-.6-1.01-.44-1.55.27-.92.91-.98,1.8-1.06Z"/>
  <path class="cls-112" d="M496.92,474.11l1.23-1.9,1.52-1.84c.25,1.39.58,2.69-.96,3.39-.54.24-1.2.41-1.79.35Z"/>
  <path class="cls-112" d="M499.38,502.35c-.6-.66-.01-2.09.57-2.6.46-.4,1.16.85,1.29,1.24.37,1.17-.82,2.5-1.85,1.36Z"/>
  <path class="cls-88" d="M559.73,426.8c-.6,1.37-1.24,2.75-1.89,4.11-.17.35-.34.82-.64,1.06.2-1.4.51-2.72.66-4.13.1-1,1.02-1.06,1.87-1.05Z"/>
  <path class="cls-27" d="M524.75,461.57s0,.07,0,.11c-.56.08-1.1.3-1.65.44.11-.35.25-1.34.43-1.58.11-.14.97-.33,1.17-.51.08.5.07,1.04.05,1.54Z"/>
  <path class="cls-14" d="M556.21,434.17c-.48,1.28-.95,2.76-1.76,3.85.26-.84.71-3.17,1.33-3.68.15-.12.27-.12.43-.17Z"/>
  <path class="cls-113" d="M491.2,486.65c-.46,1.99-.69,4.07-1.21,6.05-.2-.11-.09-.39-.06-.56.35-1.86.85-3.7,1.15-5.57l.13.07Z"/>
  <path class="cls-64" d="M513.64,481.92c-.05.01-.1.06-.11.11l.11.66c0,.18,0,.37,0,.55l.11.99c0,.4,0,.81,0,1.21l-.11.88c-.02.86-.13,1.48-.33,2.31-.27-.31.05-.81.1-1.17.12-.83.07-1.69.24-2.52l-.23-3.25c.13,0,.16.14.22.22Z"/>
  <path class="cls-105" d="M513.64,463.99c.07,0,.17-.02.22,0l-1.87.44c-.04-.07-.07-.15-.11-.22.56-.07,1.21-.25,1.76-.22Z"/>
  <path class="cls-86" d="M556.43,408.09c1.56-.13,4.72,1.27,6.02,2.18.57.4,2.58,2.22,2.83,2.78.22.49-.38.48-.71.55h-1.65c-3.78-.67-3.89-3.91-6.71-5.39-.19-.12-.12-.15.22-.11Z"/>
  <path class="cls-62" d="M564.57,413.59c-.67.13-.98.12-1.65,0,.43-.19,1.24-.18,1.65,0Z"/>
  <path class="cls-73" d="M556.43,408.09c-.09,0-.19,0-.22.11-.09-.05-.22-.1-.22-.22l.44.11Z"/>
  <path class="cls-112" d="M541.8,485.11c1.74-1.19,3.42.9,3.9,2.42.53,1.67-.82,2.88-2.47,2.53-.1-.29-.24-.59-.33-.88-.12-.07-.16-.31-.11-.44-.38-1.2-.67-2.41-.99-3.63Z"/>
  <path class="cls-118" d="M542.9,489.18c-.1.6-.13-.19-.22-.44h.11c.05.14.06.3.11.44Z"/>
  <path class="cls-104" d="M513.75,484.23c-.2-.22-.11-.68-.11-.99.2.22.11.68.11.99Z"/>
  <path class="cls-104" d="M513.64,486.32c0-.28-.09-.7.11-.88,0,.28.09.7-.11.88Z"/>
  <path class="cls-104" d="M513.64,482.69c-.17-.1-.13-.47-.11-.66.18.12.11.45.11.66Z"/>
  <path class="cls-60" d="M495.05,541.11c.6.06,1.36,0,1.98,0-.61.25-1.39.04-2.04.11l.06-.11Z"/>
  <path class="cls-112" d="M542.82,482.77c-.22-.22-.53-1.29-.62-1.64-.18-.72-.51-2.42-.23-3.05.21-.46,1.01-1.05,1.52-1,.69.07,2.8,1.96,3.12,2.61.58,1.2-.18,2.73-1.36,3.21-.47.19-2.07.24-2.43-.13Z"/>
  <path class="cls-88" d="M547.3,483.24c-.06.39-.05.83-.14,1.24-.17.76-.45,1.5-.52,2.29-1.15-1.11-.7-2.84.66-3.52Z"/>
  <path class="cls-2" d="M569.93,415.37c.27-.09.56.02.69.27-.46,1.14-1.39-.04-.69-.27Z"/>
</svg>