<?xml version="1.0" encoding="UTF-8"?>
<svg id="Lager_1" data-name="Lager 1" xmlns="http://www.w3.org/2000/svg" xmlns:xlink="http://www.w3.org/1999/xlink" viewBox="0 0 1254 1280">
  <defs>
    <style>
      .cls-1 {
        fill: #2f2924;
      }

      .cls-2 {
        fill: #9d9b98;
      }

      .cls-3 {
        fill: #494542;
      }

      .cls-4 {
        fill: #a29e9b;
      }

      .cls-5 {
        fill: #231e1a;
      }

      .cls-6 {
        fill: #f2f1c6;
      }

      .cls-7 {
        fill: #3d3631;
      }

      .cls-8 {
        fill: #8a8685;
      }

      .cls-9 {
        fill: #585552;
      }

      .cls-10 {
        fill: #9e9b98;
      }

      .cls-11 {
        fill: #6c6560;
      }

      .cls-12 {
        fill: #1a1714;
      }

      .cls-13 {
        fill: #4e4741;
      }

      .cls-14 {
        fill: #1a1613;
      }

      .cls-15 {
        fill: #6b6560;
      }

      .cls-16 {
        fill: #a7a4a1;
      }

      .cls-17 {
        fill: #fefed8;
      }

      .cls-18 {
        fill: #989490;
      }

      .cls-19 {
        fill: #1b1714;
      }

      .cls-20 {
        fill: #a7a4a3;
      }

      .cls-21 {
        fill: #2d2723;
      }

      .cls-22 {
        fill: #635d5a;
      }

      .cls-23 {
        fill: #6f6965;
      }

      .cls-24 {
        fill: #3e3731;
      }

      .cls-25 {
        fill: url(#Namnlös_övertoning_3);
      }

      .cls-26 {
        fill: url(#Namnlös_övertoning_8);
      }

      .cls-27 {
        fill: #e8e7c7;
      }

      .cls-28 {
        fill: #5d5854;
      }

      .cls-29 {
        fill: #aca880;
      }

      .cls-30 {
        fill: #6e6967;
      }

      .cls-31 {
        fill: #7a7774;
      }

      .cls-32 {
        fill: #1c1815;
      }

      .cls-33 {
        fill: #66615e;
      }

      .cls-34 {
        fill: #8e8de4;
      }

      .cls-35 {
        fill: #645d57;
      }

      .cls-36 {
        fill: #665f5a;
      }

      .cls-37 {
        fill: #5b5853;
      }

      .cls-38 {
        fill: #f7f5b9;
      }

      .cls-39 {
        fill: #6a635d;
      }

      .cls-40 {
        fill: #7d7874;
      }

      .cls-41 {
        fill: #9b9693;
      }

      .cls-42 {
        fill: #5e5955;
      }

      .cls-43 {
        fill: #6c6660;
      }

      .cls-44 {
        fill: #908b88;
      }

      .cls-45 {
        fill: #57534f;
      }

      .cls-46 {
        fill: #3a332e;
      }

      .cls-47 {
        fill: #706b67;
      }

      .cls-48 {
        fill: #454243;
      }
    </style>
    <linearGradient id="Namnlös_övertoning_3" data-name="Namnlös övertoning 3" x1="703.74" y1="745.38" x2="705.2" y2="1967.38" gradientTransform="translate(525.09 532.91) scale(.07)" gradientUnits="userSpaceOnUse">
      <stop offset="0" stop-color="#5e5955"/>
      <stop offset=".84" stop-color="#56514d"/>
      <stop offset=".93" stop-color="#3a332e"/>
      <stop offset="1" stop-color="#3a332e"/>
    </linearGradient>
    <linearGradient id="Namnlös_övertoning_8" data-name="Namnlös övertoning 8" x1="521.38" y1="1515.71" x2="506.64" y2="1894.42" gradientTransform="translate(525.09 532.91) scale(.07)" gradientUnits="userSpaceOnUse">
      <stop offset="0" stop-color="#322c26"/>
      <stop offset="1" stop-color="#231e1a"/>
    </linearGradient>
  </defs>
  <path class="cls-25" d="M610.95,585.32l-.1.18-2.3.55c-1.31.34-2.03,1.44-2.34,2.71-.54,2.15.39,3.42,1.82,4.88,1.3,1.4,1.09,2.85.29,4.45-.25.5-.79,1.52-1.45,1.36-1.7-.86-3.58-1.33-5.44-1.57-.51-.43-.97-.95-1.36-1.56-.87-1.14-2.34-.74-3.5-.3-3.5,1.34-7.32,3.17-10.31,5.47-3.45,2.65-5.21,6.09-6.49,10.17-.78,3.11-1.68,6.19-2.71,9.22-1.52,3.63-5.46,7.52-8.85,9.5-1.2.7-2.64,1.39-4.03,1.43.69,1.34.79,3.06.77,4.57,0,.54-.06,2.56-.26,2.89-.03.05-.07.1-.11.14.03.05.06.1.08.16.14.43-.39,2.68-.56,3.26-.43,1.44-1.11,2.58-1.94,3.8-.86,1.81-1.86,3.53-3.02,5.15-1.1,1.11-2.19,2.21-3.29,3.3-1.5,1.99-3.08,4.32-4.19,6.57-.51,1.04-.82,2.23.38,2.9,1.67.93,3.5,1.39,5.43,1.21l5.04.47c-.07-1.02,1.13-.95,1.78-.59-.2-.5-.27-.99-.22-1.49.71-.32,1.34-.27,1.96.26-.39-1,.45-.94,1.11-.57-.06-.88,1.3-.53,1.75-.2-.12-.2-.11-.33.04-.41,1.04.63,3.92,2.1,4.47,3.08.51.9-.35.86-.65,1.2-.18.21-.31.74-.53.88-.4.26-.77-.04-1.07.04-.05.01-.35.54-.75.67-1.05.34-1.72.02-2.42-.74-.42.38-.71,1-1.33,1.06-.92.09-2-.53-2.96-.7-.88-.15-2.24-.29-3.12-.29l-.35-.07-.1.14c.16.25.36.48.58.69.03.3-.16.3-.37.15-.49-.58-2.71-1.45-1.55.08-.02.14-.09.23-.23.19-.75-.86-2.05-1.14-.81.35.04.33-.2.31-.39.11-.6-.55-1.21-1.02-2.05-.71.06.55.15,1.11.43,1.6-.09.45-.41.13-.62-.09-.61-.29-1.45-.29-1.34.61l-.17.09-5.02-.49c-1.95.09-3.91.06-5.85-.09-.83-.1-3.43-.53-3.95-1.02-.05-.05-.09-.1-.13-.16-.27-1.31.22-2.61.14-3.9-.11-1.77-.5-3.6-.57-5.4-.14-3.39.68-7.85,2.59-10.7.5-.75,1.13-1.42,1.62-2.18.27-.42.83-1.3.68-1.78-.1-.33-.67-1.17-.87-1.59-1.65-3.49-2.68-9.02-2.82-12.88.05-.11.06-.24,0-.35-.02-.6-.01-1.22,0-1.83.06-.16.06-.33,0-.49.12-3.57.88-7.72,3.16-10.57,1.11-1.39,2.23-2.89,3.62-4.04,3.74-3.09,8.66-4,13.41-4.15,2.32-.07,4.29.34,6.54.49,1.01.07,2.05.08,3.06.14,1.34.09,2.65.09,3.93,0,2.1-.73,5.76-3.61,7.45-5.16,1.57-1.43,2.82-3.18,4.39-4.6,3.44-3.13,8.43-4.52,12.47-6.78,3.25-1.81,3.3-3.72,5.24-6.42,1.71-2.38,5.55-3.2,8.25-2.33Z"/>
  <path class="cls-24" d="M610.95,585.32c3.29,1.07,4.16,3.06,6.5,5.06,1.52,1.3,4.04,2.01,4.79,3.92.12.3.11.68.3.96.39.57,1.26.97,1.76,1.58l-.07.22c-2.65,1.61-2.59,6.08-.39,8.04l-.19.24c-1.1.88-2.09,1.93-2.49,3.32.73.32,1.33.76,1.81,1.32.13,1.1.3,1.51,1.33,2.07.26.14.55.25.85.31l.06.15c-.84.6-1.15.77-2.25.84-.31-.03-.62-.05-.91-.07-.13.02-.27.05-.42.07-1.1.08-2.06.23-3.09.56-.38.29-.79.55-1.24.78-1.04.81-1.99,1.51-3.19,2.1l-2.79,1.26c-1.78.64-2.22,2.02-2.61,3.66l-.16.08-.04.23c.02.35.05,1.42-.25.7.13-.39-.06-.49-.58-.3-6.42.1-12.74.23-18.96.37l.08.18c-.2,1.41.46,2.95,1.19,4.16.03,2.61.08,5.21.14,7.82l-.06.6c-.12-.02-.3.1-.39.17-5.68,4-11.06,6.36-18.3,5.24-.52.07-1.06.02-1.61-.17l-5.11-1.28-.1-.1c.29-2.54.47-5.25-.49-7.66,3.18-.43,6.05-2.7,8.33-4.85s3.89-4.15,4.9-7.11c2.03-5.94,2.2-11.14,6.48-16.21,2.7-3.21,8.39-5.99,12.28-7.53,1.1-.44,2.58-1.01,3.65-.26.55.38,1.33,1.75,1.67,1.92.38.18,1.3.18,1.76.28.87.2,2.19.65,3.04.97.33.13.74.5,1.06.33.36-.21,1.04-1.41,1.2-1.82,1.04-2.6-.31-3.37-1.72-5.09-1.21-1.48-.99-3.75.05-5.28.96-1.41,2.71-1.28,4.16-1.78Z"/>
  <path class="cls-46" d="M611.79,661.69c-.42.93-.47,1.92-.51,2.93-.04.62-.31,1.19-.58,1.74l-.18.04c.08.12.05.27-.1.44,0,.19-.06.3-.18.33,0,.75.36,1.26.25,2.04-.03.19-.12.56-.25.7l-.14-.08c.08-1.04-1.18-2.34-1.54-.73l-.09.65c-.04.12-.14.14-.26.11-.64-.43-1.03-.37-1.17.17-.15.79-.3,1.27-.86.34-.74-.63-1.07-.53-1.4.36-.24.63-.38,1.3-.49,1.95l-.15.1c-1.12,0-1.74-.02-2.77-.5-1.36-.63-1.88-1.43-2.01-2.94h.1c.45,1.33,1.11,2.18,2.7,1.95.34-.05.55-.18.52-.56-.32-1.18-.37-2.23-.04-3.46.22-.99-.28-1.65-.93-2.3-.49-.79-.93-1.63-1.31-2.5-.3-.49-.71-.89-1.13-1.27l-.12-.29c.02-1.2-.4-2.27-.95-3.3-2.12-4.01-5.78-8.25-6.99-12.62-.8-2.9-.97-6.43-1.13-9.44-.15-2.79-.21-5.59-.21-8.39-.68-.98-1.21-2.54-1.26-3.73,0-.18.09-.38.08-.48,0-.02-.35-.13,0-.29.23-.11,1.23-.02,1.58-.04,5.8-.23,11.62-.17,17.43-.35.18,0,.59-.17.7,0,.11.15-.07.53.1.64.03-.31-.03-.65,0-.95.01-.1.07-.15.07-.17l.14.16c.06.78.03,1.67-.41,2.32.11,1.89.49,3.8,1.02,5.67,1.27,3.52,2.55,7.09,3.11,10.82.61,4.15-.35,8.32-1.37,12.31-.66,2.51-.8,5.28.68,7.49.14.31.36.9.07,1.13Z"/>
  <path class="cls-21" d="M618.54,613.91c-.42,1.13-.89,2.01-.98,3.23-.07.23-.05.47,0,.7-.05.68-.37,1.11-.42,1.51-.06.47.39,2.94.51,3.56.26,1.37.68,2.56,1.13,3.86,1.17,3.39,2.68,7.63,2.79,11.23-.06.23-.06.47,0,.7-.05,1.72-.47,4.06-.8,5.77-.64,3.35-2.05,6.11-.9,9.58.22.67.57,1,.79,1.53.39.94.07.94-.24,1.69-.19.46-.15.71-.2,1.17-.06.11-.05.24,0,.35-.05.44-.08,1.11-.21,1.51-.24.76-.97,1.32-.79,2.19.21,1.02.47,1.22.08,2.35-.09.08-.18.1-.23-.01-.04-.69-.35-1.82-1.24-1.43-.23.41-.37.86-.41,1.37l-.21.05c-.83-.48-1.01-.45-1.28.46-.04.45-.16.61-.39.48-.63-.72-1.33-1.43-1.78-.09-.23.58-.38,1.2-.47,1.82l-.17.23c-.14,0-.28.08-.46.08-.83-.02-1.7-.24-2.42-.64,0-.5.13-.45.28-.77l.15-.13c.53.05,1.1-.01.97-.7-.39-1.3-.33-2.57.15-3.88.02-1.1-.31-1.11-.69-1.95-1.59-3.55,0-6.81.67-10.33.62-3.25,1.01-5.93.41-9.22-.35-1.95-.92-4.17-1.53-6.06-.71-2.19-1.56-3.89-2-6.23-.11-.58-.6-3.32-.5-3.68.05-.18.25-.39.32-.67.13-.55.07-1.21.09-1.77.11-.6.68-2.43,1.09-2.81,1.27-1.19,3.81-1.9,5.35-2.8,1.28-.75,2.12-1.8,3.54-2.26Z"/>
  <path class="cls-26" d="M571.39,640.96c-1.15,1.76-1.88,3.91-3.2,5.54-.63.78-1.42,1.36-2.1,2.05-.64.65-1.51,1.39-2.03,2.11-.63.88-1.07,1.96-1.63,2.87-.9,1.47-3.72,4.62-1.53,6.03,1.54.99,3.55,1.16,5.2,1.9.97.43,1.9,1.21,2.83,1.77.03.52.46.78.77,1.12-.44-.19-.78-.6-1.22-.78-.25-.11-1.08-.27-1.2.03-.13.34.38.74.31.82-.34-.49-1.94-1.26-1.44-.07.13.31.42.47.53.77-.48-.35-1.14-1.07-1.78-1.05-.23,0-.5.16-.75.14.01.69.21,1.28.49,1.9-.37-.38-.81-.6-1.36-.56-.61.05-.66.26-.61.84l-5.24-.49c-1.75.15-3.39-.17-4.96-.95-1.04-.51-1.54-.92-1.39-2.17.13-1.1,2.14-4.08,2.81-5.19,1.03-1.71,1.43-2.27,2.88-3.67.46-.44.87-.84,1.33-1.27,1.86-1.71,2.65-3.84,3.85-5.98.39-.7.92-1.38,1.29-2.08.82-1.59,1.12-3.42,1.32-5.18.1-.08.2-.02.31,0,2.16.48,4.34,1.2,6.51,1.54Z"/>
  <path class="cls-13" d="M560.22,668.36s.07.02.07.07c.14.18.4.22.61.34.74.41,3.23,1.97,3.55,2.63.16.34.19.51-.08.79-.17.18-.58.29-.64.36-.15.18-.19.77-.49.9s-.8-.04-1.08.05c-.1.03-.19.32-.39.46-.18.13-.64.28-.85.31-.23-.05-.47-.05-.7,0-.46-.07-.84-.55-1.17-.84-.13-.02-.77.75-.94.87-.79.53-1.79-.15-2.58-.36-.87-.23-1.76-.2-2.61-.37-.13-.05-.24-.05-.35,0-.26-.02-.51-.05-.77-.07-.11-.06-.24-.05-.35,0-.14-.01-.28-.04-.42-.07-.13-.05-.24-.05-.35,0-.54-.02-1.24-.05-1.76-.14-.15-.05-.29-.05-.42,0-.18-.02-.38-.04-.56-.07-.13-.05-.24-.05-.35,0-.48-.05-1.08-.12-1.55-.21-.13-.05-.24-.05-.35,0-.5-.04-1.06-.05-1.55-.14-.13-.05-.24-.05-.35,0-1.92-.24-4.65-.73-5.13-3.02,1.01.42,2.07.7,3.15.89,2.32.41,4.46.25,6.8.23l5.09.49c-.25-.93.77-1.01,1.41-.74.24.1.31.35.56.39-.34-.55-.45-1.19-.49-1.82.7-.22,1.05-.2,1.66.19.12.07.8.71.86.65-1.4-1.58-.04-1.76.98-.56.09-.1-.77-.8-.18-1.06.43-.19.91.06,1.28.28.3.17.54.45.87.57-.24-.35-.7-.58-.7-1.05.1.05.17.06.28.07Z"/>
  <path class="cls-37" d="M625,598.24c.06.22.06.43,0,.63-.03.47-.09.48-.28.84-.32.31-.76.49-1.3.53-.24.07-.47.25-.5.52.34.03.52.15.54.36-.15.57.72,1.91,1.25,2.16.79.37.98.26,1.63,1,.08.54.24,1.05.49,1.55.03.02.05.06.07.14.06.42.34.9.49,1.33q-.13,0,0,0c.18.52.36,1.05.49,1.58,0,.07-.4.03-.49.04-.04.13-.1.13-.14,0-.18-.06-.38-.07-.56,0,.06.02.06.04,0,.07-.11.14-.24.14-.35,0-.16.02-.32.04-.49.07-.16.05-.33.05-.49,0-.16.11-.32.07-.49,0-.23,0-.42.03-.56.07,0,.04,0,.08,0,.08-.21.12-.2-.05.07-.01.03,0,.05.03.07.07.18-.12.63-.13.7.07-.25.02-.48.04-.7.07.64-.06,1.38-.06,2.04,0-.2-.03-.41-.05-.63-.07-.01-.18.5-.23.63-.07.04-.13.1-.13.14,0,.12-.19.57-.17.77-.07.03.04.23-.05.22.32-.03.7-1.34,2.16-1.87,2.63-.16.14-.37.24-.53.35-.73-.07-2.02-.82-2.22-1.54-.08-.29,0-.68-.17-.95-.28-.49-1.33-1-1.83-1.26.43-1.6,1.48-2.65,2.74-3.65-1.74-1.23-1.93-4.15-1.31-6.02.35-1.07.97-1.62,1.88-2.23.36.44.57.84.7,1.41Z"/>
  <path class="cls-42" d="M599.15,660.91c.44.39.92.82,1.25,1.31.48.71.71,1.56,1.15,2.29.48.79,1.2,1.09,1.25,2.12.04.86-.35,1.82-.27,2.66.09.98.92,2.2-.75,2.15-.68-.02-1.49-.19-1.88-.79-.15-.23-.48-1.05-.55-1.31-.04-.18-.06-.44-.07-.63.05-.13.06-.29,0-.42,0-.07,0-.14,0-.21.04-.3.31-1.25.7-1.2.03,0,.05.03.07.07.06.11.17.18.14.35h.07s0-1.3,0-1.3c0-.05-.58-.69-.69-.86-1.11-1.67-.47-2.51-.44-4.24Z"/>
  <path class="cls-3" d="M619.31,664.85c-.35,1.04-.64.77-1.48,1.01-.68.2-.53,1.18-1.21,1.53-.57.29-1.94.25-2.65.34-.11-.05-.23-.05-.35,0-.15.02-.35,0-.49,0,.08-.65.23-1.35.46-1.96.6-1.62,1.24-.98,2.14,0-.01-.39.27-1.41.74-1.41.31,0,.57.35.88.36.04-.73.21-1.98,1.22-1.39.48.28.54.73.61,1.22.02.13-.03.26.14.32Z"/>
  <path class="cls-42" d="M610.25,669.91c.02.39-.32.79-.7.88-.18.04-.35,0-.52.05-1.15.26-.41,1.59-2.09,1.74l-.35.07c-.56.02-1.12.06-1.69.07l-.49.07c-.09,0-.19,0-.28,0,.04-.56.51-2.69,1-2.9.39-.17.81.08,1.1.34.13.12.25.36.35.48.05.05.12.07.15.05.02-.03.08-.52.14-.67.37-1.03.69-.63,1.48-.31.03-.47.11-1.55.74-1.55.86,0,1.13,1,1.16,1.69Z"/>
  <path class="cls-19" d="M624.72,599.72c-.39.72-.46.58-.96,1.01-.02.02-.3.38-.3.4-.23-.12-.43-.25-.7-.21.07-1.11,1.31-.73,1.97-1.19Z"/>
  <path class="cls-32" d="M626.83,605.55c.04.09.07.21,0,.28-.4-.24-.49-.75-.54-1.18-.01-.11-.08-.29.05-.37.43.49.44.59.49,1.26Z"/>
  <path class="cls-42" d="M573.15,610.61c-.88.31-1.09.09-1.93.07-.68-.02-1.34-.02-2-.07h3.93Z"/>
  <path class="cls-6" d="M627.25,608.92s.09,0,.14,0c.02.07-.02.25,0,.28-.19.13-.53.07-.77.07-.13-.12-.12-.25.07-.28,0-.02,0-.07,0-.07.18-.07.38-.06.56,0Z"/>
  <path class="cls-7" d="M599.29,668.08c.02-.39.07-1.09.54-1.25.3-.1.2.07.23.13-.48.14-.58.74-.77,1.12Z"/>
  <path class="cls-18" d="M622.96,613.35c-.3.02-.61-.02-.91,0-.06-.02-.06-.04,0-.07.28,0,.68-.05.91.07Z"/>
  <path class="cls-33" d="M621.56,638.71c-.12-.16-.12-.56,0-.7,0,.23,0,.47,0,.7Z"/>
  <path class="cls-22" d="M617.55,617.85c-.12-.16-.12-.56,0-.7-.02.23.02.47,0,.7Z"/>
  <path class="cls-39" d="M560.93,674.26c-.16.02-.55.02-.7,0,.16-.12.56-.12.7,0Z"/>
  <path class="cls-4" d="M625,598.88c.01-.21,0-.42,0-.63.05.2.17.42,0,.63Z"/>
  <path class="cls-47" d="M539.43,629.23c0-.16,0-.33,0-.49.12.09.12.4,0,.49Z"/>
  <path class="cls-10" d="M604.91,672.72c-.1.12-.34.07-.49.07.1-.12.34-.07.49-.07Z"/>
  <path class="cls-40" d="M622.05,613.28v.07c-.14,0-.28,0-.42,0,.12-.11.28-.07.42-.07Z"/>
  <path class="cls-23" d="M599.29,668.71c-.01-.14,0-.28,0-.42.11.07.11.35,0,.42Z"/>
  <path class="cls-2" d="M626.9,605.97c-.07-.02-.07-.08-.07-.14,0-.09,0-.19,0-.28.13.08.05.29.07.42Z"/>
  <path class="cls-43" d="M548.91,673.28c-.14-.01-.29.01-.42,0,.12-.19.33-.02.42,0Z"/>
  <path class="cls-8" d="M620.22,658.81c-.11-.05-.11-.31,0-.35-.01.11.01.24,0,.35Z"/>
  <path class="cls-47" d="M539.43,631.41c0-.12,0-.23,0-.35.11.05.11.31,0,.35Z"/>
  <path class="cls-31" d="M613.97,667.73c-.11.01-.24,0-.35,0,.03,0,.26-.19.35,0Z"/>
  <path class="cls-30" d="M560.57,668.43c-.09,0-.19,0-.28,0-.02-.03-.05-.04-.07-.07.11.01.29-.05.35.07Z"/>
  <path class="cls-16" d="M606.94,672.58c-.1.1-.23.07-.35.07.06-.12.24-.06.35-.07Z"/>
  <path class="cls-11" d="M544.13,672.86c-.12,0-.24.01-.35,0,.1-.18.28-.01.35,0Z"/>
  <path class="cls-15" d="M546.03,673c-.12,0-.24.01-.35,0,.1-.18.28-.01.35,0Z"/>
  <path class="cls-44" d="M547.93,673.21c-.12,0-.24.01-.35,0,.09-.19.32,0,.35,0Z"/>
  <path class="cls-35" d="M551.02,673.42c-.12,0-.23,0-.35,0,.1-.18.28-.01.35,0Z"/>
  <path class="cls-41" d="M551.79,673.49c-.12-.01-.24.01-.35,0,.05-.11.31-.11.35,0Z"/>
  <path class="cls-36" d="M552.92,673.56c-.12,0-.24.01-.35,0,.1-.18.28-.01.35,0Z"/>
  <path class="cls-5" d="M571.09,666.2c.99-.3,2,1.18.83,1.18-.51,0-1.37-1.02-.83-1.18Z"/>
  <path class="cls-5" d="M569.27,666.83c.39-.08,1.03.48,1.22.79.05.08.12.15.03.25-.27.38-2.18-.84-1.25-1.04Z"/>
  <path class="cls-5" d="M572.43,665.78c.66-.15,1.22,1.02.27.9-.44-.06-.81-.78-.27-.9Z"/>
  <path class="cls-5" d="M566.74,667.53c.76-.17.79.63.12.69-.46.03-.64-.57-.12-.69Z"/>
  <path class="cls-13" d="M613.34,601.9l.07-.16c.38-.16.68-.43.91-.82-.17-.1-.13-.49.07-.56-.2-.04-.22-.49,0-.49-.23-.2.19-.99.42-1.12.23-.15.39-.38.6-.56.24-.2,1.43-1.1,1.65-1.16.31-.09,1.12-.12,1.24.24.15.45-.37,2.31-.57,2.81-.16.4-.44.78-.56,1.2-.43,1.53.23,5.33,1.1,6.7.41.65.93.81,1.15,1.66.37,1.43.16,2.92-1.4,3.45-1.23.42-2.17,0-2.83-1.04-1.62-2.51-2.71-4.09-2.4-7.22.1-.99.34-1.95.56-2.92Z"/>
  <path class="cls-1" d="M614.81,598.74c-.08.37-.37.81-.42,1.12-.02.06-.08.13-.13.11-.64-.21-.07-1.05.21-1.34-.29.26-.65.45-1.08.57-.04.06.56,1.16.92,1.02l.09.14c-.02.24,0,.31-.07.56-.67.96-1.62,1.08-2.29.06-.61-.92-.63-1.96-.45-3.02.13-.4.54-1.09.89-1.32.41-.28,1.18-.45,1.6-.15.7.49.91,1.45.74,2.25Z"/>
  <path class="cls-19" d="M614.32,600.91c-.15.55-.43.85-.98.98-.48.12-.61.07-1.01-.22-1.04-.77-1.13-2.57-.75-3.71v1.3c.18,1.33,1.08,3.21,2.53,1.75.03-.03.18-.25.21-.11Z"/>
  <path class="cls-3" d="M610.53,666.39c.17-.37.44-.88.53-1.26.27-1.13-.09-2.45.74-3.45-.01.77-.27,1.55-.29,2.28-.02,1.11,1.12,2.67-.98,2.43Z"/>
  <path class="cls-46" d="M562.31,671.19c.46-.04,1.49.66,1.07,1.08-.08.07-.39.17-.51.16-.54-.05-1.43-1.15-.56-1.23Z"/>
  <path class="cls-46" d="M560.2,671.89c.47-.14.87.25,1.14.58.48.61-.13.54-.56.35-.25-.11-1.14-.76-.58-.93Z"/>
  <path class="cls-46" d="M563.36,670.83c.75-.23,1.28.95.41.9-.46-.03-.87-.76-.41-.9Z"/>
  <path class="cls-46" d="M557.88,672.53c.6-.04.63.58.1.72-.62.16-.83-.67-.1-.72Z"/>
  <path class="cls-14" d="M627.39,607.31l-.03.14c-.49-.61-1.48-.82-1.93-1.44-.35-.48-.36-1.25-.63-1.79.41.44.48,1.09.84,1.58.43.57,1.26.97,1.75,1.51Z"/>
  <path class="cls-27" d="M626.48,609.28c-.2,0-.49-.06-.63.07-.23.05-.47.05-.7,0-.16-.13-.48-.06-.7-.07-.14-.06-.06-.11.07-.14.09-.08.28-.1.35,0,.11-.05.29-.04.35.07.28-.03.56-.05.84-.07.06-.03.13-.05.21-.07.02-.05.04-.05.07,0,.16-.07.29.06.14.21Z"/>
  <path class="cls-45" d="M625.14,609.35c.23,0,.47,0,.7,0,.21,0,.42,0,.63,0v.07s-2.04,0-2.04,0v-.07c.23,0,.47,0,.7,0Z"/>
  <path class="cls-9" d="M624.86,609.06c.06.02.06.04,0,.07-.12,0-.23,0-.35,0-.06.08-.17.11-.21,0-.08,0-.29.05-.28-.07.25.05.53-.05.75-.05.05,0,.08.05.09.05Z"/>
  <path class="cls-29" d="M625.35,609.06c.06.02.06.04,0,.07-.02.03-.06.05-.14.07-.13,0-.25-.06-.35-.07v-.07c.16,0,.33,0,.49,0Z"/>
  <path class="cls-20" d="M624.51,609.13l-.07.14c-.12,0-.23,0-.35,0-.03-.12.13-.04.21-.14.07,0,.14,0,.21,0Z"/>
  <path class="cls-48" d="M627.25,608.92c-.12,0-.52-.02-.56,0,.11-.12.45-.12.56,0Z"/>
  <path class="cls-17" d="M625.84,609.06c.06.02.06.04,0,.07-.15.05-.35.06-.49,0v-.07c.16,0,.33,0,.49,0Z"/>
  <path class="cls-38" d="M626.34,608.99v.07h-.07c-.13.04-.31.06-.42,0,.08-.12.34-.07.49-.07Z"/>
  <path class="cls-46" d="M601.96,670.47c-1.25-.28-2.26-1.87-1.65-3.09.22.53.36,1.1.63,1.62s.7.97,1.02,1.47Z"/>
  <path class="cls-19" d="M614.39,599.86c-.02.15.02.34,0,.49-.66.08-.97-.73-1.2-1.23l1.01-.4.4-.48c.2.62-.45.75-.49,1.24-.02.21.05.35.28.38Z"/>
  <path class="cls-42" d="M612.78,598.24c.15,0,.43-.06.48.12.18.55-.26.24-.38.58-.22.64.29,1.12.67,1.55-.85.04-1.23-.64-1.31-1.4-.02-.18-.08-.18.11-.08h.05c-.06-.12-.02-1.02.38-.77Z"/>
  <path class="cls-19" d="M613.97,596.77c.3.2.43.99.28,1.34-.42,0-.28-.49-.44-.79-.18-.34-.48-.3-.81-.21l-.71.44c-.17-.18.19-.53.36-.67.36-.29.98-.49,1.33-.11Z"/>
  <path class="cls-28" d="M613.97,596.77c-.63-.41-1.46.19-1.69.77-.06.15-.11.24-.07.42-.1.02-.14-.2-.14-.25-.02-.69.76-1.29,1.43-1.22.08,0,.56.12.46.28Z"/>
  <path class="cls-12" d="M612.78,598.24c-.49.22-.34.67-.28,1.12-.13-.01-.13-.25-.14-.35-.05-.33-.05-.59.13-.89.13-.22.43-.55.65-.27.24.3-.15.3-.36.39Z"/>
  <path class="cls-34" d="M625.35,609.13c.16-.01.33,0,.49,0,.02-.06.16-.05.21,0-.31.09-.52.08-.84.07.02-.07.08-.07.14-.07Z"/>
</svg>