<?xml version="1.0" encoding="UTF-8"?>
<svg id="Lager_1" data-name="Lager 1" xmlns="http://www.w3.org/2000/svg" viewBox="0 0 1254 1280">
  <defs>
    <style>
      .cls-1 {
        fill: #050505;
      }

      .cls-2 {
        fill: #010101;
      }

      .cls-3 {
        fill: #030303;
      }

      .cls-4 {
        fill: #171717;
      }

      .cls-5 {
        fill: #212121;
      }

      .cls-6 {
        fill: #797979;
      }

      .cls-7 {
        fill: #020202;
      }

      .cls-8 {
        fill: #666;
      }

      .cls-9 {
        fill: #040404;
      }

      .cls-10 {
        fill: #282828;
      }

      .cls-11 {
        fill: #6b6b6b;
      }

      .cls-12 {
        fill: #202020;
      }

      .cls-13 {
        fill: #252525;
      }

      .cls-14 {
        fill: #989898;
      }

      .cls-15 {
        fill: #333;
      }

      .cls-16 {
        fill: #0e0e0e;
      }
    </style>
  </defs>
  <path class="cls-2" d="M597,822.88c.48-5.88,4.22-9.6,8.96-12.4.85-.5,1.45-1.55,2.34-2.04,2.71-1.48,6.41-3.01,9.3-4.26,7.81-3.37,17.52-6.89,26.13-5.41,3.24.56,8.45,2.66,11.51,2.36,2.59-.25,5.16.09,7.78.23,6.21.33,12.4.61,18.6.87,5.65.23,11.33.75,16.93,1.66,2.5.41,4.88,1.19,7.35,1.51,4.32.57,10.48,2.5,13.46,5.79.19.21.78,1.15.84,1.18.13.07.46,0,.67.04.69.16,1.38,1.71,1.88,2.16.81.74,2.45,1.29,3.45,2.18l.3-.02c.84.84,1.6,1.63,1.49,2.91.18.19.28.4.29.61.2.25.73,2.71.85,3.25.06.26-.03.57.08.79.06.13.45.31.61.48,1.39,1.52,1.78,3.53,1.63,5.57-.11,1.57-1.03,1.8-.62,3.58.36,1.57,1.51,3.25,2.49,4.5.35.44,1.45,1.85,1.8,2.14.48.4,1.28.28,1.68,1.05s-.3.83-.29,1.17c0,.26.4.9.53,1.17v4.04c-.18.55-.14,1.2-.25,1.77-.2,1.05-1.07,3.57-2.01,4.11-.7.4-1.99.43-2.77.23-.06-.03-.06-.07,0-.11-.17-.28.19-.49.44-.33.27.23.67.26,1.2.11l.15-.25c2.12-.57,2.45-4.03,2.62-5.91s.19-3.37-.67-5.07l.15-.23c.73-.34.37-.73-1.07-1.19-1.05-1.15-2.17-2.43-3.01-3.77-1.17-1.86-2.43-4.14-1.14-6.22.54-2.37-.02-5.07-2.01-6.59-.33-1.23-.62-2.47-.74-3.75-.73-.61-.82-1.22-.9-2.11-.85-1.39-2.15-2.41-3.89-3.06-.94-.58-1.27-1.07-1.79-1.99-.3-.51-.53-.68-1.15-.61-.53-.35-.97-.85-1.33-1.48-3.51-3.4-9.35-5.43-14.16-5.52-3.3-1.2-6.82-1.76-10.38-2.25-5.55-.76-11.04-1.09-16.66-1-6.7-.4-13.39-.77-20.09-1.1-4.04.39-7.8-.67-11.65-1.81-6.23-1.66-12.74-.54-18.8,1.33s-12.33,4.82-18.21,7.75c-1.98,1.48-4,2.97-6.08,4.44-5.26,4.41-6.01,10.12-4.73,16.54.52,2.58,1.28,5.65,4.16,5.83.03-.1.07-.09.11,0,.33.11.38.56.11.76-.1-.24-.18-.18-.38-.22-4.07-.87-3.77-3.5-4.74-6.96l-.36-2.76c.07-1.21-.1-2.52,0-3.71Z"/>
  <path class="cls-8" d="M607.5,835.54c.13.21.38.47.77.76.3-.17.49,0,.44.33,1.36,1.3,3.02,3.08,4.38,4.7.26.31,1.44,1.73,1.37,2.04-.02.08-.17.08-.28.03-1.06,0-2.2-.25-3.17-.66-.48-.04-.95-.15-1.42-.33q-.94-.34,0,0c.47.11.91.26,1.31.44,1.09.23,2.18.45,3.28.66.13-.24.2-.26.43-.13s1.65,2.36,1.85,2.74c1.33,2.47,1.79,3.93,1.92,6.79l-.16.31c-.89.92-2.25.83-3.39,1.2,1.53,1.64,1.74,3.89,2.39,5.94,1.21.23,2.44.41,3.62.77.95.3,4.44,1.54,2.55,2.87s-7.89.78-10.26.67c-.61-.03-1.68.15-2.14-.15-.3-.2-1.65-1.6-1.9-1.93-.96-1.25-2.81-4.53-3.4-6-2.07-5.11-1.19-10.26.6-15.29-.14-.21-.4-.39-.77-.55-.17-.13-.22-.12-.44-.33-.39-.25-.74-.59-.98-.98-.77-.84-1.36-1.82-1.64-2.95-.06-.25-.08-.51-.11-.76-.32-.88-.37-2.06.22-2.84-.25-.27.02-.53.33-.33l.21-.12c1.56.64,2.99,1.51,4.27,2.67l.12.39Z"/>
  <path class="cls-2" d="M684.39,839.26c-.13-.44.73-.77.96-.31.29.58-2.33,1.86-2.83,2.07-.6.18-3.33,3.18-3.37,3.46.23.52.44,1.05.62,1.59-.05,4.43,1.39,8.84,4.01,12.34l.09.5c-.43,2.05,1.31,4.01,3.3,4.19-.03-.45.04-.92.58-.64,1.11,1.43,3.31,1.75,4.66.45l-1.75-1.73c-.32-.62.26-.96.76-.53.58.63,1.17,1.24,1.77,1.82.72.36,5.63-.53,5.72-1.24.01-.09-.36-.35-.48-.4-2.06-.98-3.99-1.28-6.25-1.56-1.31-1.61-2.57-3.31-3.79-5,.33-3.28,1.09-6.5,2.29-9.64.69-2.35,1.35-4.64,1.17-7.1-.04-.55-.24-.69-.74-.45-1.63,1.12-2.17,1.12-1.63.01.31-.39,2.69-1.78,2.94-.8.29,1.35.36,2.74.2,4.15.65-.18,1.42-.92,1.29-1.64-.78-2.05-.95-4.24-.72-6.49.56-4.83.69-9.7.39-14.59-.08-.78.74-.87.87-.14.24,4.81.2,9.66-.41,14.43-.16,2.2-.17,4.64.73,6.69.3.68,2.47.51,2.05-.66l-.19-1.34c-.05-4.95-.18-9.87-.39-14.76-.09-.51.03-2.5.81-1.75.08.08.13.29.14.42.12,4.88.17,9.76.21,14.64.01.52.11,2.67.28,3,.18.34.4.48.79.44-.2-.92-.68-3.6-.34-4.29.04-.07.2-.12.3-.14.69-.17.55,1.79.51,2.18-.26,1.47,1.07,3.27,1.31.97-.54-2.37-.4-4.53-.04-7.03.59-4.08,1.3-7.74,2.43-11.69.16-.57.9-2.15,1.21-.93-.8,2.73-1.58,5.62-2.17,8.48-.87,4.2-1.54,9.11-.1,13.22.97,2.79,4.19,4.29,6.97,4.41,1.58.24,3,.94,4.03,2.17,1.64,2.29,2.77,3.79,5.26,5.14.81.44,1.65.85,2.51,1.19-.26-1-.34-2.03-.2-3.05.58-2.25.86-4.51.84-6.76.96-.59.86,1.06.82,1.68-.23,1.74-.51,3.48-.84,5.21-.23,2.06-.01,3.52,2.04,4.29l.17.24c.02-.08.06-.21.12-.22.71-.09,1.79-.03,2.45.22l-.61-.15c-.39-.28.12-.92.28-.4.93.38,1.89.7,2.87.95l.19.26c.1.03.09.07,0,.11-.66-.1-1.48-.48-1.94-.52-1.43-.12-3,.66-4.55-.26-2.45-1.45-5.55-2.37-7.51-4.51-1.26-1.37-2.14-3.33-3.81-4.28-1.55-.88-3.39-.64-5.04-1.19-2.09-.7-4.66-3.14-4.93-5.4-.51.54-1.02.34-1.58.44-.25.05-.4.3-.67.32-.37.03-1.06-.49-1.14-.43-.02.01-.04.23-.22.38-.06.05-.71.38-.76.39l-.11.24c-.55.07-1.09-.08-1.62-.23-.41.8-1.43,1.77-2.29,1.43-.46,2.5-1.12,4.96-2.01,7.38-.55,1.79-.97,3.62-1.09,5.5l3.39,4.56c1.45.16,2.94.35,4.36.76.81.23,1.78.56,2.39,1.16.19.19.51.62.26.83-.69,1.11-2.55,1.45-3.79,1.62-.81.12-2.11.04-2.81.26-.18.06-.75.63-1.07.79-1.14.55-2.51.34-3.6-.2-.16-.08-.46-.37-.49-.37-.05,0-.27.24-.46.29-1.47.34-3.87-1.78-4.07-3.21-.07-.54.08-1.15-.06-1.69-.11-.41-1.23-1.83-1.54-2.4-1.53-2.78-2.21-5.88-2.57-9.01-.05-.42.06-.89,0-1.3-.05-.33-.35-.66-.32-1.04-.51.58-1.45,1.59-2.29,1.03-.27-.04-.28-.69-.5-.59-.08.04-.82,1.15-1.04,1.37-5.04,5.1-19.1,4.11-25.76,3.43-6.22-.63-12.38-1.82-18.54-2.84.38,1.75.54,3.54.74,5.32l5.21,6.92c1.86.26,3.78.41,5.67.56,1.22.47,2.23,2.89.88,3.67-.58.34-2.25.49-2.94.45-.52-.03-1.45-.36-1.85-.32-.51.05-1.21.74-2.01.84-1.53.21-6.05-.37-6.98-1.71-.56-.81-.36-.81-1.33-1.41-1.91-1.17-4.18-1.46-6.04-2.71-1.53-1.03-3.39-4.04-3.84-5.83-.27-1.07-.18-2.28-.35-3.3s-1.25-3.22-1.79-4.11c-.19-.32-1.41-2.16-1.58-2.25-.12-.07-.21-.04-.32-.05-.1-.03-.09-.07,0-.11.11-.06.1-.1.06-.21-.21-.54-1.78-2.46-2.25-3.01-.96-1.14-2.06-2.17-3.11-3.22-.05-.05-.38-.28-.16-.33h.33c3.69,3.53,8.3,8.34,9.42,13.46.22,3.74,1.77,7.8,5.52,9.25,1.92.55,3.65,1.38,5.21,2.51,1.51,2.4,5.08,2.68,7.65,2.31,1.02-.65,1.71-.98,2.9-.48,1.5.1,4.64.25,3.16-2.08-.1-.16-.56-.73-.72-.75-1.79-.24-3.64-.38-5.4-.44-.55-.26-1-.67-1.37-1.23-1.48-2.09-2.98-4.15-4.52-6.2l-.44-3.48c-.19-1.35-.49-2.7-1.16-3.89-1.4,1.41-2.96,2.52-4.98,2.8-.27.04-2.82.16-2.96.09-.28-.13-.43-.29-.17-.52.02-.08.06-.21.12-.22.25-.03,2.12-.05,2.29,0l.16.22.13-.23c1.78-.19,3.41-1.04,4.57-2.43-.98-.1-1.86-.24-2.8-.55-.58-.19-2.03-.92-.8-1.2,1.16.58,2.51,1.14,3.81.97l-.6-1.12.12-.24.36.13c.81,1.1,1.63,2.24,2.04,3.55,6.6,1.36,13.55,2.44,20.34,3.05,6.26.56,16.46,1.14,22.04-2.29,1.37-.84,2.27-1.85,3.18-3.13l.29.1c.45,1.25.77,1.58,1.64.35,1.41-2.54,3.52-4.7,6.32-5.69Z"/>
  <path class="cls-8" d="M696.31,839.69c-.25,2.96-1.04,5.86-1.41,8.8-.09.7-.37,2.93-.21,3.46.04.13,1.41,1.84,1.62,2.09,2.11,2.49,3.35,2,5.87,3.42.44.25,2.59,1.68,2.65,2.05.01.08-.61.86-.72.89-.54.17-1.51-.34-2.04-.2-.13.03-.1.29-.21.41-.31.34-1.87.86-2.27.69-.04-.02-.24-.51-.44-.7-1.34-1.24-4.9-1.61-6.66-1.86l-3.5-4.7c.18-4.5,2.45-8.64,3.17-13.04,1.13.11,1.9-.69,2.35-1.64.45.3,1.29.42,1.81.32Z"/>
  <path class="cls-10" d="M731.97,854.11c-.95.93-2.3.83-3.5.66v-.11l.26-.18c1.02.17,2.05.07,2.92-.53l.31.05v.11Z"/>
  <path class="cls-4" d="M605.53,840.79l1.53.55c0,.18-.73.01-.76,0-.22-.08-.57-.4-.77-.55Z"/>
  <path class="cls-16" d="M605.09,840.46c-.4-.13-.85-.59-.98-.98.26.28.7.72.98.98Z"/>
  <path class="cls-8" d="M726.17,816.76c.56-.88,1.48-.71,2.3-.93.54-.15,1.01-.52,1.53-.71.09.08-1.28,1.66-1.37,1.96-.27.9-.14,2.23-.38,3.17-.13-.16-.4-.23-.5-.54s0-.62-.06-.93c-.09-.55-1.09-1.64-1.52-2.03Z"/>
  <path class="cls-14" d="M733.61,853.78c-1.04.21-1.34.06-.9-.46-1.75-1.45-4.5-1.18-6.54-.42.14.3-.51.76-.77.55-.03.02-.15-.02-.22,0-.07.4.51.31.55.55h-2.57c-.75,0-2-1.09-2.26-1.78-.86-2.28.86-6.23.68-8.87-.02-.36-.03-.84-.44-.71.62,3.31-1.78,6.79-.44,9.99.02.08-.11.07-.16.05-1.16-.37-3.99-1.84-4.92-2.62-2.22-1.88-2.94-4.87-6.07-5.73-2.69-.74-3.92-.14-6.29-2.24-1.47-1.3-1.89-2.13-2.29-4.04-1.31-6.09.62-12.43,2.08-18.35.08-.33.71-2.06.6-2.18-.23-.05-.25.11-.35.25-.21.31-.47,1.01-.58,1.39-1.38,4.49-2.18,9.92-2.69,14.58.15.57.06,1.17.12,1.75.08.77.75,2.68-.09,3.09-1.24.6-1.28-1.21-1.34-1.99-.04-.56.28-2.33-.44-2.07.02.94,0,2,.12,2.93.08.66.76,1.73-.34,1.44-1.2-.31-.54-2.67-.88-3.6.02-4.88-.17-9.75-.21-14.64-.04-.51-.39-.52-.45,0-.17,1.59.08,3.33.12,4.91.08,3.72.08,7.44.21,11.15.04,1,.73,2.39-.7,2.56-.66.08-1.36.1-1.62-.57-1.62-4.15-.28-8.41-.18-12.7-.17-2.63.19-5.73-.11-8.31-.03-.3-.13-.5-.44-.32-.05,3.16.26,6.34.11,9.5s-.93,6.51-.41,9.79c.08.53.69,2.14.67,2.36-.09.76-.99,1.7-1.79,1.66.05-.68.31-4.38-.4-4.58-.32-.09-2.05.84-2.34,1.13-.15.15-.4.6-.05.49.56-.17,2.21-1.87,2.46-.37.28,1.72-.25,3.96-.68,5.64-.96,3.72-2.61,7.34-2.77,11.23l3.67,4.86c1.93.27,4.37.5,6.09,1.45.88.49,1.11.79.08,1.32-.97.5-4.08,1.03-5.13.89-.67-.09-1.85-2.19-2.4-2.08-.12.02-.19.18-.11.33.16.32,1.91,1.77,1.91,1.91-1.07,1.29-3.12,1.34-4.43.38-.48-.35-1.08-1.44-.82,0-1.44.37-3.57-1.57-3.8-2.92-.1-.57.08-1.29-.05-1.8-.07-.28-1.29-1.87-1.56-2.37-1.36-2.48-2.17-5.55-2.46-8.36-.06-.56.06-1.16-.03-1.72-.07-.45-.63-1.39-.63-1.67,0-.1.68-.88.82-1.04.47-.53,1.69-1.95,2.19-2.29.81-.55,1.99-.88,2.79-1.58.09-.08.55-.49.44-.6-.33-.05-.52.18-.77.33l-1.31.55c-4.25,1.09-8.13,3.01-11.62,5.46-1.29.73-2.82.96-4.31,1.16-5.76.76-12.11.51-17.91.11-7.21-.5-13.87-1.3-20.09-5.18-1.94-1.21-3.87-2.57-5.67-3.95-.27-.03-.14.23.38.77l4.32,5.02.87,1.64c-1.51.07-2.8-.29-4.13-.96-.13-.07-.27-.21-.36.03-.08.22.81.43.94.58,1.07.53,2.29.46,3.43.72-.99,1.03-2.22,2.11-3.63,2.49-.34.09-1.26.3-1.56.3h-2.57c.09.64,1.16.24,1.59.22.5-.02,1.03.04,1.52-.01,1.99-.21,3.7-1.55,5.04-2.93,1.4,2.28,1.36,5.07,1.76,7.64,1.81,2.04,3.35,5.01,5.19,6.94.62.65,1,.31,1.8.39,1.39.13,2.77.34,4.17.43.87.45,1.83,2.23.81,2.9-.59.39-2.4.45-3.12.39-.47-.04-1.13-.34-1.5-.31-.51.04-1.09.63-1.63.78-1.5.42-4.63-.13-6.07-.78-1.09-.5-1.21-1.46-2.41-2.18-3.7-2.24-5.99-1.25-8.54-5.67-1.4-2.43-1.13-3.51-1.6-6.04-.71-3.81-6.44-10.65-9.47-13.1-.17-.14-.28-.21-.44-.33-.31-.23-.57-.49-.77-.76-.85-.75-1.87-1.55-2.85-2.12-.5-.29-1.38-.54-1.74-.83-.32-.07-.47.04-.44.33-.44.94-.34,1.86-.22,2.84,0,.07.04.21-.05.21-.6,0-1.71-.48-2.19-.87-1.45-1.15-2.22-5.22-2.45-7.06-1-8.07,1.53-12.94,8.26-17.06,1.45-.88,1.8-1.67,3.5-2.51,9.97-4.91,23.86-11.47,35.16-9.16,3.01.61,6.17,1.87,9.22,2.15,1.28.12,2.68-.04,4.05,0,6.63.21,13.29.83,19.9,1.1,2.49.1,5.09-.03,7.55.11,4.87.27,11.87,1.11,16.59,2.22.92.22,2.22.82,2.99.94.47.07,1.04-.05,1.52,0,3.79.42,10.11,2.7,12.69,5.57.24.27.81,1.21.98,1.32.27.19.58.04.86.12.51.14,1.26,1.83,1.61,2.1,1.31,1.02,3.11,1.36,4.31,2.91.72.94.39,1.13.63,1.99.07.26.66.7.72.92s0,.48.05.72c.13.55.53,2.73.68,3.03.04.09.67.54.87.77,1.2,1.44,1.47,3.57,1.27,5.4-.08.72-.6,1.26-.66,1.85-.23,2.15,1.48,4.61,2.74,6.23.32.4,1.56,1.98,1.85,2.19.36.27,1.48.34,1.54.98.04.44-.51.49-.55.66-.02.11.76,1.46.77,2.07.04,2.02-.1,5.02-.86,6.89-.5,1.23-.85,1.98-2.21,2.22Z"/>
  <path class="cls-14" d="M732.41,853.67c-.08.09-.32.25-.44.33-1.16.81-2.13.87-3.5.66-.87-.14-1.97-.52-2.78-.89-.16-.07-.34-.06-.29-.31.21-.13.58-.45.77-.55,1.65-.61,3.58-.9,5.31-.29.54.19,1.71.62.92,1.06Z"/>
  <path class="cls-12" d="M726.17,852.91c1.68-.86,4.9-1.01,6.45.17.38.29.07.36-.1.7h1.09s-.11.1-.26.12c-.29.03-1.07.1-.94-.22.07-.08.24-.29.22-.38-1.23-.87-2.84-1-4.31-.92l-2.15.53Z"/>
  <path class="cls-15" d="M602.58,832.92c-.49.94-.34,1.84-.22,2.84h-.11c-.3-.9-.33-2.04.22-2.84.03-.1.07-.09.11,0Z"/>
  <path class="cls-7" d="M602.47,832.92c-.46-.94-1.18-1.73-1.66-2.66-1.51-2.94-1.38-7.92-.69-11.11.15-.71,1.22-4.34,1.76-4.58.6-.26-.16.95-.22,1.09-1.5,3.69-2.02,7.87-1.34,11.81.25,1.45,1.44,4.17,2.59,5.11-.16.07-.25.18-.33.33h-.11Z"/>
  <path class="cls-13" d="M614.17,843.41v.11c-1.27-.18-2.03-.27-3.28-.66-.11-.08-.07-.11.11-.11,1.04.25,2.08.63,3.17.66Z"/>
  <path class="cls-5" d="M611,842.75l-.11.11c-.49-.15-.82-.24-1.31-.44.46.12.95.21,1.42.33Z"/>
  <path class="cls-13" d="M608.27,836.31c-.27-.2-.65-.36-.87-.71l.11-.05c.27.24.58.44.77.76Z"/>
  <path class="cls-5" d="M609.58,842.42c-.31-.08-.58-.12-.9-.25-.12-.05-.33-.03-.3-.19.45-.03.85.3,1.2.44Z"/>
  <path class="cls-8" d="M684.39,839.26c-1.85,1.09-3.44,2.06-4.81,3.77-.52.65-.86,1.41-1.34,2.05-.38.51-.83,1.17-1.52.69l-.54-1.16c-1.93,3.75-6.88,5.06-10.79,5.56-7.56.96-16.39-.08-23.92-1.21-3.24-.48-7.47-.99-10.58-1.78-.19-.05-.42-.04-.53-.23-.43-1.43-1.35-2.57-2.2-3.76l-4.32-5.01c-.2-.23-.39-.46-.38-.77,3.31,1.83,6.08,4.39,9.63,5.84,5.86,2.39,12.69,2.95,18.97,3.23,5.48.24,12.2.51,17.56-.71,1.88-.43,3.18-1.74,4.84-2.7,3.06-1.75,6.49-2.99,9.92-3.8Z"/>
  <path class="cls-2" d="M722.67,830.19c-1.49.02-2.21-1.54-2.3-2.84,1.76-.13,2.38,1.3,2.3,2.84Z"/>
  <path class="cls-2" d="M733.5,845.59c-.72-.25-2.44-.02-2.9-.66-.06-.08-.27-.67-.27-.71.02-.21.21-.1.29-.08.36.06.72.18,1.08.23.31.05.67-.04.95.04.32.09.68.88.84,1.18Z"/>
  <path class="cls-2" d="M715.02,817.25c.02-.09.69-.87.76-.82.3.81.62,1.63.55,2.51h-1.31c.08-.47-.11-1.28,0-1.69Z"/>
  <path class="cls-3" d="M623.47,837.4c1.45,1.97,3.23,3.72,4.7,5.79-1.65-1.79-3.52-3.73-5.03-5.63-.13-.16-.45-.45-.17-.6.19-.04.39.3.49.44Z"/>
  <path class="cls-9" d="M724.09,831.07c-.57-.11-.29-1.29-.33-1.8-.13-1.65-.34-2.9-2.05-3.52-.44-.16-1.36-.14-1.45-.58,1.44.09,2.98.69,3.47,2.16.4,1.18.18,2.51.36,3.74Z"/>
  <path class="cls-1" d="M734.7,845.37c.4-.24.25-.86.43-1.04.06-.06,1.16-.69,1.21-.32.08.39-.3.32-.48.5-.34.33-.52.88-1.15.87Z"/>
  <path class="cls-6" d="M717.7,821.02s.06-.08.11-.11c.2-.24.23-.02.11.11-.21.25-.69.49-.93.76l.33-.54c-.2-.14-1.65.31-1.48-.44.07.04.19.22.22.22.5,0,1.18.06,1.64,0Z"/>
  <polygon class="cls-11" points="716.22 823.2 718.08 823.2 718.08 823.31 716 823.31 716.27 822.77 716.22 823.2"/>
</svg>