<?xml version="1.0" encoding="UTF-8"?>
<svg id="Lager_1" data-name="Lager 1" xmlns="http://www.w3.org/2000/svg" viewBox="0 0 1254 1280">
  <defs>
    <style>
      .cls-1 {
        fill: #251c0e;
      }

      .cls-2 {
        fill: #776140;
      }

      .cls-3 {
        fill: #26211a;
      }

      .cls-4 {
        fill: #050505;
      }

      .cls-5 {
        fill: #261e11;
      }

      .cls-6 {
        fill: #261c0e;
      }

      .cls-7 {
        fill: #201000;
      }

      .cls-8 {
        fill: #16110c;
      }

      .cls-9 {
        fill: #e3e2e1;
      }

      .cls-10 {
        fill: #19110b;
      }

      .cls-11 {
        fill: #1c160f;
      }

      .cls-12 {
        fill: #7a6442;
      }

      .cls-13 {
        fill: #796342;
      }

      .cls-14 {
        fill: #1b130b;
      }

      .cls-15 {
        fill: #ecbb51;
      }

      .cls-16 {
        fill: #1f180e;
      }

      .cls-17 {
        fill: #efefef;
      }

      .cls-18 {
        fill: #271d11;
      }

      .cls-19 {
        fill: #17120b;
      }

      .cls-20 {
        fill: #281e0f;
      }

      .cls-21 {
        fill: #7c6643;
      }

      .cls-22 {
        fill: #7d6643;
      }

      .cls-23 {
        fill: #7b6441;
      }

      .cls-24 {
        fill: #292621;
      }

      .cls-25 {
        fill: #1b150e;
      }

      .cls-26 {
        fill: #18120b;
      }

      .cls-27 {
        fill: #1a130b;
      }

      .cls-28 {
        fill: #17120d;
      }

      .cls-29 {
        fill: #1e170e;
      }

      .cls-30 {
        fill: #231a0e;
      }

      .cls-31 {
        fill: #261c0f;
      }

      .cls-32 {
        fill: #251f16;
      }

      .cls-33 {
        fill: #1a1711;
      }

      .cls-34 {
        fill: #afaeb1;
      }

      .cls-35 {
        fill: #1b160f;
      }

      .cls-36 {
        fill: #7c6543;
      }

      .cls-37 {
        fill: #d7aa4b;
      }

      .cls-38 {
        fill: #271d0f;
      }

      .cls-39 {
        fill: #1f170d;
      }

      .cls-40 {
        fill: #291f0f;
      }

      .cls-41 {
        fill: #1b140c;
      }

      .cls-42 {
        fill: #7b6542;
      }

      .cls-43 {
        fill: #281f0f;
      }

      .cls-44 {
        fill: #1a140d;
      }

      .cls-45 {
        fill: #1c140c;
      }

      .cls-46 {
        fill: #7b6543;
      }

      .cls-47 {
        fill: #1c140b;
      }

      .cls-48 {
        fill: #2b2316;
      }

      .cls-49 {
        fill: #1e170f;
      }

      .cls-50 {
        fill: #251d0e;
      }

      .cls-51 {
        fill: #020202;
      }

      .cls-52 {
        fill: #7c6542;
      }

      .cls-53 {
        fill: #27221b;
      }

      .cls-54 {
        fill: #846c47;
      }

      .cls-55 {
        fill: #19110a;
      }

      .cls-56 {
        fill: #3a2c15;
      }

      .cls-57 {
        fill: #cca146;
      }

      .cls-58 {
        fill: #1c150d;
      }

      .cls-59 {
        fill: #2c271f;
      }

      .cls-60 {
        fill: #1b160e;
      }

      .cls-61 {
        fill: #cca046;
      }

      .cls-62 {
        fill: #1b130c;
      }

      .cls-63 {
        fill: #989592;
      }

      .cls-64 {
        fill: #382d1c;
      }

      .cls-65 {
        fill: #19140d;
      }

      .cls-66 {
        fill: #1d150c;
      }

      .cls-67 {
        fill: #d2a548;
      }

      .cls-68 {
        fill: #0a0501;
      }

      .cls-69 {
        fill: #352c1e;
      }

      .cls-70 {
        fill: #231d16;
      }

      .cls-71 {
        fill: #ebb951;
      }

      .cls-72 {
        fill: #241b0e;
      }

      .cls-73 {
        fill: #7d6642;
      }

      .cls-74 {
        fill: #3d2f16;
      }

      .cls-75 {
        fill: #2a2318;
      }

      .cls-76 {
        fill: #16100d;
      }

      .cls-77 {
        fill: #261d10;
      }

      .cls-78 {
        fill: #19120b;
      }

      .cls-79 {
        fill: #7a6440;
      }

      .cls-80 {
        fill: #7e6743;
      }

      .cls-81 {
        fill: #231e16;
      }

      .cls-82 {
        fill: #211b13;
      }

      .cls-83 {
        fill: #21190d;
      }

      .cls-84 {
        fill: #796341;
      }

      .cls-85 {
        fill: #816942;
      }

      .cls-86 {
        fill: #a19e9c;
      }

      .cls-87 {
        fill: #786242;
      }

      .cls-88 {
        fill: #de8370;
      }

      .cls-89 {
        fill: #19130c;
      }

      .cls-90 {
        fill: #291f10;
      }

      .cls-91 {
        fill: #221a0f;
      }

      .cls-92 {
        fill: #1a130c;
      }

      .cls-93 {
        fill: #7b6442;
      }

      .cls-94 {
        fill: #816943;
      }

      .cls-95 {
        fill: #1d160d;
      }

      .cls-96 {
        fill: #7e6643;
      }

      .cls-97 {
        fill: #160f0a;
      }

      .cls-98 {
        fill: #17100a;
      }

      .cls-99 {
        fill: #7d6540;
      }

      .cls-100 {
        fill: #2d2211;
      }

      .cls-101 {
        fill: #806842;
      }

      .cls-102 {
        fill: #7a6443;
      }

      .cls-103 {
        fill: #292115;
      }

      .cls-104 {
        fill: #20180d;
      }
    </style>
  </defs>
  <path class="cls-92" d="M271.83,227.03l.23.4c-.07,3.36-.77,6.79-2.16,9.87.47.18.61.42.43.71.22,0,.24.05.25.22.02.34-.74,2.18-.98,2.14-.1-.02-.19-.04-.27-.12-.24.3-.59.32-1.04.08-1.56,2.6-4.04,4.14-6.81,5.25l-.4-.09-.07.3c-.88.17-.55,1.41-.37,2.05,2.94,7.08,5.6,14.67,7.38,22.09.5,1.06,1.15.47,1.45-.36.04-.03.09-.06.14-.08.52-.15,2.85,2.1,2.99,2.79l-.16.3.42.55c.46,2.28,1.55,2.55,3.63,2.82l1.55.12.15.26c.11.04.11.08,0,.12-.45-.03-.93.04-1.37,0-1.74-.15-3.3-.5-4.11-2.2-.28-.59-.31-1.17-.51-1.74-.39-1.1-1.57-1.84-2.44-2.55-.24.76-.88,1.14-1.66.78s-1.3-3.94-1.56-4.93c-1.16-4.32-2.65-8.56-4.24-12.74-.56-1.48-2.28-4.8-2.35-6.15-.08-1.83,2.05-1.88,3.34-2.53,6-3.01,8.18-11.3,8.41-17.5.16-.16.17-.09.12.12Z"/>
  <path class="cls-16" d="M370.38,193.33c.06-.04.11-.18.28-.28.13-.07.42-.07.45-.11.16-.19-.31-2.06.64-2.67.88-.56,1.77.23,2.41.04.15-.05.68-.78.96-.92,1-.47,1.14,1.16,1.12,1.81,3.89-.14,11.53.25,13.26,4.53.57,1.41.6,1.86,1.6,3.14.9,1.13,2.15,2.44,3.37,3.19v1.12h-.29c.06-.93-.28-1.19-1.03-.79-1.05-.67-1.08-.42-.09.76l-.09.27c-.53.3-1.28-.81-1.34-1.31-.19-1.42.88-.93,1.55-.45-2.06-1.68-3.46-3.7-4.2-6.05-2.08-3.85-8.94-4.1-12.84-4.09-.04.46-.27.57-.68.46-.06.33-.08.66-.06.98-.28.35-1.87-.58-.88-1.07-.42-.43-.06-.8.47-.64-1.7-.8-3.66-1.57-3.5,1.14l-.26.17c.05.28.01.44-.12.5-.02.36-.45.59-.75.37-.07-.04-.07-.08,0-.12ZM376.12,191.2c-.16-1.69-.51-2.38-1.74-.81l1.21.78.53.03Z"/>
  <path class="cls-91" d="M283.2,274.09c.53-.03.53.88.49,1.31.36-.21.65-.27.89-.19-.14.22-.11.44-.54.52l-2.58.72h-.87c-.11-.04-.11-.08,0-.12l.04-.17c2.05-.12,2.79-.71,2.21-1.78l.13-.3c-.32-.13-.61-.36-.86-.69-1.09-.39-1.58-1.68-.03-.87.42.22,1.51,1.11,1.14,1.55Z"/>
  <path class="cls-76" d="M280.57,276.33v.12h-2.37v-.12c.5-.36,1.86-.35,2.37,0Z"/>
  <path class="cls-71" d="M371.25,192.58c.05-.57.08-2.04.71-2.22.68-.2,1.91.11,2.57.38.16.06,1.04.54,1.09.6.01.02.05.26-.06.25l-1.06-.13.5.62c-.15-.03-.71.27-.62.37.34.02.6.26.81.5.2-.24-.25-.5-.44-.5,0-.27.47-.22.5-.25.13-.14-.34-.42-.25-.62l.87.25c.11-.14-.22-.47-.06-.5.53-.11,2.12-.03,2.75,0,3.27.15,9.07.87,10.66,4.2.21.44.24.91.42,1.33.79,1.91,2.56,3.43,3.97,4.9.13.3-.54.2-.66.16-.24-.07-.46-.52-.78-.57-.8.64.17,1.73.81,2.1.51.22.75.47.75.75,0,.61-.51,1.15-1,1.5-.55.38-1.06.43-1.71.48-.12.2-.2.21-.23.02-.63.1-1.45.11-2.12,0-.77.14,0-.77.31-1-.22-.33.27-.86.62-.75.21-.6.42-1.18.62-1.75.7-1-.24-2.1-1-2.75-.11-.04-.11-.08,0-.12-.37-.12-.45-.29-.25-.5l-.17-.31c.1-1.27-.25-2.96-1.62-3.37l.04-.32c-.12-.02-.16.02-.12.12.05.11.04.22-.05.31-2.35.48-4.3,1.81-5.58,3.69.06.35-.08.44-.37.25-.27.45-.23.7.12.75.03-.12.07-.11.12,0l.86-.31c2.05-1.34,4.14-1.15,6.13.06.29-.26.63.73.7,1.02.19.77.13,2.36-.58,2.85-.59.49-1.11,1.05-1.57,1.68-.19-.06-.31-.04-.45.11-.18-.25-.6-.46-.8-.18.02-.32-.31-.44-.38-.25-.35.92-.08,1.59.33,2.4.1.66-1.47.13-1.9-.03-1.63-.69-3.2-1.51-4.71-2.46-1.26-.67-2.7-1.29-4.13-1.1.51,2.42-.51,4.78-2.21,6.52l-2.94,2.83c-2.1,1.88-3.04,4.47-3.7,7.19-.64,3.04-1.32,6.05-2.03,9.02l.04.24c-1.42,2.03-1.82,4.35-2.04,6.75.06,2.42.19,4.83.37,7.24.57,5.16,1.11,10.31,1.62,15.48l.09.15c.14,4.39,1.98,8.64,6.62,9.52,1.33.81,2.59,1.37,4.14,1.55,2.02.11,5.24,4.34,1.49,4.35.68-1.27-.18-2.23-.98-3.09-.09,0-.14.03-.12.12.71.28,1.56,1.47,1.25,2.25l-.27.26c-3.81.27-8.08.52-10.12-3.36-.83-.88-1.86-1.54-3.09-1.97-.86-.51-1.13-1.33-1.37-2.26-.32-1.21-.52-2.47-.7-3.7l.43-.08c.02-.53-.18-1.03-.62-1.5l-.3-.02c-.18-.62-.35-1.24-.5-1.86-.24-.02-.3-.13-.2-.37.56-.27.56-.77,0-1.5-.31.18-.44.06-.25-.25-.14-.05-.2-.16-.17-.32-.53-1.63-.89-3.27-1.08-4.92.45-.59.04-1.28-.62-1.5l-.16-.09c.06-.59-.08-1.04-.4-1.36l.06-.3c.16-.05.24-.13.26-.24.59,0,.61-.29.05-.87-.09-.56-.31-1.02-.68-1.39-.04.11-.08.11-.12,0-.11-.02-.2-.08-.23-.19-.24-1.08-.54-1.99-1.05-3l.15-.31c-.37-.08-.36-.42,0-.5-.02-.68-.22-1.22-.62-1.62l-.27-.03-.91-2.96.19-.25c.06-.09.15-.15.26-.13,3.07.43,1.39-2.71-.2-1.43-.1.24-.24.34-.44.32-.09-.03-.17-.07-.25-.12-.46-.32-1.26-3.27-1.39-4.01l.14-.48c-.06-.09-.08-.2-.02-.29.5-.88.55-1.86-.6-2.21l-.13-.25c.04-.53.21-1.07.5-1.62l-.18-.23c.95-2.53-.14-1.99-3.28,1.6-1.94,1.79-4.4,2.67-7.02,2.28-3.02-.52-6.06-.92-9.12-1.19-3.1-.3-5.17-2.24-7.24-4.31-.55-.34-1.01-.72-1.39-1.15-.24.25-.51,0-.62-.25-.25.08-.28-.06-.16-.28-2.28-1.68-5.09-2.52-7.87-2.69-.25-.05-.32-.16-.22-.4l-.3-.07c-.11-.65-.48-.24-.7.07-.07.06-.14.12-.22.16-.79.41-4.3-.82-5.25-1.23-2.43-1.53-4.85-2.18-7.62-2.64-.54-.14-1.07-.28-1.59-.47-.61-.23-1.27-.52-1.74-.97-.26-.25-.69-.69-.32-.96-.25-.06-.24-.17,0-.25-.06-.22-.14-.43-.25-.62-.18.15-.24.08-.12-.12-.22,0-.34-.18-.35-.52-.53,1.01-1.19,1.92-1.99,2.75-3.4,2.85-5.36,6.69-6.22,11.05l-1.06,4.71c-.41,1.92-1.09,3.79-1.99,5.47-.25.57-.62,1.11-1.12,1.62-.61.72-1.27,1.4-2,2-.32.22-.61.47-.87.75.05.41-.24.64-.62.5-.29.3-.62.55-1,.75l-.87.62c-.26.25-.55.46-.87.62.08.39-.26.68-.62.5-.75.39-1.47.84-2.12,1.37-.25.16-.41.37-.46.61-.21-.02-.43.07-.66.26-.21.16-.43.33-.62.5-1.91,1.44-3.2,3.23-3.87,5.37-.1,2.15.08,4.35.57,6.46l-.07.16-.1.14c-.75.08-.03,1,.48.99.75,2.68,2.03,4.99,3.83,6.94l3.25,2.74c1.46.26,2.91.56,4.37.89,1.11.37,2.73,1.08,2.92,2.28.17.57-.85.9-1.25.62-.33-.69-1.18-1.45-1.93-1.62-.17.09.16.24.22.28.72.42,1.04.57,1.46,1.35l-.11.25-6.47.11c-1.4-.14-3.11-.65-3.91-1.85-.25-.78-.89-1.41-1.5-1.94-.15-.13-1.11-.9-1.19-.93-.22-.09-.27.53-.49.75-.32.32-.73.34-1.12.1-.64-.4-1.23-4.05-1.49-5.01-1.2-4.41-2.73-8.73-4.37-12.99-.6-1.56-2.41-4.86-2.07-6.37.12-.55.47-.53.85-.71.19-.03.35.08.49.33,2.23,1.75,6.45-3.74,7.39-5.46l.36-.11s.21-.1.3-.25c.22-.38.79-1.61.7-1.99l-.07-.3c.94-1.9,1.64-3.94,2.09-6.13l.23-.31.29-.11c1.7,1.05,2.11-1.74.29-1.54l-.2-.22c-.1-.16-.18-.34-.19-.53-.01-.61.14-4.21.27-4.46.04-.09.1-.17.17-.25-.11-.02-.11-.07,0-.12.37-.67.37-1.3,0-1.87-.11-.01-.11-.06,0-.12l-.27-.21-.4-2.17c-.35-1.07-.62-2.15-.83-3.24-.37,0-.4-.14-.12-.37-.3-1.09-.58-2.27-.83-3.43l.08-.69c-.25-.21-.23-.45.12-.5.13-.84.06-1.58-.25-2.37-.11-.02-.11-.07,0-.12l-.23-.61c.1-1.73.24-3.48.68-5.15l.3-.1c-.17-.19-.09-.26.12-.12l.63-1.26c.93-.71.79-1.58.62-2.61-.22.29-.54.09-.37-.25l.96-1.28-.09-.1c-2.07,1.56-4.14,3.41-5.34,5.73l-.28.13.05.27c-.51.75-.93,1.55-1.25,2.41l-.3.07c-.07.25-.11.5-.07.76-.45,1.16-.9,2.35-1.31,3.48.25.31.02,1.36-.37,1.5-.33.93-.58,1.92-.77,2.96l-.36.41-.24.19c-1.72-.39-1.35,1.97-.42,2.65l.04.29c.11.04.11.08,0,.12l.22.18-.46,2.29c.05.18.09.35.12.53-1.6.11-1.44,1.73-.87,2.87.03-.11.07-.1.12,0-.15,1.29-.42,2.72-.68,4.03l-.2.21c.17.18.1.25-.12.12-.28.52-.46,1.09-.55,1.7-.47.87-.6,1.5-.2,2.42.18-.15.25-.09.12.12l.12.34c-.83,3.64-2.35,7.3-3.8,10.65.12.45-.23,1.1-.32.5-.19-.02-.19-.19,0-.5-.2-.02-.34-.19-.41-.49-.53-.36-.87-.72-1.09-1.34-.67-.18-.96-.45-.87-.8.06-.43.28-.86.5-1.25l.26-.14c2.04.91,3.12-3.08,1.29-3.82l-.06-.28.25-1,.22-.19c1.74.27,2.05-2.63.66-3.3.14-1.23.39-2.44.75-3.62l.29-.07c2.2,1.43,3.55-4.31.59-3.41l-.25-.14c-.06-.13-.1-.26-.09-.39.63-5.73,1.58-11.87,3.71-17.21l.17-.21c.88-.06,1.08-.36,1.31-1.18.75-.64,1.1-1.34.4-2.19v-.29c1.17-2.46,2.93-4.72,5.11-6.37l.26.07c.31,3.59,3.91-.22,2.82-1.53-.23-.08-.34-.21-.33-.41,2.21-1.47,5-2.08,7.66-2.04,1.79.12,3.57.22,5.33.3l.2.17c.94.05,1.85.2,2.76.44.73.19,1.28.08.66-.67v-.31c.1-.07.2-.13.3-.13,2.06.01,4.23.3,6.19.88.11.17.11.42,0,.73l1.23.27c.47.4,3.39,1.95,2.44.28l.07-.28c.66-.04,1.42.18,2,.5.61.57,1.43.77,2.25.75.05-.07.1-.12.13-.11.47.08,1.12.25,1.49.48l.06.3c-1.1.54-.47.82.38,1.1l1.16.9c.89.7,1.71.11,1.29-1l.11-.3c1.66.31,3.3.88,4.87,1.5l.03.29c-1.58,1.44,3.65,2.24,3.46,1.31-.18-.25-.23-.45.13-.48,3.88,1,7.8,1.88,11.74,2.62l.06.17c-.78.63,1.76.72,2.15.72.69.09.99-.08.91-.51.68-.12,1.58-.09,2.25.12.59.6.98.72,1.85.86.37.06,2.6-.02,2.53-.53-.23-.28-.31-.51.12-.58,1.15-.27,2.31-.55,3.49-.84l.26.09c.73.02,1.41-.17,1.87-.75.74-.68,2-1.24,3-1.37,1.38-.04,2.35-.28,3.37-1.25,1.67-.66,3.66-.53,5.37,0l.18.22c-.23,1.57,2.57,1.06,3.44.53,4.7.41,8.33-2.23,11.65-5.15l.21-.09c.23-.17.48-.28.75-.37.12.1.16-.06.12-.5Z"/>
  <path class="cls-61" d="M293.31,219.41c3.13-2.22,7.02-1.07,10.25.37.16.1.07.22-.26.38-.1.12-.25.23-.37.37-.53.74-.96,1.54-1.34,2.37-1.17,3.18-2.51,6.3-4.03,9.37-.39.68-.82,1.34-1.25,2-.36.57-.78,1.07-1.25,1.5-1.53,1.7-3.34,3.14-5.43,4.32l-2.31,1.92c-.21.43-.51.8-.87,1.12-.13.16-.25.33-.37.5-3.23,4.08-2.46,8.21-.31,12.43-.6.1-.12,1.09.34.85l3.09,5.78c1.91,3.07,3.73,5.45,7.41,6.26,1.35.89,2.67,1.4,4.31,1.45,2.6.15,5.28,4.07,1.28,4.55.3-1.16-.07-2.24-1.12-3.24-.18-.09-.22-.09-.12,0,.73.44,1.84,2.36,1.31,3.16-.09.14-1.46.42-1.69.34-1.45.24-3.05.18-4.5,0-2.24.28-3.25-.49-3.96-2.57l-.47-.67c-1.17-.96-2.27-1.96-3.32-3h-.19c-.99,2.19-2.14.8-2.72-.88-.7-3.11-1.86-6.11-3.61-8.9-2.2-3.37-4.28-6.82-6.35-10.25-.39-.65-.74-1.44-1.04-2.14-.01-.03-.08-.05-.17-.05l.59-.62c.65-.54,1.37-.98,2.12-1.37.21-.15.42-.34.62-.5.32-.17.61-.37.87-.62l.87-.62c.38-.2.71-.45,1-.75.21-.16.41-.34.62-.5.26-.28.55-.53.87-.75.73-.6,1.39-1.28,2-2,.95-1.19,1.87-2.4,2.75-3.62.68-1.44,1.23-2.93,1.65-4.47.33-.17.43.02.57.27.36.22.63-.29.72-.61.29-1.02-.03-1.16-.91-1.3.43-2.41,1.08-4.82,2.21-7-.3-.26.02-.7.37-.62l.75-1c.38-.49.85-.91,1.37-1.25Z"/>
  <path class="cls-61" d="M385.62,207.81c.21.09.42.21.62.37,1.1.7,2.41,1.08,3.72.9-1.09,1.38-3.71,1.39-5.19.58-2.13-1.41-4.13-2.22-6.53-.86-1.43-.15-2.72.31-3.87,1.37-.16.12-.34.25-.5.37-1.58,1.34-3.08,2.78-4.25,4.49-1.05,1.42-1.68,3.06-2.12,4.74.05.27,0,.83-.25.94l.13.06-.13,2.81c-.32,2.15-1.78,4.44-3.06,6.19-.02.03-.09.02-.18,0-.17-.21-.1-.37-.04-.59.93-3.89,1.6-9.12,3.23-12.63,2.04-4.37,7.75-5.92,7.56-11.43-.03-.86-.56-1.25.8-1.18,3.22.16,5.86,3.13,9.03,3.83.26.06.81.22,1.02.04Z"/>
  <path class="cls-61" d="M351.89,232.02c.04-.11.08-.11.12,0,.37,1.55.79,3.21,1.5,4.62.24.23.37.91.37,1.25l1,3.25c-.36.23-.31.64.15,1.23,0,.46.16.76.47.9.25.75,1.31,2.67,1.12,3.49-.14.81.03,1.51.51,2.11v.26c.1.03.1.08,0,.12.04.12.26.17.39.42.25.52.17.84.11,1.32.11.03.11.07,0,.12.09.52.3.98.62,1.37.47,1.6.9,3.25,1.32,4.87.06.22-.08.36-.07.37-.68.37-.25.92.25,1.35v.28c.11.04.11.08,0,.12.06.15.28.07.38.21.28.34.27,1.59.61,2.04-.04.1-.08.1-.12,0-.09.43,0,.89.25,1.37.24-.21.38-.16.5.12-.05.06-.16.09-.22.15.32,1.35.53,3.09.98,4.4.56,1.62,2.1,1.55,3.3,2.44,1.13.84,1.64,2.29,2.7,3.05,2.18,1.57,5.83,1.21,8.36,1.07.11.07-.05.68-.07.72-.16.24-2.17.58-2.55.53-.76.14-1.59.08-2.37,0-.25-.01-.5.02-.75,0-.7-.21-1.5-.44-2.39-.68-1.38-.29-1.68-1.2-2.04-2.39-.28-.78-2.18-2.36-2.88-2.54-.01,0-.25.02-.26.03-.6,1.08-1.49.68-1.89-.3-1.31-5.1-2.56-10.21-3.78-15.34-2.14-6.45-4.08-12.96-5.82-19.52-.29-.84-.5-1.96-.53-2.87,0-.09.71-.21.73.05Z"/>
  <path class="cls-65" d="M351.27,229.28l.24.17c.09.21.59,2.35.53,2.46-.03.05-.08.09-.15.12-.26.1-.34.16-.62,0,1.19,7.67,4.26,14.87,6.33,22.32,1.41,5.07,2.46,10.24,3.76,15.34.47,1.11,1.4,1.23,1.84.04,1.19.88,2.48,1.27,3.17,2.7.35.72.3,1.46,1.02,1.97.56.4,2.21.8,2.94.94.23.05.5-.15.43.25-.68-.04-2.95-.68-3.49-1.07-.72-.51-.65-1.18-.98-1.89-.67-1.44-1.8-1.75-2.96-2.66-.95,1.54-1.86.58-2.27-.72-1.52-4.74-2.32-10.26-3.69-15.16-1.85-6.59-4.47-12.97-5.84-19.69l-.25,4.74c-.04-.52-.08-1.06-.12-1.62-.19-.09-.23-.28-.12-.57v-3.04c-2.16.24-4.33.28-6.53.13l-.34-.27c-.11-.04-.11-.08,0-.12.33-.11.67-.22,1.02-.23,1.99-.06,4-.06,5.98-.05-.36-.6-.41-1.75-.4-2.53,0-.32,0-.65.04-.97.07-.69.25-2.11.98-2.21-.03.55-.46,1.09-.5,1.62Z"/>
  <path class="cls-89" d="M300.56,275.33c-.11-.04-.11-.08,0-.12.19-.02,1.24-.24,1.37-.32,1.02-.63-.44-2.61-.99-3.18h.12c.85.76,1.66,1.94,1.25,3.12,2.89-.27,1.91-2.95-.01-3.92-1.3-.66-2.68-.38-4.05-.95-.56-.23-1.14-.7-1.69-.94-.9-.39-1.87-.5-2.75-1-3.15-1.77-5.92-7.23-7.39-10.47-.07-.15-.08-.45-.1-.46-.06-.06-.58.43-.97-.34-.44-.87.37-.88.34-.97-.16-.57-.88-1.7-1.14-2.35-1.56-3.88-.83-6.56,1.52-9.82-1.86,2.89-2.82,5.75-1.59,9.14,1.35,3.74,5.14,11.59,8.09,14.14,1.5,1.29,2.33,1.21,3.96,1.91.75.32,1.48.94,2.31,1.18,1.08.33,2.15.15,3.26.61,1.27.54,3.02,2.46,1.84,3.78-.41.46-2.69.86-3.38.93Z"/>
  <path class="cls-89" d="M344.15,233.64v.12l-.31.24-2.32-.06c.52,4.07,1.67,8,3.47,11.8,1.14,3.19,2.37,6.75,2.31,10.16-.03,1.54-.4,2.51-1.11,3.77-.29,1.23.42,1.52,1.38.77.67.49-.1.89-.59,1.1-.29.77-.98,1.09-2.06.95l-.46.15c-1.04.97-2.21,1.6-3.51,1.9l-.3-.21c-.37.01-.53-.07-.5-.25.42-.03.9.05,1.31,0,1.42-.17,2.3-1.86,3.65-2.09.59-.1,1.3.19,1.53-.59.02-.08-.99-.23-1-1.25,0-.76.51-1.24.77-1.85.98-2.26.05-6.66-.65-9.01-1.54-5.22-4.46-10.09-4.76-15.66-1.62-.17-3.26-.28-4.86-.51-.1-.07-.06-.11.12-.12.29-.08.58-.16.88-.14,2.04.16,4.09.32,6.13.48.3.02.58.15.85.28Z"/>
  <path class="cls-49" d="M388.49,204.06v.39s-1.02,1.16-1.02,1.16c.44.3.8.12,1.08-.53.23-.29.55-.27.44.1-.2.27-.35.59-.62.81-.02.04.29.19.31.19h2.12c.1,0,1.85-.45,1.94-.5-.55.4-.5.46-.87,1q-.2-.32,0,0c-.15.23-.23.57-.56.75l.06-.5s-.17.11-.25.12q-.13-.21,0,0c-.08.15-.2.33-.37.37-.04-.2.05-1.07,0-1.12-.02-.02-.38,0-.5,0-.41.1-.84.12-1.25,0-.79-.05-1.59-.15-2.31-.49-.6.65.54,2.16,1.14,2.48.25.13.82.24,1.11.26.43.03,1.07-.24,1.25.13,0,1.26-2.3,1.61-3.26,1.63-2.55.06-4.05-2.57-6.84-2.1-.56.1-1.01.46-1.72.59h-.12c1.64-.86,2.59-1.11,4.37-.43,1.21.46,2.27,1.55,3.56,1.68,1.09.11,2.92,0,3.68-.87-1.47.11-2.46-.18-3.62-1l.24-.09c-.5-.3-.71-.65-.62-1.03.19-.12.3-.07.44.07-.12-1.07-.49-2.14-.24-.27l-.2.21c-.26-.01-.24.16.07.51.25.2.35.4.3.61-.16-.11-.43-.17-.62-.37-.68-.73-.73-1.72-.37-2.62,2.07,1.12,1.87-.32,2.93-1.01.13-.08.26-.09.31-.12Z"/>
  <path class="cls-11" d="M333.66,232.52c.11.08.07.12-.12.12-7.33-1.25-13.82-3.17-20.32-6.84-2.81-1.59-5.62-3.93-8.41-5.33-.51-.26-.92-.59-1.5-.31.05-.06.27-.35.25-.37-2.51-.96-5.15-1.9-7.87-1.32-.76.16-1.69.57-2.37.94.13-.71,1.22-1.1,1.89-1.32,4.06-1.33,9.1,1.66,12.5,3.69,7.55,5.37,16.21,8.88,25.51,10.49l.45.25Z"/>
  <path class="cls-19" d="M274.83,246.13c-.17.2-.39.39-.36.66s1,2.03,1.21,2.42c2.82,5.27,6.95,9.94,8.95,15.65.4,1.15.93,4.48,1.89,4.97,1.03.53,1.56-.41,1.42-1.36.25.04.26.38.37.5-.04.07-.08.06-.12,0-.8,2.2-2.29,1.06-2.81-.63-.36-1.16-.55-2.34-.97-3.53-2.3-6.52-7.39-11.74-10.09-18.07l-.62.25c.45-.35.54-.51,1.12-.87Z"/>
  <path class="cls-29" d="M340.15,264.1c.15.07.31.22.5.25-.07.17-.16.3-.34.28.49.02.8.1.48.59-1.4-.16-2.68.32-3.71,1.26h-.3c-.24-.43.05-.82.88-1.19-.81.19-2.61.86-2.86,1.71-.32,1.06,1.83,2.86,2.78,2.19-.54-.35-1.78-2.18-1.18-2.73.15-.14.2-.17.39,0,.54,2.16,2.03,3.72,4.41,2.54,2.28-1.1,4.6-1.95,7.05-2.63l.4.09c-1.16.92-2.27.86-3.62,1.32-1.69.57-4.27,2.33-6.03,2.02-.31-.05-.66-.33-.9-.33-.48,0-.94.41-1.72.21-.61-.16-1.8-1.4-1.98-2.03-.23-.79.61-2.28,1.3-2.71s1.4-.4,1.95-.67c.24-.11.3-.4.75-.5.57-.13,1.23.09,1.76.32ZM338.03,264.23h1.75c.03-.18-.24-.16-.37-.19-.39-.07-1.14-.2-1.38.19Z"/>
  <path class="cls-60" d="M373.88,275.71c-.11-.04-.11-.08,0-.12.84-.27,2.48-.08,2.62-1.25.11-.91-.56-1.73-1.25-2.25-.17-.18-.1-.24.12-.12.94.74,1.65,1.79,1.12,2.99,2.43.13,1.42-2.07.31-3.12-1.38-1.31-2.34-1-3.91-1.46-.8-.23-1.52-.9-2.31-1.19-1.88-.68-2.54-.59-4.02-2.22-2.24-2.48-2.14-4.37-2.56-7.49,0-.1.02-.15.12-.12.43,3.29.47,5.56,3.06,7.99,1.31,1.23,1.82,1.11,3.35,1.65.91.32,1.66,1.02,2.61,1.26,1.86.46,3.45.47,4.57,2.42.8,1.38.62,2.18-.96,2.51-.91.19-1.92.46-2.89.53Z"/>
  <path class="cls-25" d="M269.33,252.87c-.56,4.12,1.42,11.44,4.42,14.44.44.44,1.06.78,1.51,1.17.82.72,1.41,1.67,2.54,1.96.61.16,1.26.08,1.82.17,1.88.33,5.42,1.43,5.26,3.86-.03.48-.14.47-.32.74-.12-.2-.15-.46-.1-.78-.14-.37-.14-.69-.02-.97-1.15-2.6-5.06-2.48-7.33-3.09-1.54-1.42-3.44-2.63-4.63-4.36-1.13-1.63-1.85-3.51-2.4-5.41-.4.02-.7-.88-.37-1.12-.41-1.8-.75-4.81-.5-6.62.04-.11.08-.11.12,0Z"/>
  <path class="cls-103" d="M367.63,219.91c-.43,2.92.07,4.09-1.48,6.95-2.29,4.22-3.81,4.71-4.02,10.15-.07.03-.12-.05-.12-.25.16-2.86.48-4.53,2-6.99.91-1.48,3.25-4.44,3.25-6.18v-2.87c0-.17.21-.73.25-.94.08-.11.12-.06.12.12Z"/>
  <path class="cls-21" d="M394.36,203.19c-.08.35-.48.58-.5.62l-.11.14-.77-.51c-.47-.51-1-1.13-.87-1.87.1-.11.79.56,1.08.59.37.04.99-.61,1.15.25.01.06.03.74.02.78Z"/>
  <path class="cls-69" d="M364.13,259.36l-.12.12c-.69-5.08-1.12-10.34-1.62-15.48,0-.15.04-.24.12-.25.51,5.15.94,10.45,1.62,15.6Z"/>
  <path class="cls-44" d="M296.06,275.21c.11.04.11.08,0,.12-.58-.03-1.5-.06-2.03-.15-1.4-.25-1.6-2.06-2.34-3.03-.92-1.19-2.63-1.89-3.49-3.19h.12c1.21,1.34,3.05,2.13,3.94,3.74.54.98.63,2.13,2.03,2.34.48.07,1.31.13,1.78.16Z"/>
  <path class="cls-53" d="M295.06,235.89c-1.13,1.83-3.28,2.72-4.98,3.95-.98.7-1.84,1.53-2.76,2.3v-.12c2.37-2.57,5.47-3.61,7.74-6.24.07.04.07.08,0,.12Z"/>
  <path class="cls-64" d="M351.52,262.1c-.09.12-.13.08-.12-.12l-.16-.52c.26-2.68.24-5.38-.07-8.1.03-.18.11-.35.23-.49.03-.19.07-.35.12-.5l.25,2.93c.05,2.42.3,4.42-.25,6.81Z"/>
  <path class="cls-11" d="M297.56,232.27c.62-1.43,1.33-2.81,1.93-4.25.99-2.35,1.8-5.58,3.44-7.49-2.17,3.58-3.03,7.83-5.1,11.45-.09.16-.25.24-.27.28Z"/>
  <path class="cls-48" d="M362.13,237.01c-.09,2.26.15,4.5.37,6.74l-.12.25c-.24-2.45-.51-4.82-.37-7.24l.12.25Z"/>
  <path class="cls-7" d="M351.27,239.14c0,2.18.08,4.33.12,6.49-.02.08-.03.14-.12.12-.07-.17-.13-.33-.18-.51s-.09-.34-.1-.51c-.09-2.03-.17-4.16-.11-6.19,0-.17.04-.34.09-.52s.11-.35.17-.51c.23.41.12,1.11.12,1.62Z"/>
  <path class="cls-3" d="M273.08,247.5c-1.11,1.33-2.63,2.34-3.31,4-.1.25-.41,1.16-.44,1.37h-.12c.34-2.43,2.16-3.91,3.87-5.37Z"/>
  <path class="cls-82" d="M351.52,262.1c-.44,1.86-1.08,3.45-2.87,4.37l.1-.4c1.2-.98,2-2.31,2.33-3.82l.32-.27.12.12Z"/>
  <path class="cls-32" d="M367.63,219.91l-.12-.12c.36-1.89.93-3.24,2.12-4.74-.89,1.49-1.74,3.13-2,4.87Z"/>
  <path class="cls-70" d="M373.88,210.55c-1.52,1.41-2.96,2.87-4.25,4.49,1.16-1.95,2.51-3.13,4.25-4.49Z"/>
  <path class="cls-33" d="M378.25,208.8h.12c-.7.13-1.41.03-2,.18-.63.16-1.32,1.02-1.99,1.19,1.33-.97,1.97-1.8,3.87-1.37Z"/>
  <path class="cls-68" d="M351.52,252.37c0,.18.03.35-.12.5-.39-1.44-.43-2.91-.12-4.37.04-.11.08-.11.12,0,.03,1.28.17,2.56.12,3.87Z"/>
  <path d="M300.56,275.21v.12c-1.29.14-3.18.07-4.5,0v-.12c1.27.07,3.26.12,4.5,0Z"/>
  <path class="cls-59" d="M336.28,233.02l-.12.12c-.88-.13-1.75-.35-2.62-.5l.12-.12c.68-.28,2.07.02,2.62.5Z"/>
  <path class="cls-4" d="M373.88,275.58v.12c-.71.05-1.69.07-2.37-.12.71.03,1.59-.05,2.37,0Z"/>
  <path class="cls-51" d="M351.39,248.5h-.12c-.41-.76-.38-1.96,0-2.75l.12-.12c.02.95-.02,1.92,0,2.87Z"/>
  <path class="cls-81" d="M295.06,235.89v-.12c.42-.49.76-1.08,1.25-1.5-.37.56-.63,1.26-1.25,1.62Z"/>
  <path class="cls-5" d="M393.86,204.31c-.34.93-.41.85-1.12,1.37.35-.19.88-1.1,1-1.5.06-.05.1,0,.12.12Z"/>
  <path class="cls-24" d="M287.32,242.13c-.08.42-.55.74-.87,1,.28-.36.53-.75.87-1.12v.12Z"/>
  <path class="cls-26" d="M393.86,203.81c-.04.11.04.38,0,.5-.05-.03-.11-.07-.12-.12-.1-.34-.41-.39-.75-.75.24.14.6.3.87.37Z"/>
  <path class="cls-34" d="M390.24,206.31c-.25.21-.97.21-1.25,0,.41.03.84-.02,1.25,0Z"/>
  <path class="cls-45" d="M248.35,248.37h.12c.15.37-.7,1.04-1,.75-.15.4-.5.66-1.05.79-.66.3-1.65.75-2.32.58l-.28.17c-2.41-.25-5.04.43-6.87,2.15-.33.31-1.18,1.23-1.27,1.61-.08.35,4.73.12,5.35.05,1.1-.13,3.76-.62,4.57-1.27.03-.03.02-.73-.03-.85-.6-.29-1.63-.85-1.22-1.61.31-.1.59.13.84.69.92.23,1.48,1.15.9,1.93.38.12.55.76.12.87.27.38.19.52-.3.5-.23-.43-.13.09.05.25-.28.2-.62.65-1.01.92-2.45,1.73-5.09,2.05-8,1.41-2.73-.6-3.01-1.32-1.35-3.64,1.87-2.62,4.2-3.19,7.24-3.43.49-.08.99-.12,1.5-.12,1.49-.26,2.68-1.05,4-1.75Z"/>
  <path class="cls-61" d="M255.22,247.87c-.27.39-.59.74-.87,1.12-.62.83-1.08,1.04-1.98.42l-.02-.29c-.11-.04-.11-.08,0-.12.44-1.03,1.32-2.13,2.25-2.75-.05-.32.01-.34.25-.12.46-.53.87-1.12,1.19-1.78l.18.03s.06.11.12.13c-.25-1.09.33-1.55.69-2.37.91-2.07,1.75-4.18,2.38-6.36.27-.93.38-2.01.81-2.87.05-.15,1.63-.25,1.62-.17-.48,2.34-1.51,5.09-2.41,7.31-1.12,2.75-2.44,5.43-4.2,7.83Z"/>
  <path class="cls-57" d="M264.46,211.8l.15.08c-.33,1.06-.17,1.7.48,1.92-.17,1.13-.34,2.26-.51,3.37-.04,1.21-.17,2.41-.37,3.62-.02.16.02.34,0,.5-.43,2.73-.95,5.49-1.54,8.19-.33.02-.62-.2-.85-.66-.42.01-.7-.08-.86-.29.16-1.25.31-2.62.6-3.84.05-.21.06-.31.28-.41l.13-.24c1.05,0,1.91-1.83.7-2.24l-.09-.27c-.11-.04-.11-.08,0-.12-.06-.13-.3-.09-.35-.14-.18-.19.39-2.43.47-2.85.15-.19.36-.36.66-.52.34-.79.33-1.66-.03-2.6-.11-.04-.11-.08,0-.12.27-1.19.66-2.35.87-3.56l.25.19Z"/>
  <path class="cls-58" d="M255.22,247.87c3.08-4.57,5.11-9.8,6.49-15.1-.45.31-.99.33-1.5.12-.04-.02-.08-.09-.12-.12-.09-.14-.16-.29-.17-.46-.05-.86.57-2.82.92-3.66.05-.03.1-.12.12-.12.23-.05.78-.03,1,.07l.63.81,1.63-8.11c-.65,5.79-2.32,12.58-4.4,18.01-1.15,2.99-2.58,6.08-4.59,8.58Z"/>
  <path class="cls-28" d="M327.79,201.69c.09.07.05.12-.12.12-3.85-.54-8-1.58-11.74-2.62-1.2.07-2.65-.42-3.62-1.12-1.63-.48-3.24-1.01-4.87-1.5-.96.12-2.26-.36-3-1-.5-.15-1.15-.23-1.62-.37-.8.03-1.67-.17-2.25-.75-.66-.19-1.34-.32-2-.5-.97.1-2.29-.3-3.26-.63-.19-.07-.34-.22-.48-.36-2.18-.45-4.26-.78-6.49-.75l-.36.26c-.49.09-2.78.37-3.07.27-.07-.03-.13-.08-.19-.15-2.09.15-4.12-.37-6.19-.25-2.35.13-4.75.89-6.8,2-.61.78-1.78,1.53-2.75,1.75.15-.67,3.82-2.55,4.59-2.84,3.45-1.31,5.55-1.01,9.09-.78,1.82.12,3.57-.44,5.37-.5,3.21-.1,7,.83,10.11,1.63,9.88,2.54,19.51,6.69,29.67,8.1Z"/>
  <path class="cls-8" d="M261.96,206.43c-2.3,5.85-2.65,11.49-3.62,17.6.17,1.24-.05,2.51-.62,3.62-.23,1.21-.48,2.42-.75,3.62.11,1.21-.2,2.48-.87,3.49-.09.33-.15.67-.25,1-.01,1.44-.6,3.11-1.5,4.24-.17.4-.32.85-.5,1.25.02.1.04.2.04.31,0,.5-1.57,3.2-2,3.44-.09.05-.19.09-.29.12.25.31-.49,1.43-.87,1.25l.04.33c-.6.63-1.27,1.2-1.96,1.73l-.33-.06h-.12c1.3-1.19,2.49-2.35,3.47-3.83,7.42-11.17,5.21-26.72,10.21-38.73.2-.48,1.38-3.17,1.68-3.25.01.11.02.23.02.34-.02.38-1.23,3.04-1.5,3.31-.08.08-.17.15-.26.21Z"/>
  <path class="cls-45" d="M245.98,254.99c-.65.21-.44-1.07-.06-1l.19.62c.21.03.12-.24.12-.37,1.36-.3,2.62-.87,3.8-1.71-.49-.22-.76-.48-.8-.79-.11-.04-.11-.08,0-.12l.12-.38c.92-.62,1.81-1.3,2.6-2.07l.4-.05c.91.5,1.25.73,2-.12-1.43,1.92-3.33,3.68-5.54,4.77-.89.44-2.03.64-2.83,1.23Z"/>
  <path class="cls-8" d="M370.38,193.33v.12c-.45.32-.77.77-1.19,1.12-3.24,2.68-6.3,4.47-10.68,4.12-.36.24-.82.25-1.36.05-.7-.11-1.81-.31-2.26-.8-2.13-.46-3.24-.52-5.37,0-.94.65-2.23,1.15-3.37,1.25-1.04.43-2.02.96-3,1.37-.4.58-1.2.8-1.87.75-1.2.39-2.5.59-3.75.75-.08.07-.16.14-.25.2-.43.27-3.52.44-3.97.22-.1-.05-.19-.11-.27-.17-.71-.02-1.54-.07-2.25-.12-.86.33-2.35.14-3.12-.37.04-.04.08-.09.12-.12,1.6.22,3.26.33,4.87.37.83.12,1.67.12,2.5,0,6.29-.19,8.48-2.72,13.86-4.18,4.55-1.23,5.59.39,9.56.68,5.8.42,7.7-2.46,11.8-5.24Z"/>
  <path class="cls-45" d="M267.71,203.31c.18-.45.54-.37.84-.05.61.64.51,2.16.06,2.87-.01.02-.01-.36.09.05-.24.33-.62.68-.75.87-.04.05-.08.05-.12,0-.84.97-2.15.24-1.62-1,.23-.54,1.05-2.54,1.5-2.75Z"/>
  <path class="cls-95" d="M270.83,201.81c-.07.87-.27,1.74-.6,2.6-1.06,3.67-.85,7.24.53,10.65.52.13.84.4.82.98.04.09.06.24.12.37.29.71.21,1.12-.25,1.23.48,3.07.92,6.25.68,9.33l-.31.05-.12-.12c.14-3.74-.16-7.43-1.13-11.04-.31-1.15-.82-2.26-1.06-3.44-.47-2.27-.43-4.73.07-6.99-.31.11-.59.67-.87.75.58-1.42,1.14-2.91,1.69-4.38h.31c.04-.08.08-.08.12,0Z"/>
  <path class="cls-45" d="M264.71,217.29c-.07.09-.11.05-.12-.12.12-1.08.1-2.22.38-3.31-1.15.05-.65-1.36-.5-2.06.08-.37.23-1.2.37-1.5.05-.78.62-1.05,1.3-.74.35-1.06.92-1.89,1.7-2.5h.12c-2.29,3.36-2.78,6.3-3.25,10.24Z"/>
  <path class="cls-35" d="M268.96,196.07c.1.04.1.08,0,.12-2.07,1.79-3.82,3.95-5.12,6.37-.04.1-.08.1-.12,0,1.22-2.43,3.04-4.9,5.25-6.49Z"/>
  <path class="cls-75" d="M264.71,217.29c-.14,1.16-.25,2.35-.5,3.49.13-1.14.24-2.45.37-3.62l.12.12Z"/>
  <path class="cls-86" d="M335.16,202.06c-.72.21-1.77.21-2.5,0,.82.02,1.68.03,2.5,0Z"/>
  <path class="cls-63" d="M244.35,250.12c-.58.1-.93.08-1.5.12.38-.27,1.03-.06,1.5-.12Z"/>
  <path class="cls-61" d="M271.71,216.42c.66,1.36,1.39,4.05,1.5,5.62l-.12.13c-1.25-.08-.58,1.6.12,2,0,1.68-.02,3.59-.25,5.24.37.32.06,1.68-.37,1.87-.29,1.51-.69,3.03-1.19,4.49-.25.73-.54,1.7-1.06,2.25-.06-.24-.51-.51-.75-.56,1.14-2.48,1.78-5.18,2.11-7.88.1-.86.09-1.69.14-2.54,0-.02.12-.15.13-.43.12-2.99-.26-6.07-.77-9-.06-.28.25-.15.38-.24.23-.17.1-.65.13-.94Z"/>
  <path class="cls-61" d="M282.95,274.09c.74,1.37.34,1.82-1.09,2.09-.32.06-.95.13-1.28.16-.72.05-1.65.03-2.37,0-.89-.04-2.69-.18-3.5-.44-1.7-.55-1.8-1.92-2.25-3.31,1.22.84,2.31,1.46,3.83,1.61l6.67-.11Z"/>
  <path class="cls-61" d="M269.33,240.26c-1.23,2.01-4.38,6.44-7.05,6.1-.51-.06-1.06-.33-1.2-.86,2.66-1.26,4.01-1.66,6.06-3.99.23-.26.91-1.36,1.06-1.45.07-.04.85.36,1.13.2Z"/>
  <path class="cls-15" d="M376.12,191.2l-.53-.03-1.21-.78c1.23-1.57,1.58-.89,1.74.81Z"/>
  <path class="cls-20" d="M371.25,192.58c.22.85.23,3.38,1.55,3.24l1.2-.56c-1.82,1.95-2.86-.49-2.87-2.18,0-.03.11-.27.12-.5Z"/>
  <path class="cls-57" d="M284.57,275.21c-.12.18-1.06.63-1.25.5.26-.55.12-1.11-.12-1.62.4-.23,1.01-.19,1.25-.62.21.48.44,1.26.12,1.75Z"/>
  <path class="cls-61" d="M296.56,213.92l-.12.25c-.97.11-.47.86.28.56l.21.18c.57,2.12,6.03,2.45,7.84,3.09,1.27.45,2.45,1.28,3.69,1.8,1.63.69,3.43,1.18,5.21,1.23.27-.05.31.03.12.25.26.03.51-.01.75-.12-.17-.18-.09-.25.12-.12.22.31,1.19.21,1.55.27,2.64.42,4.96,1.25,7.07,2.92l-.44.06.06.13.02.26c-1.36.72.48.94.61,0,1.52.5,3.03,2.58,4.46,3.6,2.91,2.08,6.09,1.63,9.44,2.18,4.38.71,6.96,1.66,10.72-1.59.85-.74,2.57-3.1,3.49-3.26,1.11-.2.3,1.68.13,2.07-.08.18-.27.39-.38.69-.63,1.69-.37,3.44-.12,5.18-2.38.11-4.74.2-7.12.12-2.56-.08-5.33-.28-7.87-.62-.81-.11-1.77-.36-2.62-.5-7.16-1.2-13.72-3.18-20.07-6.72-4.9-2.73-14.66-11.04-20.28-6.39-.53.33-.99.76-1.37,1.25l-.75,1c-.12.18-.26.43-.37.62-1.09,2.1-1.71,4.4-2.18,6.71-.02.08.04.17.12.27-.47,2.13-1.24,4.13-2.31,6.01-.27.76-.87,1.64-1.5,2.12-.25-.08,0-.37.06-.5,2.84-6.01,2.12-13.16,6.69-18.53,1.65-1.93,4.16-3.48,4.62-6.18l.25,1.75Z"/>
  <path class="cls-61" d="M387.24,195.32c.28.35.42.2.76.43.81.56,1.35,2.63.99,3.57-.5.07-1.8-1.03-1.88-1.48.37-.85.15-1.04-.66-.55-1.14-.01-1.36.17-.66.54,1.06.46,1.93,1.12,2.62,2l-.04.36c-.78.16-1.55-.59-2.34-.72-.94-.15-1.81.04-2.69.37-.94.35-.88.66-1.97.59-.08-.1-.1-.2-.04-.31.78-.47,2.29-1.39.46-.55l-.29-.14c-.17-.2-.01-.3.09-.46.75-1.16,2.13-2.29,3.41-2.84.6-.26,1.7-.42,2.12-.69-.03-.11.01-.15.12-.12Z"/>
  <path class="cls-22" d="M256.22,243.88c-.28.84-.81,1.58-1.37,2.25-.07.03-.13.11-.25.12-.53.56-2.52-.42-3.01-.84v-.29c.86-1.19,1.64-2.54,2.26-3.87.21.42.77.32,1.06.63.17.18.22.53.38.74.41.51.83.34.93,1.25Z"/>
  <path class="cls-61" d="M271.46,203.06c-.46,1.31-.73,4.46-.75,5.87-.22.14-.4.01-.54-.38-.41-.44-.55,3.56.66,3.38.31,1.15.56,2.36.77,3.54.04.2.13.39-.02.58-.42-.8-.56-.51-1-.81-.18-.12-.89-2.74-.97-3.15-.61-3.42-.09-7.07,1.22-10.26l.17-.03c.18.39.33.82.45,1.28Z"/>
  <path class="cls-61" d="M273.33,197.45c-.17.45-.46.87-.87,1.25l.06.35c-.61.82-1.11,1.7-1.48,2.64l-.33.13c-.03.07-.16.17-.22.33-.7,1.86-.56,2.36-1.78,4.04-.07.02-.17,0-.25,0,.45-.62.42-3.41-.75-2.87.05-.48.45-.94.72-1.34,1.22-1.77,2.51-3.11,4.33-4.29.18-.12.29-.3.57-.24Z"/>
  <path class="cls-22" d="M324.49,209.63c-1.74,1.74-5-1.41-2.67-2.73,2-1.13,4.33,1.06,2.67,2.73Z"/>
  <path class="cls-22" d="M341.74,215.07c1.44-.32,4.39.95,2.91,2.54-.68.72-1.22.24-1.94.3-.44.04-.63.36-.88.39-1.02.09-1.49-2.91-.09-3.22Z"/>
  <path class="cls-22" d="M294.65,196.1c.84-.15,1.41.1,1.97.72,2.35,2.59-2.11,2.92-3.38,1.38-.33-.4-.59-1.04-.24-1.5.08-.11,1.41-.56,1.65-.6Z"/>
  <path class="cls-22" d="M352.11,204.08c.63-.13,1.61.44,1.75,1.06.19.82-.33,2.08-1.03,2.53-.95.62-2.64.56-2.43-.93.08-.59.73-1.11,1.02-1.61.23-.4.1-.95.69-1.06Z"/>
  <path class="cls-22" d="M331.75,211.07c1.11-.12,1.96,1.1,1.75,2.13-.26,1.26-3.09,2.14-3.54.72-.3-.96.73-2.73,1.79-2.85Z"/>
  <path class="cls-22" d="M336.19,215.76c-.71-.65-.47-2.49.42-2.94.64-.33,1.63-.1,2.25.21,1.48.74.51.91-.01,1.65-.25.35-.35.91-.7,1.18-.54.41-1.47.34-1.96-.1Z"/>
  <path class="cls-22" d="M332.87,216.07c1.36-.4,3.88,1.57,1.97,3.09-2.71,2.16-3.31-2.69-1.97-3.09Z"/>
  <path class="cls-22" d="M316.26,204.71c1.7-.52,3.33,2.9,1.82,3.7-.79.42-2.68-.86-2.75-1.69-.03-.31.68-1.93.94-2.01Z"/>
  <path class="cls-22" d="M288.16,195.23c1.72-.29,3.36.72,2.21,2.46-1.46,2.21-5.38-1.93-2.21-2.46Z"/>
  <path class="cls-22" d="M257.72,227.65c.22-1.2.43-2.42.62-3.62,1.18-.78,2.3.3,2.24,1.54-.07,1.34-1.45,3.54-2.87,2.08Z"/>
  <path class="cls-22" d="M351.86,210.7c2.35-.34,2.33,2.9.31,3.31-2.4.5-2.56-2.98-.31-3.31Z"/>
  <path class="cls-21" d="M285.04,195.34c.31-.03.6.25.65.55.04.21-.14,2.22-.22,2.4-.52,1.2-3.69.82-2.89-1.14.27-.68,1.75-1.73,2.46-1.8Z"/>
  <path class="cls-22" d="M294.28,200.47c1.5-.21,3.99,1.83,2.22,2.97-1.99,1.28-4.37-2.67-2.22-2.97Z"/>
  <path class="cls-22" d="M343,210.34c.6-.06,1.57.11,1.87.68.48.89-.36,1.13-.91,1.65s-.52,1.16-1.52.78c-1.63-.62-1.62-2.9.56-3.11Z"/>
  <path class="cls-22" d="M346.24,204.34c.88-.23,2.07.56,2.25,1.43.26,1.28-.82,2.86-2.18,2.06-.94-.56-.35-1.29-.41-2.08-.04-.58-.64-1.15.34-1.41Z"/>
  <path class="cls-22" d="M277.29,201.72c2.67-.54,2.58,3.56.5,3.32-1.86-.22-2.26-2.96-.5-3.32Z"/>
  <path class="cls-22" d="M268.96,196.2s0-.09,0-.12c.86-.62,1.81-1.24,2.75-1.75,2.04.45-.19,3.72-1.44,3.73-.53,0-.98-.5-1.13-.98-.03-.1-.18-.81-.18-.88Z"/>
  <path class="cls-22" d="M282.42,200.22c1.4-.17,2.72,2.25,1.19,3.2-2.17,1.36-3.46-2.92-1.19-3.2Z"/>
  <path class="cls-21" d="M290.66,203.16c-.49.52-1.9.38-2.34-.28-1.05-1.56-.02-3.86,1.93-2.56.12.6.81,2.4.41,2.84Z"/>
  <path class="cls-22" d="M306.64,209.1c2.39-.01,1.74,3.53-.39,3.19-1.8-.29-1.63-3.18.39-3.19Z"/>
  <path class="cls-22" d="M302.15,203.91c-.12.12-.95.3-1.15.28-.5-.06-1.69-1.6-1.79-2.09-.27-1.29,1.5-2,2.28-1.15.35.38,1.03,2.62.66,2.96Z"/>
  <path class="cls-21" d="M342.25,205.96c.61-.06,1.39.21,1.6.84.29.89-.59,1.01-1.08,1.44-.59.51-.48,1.18-1.69.7-1.72-.68-.37-2.82,1.17-2.98Z"/>
  <path class="cls-22" d="M342.49,222.8c.43-.07.62.36.95.51.62.29,1.59.28,1.71,1.17.14,1.04-1.42,1.54-2.25,1.37-1.5-.3-1.71-2.84-.4-3.05Z"/>
  <path class="cls-22" d="M304.89,202.59c.7-.21,3.01.49,3.24,1.22.28.93-1.76,1.93-2.67,1.53-.75-.33-1.36-2.52-.57-2.75Z"/>
  <path class="cls-22" d="M338.37,218.82c1.07-.24,2.45.74,2.28,1.9-.08.53-1.21,1.67-1.8,1.57-.76-.13-1.91-3.15-.48-3.47Z"/>
  <path class="cls-21" d="M280.04,196.73c2.21-.36.48,3.88-1.35,3.29-.25-.08-.74-.56-.81-.81-.34-1.08,1.21-2.32,2.16-2.47Z"/>
  <path class="cls-22" d="M326.13,204.34c1.44-.43,4.25,1.71,1.99,2.74-.4.18-.8.3-1.24.2-1.03-.23-1.94-2.59-.75-2.94Z"/>
  <path class="cls-22" d="M335.32,205.65c-.83-1.03.75-1.59,1.52-1.59s2.63.9,1.94,1.82c-.04.05-.85.73-.95.8-1.04.73-1.54-.07-2.12-.76-.12-.14-.33-.19-.4-.28Z"/>
  <path class="cls-21" d="M286.54,203.34c2.21-.45,1.92,2.93.21,3.21-2.29.38-1.93-2.86-.21-3.21Z"/>
  <path class="cls-22" d="M302.9,206.21c2.87-.59,1.99,3.49-.32,2.88-1.71-.45-1.32-2.54.32-2.88Z"/>
  <path class="cls-22" d="M335.25,222.57c1.87-.22,3.11,1.23,1.37,2.37-2.25,1.48-4.08-2.05-1.37-2.37Z"/>
  <path class="cls-22" d="M349.86,216.45c1.41-.42,3.44,1.22,2.1,2.47-.3.28-1.23.51-1.63.5-1.33-.02-1.44-2.68-.47-2.97Z"/>
  <path class="cls-21" d="M309.59,205.6c1.68-1.54,4.13.89,2.32,1.88-1.1.6-3.37.61-2.8-1.18.03-.11.39-.61.49-.7Z"/>
  <path class="cls-21" d="M345.49,219.19c2.3-.47,2.38,3.48,0,3.06-1.82-.32-1.52-2.75,0-3.06Z"/>
  <path class="cls-22" d="M328.26,215.57c2.39-.27,3.04,3.57-.26,2.82-1.35-.31-1.3-2.64.26-2.82Z"/>
  <path class="cls-22" d="M328.75,219.94c.76-.16,1.38-.04,1.84.6,1.36,1.94-2.07,2.93-2.79,1.54-.44-.86-.02-1.94.95-2.14Z"/>
  <path class="cls-21" d="M319.39,210.96c1.57-.26,2.9,1.32,1.78,2.27-.14.12-1.38.56-1.56.55-.58-.01-1.62-1.24-1.54-1.77.08-.49.86-.98,1.32-1.06Z"/>
  <path class="cls-21" d="M254.34,240.01c.57-1.38,1.07-2.81,1.5-4.24,2.46.71.9,5.72-1.5,4.24Z"/>
  <path class="cls-21" d="M357.23,203.22c2.48-.51,2.21,3.84-.75,2.69-1.47-.57-.58-2.42.75-2.69Z"/>
  <path class="cls-22" d="M284.04,222.43c1.04-.2,1.65,1.41,1.48,2.23-.42,2.01-2.54,1.42-2.66.15-.05-.51.62-2.28,1.19-2.39Z"/>
  <path class="cls-21" d="M324.63,212.08c1.06-.21,3.2-.05,2.39,1.52-.22.43-1.31,1.19-1.8,1.21-.93.04-2.35-2.37-.59-2.73Z"/>
  <path class="cls-21" d="M314.59,214.71c.75-.76,2.76-.95,2.94.53.4,3.16-4.61,1.15-2.94-.53Z"/>
  <path class="cls-22" d="M291.78,210.7c1-.22,2.54,1.08,2.26,2.01-.18.61-1.82.94-2.38.81-1.05-.24-.99-2.57.13-2.82Z"/>
  <path class="cls-36" d="M273.54,210.2c1.19-.27,3.29,1.15,2.63,2.5-.95,1.92-4.55-2.07-2.63-2.5Z"/>
  <path class="cls-22" d="M278.67,214.2c.58-.08,1.37.37,1.51.94.24.98-2.01,2.9-2.95,1.44-.71-1.1.34-2.23,1.45-2.39Z"/>
  <path class="cls-22" d="M355.11,219.07c1.46-.28,2.9,2.05.93,2.69-2.63.85-2.55-2.37-.93-2.69Z"/>
  <path class="cls-22" d="M349.86,222.07c1.92-.34,3.33,1.47,1.04,2.66-1.13.59-1.62.06-1.76-1.13-.08-.75-.14-1.38.72-1.53Z"/>
  <path class="cls-21" d="M321.89,216.32c.72-.08,2.15.49,2.28,1.3.28,1.72-3.21,1.51-3.47-.04-.11-.64.62-1.19,1.2-1.26Z"/>
  <path class="cls-22" d="M290.28,206.2c1.45-.21,1.64,3.1.09,3.34-2.28.36-1.52-3.13-.09-3.34Z"/>
  <path class="cls-36" d="M355.11,207.46c1.18-.26,2.17,1.57,1.16,2.66-.84.91-2.35.34-2.38-.88-.01-.54.65-1.65,1.22-1.78Z"/>
  <path class="cls-21" d="M336.99,208.71c2.38-.54,2.25,2.55.44,2.69-.63.05-1.54-.04-1.64-.8s.4-1.71,1.21-1.9Z"/>
  <path class="cls-22" d="M307.43,196.57c.41.54.36,1.6-.37,1.82-.84.25-1.66-.8-2.31-1.2-.37-.23-1-.19-1.07-.69-.1-.68.46-.53.75-.93,1,.3,1.99.7,3,1Z"/>
  <path class="cls-22" d="M313.51,201.34c1.16-.24,2.85,1.55,1.6,2.6-1.94,1.62-3.4-2.24-1.6-2.6Z"/>
  <path class="cls-22" d="M389.24,199.82s-.02.1,0,.12c.72.58,1.86,1.98.87,2.75-.04.57-.26,1.2-.5,1.75-.18.27-.43.49-.62.75-.08-.27-.3.15-.35.21-.08.11-.44.66-.48.67-.27.04-.83-.31-1.17-.26.45-.6,1.06-1.15,1.5-1.75.98-.9.76-2.78.13-3.86.11-.44.26-.98.62-.38Z"/>
  <path class="cls-21" d="M317.02,200.22c.89-.1,3.25.99,2.59,2.1-.41.68-4.04.11-3.54-1.54.08-.27.68-.53.95-.56Z"/>
  <path class="cls-21" d="M281.54,236.66c.61-.09.57.29.54.79-.11,1.96-3.55,2.75-3.1.65.11-.5.65-1.25,1.19-1.31.23-.03.45.12.71.1.24-.02.46-.19.67-.22Z"/>
  <path class="cls-21" d="M332.76,206.96c1.24-.03,1.69,1.99.93,2.2-.28.08-.49-.09-.71-.07s-.44.27-.67.32c-1.14.23-2.16-1.82-1.06-2.19.2-.07,1.29-.25,1.51-.25Z"/>
  <path class="cls-36" d="M346.61,212.95c.69-.21,2.24.83,2.29,1.42.05.53-1.46,1.5-1.96,1.52-1.22.06-1.27-2.66-.33-2.94Z"/>
  <path class="cls-21" d="M283.79,214.33c1.48-.28,1.85,2.56.09,2.83-2.18.34-1.98-2.48-.09-2.83Z"/>
  <path class="cls-21" d="M357.98,210.83c.59-.18,1.62.25,1.92.78.65,1.13-1.15,2.6-2.3,1.8-.63-.44-.4-2.35.39-2.58Z"/>
  <path class="cls-36" d="M315.92,199.19c-.18.18.22.29.11.66-.35,1.2-6.07-.07-3.73-1.78,1.21.36,2.41.79,3.62,1.12Z"/>
  <path class="cls-21" d="M281.79,193.36c2.82-.41,3.2,1.89.55,2.06-2.23.15-2.63-1.76-.55-2.06Z"/>
  <path class="cls-22" d="M278.04,206.83c1.82-.33,2.06,3.06.57,3.2-1.6.15-1.98-2.95-.57-3.2Z"/>
  <path class="cls-22" d="M351.36,197.98c2.11-.34,2.87,1.88.91,2.29-2.31.48-2.98-1.95-.91-2.29Z"/>
  <path class="cls-22" d="M345.74,200.6c1.79-.28,2.19.95.62,1.86-3.04,1.76-3.48-1.42-.62-1.86Z"/>
  <path class="cls-21" d="M292.65,193.37c.16.15.29.49.48.71.28.33,1.01.53.58,1.07-.56.69-3.38-.71-3.76-1.38-.83-1.43,2.11-.98,2.71-.4Z"/>
  <path class="cls-22" d="M273.24,205.22c.51-.49,1.36.18,1.46.79.04.24.05.75,0,.99-.2,1.06-2.81,2.19-2.61.02.07-.75.47-.67.8-1.08.16-.2.22-.59.35-.71Z"/>
  <path class="cls-21" d="M299.27,195.73c.73-.21,1.5.2,2.08.62,3.21,2.36-1.9,2.04-2.44.7-.18-.45-.17-1.16.37-1.31Z"/>
  <path class="cls-21" d="M282.54,208.83c.62-.14,1.65.33,1.85.97.44,1.39-1.33,2.43-2.32,1.32-.61-.68-.51-2.07.47-2.29Z"/>
  <path class="cls-22" d="M331.13,203.84c.51-.05,1.47.14,1.94.37,1.84.9-.09,2.36-1.95,1.45-1.2-.59-1.71-1.64.01-1.82Z"/>
  <path class="cls-22" d="M341,202.47c2.12-.26,2.12,1.81.04,2.16-2.47.41-2.33-1.87-.04-2.16Z"/>
  <path class="cls-36" d="M269.8,241.28c1.31-.18,1.41,2.28.25,2.75-1.89.77-2.55-2.44-.25-2.75Z"/>
  <path class="cls-22" d="M348.24,209.08c1.53-.25,2.49.86,1.02,2.02-.9.71-1.43.9-1.99-.24-.46-.94-.06-1.62.97-1.78Z"/>
  <path class="cls-22" d="M349.24,200.72c1.84-.41,2.4,2.74.09,2.73-1.41,0-1.39-2.44-.09-2.73Z"/>
  <path class="cls-21" d="M354.11,200.35c1.69-.34,2.95,2.13.73,2.35-.25.02-.77.03-1,0-.99-.19-.94-2.09.28-2.34Z"/>
  <path class="cls-22" d="M359.6,235.92c1.39-.3,2.31,2.06,1.08,2.83-1.69,1.06-2.35-2.55-1.08-2.83Z"/>
  <path class="cls-22" d="M298.03,205.21c1.96-.15,1.45,2.76-.4,2.59-1.63-.15-1.36-2.46.4-2.59Z"/>
  <path class="cls-21" d="M329.62,210.27c-.24.29-1.5.59-1.87.51-.8-.16-1.3-1.25-.6-1.92,1.34-1.28,3.32.37,2.47,1.41Z"/>
  <path class="cls-36" d="M275.66,221.56c.69-.07.6.83.73,1.23.21.67.84,1.79.13,2.36-1.43,1.16-2.53-3.43-.85-3.59Z"/>
  <path class="cls-21" d="M322.01,201.72c.79-.17,2.75.35,3.1,1.1.71,1.53-3.02.81-3.54-.08-.29-.49-.1-.9.45-1.02Z"/>
  <path class="cls-22" d="M354.36,224.8c1.12-.18,2.08,2.25,1.25,2.63-.3.14-1.05.14-1.38.07-1.04-.23-1.2-2.48.13-2.7Z"/>
  <path class="cls-22" d="M284.66,227.67c.56-.16,1.45.57,1.53,1.18.06.44-.36,2.29-.83,2.41-.92.24-1.72-3.31-.7-3.59Z"/>
  <path class="cls-22" d="M354.98,214.58c1.01-.18,2.2.12,1.88,1.37-.22.84-1.3.95-2.02.83-1.09-.18-1.11-1.98.15-2.21Z"/>
  <path class="cls-21" d="M313.89,209.46c.78-.13,1.48.68,1.41,1.41-.03.31-1.45,1.09-1.8,1.06-1.67-.13-1.42-2.17.39-2.46Z"/>
  <path class="cls-36" d="M306.15,201.29c-.82.82-3.62-1.22-2.54-2.22s3.31,1.45,2.54,2.22Z"/>
  <path class="cls-21" d="M283.68,207.54c-.83.14-2.26-.34-2.36-1.29-.09-.85.15-1.31,1.06-1.32,1.41-.01,1.61,1.55,1.29,2.61Z"/>
  <path class="cls-22" d="M360.35,206.47c1.03.88-.1,2.91-1.51,2.19-1.82-.93.24-3.27,1.51-2.19Z"/>
  <path class="cls-21" d="M260.18,217.69c1.19-.36,1.6,2.38.71,3.08-.69.54-1.52-.01-1.55-.8-.01-.36.52-2.19.85-2.29Z"/>
  <path class="cls-22" d="M358.1,223.06c1.6-.37,2.95,1.34.53,2.15-2.2.74-1.77-1.87-.53-2.15Z"/>
  <path class="cls-27" d="M388.36,200.19c-.38-.54-.83-1.05-1.38-1.43-.35-.24-2.12-.93-1.81-1.45.18-.32.91-.21,1.23-.28.25-.05.89-.36,1.03-.34.38.05-.2,1.08-.04,1.35.02.04.25.11.35.2.4.39.87.72,1.25,1.07.16.15.17.38.25.5-.37-.24-.19-.09-.29.15-.34.8.23.84.28,1.55.02.28-.08,1.55-.13,1.85-.09.56-.3.49-.62.69.59-.82.62-1.68.5-2.69-.07-.54-.34-.78-.63-1.18Z"/>
  <path class="cls-36" d="M298.56,193.95c.9.83.31,1.45-.78,1.22-.62-.13-1.35-.85-1.96-1.04-.71-.21-1.79.06-1-1.18,1.26.26,2.5.67,3.75,1Z"/>
  <path class="cls-21" d="M319.76,203.84c.86-.2,1.69.35,2.14,1.06.99,1.56-1.9,1.15-2.54.54-.57-.54-.36-1.42.4-1.6Z"/>
  <path class="cls-36" d="M267.93,198.47c1.26-.25.78,1.37.28,2.03-2.31,3.04-2.52-1.6-.28-2.03Z"/>
  <path class="cls-61" d="M267.83,207.06c-.65.93-1.24,1.92-1.63,3-.42.08-.16-.43-.68-.38-.21.02-.61.45-.69.63-.16-.21-.06-.35,0-.56.33-1.18.89-2.55,1.38-3.69-.14,1.13.69,1.45,1.62,1Z"/>
  <path class="cls-22" d="M286.73,211.71c.94-1,3.21.48,1.72,1.91-1.57,1.51-2.33-1.26-1.72-1.91Z"/>
  <path class="cls-22" d="M353.89,237.89c-.44-.32-.5-.76-.37-1.25.41-1.57,3.16-.72,2.53.72-.3.68-1.55.97-2.15.53Z"/>
  <path class="cls-22" d="M280.04,218.81c.57-.1,1.19.23,1.41.78.26.63.43,1.5-.38,1.76-1.39.45-2.78-2.24-1.04-2.54Z"/>
  <path class="cls-22" d="M273.8,217.06c1.19-.19,1.99,1.91.7,2.58-1.48.77-2.39-2.31-.7-2.58Z"/>
  <path class="cls-21" d="M261.93,210.33c1.25-.26.93,2.23.39,2.89-1.3,1.61-2.13-2.53-.39-2.89Z"/>
  <path class="cls-22" d="M275.61,194.79c-1.04-1.02,3.13-2.15,3.45-.88.05.18-.17.65-.3.78-.62.64-1.53.23-2.26.14-.27-.03-.61.23-.89-.05Z"/>
  <path class="cls-22" d="M278.66,231.91c.26-.07.48.21.73.23.34.04.68-.27.98.13.85,1.13-.48,1.82-1.5,1.87-1.52.07-.86-2.07-.22-2.23Z"/>
  <path class="cls-22" d="M356.98,243.15c1.55-.47,1.92,2.74.82,2.95s-1.99-2.6-.82-2.95Z"/>
  <path class="cls-22" d="M256.09,234.77c.32-1.16.61-2.32.87-3.49.79-.12,1.09.82,1.13,1.44.06,1.15-.71,2.54-2,2.05Z"/>
  <path class="cls-36" d="M309.01,197.6c.73-.22,1.35.4,1.51,1.06.06.27,0,.55.06.82s.56.8.23,1.03c-.45.31-1.83-.8-2.06-1.2-.26-.47-.34-1.53.26-1.71Z"/>
  <path class="cls-22" d="M279.54,227.3c.86-.14,2.17.94,1.07,1.71-.62.43-1.83.75-2.3-.04s.57-1.56,1.23-1.67Z"/>
  <path class="cls-21" d="M275.29,237.78c1.55-.45,1.71,2.73.1,2.73-1.43,0-1.05-2.45-.1-2.73Z"/>
  <path class="cls-22" d="M337.53,202.06c-.21.24.12.37.13.56.02.83-2.23.85-2.8.79-.63-.06-1.84-.29-1.83-1.11,1.57.04,2.95-.05,4.5-.25Z"/>
  <path class="cls-21" d="M301.02,210.71c2.28-.46,1.76,2.53,0,2.19-1.23-.24-1.25-1.94,0-2.19Z"/>
  <path class="cls-21" d="M293.02,205.58c.51-.16,1.61.16,1.77.69.12.41-.42,1.52-.82,1.64-.44.13-1.38-.39-1.51-.82s.13-1.38.56-1.51Z"/>
  <path class="cls-21" d="M309.64,212.7c2.28-.41,1.94,2.04.59,2.1-1.54.07-2.07-1.83-.59-2.1Z"/>
  <path class="cls-36" d="M261.96,206.43c.51-1.29,1.12-2.63,1.75-3.87.03,0,.1,0,.12,0,.41.14.65.89.63,1.31-.05.85-.58.87-.86,1.39-.15.27-.1.56-.32.8-.28.3-.92.42-1.32.37Z"/>
  <path class="cls-21" d="M286.91,217.57c1.54-.35,2.05,1.82.42,2.16-1.81.39-1.67-1.88-.42-2.16Z"/>
  <path class="cls-36" d="M308.59,202.65c-.23-.23-.63-1.23-.21-1.34.39-.1,1.4.35,1.89.47.4.1,1.07-.06,1.13.61.1,1.14-2.16.91-2.8.25Z"/>
  <path class="cls-21" d="M356.98,238.66c1.65-.36,2.1,2.48.22,2.35-1.18-.08-1.29-2.12-.22-2.35Z"/>
  <path class="cls-22" d="M354.48,230.3c1.1-.17,2.39,1.85,1.25,2.38s-2.86-2.14-1.25-2.38Z"/>
  <path class="cls-36" d="M364.98,198.22c1.75-.11.26,1.76-1.17,1.96-2.67.37-.45-1.85,1.17-1.96Z"/>
  <path class="cls-21" d="M361.72,201.72c2.02-.6,2.33,2.25-.02,2.09-1.17-.08-.62-1.9.02-2.09Z"/>
  <path class="cls-41" d="M272.45,198.82c.09.12.28.16.37.25.16,1.05-.48,2.33-.97,3.26-.11.2-.19.4-.28.61-.01.03-.1.06-.12.12-.67-.27-.37-.83-.62-1.25h-.12c.57-1.38.88-1.91,1.75-3.12v.12Z"/>
  <path class="cls-21" d="M274.17,234.04c1.12-.15,1.53,1.26.4,2.03-1.9,1.29-1.87-1.83-.4-2.03Z"/>
  <path class="cls-36" d="M360.29,245.04c.54-.55,1.06,1.1,1.09,1.53.07.75-.55,2.1-1.18,1.3-.58-.72-.54-2.19.09-2.83Z"/>
  <path class="cls-45" d="M272.95,229.4c2.45-.54,1.99,3.48-.37,1.87.11-.57.3-1.34.37-1.87Z"/>
  <path class="cls-22" d="M288.32,192.2c.4.26.67.72.38,1.16-.26.4-2.07-.19-2.58-.28-.42-.07-.79.04-1.25-.13-.23-.09-.38-.14-.18-.39,1.23-.09,2.3-.36,3.62-.37Z"/>
  <path class="cls-22" d="M263.34,215.17s0,.09,0,.12c.14,1.04-.08,2.1-.62,3-1.42-.71-1.61-3.88.62-3.12Z"/>
  <path class="cls-41" d="M270.71,208.93s0,.08,0,.12c.32.77.4,1.56.25,2.37-.05.11,0,.32-.12.5-.42.6-.97-.54-1.09-.97-.14-.51-.37-2.67.41-2.66.33,0,.32.46.56.63Z"/>
  <path class="cls-21" d="M361.85,208.95c1.66-.34,1.34,2.37-.16,2.24-1.2-.11-.92-2.01.16-2.24Z"/>
  <path class="cls-41" d="M262.59,221.54c1.71.21.81,2.91-.75,2.75-.04,0-.1.01-.12,0-.34-.31.06-2.67.26-2.81.09-.07.53-.05.62.07Z"/>
  <path class="cls-36" d="M276.29,196.35c1.15-.29.28,2.03-.55,2.45-.87.45-1.41-.2-.95-1.07.17-.32,1.17-1.3,1.49-1.39Z"/>
  <path class="cls-22" d="M295.53,209.46c2.11-.38,2.13,2.27.28,1.78-1.12-.29-1.68-1.53-.28-1.78Z"/>
  <path class="cls-22" d="M358.51,198.69c-.09.53-1.1.7-1.56.75-.99.09-2.64-.13-2.06-1.5,1.27.28,2.27.64,3.62.75Z"/>
  <path class="cls-22" d="M330.78,202.19l.37.44c0,.55-3.26.33-3.75-.12-.34-.31.03-.5.25-.69,1,.14,2.13.29,3.12.37Z"/>
  <path class="cls-36" d="M279.41,223.56c1.21-.28,1.6.84.6,1.6-1.64,1.24-1.95-1.29-.6-1.6Z"/>
  <path class="cls-36" d="M359.04,253.4c.97-.98,2.27,1.81.97,2.17-.93.26-1.42-1.72-.97-2.17Z"/>
  <path class="cls-36" d="M321.75,220.19c1.22-.37,2.51,1.93.73,1.85-.21,0-.74-.12-.88-.25-.28-.27-.34-1.45.15-1.6Z"/>
  <path class="cls-22" d="M263.5,206.6c1.17-.99,1.7,3.09-.08,2.07-.74-.42-.43-1.63.08-2.07Z"/>
  <path class="cls-36" d="M366.22,201.6c1.23-.06.73,2.24-.27,2.21-.87-.02-1.02-2.15.27-2.21Z"/>
  <path class="cls-21" d="M357.98,228.05c1.76-.4,2.11,1.24.54,1.54-1.4.27-1.58-1.31-.54-1.54Z"/>
  <path class="cls-22" d="M338.37,225.8c1.43-.27,2.49,2.32-.09,1.41-1.09-.38-.86-1.23.09-1.41Z"/>
  <path class="cls-36" d="M326.38,223.55c.83-.12,1.83,1.34.91,1.79-1.22.59-2.15-1.61-.91-1.79Z"/>
  <path class="cls-22" d="M360.05,251.96c-.68-.67-.1-2.81.82-1.51.82,1.16.01,2.33-.82,1.51Z"/>
  <circle class="cls-36" cx="265.49" cy="252.98" r=".87"/>
  <path class="cls-36" d="M282.66,232.54c.86-.15,1.31.77.76,1.52-.92,1.26-2.12-1.28-.76-1.52Z"/>
  <path class="cls-21" d="M317.76,217.94c1.12-.21,1.02,1.97-.03,1.97s-.79-1.81.03-1.97Z"/>
  <path class="cls-52" d="M260.09,232.77c-1.05-.77-.29-1.86.06-2.75.2-.51.06-1,.69-1.37l-.75,4.12Z"/>
  <path class="cls-22" d="M352.02,232.02s-.09-.02-.12,0c-.15-.82-.69-1.93-.62-2.75,1.36-.11,1.77,2.1.75,2.75Z"/>
  <path class="cls-14" d="M262.71,218.42s0-.08,0-.12c.19-1,.4-2.01.62-3,.8.73.84,3.25-.62,3.12Z"/>
  <path class="cls-36" d="M358.6,199.72c.38-.07,1.41-.15,1.6.22.55,1.09-2.53,1.07-2.3.21.06-.24.48-.39.7-.43Z"/>
  <path class="cls-80" d="M271.58,202.94l1.25-3.87c.53.52.51,1.65.06,2.24s-.92.76-1.31,1.63Z"/>
  <path class="cls-36" d="M357.29,234.49c-.53-.52.04-1.96,1.04-1.35.93.56-.23,2.16-1.04,1.35Z"/>
  <path class="cls-14" d="M273.2,222.04s0,.08,0,.12c.45.54.28,1.28,0,1.87,0,.04,0,.08,0,.12-1.27.15-1.51-2.88,0-2.12Z"/>
  <path class="cls-36" d="M303.28,215.77c-.33.33-1.37.32-1.46-.42-.2-1.61,2.44-.56,1.46.42Z"/>
  <path class="cls-52" d="M262.59,221.41v.12c-.1-.01-.46-.02-.49,0l-.38,2.74c-.95-.38-1.03-3.42.87-2.87Z"/>
  <path class="cls-36" d="M349.52,197.95c-.62,1.26-2.08,1.62-3.37,1.25,1.15-.47,2.14-.95,3.37-1.25Z"/>
  <path class="cls-36" d="M369.5,195.95c.43.82-1.91,2.13-2.12,1.43-.17-.56,1.9-1.65,2.12-1.43Z"/>
  <path class="cls-22" d="M272.92,243.03c1.58-.48,1.26,2.19-.18,1.25-.59-.39-.36-1.09.18-1.25Z"/>
  <path class="cls-22" d="M365.35,207.71c1.2-.36,1.36,1.36.21,1.47-.98.1-.96-1.25-.21-1.47Z"/>
  <path class="cls-36" d="M263.8,248.53c.74.66-.17,2.57-.81,1.25-.41-.85.07-1.92.81-1.25Z"/>
  <path class="cls-22" d="M367.1,199.09c.72-.12,1.05.76.47,1.23-1.12.91-1.97-.99-.47-1.23Z"/>
  <path class="cls-36" d="M363.22,205.46c1.39-.41,1.27,1.41.2,1.44-.81.02-.92-1.23-.2-1.44Z"/>
  <path class="cls-36" d="M274.82,215.28c-.63.62-2.35-.75-1.86-1.24.25-.26,2.22.51,1.86,1.24Z"/>
  <path class="cls-36" d="M332.12,225.81c.56.58-.83,1.09-1.46.65-1.17-.83.73-1.4,1.46-.65Z"/>
  <path class="cls-96" d="M311.51,216.44c.67-.1.98.76.53,1.29-.95,1.14-1.7-1.11-.53-1.29Z"/>
  <path class="cls-21" d="M347.49,227.05c1.11-.24,1.59,1.07.08,1.22-1.19.11-.86-1.05-.08-1.22Z"/>
  <path class="cls-73" d="M356.76,246.75c.76-.04.69.77.9,1.28.1.23.4.39.44.67.07.52-.59.58-.97.54-.01-.04,0-.09,0-.12v-.2c-.47-.78-.59-1.5-.37-2.18Z"/>
  <path class="cls-22" d="M343.25,227.18c1.04-.11,1.2,1.03.22,1.11-1.32.12-1.46-.98-.22-1.11Z"/>
  <path class="cls-42" d="M307.04,215.4c-.31.5-1.89-.58-1.06-1.24.75-.6,1.36.76,1.06,1.24Z"/>
  <path class="cls-10" d="M381.49,199.44c.46-.26,1.04-.25,1.31-.87.29-.07.21.27.18.43-.18.93-1.1.85-1.62,1.44-.04,0-.1,0-.12,0-.48.25-.34-.46-.12-.75.1-.08.26-.19.37-.25Z"/>
  <circle class="cls-21" cx="363.61" cy="213.63" r=".67"/>
  <path class="cls-46" d="M269.42,246.52c1.58-.34-.12,2.17-.66,1.1-.22-.44.22-1.01.66-1.1Z"/>
  <path class="cls-22" d="M360.48,242.35c-.74.76-1.52-1.52-.29-1.35.57.08.57,1.06.29,1.35Z"/>
  <path class="cls-36" d="M266.73,258.5c.79-.49,1.25,1.26.52,1.46-.89.25-.72-1.34-.52-1.46Z"/>
  <path class="cls-93" d="M291.77,215.19c.94-.31,2.01.87.86.99-1.05.11-1.43-.8-.86-.99Z"/>
  <path class="cls-14" d="M354.89,241.13c.4.38.61.92.62,1.62,0,.15-.03.4,0,.5-.67.36-.57-.49-.72-.84-.16-.37-.93-1.37.1-1.28Z"/>
  <path class="cls-66" d="M323.54,224.66c.55.99-1.57,1.19-1.36.34.04-.18.59-.56.73-.59.39-.06.49.2.62.25Z"/>
  <path class="cls-27" d="M359.51,257.73s.21.21.25.25c.38.32.75,1.59,0,1.37-.61-.2-1.46-1.79-.25-1.62Z"/>
  <path class="cls-36" d="M277.91,240.65c.81-.07.28,1.62-.63,1.34-.52-.16.16-1.3.63-1.34Z"/>
  <path class="cls-93" d="M265.83,247.75c-.22-.21.17-1.78.88-1.32.27.41.15,1.13-.35,1.29-.11.03-.51.06-.53.03Z"/>
  <path class="cls-47" d="M356.76,246.75c.01.8.46,1.59.62,2.31.03.11-.21.03-.25.06-.61-.4-.86-1.23-.74-1.93.04-.21.22-.35.24-.44h.12Z"/>
  <path class="cls-12" d="M274.17,226.42c.72-.2,1.12,1.03.45,1.21-.72.2-1.12-1.03-.45-1.21Z"/>
  <path class="cls-14" d="M296.56,213.92c.07.02.09.09.12.12.15.15.24.36.25.62,0,.08-.02.19,0,.25-1.33.61-1.89-1-.37-1Z"/>
  <path class="cls-22" d="M267.67,249.89c.61-.05.53,1.49-.02,1.49-.49,0-.73-1.42.02-1.49Z"/>
  <path class="cls-80" d="M269.71,259.48c.07.31.28.78.37,1.12-.98.66-1.53-1.64-.37-1.12Z"/>
  <path class="cls-52" d="M361.39,263.23c-.23.05-.32,0-.5-.12-.27-.5-.36-.96-.25-1.37.03,0,.09,0,.12,0,.49.05,1,.79.85,1.29-.05.16-.19.16-.23.21Z"/>
  <path class="cls-102" d="M302.81,195.2c-.7.33-2.04.09-2.25-.75.76.21,1.5.53,2.25.75Z"/>
  <path class="cls-73" d="M358.26,252.49c-.33-.37-.54-.83-.62-1.37,0-.04,0-.08,0-.12.93-.3,1.56,1.5.62,1.5Z"/>
  <path class="cls-55" d="M256.22,244.38c-.11-.01-.44,1.37-1.37,1.75-.23-.04.1-.33.15-.41.42-.61.73-1.3,1.22-1.84.02.16-.01.34,0,.5Z"/>
  <path class="cls-79" d="M270.96,211.43c-.18-.75-.26-1.6-.25-2.37.72.97.71,1.36.25,2.37Z"/>
  <path class="cls-42" d="M361.39,257.11s.33-.01.42.02c.42.16.45,1.29.14,1.35-.46.1-.71-1.23-.56-1.37Z"/>
  <path class="cls-36" d="M343.15,200.57c-.08.82-1.23,1.1-1.87.75.54-.18,1.34-.52,1.87-.75Z"/>
  <path class="cls-36" d="M334.49,227.54c.64-.21,1.53.86.61.87-.56,0-1.16-.69-.61-.87Z"/>
  <path class="cls-90" d="M286.57,235.39c-.77,1.39-1.65,2.49-2.75,3.62.38-.49.76-1.11,1.12-1.62.49-.7,1.06-1.33,1.5-2.12.16-.16.2-.1.12.12Z"/>
  <path class="cls-12" d="M340.9,230.4c-.28.02-1.5.08-1.5-.31,0-.44,1.7-.5,1.5.31Z"/>
  <path class="cls-22" d="M369.72,207.57c.51-.13.74.6.13.89-1.03.5-.7-.75-.13-.89Z"/>
  <circle class="cls-93" cx="268.59" cy="264.12" r=".49"/>
  <path class="cls-93" d="M387.24,195.32s-.08.09-.12.12c-.87-.22-.9-.64-1.25-1.37.7.07,1.01.8,1.37,1.25Z"/>
  <path class="cls-13" d="M266.08,256.36c0-.24-.04-.49.11-.7.59-.76,1.61.92-.11.7Z"/>
  <path class="cls-2" d="M273.2,224.03c0-.62.04-1.26,0-1.87.91.5.59,1.25,0,1.87Z"/>
  <circle class="cls-22" cx="299.08" cy="214.88" r=".47"/>
  <path class="cls-87" d="M268.08,254.74c-.14-.1-.24-1.5.06-1.49.52,0,.48,1.88-.06,1.49Z"/>
  <path class="cls-23" d="M314.67,221.04s-.09.08-.12.12c-.21.15-.5.16-.75.12-.11-.09-.11-.1-.12-.25-.03-.39-.01-.64.44-.64.57,0,.41.42.56.64Z"/>
  <path class="cls-42" d="M370,201.69c.27.55-.86,1.19-1,.68-.12-.44.62-.83,1-.68Z"/>
  <path class="cls-99" d="M359.76,259.48s0-.12,0-.12c.03-.02.24.06.26-.08.05-.28-.35-.92-.26-1.3.08.06.26.02.43.25.35.48.3,1.3-.43,1.25Z"/>
  <path class="cls-18" d="M390.24,202.69c-.04.1-.08.1-.12,0,.82-1.12-.33-1.92-.87-2.75.71.2,1.48,1.62,1.35,2.28-.06.3-.34.42-.35.47Z"/>
  <path class="cls-94" d="M367.34,205.2c.72-.12.15,1.1-.39.99-.49-.1.13-.95.39-.99Z"/>
  <path class="cls-93" d="M308.38,218.31c1.26-.4,1.08,1.37-.21.29-.03-.14.09-.25.21-.29Z"/>
  <path class="cls-42" d="M360.95,259.48c.42-.11.93.74.49.87-.62.18-.82-.78-.49-.87Z"/>
  <path class="cls-1" d="M281.82,241.01c.66-.65,1.35-1.33,2-2-.69.89-1.07,1.32-2,2Z"/>
  <path class="cls-12" d="M362.91,262.32c-.36-.39-.12-1.18.4-.59.42.49-.11.9-.4.59Z"/>
  <path class="cls-84" d="M355.51,242.76l-.62-1.62c.83.07.59,1.06.62,1.62Z"/>
  <path class="cls-94" d="M328.91,227.9c-.12.18-.87.11-1-.19.25-.51,1.33-.3,1,.19Z"/>
  <path class="cls-94" d="M367.46,211.44c.58-.1.45.92-.26.74-.43-.11.06-.7.26-.74Z"/>
  <path class="cls-43" d="M276.95,244.75c-.7.5-1.39.92-2.12,1.37.44-.53,1.44-1.17,2.12-1.37Z"/>
  <path class="cls-31" d="M273.33,197.45c.09-.09.48-.48.62-.31l-1.5,1.69v-.12c.29-.4.49-.87.87-1.25Z"/>
  <path class="cls-77" d="M389.61,204.44l.5-1.75h.12c-.27.71-.13,1.02-.62,1.75Z"/>
  <path class="cls-22" d="M304.43,217.29c-.05-.65.4-.56.75-.18-.07.47-.44.26-.75.18Z"/>
  <path class="cls-87" d="M344.35,229.41c.3-.08.51.09.67.31-.37.57-1.27-.14-.67-.31Z"/>
  <circle class="cls-80" cx="290.63" cy="218.23" r=".32"/>
  <path class="cls-101" d="M381.24,200.44c-.1.03-.38.45-.5.05-.1-.36.14-.6.37-.8.02.24-.1.61.12.75Z"/>
  <path class="cls-74" d="M375.37,271.96l-.12.12c-.28-.21-.45-.29-.75-.45-.16-.09-.32.04-.25-.3.44.05.8.36,1.12.62Z"/>
  <path class="cls-1" d="M280.32,242.26c-.19.45-.66.54-1,.75.33-.28.67-.5,1-.75Z"/>
  <path class="cls-85" d="M296.69,214.05s.18-.08.29.16c.15.33-.04.44-.04.47-.28-.08-.27-.38-.25-.62Z"/>
  <path class="cls-72" d="M281.82,241.01c-.38.37-.46.44-.87.75.17-.43.6-.55.87-.75Z"/>
  <path class="cls-6" d="M278.45,243.63c-.25.21-.45.59-.87.62.36-.27.45-.37.87-.62Z"/>
  <path class="cls-50" d="M279.32,243.01c-.38.32-.44.36-.87.62.39-.34.43-.36.87-.62Z"/>
  <path class="cls-39" d="M290.82,222.29c-1.04,2.16-1.64,4.46-2.13,6.8,0,.12.48.04.66.09,1.03.31.26,2.9-.71,2.21-.18-.13-.13-.37-.32-.36-.38,1.51-1,3.02-1.75,4.37l-.12-.12c2.32-4.17,2.01-8.9,4.37-12.98Z"/>
  <path class="cls-45" d="M296.53,223.19c1.86-.38,2.01,2.21.21,2.34-1.59.11-1.5-2.08-.21-2.34Z"/>
  <path class="cls-45" d="M292.09,226.31c.64-.64,2.52.83,1.78,1.71-.09.1-1.02.59-1.15.61-.79.12-1.02-1.93-.63-2.32Z"/>
  <path class="cls-45" d="M299.9,220.07c1.39-.29,1.71,1.4.45,1.69-1.7.39-1.91-1.38-.45-1.69Z"/>
  <path class="cls-62" d="M279.53,250.9c.71-.08,1.48,1.13.79,1.52-1.49.85-1.86-1.41-.79-1.52Z"/>
  <path class="cls-45" d="M294.64,222.74c-.91.95-1.83-.18-1.08-1.02s2.01.06,1.08,1.02Z"/>
  <path class="cls-62" d="M286.28,238.4c.62-.16.9,1.47-.04,1.97-1.34.7-.66-1.78.04-1.97Z"/>
  <path class="cls-45" d="M292.66,231.92c.9-.12.63,1.4.03,1.66-1.33.56-1.34-1.48-.03-1.66Z"/>
  <path class="cls-45" d="M296.15,228.55c.79-.24,1.09.64.66,1.29-1.04,1.59-1.79-.95-.66-1.29Z"/>
  <path class="cls-14" d="M279.66,246.01c.8-.21.97,1.98.1,1.99-.7,0-.78-1.81-.1-1.99Z"/>
  <path class="cls-45" d="M277.04,247.04c.44.38.73,1.68-.27,1.46-1.29-.29-.52-2.15.27-1.46Z"/>
  <circle class="cls-66" cx="281.65" cy="242.88" r=".72"/>
  <path class="cls-41" d="M295.69,233.64c.16.48-.56,1.55-1.03,1.48-1.1-.16.26-1.82,1.03-1.48Z"/>
  <path class="cls-41" d="M282.08,249.86c-.26-.18-.36-1.87.41-1.72.83.16.3,2.22-.41,1.72Z"/>
  <path class="cls-45" d="M288.65,234.17c1.21-.37.98,1.35,0,1.08-.58-.16-.52-.92,0-1.08Z"/>
  <path class="cls-104" d="M285.63,259.61c.44-.12,1.09.91.69,1.19-.62.44-1.12-1.07-.69-1.19Z"/>
  <path class="cls-39" d="M288.15,263.11c.42-.02.78,1.03.36,1.12-.3.06-1.09-.89-.36-1.12Z"/>
  <path class="cls-47" d="M283.68,257.47c-.44.27-.85-.45-.74-.86.73-.34,1.17.59.74.86Z"/>
  <path class="cls-78" d="M290.98,236.3c.2-.23.96-.51.96.03,0,.63-1.51.6-.96-.03Z"/>
  <path class="cls-78" d="M283.26,252.74c.21,0,.92,1.01.37,1.12-.43.09-.79-1.13-.37-1.12Z"/>
  <path class="cls-78" d="M284.57,243.38c.05.45-.19,1.06-.75,1-.06-.5.2-.97.75-1Z"/>
  <path class="cls-40" d="M293.31,219.41c-.42.34-.98.87-1.37,1.25.49-.72.58-.81,1.37-1.25Z"/>
  <path class="cls-39" d="M291.19,221.66c.32-.47.28-.54.75-1-.2.3-.35.81-.75,1Z"/>
  <path class="cls-56" d="M301.06,271.71h-.12c-.16-.07-.82-.21-.56-.5.26.07.49.32.69.5Z"/>
  <path class="cls-98" d="M357.64,251.12c.07,0,.19-.03.23.01.04.05.32,1.13.39,1.36-.48,0-.75-.64-.75-1.05,0-.13.11-.25.12-.32Z"/>
  <path class="cls-14" d="M360.89,263.1c-.39-.25-.79-1.2-.25-1.37.04.42.47,1.02.25,1.37Z"/>
  <path class="cls-61" d="M344.15,233.77c1.12.04,2.29.22,3.44.13l3.68-.26c-.03,1.1.03,2.21,0,3.32,0,.24-.13.46-.13.55-.05,2.75.07,5.53.12,8.24.02.91-.03,1.83,0,2.75.04,1.45.08,2.92.12,4.37.1,3.05.63,6.11,0,9.11-.41,1.94-1.18,3.26-2.75,4.49-1.19.6-2.42.74-3.65,1.15-1.66.55-4.86,2.7-6.51,1.83-.69-.36-2.16-2.14-1.7-2.98.31-.57,2.11-1.48,2.81-1.5h1.31c-1.1-.23-2.27-.05-3.4-.09-.89.19-1.76.56-2.41,1.22-.21-.37.45-.85.73-1.02,1.37-.84,3.31-.55,4.83-.72,2.61-.3,2.66-1.69,4.12-2.06.67-.17,1.29.18,1.81-.44.11-.13.12-.36.22-.46.17-.17,1.01-.36.78-.78-.41.66-1.47.77-1.66-.09-.24-1.08.57-1.67.85-2.59.83-2.64-.34-7.18-1.2-9.8-1.55-4.77-4.19-9.35-4.3-14.48.95.18,1.91.09,2.87.13Z"/>
  <path class="cls-54" d="M386.24,208.18c-.74-.53-1.19-1.59-.94-2.5.03-.12.14-.44.31-.24.03.04-.15.61-.12.92.05.46.23.47.37.7.9,1.51,2.45,1.72,4.12,1.62.1.38-.72.39-.93.38-.63-.03-2.31-.51-2.82-.88Z"/>
  <path class="cls-88" d="M385.87,207.06c-.08-.16-.25-1.38-.12-1.5.92.02.52.56.74,1.32.14.5.44.79.76,1.18-.13.12-1.32-.89-1.37-1Z"/>
  <path class="cls-17" d="M391.11,207.06c-.07.01-.17,0-.25,0l.13-.87h.5c-.2.24-.25.65-.37.87Z"/>
  <path class="cls-9" d="M391.86,206.68s-.36.27-.37.25c-.13-.97.93-1.18.37-.25Z"/>
  <path class="cls-57" d="M336.78,266.47s-.15.05-.19.13c-.38.97.79,2.08,1.43,2.68-1.33,1.08-3.79-.94-3.47-2.35.24-1.04,3.06-2.18,4.1-1.96l-1.43.88c-.29.15-.32.4-.44.62Z"/>
  <path class="cls-37" d="M338.03,264.23c.24-.39.99-.26,1.38-.19.13.02.4,0,.37.19h-1.75Z"/>
  <path class="cls-22" d="M244.1,250.5c.39-.1.48-.02.25.25.15.23.17.58.45.86.26.26.9.44.99.63.14.28,0,.75.14,1.07-3.24,1.67-7.11,1.7-10.7,1.43,1.08-2.31,3.46-3.83,5.95-4.23.68-.11,2.34-.29,2.92-.01Z"/>
  <path class="cls-22" d="M252.35,249s.02.1,0,.12c-.85.89-2.09,1.83-3.12,2.5-.59.27-.84-.86-.73-1.34-.68,0-1.64-.51-1.02-1.15.31-.18.7-.52,1-.75.7-.53,1.68-1.34,2.25-2,.28-.14.49.05.63.55l.38,1.23c.28.29.48.57.62.84Z"/>
  <path class="cls-71" d="M247.47,249.12c-.1.85.72.93,1.37.87-.27.54-.13,1.25.37,1.62v.12c.02.1.05.25-.01.29-.29.19-2.67,1.45-2.84,1.47l-.27-.14c-.05-.37.02-1-.24-1.32-.17-.2-.58-.21-.82-.42-.27-.23-.34-.7-.68-.88-.08-.13-.09-.18-.25-.25,1.13-.43,2.32-.75,3.37-1.37Z"/>
  <path class="cls-61" d="M249.22,251.74l1.31.75c-1.16.76-2.58,1.64-3.93,1.95-.29.07-.22.03-.38-.2,0-.36-.08-.56-.12-.87l3.12-1.62Z"/>
  <path class="cls-71" d="M254.59,246.25c-.7.95-1.44,1.88-2.25,2.75-1.33-.45-.83-1.86-1.62-2.62.27-.31.62-.89.87-1.25.71.43,2.18,1.23,3,1.12Z"/>
  <path class="cls-27" d="M347.48,230.55c1.07-.29,1.01.77-.13.46-.34-.09-.09-.39.13-.46Z"/>
  <path class="cls-78" d="M319.4,222.93c.07.1,0,.34.02.48-.31.16-.88-.32-.87-.56,0-.3.83.04.85.08Z"/>
  <path class="cls-47" d="M314.55,221.16c-.21.3-.44.39-.75.12.14-.22.51-.11.75-.12Z"/>
  <path class="cls-100" d="M384.24,197.82c.24.26-.5.76-.62.62-.24-.26.5-.76.62-.62Z"/>
  <path class="cls-67" d="M385.99,197.2l.87-.13c.18,1.21-.9,1.4-.87.13Z"/>
  <path class="cls-45" d="M348.35,246.15c1.24-.43,1.94,2.16.95,2.45-1.41.43-1.82-2.15-.95-2.45Z"/>
  <path class="cls-45" d="M349.99,240.42c.91.86-.27,3.8-1.12,2.05-.59-1.21.47-2.66,1.12-2.05Z"/>
  <path class="cls-45" d="M349.36,238.1c-1.02.92-1.61-1.55-.63-1.82.81-.22,1.19,1.31.63,1.82Z"/>
  <path class="cls-14" d="M350.08,234.39c.64-.2.73,1.42.37,1.5-.53.11-.81-1.36-.37-1.5Z"/>
  <path class="cls-45" d="M349.93,245.1c-.25-.26-.27-1.09.26-.95.75.2.33,1.56-.26.95Z"/>
  <path class="cls-97" d="M350.46,249.75c.44-.09.75,1.13.24,1.25s-.61-1.17-.24-1.25Z"/>
  <path class="cls-38" d="M350.64,260.23c.1.44.27.93-.37,1-.14-.34-.12-.98.37-1Z"/>
  <path class="cls-83" d="M350.64,253.49c-.26.23-.85-.52-.44-.62.46-.12.52.55.44.62Z"/>
  <path class="cls-30" d="M350.52,256.11c.29-.29.79.51.31.62-.31.07-.39-.54-.31-.62Z"/>
</svg>